# Created by SubDrag and the GoldenEye Setup Editor V4.4
mtllib Gun000E.mtl
#joint 0
#jointposition 0.000000 -20.375574 -74.143860
#joint 1
#jointposition -0.126130 -34.500000 -403.726105
#joint 2
#jointposition 0.000000 -20.375574 -74.143860
#joint 3
#jointposition 28.404760 -54.346611 -32.664295
#joint 4
#jointposition 50.075203 -78.841194 -10.664248
#joint 5
#jointposition 28.643808 -16.714527 20.778549
#joint 6
#jointposition 26.518341 -24.155291 60.154758
#joint 7
#jointposition 24.862719 -25.637974 87.085503
#joint 8
#jointposition 8.820322 -11.296313 21.695198
#joint 9
#jointposition 8.668717 -23.348385 71.418152
#joint 10
#jointposition 7.570724 -26.182207 98.349426
#joint 11
#jointposition -7.449821 -15.536673 21.601517
#joint 12
#jointposition -6.777197 -21.532187 62.353848
#joint 13
#jointposition -6.290760 -23.494061 85.077034
#joint 14
#jointposition -23.590879 -23.057791 21.828247
#joint 15
#jointposition -21.894306 -25.130569 56.929543
#joint 16
#jointposition -20.740978 -24.727604 74.077179
#joint 17
#jointposition 234.474915 -34.500000 -403.725983
#joint 18
#jointposition 234.348785 -20.375599 -74.143890
#joint 19
#jointposition 205.943985 -54.346600 -32.664291
#joint 20
#jointposition 184.273590 -78.841202 -10.664192
#joint 21
#jointposition 205.704987 -16.714600 20.778511
#joint 22
#jointposition 207.830490 -24.155300 60.154812
#joint 23
#jointposition 209.561584 -25.811800 87.094810
#joint 24
#jointposition 225.528473 -11.296299 21.695213
#joint 25
#jointposition 225.680069 -23.348400 71.418114
#joint 26
#jointposition 226.778076 -26.182199 98.349411
#joint 27
#jointposition 241.798599 -15.536699 21.601509
#joint 28
#jointposition 241.125977 -21.532200 62.353809
#joint 29
#jointposition 240.639542 -23.494101 85.077011
#joint 30
#jointposition 257.939697 -23.057798 21.828209
#joint 31
#jointposition 256.243103 -25.130598 56.929508
#joint 32
#jointposition 255.089798 -24.727598 74.077209
#joint 33
#jointposition 19.590300 -43.870060 -258.852325
#joint 34
#jointposition 26.983303 -96.266235 66.384247
#joint 35
#jointposition 1.443121 -124.549988 280.979462
#joint 36
#jointposition 38.440941 -124.549988 284.897339
#joint 37
#jointposition 12.441689 30.087128 82.477112
#joint 38
#jointposition 16.390591 45.087814 165.199188
#joint 39
#jointposition 19.590416 -17.766214 22.130402
#joint 40
#jointposition 19.869757 -78.335312 -12.652031
#joint 41
#jointposition 18.790588 -225.033936 154.655411
#joint 42
#jointposition 18.790596 -112.669159 -263.535400
#joint 43
#jointposition 19.482956 11.414803 412.980225
#joint 44
#jointposition 19.482956 11.398353 458.134491
#joint 45
#jointposition 19.482956 11.364872 550.034485
#connection 0 1
#connection 1 2
#connection 2 3
#connection 3 4
#connection 2 5
#connection 5 6
#connection 6 7
#connection 2 8
#connection 8 9
#connection 9 10
#connection 2 11
#connection 11 12
#connection 12 13
#connection 2 14
#connection 14 15
#connection 15 16
#connection 2 33
#connection 33 34
#connection 34 35
#connection 34 36
#connection 34 37
#connection 37 38
#connection 34 43
#connection 43 44
#connection 43 45
#connection 33 39
#connection 39 40
#connection 33 42
#connection 0 17
#connection 17 18
#connection 18 19
#connection 19 20
#connection 18 21
#connection 21 22
#connection 22 23
#connection 18 24
#connection 24 25
#connection 25 26
#connection 18 27
#connection 27 28
#connection 28 29
#connection 18 30
#connection 30 31
#connection 31 32
#connection 18 41
g Room01
g Room01_primary
usemtl m0EnvMappingTexScaleS0.031250TexScaleT0.031250
vt 0.000000 0.000000 0.0
vt 0.000000 0.000000 0.0
vt 0.000000 0.000000 0.0
v 33.983303 -96.266235 180.384247
#joint 34
#vjoint 1
#vcolor 127.000000 0.000000 0.000000 255.000000
v 33.983303 -36.266235 233.384247
#joint 34
#vjoint 2
v 33.983303 -36.266235 375.384247
#joint 34
#vjoint 3
vn 1.000000 0.000000 0.000000
vn 1.000000 0.000000 0.000000
vn 1.000000 0.000000 0.000000
f 1/1/1 2/2/2 3/3/3
#fvcolorindex 1 1 1 
vt 0.000000 0.000000 0.0
vt 0.000000 0.000000 0.0
vt 0.000000 0.000000 0.0
v 33.983303 -96.266235 360.384247
#joint 34
#vjoint 4
vn 1.000000 0.000000 0.000000
vn 1.000000 0.000000 0.000000
vn 1.000000 0.000000 0.000000
f 1/4/4 3/5/5 4/6/6
#fvcolorindex 1 1 1 
usemtl m1EnvMappingTexScaleS0.031250TexScaleT0.031250
vt 0.000000 0.000000 0.0
vt 0.000000 0.000000 0.0
vt 0.000000 0.000000 0.0
v 33.983303 -96.266235 75.384247
#joint 34
#vjoint 5
#vcolor 117.000000 0.000000 208.000000 255.000000
v 33.983303 -36.266235 75.384247
#joint 34
#vjoint 6
#vcolor 89.000000 0.000000 167.000000 255.000000
vn 0.921260 0.000000 1.637795
vn 0.700787 0.000000 1.314961
vn 1.000000 0.000000 0.000000
f 5/7/7 6/8/8 2/9/9
#fvcolorindex 2 3 1 
vt 0.000000 0.000000 0.0
vt 0.000000 0.000000 0.0
vt 0.000000 0.000000 0.0
vn 0.921260 0.000000 1.637795
vn 1.000000 0.000000 0.000000
vn 1.000000 0.000000 0.000000
f 5/10/10 2/11/11 1/12/12
#fvcolorindex 2 1 1 
usemtl m2EnvMappingTexScaleS0.031250TexScaleT0.031250
vt 0.000000 0.000000 0.0
vt 0.000000 0.000000 0.0
vt 0.000000 0.000000 0.0
v 33.983303 23.733765 375.384247
#joint 34
#vjoint 7
#vcolor 117.000000 48.000000 0.000000 255.000000
vn 0.921260 0.377953 0.000000
vn 1.000000 0.000000 0.000000
vn 1.000000 0.000000 0.000000
f 7/13/13 3/14/14 2/15/15
#fvcolorindex 4 1 1 
vt 0.000000 0.000000 0.0
vt 0.000000 0.000000 0.0
vt 0.000000 0.000000 0.0
v 33.983303 23.733765 233.384247
#joint 34
#vjoint 8
vn 0.921260 0.377953 0.000000
vn 1.000000 0.000000 0.000000
vn 0.921260 0.377953 0.000000
f 7/16/16 2/17/17 8/18/18
#fvcolorindex 4 1 4 
usemtl m3EnvMappingTexScaleS0.031250TexScaleT0.031250
vt 0.000000 0.000000 0.0
vt 0.000000 0.000000 0.0
vt 0.000000 0.000000 0.0
v 33.983303 -36.266235 405.384247
#joint 34
#vjoint 9
#vcolor 117.000000 0.000000 48.000000 255.000000
vn 0.921260 0.000000 0.377953
vn 1.000000 0.000000 0.000000
vn 0.921260 0.377953 0.000000
f 9/19/19 3/20/20 7/21/21
#fvcolorindex 5 1 4 
vt 0.000000 0.000000 0.0
vt 0.000000 0.000000 0.0
vt 0.000000 0.000000 0.0
v 33.983303 23.733765 405.384247
#joint 34
#vjoint 10
#vcolor 117.000000 34.000000 34.000000 255.000000
vn 0.921260 0.000000 0.377953
vn 0.921260 0.377953 0.000000
vn 0.921260 0.267717 0.267717
f 9/22/22 7/23/23 10/24/24
#fvcolorindex 5 4 6 
usemtl m4EnvMappingTexScaleS0.031250TexScaleT0.031250
vt 0.000000 0.000000 0.0
vt 0.000000 0.000000 0.0
vt 0.000000 0.000000 0.0
v -2.609409 54.087814 233.199188
#joint 38
#vjoint 11
#vcolor 208.000000 117.000000 0.000000 255.000000
v 57.390591 54.087814 233.199188
#joint 38
#vjoint 12
#vcolor 0.000000 127.000000 0.000000 255.000000
v 57.390591 54.087814 75.199188
#joint 38
#vjoint 13
#vcolor 0.000000 89.000000 167.000000 255.000000
vn 1.637795 0.921260 0.000000
vn 0.000000 1.000000 0.000000
vn 0.000000 0.700787 1.314961
f 11/25/25 12/26/26 13/27/27
#fvcolorindex 7 8 9 
vt 0.000000 0.000000 0.0
vt 0.000000 0.000000 0.0
vt 0.000000 0.000000 0.0
v -2.609409 54.087814 75.199188
#joint 38
#vjoint 14
#vcolor 192.000000 109.000000 0.000000 255.000000
vn 1.637795 0.921260 0.000000
vn 0.000000 0.700787 1.314961
vn 1.511811 0.858268 0.000000
f 11/28/28 13/29/29 14/30/30
#fvcolorindex 7 9 10 
usemtl m5EnvMappingTexScaleS0.031250TexScaleT0.031250
vt 0.000000 0.000000 0.0
vt 0.000000 0.000000 0.0
vt 0.000000 0.000000 0.0
v 33.590302 -95.870056 59.147675
#joint 33
#vjoint 15
#vcolor 122.000000 0.000000 32.000000 255.000000
v 33.869759 -83.335312 53.347969
#joint 40
#vjoint 16
v 33.590416 -35.766212 53.130402
#joint 39
#vjoint 17
vn 0.960630 0.000000 0.251969
vn 1.000000 0.000000 0.000000
vn 1.000000 0.000000 0.000000
f 15/31/31 16/32/32 17/33/33
#fvcolorindex 11 1 1 
vt 0.000000 0.000000 0.0
vt 0.000000 0.000000 0.0
vt 0.000000 0.000000 0.0
v 33.590302 -35.870060 59.147675
#joint 33
#vjoint 18
vn 0.960630 0.000000 0.251969
vn 1.000000 0.000000 0.000000
vn 0.921260 0.000000 0.377953
f 15/34/34 17/35/35 18/36/36
#fvcolorindex 11 1 5 
vt 0.000000 0.000000 0.0
vt 0.000000 0.000000 0.0
vt 0.000000 0.000000 0.0
v 33.590302 -95.870056 -45.852325
#joint 33
#vjoint 19
v 33.869759 -83.335312 -40.652031
#joint 40
#vjoint 20
vn 0.960630 0.000000 0.251969
vn 1.000000 0.000000 0.000000
vn 1.000000 0.000000 0.000000
f 15/37/37 19/38/38 20/39/39
#fvcolorindex 11 1 1 
vt 0.000000 0.000000 0.0
vt 0.000000 0.000000 0.0
vt 0.000000 0.000000 0.0
vn 0.960630 0.000000 0.251969
vn 1.000000 0.000000 0.000000
vn 1.000000 0.000000 0.000000
f 15/40/40 20/41/41 16/42/42
#fvcolorindex 11 1 1 
usemtl m0EnvMappingTexScaleS0.031250TexScaleT0.031250
vt 0.000000 0.000000 0.0
vt 0.000000 0.000000 0.0
vt 0.000000 0.000000 0.0
v 33.590302 -35.870060 -60.852325
#joint 33
#vjoint 21
v 33.590416 -35.766212 -40.869598
#joint 39
#vjoint 22
vn 1.000000 0.000000 0.000000
vn 1.000000 0.000000 0.000000
vn 1.000000 0.000000 0.000000
f 19/43/43 21/44/44 22/45/45
#fvcolorindex 1 1 1 
vt 0.000000 0.000000 0.0
vt 0.000000 0.000000 0.0
vt 0.000000 0.000000 0.0
vn 1.000000 0.000000 0.000000
vn 1.000000 0.000000 0.000000
vn 1.000000 0.000000 0.000000
f 19/46/46 22/47/47 20/48/48
#fvcolorindex 1 1 1 
usemtl m6EnvMappingTexScaleS0.031250TexScaleT0.031250
vt 0.000000 0.000000 0.0
vt 0.000000 0.000000 0.0
vt 0.000000 0.000000 0.0
v 33.590302 24.129940 59.147675
#joint 33
#vjoint 23
#vcolor 121.000000 25.000000 25.000000 255.000000
v 33.590416 11.233786 53.130402
#joint 39
#vjoint 24
v 33.590416 11.233786 -40.869598
#joint 39
#vjoint 25
vn 0.952756 0.196850 0.196850
vn 1.000000 0.000000 0.000000
vn 1.000000 0.000000 0.000000
f 23/49/49 24/50/50 25/51/51
#fvcolorindex 12 1 1 
vt 0.000000 0.000000 0.0
vt 0.000000 0.000000 0.0
vt 0.000000 0.000000 0.0
v 33.590302 24.129940 -60.852325
#joint 33
#vjoint 26
#vcolor 120.000000 38.000000 0.000000 255.000000
vn 0.952756 0.196850 0.196850
vn 1.000000 0.000000 0.000000
vn 0.944882 0.299213 0.000000
f 23/52/52 25/53/53 26/54/54
#fvcolorindex 12 1 13 
usemtl m0EnvMappingTexScaleS0.031250TexScaleT0.031250
vt 0.000000 0.000000 0.0
vt 0.000000 0.000000 0.0
vt 0.000000 0.000000 0.0
vn 1.000000 0.000000 0.000000
vn 1.000000 0.000000 0.000000
vn 1.000000 0.000000 0.000000
f 25/55/55 22/56/56 21/57/57
#fvcolorindex 1 1 1 
vt 0.000000 0.000000 0.0
vt 0.000000 0.000000 0.0
vt 0.000000 0.000000 0.0
vn 1.000000 0.000000 0.000000
vn 1.000000 0.000000 0.000000
vn 0.944882 0.299213 0.000000
f 25/58/58 21/59/59 26/60/60
#fvcolorindex 1 1 13 
usemtl m6EnvMappingTexScaleS0.031250TexScaleT0.031250
vt 0.000000 0.000000 0.0
vt 0.000000 0.000000 0.0
vt 0.000000 0.000000 0.0
vn 0.952756 0.196850 0.196850
vn 0.921260 0.000000 0.377953
vn 1.000000 0.000000 0.000000
f 23/61/61 18/62/62 17/63/63
#fvcolorindex 12 5 1 
vt 0.000000 0.000000 0.0
vt 0.000000 0.000000 0.0
vt 0.000000 0.000000 0.0
vn 0.952756 0.196850 0.196850
vn 1.000000 0.000000 0.000000
vn 1.000000 0.000000 0.000000
f 23/64/64 17/65/65 24/66/66
#fvcolorindex 12 1 1 
usemtl m7EnvMappingTexScaleS0.031250TexScaleT0.031250
vt 0.000000 0.000000 0.0
vt 0.000000 0.000000 0.0
vt 0.000000 0.000000 0.0
v 33.590302 -35.870060 -210.852325
#joint 33
#vjoint 27
vn 0.944882 0.299213 0.000000
vn 1.000000 0.000000 0.000000
vn 1.000000 0.000000 0.000000
f 26/67/67 21/68/68 27/69/69
#fvcolorindex 13 1 1 
vt 0.000000 0.000000 0.0
vt 0.000000 0.000000 0.0
vt 0.000000 0.000000 0.0
v 33.590302 24.129940 -270.852325
#joint 33
#vjoint 28
#vcolor 121.000000 25.000000 231.000000 255.000000
vn 0.944882 0.299213 0.000000
vn 1.000000 0.000000 0.000000
vn 0.952756 0.196850 1.818898
f 26/70/70 27/71/71 28/72/72
#fvcolorindex 13 1 14 
usemtl m0EnvMappingTexScaleS0.031250TexScaleT0.031250
vt 0.000000 0.000000 0.0
vt 0.000000 0.000000 0.0
vt 0.000000 0.000000 0.0
v 33.590302 -95.870056 -225.852325
#joint 33
#vjoint 29
v 33.590302 -95.870056 -270.852325
#joint 33
#vjoint 30
vn 1.000000 0.000000 0.000000
vn 1.000000 0.000000 0.000000
vn 0.921260 0.000000 1.637795
f 27/73/73 29/74/74 30/75/75
#fvcolorindex 1 1 2 
vt 0.000000 0.000000 0.0
vt 0.000000 0.000000 0.0
vt 0.000000 0.000000 0.0
vn 1.000000 0.000000 0.000000
vn 0.921260 0.000000 1.637795
vn 0.952756 0.196850 1.818898
f 27/76/76 30/77/77 28/78/78
#fvcolorindex 1 2 14 
usemtl m1EnvMappingTexScaleS0.031250TexScaleT0.031250
vt 0.000000 0.000000 0.0
vt 0.000000 0.000000 0.0
vt 0.000000 0.000000 0.0
v 33.590302 -155.870056 -240.852325
#joint 33
#vjoint 31
vn 0.921260 0.000000 1.637795
vn 1.000000 0.000000 0.000000
vn 1.000000 0.000000 0.000000
f 30/79/79 29/80/80 31/81/81
#fvcolorindex 2 1 1 
vt 0.000000 0.000000 0.0
vt 0.000000 0.000000 0.0
vt 0.000000 0.000000 0.0
v 33.590302 -155.870056 -270.852325
#joint 33
#vjoint 32
vn 0.921260 0.000000 1.637795
vn 1.000000 0.000000 0.000000
vn 0.921260 0.000000 1.637795
f 30/82/82 31/83/83 32/84/84
#fvcolorindex 2 1 2 
usemtl m8EnvMappingTexScaleS0.031250TexScaleT0.031250
vt 0.000000 0.000000 0.0
vt 0.000000 0.000000 0.0
vt 0.000000 0.000000 0.0
v 3.983303 -18.266235 309.384247
#joint 34
#vjoint 33
#vcolor 129.000000 0.000000 0.000000 255.000000
v 3.983303 -18.266235 299.384247
#joint 34
#vjoint 34
v 3.983303 -36.266235 233.384247
#joint 34
#vjoint 35
vn 1.015748 0.000000 0.000000
vn 1.015748 0.000000 0.000000
vn 1.015748 0.000000 0.000000
f 33/85/85 34/86/86 35/87/87
#fvcolorindex 15 15 15 
vt 0.000000 0.000000 0.0
vt 0.000000 0.000000 0.0
vt 0.000000 0.000000 0.0
v 3.983303 -36.266235 319.384247
#joint 34
#vjoint 36
vn 1.015748 0.000000 0.000000
vn 1.015748 0.000000 0.000000
vn 1.015748 0.000000 0.000000
f 33/88/88 35/89/89 36/90/90
#fvcolorindex 15 15 15 
vt 0.000000 0.000000 0.0
vt 0.000000 0.000000 0.0
vt 0.000000 0.000000 0.0
v 3.983303 -36.266235 375.384247
#joint 34
#vjoint 37
vn 1.015748 0.000000 0.000000
vn 1.015748 0.000000 0.000000
vn 1.015748 0.000000 0.000000
f 37/91/91 33/92/92 36/93/93
#fvcolorindex 15 15 15 
vt 0.000000 0.000000 0.0
vt 0.000000 0.000000 0.0
vt 0.000000 0.000000 0.0
v 3.983303 -18.266235 375.384247
#joint 34
#vjoint 38
vn 1.015748 0.000000 0.000000
vn 1.015748 0.000000 0.000000
vn 1.015748 0.000000 0.000000
f 37/94/94 38/95/95 33/96/96
#fvcolorindex 15 15 15 
vt 0.000000 0.000000 0.0
vt 0.000000 0.000000 0.0
vt 0.000000 0.000000 0.0
v 3.983303 16.733765 309.384247
#joint 34
#vjoint 39
v 3.983303 16.733765 299.384247
#joint 34
#vjoint 40
vn 1.015748 0.000000 0.000000
vn 1.015748 0.000000 0.000000
vn 1.015748 0.000000 0.000000
f 33/97/97 39/98/98 40/99/99
#fvcolorindex 15 15 15 
vt 0.000000 0.000000 0.0
vt 0.000000 0.000000 0.0
vt 0.000000 0.000000 0.0
vn 1.015748 0.000000 0.000000
vn 1.015748 0.000000 0.000000
vn 1.015748 0.000000 0.000000
f 33/100/100 40/101/101 34/102/102
#fvcolorindex 15 15 15 
vt 0.000000 0.000000 0.0
vt 0.000000 0.000000 0.0
vt 0.000000 0.000000 0.0
v 3.983303 -18.266235 233.384247
#joint 34
#vjoint 41
vn 1.015748 0.000000 0.000000
vn 1.015748 0.000000 0.000000
vn 1.015748 0.000000 0.000000
f 34/103/103 41/104/104 35/105/105
#fvcolorindex 15 15 15 
vt 0.000000 0.000000 0.0
vt 0.000000 0.000000 0.0
vt 0.000000 0.000000 0.0
v 3.983303 -96.266235 180.384247
#joint 34
#vjoint 42
v 3.983303 -36.266235 75.384247
#joint 34
#vjoint 43
#vcolor 132.000000 0.000000 229.000000 255.000000
vn 1.015748 0.000000 0.000000
vn 1.015748 0.000000 0.000000
vn 1.039370 0.000000 1.803150
f 42/106/106 35/107/107 43/108/108
#fvcolorindex 15 15 16 
vt 0.000000 0.000000 0.0
vt 0.000000 0.000000 0.0
vt 0.000000 0.000000 0.0
v 3.983303 -96.266235 75.384247
#joint 34
#vjoint 44
#vcolor 139.000000 0.000000 208.000000 255.000000
vn 1.015748 0.000000 0.000000
vn 1.039370 0.000000 1.803150
vn 1.094488 0.000000 1.637795
f 42/109/109 43/110/110 44/111/111
#fvcolorindex 15 16 17 
vt 0.000000 0.000000 0.0
vt 0.000000 0.000000 0.0
vt 0.000000 0.000000 0.0
v 3.983303 16.733765 233.384247
#joint 34
#vjoint 45
v 3.983303 23.733765 233.384247
#joint 34
#vjoint 46
#vcolor 136.000000 38.000000 0.000000 255.000000
v 3.983303 23.733765 75.384247
#joint 34
#vjoint 47
#vcolor 135.000000 25.000000 231.000000 255.000000
vn 1.015748 0.000000 0.000000
vn 1.070866 0.299213 0.000000
vn 1.062992 0.196850 1.818898
f 45/112/112 46/113/113 47/114/114
#fvcolorindex 15 18 19 
vt 0.000000 0.000000 0.0
vt 0.000000 0.000000 0.0
vt 0.000000 0.000000 0.0
vn 1.015748 0.000000 0.000000
vn 1.062992 0.196850 1.818898
vn 1.039370 0.000000 1.803150
f 45/115/115 47/116/116 43/117/117
#fvcolorindex 15 19 16 
vt 0.000000 0.000000 0.0
vt 0.000000 0.000000 0.0
vt 0.000000 0.000000 0.0
vn 1.015748 0.000000 0.000000
vn 1.015748 0.000000 0.000000
vn 1.039370 0.000000 1.803150
f 41/118/118 45/119/119 43/120/120
#fvcolorindex 15 15 16 
vt 0.000000 0.000000 0.0
vt 0.000000 0.000000 0.0
vt 0.000000 0.000000 0.0
vn 1.015748 0.000000 0.000000
vn 1.015748 0.000000 0.000000
vn 1.039370 0.000000 1.803150
f 35/121/121 41/122/122 43/123/123
#fvcolorindex 15 15 16 
usemtl m9EnvMappingTexScaleS0.031250TexScaleT0.031250
vt 0.000000 0.000000 0.0
vt 0.000000 0.000000 0.0
vt 0.000000 0.000000 0.0
vn 1.070866 0.299213 0.000000
vn 1.015748 0.000000 0.000000
vn 1.015748 0.000000 0.000000
f 46/124/124 45/125/125 40/126/126
#fvcolorindex 18 15 15 
usemtl m8EnvMappingTexScaleS0.031250TexScaleT0.031250
vt 0.000000 0.000000 0.0
vt 0.000000 0.000000 0.0
vt 0.000000 0.000000 0.0
v 3.983303 16.733765 375.384247
#joint 34
#vjoint 48
v 3.983303 23.733765 375.384247
#joint 34
#vjoint 49
vn 1.015748 0.000000 0.000000
vn 1.015748 0.000000 0.000000
vn 1.070866 0.299213 0.000000
f 39/127/127 48/128/128 49/129/129
#fvcolorindex 15 15 18 
usemtl m9EnvMappingTexScaleS0.031250TexScaleT0.031250
vt 0.000000 0.000000 0.0
vt 0.000000 0.000000 0.0
vt 0.000000 0.000000 0.0
vn 1.070866 0.299213 0.000000
vn 1.015748 0.000000 0.000000
vn 1.015748 0.000000 0.000000
f 46/130/130 40/131/131 39/132/132
#fvcolorindex 18 15 15 
vt 0.000000 0.000000 0.0
vt 0.000000 0.000000 0.0
vt 0.000000 0.000000 0.0
vn 1.070866 0.299213 0.000000
vn 1.015748 0.000000 0.000000
vn 1.070866 0.299213 0.000000
f 46/133/133 39/134/134 49/135/135
#fvcolorindex 18 15 18 
usemtl m8EnvMappingTexScaleS0.031250TexScaleT0.031250
vt 0.000000 0.000000 0.0
vt 0.000000 0.000000 0.0
vt 0.000000 0.000000 0.0
v 3.983303 -96.266235 360.384247
#joint 34
#vjoint 50
vn 1.015748 0.000000 0.000000
vn 1.015748 0.000000 0.000000
vn 1.015748 0.000000 0.000000
f 50/136/136 37/137/137 36/138/138
#fvcolorindex 15 15 15 
vt 0.000000 0.000000 0.0
vt 0.000000 0.000000 0.0
vt 0.000000 0.000000 0.0
v 3.983303 -81.266235 319.384247
#joint 34
#vjoint 51
vn 1.015748 0.000000 0.000000
vn 1.015748 0.000000 0.000000
vn 1.015748 0.000000 0.000000
f 50/139/139 36/140/140 51/141/141
#fvcolorindex 15 15 15 
vt 0.000000 0.000000 0.0
vt 0.000000 0.000000 0.0
vt 0.000000 0.000000 0.0
vn 1.015748 0.000000 0.000000
vn 1.015748 0.000000 0.000000
vn 1.015748 0.000000 0.000000
f 42/142/142 50/143/143 51/144/144
#fvcolorindex 15 15 15 
vt 0.000000 0.000000 0.0
vt 0.000000 0.000000 0.0
vt 0.000000 0.000000 0.0
v 3.983303 -81.266235 233.384247
#joint 34
#vjoint 52
vn 1.015748 0.000000 0.000000
vn 1.015748 0.000000 0.000000
vn 1.015748 0.000000 0.000000
f 42/145/145 51/146/146 52/147/147
#fvcolorindex 15 15 15 
vt 0.000000 0.000000 0.0
vt 0.000000 0.000000 0.0
vt 0.000000 0.000000 0.0
vn 1.015748 0.000000 0.000000
vn 1.015748 0.000000 0.000000
vn 1.015748 0.000000 0.000000
f 42/148/148 52/149/149 35/150/150
#fvcolorindex 15 15 15 
vt 0.000000 0.000000 0.0
vt 0.000000 0.000000 0.0
vt 0.000000 0.000000 0.0
v 3.983303 -36.266235 405.384247
#joint 34
#vjoint 53
#vcolor 136.000000 0.000000 38.000000 255.000000
vn 1.015748 0.000000 0.000000
vn 1.015748 0.000000 0.000000
vn 1.070866 0.000000 0.299213
f 38/151/151 37/152/152 53/153/153
#fvcolorindex 15 15 20 
vt 0.000000 0.000000 0.0
vt 0.000000 0.000000 0.0
vt 0.000000 0.000000 0.0
vn 1.015748 0.000000 0.000000
vn 1.015748 0.000000 0.000000
vn 1.070866 0.000000 0.299213
f 48/154/154 38/155/155 53/156/156
#fvcolorindex 15 15 20 
vt 0.000000 0.000000 0.0
vt 0.000000 0.000000 0.0
vt 0.000000 0.000000 0.0
v 3.983303 23.733765 405.384247
#joint 34
#vjoint 54
#vcolor 141.000000 16.000000 50.000000 255.000000
vn 1.015748 0.000000 0.000000
vn 1.070866 0.000000 0.299213
vn 1.110236 0.125984 0.393701
f 48/157/157 53/158/158 54/159/159
#fvcolorindex 15 20 21 
usemtl m9EnvMappingTexScaleS0.031250TexScaleT0.031250
vt 0.000000 0.000000 0.0
vt 0.000000 0.000000 0.0
vt 0.000000 0.000000 0.0
vn 1.070866 0.299213 0.000000
vn 1.015748 0.000000 0.000000
vn 1.110236 0.125984 0.393701
f 49/160/160 48/161/161 54/162/162
#fvcolorindex 18 15 21 
usemtl m10EnvMappingTexScaleS0.031250TexScaleT0.031250
vt 0.000000 0.000000 0.0
vt 0.000000 0.000000 0.0
vt 0.000000 0.000000 0.0
v 5.983303 14.733765 297.384247
#joint 34
#vjoint 55
#vcolor 157.000000 0.000000 178.000000 255.000000
v 5.983303 -16.266235 297.384247
#joint 34
#vjoint 56
vn 1.236220 0.000000 1.401575
vn 1.236220 0.000000 1.401575
vn 1.236220 0.000000 1.401575
f 55/163/163 56/164/164 34/165/165
#fvcolorindex 22 22 22 
vt 0.000000 0.000000 0.0
vt 0.000000 0.000000 0.0
vt 0.000000 0.000000 0.0
vn 1.236220 0.000000 1.401575
vn 1.236220 0.000000 1.401575
vn 1.236220 0.000000 1.401575
f 55/166/166 34/167/167 40/168/168
#fvcolorindex 22 22 22 
usemtl m11EnvMappingTexScaleS0.031250TexScaleT0.031250
vt 0.000000 0.000000 0.0
vt 0.000000 0.000000 0.0
vt 0.000000 0.000000 0.0
#vcolor 157.000000 178.000000 0.000000 255.000000
vn 1.236220 1.401575 0.000000
vn 1.236220 1.401575 0.000000
vn 1.236220 1.401575 0.000000
f 55/169/169 40/170/170 45/171/171
#fvcolorindex 23 23 23 
vt 0.000000 0.000000 0.0
vt 0.000000 0.000000 0.0
vt 0.000000 0.000000 0.0
v 5.983303 14.733765 235.384247
#joint 34
#vjoint 57
vn 1.236220 1.401575 0.000000
vn 1.236220 1.401575 0.000000
vn 1.236220 1.401575 0.000000
f 55/172/172 45/173/173 57/174/174
#fvcolorindex 23 23 23 
usemtl m12EnvMappingTexScaleS0.031250TexScaleT0.031250
vt 0.000000 0.000000 0.0
vt 0.000000 0.000000 0.0
vt 0.000000 0.000000 0.0
#vcolor 157.000000 0.000000 78.000000 255.000000
vn 1.236220 0.000000 0.614173
vn 1.236220 0.000000 0.614173
vn 1.236220 0.000000 0.614173
f 57/175/175 45/176/176 41/177/177
#fvcolorindex 24 24 24 
vt 0.000000 0.000000 0.0
vt 0.000000 0.000000 0.0
vt 0.000000 0.000000 0.0
v 5.983303 -16.266235 235.384247
#joint 34
#vjoint 58
vn 1.236220 0.000000 0.614173
vn 1.236220 0.000000 0.614173
vn 1.236220 0.000000 0.614173
f 57/178/178 41/179/179 58/180/180
#fvcolorindex 24 24 24 
usemtl m13EnvMappingTexScaleS0.031250TexScaleT0.031250
vt 0.000000 0.000000 0.0
vt 0.000000 0.000000 0.0
vt 0.000000 0.000000 0.0
#vcolor 157.000000 78.000000 0.000000 255.000000
vn 1.236220 0.614173 0.000000
vn 1.236220 0.614173 0.000000
vn 1.236220 0.614173 0.000000
f 58/181/181 41/182/182 34/183/183
#fvcolorindex 25 25 25 
vt 0.000000 0.000000 0.0
vt 0.000000 0.000000 0.0
vt 0.000000 0.000000 0.0
vn 1.236220 0.614173 0.000000
vn 1.236220 0.614173 0.000000
vn 1.236220 0.614173 0.000000
f 58/184/184 34/185/185 56/186/186
#fvcolorindex 25 25 25 
vt 0.000000 0.000000 0.0
vt 0.000000 0.000000 0.0
vt 0.000000 0.000000 0.0
v 5.983303 -79.266235 235.384247
#joint 34
#vjoint 59
vn 1.236220 0.614173 0.000000
vn 1.236220 0.614173 0.000000
vn 1.236220 0.614173 0.000000
f 59/187/187 52/188/188 51/189/189
#fvcolorindex 25 25 25 
vt 0.000000 0.000000 0.0
vt 0.000000 0.000000 0.0
vt 0.000000 0.000000 0.0
v 5.983303 -79.266235 317.384247
#joint 34
#vjoint 60
vn 1.236220 0.614173 0.000000
vn 1.236220 0.614173 0.000000
vn 1.236220 0.614173 0.000000
f 59/190/190 51/191/191 60/192/192
#fvcolorindex 25 25 25 
usemtl m12EnvMappingTexScaleS0.031250TexScaleT0.031250
vt 0.000000 0.000000 0.0
vt 0.000000 0.000000 0.0
vt 0.000000 0.000000 0.0
v 5.983303 -38.266235 235.384247
#joint 34
#vjoint 61
vn 1.236220 0.000000 0.614173
vn 1.236220 0.000000 0.614173
vn 1.236220 0.000000 0.614173
f 61/193/193 35/194/194 52/195/195
#fvcolorindex 24 24 24 
vt 0.000000 0.000000 0.0
vt 0.000000 0.000000 0.0
vt 0.000000 0.000000 0.0
vn 1.236220 0.000000 0.614173
vn 1.236220 0.000000 0.614173
vn 1.236220 0.000000 0.614173
f 61/196/196 52/197/197 59/198/198
#fvcolorindex 24 24 24 
usemtl m11EnvMappingTexScaleS0.031250TexScaleT0.031250
vt 0.000000 0.000000 0.0
vt 0.000000 0.000000 0.0
vt 0.000000 0.000000 0.0
v 5.983303 -38.266235 317.384247
#joint 34
#vjoint 62
vn 1.236220 1.401575 0.000000
vn 1.236220 1.401575 0.000000
vn 1.236220 1.401575 0.000000
f 62/199/199 36/200/200 35/201/201
#fvcolorindex 23 23 23 
vt 0.000000 0.000000 0.0
vt 0.000000 0.000000 0.0
vt 0.000000 0.000000 0.0
vn 1.236220 1.401575 0.000000
vn 1.236220 1.401575 0.000000
vn 1.236220 1.401575 0.000000
f 62/202/202 35/203/203 61/204/204
#fvcolorindex 23 23 23 
usemtl m10EnvMappingTexScaleS0.031250TexScaleT0.031250
vt 0.000000 0.000000 0.0
vt 0.000000 0.000000 0.0
vt 0.000000 0.000000 0.0
vn 1.236220 0.000000 1.401575
vn 1.236220 0.000000 1.401575
vn 1.236220 0.000000 1.401575
f 60/205/205 51/206/206 36/207/207
#fvcolorindex 22 22 22 
vt 0.000000 0.000000 0.0
vt 0.000000 0.000000 0.0
vt 0.000000 0.000000 0.0
vn 1.236220 0.000000 1.401575
vn 1.236220 0.000000 1.401575
vn 1.236220 0.000000 1.401575
f 60/208/208 36/209/209 62/210/210
#fvcolorindex 22 22 22 
vt 0.000000 0.000000 0.0
vt 0.000000 0.000000 0.0
vt 0.000000 0.000000 0.0
v 5.983303 14.733765 373.384247
#joint 34
#vjoint 63
v 5.983303 -16.266235 373.384247
#joint 34
#vjoint 64
vn 1.236220 0.000000 1.401575
vn 1.236220 0.000000 1.401575
vn 1.236220 0.000000 1.401575
f 63/211/211 64/212/212 38/213/213
#fvcolorindex 22 22 22 
vt 0.000000 0.000000 0.0
vt 0.000000 0.000000 0.0
vt 0.000000 0.000000 0.0
vn 1.236220 0.000000 1.401575
vn 1.236220 0.000000 1.401575
vn 1.236220 0.000000 1.401575
f 63/214/214 38/215/215 48/216/216
#fvcolorindex 22 22 22 
usemtl m11EnvMappingTexScaleS0.031250TexScaleT0.031250
vt 0.000000 0.000000 0.0
vt 0.000000 0.000000 0.0
vt 0.000000 0.000000 0.0
vn 1.236220 1.401575 0.000000
vn 1.236220 1.401575 0.000000
vn 1.236220 1.401575 0.000000
f 63/217/217 48/218/218 39/219/219
#fvcolorindex 23 23 23 
vt 0.000000 0.000000 0.0
vt 0.000000 0.000000 0.0
vt 0.000000 0.000000 0.0
v 5.983303 14.733765 311.384247
#joint 34
#vjoint 65
vn 1.236220 1.401575 0.000000
vn 1.236220 1.401575 0.000000
vn 1.236220 1.401575 0.000000
f 63/220/220 39/221/221 65/222/222
#fvcolorindex 23 23 23 
usemtl m12EnvMappingTexScaleS0.031250TexScaleT0.031250
vt 0.000000 0.000000 0.0
vt 0.000000 0.000000 0.0
vt 0.000000 0.000000 0.0
vn 1.236220 0.000000 0.614173
vn 1.236220 0.000000 0.614173
vn 1.236220 0.000000 0.614173
f 65/223/223 39/224/224 33/225/225
#fvcolorindex 24 24 24 
vt 0.000000 0.000000 0.0
vt 0.000000 0.000000 0.0
vt 0.000000 0.000000 0.0
v 5.983303 -16.266235 311.384247
#joint 34
#vjoint 66
vn 1.236220 0.000000 0.614173
vn 1.236220 0.000000 0.614173
vn 1.236220 0.000000 0.614173
f 65/226/226 33/227/227 66/228/228
#fvcolorindex 24 24 24 
usemtl m13EnvMappingTexScaleS0.031250TexScaleT0.031250
vt 0.000000 0.000000 0.0
vt 0.000000 0.000000 0.0
vt 0.000000 0.000000 0.0
vn 1.236220 0.614173 0.000000
vn 1.236220 0.614173 0.000000
vn 1.236220 0.614173 0.000000
f 66/229/229 33/230/230 38/231/231
#fvcolorindex 25 25 25 
vt 0.000000 0.000000 0.0
vt 0.000000 0.000000 0.0
vt 0.000000 0.000000 0.0
vn 1.236220 0.614173 0.000000
vn 1.236220 0.614173 0.000000
vn 1.236220 0.614173 0.000000
f 66/232/232 38/233/233 64/234/234
#fvcolorindex 25 25 25 
usemtl m8EnvMappingTexScaleS0.031250TexScaleT0.031250
vt 0.000000 0.000000 0.0
vt 0.000000 0.000000 0.0
vt 0.000000 0.000000 0.0
v 3.590300 -35.870060 -60.852325
#joint 33
#vjoint 67
v 3.590416 -35.766212 -40.869598
#joint 39
#vjoint 68
v 3.590416 11.233786 -40.869598
#joint 39
#vjoint 69
vn 1.015748 0.000000 0.000000
vn 1.015748 0.000000 0.000000
vn 1.015748 0.000000 0.000000
f 67/235/235 68/236/236 69/237/237
#fvcolorindex 15 15 15 
vt 0.000000 0.000000 0.0
vt 0.000000 0.000000 0.0
vt 0.000000 0.000000 0.0
v 3.590300 24.129940 -60.852325
#joint 33
#vjoint 70
#vcolor 134.000000 32.000000 0.000000 255.000000
vn 1.015748 0.000000 0.000000
vn 1.015748 0.000000 0.000000
vn 1.055118 0.251969 0.000000
f 67/238/238 69/239/239 70/240/240
#fvcolorindex 15 15 26 
vt 0.000000 0.000000 0.0
vt 0.000000 0.000000 0.0
vt 0.000000 0.000000 0.0
v 3.590416 11.233786 53.130402
#joint 39
#vjoint 71
v 3.590300 24.129940 59.147675
#joint 33
#vjoint 72
#vcolor 135.000000 25.000000 25.000000 255.000000
vn 1.015748 0.000000 0.000000
vn 1.015748 0.000000 0.000000
vn 1.062992 0.196850 0.196850
f 69/241/241 71/242/242 72/243/243
#fvcolorindex 15 15 27 
vt 0.000000 0.000000 0.0
vt 0.000000 0.000000 0.0
vt 0.000000 0.000000 0.0
vn 1.015748 0.000000 0.000000
vn 1.062992 0.196850 0.196850
vn 1.055118 0.251969 0.000000
f 69/244/244 72/245/245 70/246/246
#fvcolorindex 15 27 26 
vt 0.000000 0.000000 0.0
vt 0.000000 0.000000 0.0
vt 0.000000 0.000000 0.0
v 3.590416 -35.766212 53.130402
#joint 39
#vjoint 73
v 3.590300 -35.870060 59.147675
#joint 33
#vjoint 74
#vcolor 139.000000 0.000000 48.000000 255.000000
vn 1.015748 0.000000 0.000000
vn 1.015748 0.000000 0.000000
vn 1.094488 0.000000 0.377953
f 71/247/247 73/248/248 74/249/249
#fvcolorindex 15 15 28 
vt 0.000000 0.000000 0.0
vt 0.000000 0.000000 0.0
vt 0.000000 0.000000 0.0
vn 1.015748 0.000000 0.000000
vn 1.094488 0.000000 0.377953
vn 1.062992 0.196850 0.196850
f 71/250/250 74/251/251 72/252/252
#fvcolorindex 15 28 27 
vt 0.000000 0.000000 0.0
vt 0.000000 0.000000 0.0
vt 0.000000 0.000000 0.0
v 3.590300 -95.870056 -225.852325
#joint 33
#vjoint 75
v 3.590300 -95.870056 -270.852325
#joint 33
#vjoint 76
#vcolor 136.000000 0.000000 218.000000 255.000000
v 3.590300 -155.870056 -270.852325
#joint 33
#vjoint 77
vn 1.015748 0.000000 0.000000
vn 1.070866 0.000000 1.716535
vn 1.094488 0.000000 1.637795
f 75/253/253 76/254/254 77/255/255
#fvcolorindex 15 29 17 
vt 0.000000 0.000000 0.0
vt 0.000000 0.000000 0.0
vt 0.000000 0.000000 0.0
v 3.590300 -155.870056 -240.852325
#joint 33
#vjoint 78
vn 1.015748 0.000000 0.000000
vn 1.094488 0.000000 1.637795
vn 1.015748 0.000000 0.000000
f 75/256/256 77/257/257 78/258/258
#fvcolorindex 15 17 15 
vt 0.000000 0.000000 0.0
vt 0.000000 0.000000 0.0
vt 0.000000 0.000000 0.0
v 3.590300 -35.870060 -210.852325
#joint 33
#vjoint 79
vn 1.015748 0.000000 0.000000
vn 1.070866 0.000000 1.716535
vn 1.015748 0.000000 0.000000
f 79/259/259 76/260/260 75/261/261
#fvcolorindex 15 29 15 
vt 0.000000 0.000000 0.0
vt 0.000000 0.000000 0.0
vt 0.000000 0.000000 0.0
v 3.590300 24.129940 -270.852325
#joint 33
#vjoint 80
vn 1.015748 0.000000 0.000000
vn 1.062992 0.196850 1.818898
vn 1.070866 0.000000 1.716535
f 79/262/262 80/263/263 76/264/264
#fvcolorindex 15 19 29 
vt 0.000000 0.000000 0.0
vt 0.000000 0.000000 0.0
vt 0.000000 0.000000 0.0
vn 1.015748 0.000000 0.000000
vn 1.055118 0.251969 0.000000
vn 1.015748 0.000000 0.000000
f 67/265/265 70/266/266 79/267/267
#fvcolorindex 15 26 15 
usemtl m14EnvMappingTexScaleS0.031250TexScaleT0.031250
vt 0.000000 0.000000 0.0
vt 0.000000 0.000000 0.0
vt 0.000000 0.000000 0.0
vn 1.055118 0.251969 0.000000
vn 1.062992 0.196850 1.818898
vn 1.015748 0.000000 0.000000
f 70/268/268 80/269/269 79/270/270
#fvcolorindex 26 19 15 
usemtl m15EnvMappingTexScaleS0.031250TexScaleT0.031250
vt 0.000000 0.000000 0.0
vt 0.000000 0.000000 0.0
vt 0.000000 0.000000 0.0
v 3.590300 -95.870056 59.147675
#joint 33
#vjoint 81
#vcolor 134.000000 0.000000 32.000000 255.000000
v 3.869757 -83.335312 53.347969
#joint 40
#vjoint 82
v 3.869757 -83.335312 -40.652031
#joint 40
#vjoint 83
vn 1.055118 0.000000 0.251969
vn 1.015748 0.000000 0.000000
vn 1.015748 0.000000 0.000000
f 81/271/271 82/272/272 83/273/273
#fvcolorindex 30 15 15 
vt 0.000000 0.000000 0.0
vt 0.000000 0.000000 0.0
vt 0.000000 0.000000 0.0
v 3.590300 -95.870056 -45.852325
#joint 33
#vjoint 84
vn 1.055118 0.000000 0.251969
vn 1.015748 0.000000 0.000000
vn 1.015748 0.000000 0.000000
f 81/274/274 83/275/275 84/276/276
#fvcolorindex 30 15 15 
vt 0.000000 0.000000 0.0
vt 0.000000 0.000000 0.0
vt 0.000000 0.000000 0.0
vn 1.055118 0.000000 0.251969
vn 1.094488 0.000000 0.377953
vn 1.015748 0.000000 0.000000
f 81/277/277 74/278/278 73/279/279
#fvcolorindex 30 28 15 
vt 0.000000 0.000000 0.0
vt 0.000000 0.000000 0.0
vt 0.000000 0.000000 0.0
vn 1.055118 0.000000 0.251969
vn 1.015748 0.000000 0.000000
vn 1.015748 0.000000 0.000000
f 81/280/280 73/281/281 82/282/282
#fvcolorindex 30 15 15 
usemtl m8EnvMappingTexScaleS0.031250TexScaleT0.031250
vt 0.000000 0.000000 0.0
vt 0.000000 0.000000 0.0
vt 0.000000 0.000000 0.0
vn 1.015748 0.000000 0.000000
vn 1.015748 0.000000 0.000000
vn 1.015748 0.000000 0.000000
f 83/283/283 68/284/284 67/285/285
#fvcolorindex 15 15 15 
vt 0.000000 0.000000 0.0
vt 0.000000 0.000000 0.0
vt 0.000000 0.000000 0.0
vn 1.015748 0.000000 0.000000
vn 1.015748 0.000000 0.000000
vn 1.015748 0.000000 0.000000
f 83/286/286 67/287/287 84/288/288
#fvcolorindex 15 15 15 
usemtl m16EnvMappingTexScaleS0.031250TexScaleT0.031250
vt 0.000000 0.000000 0.0
vt 0.000000 0.000000 0.0
vt 0.000000 0.000000 0.0
#vcolor 110.000000 213.000000 213.000000 255.000000
#vcolor 0.000000 0.000000 0.000000 255.000000
v 32.590302 -35.870060 51.147675
#joint 33
#vjoint 85
vn 0.866142 1.677165 1.677165
vn 0.000000 0.000000 0.000000
vn 0.000000 0.000000 0.000000
f 24/289/289 17/290/290 85/291/291
#fvcolorindex 31 32 32 
vt 0.000000 0.000000 0.0
vt 0.000000 0.000000 0.0
vt 0.000000 0.000000 0.0
v 32.590302 9.129940 51.147675
#joint 33
#vjoint 86
vn 0.866142 1.677165 1.677165
vn 0.000000 0.000000 0.000000
vn 0.866142 1.677165 1.677165
f 24/292/292 85/293/293 86/294/294
#fvcolorindex 31 32 31 
usemtl m17EnvMappingTexScaleS0.031250TexScaleT0.031250
vt 0.000000 0.000000 0.0
vt 0.000000 0.000000 0.0
vt 0.000000 0.000000 0.0
#vcolor 110.000000 43.000000 213.000000 255.000000
v 32.590302 -80.870056 51.147675
#joint 33
#vjoint 87
vn 0.000000 0.000000 0.000000
vn 0.866142 0.338583 1.677165
vn 0.866142 0.338583 1.677165
f 17/295/295 16/296/296 87/297/297
#fvcolorindex 32 33 33 
vt 0.000000 0.000000 0.0
vt 0.000000 0.000000 0.0
vt 0.000000 0.000000 0.0
vn 0.000000 0.000000 0.000000
vn 0.866142 0.338583 1.677165
vn 0.000000 0.000000 0.000000
f 17/298/298 87/299/299 85/300/300
#fvcolorindex 32 33 32 
usemtl m18EnvMappingTexScaleS0.031250TexScaleT0.031250
vt 0.000000 0.000000 0.0
vt 0.000000 0.000000 0.0
vt 0.000000 0.000000 0.0
v 32.590302 9.129940 -38.852325
#joint 33
#vjoint 88
#vcolor 110.000000 213.000000 43.000000 255.000000
vn 0.866142 1.677165 0.338583
vn 0.866142 1.677165 0.338583
vn 0.866142 1.677165 1.677165
f 88/301/301 25/302/302 24/303/303
#fvcolorindex 34 34 31 
vt 0.000000 0.000000 0.0
vt 0.000000 0.000000 0.0
vt 0.000000 0.000000 0.0
vn 0.866142 1.677165 0.338583
vn 0.866142 1.677165 1.677165
vn 0.866142 1.677165 1.677165
f 88/304/304 24/305/305 86/306/306
#fvcolorindex 34 31 31 
usemtl m19EnvMappingTexScaleS0.031250TexScaleT0.031250
vt 0.000000 0.000000 0.0
vt 0.000000 0.000000 0.0
vt 0.000000 0.000000 0.0
v 32.590302 -80.870056 -38.852325
#joint 33
#vjoint 89
#vcolor 110.000000 43.000000 43.000000 255.000000
vn 0.866142 0.338583 0.338583
vn 0.866142 0.338583 0.338583
vn 0.000000 0.000000 0.000000
f 89/307/307 20/308/308 22/309/309
#fvcolorindex 35 35 32 
vt 0.000000 0.000000 0.0
vt 0.000000 0.000000 0.0
vt 0.000000 0.000000 0.0
v 32.590302 -43.870060 -38.852325
#joint 33
#vjoint 90
vn 0.866142 0.338583 0.338583
vn 0.000000 0.000000 0.000000
vn 0.000000 0.000000 0.000000
f 89/310/310 22/311/311 90/312/312
#fvcolorindex 35 32 32 
usemtl m17EnvMappingTexScaleS0.031250TexScaleT0.031250
vt 0.000000 0.000000 0.0
vt 0.000000 0.000000 0.0
vt 0.000000 0.000000 0.0
vn 0.000000 0.000000 0.000000
vn 0.866142 1.677165 0.338583
vn 0.866142 1.677165 0.338583
f 22/313/313 25/314/314 88/315/315
#fvcolorindex 32 34 34 
vt 0.000000 0.000000 0.0
vt 0.000000 0.000000 0.0
vt 0.000000 0.000000 0.0
vn 0.000000 0.000000 0.000000
vn 0.866142 1.677165 0.338583
vn 0.000000 0.000000 0.000000
f 22/316/316 88/317/317 90/318/318
#fvcolorindex 32 34 32 
usemtl m20EnvMappingTexScaleS0.031250TexScaleT0.031250
vt 0.000000 0.000000 0.0
vt 0.000000 0.000000 0.0
vt 0.000000 0.000000 0.0
vn 0.866142 0.338583 1.677165
vn 0.866142 0.338583 1.677165
vn 0.866142 0.338583 0.338583
f 87/319/319 16/320/320 20/321/321
#fvcolorindex 33 33 35 
vt 0.000000 0.000000 0.0
vt 0.000000 0.000000 0.0
vt 0.000000 0.000000 0.0
vn 0.866142 0.338583 1.677165
vn 0.866142 0.338583 0.338583
vn 0.866142 0.338583 0.338583
f 87/322/322 20/323/323 89/324/324
#fvcolorindex 33 35 35 
usemtl m21EnvMappingTexScaleS0.031250TexScaleT0.031250
vt 0.000000 0.000000 0.0
vt 0.000000 0.000000 0.0
vt 0.000000 0.000000 0.0
v 5.590300 9.129940 51.147675
#joint 33
#vjoint 91
#vcolor 146.000000 213.000000 213.000000 255.000000
v 5.590300 -35.870060 51.147675
#joint 33
#vjoint 92
vn 1.149606 1.677165 1.677165
vn 1.236220 0.000000 1.401575
vn 1.236220 0.000000 1.401575
f 91/325/325 92/326/326 73/327/327
#fvcolorindex 36 22 22 
vt 0.000000 0.000000 0.0
vt 0.000000 0.000000 0.0
vt 0.000000 0.000000 0.0
vn 1.149606 1.677165 1.677165
vn 1.236220 0.000000 1.401575
vn 1.149606 1.677165 1.677165
f 91/328/328 73/329/329 71/330/330
#fvcolorindex 36 22 36 
usemtl m10EnvMappingTexScaleS0.031250TexScaleT0.031250
vt 0.000000 0.000000 0.0
vt 0.000000 0.000000 0.0
vt 0.000000 0.000000 0.0
v 5.590300 -80.870056 51.147675
#joint 33
#vjoint 93
#vcolor 146.000000 43.000000 213.000000 255.000000
vn 1.236220 0.000000 1.401575
vn 1.149606 0.338583 1.677165
vn 1.149606 0.338583 1.677165
f 92/331/331 93/332/332 82/333/333
#fvcolorindex 22 37 37 
vt 0.000000 0.000000 0.0
vt 0.000000 0.000000 0.0
vt 0.000000 0.000000 0.0
vn 1.236220 0.000000 1.401575
vn 1.149606 0.338583 1.677165
vn 1.236220 0.000000 1.401575
f 92/334/334 82/335/335 73/336/336
#fvcolorindex 22 37 22 
usemtl m21EnvMappingTexScaleS0.031250TexScaleT0.031250
vt 0.000000 0.000000 0.0
vt 0.000000 0.000000 0.0
vt 0.000000 0.000000 0.0
#vcolor 146.000000 213.000000 43.000000 255.000000
vn 1.149606 1.677165 1.677165
vn 1.149606 1.677165 1.677165
vn 1.149606 1.677165 0.338583
f 91/337/337 71/338/338 69/339/339
#fvcolorindex 36 36 38 
vt 0.000000 0.000000 0.0
vt 0.000000 0.000000 0.0
vt 0.000000 0.000000 0.0
v 5.590300 9.129940 -38.852325
#joint 33
#vjoint 94
vn 1.149606 1.677165 1.677165
vn 1.149606 1.677165 0.338583
vn 1.149606 1.677165 0.338583
f 91/340/340 69/341/341 94/342/342
#fvcolorindex 36 38 38 
usemtl m22EnvMappingTexScaleS0.031250TexScaleT0.031250
vt 0.000000 0.000000 0.0
vt 0.000000 0.000000 0.0
vt 0.000000 0.000000 0.0
vn 1.149606 1.677165 0.338583
vn 1.149606 1.677165 0.338583
vn 1.236220 0.000000 0.614173
f 94/343/343 69/344/344 68/345/345
#fvcolorindex 38 38 24 
vt 0.000000 0.000000 0.0
vt 0.000000 0.000000 0.0
vt 0.000000 0.000000 0.0
v 5.590300 -43.870060 -38.852325
#joint 33
#vjoint 95
vn 1.149606 1.677165 0.338583
vn 1.236220 0.000000 0.614173
vn 1.236220 0.000000 0.614173
f 94/346/346 68/347/347 95/348/348
#fvcolorindex 38 24 24 
usemtl m12EnvMappingTexScaleS0.031250TexScaleT0.031250
vt 0.000000 0.000000 0.0
vt 0.000000 0.000000 0.0
vt 0.000000 0.000000 0.0
#vcolor 146.000000 43.000000 43.000000 255.000000
v 5.590300 -80.870056 -38.852325
#joint 33
#vjoint 96
vn 1.236220 0.000000 0.614173
vn 1.149606 0.338583 0.338583
vn 1.149606 0.338583 0.338583
f 68/349/349 83/350/350 96/351/351
#fvcolorindex 24 39 39 
vt 0.000000 0.000000 0.0
vt 0.000000 0.000000 0.0
vt 0.000000 0.000000 0.0
vn 1.236220 0.000000 0.614173
vn 1.149606 0.338583 0.338583
vn 1.236220 0.000000 0.614173
f 68/352/352 96/353/353 95/354/354
#fvcolorindex 24 39 24 
usemtl m23EnvMappingTexScaleS0.031250TexScaleT0.031250
vt 0.000000 0.000000 0.0
vt 0.000000 0.000000 0.0
vt 0.000000 0.000000 0.0
vn 1.149606 0.338583 0.338583
vn 1.149606 0.338583 0.338583
vn 1.149606 0.338583 1.677165
f 96/355/355 83/356/356 82/357/357
#fvcolorindex 39 39 37 
vt 0.000000 0.000000 0.0
vt 0.000000 0.000000 0.0
vt 0.000000 0.000000 0.0
vn 1.149606 0.338583 0.338583
vn 1.149606 0.338583 1.677165
vn 1.149606 0.338583 1.677165
f 96/358/358 82/359/359 93/360/360
#fvcolorindex 39 37 37 
usemtl m24EnvMappingTexScaleS0.031250TexScaleT0.031250
vt 0.000000 0.000000 0.0
vt 0.000000 0.000000 0.0
vt 0.000000 0.000000 0.0
v 35.983303 -3.266235 387.384247
#joint 34
#vjoint 97
#vcolor 79.000000 79.000000 198.000000 255.000000
v 37.983303 -6.266235 387.384247
#joint 34
#vjoint 98
#vcolor 125.000000 0.000000 16.000000 255.000000
v 35.983303 -10.266235 387.384247
#joint 34
#vjoint 99
#vcolor 79.000000 177.000000 198.000000 255.000000
vn 0.622047 0.622047 1.559055
vn 0.984252 0.000000 0.125984
vn 0.622047 1.393701 1.559055
f 97/361/361 98/362/362 99/363/363
#fvcolorindex 40 41 42 
usemtl m25EnvMappingTexScaleS0.031250TexScaleT0.031250
vt 0.000000 0.000000 0.0
vt 0.000000 0.000000 0.0
vt 0.000000 0.000000 0.0
v 35.983303 -6.266235 390.384247
#joint 34
#vjoint 100
#vcolor 89.000000 0.000000 89.000000 255.000000
vn 0.984252 0.000000 0.125984
vn 0.700787 0.000000 0.700787
vn 0.622047 1.393701 1.559055
f 98/364/364 100/365/365 99/366/366
#fvcolorindex 41 43 42 
vt 0.000000 0.000000 0.0
vt 0.000000 0.000000 0.0
vt 0.000000 0.000000 0.0
vn 0.984252 0.000000 0.125984
vn 0.622047 0.622047 1.559055
vn 0.700787 0.000000 0.700787
f 98/367/367 97/368/368 100/369/369
#fvcolorindex 41 40 43 
usemtl m26
vt 3.373047 0.269531 0.0
vt 3.373047 0.973633 0.0
vt 0.000000 0.973633 0.0
#vcolor 255.000000 255.000000 255.000000 255.000000
v 11.983303 -36.266235 75.384247
#joint 34
#vjoint 101
v 11.983303 -36.266235 233.384247
#joint 34
#vjoint 102
f 6/370 101/371 102/372
#fvcolorindex 44 44 44 
vt 3.373047 0.269531 0.0
vt 0.000000 0.973633 0.0
vt 0.000000 0.269531 0.0
f 6/373 102/374 2/375
#fvcolorindex 44 44 44 
vt 0.000000 1.003906 0.0
vt 2.993164 1.003906 0.0
vt 2.993164 0.649414 0.0
v 11.983303 -14.266235 233.384247
#joint 34
#vjoint 103
v 11.983303 -14.266235 75.384247
#joint 34
#vjoint 104
v 26.983303 0.733765 75.384247
#joint 34
#vjoint 105
f 103/376 104/377 105/378
#fvcolorindex 44 44 44 
vt 0.000000 1.003906 0.0
vt 2.993164 0.649414 0.0
vt 0.000000 0.649414 0.0
v 26.983303 0.733765 233.384247
#joint 34
#vjoint 106
f 103/379 105/380 106/381
#fvcolorindex 44 44 44 
vt 0.000000 0.664062 0.0
vt 2.996582 0.664062 0.0
vt 2.996582 0.269531 0.0
v 26.983303 23.733765 75.384247
#joint 34
#vjoint 107
f 106/382 105/383 107/384
#fvcolorindex 44 44 44 
vt 0.000000 0.664062 0.0
vt 2.996582 0.269531 0.0
vt 0.000000 0.269531 0.0
v 26.983303 23.733765 233.384247
#joint 34
#vjoint 108
f 106/385 107/386 108/387
#fvcolorindex 44 44 44 
vt 0.312500 0.846680 0.0
vt 3.685059 0.846680 0.0
vt 3.845703 0.586914 0.0
v 11.983303 23.733765 233.384247
#joint 34
#vjoint 109
v 11.983303 23.733765 75.384247
#joint 34
#vjoint 110
v 12.441689 31.087128 68.477112
#joint 37
#vjoint 111
f 109/388 110/389 111/390
#fvcolorindex 44 44 44 
vt 0.312500 0.846680 0.0
vt 3.845703 0.586914 0.0
vt 0.312500 0.586914 0.0
v 12.441689 31.087128 233.477112
#joint 37
#vjoint 112
f 109/391 111/392 112/393
#fvcolorindex 44 44 44 
vt 0.000000 0.567383 0.0
vt 2.600586 0.567383 0.0
vt 2.600586 0.978516 0.0
f 108/394 107/395 110/396
#fvcolorindex 44 44 44 
vt 0.000000 0.567383 0.0
vt 2.600586 0.978516 0.0
vt 0.000000 0.978516 0.0
f 108/397 110/398 109/399
#fvcolorindex 44 44 44 
vt 1.233887 0.514648 0.0
vt 1.233887 1.002930 0.0
vt 1.358887 1.002930 0.0
f 108/400 109/401 112/402
#fvcolorindex 44 44 44 
vt 1.233887 0.514648 0.0
vt 1.358887 1.002930 0.0
vt 1.358887 0.514648 0.0
v 26.983303 30.733765 233.384247
#joint 34
#vjoint 113
f 108/403 112/404 113/405
#fvcolorindex 44 44 44 
vt 1.358887 0.514648 0.0
vt 1.233887 0.269531 0.0
vt 1.233887 0.514648 0.0
f 113/406 8/407 108/408
#fvcolorindex 44 44 44 
vt 1.233887 0.514648 0.0
vt 1.233887 0.269531 0.0
vt 0.233887 0.269531 0.0
f 108/409 8/410 2/411
#fvcolorindex 44 44 44 
vt 1.233887 0.514648 0.0
vt 0.233887 0.269531 0.0
vt 0.858887 0.514648 0.0
f 108/412 2/413 106/414
#fvcolorindex 44 44 44 
vt 0.608887 1.002930 0.0
vt 0.858887 0.514648 0.0
vt 0.233887 0.269531 0.0
f 103/415 106/416 2/417
#fvcolorindex 44 44 44 
vt 0.608887 1.002930 0.0
vt 0.233887 0.269531 0.0
vt 0.233887 1.002930 0.0
f 103/418 2/419 102/420
#fvcolorindex 44 44 44 
vt 1.125000 0.394531 0.0
vt 1.125000 1.000000 0.0
vt 1.000000 1.000000 0.0
v 26.983303 30.733765 68.384247
#joint 34
#vjoint 114
f 114/421 111/422 110/423
#fvcolorindex 44 44 44 
vt 1.125000 0.394531 0.0
vt 1.000000 1.000000 0.0
vt 1.000000 0.394531 0.0
f 114/424 110/425 107/426
#fvcolorindex 44 44 44 
vt 1.000000 0.513672 0.0
vt 1.000000 0.269531 0.0
vt 1.125000 0.513672 0.0
v 33.983303 23.733765 75.384247
#joint 34
#vjoint 115
f 107/427 115/428 114/429
#fvcolorindex 44 44 44 
vt 0.625000 0.513672 0.0
vt 0.000000 0.269531 0.0
vt 1.000000 0.269531 0.0
f 105/430 6/431 115/432
#fvcolorindex 44 44 44 
vt 0.625000 0.513672 0.0
vt 1.000000 0.269531 0.0
vt 1.000000 0.513672 0.0
f 105/433 115/434 107/435
#fvcolorindex 44 44 44 
vt 0.625000 0.513672 0.0
vt 0.375000 1.000000 0.0
vt 0.000000 1.000000 0.0
f 105/436 104/437 101/438
#fvcolorindex 44 44 44 
vt 0.625000 0.513672 0.0
vt 0.000000 1.000000 0.0
vt 0.000000 0.269531 0.0
f 105/439 101/440 6/441
#fvcolorindex 44 44 44 
vt 0.000000 0.458984 0.0
vt 0.127441 0.458984 0.0
vt 0.127441 0.285156 0.0
v 26.983303 30.733765 413.384247
#joint 34
#vjoint 116
v 26.983303 23.733765 413.384247
#joint 34
#vjoint 117
f 116/442 117/443 10/444
#fvcolorindex 44 44 44 
vt 0.127441 0.458984 0.0
vt 0.381836 0.458984 0.0
vt 0.127441 0.285156 0.0
v 26.983303 8.733765 413.384247
#joint 34
#vjoint 118
f 117/445 118/446 10/447
#fvcolorindex 44 44 44 
vt 0.381836 0.458984 0.0
vt 1.145020 0.458984 0.0
vt 1.145020 0.285156 0.0
v 26.983303 -36.266235 413.384247
#joint 34
#vjoint 119
f 118/448 119/449 9/450
#fvcolorindex 44 44 44 
vt 0.381836 0.458984 0.0
vt 1.145020 0.285156 0.0
vt 0.127441 0.285156 0.0
f 118/451 9/452 10/453
#fvcolorindex 44 44 44 
vt 0.000000 0.807617 0.0
vt 0.127441 0.807617 0.0
vt 0.127441 0.458984 0.0
v 11.983303 30.733765 413.384247
#joint 34
#vjoint 120
v 11.983303 23.733765 413.384247
#joint 34
#vjoint 121
f 120/454 121/455 117/456
#fvcolorindex 44 44 44 
vt 0.000000 0.807617 0.0
vt 0.127441 0.458984 0.0
vt 0.000000 0.458984 0.0
f 120/457 117/458 116/459
#fvcolorindex 44 44 44 
vt 0.381836 0.807617 0.0
vt 1.145020 0.807617 0.0
vt 1.145020 0.458984 0.0
v 11.983303 8.733765 413.384247
#joint 34
#vjoint 122
v 11.983303 -36.266235 413.384247
#joint 34
#vjoint 123
f 122/460 123/461 119/462
#fvcolorindex 44 44 44 
vt 0.381836 0.807617 0.0
vt 1.145020 0.458984 0.0
vt 0.381836 0.458984 0.0
f 122/463 119/464 118/465
#fvcolorindex 44 44 44 
vt 0.127441 0.982422 0.0
vt 0.127441 0.807617 0.0
vt 0.000000 0.807617 0.0
f 54/466 121/467 120/468
#fvcolorindex 44 44 44 
vt 0.127441 0.982422 0.0
vt 0.381836 0.807617 0.0
vt 0.127441 0.807617 0.0
f 54/469 122/470 121/471
#fvcolorindex 44 44 44 
vt 0.127441 0.982422 0.0
vt 1.145020 0.982422 0.0
vt 1.145020 0.807617 0.0
f 54/472 53/473 123/474
#fvcolorindex 44 44 44 
vt 0.127441 0.982422 0.0
vt 1.145020 0.807617 0.0
vt 0.381836 0.807617 0.0
f 54/475 123/476 122/477
#fvcolorindex 44 44 44 
vt 0.817383 0.820312 0.0
vt 1.543945 0.820312 0.0
vt 1.543945 1.001953 0.0
v 11.983303 -36.266235 68.384247
#joint 34
#vjoint 124
v 11.983303 -96.266235 68.384247
#joint 34
#vjoint 125
f 124/478 125/479 44/480
#fvcolorindex 44 44 44 
vt 0.817383 0.820312 0.0
vt 1.543945 1.001953 0.0
vt 0.817383 1.001953 0.0
f 124/481 44/482 43/483
#fvcolorindex 44 44 44 
vt 0.817383 0.457031 0.0
vt 1.543945 0.457031 0.0
vt 1.543945 0.820312 0.0
v 26.983303 -36.266235 68.384247
#joint 34
#vjoint 126
v 26.983303 -96.266235 68.384247
#joint 34
#vjoint 127
f 126/484 127/485 125/486
#fvcolorindex 44 44 44 
vt 0.817383 0.457031 0.0
vt 1.543945 0.820312 0.0
vt 0.817383 0.820312 0.0
f 126/487 125/488 124/489
#fvcolorindex 44 44 44 
vt 0.817383 0.275391 0.0
vt 1.543945 0.275391 0.0
vt 1.543945 0.457031 0.0
f 6/490 5/491 127/492
#fvcolorindex 44 44 44 
vt 0.817383 0.275391 0.0
vt 1.543945 0.457031 0.0
vt 0.817383 0.457031 0.0
f 6/493 127/494 126/495
#fvcolorindex 44 44 44 
vt 0.000000 0.820312 0.0
vt 0.817383 0.820312 0.0
vt 0.817383 1.001953 0.0
f 111/496 124/497 43/498
#fvcolorindex 44 44 44 
vt 0.000000 0.820312 0.0
vt 0.817383 1.001953 0.0
vt 0.090820 1.001953 0.0
f 111/499 43/500 47/501
#fvcolorindex 44 44 44 
vt 3.982910 0.816406 0.0
vt 3.889648 0.994141 0.0
vt 1.924805 0.994141 0.0
f 111/502 47/503 46/504
#fvcolorindex 44 44 44 
vt 3.982910 0.816406 0.0
vt 1.924805 0.994141 0.0
vt 1.924805 0.816406 0.0
f 111/505 46/506 112/507
#fvcolorindex 44 44 44 
vt 1.924805 0.816406 0.0
vt 1.924805 0.994141 0.0
vt 0.146973 0.994141 0.0
f 112/508 46/509 49/510
#fvcolorindex 44 44 44 
vt 1.924805 0.816406 0.0
vt 0.146973 0.994141 0.0
vt 0.146973 0.816406 0.0
v 11.983303 30.733765 375.384247
#joint 34
#vjoint 128
f 112/511 49/512 128/513
#fvcolorindex 44 44 44 
vt 0.146973 0.816406 0.0
vt 0.146973 0.994141 0.0
vt -0.227051 0.994141 0.0
f 128/514 49/515 54/516
#fvcolorindex 44 44 44 
vt 0.146973 0.816406 0.0
vt -0.227051 0.994141 0.0
vt -0.320801 0.816406 0.0
f 128/517 54/518 120/519
#fvcolorindex 44 44 44 
vt 0.146973 0.816406 0.0
vt -0.320801 0.816406 0.0
vt -0.320801 0.459961 0.0
f 128/520 120/521 116/522
#fvcolorindex 44 44 44 
vt 0.146973 0.816406 0.0
vt -0.320801 0.459961 0.0
vt 0.146973 0.459961 0.0
v 26.983303 30.733765 375.384247
#joint 34
#vjoint 129
f 128/523 116/524 129/525
#fvcolorindex 44 44 44 
vt 0.146973 0.459961 0.0
vt -0.320801 0.459961 0.0
vt -0.227051 0.281250 0.0
f 129/526 116/527 10/528
#fvcolorindex 44 44 44 
vt 0.146973 0.459961 0.0
vt -0.227051 0.281250 0.0
vt 0.146973 0.281250 0.0
f 129/529 10/530 7/531
#fvcolorindex 44 44 44 
vt 1.924805 0.459961 0.0
vt 0.146973 0.459961 0.0
vt 0.146973 0.281250 0.0
f 113/532 129/533 7/534
#fvcolorindex 44 44 44 
vt 1.924805 0.459961 0.0
vt 0.146973 0.281250 0.0
vt 1.924805 0.281250 0.0
f 113/535 7/536 8/537
#fvcolorindex 44 44 44 
vt 0.817383 0.457031 0.0
vt 0.817383 0.820312 0.0
vt 0.000000 0.820312 0.0
f 126/538 124/539 111/540
#fvcolorindex 44 44 44 
vt 0.817383 0.457031 0.0
vt 0.000000 0.820312 0.0
vt 0.000000 0.457031 0.0
f 126/541 111/542 114/543
#fvcolorindex 44 44 44 
vt 0.817383 0.275391 0.0
vt 0.817383 0.457031 0.0
vt 0.000000 0.457031 0.0
f 6/544 126/545 114/546
#fvcolorindex 44 44 44 
vt 0.817383 0.275391 0.0
vt 0.000000 0.457031 0.0
vt 0.090820 0.275391 0.0
f 6/547 114/548 115/549
#fvcolorindex 44 44 44 
vt 0.880371 -0.403320 0.0
vt 1.000000 -0.028320 0.0
vt 0.521484 -0.028320 0.0
v 37.983303 0.733765 387.384247
#joint 34
#vjoint 130
v 35.983303 8.733765 387.384247
#joint 34
#vjoint 131
v 35.983303 -6.266235 402.384247
#joint 34
#vjoint 132
f 130/550 131/551 132/552
#fvcolorindex 44 44 44 
vt 0.880371 -0.403320 0.0
vt 0.521484 -0.028320 0.0
vt 0.641113 -0.403320 0.0
v 37.983303 -6.266235 394.384247
#joint 34
#vjoint 133
f 130/553 132/554 133/555
#fvcolorindex 44 44 44 
vt 0.403809 -0.432617 0.0
vt 0.538574 -0.034180 0.0
vt 0.134766 -0.432617 0.0
v 37.983303 -14.266235 387.384247
#joint 34
#vjoint 134
f 133/556 132/557 134/558
#fvcolorindex 44 44 44 
vt 0.134766 -0.432617 0.0
vt 0.538574 -0.034180 0.0
vt 0.000000 -0.034180 0.0
v 35.983303 -21.266235 387.384247
#joint 34
#vjoint 135
f 134/559 132/560 135/561
#fvcolorindex 44 44 44 
vt 0.880371 -0.263672 0.0
vt 1.000000 0.005859 0.0
vt 0.880371 -0.399414 0.0
v 35.983303 0.733765 387.384247
#joint 34
#vjoint 136
f 136/562 131/563 130/564
#fvcolorindex 44 44 44 
vt 0.134766 -0.425781 0.0
vt 0.000000 0.000000 0.0
vt 0.134766 -0.284180 0.0
v 35.983303 -14.266235 387.384247
#joint 34
#vjoint 137
f 134/565 135/566 137/567
#fvcolorindex 44 44 44 
vt 0.880371 -0.263672 0.0
vt 0.880371 -0.399414 0.0
vt 0.641113 -0.399414 0.0
f 136/568 130/569 133/570
#fvcolorindex 44 44 44 
vt 0.880371 -0.263672 0.0
vt 0.641113 -0.399414 0.0
vt 0.641113 -0.263672 0.0
v 35.983303 -6.266235 394.384247
#joint 34
#vjoint 138
f 136/571 133/572 138/573
#fvcolorindex 44 44 44 
vt 0.403809 -0.284180 0.0
vt 0.403809 -0.425781 0.0
vt 0.134766 -0.425781 0.0
f 138/574 133/575 134/576
#fvcolorindex 44 44 44 
vt 0.403809 -0.284180 0.0
vt 0.134766 -0.425781 0.0
vt 0.134766 -0.284180 0.0
f 138/577 134/578 137/579
#fvcolorindex 44 44 44 
vt 1.070801 0.583984 0.0
vt 1.070801 0.978516 0.0
vt 1.390137 0.663086 0.0
v 37.983303 0.733765 383.384247
#joint 34
#vjoint 139
v 35.983303 0.733765 375.384247
#joint 34
#vjoint 140
v 35.983303 15.733765 383.384247
#joint 34
#vjoint 141
f 139/580 140/581 141/582
#fvcolorindex 44 44 44 
vt 0.592285 0.978516 0.0
vt 1.070801 0.978516 0.0
vt 1.070801 0.583984 0.0
v 35.983303 -21.266235 375.384247
#joint 34
#vjoint 142
f 142/583 140/584 139/585
#fvcolorindex 44 44 44 
vt 0.592285 0.583984 0.0
vt 0.592285 0.978516 0.0
vt 1.070801 0.583984 0.0
v 37.983303 -21.266235 383.384247
#joint 34
#vjoint 143
f 143/586 142/587 139/588
#fvcolorindex 44 44 44 
vt 0.592285 0.663086 0.0
vt 0.592285 0.978516 0.0
vt 0.592285 0.583984 0.0
v 35.983303 -21.266235 383.384247
#joint 34
#vjoint 144
f 144/589 142/590 143/591
#fvcolorindex 44 44 44 
vt 1.070801 0.583984 0.0
vt 1.390137 0.663086 0.0
vt 1.070801 0.663086 0.0
v 35.983303 0.733765 383.384247
#joint 34
#vjoint 145
f 139/592 141/593 145/594
#fvcolorindex 44 44 44 
vt 0.592285 0.663086 0.0
vt 0.592285 0.583984 0.0
vt 1.070801 0.583984 0.0
f 144/595 143/596 139/597
#fvcolorindex 44 44 44 
vt 0.592285 0.663086 0.0
vt 1.070801 0.583984 0.0
vt 1.070801 0.663086 0.0
f 144/598 139/599 145/600
#fvcolorindex 44 44 44 
vt 1.976562 0.816406 0.0
vt 1.976562 0.456055 0.0
vt 1.844727 0.275391 0.0
f 125/601 127/602 5/603
#fvcolorindex 44 44 44 
vt 1.976562 0.816406 0.0
vt 1.844727 0.275391 0.0
vt 1.844727 0.997070 0.0
f 125/604 5/605 44/606
#fvcolorindex 44 44 44 
vt 1.844727 0.997070 0.0
vt 1.844727 0.275391 0.0
vt 0.000000 0.275391 0.0
f 44/607 5/608 1/609
#fvcolorindex 44 44 44 
vt 1.844727 0.997070 0.0
vt 0.000000 0.275391 0.0
vt 0.000000 0.997070 0.0
f 44/610 1/611 42/612
#fvcolorindex 44 44 44 
vt 0.994141 1.003906 0.0
vt 0.994141 0.293945 0.0
vt 0.000000 0.293945 0.0
f 50/613 4/614 3/615
#fvcolorindex 44 44 44 
vt 0.994141 1.003906 0.0
vt 0.000000 0.293945 0.0
vt 0.000000 1.003906 0.0
f 50/616 3/617 37/618
#fvcolorindex 44 44 44 
vt 0.251465 0.957031 0.0
vt 0.251465 0.308594 0.0
vt 0.674316 0.308594 0.0
f 37/619 3/620 9/621
#fvcolorindex 44 44 44 
vt 0.251465 0.957031 0.0
vt 0.674316 0.308594 0.0
vt 0.674316 0.957031 0.0
f 37/622 9/623 53/624
#fvcolorindex 44 44 44 
vt 0.674316 0.957031 0.0
vt 0.674316 0.308594 0.0
vt 0.779785 0.470703 0.0
f 53/625 9/626 119/627
#fvcolorindex 44 44 44 
vt 0.674316 0.957031 0.0
vt 0.779785 0.470703 0.0
vt 0.779785 0.794922 0.0
f 53/628 119/629 123/630
#fvcolorindex 44 44 44 
vt 3.972656 1.000977 0.0
vt 3.972656 0.279297 0.0
vt 0.000000 0.279297 0.0
f 42/631 1/632 4/633
#fvcolorindex 44 44 44 
vt 3.972656 1.000977 0.0
vt 0.000000 0.279297 0.0
vt 0.000000 1.000977 0.0
f 42/634 4/635 50/636
#fvcolorindex 44 44 44 
vt 3.982910 0.816406 0.0
vt 1.924805 0.816406 0.0
vt 1.924805 0.459961 0.0
v 12.441689 46.087128 233.477112
#joint 37
#vjoint 146
f 111/637 112/638 146/639
#fvcolorindex 44 44 44 
vt 3.982910 0.816406 0.0
vt 1.924805 0.459961 0.0
vt 3.982910 0.459961 0.0
v 12.441689 46.087128 68.477112
#joint 37
#vjoint 147
f 111/640 146/641 147/642
#fvcolorindex 44 44 44 
vt 0.000000 0.973633 0.0
vt 0.000000 0.417969 0.0
vt 0.389160 0.417969 0.0
v 19.390591 46.087814 75.199188
#joint 38
#vjoint 148
f 111/643 147/644 148/645
#fvcolorindex 44 44 44 
vt 0.000000 0.973633 0.0
vt 0.389160 0.417969 0.0
vt 0.389160 0.973633 0.0
v 19.441689 31.087128 75.477112
#joint 37
#vjoint 149
f 111/646 148/647 149/648
#fvcolorindex 44 44 44 
vt 1.000000 0.837891 0.0
vt 1.000000 0.458984 0.0
vt 1.125000 0.458984 0.0
v 19.441689 31.087128 233.477112
#joint 37
#vjoint 150
v 19.390591 46.087814 233.199188
#joint 38
#vjoint 151
f 150/649 151/650 146/651
#fvcolorindex 44 44 44 
vt 1.000000 0.837891 0.0
vt 1.125000 0.458984 0.0
vt 1.125000 0.837891 0.0
f 150/652 146/653 112/654
#fvcolorindex 44 44 44 
vt -3.066895 0.421875 0.0
vt -3.066895 0.965820 0.0
vt 0.000000 0.965820 0.0
f 151/655 150/656 149/657
#fvcolorindex 44 44 44 
vt -3.066895 0.421875 0.0
vt 0.000000 0.965820 0.0
vt 0.000000 0.421875 0.0
f 151/658 149/659 148/660
#fvcolorindex 44 44 44 
vt 0.897461 -0.491211 0.0
vt 0.857910 -0.405273 0.0
vt -0.007324 -0.325195 0.0
f 111/661 149/662 150/663
#fvcolorindex 44 44 44 
vt 0.897461 -0.491211 0.0
vt -0.007324 -0.325195 0.0
vt -0.009277 -0.407227 0.0
f 111/664 150/665 112/666
#fvcolorindex 44 44 44 
vt 1.037109 0.501953 0.0
vt 1.072266 0.432617 0.0
vt 1.125000 0.496094 0.0
v 12.441689 46.087128 75.477112
#joint 37
#vjoint 152
f 148/667 147/668 152/669
#fvcolorindex 44 44 44 
vt 0.625000 0.496094 0.0
vt 1.000000 0.496094 0.0
vt 1.000000 0.269531 0.0
v -2.609409 46.087814 75.199188
#joint 38
#vjoint 153
f 148/670 153/671 14/672
#fvcolorindex 44 44 44 
vt 0.625000 0.496094 0.0
vt 1.000000 0.269531 0.0
vt 0.000000 0.269531 0.0
f 148/673 14/674 13/675
#fvcolorindex 44 44 44 
vt 1.125000 0.496094 0.0
vt 1.000000 0.269531 0.0
vt 1.000000 0.496094 0.0
v -10.609409 46.087814 68.199188
#joint 38
#vjoint 154
f 154/676 14/677 153/678
#fvcolorindex 44 44 44 
vt 2.975586 0.952148 0.0
vt 2.975586 0.269531 0.0
vt 0.000000 0.269531 0.0
v 57.390591 31.087814 75.199188
#joint 38
#vjoint 155
f 155/679 13/680 12/681
#fvcolorindex 44 44 44 
vt 2.975586 0.952148 0.0
vt 0.000000 0.269531 0.0
vt 0.000000 0.952148 0.0
v 57.390591 31.087814 233.199188
#joint 38
#vjoint 156
f 155/682 12/683 156/684
#fvcolorindex 44 44 44 
vt 3.008301 0.422852 0.0
vt 3.008301 0.992188 0.0
vt 0.000000 0.992188 0.0
v 34.390591 31.087814 75.199188
#joint 38
#vjoint 157
f 157/685 155/686 156/687
#fvcolorindex 44 44 44 
vt 3.008301 0.422852 0.0
vt 0.000000 0.992188 0.0
vt 0.000000 0.422852 0.0
v 34.390591 31.087814 233.199188
#joint 38
#vjoint 158
f 157/688 156/689 158/690
#fvcolorindex 44 44 44 
vt 0.002441 0.385742 0.0
vt -3.898926 0.385742 0.0
vt -3.895020 1.000000 0.0
f 157/691 158/692 151/693
#fvcolorindex 44 44 44 
vt 0.002441 0.385742 0.0
vt -3.895020 1.000000 0.0
vt 0.006348 1.000000 0.0
f 157/694 151/695 148/696
#fvcolorindex 44 44 44 
vt 0.625000 0.458984 0.0
vt 0.000000 0.269531 0.0
vt 1.000000 0.269531 0.0
f 151/697 12/698 11/699
#fvcolorindex 44 44 44 
vt 0.625000 0.458984 0.0
vt 1.000000 0.269531 0.0
vt 1.000000 0.458984 0.0
v -2.609409 46.087814 233.199188
#joint 38
#vjoint 159
f 151/700 11/701 159/702
#fvcolorindex 44 44 44 
vt 1.000000 0.458984 0.0
vt 1.000000 0.269531 0.0
vt 1.125000 0.458984 0.0
v -10.609409 46.087814 233.199188
#joint 38
#vjoint 160
f 159/703 11/704 160/705
#fvcolorindex 44 44 44 
vt 3.982910 0.459961 0.0
vt 1.924805 0.459961 0.0
vt 1.924805 0.281250 0.0
f 154/706 160/707 11/708
#fvcolorindex 44 44 44 
vt 3.982910 0.459961 0.0
vt 1.924805 0.281250 0.0
vt 3.889648 0.281250 0.0
f 154/709 11/710 14/711
#fvcolorindex 44 44 44 
vt 0.798340 0.472656 0.0
vt 0.798340 0.907227 0.0
vt -2.841309 0.907227 0.0
v 40.440941 -98.549988 187.897339
#joint 36
#vjoint 161
v 30.440941 -95.549988 187.897339
#joint 36
#vjoint 162
v 30.440941 -95.549988 349.897339
#joint 36
#vjoint 163
f 161/712 162/713 163/714
#fvcolorindex 44 44 44 
vt 0.798340 0.472656 0.0
vt -2.841309 0.907227 0.0
vt -2.841309 0.472656 0.0
v 40.440941 -98.549988 349.897339
#joint 36
#vjoint 164
f 161/715 163/716 164/717
#fvcolorindex 44 44 44 
vt 0.000000 0.977539 0.0
vt 0.000000 0.356445 0.0
vt 3.108398 0.356445 0.0
v 23.440941 -119.549988 193.897339
#joint 36
#vjoint 165
v 38.440941 -122.549988 193.897339
#joint 36
#vjoint 166
v 38.440941 -122.549988 343.897339
#joint 36
#vjoint 167
f 165/718 166/719 167/720
#fvcolorindex 44 44 44 
vt 0.000000 0.977539 0.0
vt 3.108398 0.356445 0.0
vt 3.108398 0.977539 0.0
v 23.440941 -119.549988 343.897339
#joint 36
#vjoint 168
f 165/721 167/722 168/723
#fvcolorindex 44 44 44 
vt 0.014648 0.350586 0.0
vt 0.057129 0.949219 0.0
vt 1.052246 0.878906 0.0
f 166/724 165/725 162/726
#fvcolorindex 44 44 44 
vt 0.014648 0.350586 0.0
vt 1.052246 0.878906 0.0
vt 1.022949 0.469727 0.0
f 166/727 162/728 161/729
#fvcolorindex 44 44 44 
vt 0.934570 0.477539 0.0
vt 0.934570 0.894531 0.0
vt 0.011230 0.998047 0.0
f 164/730 163/731 168/732
#fvcolorindex 44 44 44 
vt 0.934570 0.477539 0.0
vt 0.011230 0.998047 0.0
vt 0.011230 0.387695 0.0
f 164/733 168/734 167/735
#fvcolorindex 44 44 44 
vt 0.761719 0.538086 0.0
vt 0.788086 0.980469 0.0
vt 1.451172 0.980469 0.0
f 162/736 165/737 168/738
#fvcolorindex 44 44 44 
vt 0.761719 0.538086 0.0
vt 1.451172 0.980469 0.0
vt 1.478027 0.538086 0.0
f 162/739 168/740 163/741
#fvcolorindex 44 44 44 
vt -3.042969 0.472656 0.0
vt -3.042969 0.269531 0.0
vt 1.000000 0.269531 0.0
v 49.440941 -63.549988 358.897339
#joint 36
#vjoint 169
v 54.440941 -64.549988 358.897339
#joint 36
#vjoint 170
v 54.440941 -64.549988 178.897339
#joint 36
#vjoint 171
f 169/742 170/743 171/744
#fvcolorindex 44 44 44 
vt -3.042969 0.472656 0.0
vt 1.000000 0.269531 0.0
vt 1.000000 0.472656 0.0
v 49.440941 -63.549988 178.897339
#joint 36
#vjoint 172
f 169/745 171/746 172/747
#fvcolorindex 44 44 44 
vt -2.841309 0.472656 0.0
vt -2.841309 0.907227 0.0
vt 0.798340 0.907227 0.0
v -0.556879 -98.549988 349.979462
#joint 35
#vjoint 173
v 9.443121 -95.549988 349.979462
#joint 35
#vjoint 174
v 9.443121 -95.549988 187.979462
#joint 35
#vjoint 175
f 173/748 174/749 175/750
#fvcolorindex 44 44 44 
vt -2.841309 0.472656 0.0
vt 0.798340 0.907227 0.0
vt 0.798340 0.472656 0.0
v -0.556879 -98.549988 187.979462
#joint 35
#vjoint 176
f 173/751 175/752 176/753
#fvcolorindex 44 44 44 
vt 3.108398 0.977539 0.0
vt 3.108398 0.356445 0.0
vt 0.000000 0.356445 0.0
v 15.443121 -119.549988 343.979462
#joint 35
#vjoint 177
v 1.443121 -122.549988 343.979462
#joint 35
#vjoint 178
v 1.443121 -122.549988 193.979462
#joint 35
#vjoint 179
f 177/754 178/755 179/756
#fvcolorindex 44 44 44 
vt 3.108398 0.977539 0.0
vt 0.000000 0.356445 0.0
vt 0.000000 0.977539 0.0
v 15.443121 -119.549988 193.979462
#joint 35
#vjoint 180
f 177/757 179/758 180/759
#fvcolorindex 44 44 44 
vt 1.022949 0.469727 0.0
vt 1.052246 0.878906 0.0
vt 0.057129 0.949219 0.0
f 176/760 175/761 180/762
#fvcolorindex 44 44 44 
vt 1.022949 0.469727 0.0
vt 0.057129 0.949219 0.0
vt 0.014648 0.350586 0.0
f 176/763 180/764 179/765
#fvcolorindex 44 44 44 
vt 0.011230 0.387695 0.0
vt 0.011230 0.998047 0.0
vt 0.934570 0.894531 0.0
f 178/766 177/767 174/768
#fvcolorindex 44 44 44 
vt 0.011230 0.387695 0.0
vt 0.934570 0.894531 0.0
vt 0.934570 0.477539 0.0
f 178/769 174/770 173/771
#fvcolorindex 44 44 44 
vt 1.478027 0.538086 0.0
vt 1.451172 0.980469 0.0
vt 0.788086 0.980469 0.0
f 174/772 177/773 180/774
#fvcolorindex 44 44 44 
vt 1.478027 0.538086 0.0
vt 0.788086 0.980469 0.0
vt 0.761719 0.538086 0.0
f 174/775 180/776 175/777
#fvcolorindex 44 44 44 
vt 1.000000 0.472656 0.0
vt 1.000000 0.269531 0.0
vt -3.042969 0.269531 0.0
v -9.556879 -63.549988 178.979462
#joint 35
#vjoint 181
v -14.556879 -64.549988 178.979462
#joint 35
#vjoint 182
v -14.556879 -64.549988 358.979462
#joint 35
#vjoint 183
f 181/778 182/779 183/780
#fvcolorindex 44 44 44 
vt 1.000000 0.472656 0.0
vt -3.042969 0.269531 0.0
vt -3.042969 0.472656 0.0
v -9.556879 -63.549988 358.979462
#joint 35
#vjoint 184
f 181/781 183/782 184/783
#fvcolorindex 44 44 44 
vt 1.145020 0.458984 0.0
vt 2.163086 0.458984 0.0
vt 2.163086 0.285156 0.0
v 26.590300 -155.870056 -278.852325
#joint 33
#vjoint 185
v 26.590300 -95.870056 -278.852325
#joint 33
#vjoint 186
f 185/784 186/785 30/786
#fvcolorindex 44 44 44 
vt 1.145020 0.458984 0.0
vt 2.163086 0.285156 0.0
vt 1.145020 0.285156 0.0
f 185/787 30/788 32/789
#fvcolorindex 44 44 44 
vt 4.326172 0.458984 0.0
vt 4.198730 0.285156 0.0
vt 2.163086 0.285156 0.0
v 26.590300 31.129940 -278.852325
#joint 33
#vjoint 187
f 187/790 28/791 30/792
#fvcolorindex 44 44 44 
vt 4.326172 0.458984 0.0
vt 2.163086 0.285156 0.0
vt 2.163086 0.458984 0.0
f 187/793 30/794 186/795
#fvcolorindex 44 44 44 
vt 5.386719 0.459961 0.0
vt 5.386719 0.281250 0.0
vt 8.193359 0.281250 0.0
v 26.590300 31.129940 -60.852325
#joint 33
#vjoint 188
f 188/796 26/797 28/798
#fvcolorindex 44 44 44 
vt 5.386719 0.459961 0.0
vt 8.193359 0.281250 0.0
vt 8.287109 0.459961 0.0
f 188/799 28/800 187/801
#fvcolorindex 44 44 44 
vt 3.982910 0.459961 0.0
vt 4.076660 0.281250 0.0
vt 5.386719 0.281250 0.0
v 26.590300 31.129940 66.147675
#joint 33
#vjoint 189
f 189/802 23/803 26/804
#fvcolorindex 44 44 44 
vt 3.982910 0.459961 0.0
vt 5.386719 0.281250 0.0
vt 5.386719 0.459961 0.0
f 189/805 26/806 188/807
#fvcolorindex 44 44 44 
vt 2.270508 0.457031 0.0
vt 2.270508 0.275391 0.0
vt 2.997070 0.275391 0.0
v 26.590300 -35.870060 66.147675
#joint 33
#vjoint 190
f 190/808 18/809 23/810
#fvcolorindex 44 44 44 
vt 2.270508 0.457031 0.0
vt 2.997070 0.275391 0.0
vt 3.087891 0.457031 0.0
f 190/811 23/812 189/813
#fvcolorindex 44 44 44 
vt 1.543945 0.457031 0.0
vt 1.543945 0.275391 0.0
vt 2.270508 0.275391 0.0
v 26.590300 -95.870056 66.147675
#joint 33
#vjoint 191
f 191/814 15/815 18/816
#fvcolorindex 44 44 44 
vt 1.543945 0.457031 0.0
vt 2.270508 0.275391 0.0
vt 2.270508 0.457031 0.0
f 191/817 18/818 190/819
#fvcolorindex 44 44 44 
vt 4.326172 0.807617 0.0
vt 4.326172 0.458984 0.0
vt 2.163086 0.458984 0.0
v 11.590300 31.129940 -278.852325
#joint 33
#vjoint 192
f 192/820 187/821 186/822
#fvcolorindex 44 44 44 
vt 4.326172 0.807617 0.0
vt 2.163086 0.458984 0.0
vt 2.163086 0.807617 0.0
v 11.590300 -95.870056 -278.852325
#joint 33
#vjoint 193
f 192/823 186/824 193/825
#fvcolorindex 44 44 44 
vt 5.386719 0.816406 0.0
vt 5.386719 0.459961 0.0
vt 8.287109 0.459961 0.0
v 11.590300 31.129940 -60.852325
#joint 33
#vjoint 194
f 194/826 188/827 187/828
#fvcolorindex 44 44 44 
vt 5.386719 0.816406 0.0
vt 8.287109 0.459961 0.0
vt 8.287109 0.816406 0.0
f 194/829 187/830 192/831
#fvcolorindex 44 44 44 
vt 3.982910 0.459961 0.0
vt 5.386719 0.459961 0.0
vt 5.386719 0.816406 0.0
f 189/832 188/833 194/834
#fvcolorindex 44 44 44 
vt 3.982910 0.459961 0.0
vt 5.386719 0.816406 0.0
vt 3.982910 0.816406 0.0
v 11.590300 31.129940 66.147675
#joint 33
#vjoint 195
f 189/835 194/836 195/837
#fvcolorindex 44 44 44 
vt 2.270508 0.820312 0.0
vt 2.270508 0.457031 0.0
vt 3.087891 0.457031 0.0
v 11.590300 -35.870060 66.147675
#joint 33
#vjoint 196
f 196/838 190/839 189/840
#fvcolorindex 44 44 44 
vt 2.270508 0.820312 0.0
vt 3.087891 0.457031 0.0
vt 3.087891 0.820312 0.0
f 196/841 189/842 195/843
#fvcolorindex 44 44 44 
vt 1.543945 0.820312 0.0
vt 1.543945 0.457031 0.0
vt 2.270508 0.457031 0.0
v 11.590300 -95.870056 66.147675
#joint 33
#vjoint 197
f 197/844 191/845 190/846
#fvcolorindex 44 44 44 
vt 1.543945 0.820312 0.0
vt 2.270508 0.457031 0.0
vt 2.270508 0.820312 0.0
f 197/847 190/848 196/849
#fvcolorindex 44 44 44 
vt 1.543945 0.820312 0.0
vt 2.270508 0.820312 0.0
vt 2.270508 1.001953 0.0
f 197/850 196/851 74/852
#fvcolorindex 44 44 44 
vt 1.543945 0.820312 0.0
vt 2.270508 1.001953 0.0
vt 1.543945 1.001953 0.0
f 197/853 74/854 81/855
#fvcolorindex 44 44 44 
vt 2.270508 1.001953 0.0
vt 2.270508 0.820312 0.0
vt 3.087891 0.820312 0.0
f 74/856 196/857 195/858
#fvcolorindex 44 44 44 
vt 2.270508 1.001953 0.0
vt 3.087891 0.820312 0.0
vt 2.997070 1.001953 0.0
f 74/859 195/860 72/861
#fvcolorindex 44 44 44 
vt 5.386719 0.994141 0.0
vt 4.076660 0.994141 0.0
vt 3.982910 0.816406 0.0
f 70/862 72/863 195/864
#fvcolorindex 44 44 44 
vt 5.386719 0.994141 0.0
vt 3.982910 0.816406 0.0
vt 5.386719 0.816406 0.0
f 70/865 195/866 194/867
#fvcolorindex 44 44 44 
vt 8.193359 0.994141 0.0
vt 5.386719 0.994141 0.0
vt 5.386719 0.816406 0.0
f 80/868 70/869 194/870
#fvcolorindex 44 44 44 
vt 8.193359 0.994141 0.0
vt 5.386719 0.816406 0.0
vt 8.287109 0.816406 0.0
f 80/871 194/872 192/873
#fvcolorindex 44 44 44 
vt 2.163086 0.982422 0.0
vt 4.198730 0.982422 0.0
vt 4.326172 0.807617 0.0
f 76/874 80/875 192/876
#fvcolorindex 44 44 44 
vt 2.163086 0.982422 0.0
vt 4.326172 0.807617 0.0
vt 2.163086 0.807617 0.0
f 76/877 192/878 193/879
#fvcolorindex 44 44 44 
vt 2.163086 0.982422 0.0
vt 2.163086 0.807617 0.0
vt 1.145020 0.807617 0.0
v 11.590300 -155.870056 -278.852325
#joint 33
#vjoint 198
f 76/880 193/881 198/882
#fvcolorindex 44 44 44 
vt 2.163086 0.982422 0.0
vt 1.145020 0.807617 0.0
vt 1.145020 0.982422 0.0
f 76/883 198/884 77/885
#fvcolorindex 44 44 44 
vt 2.108398 0.275391 0.0
vt 1.976562 0.456055 0.0
vt 1.976562 0.816406 0.0
f 15/886 191/887 197/888
#fvcolorindex 44 44 44 
vt 2.108398 0.275391 0.0
vt 1.976562 0.816406 0.0
vt 2.108398 0.997070 0.0
f 15/889 197/890 81/891
#fvcolorindex 44 44 44 
vt 3.953125 0.997070 0.0
vt 3.953125 0.275391 0.0
vt 2.108398 0.275391 0.0
f 84/892 19/893 15/894
#fvcolorindex 44 44 44 
vt 3.953125 0.997070 0.0
vt 2.108398 0.275391 0.0
vt 2.108398 0.997070 0.0
f 84/895 15/896 81/897
#fvcolorindex 44 44 44 
vt 1.984863 0.987305 0.0
vt 1.984863 0.273438 0.0
vt 0.992188 0.273438 0.0
f 78/898 31/899 29/900
#fvcolorindex 44 44 44 
vt 1.984863 0.987305 0.0
vt 0.992188 0.273438 0.0
vt 0.992188 0.987305 0.0
f 78/901 29/902 75/903
#fvcolorindex 44 44 44 
vt 0.000000 0.280273 0.0
vt 0.000000 0.985352 0.0
vt 0.662598 0.985352 0.0
f 31/904 78/905 77/906
#fvcolorindex 44 44 44 
vt 0.000000 0.280273 0.0
vt 0.662598 0.985352 0.0
vt 0.662598 0.280273 0.0
f 31/907 77/908 32/909
#fvcolorindex 44 44 44 
vt 0.662598 0.280273 0.0
vt 0.662598 0.985352 0.0
vt 0.828125 0.808594 0.0
f 32/910 77/911 198/912
#fvcolorindex 44 44 44 
vt 0.662598 0.280273 0.0
vt 0.828125 0.808594 0.0
vt 0.828125 0.456055 0.0
f 32/913 198/914 185/915
#fvcolorindex 44 44 44 
vt 1.321289 0.977539 0.0
vt 1.321289 0.277344 0.0
vt 0.000000 0.277344 0.0
f 67/916 21/917 19/918
#fvcolorindex 44 44 44 
vt 1.321289 0.977539 0.0
vt 0.000000 0.277344 0.0
vt 0.000000 0.977539 0.0
f 67/919 19/920 84/921
#fvcolorindex 44 44 44 
vt 2.991699 0.989258 0.0
vt 2.991699 0.266602 0.0
vt 0.000000 0.266602 0.0
f 79/922 27/923 21/924
#fvcolorindex 44 44 44 
vt 2.991699 0.989258 0.0
vt 0.000000 0.266602 0.0
vt 0.000000 0.989258 0.0
f 79/925 21/926 67/927
#fvcolorindex 44 44 44 
vt 0.992188 0.987305 0.0
vt 0.992188 0.273438 0.0
vt 0.000000 0.273438 0.0
f 75/928 29/929 27/930
#fvcolorindex 44 44 44 
vt 0.992188 0.987305 0.0
vt 0.000000 0.273438 0.0
vt 0.000000 0.987305 0.0
f 75/931 27/932 79/933
#fvcolorindex 44 44 44 
vt 0.000000 0.269531 0.0
vt 1.680176 0.269531 0.0
vt 0.839844 0.627930 0.0
v 18.590300 -80.870056 6.147675
#joint 33
#vjoint 199
f 87/934 89/935 199/936
#fvcolorindex 44 44 44 
vt 0.000000 0.985352 0.0
vt 0.839844 0.627930 0.0
vt 1.680176 0.985352 0.0
f 93/937 199/938 96/939
#fvcolorindex 44 44 44 
vt 0.000000 0.269531 0.0
vt 0.839844 0.627930 0.0
vt 0.000000 0.985352 0.0
f 87/940 199/941 93/942
#fvcolorindex 44 44 44 
vt 0.989746 0.269531 0.0
vt 0.000000 0.269531 0.0
vt 0.000000 0.954102 0.0
f 90/943 88/944 69/945
#fvcolorindex 44 44 44 
vt 0.989746 0.954102 0.0
vt 0.989746 0.269531 0.0
vt 0.000000 0.954102 0.0
f 95/946 90/947 69/948
#fvcolorindex 44 44 44 
vt 0.000000 0.982422 0.0
vt 0.000000 0.269531 0.0
vt 1.003906 0.269531 0.0
f 92/949 85/950 87/951
#fvcolorindex 44 44 44 
vt 0.000000 0.982422 0.0
vt 1.003906 0.269531 0.0
vt 1.003906 0.982422 0.0
f 92/952 87/953 93/954
#fvcolorindex 44 44 44 
vt -1.003906 0.982422 0.0
vt -1.003906 0.269531 0.0
vt -0.501953 0.269531 0.0
v 32.590302 -30.870060 51.147675
#joint 33
#vjoint 200
f 91/955 86/956 200/957
#fvcolorindex 44 44 44 
vt -1.003906 0.982422 0.0
vt -0.501953 0.269531 0.0
vt -0.501953 0.982422 0.0
v 5.590300 -30.870060 51.147675
#joint 33
#vjoint 201
f 91/958 200/959 201/960
#fvcolorindex 44 44 44 
vt 0.839355 1.000977 0.0
vt 0.839355 0.269531 0.0
vt 0.203613 0.269531 0.0
v 5.590300 9.129940 21.147675
#joint 33
#vjoint 202
v 32.590302 9.129940 21.147675
#joint 33
#vjoint 203
f 202/961 203/962 86/963
#fvcolorindex 44 44 44 
vt 0.839355 1.000977 0.0
vt 0.203613 0.269531 0.0
vt 0.203613 1.000977 0.0
f 202/964 86/965 91/966
#fvcolorindex 44 44 44 
usemtl m27
vt 0.000000 1.011719 0.0
vt 2.000732 1.011719 0.0
vt 2.000732 0.000000 0.0
f 102/967 101/968 104/969
#fvcolorindex 44 44 44 
vt 0.000000 1.011719 0.0
vt 2.000732 0.000000 0.0
vt 0.000000 0.000000 0.0
f 102/970 104/971 103/972
#fvcolorindex 44 44 44 
usemtl m28
vt 1.000000 0.000000 0.0
vt 0.000000 0.000000 0.0
vt 0.000000 1.000000 0.0
f 121/973 122/974 118/975
#fvcolorindex 44 44 44 
vt 1.000000 0.000000 0.0
vt 0.000000 1.000000 0.0
vt 1.000000 1.000000 0.0
f 121/976 118/977 117/978
#fvcolorindex 44 44 44 
usemtl m29
vt 0.000000 0.000000 0.0
vt 1.000000 0.000000 0.0
vt 1.000000 1.000000 0.0
f 112/979 128/980 129/981
#fvcolorindex 44 44 44 
vt 0.000000 0.000000 0.0
vt 1.000000 1.000000 0.0
vt 0.000000 1.000000 0.0
f 112/982 129/983 113/984
#fvcolorindex 44 44 44 
usemtl m30ClampT
vt 0.000000 1.000000 0.0
vt 1.000000 1.000000 0.0
vt 1.000000 0.000000 0.0
f 61/985 59/986 60/987
#fvcolorindex 44 44 44 
vt 0.000000 1.000000 0.0
vt 1.000000 0.000000 0.0
vt 0.000000 0.000000 0.0
f 61/988 60/989 62/990
#fvcolorindex 44 44 44 
vt 0.000000 1.000000 0.0
vt 1.000000 1.000000 0.0
vt 1.000000 0.000000 0.0
f 65/991 66/992 64/993
#fvcolorindex 44 44 44 
vt 0.000000 1.000000 0.0
vt 1.000000 0.000000 0.0
vt 0.000000 0.000000 0.0
f 65/994 64/995 63/996
#fvcolorindex 44 44 44 
vt 0.000000 1.000000 0.0
vt 1.000000 1.000000 0.0
vt 1.000000 0.000000 0.0
f 57/997 58/998 56/999
#fvcolorindex 44 44 44 
vt 0.000000 1.000000 0.0
vt 1.000000 0.000000 0.0
vt 0.000000 0.000000 0.0
f 57/1000 56/1001 55/1002
#fvcolorindex 44 44 44 
usemtl m31
vt 0.196289 0.766602 0.0
vt 0.990234 0.953125 0.0
vt 1.013672 0.292969 0.0
f 148/1003 13/1004 155/1005
#fvcolorindex 44 44 44 
vt 0.196289 0.766602 0.0
vt 1.013672 0.292969 0.0
vt 0.533203 0.313477 0.0
f 148/1006 155/1007 157/1008
#fvcolorindex 44 44 44 
vt 1.000000 0.291016 0.0
vt 1.000000 1.000000 0.0
vt 0.250000 0.763672 0.0
f 156/1009 12/1010 151/1011
#fvcolorindex 44 44 44 
vt 1.000000 0.291016 0.0
vt 0.250000 0.763672 0.0
vt 0.549805 0.291016 0.0
f 156/1012 151/1013 158/1014
#fvcolorindex 44 44 44 
usemtl m32
vt 1.000000 1.000000 0.0
vt 0.000000 1.000000 0.0
vt 0.000000 0.000000 0.0
f 148/1015 151/1016 159/1017
#fvcolorindex 44 44 44 
vt 1.000000 1.000000 0.0
vt 0.000000 0.000000 0.0
vt 1.000000 0.000000 0.0
f 148/1018 159/1019 153/1020
#fvcolorindex 44 44 44 
vt 0.021484 -0.058594 0.0
vt 1.021484 -0.058594 0.0
vt 1.113770 -0.938477 0.0
v 40.440941 -119.549988 340.897339
#joint 36
#vjoint 204
v 40.440941 -119.549988 196.897339
#joint 36
#vjoint 205
v 54.440941 -68.549988 183.897339
#joint 36
#vjoint 206
f 204/1021 205/1022 206/1023
#fvcolorindex 44 44 44 
vt 0.021484 -0.058594 0.0
vt 1.113770 -0.938477 0.0
vt -0.070312 -0.938477 0.0
v 54.440941 -68.549988 353.897339
#joint 36
#vjoint 207
f 204/1024 206/1025 207/1026
#fvcolorindex 44 44 44 
vt 1.113770 -0.938477 0.0
vt 1.147461 -0.997070 0.0
vt -0.104492 -0.997070 0.0
f 206/1027 171/1028 170/1029
#fvcolorindex 44 44 44 
vt 1.113770 -0.938477 0.0
vt -0.104492 -0.997070 0.0
vt -0.070312 -0.938477 0.0
f 206/1030 170/1031 207/1032
#fvcolorindex 44 44 44 
vt -0.070312 -0.938477 0.0
vt -0.104492 -0.997070 0.0
vt 0.000000 0.000000 0.0
f 207/1033 170/1034 167/1035
#fvcolorindex 44 44 44 
vt -0.070312 -0.938477 0.0
vt 0.000000 0.000000 0.0
vt 0.021484 -0.058594 0.0
f 207/1036 167/1037 204/1038
#fvcolorindex 44 44 44 
vt 1.042969 0.000000 0.0
vt 1.021484 -0.058594 0.0
vt 0.021484 -0.058594 0.0
f 166/1039 205/1040 204/1041
#fvcolorindex 44 44 44 
vt 1.042969 0.000000 0.0
vt 0.021484 -0.058594 0.0
vt 0.000000 0.000000 0.0
f 166/1042 204/1043 167/1044
#fvcolorindex 44 44 44 
vt 1.147461 -0.997070 0.0
vt 1.113770 -0.938477 0.0
vt 1.021484 -0.058594 0.0
f 171/1045 206/1046 205/1047
#fvcolorindex 44 44 44 
vt 1.147461 -0.997070 0.0
vt 1.021484 -0.058594 0.0
vt 1.042969 0.000000 0.0
f 171/1048 205/1049 166/1050
#fvcolorindex 44 44 44 
vt 1.372070 0.672852 0.0
vt 0.083984 0.672852 0.0
vt 0.012695 0.101562 0.0
f 161/1051 164/1052 169/1053
#fvcolorindex 44 44 44 
vt 1.372070 0.672852 0.0
vt 0.012695 0.101562 0.0
vt 1.443848 0.101562 0.0
f 161/1054 169/1055 172/1056
#fvcolorindex 44 44 44 
vt -0.539062 0.710938 0.0
vt -0.539062 0.000000 0.0
vt -0.391113 0.000000 0.0
f 161/1057 172/1058 171/1059
#fvcolorindex 44 44 44 
vt -0.539062 0.710938 0.0
vt -0.391113 0.000000 0.0
vt -0.391113 1.187500 0.0
f 161/1060 171/1061 166/1062
#fvcolorindex 44 44 44 
vt 0.000000 0.232422 0.0
vt 0.000000 0.000000 0.0
vt 0.902832 0.000000 0.0
f 170/1063 169/1064 164/1065
#fvcolorindex 44 44 44 
vt 0.000000 0.232422 0.0
vt 0.902832 0.000000 0.0
vt 1.507324 0.232422 0.0
f 170/1066 164/1067 167/1068
#fvcolorindex 44 44 44 
vt 1.042969 0.000000 0.0
vt 1.021484 -0.058594 0.0
vt 1.113770 -0.938477 0.0
v -0.556879 -119.549988 196.979462
#joint 35
#vjoint 208
v -14.556879 -68.549988 183.979462
#joint 35
#vjoint 209
f 179/1069 208/1070 209/1071
#fvcolorindex 44 44 44 
vt 1.042969 0.000000 0.0
vt 1.113770 -0.938477 0.0
vt 1.147461 -0.997070 0.0
f 179/1072 209/1073 182/1074
#fvcolorindex 44 44 44 
vt 0.000000 0.000000 0.0
vt 0.021484 -0.058594 0.0
vt 1.021484 -0.058594 0.0
v -0.556879 -119.549988 340.979462
#joint 35
#vjoint 210
f 178/1075 210/1076 208/1077
#fvcolorindex 44 44 44 
vt 0.000000 0.000000 0.0
vt 1.021484 -0.058594 0.0
vt 1.042969 0.000000 0.0
f 178/1078 208/1079 179/1080
#fvcolorindex 44 44 44 
vt 0.021484 -0.058594 0.0
vt 0.000000 0.000000 0.0
vt -0.104492 -0.997070 0.0
f 210/1081 178/1082 183/1083
#fvcolorindex 44 44 44 
vt 0.021484 -0.058594 0.0
vt -0.104492 -0.997070 0.0
vt -0.070312 -0.938477 0.0
v -14.556879 -68.549988 353.979462
#joint 35
#vjoint 211
f 210/1084 183/1085 211/1086
#fvcolorindex 44 44 44 
vt -0.070312 -0.938477 0.0
vt -0.104492 -0.997070 0.0
vt 1.147461 -0.997070 0.0
f 211/1087 183/1088 182/1089
#fvcolorindex 44 44 44 
vt -0.070312 -0.938477 0.0
vt 1.147461 -0.997070 0.0
vt 1.113770 -0.938477 0.0
f 211/1090 182/1091 209/1092
#fvcolorindex 44 44 44 
vt -0.070312 -0.938477 0.0
vt 1.113770 -0.938477 0.0
vt 1.021484 -0.058594 0.0
f 211/1093 209/1094 208/1095
#fvcolorindex 44 44 44 
vt -0.070312 -0.938477 0.0
vt 1.021484 -0.058594 0.0
vt 0.021484 -0.058594 0.0
f 211/1096 208/1097 210/1098
#fvcolorindex 44 44 44 
vt 1.443848 0.101562 0.0
vt 0.012695 0.101562 0.0
vt 0.083984 0.672852 0.0
f 181/1099 184/1100 173/1101
#fvcolorindex 44 44 44 
vt 1.443848 0.101562 0.0
vt 0.083984 0.672852 0.0
vt 1.372070 0.672852 0.0
f 181/1102 173/1103 176/1104
#fvcolorindex 44 44 44 
vt -0.391113 0.000000 0.0
vt -0.539062 0.000000 0.0
vt -0.539062 0.710938 0.0
f 182/1105 181/1106 176/1107
#fvcolorindex 44 44 44 
vt -0.391113 1.187500 0.0
vt -0.391113 0.000000 0.0
vt -0.539062 0.710938 0.0
f 179/1108 182/1109 176/1110
#fvcolorindex 44 44 44 
vt 0.902832 0.000000 0.0
vt 0.000000 0.000000 0.0
vt 0.000000 0.232422 0.0
f 173/1111 184/1112 183/1113
#fvcolorindex 44 44 44 
vt 1.507324 0.232422 0.0
vt 0.902832 0.000000 0.0
vt 0.000000 0.232422 0.0
f 178/1114 173/1115 183/1116
#fvcolorindex 44 44 44 
vt 1.000000 0.000000 0.0
vt 0.000000 0.000000 0.0
vt 0.000000 0.724609 0.0
v 26.590300 -30.870060 21.147675
#joint 33
#vjoint 212
f 212/1117 200/1118 85/1119
#fvcolorindex 44 44 44 
vt 1.000000 0.706055 0.0
vt 0.000000 0.000000 0.0
vt 1.000000 0.000000 0.0
v 26.590300 -35.870060 21.147675
#joint 33
#vjoint 213
f 212/1120 85/1121 213/1122
#fvcolorindex 44 44 44 
vt 1.000000 0.000000 0.0
vt 0.862305 0.794922 0.0
vt 1.457031 0.694336 0.0
v 18.590300 -25.870060 7.147675
#joint 33
#vjoint 214
f 214/1123 212/1124 213/1125
#fvcolorindex 44 44 44 
vt 0.000000 0.000000 0.0
vt 0.862305 0.794922 0.0
vt 1.000000 0.000000 0.0
v 32.590302 9.129940 0.147675
#joint 33
#vjoint 215
f 215/1126 212/1127 214/1128
#fvcolorindex 44 44 44 
vt 0.000000 0.000000 0.0
vt 0.500000 0.000000 0.0
vt 0.000000 1.014648 0.0
f 203/1129 212/1130 215/1131
#fvcolorindex 44 44 44 
vt 1.000000 0.000000 0.0
vt 0.690430 0.924805 0.0
vt 0.000000 0.000000 0.0
f 69/1132 88/1133 215/1134
#fvcolorindex 44 44 44 
vt 0.000000 0.000000 0.0
vt -0.272949 0.501953 0.0
vt 0.952637 0.000000 0.0
f 214/1135 213/1136 90/1137
#fvcolorindex 44 44 44 
vt 1.308105 0.964844 0.0
vt 0.952637 0.000000 0.0
vt -0.272949 0.501953 0.0
f 89/1138 90/1139 213/1140
#fvcolorindex 44 44 44 
vt 1.249023 0.844727 0.0
vt 0.000000 0.000000 0.0
vt 1.000000 0.000000 0.0
f 89/1141 213/1142 199/1143
#fvcolorindex 44 44 44 
vt 0.000000 0.000000 0.0
vt 0.500000 0.693359 0.0
vt 1.000000 0.000000 0.0
v 5.590300 9.129940 0.147675
#joint 33
#vjoint 216
f 215/1144 214/1145 216/1146
#fvcolorindex 44 44 44 
vt 1.000000 0.000000 0.0
vt 0.500000 0.674805 0.0
vt 0.000000 0.000000 0.0
f 95/1147 214/1148 90/1149
#fvcolorindex 44 44 44 
vt 0.000000 0.000000 0.0
vt 1.000000 0.000000 0.0
vt -0.286621 0.453125 0.0
v 11.590300 -35.870060 21.147675
#joint 33
#vjoint 217
f 214/1150 95/1151 217/1152
#fvcolorindex 44 44 44 
vt 1.769531 0.546875 0.0
vt 1.000000 0.000000 0.0
vt 1.000000 0.820312 0.0
v 11.590300 -30.870060 21.147675
#joint 33
#vjoint 218
f 214/1153 217/1154 218/1155
#fvcolorindex 44 44 44 
vt 1.000000 0.000000 0.0
vt 0.000000 0.000000 0.0
vt 0.137695 0.882812 0.0
f 216/1156 214/1157 218/1158
#fvcolorindex 44 44 44 
vt 1.000000 0.720703 0.0
vt 0.000000 0.000000 0.0
vt 1.000000 0.000000 0.0
f 216/1159 218/1160 202/1161
#fvcolorindex 44 44 44 
vt 0.500000 0.812500 0.0
vt 0.000000 0.000000 0.0
vt 1.000000 0.000000 0.0
f 69/1162 215/1163 216/1164
#fvcolorindex 44 44 44 
vt 0.000000 0.000000 0.0
vt 0.500000 0.882812 0.0
vt 1.000000 0.000000 0.0
f 217/1165 199/1166 213/1167
#fvcolorindex 44 44 44 
vt -0.249023 0.968750 0.0
vt 0.000000 0.000000 0.0
vt 1.000000 0.000000 0.0
f 96/1168 199/1169 217/1170
#fvcolorindex 44 44 44 
vt 1.373047 0.870117 0.0
vt -0.286621 0.453125 0.0
vt 1.000000 0.000000 0.0
f 96/1171 217/1172 95/1173
#fvcolorindex 44 44 44 
vt 1.000000 0.820312 0.0
vt 1.000000 0.000000 0.0
vt 0.000000 0.000000 0.0
f 218/1174 217/1175 92/1176
#fvcolorindex 44 44 44 
vt 1.000000 0.000000 0.0
vt 0.000000 0.000000 0.0
vt 1.000000 0.822266 0.0
f 201/1177 218/1178 92/1179
#fvcolorindex 44 44 44 
vt -0.390625 0.756836 0.0
vt 0.000000 0.000000 0.0
vt 1.000000 0.000000 0.0
f 92/1180 217/1181 213/1182
#fvcolorindex 44 44 44 
vt -0.390625 0.756836 0.0
vt 1.000000 0.000000 0.0
vt 1.390625 0.756836 0.0
f 92/1183 213/1184 85/1185
#fvcolorindex 44 44 44 
vt 1.390625 0.719727 0.0
vt 1.000000 0.000000 0.0
vt 0.000000 0.000000 0.0
f 200/1186 212/1187 218/1188
#fvcolorindex 44 44 44 
vt 1.390625 0.719727 0.0
vt 0.000000 0.000000 0.0
vt -0.390625 0.719727 0.0
f 200/1189 218/1190 201/1191
#fvcolorindex 44 44 44 
vt -0.390625 0.897461 0.0
vt 0.000000 0.000000 0.0
vt 1.000000 0.000000 0.0
f 202/1192 218/1193 212/1194
#fvcolorindex 44 44 44 
vt -0.390625 0.897461 0.0
vt 1.000000 0.000000 0.0
vt 1.390625 0.897461 0.0
f 202/1195 212/1196 203/1197
#fvcolorindex 44 44 44 
usemtl m33
vt 0.432617 0.000000 0.0
vt 1.000000 0.000000 0.0
vt 1.000000 1.000000 0.0
f 198/1198 193/1199 186/1200
#fvcolorindex 44 44 44 
vt 0.432617 0.000000 0.0
vt 1.000000 1.000000 0.0
vt 0.432617 1.000000 0.0
f 198/1201 186/1202 185/1203
#fvcolorindex 44 44 44 
usemtl m34TransparentEnvMappingTexScaleS0.031250TexScaleT0.031250
vt 0.000000 0.000000 0.0
vt 0.000000 0.000000 0.0
vt 0.000000 0.000000 0.0
#vcolor 114.000000 204.000000 15.000000 51.000000
#vcolor 114.000000 204.000000 241.000000 51.000000
#vcolor 124.000000 237.000000 241.000000 51.000000
vn 0.897638 1.606299 0.118110
vn 0.897638 1.606299 1.897638
vn 0.976378 1.866142 1.897638
f 204/1204/370 205/1205/371 206/1206/372
#fvcolorindex 45 46 47 
vt 0.000000 0.000000 0.0
vt 0.000000 0.000000 0.0
vt 0.000000 0.000000 0.0
#vcolor 124.000000 237.000000 15.000000 51.000000
vn 0.897638 1.606299 0.118110
vn 0.976378 1.866142 1.897638
vn 0.976378 1.866142 0.118110
f 204/1207/373 206/1208/374 207/1209/375
#fvcolorindex 45 47 48 
usemtl m35TransparentEnvMappingTexScaleS0.031250TexScaleT0.031250
vt 0.000000 0.000000 0.0
vt 0.000000 0.000000 0.0
vt 0.000000 0.000000 0.0
#vcolor 132.000000 237.000000 15.000000 51.000000
#vcolor 132.000000 237.000000 241.000000 51.000000
#vcolor 142.000000 204.000000 241.000000 51.000000
vn 1.039370 1.866142 0.118110
vn 1.039370 1.866142 1.897638
vn 1.118110 1.606299 1.897638
f 211/1210/376 209/1211/377 208/1212/378
#fvcolorindex 49 50 51 
vt 0.000000 0.000000 0.0
vt 0.000000 0.000000 0.0
vt 0.000000 0.000000 0.0
#vcolor 142.000000 204.000000 15.000000 51.000000
vn 1.039370 1.866142 0.118110
vn 1.118110 1.606299 1.897638
vn 1.118110 1.606299 0.118110
f 211/1213/379 208/1214/380 210/1215/381
#fvcolorindex 49 51 52 
usemtl m36TransparentClampSClampT
vt -0.678711 0.795898 0.0
vt -0.678711 -1.370117 0.0
vt 1.189453 -2.532227 0.0
f 48/1216 38/1217 53/1218
#fvcolorindex 44 44 44 
vt -0.678711 0.795898 0.0
vt 1.189453 -2.532227 0.0
vt 1.189453 1.204102 0.0
f 48/1219 53/1220 54/1221
#fvcolorindex 44 44 44 
vt 4.997070 -0.380859 0.0
vt -0.329102 2.650391 0.0
vt -0.323242 -0.389648 0.0
f 42/1222 43/1223 44/1224
#fvcolorindex 44 44 44 
vt 8.762695 1.136719 0.0
vt -0.299805 1.136719 0.0
vt -0.156250 -2.309570 0.0
f 45/1225 47/1226 43/1227
#fvcolorindex 44 44 44 
vt 0.000000 1.446289 0.0
vt 0.000000 0.000000 0.0
vt 2.326172 0.000000 0.0
f 38/1228 37/1229 53/1230
#fvcolorindex 44 44 44 
vt -2.309570 2.152344 0.0
vt 1.123047 -1.331055 0.0
vt 1.174805 5.584961 0.0
f 79/1231 80/1232 76/1233
#fvcolorindex 44 44 44 
vt -0.193359 1.207031 0.0
vt -0.193359 -2.262695 0.0
vt 8.481445 1.207031 0.0
f 67/1234 70/1235 79/1236
#fvcolorindex 44 44 44 
g Room03
g Room03_primary
usemtl m37TransparentClampSClampT
vt 0.968750 0.968750 0.0
vt 0.000000 0.968750 0.0
vt 0.000000 0.000000 0.0
v 19.482956 81.398354 458.134491
#joint 44
#vjoint 219
#vcolor 254.000000 254.000000 254.000000 255.000000
v 81.482956 81.398354 458.134491
#joint 44
#vjoint 220
v 81.482956 11.398353 458.134491
#joint 44
#vjoint 221
f 219/1237 220/1238 221/1239
#fvcolorindex 53 53 53 
vt 0.968750 0.968750 0.0
vt 0.000000 0.000000 0.0
vt 0.968750 0.000000 0.0
v 19.482956 11.398353 458.134491
#joint 44
#vjoint 222
f 219/1240 221/1241 222/1242
#fvcolorindex 53 53 53 
vt 0.968750 0.968750 0.0
vt 0.000000 0.968750 0.0
vt 0.000000 0.000000 0.0
v 19.482956 81.364868 550.034485
#joint 45
#vjoint 223
v 81.482956 81.364868 550.034485
#joint 45
#vjoint 224
v 81.482956 11.364872 550.034485
#joint 45
#vjoint 225
f 223/1243 224/1244 225/1245
#fvcolorindex 53 53 53 
vt 0.968750 0.968750 0.0
vt 0.000000 0.000000 0.0
vt 0.968750 0.000000 0.0
v 19.482956 11.364872 550.034485
#joint 45
#vjoint 226
f 223/1246 225/1247 226/1248
#fvcolorindex 53 53 53 
usemtl m38TransparentClampSClampT
vt 0.968750 0.968750 0.0
vt 0.000000 0.968750 0.0
vt 0.000000 0.000000 0.0
v -41.517044 81.398354 458.134491
#joint 44
#vjoint 227
f 227/1249 219/1250 222/1251
#fvcolorindex 53 53 53 
vt 0.968750 0.968750 0.0
vt 0.000000 0.000000 0.0
vt 0.968750 0.000000 0.0
v -41.517044 11.398353 458.134491
#joint 44
#vjoint 228
f 227/1252 222/1253 228/1254
#fvcolorindex 53 53 53 
vt 0.968750 0.968750 0.0
vt 0.000000 0.968750 0.0
vt 0.000000 0.000000 0.0
v -41.517044 81.364868 550.034485
#joint 45
#vjoint 229
f 229/1255 223/1256 226/1257
#fvcolorindex 53 53 53 
vt 0.968750 0.968750 0.0
vt 0.000000 0.000000 0.0
vt 0.968750 0.000000 0.0
v -41.517044 11.364872 550.034485
#joint 45
#vjoint 230
f 229/1258 226/1259 230/1260
#fvcolorindex 53 53 53 
usemtl m39TransparentClampSClampT
vt 0.968750 0.968750 0.0
vt 0.000000 0.968750 0.0
vt 0.000000 0.000000 0.0
v 81.482956 -57.601646 458.134491
#joint 44
#vjoint 231
f 222/1261 221/1262 231/1263
#fvcolorindex 53 53 53 
vt 0.968750 0.968750 0.0
vt 0.000000 0.000000 0.0
vt 0.968750 0.000000 0.0
v 19.482956 -57.601646 458.134491
#joint 44
#vjoint 232
f 222/1264 231/1265 232/1266
#fvcolorindex 53 53 53 
vt 0.968750 0.968750 0.0
vt 0.000000 0.968750 0.0
vt 0.000000 0.000000 0.0
v 81.482956 -57.635128 550.034485
#joint 45
#vjoint 233
f 226/1267 225/1268 233/1269
#fvcolorindex 53 53 53 
vt 0.968750 0.968750 0.0
vt 0.000000 0.000000 0.0
vt 0.968750 0.000000 0.0
v 19.482956 -57.635128 550.034485
#joint 45
#vjoint 234
f 226/1270 233/1271 234/1272
#fvcolorindex 53 53 53 
usemtl m40TransparentClampSClampT
vt 0.968750 0.968750 0.0
vt 0.000000 0.968750 0.0
vt 0.000000 0.000000 0.0
f 228/1273 222/1274 232/1275
#fvcolorindex 53 53 53 
vt 0.968750 0.968750 0.0
vt 0.000000 0.000000 0.0
vt 0.968750 0.000000 0.0
v -41.517044 -57.601646 458.134491
#joint 44
#vjoint 235
f 228/1276 232/1277 235/1278
#fvcolorindex 53 53 53 
vt 0.968750 0.968750 0.0
vt 0.000000 0.968750 0.0
vt 0.000000 0.000000 0.0
f 230/1279 226/1280 234/1281
#fvcolorindex 53 53 53 
vt 0.968750 0.968750 0.0
vt 0.000000 0.000000 0.0
vt 0.968750 0.000000 0.0
v -41.517044 -57.635128 550.034485
#joint 45
#vjoint 236
f 230/1282 234/1283 236/1284
#fvcolorindex 53 53 53 
g Room05
g Room05_primary
usemtl m41EnvMappingTexScaleS0.031250TexScaleT0.031250
vt 0.000000 0.000000 0.0
vt 0.000000 0.000000 0.0
vt 0.000000 0.000000 0.0
v 10.790596 -155.669159 -249.535400
#joint 42
#vjoint 237
#vcolor 183.000000 183.000000 73.000000 255.000000
v 26.790596 -155.669159 -249.535400
#joint 42
#vjoint 238
#vcolor 73.000000 183.000000 73.000000 255.000000
v 26.790596 -58.669159 -249.535400
#joint 42
#vjoint 239
#vcolor 73.000000 73.000000 73.000000 255.000000
vn 1.440945 1.440945 0.574803
vn 0.574803 1.440945 0.574803
vn 0.574803 0.574803 0.574803
f 237/1285/382 238/1286/383 239/1287/384
#fvcolorindex 54 55 56 
vt 0.000000 0.000000 0.0
vt 0.000000 0.000000 0.0
vt 0.000000 0.000000 0.0
v 10.790596 -58.669159 -249.535400
#joint 42
#vjoint 240
#vcolor 183.000000 73.000000 73.000000 255.000000
vn 1.440945 1.440945 0.574803
vn 0.574803 0.574803 0.574803
vn 1.440945 0.574803 0.574803
f 237/1288/385 239/1289/386 240/1290/387
#fvcolorindex 54 56 57 
usemtl m42EnvMappingTexScaleS0.031250TexScaleT0.031250
vt 0.000000 0.000000 0.0
vt 0.000000 0.000000 0.0
vt 0.000000 0.000000 0.0
v 26.790596 -58.669159 -272.535400
#joint 42
#vjoint 241
#vcolor 73.000000 73.000000 183.000000 255.000000
vn 1.440945 0.574803 0.574803
vn 0.574803 0.574803 0.574803
vn 0.574803 0.574803 1.440945
f 240/1291/388 239/1292/389 241/1293/390
#fvcolorindex 57 56 58 
vt 0.000000 0.000000 0.0
vt 0.000000 0.000000 0.0
vt 0.000000 0.000000 0.0
v 10.790596 -58.669159 -272.535400
#joint 42
#vjoint 242
#vcolor 183.000000 73.000000 183.000000 255.000000
vn 1.440945 0.574803 0.574803
vn 0.574803 0.574803 1.440945
vn 1.440945 0.574803 1.440945
f 240/1294/391 241/1295/392 242/1296/393
#fvcolorindex 57 58 59 
usemtl m43EnvMappingTexScaleS0.031250TexScaleT0.031250
vt 0.000000 0.000000 0.0
vt 0.000000 0.000000 0.0
vt 0.000000 0.000000 0.0
v 26.790596 -155.669159 -272.535400
#joint 42
#vjoint 243
#vcolor 73.000000 183.000000 183.000000 255.000000
vn 1.440945 0.574803 1.440945
vn 0.574803 0.574803 1.440945
vn 0.574803 1.440945 1.440945
f 242/1297/394 241/1298/395 243/1299/396
#fvcolorindex 59 58 60 
vt 0.000000 0.000000 0.0
vt 0.000000 0.000000 0.0
vt 0.000000 0.000000 0.0
v 10.790596 -155.669159 -272.535400
#joint 42
#vjoint 244
#vcolor 183.000000 183.000000 183.000000 255.000000
vn 1.440945 0.574803 1.440945
vn 0.574803 1.440945 1.440945
vn 1.440945 1.440945 1.440945
f 242/1300/397 243/1301/398 244/1302/399
#fvcolorindex 59 60 61 
usemtl m44EnvMappingTexScaleS0.031250TexScaleT0.031250
vt 0.000000 0.000000 0.0
vt 0.000000 0.000000 0.0
vt 0.000000 0.000000 0.0
vn 1.440945 1.440945 1.440945
vn 0.574803 1.440945 1.440945
vn 0.574803 1.440945 0.574803
f 244/1303/400 243/1304/401 238/1305/402
#fvcolorindex 61 60 55 
vt 0.000000 0.000000 0.0
vt 0.000000 0.000000 0.0
vt 0.000000 0.000000 0.0
vn 1.440945 1.440945 1.440945
vn 0.574803 1.440945 0.574803
vn 1.440945 1.440945 0.574803
f 244/1306/403 238/1307/404 237/1308/405
#fvcolorindex 61 55 54 
usemtl m45EnvMappingTexScaleS0.031250TexScaleT0.031250
vt 0.000000 0.000000 0.0
vt 0.000000 0.000000 0.0
vt 0.000000 0.000000 0.0
vn 0.574803 1.440945 0.574803
vn 0.574803 1.440945 1.440945
vn 0.574803 0.574803 1.440945
f 238/1309/406 243/1310/407 241/1311/408
#fvcolorindex 55 60 58 
vt 0.000000 0.000000 0.0
vt 0.000000 0.000000 0.0
vt 0.000000 0.000000 0.0
vn 0.574803 1.440945 0.574803
vn 0.574803 0.574803 1.440945
vn 0.574803 0.574803 0.574803
f 238/1312/409 241/1313/410 239/1314/411
#fvcolorindex 55 58 56 
usemtl m44EnvMappingTexScaleS0.031250TexScaleT0.031250
vt 0.000000 0.000000 0.0
vt 0.000000 0.000000 0.0
vt 0.000000 0.000000 0.0
vn 1.440945 1.440945 1.440945
vn 1.440945 1.440945 0.574803
vn 1.440945 0.574803 0.574803
f 244/1315/412 237/1316/413 240/1317/414
#fvcolorindex 61 54 57 
vt 0.000000 0.000000 0.0
vt 0.000000 0.000000 0.0
vt 0.000000 0.000000 0.0
vn 1.440945 1.440945 1.440945
vn 1.440945 0.574803 0.574803
vn 1.440945 0.574803 1.440945
f 244/1318/415 240/1319/416 242/1320/417
#fvcolorindex 61 57 59 
g Room07
g Room07_primary
usemtl m41EnvMappingTexScaleS0.031250TexScaleT0.031250
vt 0.000000 0.000000 0.0
vt 0.000000 0.000000 0.0
vt 0.000000 0.000000 0.0
v 10.790588 -268.033936 167.655411
#joint 41
#vjoint 245
#vcolor 183.000000 183.000000 73.000000 255.000000
v 26.790588 -268.033936 167.655411
#joint 41
#vjoint 246
#vcolor 73.000000 183.000000 73.000000 255.000000
v 26.790588 -172.033936 167.655411
#joint 41
#vjoint 247
#vcolor 73.000000 73.000000 73.000000 255.000000
vn 1.440945 1.440945 0.574803
vn 0.574803 1.440945 0.574803
vn 0.574803 0.574803 0.574803
f 245/1321/418 246/1322/419 247/1323/420
#fvcolorindex 62 63 64 
vt 0.000000 0.000000 0.0
vt 0.000000 0.000000 0.0
vt 0.000000 0.000000 0.0
v 10.790588 -172.033936 167.655411
#joint 41
#vjoint 248
#vcolor 183.000000 73.000000 73.000000 255.000000
vn 1.440945 1.440945 0.574803
vn 0.574803 0.574803 0.574803
vn 1.440945 0.574803 0.574803
f 245/1324/421 247/1325/422 248/1326/423
#fvcolorindex 62 64 65 
usemtl m42EnvMappingTexScaleS0.031250TexScaleT0.031250
vt 0.000000 0.000000 0.0
vt 0.000000 0.000000 0.0
vt 0.000000 0.000000 0.0
v 26.790588 -172.033936 144.655411
#joint 41
#vjoint 249
#vcolor 73.000000 73.000000 183.000000 255.000000
vn 1.440945 0.574803 0.574803
vn 0.574803 0.574803 0.574803
vn 0.574803 0.574803 1.440945
f 248/1327/424 247/1328/425 249/1329/426
#fvcolorindex 65 64 66 
vt 0.000000 0.000000 0.0
vt 0.000000 0.000000 0.0
vt 0.000000 0.000000 0.0
v 10.790588 -172.033936 144.655411
#joint 41
#vjoint 250
#vcolor 183.000000 73.000000 183.000000 255.000000
vn 1.440945 0.574803 0.574803
vn 0.574803 0.574803 1.440945
vn 1.440945 0.574803 1.440945
f 248/1330/427 249/1331/428 250/1332/429
#fvcolorindex 65 66 67 
usemtl m43EnvMappingTexScaleS0.031250TexScaleT0.031250
vt 0.000000 0.000000 0.0
vt 0.000000 0.000000 0.0
vt 0.000000 0.000000 0.0
v 26.790588 -268.033936 144.655411
#joint 41
#vjoint 251
#vcolor 73.000000 183.000000 183.000000 255.000000
vn 1.440945 0.574803 1.440945
vn 0.574803 0.574803 1.440945
vn 0.574803 1.440945 1.440945
f 250/1333/430 249/1334/431 251/1335/432
#fvcolorindex 67 66 68 
vt 0.000000 0.000000 0.0
vt 0.000000 0.000000 0.0
vt 0.000000 0.000000 0.0
v 10.790588 -268.033936 144.655411
#joint 41
#vjoint 252
#vcolor 183.000000 183.000000 183.000000 255.000000
vn 1.440945 0.574803 1.440945
vn 0.574803 1.440945 1.440945
vn 1.440945 1.440945 1.440945
f 250/1336/433 251/1337/434 252/1338/435
#fvcolorindex 67 68 69 
usemtl m44EnvMappingTexScaleS0.031250TexScaleT0.031250
vt 0.000000 0.000000 0.0
vt 0.000000 0.000000 0.0
vt 0.000000 0.000000 0.0
vn 1.440945 1.440945 1.440945
vn 0.574803 1.440945 1.440945
vn 0.574803 1.440945 0.574803
f 252/1339/436 251/1340/437 246/1341/438
#fvcolorindex 69 68 63 
vt 0.000000 0.000000 0.0
vt 0.000000 0.000000 0.0
vt 0.000000 0.000000 0.0
vn 1.440945 1.440945 1.440945
vn 0.574803 1.440945 0.574803
vn 1.440945 1.440945 0.574803
f 252/1342/439 246/1343/440 245/1344/441
#fvcolorindex 69 63 62 
usemtl m45EnvMappingTexScaleS0.031250TexScaleT0.031250
vt 0.000000 0.000000 0.0
vt 0.000000 0.000000 0.0
vt 0.000000 0.000000 0.0
vn 0.574803 1.440945 0.574803
vn 0.574803 1.440945 1.440945
vn 0.574803 0.574803 1.440945
f 246/1345/442 251/1346/443 249/1347/444
#fvcolorindex 63 68 66 
vt 0.000000 0.000000 0.0
vt 0.000000 0.000000 0.0
vt 0.000000 0.000000 0.0
vn 0.574803 1.440945 0.574803
vn 0.574803 0.574803 1.440945
vn 0.574803 0.574803 0.574803
f 246/1348/445 249/1349/446 247/1350/447
#fvcolorindex 63 66 64 
usemtl m44EnvMappingTexScaleS0.031250TexScaleT0.031250
vt 0.000000 0.000000 0.0
vt 0.000000 0.000000 0.0
vt 0.000000 0.000000 0.0
vn 1.440945 1.440945 1.440945
vn 1.440945 1.440945 0.574803
vn 1.440945 0.574803 0.574803
f 252/1351/448 245/1352/449 248/1353/450
#fvcolorindex 69 62 65 
vt 0.000000 0.000000 0.0
vt 0.000000 0.000000 0.0
vt 0.000000 0.000000 0.0
vn 1.440945 1.440945 1.440945
vn 1.440945 0.574803 0.574803
vn 1.440945 0.574803 1.440945
f 252/1354/451 248/1355/452 250/1356/453
#fvcolorindex 69 65 67 
