# Created by SubDrag and the GoldenEye Setup Editor V4.4
mtllib green ammo crate.mtl
#joint 0
#jointposition -233.333344 204.166672 379.166656
g Room02_primary
usemtl m0
vt 0.000000 0.000000 0.0
vt 1.000000 0.000000 0.0
vt 1.000000 1.000000 0.0
v 373.666656 0.166672 641.166626
#joint 0
#vjoint 1
#vcolor 37.000000 69.000000 48.000000 255.000000
v 373.666656 0.166672 117.166656
#joint 0
#vjoint 2
v 373.666656 408.166687 117.166656
#joint 0
#vjoint 3
f 1/1 2/2 3/3
#fvcolorindex 1 1 1 
vt 0.000000 0.000000 0.0
vt 1.000000 1.000000 0.0
vt 0.000000 1.000000 0.0
v 373.666656 408.166687 641.166626
#joint 0
#vjoint 4
f 1/4 3/5 4/6
#fvcolorindex 1 1 1 
vt 0.000000 0.000000 0.0
vt 1.000000 0.000000 0.0
vt 1.000000 1.000000 0.0
v -840.333374 0.166672 117.166656
#joint 0
#vjoint 5
v -840.333374 0.166672 641.166626
#joint 0
#vjoint 6
v -840.333374 408.166687 641.166626
#joint 0
#vjoint 7
f 5/7 6/8 7/9
#fvcolorindex 1 1 1 
vt 0.000000 0.000000 0.0
vt 1.000000 1.000000 0.0
vt 0.000000 1.000000 0.0
v -840.333374 408.166687 117.166656
#joint 0
#vjoint 8
f 5/10 7/11 8/12
#fvcolorindex 1 1 1 
usemtl m1
vt 0.000000 0.000000 0.0
vt 1.000000 0.000000 0.0
vt 1.000000 1.000000 0.0
#vcolor 108.000000 187.000000 135.000000 255.000000
#vcolor 116.000000 200.000000 144.000000 255.000000
f 6/13 1/14 4/15
#fvcolorindex 2 2 3 
vt 0.000000 0.000000 0.0
vt 1.000000 1.000000 0.0
vt 0.000000 1.000000 0.0
f 6/16 4/17 7/18
#fvcolorindex 2 3 3 
vt 1.000000 0.000000 0.0
vt 0.000000 0.000000 0.0
vt 0.000000 1.000000 0.0
f 2/19 5/20 8/21
#fvcolorindex 1 1 1 
vt 1.000000 0.000000 0.0
vt 0.000000 1.000000 0.0
vt 1.000000 1.000000 0.0
f 2/22 8/23 3/24
#fvcolorindex 1 1 1 
vt 0.000000 1.000000 0.0
vt 1.000000 1.000000 0.0
vt 1.000000 0.000000 0.0
#vcolor 74.000000 137.000000 96.000000 255.000000
#vcolor 67.000000 123.000000 86.000000 255.000000
f 7/25 4/26 3/27
#fvcolorindex 4 4 5 
vt 0.000000 1.000000 0.0
vt 1.000000 0.000000 0.0
vt 0.000000 0.000000 0.0
f 7/28 3/29 8/30
#fvcolorindex 4 5 5 
vt 1.000000 0.000000 0.0
vt 1.000000 1.000000 0.0
vt 0.000000 1.000000 0.0
f 2/31 1/32 6/33
#fvcolorindex 1 1 1 
vt 1.000000 0.000000 0.0
vt 0.000000 1.000000 0.0
vt 0.000000 0.000000 0.0
f 2/34 6/35 5/36
#fvcolorindex 1 1 1 
usemtl m2TopFlagTransparentClampSClampT
vt 0.000000 0.000000 0.0
vt 1.000000 0.000000 0.0
vt 1.000000 1.000000 0.0
v 373.666656 143.166672 458.166656
#joint 0
#vjoint 9
#vcolor 62.000000 62.000000 62.000000 255.000000
v 373.666656 143.166672 300.166656
#joint 0
#vjoint 10
v 373.666656 265.166687 300.166656
#joint 0
#vjoint 11
f 9/37 10/38 11/39
#fvcolorindex 6 6 6 
vt 0.000000 0.000000 0.0
vt 1.000000 1.000000 0.0
vt 0.000000 1.000000 0.0
v 373.666656 265.166687 458.166656
#joint 0
#vjoint 12
f 9/40 11/41 12/42
#fvcolorindex 6 6 6 
vt 0.000000 0.000000 0.0
vt 1.000000 0.000000 0.0
vt 1.000000 1.000000 0.0
v -840.333374 143.166672 300.166656
#joint 0
#vjoint 13
v -840.333374 143.166672 458.166656
#joint 0
#vjoint 14
v -840.333374 265.166687 458.166656
#joint 0
#vjoint 15
f 13/43 14/44 15/45
#fvcolorindex 6 6 6 
vt 0.000000 0.000000 0.0
vt 1.000000 1.000000 0.0
vt 0.000000 1.000000 0.0
v -840.333374 265.166687 300.166656
#joint 0
#vjoint 16
f 13/46 15/47 16/48
#fvcolorindex 6 6 6 
usemtl m3TopFlagTransparentClampSClampT
vt 0.000000 0.000000 0.0
vt 1.000000 0.000000 0.0
vt 1.000000 1.000000 0.0
v -518.333374 151.166672 641.166626
#joint 0
#vjoint 17
#vcolor 164.000000 0.000000 0.000000 140.000000
v 51.666656 151.166672 641.166626
#joint 0
#vjoint 18
v 51.666656 257.166687 641.166626
#joint 0
#vjoint 19
#vcolor 167.000000 0.000000 0.000000 140.000000
f 17/49 18/50 19/51
#fvcolorindex 7 7 8 
vt 0.000000 0.000000 0.0
vt 1.000000 1.000000 0.0
vt 0.000000 1.000000 0.0
v -518.333374 257.166687 641.166626
#joint 0
#vjoint 20
f 17/52 19/53 20/54
#fvcolorindex 7 8 8 
vt 0.000000 0.000000 0.0
vt 1.000000 0.000000 0.0
vt 1.000000 1.000000 0.0
v 46.666656 210.166672 117.166656
#joint 0
#vjoint 21
#vcolor 60.000000 0.000000 0.000000 140.000000
v -498.333344 114.166672 117.166656
#joint 0
#vjoint 22
v -513.333374 198.166672 117.166656
#joint 0
#vjoint 23
f 21/55 22/56 23/57
#fvcolorindex 9 9 9 
vt 0.000000 0.000000 0.0
vt 1.000000 1.000000 0.0
vt 0.000000 1.000000 0.0
v 31.666656 294.166687 117.166656
#joint 0
#vjoint 24
f 21/58 23/59 24/60
#fvcolorindex 9 9 9 
