# Created by SubDrag and the GoldenEye Setup Editor V4.4
mtllib security_camera.mtl
v -98.500000 -195.683228 -348.991821
vt 0.001953 0.243164 0.0
v -0.500002 -60.683228 -17.991837
vt 0.990234 0.442871 0.0
v 97.500000 -195.683228 -348.991821
vt 0.005859 0.985840 0.0
v -0.500002 -60.683228 -17.991837
vt 1.000000 0.000000 0.0
v 97.500000 -60.683228 -348.991821
vt 0.000000 0.000000 0.0
v 97.500000 -195.683228 -348.991821
vt 0.000000 -1.562500 0.0
v -98.500000 -195.683228 -348.991821
vt 0.000000 1.562500 0.0
v -98.500000 -60.683228 -348.991821
vt 0.000000 0.000000 0.0
v -0.500002 -60.683228 -42.991837
vt 0.000000 0.000000 0.0
v -0.500002 -60.683228 -91.991837
vt 1.000000 0.000000 0.0
v -0.500002 0.316772 -91.991837
vt 1.000000 2.500000 0.0
v -0.500002 0.316772 -42.991837
vt 0.000000 2.500000 0.0
v 24.499998 -60.683228 -66.991837
vt 0.000000 0.000000 0.0
v -24.500002 -60.683228 -66.991837
vt 1.000000 0.000000 0.0
v -24.500002 0.316772 -66.991837
vt 1.000000 2.500000 0.0
v 24.499998 0.316772 -66.991837
vt 0.000000 2.500000 0.0
v -122.500000 195.683228 214.991837
vt 0.000000 0.000000 0.0
v 122.500000 195.683228 214.991837
vt 0.000000 0.000000 0.0
v 122.500000 -0.316772 128.991837
vt 0.000000 0.000000 0.0
v -122.500000 -0.316772 128.991837
vt 0.000000 0.000000 0.0
v -122.500000 -0.316772 -275.008179
vt 1.000000 1.994141 0.0
v 122.500000 -0.316772 -275.008179
vt 1.000000 0.000000 0.0
v 122.500000 195.683228 -275.008179
vt 0.506836 0.000000 0.0
v -122.500000 195.683228 -275.008179
vt 0.506836 1.994141 0.0
v 122.500000 -0.316772 116.991837
vt -0.043945 0.074707 0.0
v -122.500000 -0.316772 116.991837
vt 1.072754 0.062988 0.0
v -122.500000 195.683228 116.991837
vt 1.072754 0.937500 0.0
v 122.500000 195.683228 116.991837
vt -0.043945 0.949707 0.0
v -122.500000 -0.316772 165.991837
vt 0.000000 0.845703 0.0
v -122.500000 -0.316772 -275.008179
vt 0.000000 0.000000 0.0
v -122.500000 195.683228 -275.008179
vt 1.000000 0.000000 0.0
v -122.500000 195.683228 348.991821
vt 1.000000 1.198242 0.0
v 122.500000 195.683228 348.991821
vt 1.000000 1.195312 0.0
v 122.500000 195.683228 -275.008179
vt 1.000000 0.000000 0.0
v 122.500000 -0.316772 -275.008179
vt 0.000000 0.000000 0.0
v 122.500000 -0.316772 165.991837
vt 0.000000 0.843750 0.0
v -122.500000 -0.316772 -275.008179
vt 1.000000 1.994141 0.0
v -122.500000 -0.316772 165.991837
vt 0.000000 1.994141 0.0
v 122.500000 -0.316772 165.991837
vt 0.000000 0.000000 0.0
v 122.500000 -0.316772 -275.008179
vt 1.000000 0.000000 0.0
v -122.500000 195.683228 348.991821
vt 0.000000 0.000000 0.0
v 122.500000 195.683228 348.991821
vt 0.000000 0.000000 0.0
v 122.500000 195.683228 -275.008179
vt 0.000000 0.000000 0.0
v -122.500000 195.683228 -275.008179
vt 0.000000 0.000000 0.0
g primary
usemtl m0
f 1/1 2/2 3/3
usemtl m1
f 4/4 5/5 6/6
usemtl m2
f 7/7 8/8 4/4
usemtl m3
f 21/21 22/22 23/23
usemtl m3
f 21/21 23/23 24/24
usemtl m4
f 25/25 26/26 27/27
usemtl m4
f 25/25 27/27 28/28
usemtl m5CullBoth
f 29/29 30/30 31/31
usemtl m5CullBoth
f 29/29 31/31 32/32
usemtl m6CullBoth
f 33/33 34/34 35/35
usemtl m6CullBoth
f 33/33 35/35 36/36
usemtl m7CullBoth
f 37/37 38/38 39/39
usemtl m7CullBoth
f 37/37 39/39 40/40
usemtl m8CullBoth
f 41/41 42/42 43/43
usemtl m8CullBoth
f 41/41 43/43 44/44
g secondary
usemtl m9CullBoth
f 9/9 10/10 11/11
usemtl m9CullBoth
f 9/9 11/11 12/12
f 13/13 14/14 15/15
f 13/13 15/15 16/16
usemtl m10CullBothEnvMappingClampSClampTTexScaleS0.052735TexScaleT0.052735
f 17/17 18/18 19/19
usemtl m10CullBothEnvMappingClampSClampTTexScaleS0.052735TexScaleT0.052735
f 17/17 19/19 20/20
