# Created by SubDrag and the GoldenEye Setup Editor V4.4
mtllib Gun000F.mtl
#joint 0
#jointposition -0.126130 -34.500000 -403.726105
#joint 1
#jointposition -0.126130 -34.500000 -403.726105
#joint 2
#jointposition 0.000000 -20.375574 -74.143860
#joint 3
#jointposition 28.404760 -54.346611 -32.664295
#joint 4
#jointposition 50.075203 -78.841194 -10.664248
#joint 5
#jointposition 28.643808 -16.714527 20.778549
#joint 6
#jointposition 26.518341 -24.155291 60.154758
#joint 7
#jointposition 24.787155 -25.811726 87.094780
#joint 8
#jointposition 8.820322 -11.296313 21.695198
#joint 9
#jointposition 8.668717 -23.348385 71.418152
#joint 10
#jointposition 7.570724 -26.182207 98.349426
#joint 11
#jointposition -7.449821 -15.536673 21.601517
#joint 12
#jointposition -6.777197 -21.532187 62.353848
#joint 13
#jointposition -6.290760 -23.494061 85.077034
#joint 14
#jointposition -23.590879 -23.057791 21.828247
#joint 15
#jointposition -21.894306 -25.130569 56.929543
#joint 16
#jointposition -20.740978 -24.727604 74.077179
#joint 17
#jointposition 234.474915 -34.500000 -403.726013
#joint 18
#jointposition 234.348785 -20.375599 -74.143921
#joint 19
#jointposition 205.943985 -54.346600 -32.664322
#joint 20
#jointposition 184.273590 -78.841202 -10.664223
#joint 21
#jointposition 205.704987 -16.714600 20.778481
#joint 22
#jointposition 207.830490 -24.155300 60.154781
#joint 23
#jointposition 209.561584 -25.811800 87.094780
#joint 24
#jointposition 225.528473 -11.296299 21.695183
#joint 25
#jointposition 225.680069 -23.348400 71.418083
#joint 26
#jointposition 226.778076 -26.182199 98.349380
#joint 27
#jointposition 241.798599 -15.536699 21.601479
#joint 28
#jointposition 241.125977 -21.532200 62.353779
#joint 29
#jointposition 240.639542 -23.494101 85.076981
#joint 30
#jointposition 257.939697 -23.057798 21.828178
#joint 31
#jointposition 256.243103 -25.130598 56.929478
#joint 32
#jointposition 255.089798 -24.727598 74.077179
#joint 33
#jointposition 0.000000 -30.922232 291.821533
#joint 34
#jointposition 0.000000 59.998131 857.038513
#joint 35
#jointposition 0.000000 60.000137 880.503174
#joint 36
#jointposition 0.000000 60.000458 922.132385
#joint 37
#jointposition 0.000000 -0.000004 0.000000
#joint 38
#jointposition 15.229654 65.726585 410.891479
#joint 39
#jointposition 0.000000 -15.276348 426.264435
#joint 40
#jointposition 238.874985 -15.276346 426.264404
#connection 0 1
#connection 1 2
#connection 2 3
#connection 3 4
#connection 2 5
#connection 5 6
#connection 6 7
#connection 2 8
#connection 8 9
#connection 9 10
#connection 2 11
#connection 11 12
#connection 12 13
#connection 2 14
#connection 14 15
#connection 15 16
#connection 2 33
#connection 33 38
#connection 33 34
#connection 34 35
#connection 34 36
#connection 34 37
#connection 33 39
#connection 0 17
#connection 17 18
#connection 18 19
#connection 19 20
#connection 18 21
#connection 21 22
#connection 22 23
#connection 18 24
#connection 24 25
#connection 25 26
#connection 18 27
#connection 27 28
#connection 28 29
#connection 18 30
#connection 30 31
#connection 31 32
#connection 18 40
g Room02
g Room02_primary
usemtl m0TransparentClampSClampT
vt 0.968750 0.968750 0.0
vt 0.000000 0.968750 0.0
vt 0.000000 0.000000 0.0
v 84.000000 155.000458 922.132385
#joint 36
#vjoint 1
#vcolor 254.000000 254.000000 254.000000 255.000000
v 0.000000 155.000458 922.132385
#joint 36
#vjoint 2
v 0.000000 60.000458 922.132385
#joint 36
#vjoint 3
f 1/1 2/2 3/3
#fvcolorindex 1 1 1 
vt 0.968750 0.968750 0.0
vt 0.000000 0.000000 0.0
vt 0.968750 0.000000 0.0
v 84.000000 60.000458 922.132385
#joint 36
#vjoint 4
f 1/4 3/5 4/6
#fvcolorindex 1 1 1 
vt 0.968750 0.968750 0.0
vt 0.000000 0.968750 0.0
vt 0.000000 0.000000 0.0
v -84.000000 155.000137 880.503174
#joint 35
#vjoint 5
v 0.000000 155.000137 880.503174
#joint 35
#vjoint 6
v 0.000000 60.000137 880.503174
#joint 35
#vjoint 7
f 5/7 6/8 7/9
#fvcolorindex 1 1 1 
vt 0.968750 0.968750 0.0
vt 0.000000 0.000000 0.0
vt 0.968750 0.000000 0.0
v -84.000000 60.000137 880.503174
#joint 35
#vjoint 8
f 5/10 7/11 8/12
#fvcolorindex 1 1 1 
usemtl m1TransparentClampSClampT
vt 0.968750 0.968750 0.0
vt 0.000000 0.968750 0.0
vt 0.000000 0.000000 0.0
v -84.000000 155.000458 922.132385
#joint 36
#vjoint 9
v -84.000000 60.000458 922.132385
#joint 36
#vjoint 10
f 2/13 9/14 10/15
#fvcolorindex 1 1 1 
vt 0.968750 0.968750 0.0
vt 0.000000 0.000000 0.0
vt 0.968750 0.000000 0.0
f 2/16 10/17 3/18
#fvcolorindex 1 1 1 
vt 0.968750 0.968750 0.0
vt 0.000000 0.968750 0.0
vt 0.000000 0.000000 0.0
v 84.000000 155.000137 880.503174
#joint 35
#vjoint 11
v 84.000000 60.000137 880.503174
#joint 35
#vjoint 12
f 6/19 11/20 12/21
#fvcolorindex 1 1 1 
vt 0.968750 0.968750 0.0
vt 0.000000 0.000000 0.0
vt 0.968750 0.000000 0.0
f 6/22 12/23 7/24
#fvcolorindex 1 1 1 
usemtl m2TransparentClampSClampT
vt 0.968750 0.968750 0.0
vt 0.000000 0.968750 0.0
vt 0.000000 0.000000 0.0
v 0.000000 -34.999542 922.132385
#joint 36
#vjoint 13
f 4/25 3/26 13/27
#fvcolorindex 1 1 1 
vt 0.968750 0.968750 0.0
vt 0.000000 0.000000 0.0
vt 0.968750 0.000000 0.0
v 84.000000 -34.999542 922.132385
#joint 36
#vjoint 14
f 4/28 13/29 14/30
#fvcolorindex 1 1 1 
vt 0.968750 0.968750 0.0
vt 0.000000 0.968750 0.0
vt 0.000000 0.000000 0.0
v 0.000000 -34.999863 880.503174
#joint 35
#vjoint 15
f 8/31 7/32 15/33
#fvcolorindex 1 1 1 
vt 0.968750 0.968750 0.0
vt 0.000000 0.000000 0.0
vt 0.968750 0.000000 0.0
v -84.000000 -34.999863 880.503174
#joint 35
#vjoint 16
f 8/34 15/35 16/36
#fvcolorindex 1 1 1 
usemtl m3TransparentClampSClampT
vt 0.968750 0.968750 0.0
vt 0.000000 0.968750 0.0
vt 0.000000 0.000000 0.0
v -84.000000 -34.999542 922.132385
#joint 36
#vjoint 17
f 3/37 10/38 17/39
#fvcolorindex 1 1 1 
vt 0.968750 0.968750 0.0
vt 0.000000 0.000000 0.0
vt 0.968750 0.000000 0.0
f 3/40 17/41 13/42
#fvcolorindex 1 1 1 
vt 0.968750 0.968750 0.0
vt 0.000000 0.968750 0.0
vt 0.000000 0.000000 0.0
v 84.000000 -34.999863 880.503174
#joint 35
#vjoint 18
f 7/43 12/44 18/45
#fvcolorindex 1 1 1 
vt 0.968750 0.968750 0.0
vt 0.000000 0.000000 0.0
vt 0.968750 0.000000 0.0
f 7/46 18/47 15/48
#fvcolorindex 1 1 1 
g Room03
usemtl m4TransparentClampSClampT
vt 1.000000 0.000000 0.0
vt 1.000000 1.000000 0.0
vt 0.000000 1.000000 0.0
v -200.000000 155.998138 865.038513
#joint 34
#vjoint 19
#vcolor 254.000000 254.000000 254.000000 255.000000
v -183.000000 184.998138 865.038513
#joint 34
#vjoint 20
v 6.000000 98.998131 865.038513
#joint 34
#vjoint 21
f 19/49 20/50 21/51
#fvcolorindex 2 2 2 
vt 1.000000 0.000000 0.0
vt 0.000000 1.000000 0.0
vt 0.000000 0.000000 0.0
v -30.000000 34.998131 865.038513
#joint 34
#vjoint 22
f 19/52 21/53 22/54
#fvcolorindex 2 2 2 
vt 1.000000 0.000000 0.0
vt 1.000000 1.000000 0.0
vt 0.000000 1.000000 0.0
v 183.000000 184.998138 865.038513
#joint 34
#vjoint 23
v 200.000000 155.998138 865.038513
#joint 34
#vjoint 24
v 31.000000 34.998131 865.038513
#joint 34
#vjoint 25
f 23/55 24/56 25/57
#fvcolorindex 2 2 2 
vt 1.000000 0.000000 0.0
vt 0.000000 1.000000 0.0
vt 0.000000 0.000000 0.0
v -6.000000 98.998131 865.038513
#joint 34
#vjoint 26
f 23/58 25/59 26/60
#fvcolorindex 2 2 2 
vt 1.000000 0.000000 0.0
vt 1.000000 1.000000 0.0
vt 0.000000 1.000000 0.0
v 17.000000 -161.001862 865.038513
#joint 34
#vjoint 27
v -17.000000 -161.001862 865.038513
#joint 34
#vjoint 28
v -37.000000 45.998131 865.038513
#joint 34
#vjoint 29
f 27/61 28/62 29/63
#fvcolorindex 2 2 2 
vt 1.000000 0.000000 0.0
vt 0.000000 1.000000 0.0
vt 0.000000 0.000000 0.0
v 37.000000 45.998131 865.038513
#joint 34
#vjoint 30
f 27/64 29/65 30/66
#fvcolorindex 2 2 2 
g Room04
g Room04_primary
usemtl m5
vt -0.208984 0.927734 0.0
vt -0.208984 0.825195 0.0
vt 1.276367 0.825195 0.0
v 0.000000 75.077766 856.821533
#joint 33
#vjoint 31
#vcolor 254.000000 254.000000 254.000000 255.000000
v 8.000000 73.077766 856.821533
#joint 33
#vjoint 32
v 8.000000 73.077766 800.821533
#joint 33
#vjoint 33
f 31/67 32/68 33/69
#fvcolorindex 3 3 3 
vt -0.208984 0.927734 0.0
vt 1.276367 0.825195 0.0
vt 1.276367 0.927734 0.0
v 0.000000 75.077766 800.821533
#joint 33
#vjoint 34
f 31/70 33/71 34/72
#fvcolorindex 3 3 3 
vt 1.276367 0.927734 0.0
vt -0.208984 0.927734 0.0
vt -0.208984 0.927734 0.0
v -7.000000 73.077766 800.821533
#joint 33
#vjoint 35
v -7.000000 73.077766 856.821533
#joint 33
#vjoint 36
f 35/73 36/74 31/75
#fvcolorindex 3 3 3 
vt 1.276367 0.927734 0.0
vt -0.208984 0.927734 0.0
vt 1.276367 0.927734 0.0
f 35/76 31/77 34/78
#fvcolorindex 3 3 3 
vt 1.276367 0.442383 0.0
vt -0.208984 0.442383 0.0
vt -0.208984 0.264648 0.0
v 15.000000 60.077766 800.821533
#joint 33
#vjoint 37
v 15.000000 60.077766 856.821533
#joint 33
#vjoint 38
v 13.000000 53.077766 856.821533
#joint 33
#vjoint 39
f 37/79 38/80 39/81
#fvcolorindex 3 3 3 
vt 1.276367 0.442383 0.0
vt -0.208984 0.264648 0.0
vt 1.276367 0.264648 0.0
v 13.000000 53.077766 800.821533
#joint 33
#vjoint 40
f 37/82 39/83 40/84
#fvcolorindex 3 3 3 
vt 1.276367 0.264648 0.0
vt -0.208984 0.264648 0.0
vt -0.208984 0.162109 0.0
v 8.000000 47.077766 856.821533
#joint 33
#vjoint 41
f 40/85 39/86 41/87
#fvcolorindex 3 3 3 
vt 1.276367 0.264648 0.0
vt -0.208984 0.162109 0.0
vt 1.276367 0.162109 0.0
v 8.000000 47.077766 800.821533
#joint 33
#vjoint 42
f 40/88 41/89 42/90
#fvcolorindex 3 3 3 
vt -0.208984 0.264648 0.0
vt -0.208984 0.442383 0.0
vt 1.276367 0.442383 0.0
v -7.000000 47.077766 856.821533
#joint 33
#vjoint 43
v -13.000000 53.077766 856.821533
#joint 33
#vjoint 44
v -13.000000 53.077766 800.821533
#joint 33
#vjoint 45
f 43/91 44/92 45/93
#fvcolorindex 3 3 3 
vt -0.208984 0.264648 0.0
vt 1.276367 0.442383 0.0
vt 1.276367 0.264648 0.0
v -7.000000 47.077766 800.821533
#joint 33
#vjoint 46
f 43/94 45/95 46/96
#fvcolorindex 3 3 3 
vt -0.208984 0.647461 0.0
vt 1.276367 0.647461 0.0
vt 1.276367 0.442383 0.0
v -15.000000 60.077766 856.821533
#joint 33
#vjoint 47
v -15.000000 60.077766 800.821533
#joint 33
#vjoint 48
f 47/97 48/98 45/99
#fvcolorindex 3 3 3 
vt -0.208984 0.647461 0.0
vt 1.276367 0.442383 0.0
vt -0.208984 0.442383 0.0
f 47/100 45/101 44/102
#fvcolorindex 3 3 3 
vt 1.276367 0.442383 0.0
vt 1.276367 0.299805 0.0
vt -0.208984 0.299805 0.0
v 5.000000 52.077766 800.821533
#joint 33
#vjoint 49
v 5.000000 52.077766 856.821533
#joint 33
#vjoint 50
f 37/103 49/104 50/105
#fvcolorindex 3 3 3 
vt 1.276367 0.442383 0.0
vt -0.208984 0.299805 0.0
vt -0.208984 0.442383 0.0
f 37/106 50/107 38/108
#fvcolorindex 3 3 3 
vt -0.208984 0.724609 0.0
vt 1.276367 0.724609 0.0
vt 1.276367 0.825195 0.0
v 5.000000 68.077766 856.821533
#joint 33
#vjoint 51
v 5.000000 68.077766 800.821533
#joint 33
#vjoint 52
f 51/109 52/110 33/111
#fvcolorindex 3 3 3 
vt -0.208984 0.724609 0.0
vt 1.276367 0.825195 0.0
vt -0.208984 0.825195 0.0
f 51/112 33/113 32/114
#fvcolorindex 3 3 3 
vt 1.276367 0.927734 0.0
vt 1.276367 0.724609 0.0
vt -0.208984 0.724609 0.0
f 35/115 52/116 51/117
#fvcolorindex 3 3 3 
vt 1.276367 0.927734 0.0
vt -0.208984 0.724609 0.0
vt -0.208984 0.927734 0.0
f 35/118 51/119 36/120
#fvcolorindex 3 3 3 
vt -0.208984 0.647461 0.0
vt -0.208984 0.610352 0.0
vt 1.276367 0.610352 0.0
v -10.000000 60.077766 856.821533
#joint 33
#vjoint 53
v -10.000000 60.077766 800.821533
#joint 33
#vjoint 54
f 47/121 53/122 54/123
#fvcolorindex 3 3 3 
vt -0.208984 0.647461 0.0
vt 1.276367 0.610352 0.0
vt 1.276367 0.647461 0.0
f 47/124 54/125 48/126
#fvcolorindex 3 3 3 
vt -0.208984 0.610352 0.0
vt -0.208984 0.264648 0.0
vt 1.276367 0.264648 0.0
f 53/127 43/128 46/129
#fvcolorindex 3 3 3 
vt -0.208984 0.610352 0.0
vt 1.276367 0.264648 0.0
vt 1.276367 0.610352 0.0
f 53/130 46/131 54/132
#fvcolorindex 3 3 3 
vt 1.276367 0.299805 0.0
vt 1.276367 0.162109 0.0
vt -0.208984 0.162109 0.0
f 49/133 42/134 41/135
#fvcolorindex 3 3 3 
vt 1.276367 0.299805 0.0
vt -0.208984 0.162109 0.0
vt -0.208984 0.299805 0.0
f 49/136 41/137 50/138
#fvcolorindex 3 3 3 
vt 1.276367 0.264648 0.0
vt 1.276367 0.442383 0.0
vt 2.761719 0.442383 0.0
v -13.000000 53.077766 740.821533
#joint 33
#vjoint 55
f 46/139 45/140 55/141
#fvcolorindex 3 3 3 
vt 1.276367 0.264648 0.0
vt 2.761719 0.442383 0.0
vt 2.761719 0.264648 0.0
v -7.000000 47.077766 740.821533
#joint 33
#vjoint 56
f 46/142 55/143 56/144
#fvcolorindex 3 3 3 
vt 1.276367 0.647461 0.0
vt 2.761719 0.647461 0.0
vt 2.761719 0.442383 0.0
v -15.000000 60.077766 740.821533
#joint 33
#vjoint 57
f 48/145 57/146 55/147
#fvcolorindex 3 3 3 
vt 1.276367 0.647461 0.0
vt 2.761719 0.442383 0.0
vt 1.276367 0.442383 0.0
f 48/148 55/149 45/150
#fvcolorindex 3 3 3 
vt 2.761719 0.927734 0.0
vt 1.276367 0.927734 0.0
vt 1.276367 0.927734 0.0
v -7.000000 73.077766 740.821533
#joint 33
#vjoint 58
f 58/151 35/152 34/153
#fvcolorindex 3 3 3 
vt 2.761719 0.927734 0.0
vt 1.276367 0.927734 0.0
vt 2.761719 0.927734 0.0
v 0.000000 75.077766 740.821533
#joint 33
#vjoint 59
f 58/154 34/155 59/156
#fvcolorindex 3 3 3 
vt 1.276367 0.927734 0.0
vt 1.276367 0.825195 0.0
vt 2.761719 0.825195 0.0
v 8.000000 73.077766 740.821533
#joint 33
#vjoint 60
f 34/157 33/158 60/159
#fvcolorindex 3 3 3 
vt 1.276367 0.927734 0.0
vt 2.761719 0.825195 0.0
vt 2.761719 0.927734 0.0
f 34/160 60/161 59/162
#fvcolorindex 3 3 3 
vt 2.761719 0.264648 0.0
vt 1.276367 0.264648 0.0
vt 1.276367 0.162109 0.0
v 13.000000 53.077766 740.821533
#joint 33
#vjoint 61
f 61/163 40/164 42/165
#fvcolorindex 3 3 3 
vt 2.761719 0.264648 0.0
vt 1.276367 0.162109 0.0
vt 2.761719 0.162109 0.0
v 8.000000 47.077766 740.821533
#joint 33
#vjoint 62
f 61/166 42/167 62/168
#fvcolorindex 3 3 3 
vt 2.761719 0.442383 0.0
vt 1.276367 0.442383 0.0
vt 1.276367 0.264648 0.0
v 15.000000 60.077766 740.821533
#joint 33
#vjoint 63
f 63/169 37/170 40/171
#fvcolorindex 3 3 3 
vt 2.761719 0.442383 0.0
vt 1.276367 0.264648 0.0
vt 2.761719 0.264648 0.0
f 63/172 40/173 61/174
#fvcolorindex 3 3 3 
vt 2.761719 0.825195 0.0
vt 1.276367 0.825195 0.0
vt 1.276367 0.647461 0.0
v 13.000000 68.077766 800.821533
#joint 33
#vjoint 64
f 60/175 33/176 64/177
#fvcolorindex 3 3 3 
vt 2.761719 0.825195 0.0
vt 1.276367 0.647461 0.0
vt 2.761719 0.647461 0.0
v 13.000000 68.077766 740.821533
#joint 33
#vjoint 65
f 60/178 64/179 65/180
#fvcolorindex 3 3 3 
vt 2.761719 0.647461 0.0
vt 1.276367 0.647461 0.0
vt 1.276367 0.442383 0.0
f 65/181 64/182 37/183
#fvcolorindex 3 3 3 
vt 2.761719 0.647461 0.0
vt 1.276367 0.442383 0.0
vt 2.761719 0.442383 0.0
f 65/184 37/185 63/186
#fvcolorindex 3 3 3 
vt 1.276367 0.825195 0.0
vt 1.276367 0.927734 0.0
vt 2.761719 0.927734 0.0
v -13.000000 68.077766 800.821533
#joint 33
#vjoint 66
f 66/187 35/188 58/189
#fvcolorindex 3 3 3 
vt 1.276367 0.825195 0.0
vt 2.761719 0.927734 0.0
vt 2.761719 0.825195 0.0
v -13.000000 68.077766 740.821533
#joint 33
#vjoint 67
f 66/190 58/191 67/192
#fvcolorindex 3 3 3 
vt 2.761719 0.647461 0.0
vt 1.276367 0.647461 0.0
vt 1.276367 0.825195 0.0
f 57/193 48/194 66/195
#fvcolorindex 3 3 3 
vt 2.761719 0.647461 0.0
vt 1.276367 0.825195 0.0
vt 2.761719 0.825195 0.0
f 57/196 66/197 67/198
#fvcolorindex 3 3 3 
vt 1.276367 0.264648 0.0
vt 2.761719 0.264648 0.0
vt 2.761719 0.162109 0.0
v 0.000000 45.077766 740.821533
#joint 33
#vjoint 68
f 46/199 56/200 68/201
#fvcolorindex 3 3 3 
vt 1.276367 0.264648 0.0
vt 2.761719 0.162109 0.0
vt 1.276367 0.162109 0.0
v 0.000000 45.077766 800.821533
#joint 33
#vjoint 69
f 46/202 68/203 69/204
#fvcolorindex 3 3 3 
vt 1.276367 0.162109 0.0
vt 1.276367 0.162109 0.0
vt 2.761719 0.162109 0.0
f 42/205 69/206 68/207
#fvcolorindex 3 3 3 
vt 1.276367 0.162109 0.0
vt 2.761719 0.162109 0.0
vt 2.761719 0.162109 0.0
f 42/208 68/209 62/210
#fvcolorindex 3 3 3 
usemtl m6
vt 0.000000 0.729492 0.0
vt 0.999512 0.001953 0.0
vt 1.000000 0.729492 0.0
v 11.000000 105.077766 541.821533
#joint 33
#vjoint 70
v 11.000000 105.077766 470.821533
#joint 33
#vjoint 71
v 11.000000 135.077774 459.821533
#joint 33
#vjoint 72
f 70/211 71/212 72/213
#fvcolorindex 3 3 3 
vt 0.000000 0.738281 0.0
vt 0.000000 0.000000 0.0
vt 1.000000 0.738281 0.0
v 11.000000 135.077774 339.821533
#joint 33
#vjoint 73
v 11.000000 105.077766 327.821533
#joint 33
#vjoint 74
v 11.000000 105.077766 260.821533
#joint 33
#vjoint 75
f 73/214 74/215 75/216
#fvcolorindex 3 3 3 
vt 0.751953 0.728516 0.0
vt 0.199219 0.728516 0.0
vt 0.199219 0.000000 0.0
v -11.000000 135.077774 459.821533
#joint 33
#vjoint 76
f 76/217 72/218 71/219
#fvcolorindex 3 3 3 
vt 0.751953 0.728516 0.0
vt 0.199219 0.000000 0.0
vt 0.751953 0.000000 0.0
v -11.000000 105.077766 470.821533
#joint 33
#vjoint 77
f 76/220 71/221 77/222
#fvcolorindex 3 3 3 
vt 1.000000 0.729492 0.0
vt 0.999512 0.001953 0.0
vt 0.000000 0.729492 0.0
v -11.000000 105.077766 541.821533
#joint 33
#vjoint 78
f 76/223 77/224 78/225
#fvcolorindex 3 3 3 
vt 1.000000 0.738281 0.0
vt 0.000000 0.000000 0.0
vt 0.000000 0.738281 0.0
v -11.000000 105.077766 260.821533
#joint 33
#vjoint 79
v -11.000000 105.077766 327.821533
#joint 33
#vjoint 80
v -11.000000 135.077774 339.821533
#joint 33
#vjoint 81
f 79/226 80/227 81/228
#fvcolorindex 3 3 3 
vt 0.493164 0.861328 0.0
vt 0.986816 0.861328 0.0
vt 0.986816 0.685547 0.0
v -11.000000 82.077766 601.821533
#joint 33
#vjoint 82
v -11.000000 82.077766 541.821533
#joint 33
#vjoint 83
v -15.000000 71.077766 541.821533
#joint 33
#vjoint 84
f 82/229 83/230 84/231
#fvcolorindex 3 3 3 
vt 0.493164 0.861328 0.0
vt 0.986816 0.685547 0.0
vt 0.493164 0.685547 0.0
v -15.000000 71.077766 601.821533
#joint 33
#vjoint 85
f 82/232 84/233 85/234
#fvcolorindex 3 3 3 
vt 0.493164 0.934570 0.0
vt 0.986816 0.934570 0.0
vt 0.986816 0.861328 0.0
v 0.000000 86.077766 601.821533
#joint 33
#vjoint 86
v 0.000000 86.077766 541.821533
#joint 33
#vjoint 87
f 86/235 87/236 83/237
#fvcolorindex 3 3 3 
vt 0.493164 0.934570 0.0
vt 0.986816 0.861328 0.0
vt 0.493164 0.861328 0.0
f 86/238 83/239 82/240
#fvcolorindex 3 3 3 
vt 0.505371 0.863281 0.0
vt 0.999023 0.863281 0.0
vt 1.000000 0.939453 0.0
v 11.000000 82.077766 601.821533
#joint 33
#vjoint 88
v 11.000000 82.077766 541.821533
#joint 33
#vjoint 89
f 88/241 89/242 87/243
#fvcolorindex 3 3 3 
vt 0.505371 0.863281 0.0
vt 1.000000 0.939453 0.0
vt 0.506348 0.939453 0.0
f 88/244 87/245 86/246
#fvcolorindex 3 3 3 
vt 0.709473 0.374023 0.0
vt 0.493164 0.374023 0.0
vt 0.493164 0.685547 0.0
v -15.000000 53.077766 575.821533
#joint 33
#vjoint 90
v -15.000000 53.077766 601.821533
#joint 33
#vjoint 91
f 90/247 91/248 85/249
#fvcolorindex 3 3 3 
vt 0.709473 0.374023 0.0
vt 0.493164 0.685547 0.0
vt 0.986816 0.685547 0.0
f 90/250 85/251 84/252
#fvcolorindex 3 3 3 
vt 0.996094 0.677734 0.0
vt 0.502441 0.677734 0.0
vt 0.497559 0.349609 0.0
v 15.000000 71.077766 541.821533
#joint 33
#vjoint 92
v 15.000000 71.077766 601.821533
#joint 33
#vjoint 93
v 15.000000 53.077766 601.821533
#joint 33
#vjoint 94
f 92/253 93/254 94/255
#fvcolorindex 3 3 3 
vt 0.996094 0.677734 0.0
vt 0.497559 0.349609 0.0
vt 0.713867 0.349609 0.0
v 15.000000 53.077766 575.821533
#joint 33
#vjoint 95
f 92/256 94/257 95/258
#fvcolorindex 3 3 3 
vt 0.986816 0.374023 0.0
vt 0.709473 0.374023 0.0
vt 0.986816 0.685547 0.0
v -15.000000 53.077766 541.821533
#joint 33
#vjoint 96
f 96/259 90/260 84/261
#fvcolorindex 3 3 3 
vt 0.996094 0.677734 0.0
vt 0.713867 0.349609 0.0
vt 0.991211 0.349609 0.0
v 15.000000 53.077766 541.821533
#joint 33
#vjoint 97
f 92/262 95/263 97/264
#fvcolorindex 3 3 3 
vt 0.493164 0.374023 0.0
vt 0.709473 0.374023 0.0
vt 0.493164 0.000000 0.0
v 0.000000 30.077768 601.821533
#joint 33
#vjoint 98
f 91/265 90/266 98/267
#fvcolorindex 3 3 3 
vt 0.492188 -0.043945 0.0
vt 0.713867 0.349609 0.0
vt 0.497559 0.349609 0.0
f 98/268 95/269 94/270
#fvcolorindex 3 3 3 
vt 0.493164 0.685547 0.0
vt 0.986816 0.685547 0.0
vt 0.986816 0.861328 0.0
f 93/271 92/272 89/273
#fvcolorindex 3 3 3 
vt 0.493164 0.685547 0.0
vt 0.986816 0.861328 0.0
vt 0.493164 0.861328 0.0
f 93/274 89/275 88/276
#fvcolorindex 3 3 3 
usemtl m7
vt 0.673828 0.086914 0.0
vt -0.816406 0.086914 0.0
vt 0.521484 0.652344 0.0
v -6.000000 150.077774 474.821533
#joint 33
#vjoint 99
f 76/277 78/278 99/279
#fvcolorindex 3 3 3 
vt -2.037109 0.000000 0.0
vt -2.364258 0.556641 0.0
vt 0.991211 0.556641 0.0
v -6.000000 150.077774 320.821533
#joint 33
#vjoint 100
f 76/280 99/281 100/282
#fvcolorindex 3 3 3 
vt -2.037109 0.000000 0.0
vt 0.991211 0.556641 0.0
vt 0.582031 0.000000 0.0
f 76/283 100/284 81/285
#fvcolorindex 3 3 3 
vt -2.373047 0.008789 0.0
vt -2.000000 0.741211 0.0
vt 0.186523 0.016602 0.0
f 81/286 100/287 79/288
#fvcolorindex 3 3 3 
vt 3.176758 0.049805 0.0
vt 1.000000 0.500977 0.0
vt 1.000000 0.955078 0.0
v 6.000000 150.077774 320.821533
#joint 33
#vjoint 101
f 79/289 100/290 101/291
#fvcolorindex 3 3 3 
vt 3.176758 0.049805 0.0
vt 1.000000 0.955078 0.0
vt 3.175781 0.958008 0.0
f 79/292 101/293 75/294
#fvcolorindex 3 3 3 
vt 0.128906 0.431641 0.0
vt 0.128906 0.950195 0.0
vt 3.510742 0.950195 0.0
v 6.000000 150.077774 474.821533
#joint 33
#vjoint 102
f 99/295 102/296 101/297
#fvcolorindex 3 3 3 
vt 0.128906 0.431641 0.0
vt 3.510742 0.950195 0.0
vt 3.510742 0.431641 0.0
f 99/298 101/299 100/300
#fvcolorindex 3 3 3 
vt -0.324219 0.896484 0.0
vt 1.085938 0.260742 0.0
vt 1.024414 0.885742 0.0
f 70/301 72/302 102/303
#fvcolorindex 3 3 3 
vt 0.130859 0.948242 0.0
vt 0.460938 0.000000 0.0
vt 3.098633 0.000000 0.0
f 102/304 72/305 73/306
#fvcolorindex 3 3 3 
vt 0.130859 0.948242 0.0
vt 3.098633 0.000000 0.0
vt 3.510742 0.948242 0.0
f 102/307 73/308 101/309
#fvcolorindex 3 3 3 
vt 1.668945 0.373047 0.0
vt 1.668945 0.990234 0.0
vt 3.025391 0.835938 0.0
f 78/310 70/311 102/312
#fvcolorindex 3 3 3 
vt 1.668945 0.373047 0.0
vt 3.025391 0.835938 0.0
vt 3.025391 0.527344 0.0
f 78/313 102/314 99/315
#fvcolorindex 3 3 3 
vt -0.000977 0.967773 0.0
vt -0.370117 -0.005859 0.0
vt 2.180664 0.778320 0.0
f 101/316 73/317 75/318
#fvcolorindex 3 3 3 
vt -0.148438 0.202148 0.0
vt 2.852539 0.213867 0.0
vt 2.913086 0.309570 0.0
v 15.000000 -29.922232 661.821533
#joint 33
#vjoint 103
v 15.000000 -29.922232 498.821533
#joint 33
#vjoint 104
v 23.000000 -21.922232 495.821533
#joint 33
#vjoint 105
f 103/319 104/320 105/321
#fvcolorindex 3 3 3 
vt -0.148438 0.202148 0.0
vt 2.913086 0.309570 0.0
vt -0.149414 0.296875 0.0
v 23.000000 -21.922232 661.821533
#joint 33
#vjoint 106
f 103/322 105/323 106/324
#fvcolorindex 3 3 3 
vt -0.149414 0.296875 0.0
vt 2.913086 0.309570 0.0
vt 0.979492 0.634766 0.0
v 23.000000 4.077768 601.821533
#joint 33
#vjoint 107
f 106/325 105/326 107/327
#fvcolorindex 3 3 3 
vt -0.149414 0.296875 0.0
vt 0.979492 0.634766 0.0
vt -0.152344 0.629883 0.0
v 23.000000 4.077768 661.821533
#joint 33
#vjoint 108
f 106/328 107/329 108/330
#fvcolorindex 3 3 3 
vt 0.979492 0.634766 0.0
vt 2.913086 0.309570 0.0
vt 3.312500 0.833984 0.0
v 23.000000 19.077768 477.821533
#joint 33
#vjoint 109
f 107/331 105/332 109/333
#fvcolorindex 3 3 3 
vt 0.979492 0.634766 0.0
vt 3.312500 0.833984 0.0
vt 0.978516 0.825195 0.0
v 23.000000 19.077768 601.821533
#joint 33
#vjoint 110
f 107/334 109/335 110/336
#fvcolorindex 3 3 3 
vt 0.978516 0.825195 0.0
vt 3.312500 0.833984 0.0
vt 3.311523 0.976562 0.0
v 11.000000 30.077768 477.821533
#joint 33
#vjoint 111
f 110/337 109/338 111/339
#fvcolorindex 3 3 3 
vt 0.978516 0.825195 0.0
vt 3.311523 0.976562 0.0
vt 0.977539 0.967773 0.0
v 11.000000 30.077768 601.821533
#joint 33
#vjoint 112
f 110/340 111/341 112/342
#fvcolorindex 3 3 3 
vt 3.311523 0.976562 0.0
vt 3.311523 0.976562 0.0
vt 0.977539 0.967773 0.0
v -11.000000 30.077768 477.821533
#joint 33
#vjoint 113
v -11.000000 30.077768 601.821533
#joint 33
#vjoint 114
f 111/343 113/344 114/345
#fvcolorindex 3 3 3 
vt 3.311523 0.976562 0.0
vt 0.977539 0.967773 0.0
vt 0.977539 0.967773 0.0
f 111/346 114/347 112/348
#fvcolorindex 3 3 3 
vt -0.149414 0.296875 0.0
vt 2.913086 0.309570 0.0
vt 2.852539 0.213867 0.0
v -22.000000 -21.922232 661.821533
#joint 33
#vjoint 115
v -22.000000 -21.922232 495.821533
#joint 33
#vjoint 116
v -15.000000 -29.922232 498.821533
#joint 33
#vjoint 117
f 115/349 116/350 117/351
#fvcolorindex 3 3 3 
vt -0.149414 0.296875 0.0
vt 2.852539 0.213867 0.0
vt -0.148438 0.202148 0.0
v -15.000000 -29.922232 661.821533
#joint 33
#vjoint 118
f 115/352 117/353 118/354
#fvcolorindex 3 3 3 
vt -0.152344 0.629883 0.0
vt 0.979492 0.634766 0.0
vt 2.913086 0.309570 0.0
v -22.000000 4.077768 661.821533
#joint 33
#vjoint 119
v -22.000000 4.077768 601.821533
#joint 33
#vjoint 120
f 119/355 120/356 116/357
#fvcolorindex 3 3 3 
vt -0.152344 0.629883 0.0
vt 2.913086 0.309570 0.0
vt -0.149414 0.296875 0.0
f 119/358 116/359 115/360
#fvcolorindex 3 3 3 
vt 0.978516 0.825195 0.0
vt 3.312500 0.833984 0.0
vt 2.913086 0.309570 0.0
v -22.000000 19.077768 601.821533
#joint 33
#vjoint 121
v -22.000000 19.077768 477.821533
#joint 33
#vjoint 122
f 121/361 122/362 116/363
#fvcolorindex 3 3 3 
vt 0.978516 0.825195 0.0
vt 2.913086 0.309570 0.0
vt 0.979492 0.634766 0.0
f 121/364 116/365 120/366
#fvcolorindex 3 3 3 
vt 0.977539 0.967773 0.0
vt 3.311523 0.976562 0.0
vt 3.312500 0.833984 0.0
f 114/367 113/368 122/369
#fvcolorindex 3 3 3 
vt 0.977539 0.967773 0.0
vt 3.312500 0.833984 0.0
vt 0.978516 0.825195 0.0
f 114/370 122/371 121/372
#fvcolorindex 3 3 3 
usemtl m8
vt 0.630859 -0.833984 0.0
vt 0.999023 -0.729492 0.0
vt 1.000977 0.635742 0.0
v 19.000000 -33.922234 129.821533
#joint 33
#vjoint 123
v 19.000000 -14.922232 136.821533
#joint 33
#vjoint 124
v 19.000000 -14.922232 234.821533
#joint 33
#vjoint 125
f 123/373 124/374 125/375
#fvcolorindex 3 3 3 
vt 0.630859 -0.833984 0.0
vt 1.000977 0.635742 0.0
vt 0.632812 0.748047 0.0
v 19.000000 -33.922234 242.821533
#joint 33
#vjoint 126
f 123/376 125/377 126/378
#fvcolorindex 3 3 3 
vt 0.632812 0.748047 0.0
vt 1.000977 0.635742 0.0
vt 0.999023 -0.729492 0.0
v -19.000000 -33.922234 242.821533
#joint 33
#vjoint 127
v -19.000000 -14.922232 234.821533
#joint 33
#vjoint 128
v -19.000000 -14.922232 136.821533
#joint 33
#vjoint 129
f 127/379 128/380 129/381
#fvcolorindex 3 3 3 
vt 0.632812 0.748047 0.0
vt 0.999023 -0.729492 0.0
vt 0.630859 -0.833984 0.0
v -19.000000 -33.922234 129.821533
#joint 33
#vjoint 130
f 127/382 129/383 130/384
#fvcolorindex 3 3 3 
usemtl m9
vt 3.666504 0.891602 0.0
vt 2.714355 0.000000 0.0
vt 0.904785 0.000000 0.0
v -19.000000 98.077766 252.821533
#joint 33
#vjoint 131
v -19.000000 53.077766 327.821533
#joint 33
#vjoint 132
v -19.000000 53.077766 470.821533
#joint 33
#vjoint 133
f 131/385 132/386 133/387
#fvcolorindex 3 3 3 
vt 3.666504 0.891602 0.0
vt 0.904785 0.000000 0.0
vt 0.000000 0.891602 0.0
v -19.000000 98.077766 541.821533
#joint 33
#vjoint 134
f 131/388 133/389 134/390
#fvcolorindex 3 3 3 
vt 3.666504 0.891602 0.0
vt 4.428711 0.000000 0.0
vt 2.714355 0.000000 0.0
v -19.000000 53.077766 192.821533
#joint 33
#vjoint 135
f 131/391 135/392 132/393
#fvcolorindex 3 3 3 
vt 0.000000 0.000000 0.0
vt 1.076172 0.000000 0.0
vt 1.260254 0.838867 0.0
v 30.000000 -33.922234 500.821533
#joint 33
#vjoint 136
v 30.000000 -33.922234 369.821533
#joint 33
#vjoint 137
v 30.000000 19.077768 346.821533
#joint 33
#vjoint 138
f 136/394 137/395 138/396
#fvcolorindex 3 3 3 
vt 0.000000 0.000000 0.0
vt 1.260254 0.838867 0.0
vt 0.184570 0.838867 0.0
v 30.000000 19.077768 477.821533
#joint 33
#vjoint 139
f 136/397 138/398 139/399
#fvcolorindex 3 3 3 
vt 1.168457 0.000000 0.0
vt 1.352539 0.838867 0.0
vt 1.260254 0.838867 0.0
v 19.000000 -33.922234 357.821533
#joint 33
#vjoint 140
v 19.000000 19.077768 335.821533
#joint 33
#vjoint 141
f 140/400 141/401 138/402
#fvcolorindex 3 3 3 
vt 1.168457 0.000000 0.0
vt 1.260254 0.838867 0.0
vt 1.076172 0.000000 0.0
f 140/403 138/404 137/405
#fvcolorindex 3 3 3 
vt 1.352539 0.838867 0.0
vt 1.168457 0.000000 0.0
vt 1.383301 0.000000 0.0
v 19.000000 -33.922234 331.821533
#joint 33
#vjoint 142
f 141/406 140/407 142/408
#fvcolorindex 3 3 3 
vt 1.352539 0.838867 0.0
vt 1.383301 0.000000 0.0
vt 1.567871 0.838867 0.0
v 19.000000 19.077768 309.821533
#joint 33
#vjoint 143
f 141/409 142/410 143/411
#fvcolorindex 3 3 3 
vt 0.090820 0.847656 0.0
vt -0.090820 0.000000 0.0
vt 0.000000 0.000000 0.0
v 30.000000 -33.922234 320.821533
#joint 33
#vjoint 144
f 143/412 142/413 144/414
#fvcolorindex 3 3 3 
vt 0.090820 0.847656 0.0
vt 0.000000 0.000000 0.0
vt 0.181641 0.847656 0.0
v 30.000000 19.077768 297.821533
#joint 33
#vjoint 145
f 143/415 144/416 145/417
#fvcolorindex 3 3 3 
vt 0.181641 0.847656 0.0
vt 0.000000 0.000000 0.0
vt 0.484375 0.000000 0.0
v 30.000000 -33.922234 260.821533
#joint 33
#vjoint 146
f 145/418 144/419 146/420
#fvcolorindex 3 3 3 
vt 0.181641 0.847656 0.0
vt 0.484375 0.000000 0.0
vt 0.601074 0.544922 0.0
v 30.000000 0.077768 245.821533
#joint 33
#vjoint 147
f 145/421 146/422 147/423
#fvcolorindex 3 3 3 
vt 0.184570 0.838867 0.0
vt 1.260254 0.838867 0.0
vt 1.260254 1.018555 0.0
v 19.000000 30.077768 346.821533
#joint 33
#vjoint 148
f 139/424 138/425 148/426
#fvcolorindex 3 3 3 
vt 0.184570 0.838867 0.0
vt 1.260254 1.018555 0.0
vt 0.215332 1.018555 0.0
v 19.000000 30.077768 474.821533
#joint 33
#vjoint 149
f 139/427 148/428 149/429
#fvcolorindex 3 3 3 
vt 1.573730 0.544922 0.0
vt 1.361816 0.847656 0.0
vt 0.181641 0.847656 0.0
v 30.000000 0.077768 125.821533
#joint 33
#vjoint 150
v 30.000000 19.077768 151.821533
#joint 33
#vjoint 151
f 150/430 151/431 145/432
#fvcolorindex 3 3 3 
vt 1.573730 0.544922 0.0
vt 0.181641 0.847656 0.0
vt 0.601074 0.544922 0.0
f 150/433 145/434 147/435
#fvcolorindex 3 3 3 
vt 0.626953 0.000000 0.0
vt 0.691895 0.302734 0.0
vt 0.601074 0.544922 0.0
f 126/436 125/437 147/438
#fvcolorindex 3 3 3 
vt 0.626953 0.000000 0.0
vt 0.601074 0.544922 0.0
vt 0.484375 0.000000 0.0
f 126/439 147/440 146/441
#fvcolorindex 3 3 3 
vt 1.482910 0.302734 0.0
vt 1.573730 0.544922 0.0
vt 0.601074 0.544922 0.0
f 124/442 150/443 147/444
#fvcolorindex 3 3 3 
vt 1.482910 0.302734 0.0
vt 0.601074 0.544922 0.0
vt 0.691895 0.302734 0.0
f 124/445 147/446 125/447
#fvcolorindex 3 3 3 
vt 1.543457 0.000000 0.0
vt 1.694824 0.000000 0.0
vt 1.573730 0.544922 0.0
v 30.000000 -33.922234 110.821533
#joint 33
#vjoint 152
f 123/448 152/449 150/450
#fvcolorindex 3 3 3 
vt 1.543457 0.000000 0.0
vt 1.573730 0.544922 0.0
vt 1.482910 0.302734 0.0
f 123/451 150/452 124/453
#fvcolorindex 3 3 3 
vt 1.260254 1.018555 0.0
vt 1.352539 0.838867 0.0
vt 1.567871 0.838867 0.0
f 148/454 141/455 143/456
#fvcolorindex 3 3 3 
vt 1.260254 1.018555 0.0
vt 1.567871 0.838867 0.0
vt 1.660156 1.018555 0.0
v 19.000000 30.077768 297.821533
#joint 33
#vjoint 153
f 148/457 143/458 153/459
#fvcolorindex 3 3 3 
vt 0.181641 1.029297 0.0
vt 0.181641 0.847656 0.0
vt 1.361816 0.847656 0.0
f 153/460 145/461 151/462
#fvcolorindex 3 3 3 
vt 0.181641 1.029297 0.0
vt 1.361816 0.847656 0.0
vt 1.301270 1.029297 0.0
v 19.000000 30.077768 159.821533
#joint 33
#vjoint 154
f 153/463 151/464 154/465
#fvcolorindex 3 3 3 
vt 0.000000 0.000000 0.0
vt 1.344238 0.937500 0.0
vt 0.013672 0.909180 0.0
v 19.000000 -70.922234 384.821533
#joint 33
#vjoint 155
f 137/466 136/467 155/468
#fvcolorindex 3 3 3 
vt 0.333496 0.000000 0.0
vt 0.433105 0.127930 0.0
vt 0.333496 0.905273 0.0
f 140/469 137/470 155/471
#fvcolorindex 3 3 3 
vt 1.260254 0.838867 0.0
vt 1.352539 0.838867 0.0
vt 1.260254 1.018555 0.0
f 138/472 141/473 148/474
#fvcolorindex 3 3 3 
vt 0.181641 1.029297 0.0
vt 0.090820 0.847656 0.0
vt 0.181641 0.847656 0.0
f 153/475 143/476 145/477
#fvcolorindex 3 3 3 
vt 0.000000 0.000000 0.0
vt 0.333496 0.000000 0.0
vt 0.333496 0.905273 0.0
v -19.000000 -33.922234 357.821533
#joint 33
#vjoint 156
f 156/478 140/479 155/480
#fvcolorindex 3 3 3 
vt 0.000000 0.000000 0.0
vt 0.333496 0.905273 0.0
vt 0.000000 0.905273 0.0
v -19.000000 -70.922234 384.821533
#joint 33
#vjoint 157
f 156/481 155/482 157/483
#fvcolorindex 3 3 3 
vt 1.000000 0.000000 0.0
vt 1.095215 0.517578 0.0
vt 1.000000 0.666016 0.0
v 19.000000 53.077766 462.821533
#joint 33
#vjoint 158
v 11.000000 79.077766 455.821533
#joint 33
#vjoint 159
v 19.000000 86.077766 462.821533
#joint 33
#vjoint 160
f 158/484 159/485 160/486
#fvcolorindex 3 3 3 
vt 2.238281 0.517578 0.0
vt 2.333496 0.666016 0.0
vt 1.000000 0.666016 0.0
v 11.000000 79.077766 365.821533
#joint 33
#vjoint 161
v 19.000000 86.077766 357.821533
#joint 33
#vjoint 162
f 161/487 162/488 160/489
#fvcolorindex 3 3 3 
vt 2.238281 0.517578 0.0
vt 1.000000 0.666016 0.0
vt 1.095215 0.517578 0.0
f 161/490 160/491 159/492
#fvcolorindex 3 3 3 
vt 2.333496 0.000000 0.0
vt 2.333496 0.666016 0.0
vt 2.238281 0.517578 0.0
v 19.000000 53.077766 357.821533
#joint 33
#vjoint 163
f 163/493 162/494 161/495
#fvcolorindex 3 3 3 
vt 1.000000 0.000000 0.0
vt 1.000000 0.668945 0.0
vt 0.000000 0.891602 0.0
v 19.000000 98.077766 541.821533
#joint 33
#vjoint 164
f 158/496 160/497 164/498
#fvcolorindex 3 3 3 
vt 1.000000 0.000000 0.0
vt 0.000000 0.891602 0.0
vt 0.000000 0.000000 0.0
v 19.000000 53.077766 541.821533
#joint 33
#vjoint 165
f 158/499 164/500 165/501
#fvcolorindex 3 3 3 
vt 0.000000 0.891602 0.0
vt 1.000000 0.668945 0.0
vt 2.333496 0.668945 0.0
f 164/502 160/503 162/504
#fvcolorindex 3 3 3 
vt 0.000000 0.891602 0.0
vt 2.333496 0.668945 0.0
vt 3.666504 0.891602 0.0
v 19.000000 98.077766 252.821533
#joint 33
#vjoint 166
f 164/505 162/506 166/507
#fvcolorindex 3 3 3 
vt 0.221191 0.883789 0.0
vt 0.000000 0.883789 0.0
vt 0.000000 0.000000 0.0
v 19.000000 53.077766 192.821533
#joint 33
#vjoint 167
f 131/508 166/509 167/510
#fvcolorindex 3 3 3 
vt 0.221191 0.883789 0.0
vt 0.000000 0.000000 0.0
vt 0.221191 0.000000 0.0
f 131/511 167/512 135/513
#fvcolorindex 3 3 3 
vt 0.000000 0.000000 0.0
vt 0.000488 1.000000 0.0
vt 1.200684 1.000000 0.0
v 19.000000 53.077766 147.821533
#joint 33
#vjoint 168
f 135/514 167/515 168/516
#fvcolorindex 3 3 3 
vt 0.000000 0.000000 0.0
vt 1.200684 1.000000 0.0
vt 1.200195 0.000000 0.0
v -19.000000 53.077766 147.821533
#joint 33
#vjoint 169
f 135/517 168/518 169/519
#fvcolorindex 3 3 3 
vt 0.639648 0.965820 0.0
vt 0.686035 0.000000 0.0
vt 0.686035 0.948242 0.0
v 19.000000 30.077768 575.821533
#joint 33
#vjoint 170
v 19.000000 53.077766 575.821533
#joint 33
#vjoint 171
f 95/520 170/521 171/522
#fvcolorindex 3 3 3 
vt 0.000000 0.000000 0.0
vt 0.686035 0.000000 0.0
vt 0.639648 0.965820 0.0
f 98/523 170/524 95/525
#fvcolorindex 3 3 3 
vt 0.000000 0.000000 0.0
vt 0.000000 0.891602 0.0
vt 0.904785 0.000000 0.0
v -19.000000 53.077766 541.821533
#joint 33
#vjoint 172
f 172/526 134/527 133/528
#fvcolorindex 3 3 3 
vt 1.482910 0.302734 0.0
vt 1.573730 0.544922 0.0
vt 1.694824 0.000000 0.0
v -30.000000 0.077768 125.821533
#joint 33
#vjoint 173
v -30.000000 -33.922234 110.821533
#joint 33
#vjoint 174
f 129/529 173/530 174/531
#fvcolorindex 3 3 3 
vt 1.482910 0.302734 0.0
vt 1.694824 0.000000 0.0
vt 1.543457 0.000000 0.0
f 129/532 174/533 130/534
#fvcolorindex 3 3 3 
vt 0.691895 0.302734 0.0
vt 0.601074 0.544922 0.0
vt 1.573730 0.544922 0.0
v -30.000000 0.077768 245.821533
#joint 33
#vjoint 175
f 128/535 175/536 173/537
#fvcolorindex 3 3 3 
vt 0.691895 0.302734 0.0
vt 1.573730 0.544922 0.0
vt 1.482910 0.302734 0.0
f 128/538 173/539 129/540
#fvcolorindex 3 3 3 
vt 0.484375 0.000000 0.0
vt 0.601074 0.544922 0.0
vt 0.691895 0.302734 0.0
v -30.000000 -33.922234 260.821533
#joint 33
#vjoint 176
f 176/541 175/542 128/543
#fvcolorindex 3 3 3 
vt 0.484375 0.000000 0.0
vt 0.691895 0.302734 0.0
vt 0.626953 0.000000 0.0
f 176/544 128/545 127/546
#fvcolorindex 3 3 3 
vt 0.601074 0.544922 0.0
vt 0.181641 0.847656 0.0
vt 1.361816 0.847656 0.0
v -30.000000 19.077768 297.821533
#joint 33
#vjoint 177
v -30.000000 19.077768 151.821533
#joint 33
#vjoint 178
f 175/547 177/548 178/549
#fvcolorindex 3 3 3 
vt 0.601074 0.544922 0.0
vt 1.361816 0.847656 0.0
vt 1.573730 0.544922 0.0
f 175/550 178/551 173/552
#fvcolorindex 3 3 3 
vt 0.601074 0.544922 0.0
vt 0.484375 0.000000 0.0
vt 0.000000 0.000000 0.0
v -30.000000 -33.922234 320.821533
#joint 33
#vjoint 179
f 175/553 176/554 179/555
#fvcolorindex 3 3 3 
vt 0.601074 0.544922 0.0
vt 0.000000 0.000000 0.0
vt 0.181641 0.847656 0.0
f 175/556 179/557 177/558
#fvcolorindex 3 3 3 
vt 1.301270 1.029297 0.0
vt 1.361816 0.847656 0.0
vt 0.181641 0.847656 0.0
v -19.000000 30.077768 159.821533
#joint 33
#vjoint 180
f 180/559 178/560 177/561
#fvcolorindex 3 3 3 
vt 1.301270 1.029297 0.0
vt 0.181641 0.847656 0.0
vt 0.181641 1.029297 0.0
v -19.000000 30.077768 297.821533
#joint 33
#vjoint 181
f 180/562 177/563 181/564
#fvcolorindex 3 3 3 
vt 0.181641 0.847656 0.0
vt 0.000000 0.000000 0.0
vt -0.090820 0.000000 0.0
v -19.000000 -33.922234 331.821533
#joint 33
#vjoint 182
f 177/565 179/566 182/567
#fvcolorindex 3 3 3 
vt 0.181641 0.847656 0.0
vt -0.090820 0.000000 0.0
vt 0.090820 0.847656 0.0
v -19.000000 19.077768 309.821533
#joint 33
#vjoint 183
f 177/568 182/569 183/570
#fvcolorindex 3 3 3 
vt 0.181641 0.847656 0.0
vt 0.090820 0.847656 0.0
vt 0.181641 1.029297 0.0
f 177/571 183/572 181/573
#fvcolorindex 3 3 3 
vt 1.567871 0.838867 0.0
vt 1.383301 0.000000 0.0
vt 1.168457 0.000000 0.0
f 183/574 182/575 156/576
#fvcolorindex 3 3 3 
vt 1.567871 0.838867 0.0
vt 1.168457 0.000000 0.0
vt 1.352539 0.838867 0.0
v -19.000000 19.077768 335.821533
#joint 33
#vjoint 184
f 183/577 156/578 184/579
#fvcolorindex 3 3 3 
vt 1.660156 1.018555 0.0
vt 1.567871 0.838867 0.0
vt 1.352539 0.838867 0.0
f 181/580 183/581 184/582
#fvcolorindex 3 3 3 
vt 1.660156 1.018555 0.0
vt 1.352539 0.838867 0.0
vt 1.260254 1.018555 0.0
v -19.000000 30.077768 346.821533
#joint 33
#vjoint 185
f 181/583 184/584 185/585
#fvcolorindex 3 3 3 
vt 1.260254 1.018555 0.0
vt 1.352539 0.838867 0.0
vt 1.260254 0.838867 0.0
v -30.000000 19.077768 346.821533
#joint 33
#vjoint 186
f 185/586 184/587 186/588
#fvcolorindex 3 3 3 
vt 1.076172 0.000000 0.0
vt 1.260254 0.838867 0.0
vt 1.352539 0.838867 0.0
v -30.000000 -33.922234 369.821533
#joint 33
#vjoint 187
f 187/589 186/590 184/591
#fvcolorindex 3 3 3 
vt 1.076172 0.000000 0.0
vt 1.352539 0.838867 0.0
vt 1.168457 0.000000 0.0
f 187/592 184/593 156/594
#fvcolorindex 3 3 3 
vt 0.333496 0.905273 0.0
vt 0.433105 0.127930 0.0
vt 0.333496 0.000000 0.0
f 157/595 187/596 156/597
#fvcolorindex 3 3 3 
vt 0.013672 0.909180 0.0
vt 1.344238 0.937500 0.0
vt 0.000000 0.000000 0.0
v -30.000000 -33.922234 500.821533
#joint 33
#vjoint 188
f 157/598 188/599 187/600
#fvcolorindex 3 3 3 
vt 0.184570 0.838867 0.0
vt 1.260254 0.838867 0.0
vt 1.076172 0.000000 0.0
v -30.000000 19.077768 477.821533
#joint 33
#vjoint 189
f 189/601 186/602 187/603
#fvcolorindex 3 3 3 
vt 0.184570 0.838867 0.0
vt 1.076172 0.000000 0.0
vt 0.000000 0.000000 0.0
f 189/604 187/605 188/606
#fvcolorindex 3 3 3 
vt 0.215332 1.018555 0.0
vt 1.260254 1.018555 0.0
vt 1.260254 0.838867 0.0
v -19.000000 30.077768 474.821533
#joint 33
#vjoint 190
f 190/607 185/608 186/609
#fvcolorindex 3 3 3 
vt 0.215332 1.018555 0.0
vt 1.260254 0.838867 0.0
vt 0.184570 0.838867 0.0
f 190/610 186/611 189/612
#fvcolorindex 3 3 3 
vt 0.639648 0.965820 0.0
vt 0.686035 0.000000 0.0
vt 0.000000 0.000000 0.0
v -19.000000 30.077768 575.821533
#joint 33
#vjoint 191
f 90/613 191/614 98/615
#fvcolorindex 3 3 3 
vt 0.686035 0.948242 0.0
vt 0.686035 0.000000 0.0
vt 0.639648 0.965820 0.0
v -19.000000 53.077766 575.821533
#joint 33
#vjoint 192
f 192/616 191/617 90/618
#fvcolorindex 3 3 3 
usemtl m10
vt 1.948242 1.012695 0.0
vt -6.103516 1.012695 0.0
vt -4.019531 0.000000 0.0
f 164/619 166/620 74/621
#fvcolorindex 3 3 3 
vt 1.948242 1.012695 0.0
vt -4.019531 0.000000 0.0
vt -0.045898 0.000000 0.0
f 164/622 74/623 71/624
#fvcolorindex 3 3 3 
vt 1.948242 1.012695 0.0
vt -0.045898 0.000000 0.0
vt 1.940430 0.000000 0.0
f 164/625 71/626 70/627
#fvcolorindex 3 3 3 
vt -5.901367 0.000000 0.0
vt -4.019531 0.000000 0.0
vt -6.103516 1.012695 0.0
f 75/628 74/629 166/630
#fvcolorindex 3 3 3 
vt 1.940430 0.000000 0.0
vt -0.045898 0.000000 0.0
vt 1.948242 1.012695 0.0
f 78/631 77/632 134/633
#fvcolorindex 3 3 3 
vt -0.045898 0.000000 0.0
vt -4.019531 0.000000 0.0
vt -6.103516 1.012695 0.0
f 77/634 80/635 131/636
#fvcolorindex 3 3 3 
vt -0.045898 0.000000 0.0
vt -6.103516 1.012695 0.0
vt 1.948242 1.012695 0.0
f 77/637 131/638 134/639
#fvcolorindex 3 3 3 
vt -6.103516 1.012695 0.0
vt -4.019531 0.000000 0.0
vt -5.901367 0.000000 0.0
f 131/640 80/641 79/642
#fvcolorindex 3 3 3 
usemtl m11
vt 0.698242 0.077148 0.0
vt 0.766602 0.520508 0.0
vt 0.951172 0.394531 0.0
v 30.000000 0.077768 65.821533
#joint 33
#vjoint 193
f 193/643 150/644 152/645
#fvcolorindex 3 3 3 
vt 0.698242 0.077148 0.0
vt 0.951172 0.394531 0.0
vt 1.112305 0.269531 0.0
v 30.000000 -63.922234 95.821533
#joint 33
#vjoint 194
f 193/646 152/647 194/648
#fvcolorindex 3 3 3 
vt 0.698242 0.077148 0.0
vt 1.112305 0.269531 0.0
vt 0.980469 -0.000977 0.0
v 30.000000 -48.922234 57.821533
#joint 33
#vjoint 195
f 193/649 194/650 195/651
#fvcolorindex 3 3 3 
vt 0.344727 0.132812 0.0
vt 0.685547 0.723633 0.0
vt 0.766602 0.520508 0.0
v 30.000000 60.077766 69.821533
#joint 33
#vjoint 196
f 196/652 151/653 150/654
#fvcolorindex 3 3 3 
vt 0.344727 0.132812 0.0
vt 0.766602 0.520508 0.0
vt 0.698242 0.077148 0.0
f 196/655 150/656 193/657
#fvcolorindex 3 3 3 
vt 0.079102 0.141602 0.0
vt 0.133789 0.472656 0.0
vt 0.702148 0.713867 0.0
v 19.000000 109.077766 69.821533
#joint 33
#vjoint 197
v 19.000000 109.077766 114.821533
#joint 33
#vjoint 198
f 197/658 198/659 151/660
#fvcolorindex 3 3 3 
vt 0.079102 0.141602 0.0
vt 0.702148 0.713867 0.0
vt 0.362305 0.123047 0.0
f 197/661 151/662 196/663
#fvcolorindex 3 3 3 
vt 0.501953 0.699219 0.0
vt 0.645508 0.773438 0.0
vt 0.702148 0.713867 0.0
f 168/664 154/665 151/666
#fvcolorindex 3 3 3 
vt 0.133789 0.472656 0.0
vt 0.501953 0.699219 0.0
vt 0.702148 0.713867 0.0
f 198/667 168/668 151/669
#fvcolorindex 3 3 3 
vt 0.964844 1.011719 0.0
vt 0.878906 0.853516 0.0
vt 0.642578 0.698242 0.0
f 169/670 168/671 198/672
#fvcolorindex 3 3 3 
vt 0.964844 1.011719 0.0
vt 0.642578 0.698242 0.0
vt 0.728516 0.855469 0.0
v -19.000000 109.077766 114.821533
#joint 33
#vjoint 199
f 169/673 198/674 199/675
#fvcolorindex 3 3 3 
vt 0.604492 0.612305 0.0
vt 0.302734 0.613281 0.0
vt 0.302734 0.366211 0.0
f 199/676 198/677 197/678
#fvcolorindex 3 3 3 
vt 0.604492 0.612305 0.0
vt 0.302734 0.366211 0.0
vt 0.607422 0.365234 0.0
v -19.000000 109.077766 69.821533
#joint 33
#vjoint 200
f 199/679 197/680 200/681
#fvcolorindex 3 3 3 
vt 0.311523 0.029297 0.0
vt 0.690430 0.034180 0.0
vt 0.663086 0.544922 0.0
v -30.000000 60.077766 69.821533
#joint 33
#vjoint 201
v -30.000000 0.077768 65.821533
#joint 33
#vjoint 202
f 201/682 202/683 173/684
#fvcolorindex 3 3 3 
vt 0.311523 0.029297 0.0
vt 0.663086 0.544922 0.0
vt 0.533203 0.756836 0.0
f 201/685 173/686 178/687
#fvcolorindex 3 3 3 
vt 0.311523 0.029297 0.0
vt 0.533203 0.756836 0.0
vt -0.020508 0.382812 0.0
f 201/688 178/689 199/690
#fvcolorindex 3 3 3 
vt 0.311523 0.029297 0.0
vt -0.020508 0.382812 0.0
vt 0.000000 0.000000 0.0
f 201/691 199/692 200/693
#fvcolorindex 3 3 3 
vt 0.881836 0.437500 0.0
vt 0.663086 0.544922 0.0
vt 0.690430 0.034180 0.0
f 174/694 173/695 202/696
#fvcolorindex 3 3 3 
vt 1.000000 0.000000 0.0
vt 1.077148 0.328125 0.0
vt 0.881836 0.437500 0.0
v -30.000000 -48.922234 57.821533
#joint 33
#vjoint 203
v -30.000000 -63.922234 95.821533
#joint 33
#vjoint 204
f 203/697 204/698 174/699
#fvcolorindex 3 3 3 
vt 1.000000 0.000000 0.0
vt 0.881836 0.437500 0.0
vt 0.690430 0.034180 0.0
f 203/700 174/701 202/702
#fvcolorindex 3 3 3 
vt 1.000000 0.000000 0.0
vt 1.016602 0.239258 0.0
vt 0.714844 0.331055 0.0
f 200/703 197/704 196/705
#fvcolorindex 3 3 3 
vt 1.000000 0.000000 0.0
vt 0.714844 0.331055 0.0
vt 0.688477 -0.046875 0.0
f 200/706 196/707 201/708
#fvcolorindex 3 3 3 
vt 0.688477 -0.046875 0.0
vt 0.714844 0.331055 0.0
vt 0.335938 0.356445 0.0
f 201/709 196/710 193/711
#fvcolorindex 3 3 3 
vt 0.688477 -0.046875 0.0
vt 0.335938 0.356445 0.0
vt 0.309570 -0.021484 0.0
f 201/712 193/713 202/714
#fvcolorindex 3 3 3 
vt 0.309570 -0.021484 0.0
vt 0.335938 0.356445 0.0
vt 0.026367 0.377930 0.0
f 202/715 193/716 195/717
#fvcolorindex 3 3 3 
vt 0.309570 -0.021484 0.0
vt 0.026367 0.377930 0.0
vt 0.000000 0.000000 0.0
f 202/718 195/719 203/720
#fvcolorindex 3 3 3 
vt 0.533203 0.756836 0.0
vt 0.318359 0.704102 0.0
vt -0.020508 0.382812 0.0
f 178/721 169/722 199/723
#fvcolorindex 3 3 3 
vt 0.318359 0.704102 0.0
vt 0.533203 0.756836 0.0
vt 0.454102 0.813477 0.0
f 169/724 178/725 180/726
#fvcolorindex 3 3 3 
vt 0.445312 0.622070 0.0
vt 0.201172 0.895508 0.0
vt -0.283203 0.674805 0.0
v 11.000000 -78.922234 264.821533
#joint 33
#vjoint 205
v 11.000000 -74.922234 312.821533
#joint 33
#vjoint 206
v 15.000000 -156.922226 294.821533
#joint 33
#vjoint 207
f 205/727 206/728 207/729
#fvcolorindex 3 3 3 
vt 0.445312 0.622070 0.0
vt -0.283203 0.674805 0.0
vt 0.043945 0.344727 0.0
v 15.000000 -130.922226 234.821533
#joint 33
#vjoint 208
f 205/730 207/731 208/732
#fvcolorindex 3 3 3 
vt 0.201172 0.895508 0.0
vt 0.445312 0.622070 0.0
vt 0.829102 0.698242 0.0
v 15.000000 -33.922234 264.821533
#joint 33
#vjoint 209
f 206/733 205/734 209/735
#fvcolorindex 3 3 3 
vt 0.201172 0.895508 0.0
vt 0.829102 0.698242 0.0
vt 0.733398 1.049805 0.0
v 15.000000 -33.922234 320.821533
#joint 33
#vjoint 210
f 206/736 209/737 210/738
#fvcolorindex 3 3 3 
vt 0.680664 -0.252930 0.0
vt 1.055664 0.194336 0.0
vt 0.823242 0.366211 0.0
v -15.000000 -130.922226 234.821533
#joint 33
#vjoint 211
f 205/739 208/740 211/741
#fvcolorindex 3 3 3 
vt 0.680664 -0.252930 0.0
vt 0.823242 0.366211 0.0
vt 0.505859 -0.124023 0.0
v -11.000000 -78.922234 264.821533
#joint 33
#vjoint 212
f 205/742 211/743 212/744
#fvcolorindex 3 3 3 
vt 0.252930 -0.406250 0.0
vt 0.485352 -0.578125 0.0
vt 0.680664 -0.252930 0.0
v -15.000000 -33.922234 264.821533
#joint 33
#vjoint 213
f 213/745 209/746 205/747
#fvcolorindex 3 3 3 
vt 0.252930 -0.406250 0.0
vt 0.680664 -0.252930 0.0
vt 0.505859 -0.124023 0.0
f 213/748 205/749 212/750
#fvcolorindex 3 3 3 
vt -0.207031 -0.234375 0.0
vt -0.220703 -0.095703 0.0
vt -0.215820 -0.088867 0.0
v 0.000000 -67.922234 312.821533
#joint 33
#vjoint 214
v 0.000000 -59.922234 376.821533
#joint 33
#vjoint 215
v 11.000000 -70.922234 384.821533
#joint 33
#vjoint 216
f 214/751 215/752 216/753
#fvcolorindex 3 3 3 
vt -0.207031 -0.234375 0.0
vt -0.215820 -0.088867 0.0
vt -0.210938 -0.240234 0.0
f 214/754 216/755 206/756
#fvcolorindex 3 3 3 
vt -0.220703 -0.095703 0.0
vt -0.207031 -0.234375 0.0
vt -0.181641 -0.239258 0.0
v -11.000000 -74.922234 312.821533
#joint 33
#vjoint 217
f 215/757 214/758 217/759
#fvcolorindex 3 3 3 
vt -0.220703 -0.095703 0.0
vt -0.181641 -0.239258 0.0
vt -0.186523 -0.087891 0.0
v -11.000000 -70.922234 384.821533
#joint 33
#vjoint 218
f 215/760 217/761 218/762
#fvcolorindex 3 3 3 
vt 0.236328 -0.056641 0.0
vt 0.033203 0.163086 0.0
vt 0.873047 0.802734 0.0
f 211/763 208/764 207/765
#fvcolorindex 3 3 3 
vt 0.236328 -0.056641 0.0
vt 0.873047 0.802734 0.0
vt 1.076172 0.583008 0.0
v -15.000000 -156.922226 294.821533
#joint 33
#vjoint 219
f 211/766 207/767 219/768
#fvcolorindex 3 3 3 
vt 0.733398 1.049805 0.0
vt 0.829102 0.698242 0.0
vt 0.445312 0.622070 0.0
v -15.000000 -33.922234 320.821533
#joint 33
#vjoint 220
f 220/769 213/770 212/771
#fvcolorindex 3 3 3 
vt 0.733398 1.049805 0.0
vt 0.445312 0.622070 0.0
vt 0.201172 0.895508 0.0
f 220/772 212/773 217/774
#fvcolorindex 3 3 3 
vt 0.043945 0.344727 0.0
vt -0.283203 0.674805 0.0
vt 0.201172 0.895508 0.0
f 211/775 219/776 217/777
#fvcolorindex 3 3 3 
vt 0.043945 0.344727 0.0
vt 0.201172 0.895508 0.0
vt 0.445312 0.622070 0.0
f 211/778 217/779 212/780
#fvcolorindex 3 3 3 
vt 0.970703 0.640625 0.0
vt 0.970703 0.856445 0.0
vt 0.671875 0.837891 0.0
v 30.000000 60.077766 601.821533
#joint 33
#vjoint 221
v 21.000000 81.077766 601.821533
#joint 33
#vjoint 222
v 21.000000 81.077766 661.821533
#joint 33
#vjoint 223
f 221/781 222/782 223/783
#fvcolorindex 3 3 3 
vt 0.970703 0.640625 0.0
vt 0.671875 0.837891 0.0
vt 0.671875 0.621094 0.0
v 30.000000 60.077766 661.821533
#joint 33
#vjoint 224
f 221/784 223/785 224/786
#fvcolorindex 3 3 3 
vt 0.671875 0.621094 0.0
vt 0.671875 0.837891 0.0
vt 0.280273 0.758789 0.0
v 16.000000 76.077766 740.821533
#joint 33
#vjoint 225
f 224/787 223/788 225/789
#fvcolorindex 3 3 3 
vt 0.671875 0.621094 0.0
vt 0.280273 0.758789 0.0
vt 0.280273 0.596680 0.0
v 23.000000 60.077766 740.821533
#joint 33
#vjoint 226
f 224/790 225/791 226/792
#fvcolorindex 3 3 3 
vt 0.280273 0.758789 0.0
vt 0.671875 0.837891 0.0
vt 0.671875 0.927734 0.0
v 0.000000 90.077766 661.821533
#joint 33
#vjoint 227
f 225/793 223/794 227/795
#fvcolorindex 3 3 3 
vt 0.280273 0.758789 0.0
vt 0.671875 0.927734 0.0
vt 0.280273 0.826172 0.0
v 0.000000 83.077766 740.821533
#joint 33
#vjoint 228
f 225/796 227/797 228/798
#fvcolorindex 3 3 3 
vt 0.671875 0.927734 0.0
vt 0.671875 0.837891 0.0
vt 0.970703 0.856445 0.0
f 227/799 223/800 222/801
#fvcolorindex 3 3 3 
vt 0.671875 0.927734 0.0
vt 0.970703 0.856445 0.0
vt 0.970703 0.946289 0.0
v 0.000000 90.077766 601.821533
#joint 33
#vjoint 229
f 227/802 222/803 229/804
#fvcolorindex 3 3 3 
vt 0.970703 0.856445 0.0
vt 0.671875 0.837891 0.0
vt 0.671875 0.927734 0.0
v -21.000000 81.077766 601.821533
#joint 33
#vjoint 230
v -21.000000 81.077766 661.821533
#joint 33
#vjoint 231
f 230/805 231/806 227/807
#fvcolorindex 3 3 3 
vt 0.970703 0.856445 0.0
vt 0.671875 0.927734 0.0
vt 0.970703 0.946289 0.0
f 230/808 227/809 229/810
#fvcolorindex 3 3 3 
vt 0.280273 0.758789 0.0
vt 0.280273 0.826172 0.0
vt 0.671875 0.927734 0.0
v -16.000000 76.077766 740.821533
#joint 33
#vjoint 232
f 232/811 228/812 227/813
#fvcolorindex 3 3 3 
vt 0.280273 0.758789 0.0
vt 0.671875 0.927734 0.0
vt 0.671875 0.837891 0.0
f 232/814 227/815 231/816
#fvcolorindex 3 3 3 
vt 0.280273 0.758789 0.0
vt 0.671875 0.837891 0.0
vt 0.671875 0.621094 0.0
v -30.000000 60.077766 661.821533
#joint 33
#vjoint 233
f 232/817 231/818 233/819
#fvcolorindex 3 3 3 
vt 0.280273 0.758789 0.0
vt 0.671875 0.621094 0.0
vt 0.280273 0.596680 0.0
v -22.000000 60.077766 740.821533
#joint 33
#vjoint 234
f 232/820 233/821 234/822
#fvcolorindex 3 3 3 
vt 0.671875 0.621094 0.0
vt 0.671875 0.837891 0.0
vt 0.970703 0.856445 0.0
f 233/823 231/824 230/825
#fvcolorindex 3 3 3 
vt 0.671875 0.621094 0.0
vt 0.970703 0.856445 0.0
vt 0.970703 0.640625 0.0
v -30.000000 60.077766 601.821533
#joint 33
#vjoint 235
f 233/826 230/827 235/828
#fvcolorindex 3 3 3 
vt 0.970703 0.640625 0.0
vt 0.671875 0.621094 0.0
vt 0.671875 0.315430 0.0
v 30.000000 30.077768 661.821533
#joint 33
#vjoint 236
f 221/829 224/830 236/831
#fvcolorindex 3 3 3 
vt 0.970703 0.640625 0.0
vt 0.671875 0.315430 0.0
vt 0.970703 0.334961 0.0
v 30.000000 30.077768 601.821533
#joint 33
#vjoint 237
f 221/832 236/833 237/834
#fvcolorindex 3 3 3 
vt 0.671875 0.315430 0.0
vt 0.671875 0.621094 0.0
vt 0.280273 0.596680 0.0
f 236/835 224/836 226/837
#fvcolorindex 3 3 3 
vt 0.671875 0.315430 0.0
vt 0.280273 0.596680 0.0
vt 0.280273 0.291016 0.0
v 23.000000 30.077768 740.821533
#joint 33
#vjoint 238
f 236/838 226/839 238/840
#fvcolorindex 3 3 3 
vt 0.970703 0.334961 0.0
vt 0.671875 0.315430 0.0
vt 0.671875 0.047852 0.0
v 30.000000 4.077768 661.821533
#joint 33
#vjoint 239
f 237/841 236/842 239/843
#fvcolorindex 3 3 3 
vt 0.970703 0.334961 0.0
vt 0.671875 0.047852 0.0
vt 0.970703 0.067383 0.0
v 30.000000 4.077768 601.821533
#joint 33
#vjoint 240
f 237/844 239/845 240/846
#fvcolorindex 3 3 3 
vt 0.970703 0.334961 0.0
vt 0.671875 0.315430 0.0
vt 0.671875 0.621094 0.0
v -30.000000 30.077768 601.821533
#joint 33
#vjoint 241
v -30.000000 30.077768 661.821533
#joint 33
#vjoint 242
f 241/847 242/848 233/849
#fvcolorindex 3 3 3 
vt 0.970703 0.334961 0.0
vt 0.671875 0.621094 0.0
vt 0.970703 0.640625 0.0
f 241/850 233/851 235/852
#fvcolorindex 3 3 3 
vt 0.280273 0.291016 0.0
vt 0.280273 0.596680 0.0
vt 0.671875 0.621094 0.0
v -22.000000 30.077768 740.821533
#joint 33
#vjoint 243
f 243/853 234/854 233/855
#fvcolorindex 3 3 3 
vt 0.280273 0.291016 0.0
vt 0.671875 0.621094 0.0
vt 0.671875 0.315430 0.0
f 243/856 233/857 242/858
#fvcolorindex 3 3 3 
vt 0.671875 0.315430 0.0
vt 0.970703 0.334961 0.0
vt 0.970703 0.067383 0.0
v -30.000000 4.077768 601.821533
#joint 33
#vjoint 244
f 242/859 241/860 244/861
#fvcolorindex 3 3 3 
vt 0.671875 0.315430 0.0
vt 0.970703 0.067383 0.0
vt 0.671875 0.047852 0.0
v -30.000000 4.077768 661.821533
#joint 33
#vjoint 245
f 242/862 244/863 245/864
#fvcolorindex 3 3 3 
vt 0.671875 0.047852 0.0
vt 0.671875 0.315430 0.0
vt 0.280273 0.291016 0.0
f 239/865 236/866 238/867
#fvcolorindex 3 3 3 
vt 0.671875 0.047852 0.0
vt 0.280273 0.291016 0.0
vt 0.280273 -0.244141 0.0
v 23.000000 -21.922232 740.821533
#joint 33
#vjoint 246
f 239/868 238/869 246/870
#fvcolorindex 3 3 3 
vt 0.280273 -0.244141 0.0
vt 0.280273 0.291016 0.0
vt 0.671875 0.315430 0.0
v -22.000000 -21.922232 740.821533
#joint 33
#vjoint 247
f 247/871 243/872 242/873
#fvcolorindex 3 3 3 
vt 0.280273 -0.244141 0.0
vt 0.671875 0.315430 0.0
vt 0.671875 0.047852 0.0
f 247/874 242/875 245/876
#fvcolorindex 3 3 3 
vt 0.671875 -0.333984 0.0
vt 0.671875 0.047852 0.0
vt 0.280273 -0.244141 0.0
v 23.000000 -33.922234 661.821533
#joint 33
#vjoint 248
f 248/877 239/878 246/879
#fvcolorindex 3 3 3 
vt 0.280273 -0.244141 0.0
vt 0.671875 0.047852 0.0
vt 0.671875 -0.333984 0.0
v -22.000000 -33.922234 661.821533
#joint 33
#vjoint 249
f 247/880 245/881 249/882
#fvcolorindex 3 3 3 
vt 0.970703 0.334961 0.0
vt 0.970703 0.334961 0.0
vt 0.970703 0.067383 0.0
f 241/883 237/884 240/885
#fvcolorindex 3 3 3 
vt 0.970703 0.334961 0.0
vt 0.970703 0.640625 0.0
vt 0.970703 0.640625 0.0
f 241/886 235/887 221/888
#fvcolorindex 3 3 3 
vt 0.970703 0.334961 0.0
vt 0.970703 0.640625 0.0
vt 0.970703 0.334961 0.0
f 241/889 221/890 237/891
#fvcolorindex 3 3 3 
vt 0.970703 0.334961 0.0
vt 0.970703 0.334961 0.0
vt 0.970703 0.067383 0.0
f 241/892 237/893 240/894
#fvcolorindex 3 3 3 
vt 0.970703 0.334961 0.0
vt 0.970703 0.067383 0.0
vt 0.970703 0.067383 0.0
f 241/895 240/896 244/897
#fvcolorindex 3 3 3 
vt 0.970703 0.856445 0.0
vt 0.970703 0.856445 0.0
vt 0.970703 0.640625 0.0
f 230/898 222/899 221/900
#fvcolorindex 3 3 3 
vt 0.970703 0.856445 0.0
vt 0.970703 0.640625 0.0
vt 0.970703 0.640625 0.0
f 230/901 221/902 235/903
#fvcolorindex 3 3 3 
vt 0.970703 0.946289 0.0
vt 0.970703 0.856445 0.0
vt 0.970703 0.856445 0.0
f 229/904 222/905 230/906
#fvcolorindex 3 3 3 
vt 0.671875 -0.333984 0.0
vt 0.671875 0.047852 0.0
vt 0.671875 0.047852 0.0
f 249/907 245/908 239/909
#fvcolorindex 3 3 3 
vt 0.671875 -0.333984 0.0
vt 0.671875 0.047852 0.0
vt 0.671875 -0.333984 0.0
f 249/910 239/911 248/912
#fvcolorindex 3 3 3 
usemtl m12
vt 0.000000 0.000000 0.0
vt 6.215820 0.000000 0.0
vt 6.215820 0.981445 0.0
f 71/913 74/914 80/915
#fvcolorindex 3 3 3 
vt 0.000000 0.000000 0.0
vt 6.215820 0.981445 0.0
vt 0.000000 0.981445 0.0
f 71/916 80/917 77/918
#fvcolorindex 3 3 3 
vt 1.333008 0.999023 0.0
vt 1.000000 0.000000 0.0
vt 0.000000 0.000000 0.0
f 131/919 79/920 75/921
#fvcolorindex 3 3 3 
vt 1.333008 0.999023 0.0
vt 0.000000 0.000000 0.0
vt -0.333008 0.999023 0.0
f 131/922 75/923 166/924
#fvcolorindex 3 3 3 
usemtl m13
vt 0.666016 0.890625 0.0
vt -0.191406 0.667969 0.0
vt -0.191406 0.000000 0.0
f 166/925 162/926 163/927
#fvcolorindex 3 3 3 
vt 0.666016 0.890625 0.0
vt -0.191406 0.000000 0.0
vt 1.156250 0.000000 0.0
f 166/928 163/929 167/930
#fvcolorindex 3 3 3 
usemtl m14MirrorS
vt 2.003906 0.000000 0.0
vt 1.860840 0.999023 0.0
vt 0.143066 0.999023 0.0
f 163/931 161/932 159/933
#fvcolorindex 3 3 3 
vt 2.003906 0.000000 0.0
vt 0.143066 0.999023 0.0
vt 0.000000 0.000000 0.0
f 163/934 159/935 158/936
#fvcolorindex 3 3 3 
usemtl m15
vt 3.795898 0.000000 0.0
vt 6.783691 0.000000 0.0
vt 7.026367 0.968750 0.0
f 153/937 154/938 168/939
#fvcolorindex 3 3 3 
vt 3.795898 0.000000 0.0
vt 7.026367 0.968750 0.0
vt 6.057129 0.968750 0.0
f 153/940 168/941 167/942
#fvcolorindex 3 3 3 
vt 0.000000 0.000000 0.0
vt 2.745605 0.000000 0.0
vt 2.503418 0.968750 0.0
f 149/943 148/944 163/945
#fvcolorindex 3 3 3 
vt 0.000000 0.000000 0.0
vt 2.503418 0.968750 0.0
vt 0.242188 0.968750 0.0
f 149/946 163/947 158/948
#fvcolorindex 3 3 3 
vt 2.503418 0.968750 0.0
vt 2.745605 0.000000 0.0
vt 3.795898 0.000000 0.0
f 163/949 148/950 153/951
#fvcolorindex 3 3 3 
vt 2.503418 0.968750 0.0
vt 3.795898 0.000000 0.0
vt 6.057129 0.968750 0.0
f 163/952 153/953 167/954
#fvcolorindex 3 3 3 
vt -2.180664 0.000000 0.0
vt 0.000000 0.000000 0.0
vt 0.242188 0.968750 0.0
f 170/955 149/956 158/957
#fvcolorindex 3 3 3 
vt -2.180664 0.000000 0.0
vt 0.242188 0.968750 0.0
vt -1.453613 0.968750 0.0
f 170/958 158/959 165/960
#fvcolorindex 3 3 3 
vt -2.180664 0.000000 0.0
vt -1.453613 0.968750 0.0
vt -2.180664 0.968750 0.0
f 170/961 165/962 171/963
#fvcolorindex 3 3 3 
vt 0.000000 0.000000 0.0
vt 1.000000 0.000000 0.0
vt 1.000000 -0.117188 0.0
f 97/964 95/965 171/966
#fvcolorindex 3 3 3 
vt 0.000000 0.000000 0.0
vt 1.000000 -0.117188 0.0
vt 0.000000 -0.117188 0.0
f 97/967 171/968 165/969
#fvcolorindex 3 3 3 
vt 6.057129 0.968750 0.0
vt 7.026367 0.968750 0.0
vt 6.783691 0.000000 0.0
f 135/970 169/971 180/972
#fvcolorindex 3 3 3 
vt 6.057129 0.968750 0.0
vt 6.783691 0.000000 0.0
vt 3.795898 0.000000 0.0
f 135/973 180/974 181/975
#fvcolorindex 3 3 3 
vt 6.057129 0.968750 0.0
vt 3.795898 0.000000 0.0
vt 2.745605 0.000000 0.0
f 135/976 181/977 185/978
#fvcolorindex 3 3 3 
vt 6.057129 0.968750 0.0
vt 2.745605 0.000000 0.0
vt 3.149414 0.968750 0.0
f 135/979 185/980 132/981
#fvcolorindex 3 3 3 
vt 3.149414 0.968750 0.0
vt 2.745605 0.000000 0.0
vt 0.000000 0.000000 0.0
f 132/982 185/983 190/984
#fvcolorindex 3 3 3 
vt 3.149414 0.968750 0.0
vt 0.000000 0.000000 0.0
vt 0.080566 0.968750 0.0
f 132/985 190/986 133/987
#fvcolorindex 3 3 3 
vt -1.453613 0.968750 0.0
vt 0.080566 0.968750 0.0
vt 0.000000 0.000000 0.0
f 172/988 133/989 190/990
#fvcolorindex 3 3 3 
vt -1.453613 0.968750 0.0
vt 0.000000 0.000000 0.0
vt -2.180664 0.000000 0.0
f 172/991 190/992 191/993
#fvcolorindex 3 3 3 
vt -2.180664 0.968750 0.0
vt -1.453613 0.968750 0.0
vt -2.180664 0.000000 0.0
f 192/994 172/995 191/996
#fvcolorindex 3 3 3 
vt 0.000000 -0.117188 0.0
vt 1.000000 -0.117188 0.0
vt 1.000000 0.000000 0.0
f 172/997 192/998 90/999
#fvcolorindex 3 3 3 
vt 0.000000 -0.117188 0.0
vt 1.000000 0.000000 0.0
vt 0.000000 0.000000 0.0
f 172/1000 90/1001 96/1002
#fvcolorindex 3 3 3 
g Room06
g Room06_primary
usemtl m5
vt -0.208984 0.610352 0.0
vt -0.208984 0.647461 0.0
vt -0.208984 0.442383 0.0
v -10.000000 60.077766 856.821533
#joint 33
#vjoint 250
#vcolor 254.000000 254.000000 254.000000 255.000000
v -15.000000 60.077766 856.821533
#joint 33
#vjoint 251
v -13.000000 53.077766 856.821533
#joint 33
#vjoint 252
f 250/1003 251/1004 252/1005
#fvcolorindex 4 4 4 
vt -0.208984 0.610352 0.0
vt -0.208984 0.442383 0.0
vt -0.208984 0.264648 0.0
v -7.000000 47.077766 856.821533
#joint 33
#vjoint 253
f 250/1006 252/1007 253/1008
#fvcolorindex 4 4 4 
vt -0.208984 0.825195 0.0
vt -0.208984 0.927734 0.0
vt -0.208984 0.927734 0.0
v 8.000000 73.077766 856.821533
#joint 33
#vjoint 254
v 0.000000 75.077766 856.821533
#joint 33
#vjoint 255
v -7.000000 73.077766 856.821533
#joint 33
#vjoint 256
f 254/1009 255/1010 256/1011
#fvcolorindex 4 4 4 
vt -0.208984 0.825195 0.0
vt -0.208984 0.927734 0.0
vt -0.208984 0.724609 0.0
v 5.000000 68.077766 856.821533
#joint 33
#vjoint 257
f 254/1012 256/1013 257/1014
#fvcolorindex 4 4 4 
vt -0.208984 0.162109 0.0
vt -0.208984 0.264648 0.0
vt -0.208984 0.442383 0.0
v 8.000000 47.077766 856.821533
#joint 33
#vjoint 258
v 13.000000 53.077766 856.821533
#joint 33
#vjoint 259
v 15.000000 60.077766 856.821533
#joint 33
#vjoint 260
f 258/1015 259/1016 260/1017
#fvcolorindex 4 4 4 
vt -0.208984 0.162109 0.0
vt -0.208984 0.442383 0.0
vt -0.208984 0.299805 0.0
v 5.000000 52.077766 856.821533
#joint 33
#vjoint 261
f 258/1018 260/1019 261/1020
#fvcolorindex 4 4 4 
usemtl m6
vt 0.309570 0.695312 0.0
vt 0.184082 0.695312 0.0
vt 0.219727 -0.000977 0.0
v 30.000000 -33.922234 500.821533
#joint 33
#vjoint 262
v -30.000000 -33.922234 500.821533
#joint 33
#vjoint 263
v -19.000000 -70.922234 384.821533
#joint 33
#vjoint 264
f 262/1021 263/1022 264/1023
#fvcolorindex 4 4 4 
vt 0.309570 0.695312 0.0
vt 0.219727 -0.000977 0.0
vt 0.298340 -0.000977 0.0
v 19.000000 -70.922234 384.821533
#joint 33
#vjoint 265
f 262/1024 264/1025 265/1026
#fvcolorindex 4 4 4 
vt 0.199219 0.000000 0.0
vt 0.751953 0.000000 0.0
vt 0.751953 0.728516 0.0
v -11.000000 105.077766 327.821533
#joint 33
#vjoint 266
v 11.000000 105.077766 327.821533
#joint 33
#vjoint 267
v 11.000000 135.077774 339.821533
#joint 33
#vjoint 268
f 266/1027 267/1028 268/1029
#fvcolorindex 4 4 4 
vt 0.199219 0.000000 0.0
vt 0.751953 0.728516 0.0
vt 0.199219 0.728516 0.0
v -11.000000 135.077774 339.821533
#joint 33
#vjoint 269
f 266/1030 268/1031 269/1032
#fvcolorindex 4 4 4 
usemtl m7
vt 1.070312 0.000000 0.0
vt 1.083984 0.652344 0.0
vt -1.487305 0.652344 0.0
v 11.000000 135.077774 459.821533
#joint 33
#vjoint 270
f 269/1033 268/1034 270/1035
#fvcolorindex 4 4 4 
vt 1.070312 0.000000 0.0
vt -1.487305 0.652344 0.0
vt -1.500977 0.000000 0.0
v -11.000000 135.077774 459.821533
#joint 33
#vjoint 271
f 269/1036 270/1037 271/1038
#fvcolorindex 4 4 4 
vt 2.852539 0.213867 0.0
vt 2.852539 0.213867 0.0
vt -0.148438 0.202148 0.0
v -15.000000 -29.922232 498.821533
#joint 33
#vjoint 272
v 15.000000 -29.922232 498.821533
#joint 33
#vjoint 273
v 15.000000 -29.922232 661.821533
#joint 33
#vjoint 274
f 272/1039 273/1040 274/1041
#fvcolorindex 4 4 4 
vt 2.852539 0.213867 0.0
vt -0.148438 0.202148 0.0
vt -0.148438 0.202148 0.0
v -15.000000 -29.922232 661.821533
#joint 33
#vjoint 275
f 272/1042 274/1043 275/1044
#fvcolorindex 4 4 4 
usemtl m8
vt 1.095703 0.172852 0.0
vt 1.095703 0.987305 0.0
vt 1.095703 0.987305 0.0
v 15.000000 -99.276352 519.264404
#joint 39
#vjoint 276
v 15.000000 -37.276348 492.264435
#joint 39
#vjoint 277
v -15.000000 -37.276348 492.264435
#joint 39
#vjoint 278
f 276/1045 277/1046 278/1047
#fvcolorindex 4 4 4 
vt 1.095703 0.172852 0.0
vt 1.095703 0.987305 0.0
vt 1.095703 0.172852 0.0
v -15.000000 -99.276352 519.264404
#joint 39
#vjoint 279
f 276/1048 278/1049 279/1050
#fvcolorindex 4 4 4 
vt 1.095703 0.596680 0.0
vt 1.095703 0.987305 0.0
vt 1.095703 0.987305 0.0
v 12.000000 -37.276348 492.264435
#joint 39
#vjoint 280
v 12.000000 0.723652 476.264435
#joint 39
#vjoint 281
v -12.000000 0.723652 476.264435
#joint 39
#vjoint 282
f 280/1051 281/1052 282/1053
#fvcolorindex 4 4 4 
vt 1.095703 0.596680 0.0
vt 1.095703 0.987305 0.0
vt 1.095703 0.596680 0.0
v -12.000000 -37.276348 492.264435
#joint 39
#vjoint 283
f 280/1054 282/1055 283/1056
#fvcolorindex 4 4 4 
vt 1.095703 0.172852 0.0
vt 1.095703 0.172852 0.0
vt 1.095703 0.987305 0.0
v -15.000000 -148.276352 433.264435
#joint 39
#vjoint 284
v 15.000000 -148.276352 433.264435
#joint 39
#vjoint 285
f 284/1057 285/1058 276/1059
#fvcolorindex 4 4 4 
vt 1.095703 0.172852 0.0
vt 1.095703 0.987305 0.0
vt 1.095703 0.987305 0.0
f 284/1060 276/1061 279/1062
#fvcolorindex 4 4 4 
vt 1.095703 0.987305 0.0
vt 1.095703 0.987305 0.0
vt 1.095703 0.172852 0.0
v -11.000000 -147.276352 425.264435
#joint 39
#vjoint 286
v 11.000000 -147.276352 425.264435
#joint 39
#vjoint 287
f 286/1063 287/1064 285/1065
#fvcolorindex 4 4 4 
vt 1.095703 0.987305 0.0
vt 1.095703 0.172852 0.0
vt 1.095703 0.172852 0.0
f 286/1066 285/1067 284/1068
#fvcolorindex 4 4 4 
vt 0.548828 0.000000 0.0
vt 1.000000 0.000000 0.0
vt 1.000000 1.000000 0.0
v -19.000000 -33.922234 129.821533
#joint 33
#vjoint 288
v 19.000000 -33.922234 129.821533
#joint 33
#vjoint 289
v 19.000000 -33.922234 242.821533
#joint 33
#vjoint 290
f 288/1069 289/1070 290/1071
#fvcolorindex 4 4 4 
vt 0.548828 0.000000 0.0
vt 1.000000 1.000000 0.0
vt 0.548828 1.000000 0.0
v -19.000000 -33.922234 242.821533
#joint 33
#vjoint 291
f 288/1072 290/1073 291/1074
#fvcolorindex 4 4 4 
usemtl m9
vt 0.626953 0.000000 0.0
vt 0.484375 0.000000 0.0
vt 0.000000 0.000000 0.0
v 30.000000 -33.922234 260.821533
#joint 33
#vjoint 292
v 30.000000 -33.922234 320.821533
#joint 33
#vjoint 293
f 290/1075 292/1076 293/1077
#fvcolorindex 4 4 4 
vt 0.626953 0.000000 0.0
vt 0.000000 0.000000 0.0
vt -0.090820 0.000000 0.0
v 19.000000 -33.922234 331.821533
#joint 33
#vjoint 294
f 290/1078 293/1079 294/1080
#fvcolorindex 4 4 4 
vt -0.090820 0.000000 0.0
vt 0.000000 0.000000 0.0
vt 0.484375 0.000000 0.0
v -19.000000 -33.922234 331.821533
#joint 33
#vjoint 295
v -30.000000 -33.922234 320.821533
#joint 33
#vjoint 296
v -30.000000 -33.922234 260.821533
#joint 33
#vjoint 297
f 295/1081 296/1082 297/1083
#fvcolorindex 4 4 4 
vt -0.090820 0.000000 0.0
vt 0.484375 0.000000 0.0
vt 0.626953 0.000000 0.0
f 295/1084 297/1085 291/1086
#fvcolorindex 4 4 4 
vt 0.000000 0.000000 0.0
vt 1.000000 0.000000 0.0
vt 1.000000 0.902344 0.0
v -19.000000 53.077766 541.821533
#joint 33
#vjoint 298
v 19.000000 53.077766 541.821533
#joint 33
#vjoint 299
v 19.000000 98.077766 541.821533
#joint 33
#vjoint 300
f 298/1087 299/1088 300/1089
#fvcolorindex 4 4 4 
vt 0.000000 0.000000 0.0
vt 1.000000 0.902344 0.0
vt 0.000000 0.902344 0.0
v -19.000000 98.077766 541.821533
#joint 33
#vjoint 301
f 298/1090 300/1091 301/1092
#fvcolorindex 4 4 4 
vt 0.184570 0.838867 0.0
vt 0.000000 0.000000 0.0
vt 0.000000 0.000000 0.0
v -30.000000 19.077768 477.821533
#joint 33
#vjoint 302
f 302/1093 263/1094 262/1095
#fvcolorindex 4 4 4 
vt 0.184570 0.838867 0.0
vt 0.000000 0.000000 0.0
vt 0.184570 0.838867 0.0
v 30.000000 19.077768 477.821533
#joint 33
#vjoint 303
f 302/1096 262/1097 303/1098
#fvcolorindex 4 4 4 
vt 0.215332 1.018555 0.0
vt 0.184570 0.838867 0.0
vt 0.184570 0.838867 0.0
v -19.000000 30.077768 474.821533
#joint 33
#vjoint 304
f 304/1099 302/1100 303/1101
#fvcolorindex 4 4 4 
vt 0.215332 1.018555 0.0
vt 0.184570 0.838867 0.0
vt 0.215332 1.018555 0.0
v 19.000000 30.077768 474.821533
#joint 33
#vjoint 305
f 304/1102 303/1103 305/1104
#fvcolorindex 4 4 4 
vt 0.000000 0.000000 0.0
vt 0.215332 0.000000 0.0
vt 0.686035 0.000000 0.0
v 19.000000 30.077768 575.821533
#joint 33
#vjoint 306
f 304/1105 305/1106 306/1107
#fvcolorindex 4 4 4 
vt 0.000000 0.000000 0.0
vt 0.686035 0.000000 0.0
vt 0.686035 0.000000 0.0
v -19.000000 30.077768 575.821533
#joint 33
#vjoint 307
f 304/1108 306/1109 307/1110
#fvcolorindex 4 4 4 
vt 0.686035 0.000000 0.0
vt 0.686035 0.000000 0.0
vt 0.000000 0.000000 0.0
v 0.000000 30.077768 601.821533
#joint 33
#vjoint 308
f 307/1111 306/1112 308/1113
#fvcolorindex 4 4 4 
vt 1.168457 0.000000 0.0
vt 1.383301 0.000000 0.0
vt 1.383301 0.000000 0.0
v -19.000000 -33.922234 357.821533
#joint 33
#vjoint 309
f 309/1114 295/1115 294/1116
#fvcolorindex 4 4 4 
vt 1.168457 0.000000 0.0
vt 1.383301 0.000000 0.0
vt 1.168457 0.000000 0.0
v 19.000000 -33.922234 357.821533
#joint 33
#vjoint 310
f 309/1117 294/1118 310/1119
#fvcolorindex 4 4 4 
vt 0.626953 0.000000 0.0
vt 0.626953 0.000000 0.0
vt -0.090820 0.000000 0.0
f 291/1120 290/1121 294/1122
#fvcolorindex 4 4 4 
vt 0.626953 0.000000 0.0
vt -0.090820 0.000000 0.0
vt -0.090820 0.000000 0.0
f 291/1123 294/1124 295/1125
#fvcolorindex 4 4 4 
vt 1.543457 0.000000 0.0
vt 1.694824 0.000000 0.0
vt 1.694824 0.000000 0.0
v -30.000000 -33.922234 110.821533
#joint 33
#vjoint 311
v 30.000000 -33.922234 110.821533
#joint 33
#vjoint 312
f 288/1126 311/1127 312/1128
#fvcolorindex 4 4 4 
vt 1.543457 0.000000 0.0
vt 1.694824 0.000000 0.0
vt 1.543457 0.000000 0.0
f 288/1129 312/1130 289/1131
#fvcolorindex 4 4 4 
usemtl m10
vt 1.940430 0.000000 0.0
vt 1.948242 1.012695 0.0
vt 1.948242 1.012695 0.0
v -11.000000 105.077766 541.821533
#joint 33
#vjoint 313
f 313/1132 301/1133 300/1134
#fvcolorindex 4 4 4 
vt 1.940430 0.000000 0.0
vt 1.948242 1.012695 0.0
vt 1.940430 0.000000 0.0
v 11.000000 105.077766 541.821533
#joint 33
#vjoint 314
f 313/1135 300/1136 314/1137
#fvcolorindex 4 4 4 
usemtl m11
vt -0.186523 -0.087891 0.0
vt -0.181641 -0.239258 0.0
vt -0.210938 -0.240234 0.0
v -11.000000 -70.922234 384.821533
#joint 33
#vjoint 315
v -11.000000 -74.922234 312.821533
#joint 33
#vjoint 316
v 11.000000 -74.922234 312.821533
#joint 33
#vjoint 317
f 315/1138 316/1139 317/1140
#fvcolorindex 4 4 4 
vt -0.186523 -0.087891 0.0
vt -0.210938 -0.240234 0.0
vt -0.215820 -0.088867 0.0
v 11.000000 -70.922234 384.821533
#joint 33
#vjoint 318
f 315/1141 317/1142 318/1143
#fvcolorindex 4 4 4 
vt 0.000000 0.000000 0.0
vt 0.000000 0.000000 0.0
vt 0.000000 0.000000 0.0
v 15.000000 -33.922234 320.821533
#joint 33
#vjoint 319
f 316/1144 317/1145 319/1146
#fvcolorindex 4 4 4 
vt 0.000000 0.000000 0.0
vt 0.000000 0.000000 0.0
vt 0.000000 0.000000 0.0
v -15.000000 -33.922234 320.821533
#joint 33
#vjoint 320
f 316/1147 319/1148 320/1149
#fvcolorindex 4 4 4 
vt -0.283203 0.674805 0.0
vt -0.283203 0.674805 0.0
vt 0.201172 0.895508 0.0
v -15.000000 -156.922226 294.821533
#joint 33
#vjoint 321
v 15.000000 -156.922226 294.821533
#joint 33
#vjoint 322
f 321/1150 322/1151 317/1152
#fvcolorindex 4 4 4 
vt -0.283203 0.674805 0.0
vt 0.201172 0.895508 0.0
vt 0.201172 0.895508 0.0
f 321/1153 317/1154 316/1155
#fvcolorindex 4 4 4 
vt 1.077148 0.328125 0.0
vt 1.112305 0.269531 0.0
vt 0.951172 0.394531 0.0
v -30.000000 -63.922234 95.821533
#joint 33
#vjoint 323
v 30.000000 -63.922234 95.821533
#joint 33
#vjoint 324
f 323/1156 324/1157 312/1158
#fvcolorindex 4 4 4 
vt 1.077148 0.328125 0.0
vt 0.951172 0.394531 0.0
vt 0.881836 0.437500 0.0
f 323/1159 312/1160 311/1161
#fvcolorindex 4 4 4 
vt 0.000000 0.000000 0.0
vt 0.026367 0.377930 0.0
vt 1.112305 0.269531 0.0
v -30.000000 -48.922234 57.821533
#joint 33
#vjoint 325
v 30.000000 -48.922234 57.821533
#joint 33
#vjoint 326
f 325/1162 326/1163 324/1164
#fvcolorindex 4 4 4 
vt 0.000000 0.000000 0.0
vt 1.112305 0.269531 0.0
vt 1.077148 0.328125 0.0
f 325/1165 324/1166 323/1167
#fvcolorindex 4 4 4 
vt 0.671875 -0.333984 0.0
vt 0.671875 -0.333984 0.0
vt 0.280273 -0.244141 0.0
v -22.000000 -33.922234 661.821533
#joint 33
#vjoint 327
v 23.000000 -33.922234 661.821533
#joint 33
#vjoint 328
v 23.000000 -21.922232 740.821533
#joint 33
#vjoint 329
f 327/1168 328/1169 329/1170
#fvcolorindex 4 4 4 
vt 0.671875 -0.333984 0.0
vt 0.280273 -0.244141 0.0
vt 0.280273 -0.244141 0.0
v -22.000000 -21.922232 740.821533
#joint 33
#vjoint 330
f 327/1171 329/1172 330/1173
#fvcolorindex 4 4 4 
vt 0.000000 0.000000 0.0
vt 0.000000 0.000000 0.0
vt 0.000000 0.000000 0.0
v -30.000000 4.077768 601.821533
#joint 33
#vjoint 331
v 30.000000 4.077768 601.821533
#joint 33
#vjoint 332
v 30.000000 4.077768 661.821533
#joint 33
#vjoint 333
f 331/1174 332/1175 333/1176
#fvcolorindex 4 4 4 
vt 0.000000 0.000000 0.0
vt 0.000000 0.000000 0.0
vt 0.000000 0.000000 0.0
v -30.000000 4.077768 661.821533
#joint 33
#vjoint 334
f 331/1177 333/1178 334/1179
#fvcolorindex 4 4 4 
vt 0.000000 0.000000 0.0
vt 0.000000 0.000000 0.0
vt 0.000000 0.000000 0.0
v 0.000000 83.077766 740.821533
#joint 33
#vjoint 335
v -16.000000 76.077766 740.821533
#joint 33
#vjoint 336
v 16.000000 76.077766 740.821533
#joint 33
#vjoint 337
f 335/1180 336/1181 337/1182
#fvcolorindex 4 4 4 
vt 0.280273 0.758789 0.0
vt 0.280273 0.758789 0.0
vt 0.280273 0.596680 0.0
v -22.000000 60.077766 740.821533
#joint 33
#vjoint 338
f 337/1183 336/1184 338/1185
#fvcolorindex 4 4 4 
vt 0.280273 0.758789 0.0
vt 0.280273 0.596680 0.0
vt 0.280273 0.596680 0.0
v 23.000000 60.077766 740.821533
#joint 33
#vjoint 339
f 337/1186 338/1187 339/1188
#fvcolorindex 4 4 4 
vt 0.280273 0.291016 0.0
vt 0.280273 0.596680 0.0
vt 0.280273 0.596680 0.0
v 23.000000 30.077768 740.821533
#joint 33
#vjoint 340
f 340/1189 339/1190 338/1191
#fvcolorindex 4 4 4 
vt 0.280273 0.291016 0.0
vt 0.280273 0.596680 0.0
vt 0.000000 0.000000 0.0
v -22.000000 30.077768 740.821533
#joint 33
#vjoint 341
f 340/1192 338/1193 341/1194
#fvcolorindex 4 4 4 
vt 0.280273 -0.244141 0.0
vt 0.280273 -0.244141 0.0
vt 0.280273 0.291016 0.0
f 330/1195 329/1196 340/1197
#fvcolorindex 4 4 4 
vt 0.280273 -0.244141 0.0
vt 0.280273 0.291016 0.0
vt 0.280273 0.291016 0.0
f 330/1198 340/1199 341/1200
#fvcolorindex 4 4 4 
usemtl m16
vt 0.357422 0.507812 0.0
vt 0.522461 0.506836 0.0
vt 0.381836 0.592773 0.0
v -15.000000 60.077766 800.821533
#joint 33
#vjoint 342
v -0.126130 59.500000 798.273926
#joint 0
#vjoint 343
#vcolor 0.000000 0.000000 0.000000 255.000000
v -13.000000 68.077766 800.821533
#joint 33
#vjoint 344
f 342/1201 343/1202 344/1203
#fvcolorindex 4 5 4 
vt 0.663086 0.421875 0.0
vt 0.687500 0.505859 0.0
vt 0.522461 0.506836 0.0
v 13.000000 53.077766 800.821533
#joint 33
#vjoint 345
v 15.000000 60.077766 800.821533
#joint 33
#vjoint 346
f 345/1204 346/1205 343/1206
#fvcolorindex 4 4 5 
vt 0.443359 0.655273 0.0
vt 0.381836 0.592773 0.0
vt 0.522461 0.506836 0.0
v -7.000000 73.077766 800.821533
#joint 33
#vjoint 347
f 347/1207 344/1208 343/1209
#fvcolorindex 4 4 5 
usemtl m17
vt 0.522461 0.506836 0.0
vt 0.526367 0.677734 0.0
vt 0.443359 0.655273 0.0
v 0.000000 75.077766 800.821533
#joint 33
#vjoint 348
f 343/1210 348/1211 347/1212
#fvcolorindex 5 4 4 
usemtl m16
vt 0.608398 0.654297 0.0
vt 0.526367 0.677734 0.0
vt 0.522461 0.506836 0.0
v 8.000000 73.077766 800.821533
#joint 33
#vjoint 349
f 349/1213 348/1214 343/1215
#fvcolorindex 4 4 5 
usemtl m17
vt 0.522461 0.506836 0.0
vt 0.666992 0.591797 0.0
vt 0.608398 0.654297 0.0
v 13.000000 68.077766 800.821533
#joint 33
#vjoint 350
f 343/1216 350/1217 349/1218
#fvcolorindex 5 4 4 
usemtl m16
vt 0.687500 0.505859 0.0
vt 0.666992 0.591797 0.0
vt 0.522461 0.506836 0.0
f 346/1219 350/1220 343/1221
#fvcolorindex 4 4 5 
vt 0.600586 0.359375 0.0
vt 0.663086 0.421875 0.0
vt 0.522461 0.506836 0.0
v 8.000000 47.077766 800.821533
#joint 33
#vjoint 351
f 351/1222 345/1223 343/1224
#fvcolorindex 4 4 5 
vt 0.517578 0.336914 0.0
vt 0.600586 0.359375 0.0
vt 0.522461 0.506836 0.0
v 0.000000 45.077766 800.821533
#joint 33
#vjoint 352
f 352/1225 351/1226 343/1227
#fvcolorindex 4 4 5 
vt 0.436523 0.360352 0.0
vt 0.517578 0.336914 0.0
vt 0.522461 0.506836 0.0
v -7.000000 47.077766 800.821533
#joint 33
#vjoint 353
f 353/1228 352/1229 343/1230
#fvcolorindex 4 4 5 
vt 0.377930 0.422852 0.0
vt 0.436523 0.360352 0.0
vt 0.522461 0.506836 0.0
v -13.000000 53.077766 800.821533
#joint 33
#vjoint 354
f 354/1231 353/1232 343/1233
#fvcolorindex 4 4 5 
vt 0.357422 0.507812 0.0
vt 0.377930 0.422852 0.0
vt 0.522461 0.506836 0.0
f 342/1234 354/1235 343/1236
#fvcolorindex 4 4 5 
g Room30
g Room30_primary
usemtl m5
vt 1.249023 0.000000 0.0
vt 1.249023 0.136719 0.0
vt -3.119141 0.136719 0.0
v 253.874985 -67.276344 399.264404
#joint 40
#vjoint 355
#vcolor 254.000000 254.000000 254.000000 255.000000
v 250.874985 -67.276344 399.264404
#joint 40
#vjoint 356
v 250.874985 -37.276344 492.264404
#joint 40
#vjoint 357
f 355/1237 356/1238 357/1239
#fvcolorindex 6 6 6 
vt 1.249023 0.000000 0.0
vt -3.119141 0.136719 0.0
vt -3.119141 0.000000 0.0
v 253.874985 -37.276344 492.264404
#joint 40
#vjoint 358
f 355/1240 357/1241 358/1242
#fvcolorindex 6 6 6 
vt 1.584961 0.166992 0.0
vt 1.584961 0.304688 0.0
vt 1.249023 0.136719 0.0
v 249.874985 -69.276344 392.264404
#joint 40
#vjoint 359
v 246.874985 -69.276344 392.264404
#joint 40
#vjoint 360
f 359/1243 360/1244 356/1245
#fvcolorindex 6 6 6 
vt 1.584961 0.166992 0.0
vt 1.249023 0.136719 0.0
vt 1.249023 0.000000 0.0
f 359/1246 356/1247 355/1248
#fvcolorindex 6 6 6 
vt -0.612305 0.148438 0.0
vt -0.612305 0.000000 0.0
vt 4.125000 0.000000 0.0
v 226.874985 -67.276344 399.264404
#joint 40
#vjoint 361
v 223.874985 -67.276344 399.264404
#joint 40
#vjoint 362
v 223.874985 -37.276344 492.264404
#joint 40
#vjoint 363
f 361/1249 362/1250 363/1251
#fvcolorindex 6 6 6 
vt -0.612305 0.148438 0.0
vt 4.125000 0.000000 0.0
vt 4.125000 0.148438 0.0
v 226.874985 -37.276344 492.264404
#joint 40
#vjoint 364
f 361/1252 363/1253 364/1254
#fvcolorindex 6 6 6 
vt -0.976562 0.330078 0.0
vt -0.976562 0.181641 0.0
vt -0.612305 0.000000 0.0
v 230.874985 -69.276344 392.264404
#joint 40
#vjoint 365
v 227.874985 -69.276344 392.264404
#joint 40
#vjoint 366
f 365/1255 366/1256 362/1257
#fvcolorindex 6 6 6 
vt -0.976562 0.330078 0.0
vt -0.612305 0.000000 0.0
vt -0.612305 0.148438 0.0
f 365/1258 362/1259 361/1260
#fvcolorindex 6 6 6 
usemtl m8
vt 1.000000 0.980469 0.0
vt -0.250000 0.900391 0.0
vt -0.250000 0.250977 0.0
v 253.874985 -99.276344 519.264404
#joint 40
#vjoint 367
f 355/1261 358/1262 367/1263
#fvcolorindex 6 6 6 
vt 1.000000 0.980469 0.0
vt -0.250000 0.250977 0.0
vt 0.999023 0.136719 0.0
v 253.874985 -148.276352 433.264404
#joint 40
#vjoint 368
f 355/1264 367/1265 368/1266
#fvcolorindex 6 6 6 
vt 1.095703 0.172852 0.0
vt 1.095703 0.987305 0.0
vt 1.000000 0.980469 0.0
v 249.874985 -147.276352 425.264404
#joint 40
#vjoint 369
f 369/1267 359/1268 355/1269
#fvcolorindex 6 6 6 
vt 1.095703 0.172852 0.0
vt 1.000000 0.980469 0.0
vt 0.999023 0.136719 0.0
f 369/1270 355/1271 368/1272
#fvcolorindex 6 6 6 
vt 1.095703 0.987305 0.0
vt 1.095703 0.172852 0.0
vt 1.095703 0.172852 0.0
v 227.874985 -147.276352 425.264404
#joint 40
#vjoint 370
f 359/1273 369/1274 370/1275
#fvcolorindex 6 6 6 
vt 1.095703 0.987305 0.0
vt 1.095703 0.172852 0.0
vt 1.095703 0.987305 0.0
f 359/1276 370/1277 366/1278
#fvcolorindex 6 6 6 
vt 1.095703 0.987305 0.0
vt 1.095703 0.172852 0.0
vt 0.999023 0.136719 0.0
v 223.874985 -148.276352 433.264404
#joint 40
#vjoint 371
f 366/1279 370/1280 371/1281
#fvcolorindex 6 6 6 
vt 1.095703 0.987305 0.0
vt 0.999023 0.136719 0.0
vt 1.000000 0.980469 0.0
f 366/1282 371/1283 362/1284
#fvcolorindex 6 6 6 
vt 1.000000 0.980469 0.0
vt 0.999023 0.136719 0.0
vt -0.250000 0.250977 0.0
v 223.874985 -99.276344 519.264404
#joint 40
#vjoint 372
f 362/1285 371/1286 372/1287
#fvcolorindex 6 6 6 
vt 1.000000 0.980469 0.0
vt -0.250000 0.250977 0.0
vt -0.250000 0.900391 0.0
f 362/1288 372/1289 363/1290
#fvcolorindex 6 6 6 
vt 1.000000 0.980469 0.0
vt 1.000000 0.589844 0.0
vt -0.250000 0.509766 0.0
v 226.874985 -29.276346 383.264404
#joint 40
#vjoint 373
f 373/1291 361/1292 364/1293
#fvcolorindex 6 6 6 
vt 1.000000 0.980469 0.0
vt -0.250000 0.509766 0.0
vt -0.250000 0.900391 0.0
v 226.874985 0.723654 476.264404
#joint 40
#vjoint 374
f 373/1294 364/1295 374/1296
#fvcolorindex 6 6 6 
vt 1.095703 0.987305 0.0
vt 1.095703 0.596680 0.0
vt 1.000000 0.589844 0.0
v 230.874985 -31.276346 375.264404
#joint 40
#vjoint 375
f 375/1297 365/1298 361/1299
#fvcolorindex 6 6 6 
vt 1.095703 0.987305 0.0
vt 1.000000 0.589844 0.0
vt 1.000000 0.980469 0.0
f 375/1300 361/1301 373/1302
#fvcolorindex 6 6 6 
vt 1.095703 0.987305 0.0
vt 1.095703 0.596680 0.0
vt 1.095703 0.596680 0.0
v 246.874985 -31.276346 375.264404
#joint 40
#vjoint 376
f 376/1303 360/1304 365/1305
#fvcolorindex 6 6 6 
vt 1.095703 0.987305 0.0
vt 1.095703 0.596680 0.0
vt 1.095703 0.987305 0.0
f 376/1306 365/1307 375/1308
#fvcolorindex 6 6 6 
vt 1.095703 0.596680 0.0
vt 1.095703 0.987305 0.0
vt 1.000000 0.980469 0.0
v 250.874985 -29.276346 383.264404
#joint 40
#vjoint 377
f 360/1309 376/1310 377/1311
#fvcolorindex 6 6 6 
vt 1.095703 0.596680 0.0
vt 1.000000 0.980469 0.0
vt 1.000000 0.589844 0.0
f 360/1312 377/1313 356/1314
#fvcolorindex 6 6 6 
vt 1.000000 0.980469 0.0
vt -0.250000 0.900391 0.0
vt -0.250000 0.509766 0.0
v 250.874985 0.723654 476.264404
#joint 40
#vjoint 378
f 377/1315 378/1316 357/1317
#fvcolorindex 6 6 6 
vt 1.000000 0.980469 0.0
vt -0.250000 0.509766 0.0
vt 1.000000 0.589844 0.0
f 377/1318 357/1319 356/1320
#fvcolorindex 6 6 6 
usemtl m14MirrorS
vt 1.000000 0.000000 0.0
vt 1.000000 1.000000 0.0
vt 0.000000 1.000000 0.0
f 377/1321 373/1322 374/1323
#fvcolorindex 6 6 6 
vt 1.000000 0.000000 0.0
vt 0.000000 1.000000 0.0
vt 0.000000 0.000000 0.0
f 377/1324 374/1325 378/1326
#fvcolorindex 6 6 6 
vt 1.077148 0.157227 0.0
vt 1.077148 0.842773 0.0
vt 1.000000 1.000000 0.0
f 376/1327 375/1328 373/1329
#fvcolorindex 6 6 6 
vt 1.077148 0.157227 0.0
vt 1.000000 1.000000 0.0
vt 1.000000 0.000000 0.0
f 376/1330 373/1331 377/1332
#fvcolorindex 6 6 6 
g Room32
g Room32_primary
usemtl m5
vt 1.249023 0.000000 0.0
vt 1.249023 0.136719 0.0
vt -3.119141 0.136719 0.0
v 15.000000 -67.276352 399.264435
#joint 39
#vjoint 379
#vcolor 254.000000 254.000000 254.000000 255.000000
v 12.000000 -67.276352 399.264435
#joint 39
#vjoint 380
v 12.000000 -37.276348 492.264435
#joint 39
#vjoint 381
f 379/1333 380/1334 381/1335
#fvcolorindex 7 7 7 
vt 1.249023 0.000000 0.0
vt -3.119141 0.136719 0.0
vt -3.119141 0.000000 0.0
v 15.000000 -37.276348 492.264435
#joint 39
#vjoint 382
f 379/1336 381/1337 382/1338
#fvcolorindex 7 7 7 
vt 1.584961 0.166992 0.0
vt 1.584961 0.304688 0.0
vt 1.249023 0.136719 0.0
v 11.000000 -69.276352 392.264435
#joint 39
#vjoint 383
v 8.000000 -69.276352 392.264435
#joint 39
#vjoint 384
f 383/1339 384/1340 380/1341
#fvcolorindex 7 7 7 
vt 1.584961 0.166992 0.0
vt 1.249023 0.136719 0.0
vt 1.249023 0.000000 0.0
f 383/1342 380/1343 379/1344
#fvcolorindex 7 7 7 
vt -0.612305 0.148438 0.0
vt -0.612305 0.000000 0.0
vt 4.125000 0.000000 0.0
v -12.000000 -67.276352 399.264435
#joint 39
#vjoint 385
v -15.000000 -67.276352 399.264435
#joint 39
#vjoint 386
v -15.000000 -37.276348 492.264435
#joint 39
#vjoint 387
f 385/1345 386/1346 387/1347
#fvcolorindex 7 7 7 
vt -0.612305 0.148438 0.0
vt 4.125000 0.000000 0.0
vt 4.125000 0.148438 0.0
v -12.000000 -37.276348 492.264435
#joint 39
#vjoint 388
f 385/1348 387/1349 388/1350
#fvcolorindex 7 7 7 
vt -0.976562 0.330078 0.0
vt -0.976562 0.181641 0.0
vt -0.612305 0.000000 0.0
v -8.000000 -69.276352 392.264435
#joint 39
#vjoint 389
v -11.000000 -69.276352 392.264435
#joint 39
#vjoint 390
f 389/1351 390/1352 386/1353
#fvcolorindex 7 7 7 
vt -0.976562 0.330078 0.0
vt -0.612305 0.000000 0.0
vt -0.612305 0.148438 0.0
f 389/1354 386/1355 385/1356
#fvcolorindex 7 7 7 
usemtl m8
vt 1.000000 0.980469 0.0
vt -0.250000 0.900391 0.0
vt -0.250000 0.250977 0.0
v 15.000000 -99.276352 519.264404
#joint 39
#vjoint 391
f 379/1357 382/1358 391/1359
#fvcolorindex 7 7 7 
vt 1.000000 0.980469 0.0
vt -0.250000 0.250977 0.0
vt 0.999023 0.136719 0.0
v 15.000000 -148.276352 433.264435
#joint 39
#vjoint 392
f 379/1360 391/1361 392/1362
#fvcolorindex 7 7 7 
vt 1.095703 0.172852 0.0
vt 1.095703 0.987305 0.0
vt 1.000000 0.980469 0.0
v 11.000000 -147.276352 425.264435
#joint 39
#vjoint 393
f 393/1363 383/1364 379/1365
#fvcolorindex 7 7 7 
vt 1.095703 0.172852 0.0
vt 1.000000 0.980469 0.0
vt 0.999023 0.136719 0.0
f 393/1366 379/1367 392/1368
#fvcolorindex 7 7 7 
vt 1.095703 0.987305 0.0
vt 1.095703 0.172852 0.0
vt 1.095703 0.172852 0.0
v -11.000000 -147.276352 425.264435
#joint 39
#vjoint 394
f 383/1369 393/1370 394/1371
#fvcolorindex 7 7 7 
vt 1.095703 0.987305 0.0
vt 1.095703 0.172852 0.0
vt 1.095703 0.987305 0.0
f 383/1372 394/1373 390/1374
#fvcolorindex 7 7 7 
vt 1.095703 0.987305 0.0
vt 1.095703 0.172852 0.0
vt 0.999023 0.136719 0.0
v -15.000000 -148.276352 433.264435
#joint 39
#vjoint 395
f 390/1375 394/1376 395/1377
#fvcolorindex 7 7 7 
vt 1.095703 0.987305 0.0
vt 0.999023 0.136719 0.0
vt 1.000000 0.980469 0.0
f 390/1378 395/1379 386/1380
#fvcolorindex 7 7 7 
vt 1.000000 0.980469 0.0
vt 0.999023 0.136719 0.0
vt -0.250000 0.250977 0.0
v -15.000000 -99.276352 519.264404
#joint 39
#vjoint 396
f 386/1381 395/1382 396/1383
#fvcolorindex 7 7 7 
vt 1.000000 0.980469 0.0
vt -0.250000 0.250977 0.0
vt -0.250000 0.900391 0.0
f 386/1384 396/1385 387/1386
#fvcolorindex 7 7 7 
vt 1.000000 0.980469 0.0
vt 1.000000 0.589844 0.0
vt -0.250000 0.509766 0.0
v -12.000000 -29.276348 383.264435
#joint 39
#vjoint 397
f 397/1387 385/1388 388/1389
#fvcolorindex 7 7 7 
vt 1.000000 0.980469 0.0
vt -0.250000 0.509766 0.0
vt -0.250000 0.900391 0.0
v -12.000000 0.723652 476.264435
#joint 39
#vjoint 398
f 397/1390 388/1391 398/1392
#fvcolorindex 7 7 7 
vt 1.095703 0.987305 0.0
vt 1.095703 0.596680 0.0
vt 1.000000 0.589844 0.0
v -8.000000 -31.276348 375.264435
#joint 39
#vjoint 399
f 399/1393 389/1394 385/1395
#fvcolorindex 7 7 7 
vt 1.095703 0.987305 0.0
vt 1.000000 0.589844 0.0
vt 1.000000 0.980469 0.0
f 399/1396 385/1397 397/1398
#fvcolorindex 7 7 7 
vt 1.095703 0.987305 0.0
vt 1.095703 0.596680 0.0
vt 1.095703 0.596680 0.0
v 8.000000 -31.276348 375.264435
#joint 39
#vjoint 400
f 400/1399 384/1400 389/1401
#fvcolorindex 7 7 7 
vt 1.095703 0.987305 0.0
vt 1.095703 0.596680 0.0
vt 1.095703 0.987305 0.0
f 400/1402 389/1403 399/1404
#fvcolorindex 7 7 7 
vt 1.095703 0.596680 0.0
vt 1.095703 0.987305 0.0
vt 1.000000 0.980469 0.0
v 12.000000 -29.276348 383.264435
#joint 39
#vjoint 401
f 384/1405 400/1406 401/1407
#fvcolorindex 7 7 7 
vt 1.095703 0.596680 0.0
vt 1.000000 0.980469 0.0
vt 1.000000 0.589844 0.0
f 384/1408 401/1409 380/1410
#fvcolorindex 7 7 7 
vt 1.000000 0.980469 0.0
vt -0.250000 0.900391 0.0
vt -0.250000 0.509766 0.0
v 12.000000 0.723652 476.264435
#joint 39
#vjoint 402
f 401/1411 402/1412 381/1413
#fvcolorindex 7 7 7 
vt 1.000000 0.980469 0.0
vt -0.250000 0.509766 0.0
vt 1.000000 0.589844 0.0
f 401/1414 381/1415 380/1416
#fvcolorindex 7 7 7 
usemtl m14MirrorS
vt 1.000000 0.000000 0.0
vt 1.000000 1.000000 0.0
vt 0.000000 1.000000 0.0
f 401/1417 397/1418 398/1419
#fvcolorindex 7 7 7 
vt 1.000000 0.000000 0.0
vt 0.000000 1.000000 0.0
vt 0.000000 0.000000 0.0
f 401/1420 398/1421 402/1422
#fvcolorindex 7 7 7 
vt 1.077148 0.157227 0.0
vt 1.077148 0.842773 0.0
vt 1.000000 1.000000 0.0
f 400/1423 399/1424 397/1425
#fvcolorindex 7 7 7 
vt 1.077148 0.157227 0.0
vt 1.000000 1.000000 0.0
vt 1.000000 0.000000 0.0
f 400/1426 397/1427 401/1428
#fvcolorindex 7 7 7 
