# Created by SubDrag and the GoldenEye Setup Editor V4.4
mtllib Gun0006.mtl
#joint 0
#jointposition 0.000000 -20.375574 -74.143860
#joint 1
#jointposition -0.126130 -34.500000 -403.726105
#joint 2
#jointposition 0.000000 -20.375574 -74.143860
#joint 3
#jointposition 28.404760 -54.346611 -32.664295
#joint 4
#jointposition 50.075203 -78.841194 -10.664248
#joint 5
#jointposition 28.643808 -16.714527 20.778549
#joint 6
#jointposition 26.518341 -24.155291 60.154758
#joint 7
#jointposition 24.862719 -25.637974 87.085503
#joint 8
#jointposition 8.820322 -11.296313 21.695198
#joint 9
#jointposition 8.668717 -23.348385 71.418152
#joint 10
#jointposition 7.570724 -26.182207 98.349426
#joint 11
#jointposition -7.449821 -15.536673 21.601517
#joint 12
#jointposition -6.777197 -21.532187 62.353848
#joint 13
#jointposition -6.290760 -23.494061 85.077034
#joint 14
#jointposition -23.590879 -23.057791 21.828247
#joint 15
#jointposition -21.894306 -25.130569 56.929543
#joint 16
#jointposition -20.740978 -24.727604 74.077179
#joint 17
#jointposition 234.474915 -34.500000 -403.725983
#joint 18
#jointposition 234.348785 -20.375599 -74.143890
#joint 19
#jointposition 205.943985 -54.346600 -32.664291
#joint 20
#jointposition 184.273590 -78.841202 -10.664192
#joint 21
#jointposition 205.704987 -16.714600 20.778511
#joint 22
#jointposition 207.830490 -24.155300 60.154812
#joint 23
#jointposition 209.561584 -25.811800 87.094810
#joint 24
#jointposition 225.528473 -11.296299 21.695213
#joint 25
#jointposition 225.680069 -23.348400 71.418114
#joint 26
#jointposition 226.778076 -26.182199 98.349411
#joint 27
#jointposition 241.798599 -15.536699 21.601509
#joint 28
#jointposition 241.125977 -21.532200 62.353809
#joint 29
#jointposition 240.639542 -23.494101 85.077011
#joint 30
#jointposition 257.939697 -23.057798 21.828209
#joint 31
#jointposition 256.243103 -25.130598 56.929508
#joint 32
#jointposition 255.089798 -24.727598 74.077209
#joint 33
#jointposition 0.000000 10.675806 -17.152817
#joint 34
#jointposition 0.000000 98.000778 -7.328591
#joint 35
#jointposition 0.000000 13.307131 188.819382
#joint 36
#jointposition 0.000000 13.290338 240.000000
#joint 37
#jointposition 0.000000 -17.068895 120.000000
#joint 38
#jointposition 99.569885 -62.235142 108.474228
#connection 0 1
#connection 1 2
#connection 2 3
#connection 3 4
#connection 2 5
#connection 5 6
#connection 6 7
#connection 2 8
#connection 8 9
#connection 9 10
#connection 2 11
#connection 11 12
#connection 12 13
#connection 2 14
#connection 14 15
#connection 15 16
#connection 2 33
#connection 33 34
#connection 33 35
#connection 35 36
#connection 33 37
#connection 0 17
#connection 17 18
#connection 18 19
#connection 19 20
#connection 18 21
#connection 21 22
#connection 22 23
#connection 18 24
#connection 24 25
#connection 25 26
#connection 18 27
#connection 27 28
#connection 28 29
#connection 18 30
#connection 30 31
#connection 31 32
#connection 18 38
g Room02
g Room02_primary
usemtl m0CullBoth
vt 0.158203 -2.325195 0.0
vt 0.232422 -3.011719 0.0
vt 0.306641 -2.325195 0.0
v 105.569885 -266.235138 37.474228
#joint 38
#vjoint 1
#vcolor 39.000000 39.000000 39.000000 255.000000
v 99.569885 -322.235138 35.474228
#joint 38
#vjoint 2
v 92.569885 -266.235138 37.474228
#joint 38
#vjoint 3
f 1/1 2/2 3/3
#fvcolorindex 1 1 1 
vt -0.091797 0.000000 0.0
vt 0.158203 -2.325195 0.0
vt 0.306641 -2.325195 0.0
v 125.569885 -74.235138 46.474228
#joint 38
#vjoint 4
f 4/4 1/5 3/6
#fvcolorindex 1 1 1 
vt -0.091797 0.000000 0.0
vt 0.306641 -2.325195 0.0
vt 0.556641 0.000000 0.0
v 72.569885 -74.235138 46.474228
#joint 38
#vjoint 5
f 4/7 3/8 5/9
#fvcolorindex 1 1 1 
usemtl m1CullBoth
vt 1.994141 -0.153320 0.0
vt 3.134766 0.058594 0.0
vt -0.759766 -0.116211 0.0
#vcolor 255.000000 255.000000 255.000000 255.000000
v 111.569885 -40.235142 0.474228
#joint 38
#vjoint 6
#vcolor 42.000000 42.000000 42.000000 255.000000
v 118.569885 -72.235138 158.474228
#joint 38
#vjoint 7
f 4/10 6/11 7/12
#fvcolorindex 2 3 3 
vt 2.019531 -1.034180 0.0
vt -0.734375 -0.997070 0.0
vt -0.353516 -1.783203 0.0
v 106.569885 -192.235138 138.474228
#joint 38
#vjoint 8
f 4/13 7/14 8/15
#fvcolorindex 2 3 2 
vt 2.019531 -1.034180 0.0
vt -0.353516 -1.783203 0.0
vt 2.070312 -2.284180 0.0
f 4/16 8/17 1/18
#fvcolorindex 2 2 2 
vt -0.740234 -0.265625 0.0
vt -0.767578 -0.728516 0.0
vt 0.224609 -0.623047 0.0
v 86.569885 -40.235142 0.474228
#joint 38
#vjoint 9
f 4/19 5/20 9/21
#fvcolorindex 2 2 3 
vt -0.740234 -0.265625 0.0
vt 0.224609 -0.623047 0.0
vt 0.238281 -0.400391 0.0
f 4/22 9/23 6/24
#fvcolorindex 2 3 3 
usemtl m2CullBoth
vt -0.759766 -0.116211 0.0
vt 3.134766 0.058594 0.0
vt 1.994141 -0.153320 0.0
v 79.569885 -72.235138 158.474228
#joint 38
#vjoint 10
f 10/25 9/26 5/27
#fvcolorindex 3 3 2 
usemtl m1CullBoth
vt -0.353516 -1.783203 0.0
vt -0.734375 -0.997070 0.0
vt 2.019531 -1.034180 0.0
v 91.569885 -192.235138 138.474228
#joint 38
#vjoint 11
f 11/28 10/29 5/30
#fvcolorindex 2 3 2 
vt 2.070312 -2.284180 0.0
vt -0.353516 -1.783203 0.0
vt 2.019531 -1.034180 0.0
f 3/31 11/32 5/33
#fvcolorindex 2 2 2 
usemtl m3CullBoth
vt -0.039062 0.121094 0.0
vt 3.616211 0.039062 0.0
vt 0.382812 0.604492 0.0
v 99.569885 -196.235138 170.474228
#joint 38
#vjoint 12
f 12/34 2/35 8/36
#fvcolorindex 2 2 2 
vt 3.616211 0.039062 0.0
vt 2.837891 0.847656 0.0
vt 0.382812 0.604492 0.0
f 2/37 1/38 8/39
#fvcolorindex 2 2 2 
usemtl m4CullBoth
vt -0.011719 0.899414 0.0
vt -0.323242 0.000000 0.0
vt 2.588867 0.680664 0.0
#vcolor 122.000000 122.000000 122.000000 255.000000
v 99.569885 -70.235138 204.474228
#joint 38
#vjoint 13
f 7/40 13/41 8/42
#fvcolorindex 4 4 2 
vt -0.323242 0.000000 0.0
vt 2.493164 0.000000 0.0
vt 2.588867 0.680664 0.0
f 13/43 12/44 8/45
#fvcolorindex 4 2 2 
usemtl m3CullBoth
vt 2.588867 0.680664 0.0
vt 2.493164 0.000000 0.0
vt -0.323242 0.000000 0.0
f 11/46 12/47 13/48
#fvcolorindex 2 2 2 
vt 2.588867 0.680664 0.0
vt -0.323242 0.000000 0.0
vt -0.011719 0.899414 0.0
f 11/49 13/50 10/51
#fvcolorindex 2 2 2 
vt 0.389648 0.564453 0.0
vt 2.843750 0.814453 0.0
vt 3.616211 0.039062 0.0
f 11/52 3/53 2/54
#fvcolorindex 2 2 2 
vt 0.389648 0.564453 0.0
vt 3.616211 0.039062 0.0
vt -0.039062 0.121094 0.0
f 11/55 2/56 12/57
#fvcolorindex 2 2 2 
usemtl m5TransparentCullBothEnvMappingClampSClampTTexScaleS0.052735TexScaleT0.052735
vt 0.000000 0.000000 0.0
vt 0.000000 0.000000 0.0
vt 0.000000 0.000000 0.0
#vcolor 7.000000 169.000000 164.000000 255.000000
#vcolor 0.000000 148.000000 191.000000 255.000000
#vcolor 249.000000 169.000000 164.000000 255.000000
vn 0.055118 1.330709 1.291339
vn 0.000000 1.165354 1.503937
vn 1.960630 1.330709 1.291339
f 1/58/1 2/59/2 3/60/3
#fvcolorindex 5 6 7 
usemtl m6TransparentCullBothEnvMappingClampSClampTTexScaleS0.052735TexScaleT0.052735
vt 0.000000 0.000000 0.0
vt 0.000000 0.000000 0.0
vt 0.000000 0.000000 0.0
#vcolor 24.000000 110.000000 199.000000 255.000000
vn 0.188976 0.866142 1.566929
vn 0.055118 1.330709 1.291339
vn 1.960630 1.330709 1.291339
f 4/61/4 1/62/5 3/63/6
#fvcolorindex 8 5 7 
vt 0.000000 0.000000 0.0
vt 0.000000 0.000000 0.0
vt 0.000000 0.000000 0.0
#vcolor 232.000000 110.000000 199.000000 255.000000
vn 0.188976 0.866142 1.566929
vn 1.960630 1.330709 1.291339
vn 1.826772 0.866142 1.566929
f 4/64/7 3/65/8 5/66/9
#fvcolorindex 8 7 9 
usemtl m7TransparentCullBothEnvMappingClampSClampTTexScaleS0.052735TexScaleT0.052735
vt 0.000000 0.000000 0.0
vt 0.000000 0.000000 0.0
vt 0.000000 0.000000 0.0
#vcolor 18.000000 117.000000 45.000000 255.000000
#vcolor 0.000000 102.000000 75.000000 255.000000
#vcolor 32.000000 19.000000 121.000000 255.000000
vn 0.141732 0.921260 0.354331
vn 0.000000 0.803150 0.590551
vn 0.251969 0.149606 0.952756
f 7/67/10 13/68/11 8/69/12
#fvcolorindex 10 11 12 
usemtl m8TransparentCullBothEnvMappingClampSClampTTexScaleS0.052735TexScaleT0.052735
vt 0.000000 0.000000 0.0
vt 0.000000 0.000000 0.0
vt 0.000000 0.000000 0.0
#vcolor 0.000000 2.000000 126.000000 255.000000
vn 0.000000 0.803150 0.590551
vn 0.000000 0.015748 0.992126
vn 0.251969 0.149606 0.952756
f 13/70/13 12/71/14 8/72/15
#fvcolorindex 11 13 12 
usemtl m9TransparentCullBothEnvMappingClampSClampTTexScaleS0.052735TexScaleT0.052735
vt 0.000000 0.000000 0.0
vt 0.000000 0.000000 0.0
vt 0.000000 0.000000 0.0
#vcolor 224.000000 19.000000 121.000000 255.000000
vn 1.763780 0.149606 0.952756
vn 0.000000 0.015748 0.992126
vn 0.000000 0.803150 0.590551
f 11/73/16 12/74/17 13/75/18
#fvcolorindex 14 13 11 
vt 0.000000 0.000000 0.0
vt 0.000000 0.000000 0.0
vt 0.000000 0.000000 0.0
#vcolor 238.000000 117.000000 45.000000 255.000000
vn 1.763780 0.149606 0.952756
vn 0.000000 0.803150 0.590551
vn 1.874016 0.921260 0.354331
f 11/76/19 13/77/20 10/78/21
#fvcolorindex 14 11 15 
usemtl m10TransparentCullBothEnvMappingClampSClampTTexScaleS0.052735TexScaleT0.052735
vt 0.000000 0.000000 0.0
vt 0.000000 0.000000 0.0
vt 0.000000 0.000000 0.0
vn 0.000000 0.015748 0.992126
vn 0.000000 1.165354 1.503937
vn 0.251969 0.149606 0.952756
f 12/79/22 2/80/23 8/81/24
#fvcolorindex 13 6 12 
usemtl m11TransparentCullBothEnvMappingClampSClampTTexScaleS0.052735TexScaleT0.052735
vt 0.000000 0.000000 0.0
vt 0.000000 0.000000 0.0
vt 0.000000 0.000000 0.0
vn 0.000000 1.165354 1.503937
vn 0.055118 1.330709 1.291339
vn 0.251969 0.149606 0.952756
f 2/82/25 1/83/26 8/84/27
#fvcolorindex 6 5 12 
usemtl m9TransparentCullBothEnvMappingClampSClampTTexScaleS0.052735TexScaleT0.052735
vt 0.000000 0.000000 0.0
vt 0.000000 0.000000 0.0
vt 0.000000 0.000000 0.0
vn 1.763780 0.149606 0.952756
vn 1.960630 1.330709 1.291339
vn 0.000000 1.165354 1.503937
f 11/85/28 3/86/29 2/87/30
#fvcolorindex 14 7 6 
vt 0.000000 0.000000 0.0
vt 0.000000 0.000000 0.0
vt 0.000000 0.000000 0.0
vn 1.763780 0.149606 0.952756
vn 0.000000 1.165354 1.503937
vn 0.000000 0.015748 0.992126
f 11/88/31 2/89/32 12/90/33
#fvcolorindex 14 6 13 
g Room04
g Room04_primary
usemtl m0CullBoth
vt 0.158203 -2.325195 0.0
vt 0.232422 -3.011719 0.0
vt 0.306641 -2.325195 0.0
v 6.000000 -221.068893 49.000000
#joint 37
#vjoint 14
#vcolor 39.000000 39.000000 39.000000 255.000000
v 0.000000 -277.068909 46.000000
#joint 37
#vjoint 15
v -6.000000 -221.068893 49.000000
#joint 37
#vjoint 16
f 14/91 15/92 16/93
#fvcolorindex 16 16 16 
vt -0.091797 0.000000 0.0
vt 0.158203 -2.325195 0.0
vt 0.306641 -2.325195 0.0
v 27.000000 -29.068895 57.000000
#joint 37
#vjoint 17
f 17/94 14/95 16/96
#fvcolorindex 16 16 16 
vt -0.091797 0.000000 0.0
vt 0.306641 -2.325195 0.0
vt 0.556641 0.000000 0.0
v -27.000000 -29.068895 57.000000
#joint 37
#vjoint 18
f 17/97 16/98 18/99
#fvcolorindex 16 16 16 
usemtl m1CullBoth
vt 1.994141 -0.153320 0.0
vt 3.134766 0.058594 0.0
vt -0.759766 -0.116211 0.0
#vcolor 255.000000 255.000000 255.000000 255.000000
v 13.000000 4.931105 12.000000
#joint 37
#vjoint 19
#vcolor 42.000000 42.000000 42.000000 255.000000
v 19.000000 -27.068895 170.000000
#joint 37
#vjoint 20
f 17/100 19/101 20/102
#fvcolorindex 17 18 18 
vt 2.019531 -1.034180 0.0
vt -0.734375 -0.997070 0.0
vt -0.353516 -1.783203 0.0
v 8.000000 -147.068893 150.000000
#joint 37
#vjoint 21
f 17/103 20/104 21/105
#fvcolorindex 17 18 17 
vt 2.019531 -1.034180 0.0
vt -0.353516 -1.783203 0.0
vt 2.070312 -2.284180 0.0
f 17/106 21/107 14/108
#fvcolorindex 17 17 17 
vt -0.740234 -0.265625 0.0
vt -0.767578 -0.728516 0.0
vt 0.224609 -0.623047 0.0
v -13.000000 4.931105 12.000000
#joint 37
#vjoint 22
f 17/109 18/110 22/111
#fvcolorindex 17 17 18 
vt -0.740234 -0.265625 0.0
vt 0.224609 -0.623047 0.0
vt 0.238281 -0.400391 0.0
f 17/112 22/113 19/114
#fvcolorindex 17 18 18 
usemtl m2CullBoth
vt -0.759766 -0.116211 0.0
vt 3.134766 0.058594 0.0
vt 1.994141 -0.153320 0.0
v -19.000000 -27.068895 170.000000
#joint 37
#vjoint 23
f 23/115 22/116 18/117
#fvcolorindex 18 18 17 
usemtl m1CullBoth
vt -0.353516 -1.783203 0.0
vt -0.734375 -0.997070 0.0
vt 2.019531 -1.034180 0.0
v -8.000000 -147.068893 150.000000
#joint 37
#vjoint 24
f 24/118 23/119 18/120
#fvcolorindex 17 18 17 
vt 2.070312 -2.284180 0.0
vt -0.353516 -1.783203 0.0
vt 2.019531 -1.034180 0.0
f 16/121 24/122 18/123
#fvcolorindex 17 17 17 
usemtl m3CullBoth
vt -0.039062 0.121094 0.0
vt 3.616211 0.039062 0.0
vt 0.382812 0.604492 0.0
v 0.000000 -151.068893 182.000000
#joint 37
#vjoint 25
f 25/124 15/125 21/126
#fvcolorindex 17 17 17 
vt 3.616211 0.039062 0.0
vt 2.837891 0.847656 0.0
vt 0.382812 0.604492 0.0
f 15/127 14/128 21/129
#fvcolorindex 17 17 17 
usemtl m4CullBoth
vt -0.011719 0.899414 0.0
vt -0.323242 0.000000 0.0
vt 2.588867 0.680664 0.0
#vcolor 122.000000 122.000000 122.000000 255.000000
v 0.000000 -25.068895 216.000000
#joint 37
#vjoint 26
f 20/130 26/131 21/132
#fvcolorindex 19 19 17 
vt -0.323242 0.000000 0.0
vt 2.493164 0.000000 0.0
vt 2.588867 0.680664 0.0
f 26/133 25/134 21/135
#fvcolorindex 19 17 17 
usemtl m3CullBoth
vt 2.588867 0.680664 0.0
vt 2.493164 0.000000 0.0
vt -0.323242 0.000000 0.0
f 24/136 25/137 26/138
#fvcolorindex 17 17 17 
vt 2.588867 0.680664 0.0
vt -0.323242 0.000000 0.0
vt -0.011719 0.899414 0.0
f 24/139 26/140 23/141
#fvcolorindex 17 17 17 
vt 0.389648 0.564453 0.0
vt 2.843750 0.814453 0.0
vt 3.616211 0.039062 0.0
f 24/142 16/143 15/144
#fvcolorindex 17 17 17 
vt 0.389648 0.564453 0.0
vt 3.616211 0.039062 0.0
vt -0.039062 0.121094 0.0
f 24/145 15/146 25/147
#fvcolorindex 17 17 17 
usemtl m5TransparentCullBothEnvMappingClampSClampTTexScaleS0.052735TexScaleT0.052735
vt 0.000000 0.000000 0.0
vt 0.000000 0.000000 0.0
vt 0.000000 0.000000 0.0
#vcolor 7.000000 169.000000 164.000000 255.000000
#vcolor 0.000000 148.000000 191.000000 255.000000
#vcolor 249.000000 169.000000 164.000000 255.000000
vn 0.055118 1.330709 1.291339
vn 0.000000 1.165354 1.503937
vn 1.960630 1.330709 1.291339
f 14/148/34 15/149/35 16/150/36
#fvcolorindex 20 21 22 
usemtl m6TransparentCullBothEnvMappingClampSClampTTexScaleS0.052735TexScaleT0.052735
vt 0.000000 0.000000 0.0
vt 0.000000 0.000000 0.0
vt 0.000000 0.000000 0.0
#vcolor 24.000000 110.000000 199.000000 255.000000
vn 0.188976 0.866142 1.566929
vn 0.055118 1.330709 1.291339
vn 1.960630 1.330709 1.291339
f 17/151/37 14/152/38 16/153/39
#fvcolorindex 23 20 22 
vt 0.000000 0.000000 0.0
vt 0.000000 0.000000 0.0
vt 0.000000 0.000000 0.0
#vcolor 232.000000 110.000000 199.000000 255.000000
vn 0.188976 0.866142 1.566929
vn 1.960630 1.330709 1.291339
vn 1.826772 0.866142 1.566929
f 17/154/40 16/155/41 18/156/42
#fvcolorindex 23 22 24 
usemtl m7TransparentCullBothEnvMappingClampSClampTTexScaleS0.052735TexScaleT0.052735
vt 0.000000 0.000000 0.0
vt 0.000000 0.000000 0.0
vt 0.000000 0.000000 0.0
#vcolor 18.000000 117.000000 45.000000 255.000000
#vcolor 0.000000 102.000000 75.000000 255.000000
#vcolor 32.000000 19.000000 121.000000 255.000000
vn 0.141732 0.921260 0.354331
vn 0.000000 0.803150 0.590551
vn 0.251969 0.149606 0.952756
f 20/157/43 26/158/44 21/159/45
#fvcolorindex 25 26 27 
usemtl m8TransparentCullBothEnvMappingClampSClampTTexScaleS0.052735TexScaleT0.052735
vt 0.000000 0.000000 0.0
vt 0.000000 0.000000 0.0
vt 0.000000 0.000000 0.0
#vcolor 0.000000 2.000000 126.000000 255.000000
vn 0.000000 0.803150 0.590551
vn 0.000000 0.015748 0.992126
vn 0.251969 0.149606 0.952756
f 26/160/46 25/161/47 21/162/48
#fvcolorindex 26 28 27 
usemtl m9TransparentCullBothEnvMappingClampSClampTTexScaleS0.052735TexScaleT0.052735
vt 0.000000 0.000000 0.0
vt 0.000000 0.000000 0.0
vt 0.000000 0.000000 0.0
#vcolor 224.000000 19.000000 121.000000 255.000000
vn 1.763780 0.149606 0.952756
vn 0.000000 0.015748 0.992126
vn 0.000000 0.803150 0.590551
f 24/163/49 25/164/50 26/165/51
#fvcolorindex 29 28 26 
vt 0.000000 0.000000 0.0
vt 0.000000 0.000000 0.0
vt 0.000000 0.000000 0.0
#vcolor 238.000000 117.000000 45.000000 255.000000
vn 1.763780 0.149606 0.952756
vn 0.000000 0.803150 0.590551
vn 1.874016 0.921260 0.354331
f 24/166/52 26/167/53 23/168/54
#fvcolorindex 29 26 30 
usemtl m10TransparentCullBothEnvMappingClampSClampTTexScaleS0.052735TexScaleT0.052735
vt 0.000000 0.000000 0.0
vt 0.000000 0.000000 0.0
vt 0.000000 0.000000 0.0
vn 0.000000 0.015748 0.992126
vn 0.000000 1.165354 1.503937
vn 0.251969 0.149606 0.952756
f 25/169/55 15/170/56 21/171/57
#fvcolorindex 28 21 27 
usemtl m11TransparentCullBothEnvMappingClampSClampTTexScaleS0.052735TexScaleT0.052735
vt 0.000000 0.000000 0.0
vt 0.000000 0.000000 0.0
vt 0.000000 0.000000 0.0
vn 0.000000 1.165354 1.503937
vn 0.055118 1.330709 1.291339
vn 0.251969 0.149606 0.952756
f 15/172/58 14/173/59 21/174/60
#fvcolorindex 21 20 27 
usemtl m9TransparentCullBothEnvMappingClampSClampTTexScaleS0.052735TexScaleT0.052735
vt 0.000000 0.000000 0.0
vt 0.000000 0.000000 0.0
vt 0.000000 0.000000 0.0
vn 1.763780 0.149606 0.952756
vn 1.960630 1.330709 1.291339
vn 0.000000 1.165354 1.503937
f 24/175/61 16/176/62 15/177/63
#fvcolorindex 29 22 21 
vt 0.000000 0.000000 0.0
vt 0.000000 0.000000 0.0
vt 0.000000 0.000000 0.0
vn 1.763780 0.149606 0.952756
vn 0.000000 1.165354 1.503937
vn 0.000000 0.015748 0.992126
f 24/178/64 15/179/65 25/180/66
#fvcolorindex 29 21 28 
g Room05
g Room05_primary
usemtl m12CullBoth
vt 0.476562 0.046875 0.0
vt 4.085938 0.046875 0.0
vt 0.476562 0.031250 0.0
v -6.000000 54.000778 71.671410
#joint 34
#vjoint 27
#vcolor 0.000000 0.000000 0.000000 255.000000
v 0.000000 55.000778 159.671402
#joint 34
#vjoint 28
v -17.000000 53.000778 70.671410
#joint 34
#vjoint 29
#vcolor 73.000000 73.000000 73.000000 255.000000
f 27/181 28/182 29/183
#fvcolorindex 31 31 32 
usemtl m13CullBoth
vt 0.376953 1.312500 0.0
vt 0.041016 -0.375000 0.0
vt 0.892578 -5.234375 0.0
v 0.000000 74.000778 -114.328590
#joint 34
#vjoint 30
#vcolor 122.000000 122.000000 122.000000 255.000000
v -7.000000 74.000778 -114.328590
#joint 34
#vjoint 31
v 0.000000 90.000778 -110.328590
#joint 34
#vjoint 32
#vcolor 255.000000 255.000000 255.000000 255.000000
f 30/184 31/185 32/186
#fvcolorindex 33 33 34 
usemtl m14CullBoth
vt 1.320312 13.718750 0.0
vt 1.087891 3.437500 0.0
vt 1.748047 11.468750 0.0
v -8.000000 99.000778 -53.328590
#joint 34
#vjoint 33
v 0.000000 109.000778 -37.328590
#joint 34
#vjoint 34
v 0.000000 99.000778 -53.328590
#joint 34
#vjoint 35
f 33/187 34/188 35/189
#fvcolorindex 34 34 34 
usemtl m15CullBoth
vt 0.476562 0.031250 0.0
vt 4.085938 0.046875 0.0
vt 0.476562 0.046875 0.0
v 17.000000 53.000778 70.671410
#joint 34
#vjoint 36
v 6.000000 54.000778 71.671410
#joint 34
#vjoint 37
f 36/190 28/191 37/192
#fvcolorindex 32 31 31 
usemtl m14CullBoth
vt 1.748047 11.468750 0.0
vt 1.087891 3.437500 0.0
vt 1.320312 13.718750 0.0
v 8.000000 99.000778 -53.328590
#joint 34
#vjoint 38
f 35/193 34/194 38/195
#fvcolorindex 34 34 34 
vt 0.892578 -5.234375 0.0
vt 0.041016 -0.375000 0.0
vt 0.376953 1.312500 0.0
v 7.000000 74.000778 -114.328590
#joint 34
#vjoint 39
f 32/196 39/197 30/198
#fvcolorindex 34 33 33 
usemtl m15CullBoth
vt 2.125000 6.671875 0.0
vt 1.193359 36.187500 0.0
vt 1.203125 17.937500 0.0
v -6.000000 66.000778 107.671410
#joint 34
#vjoint 40
f 29/199 28/200 40/201
#fvcolorindex 32 32 33 
usemtl m13CullBoth
vt 1.203125 17.937500 0.0
vt 1.193359 36.187500 0.0
vt 2.125000 6.671875 0.0
v 6.000000 66.000778 107.671410
#joint 34
#vjoint 41
f 41/202 28/203 36/204
#fvcolorindex 33 32 32 
usemtl m16CullBoth
vt 0.070312 0.281250 0.0
vt -3.931641 0.203125 0.0
vt 0.000000 0.000000 0.0
v -23.000000 61.675804 -54.152817
#joint 33
#vjoint 42
#vcolor 98.000000 98.000000 98.000000 255.000000
v -17.000000 97.675804 -29.152817
#joint 33
#vjoint 43
v -17.000000 61.675804 -55.152817
#joint 33
#vjoint 44
f 42/205 43/206 44/207
#fvcolorindex 35 35 35 
vt 0.000000 0.000000 0.0
vt -3.931641 0.203125 0.0
vt 0.070312 0.281250 0.0
v 17.000000 61.675804 -55.152817
#joint 33
#vjoint 45
v 17.000000 97.675804 -29.152817
#joint 33
#vjoint 46
v 23.000000 61.675804 -54.152817
#joint 33
#vjoint 47
f 45/208 46/209 47/210
#fvcolorindex 35 35 35 
usemtl m13CullBoth
vt 1.203125 17.937500 0.0
vt 2.125000 6.671875 0.0
vt 1.224609 -20.890625 0.0
v 17.000000 91.000778 -1.328591
#joint 34
#vjoint 48
f 41/211 36/212 48/213
#fvcolorindex 33 32 33 
vt 1.224609 -20.890625 0.0
vt 2.125000 6.671875 0.0
vt 1.203125 17.937500 0.0
v -17.000000 91.000778 -1.328591
#joint 34
#vjoint 49
f 49/214 29/215 40/216
#fvcolorindex 33 32 33 
usemtl m17CullBoth
vt 0.539062 -0.479492 0.0
vt 0.163086 -0.983398 0.0
vt 0.924805 -0.952148 0.0
v -23.000000 80.000778 142.671402
#joint 34
#vjoint 50
v 0.000000 69.000778 115.671410
#joint 34
#vjoint 51
f 50/217 28/218 51/219
#fvcolorindex 34 34 34 
usemtl m18CullBoth
vt 0.539062 -0.479492 0.0
vt 0.924805 -0.952148 0.0
vt 0.830078 -0.548828 0.0
v -21.000000 80.000778 124.671410
#joint 34
#vjoint 52
f 50/220 51/221 52/222
#fvcolorindex 31 34 31 
usemtl m19CullBoth
vt 0.407227 -0.225586 0.0
vt -0.028320 -0.929688 0.0
vt 0.457031 -1.008789 0.0
v 0.000000 98.000778 132.671402
#joint 34
#vjoint 53
#vcolor 159.000000 159.000000 159.000000 255.000000
f 53/223 50/224 52/225
#fvcolorindex 36 31 31 
usemtl m17CullBoth
vt 0.924805 -0.952148 0.0
vt 1.036133 -0.932617 0.0
vt 0.880859 -0.519531 0.0
v -24.000000 80.000778 121.671410
#joint 34
#vjoint 54
f 51/226 40/227 54/228
#fvcolorindex 34 31 31 
usemtl m18CullBoth
vt 0.830078 -0.548828 0.0
vt 0.924805 -0.952148 0.0
vt 0.880859 -0.519531 0.0
f 52/229 51/230 54/231
#fvcolorindex 31 34 31 
usemtl m19CullBoth
vt 0.407227 -0.225586 0.0
vt 0.457031 -1.008789 0.0
vt 0.527344 -1.085938 0.0
f 53/232 52/233 54/234
#fvcolorindex 36 31 31 
usemtl m18CullBoth
vt 0.099609 -0.252930 0.0
vt -0.186523 -0.972656 0.0
vt 1.358398 -1.086914 0.0
f 54/235 40/236 28/237
#fvcolorindex 31 31 34 
vt 0.099609 -0.252930 0.0
vt 1.358398 -1.086914 0.0
vt 0.720703 -0.193359 0.0
f 54/238 28/239 50/240
#fvcolorindex 31 34 34 
usemtl m17CullBoth
vt 0.153320 -0.166992 0.0
vt -0.168945 -0.956055 0.0
vt 0.397461 -0.939453 0.0
f 53/241 54/242 50/243
#fvcolorindex 34 34 34 
vt 0.397461 -0.939453 0.0
vt -0.168945 -0.956055 0.0
vt 0.153320 -0.166992 0.0
v 23.000000 80.000778 142.671402
#joint 34
#vjoint 55
v 24.000000 80.000778 121.671410
#joint 34
#vjoint 56
f 55/244 56/245 53/246
#fvcolorindex 34 34 34 
vt 0.720703 -0.193359 0.0
vt 1.358398 -1.086914 0.0
vt 0.099609 -0.252930 0.0
f 55/247 28/248 56/249
#fvcolorindex 34 34 31 
vt 1.358398 -1.086914 0.0
vt -0.186523 -0.972656 0.0
vt 0.099609 -0.252930 0.0
f 28/250 41/251 56/252
#fvcolorindex 34 31 31 
usemtl m18CullBoth
vt 0.527344 -1.085938 0.0
vt 0.457031 -1.008789 0.0
vt 0.407227 -0.225586 0.0
v 21.000000 80.000778 124.671410
#joint 34
#vjoint 57
f 56/253 57/254 53/255
#fvcolorindex 31 31 36 
vt 0.880859 -0.519531 0.0
vt 0.924805 -0.952148 0.0
vt 0.830078 -0.548828 0.0
f 56/256 51/257 57/258
#fvcolorindex 31 34 31 
vt 0.880859 -0.519531 0.0
vt 1.036133 -0.932617 0.0
vt 0.924805 -0.952148 0.0
f 56/259 41/260 51/261
#fvcolorindex 31 31 34 
vt 0.457031 -1.008789 0.0
vt -0.028320 -0.929688 0.0
vt 0.407227 -0.225586 0.0
f 57/262 55/263 53/264
#fvcolorindex 31 31 36 
vt 0.830078 -0.548828 0.0
vt 0.924805 -0.952148 0.0
vt 0.539062 -0.479492 0.0
f 57/265 51/266 55/267
#fvcolorindex 31 34 31 
usemtl m17CullBoth
vt 0.924805 -0.952148 0.0
vt 0.163086 -0.983398 0.0
vt 0.539062 -0.479492 0.0
f 51/268 28/269 55/270
#fvcolorindex 34 34 34 
usemtl m20CullBoth
vt -0.113281 0.735352 0.0
vt 0.000000 0.000000 0.0
vt 0.194336 0.426758 0.0
v 0.000000 59.000778 -128.328598
#joint 34
#vjoint 58
#vcolor 82.000000 82.000000 82.000000 255.000000
v 13.000000 52.000778 -100.328590
#joint 34
#vjoint 59
v -13.000000 52.000778 -100.328590
#joint 34
#vjoint 60
f 58/271 59/272 60/273
#fvcolorindex 37 37 37 
usemtl m21CullBoth
vt 1.955078 0.231445 0.0
vt 1.973633 0.000000 0.0
vt 1.973633 0.000000 0.0
v 16.000000 55.675804 -97.152817
#joint 33
#vjoint 61
#vcolor 222.000000 222.000000 222.000000 255.000000
v 16.000000 51.675804 -100.152817
#joint 33
#vjoint 62
v -16.000000 51.675804 -100.152817
#joint 33
#vjoint 63
f 61/274 62/275 63/276
#fvcolorindex 38 31 31 
vt 1.955078 0.231445 0.0
vt 1.973633 0.000000 0.0
vt 1.955078 0.231445 0.0
v -16.000000 55.675804 -97.152817
#joint 33
#vjoint 64
f 61/277 63/278 64/279
#fvcolorindex 38 31 38 
usemtl m22CullBoth
vt 0.041016 1.014648 0.0
vt 0.305664 1.277344 0.0
vt -0.116211 1.222656 0.0
v -29.000000 55.675804 -75.152817
#joint 33
#vjoint 65
v -17.000000 51.675804 -85.152817
#joint 33
#vjoint 66
v -35.000000 48.675804 -82.152817
#joint 33
#vjoint 67
f 65/280 66/281 67/282
#fvcolorindex 35 31 34 
usemtl m17CullBoth
vt 0.041016 1.014648 0.0
vt 0.406250 -0.397461 0.0
vt 0.469727 -0.380859 0.0
v -19.000000 97.675804 -29.152817
#joint 33
#vjoint 68
f 65/283 68/284 43/285
#fvcolorindex 34 34 34 
vt 0.041016 1.014648 0.0
vt -0.116211 1.222656 0.0
vt 0.406250 -0.397461 0.0
f 65/286 67/287 68/288
#fvcolorindex 34 34 34 
usemtl m22CullBoth
vt -0.047852 -0.060547 0.0
vt -1.602539 0.831055 0.0
vt 3.893555 0.000000 0.0
f 42/289 65/290 43/291
#fvcolorindex 35 35 35 
usemtl m21CullBoth
vt 1.000000 0.000000 0.0
vt 1.000000 1.000000 0.0
vt 0.536133 1.003906 0.0
v -15.000000 73.675804 -86.152817
#joint 33
#vjoint 69
v 0.000000 73.675804 -86.152817
#joint 33
#vjoint 70
f 64/292 69/293 70/294
#fvcolorindex 38 38 38 
vt 1.000000 0.000000 0.0
vt 0.536133 1.003906 0.0
vt 1.000000 1.000000 0.0
v 15.000000 73.675804 -86.152817
#joint 33
#vjoint 71
f 64/295 70/296 71/297
#fvcolorindex 38 38 38 
vt 1.000000 0.000000 0.0
vt 1.000000 1.000000 0.0
vt 1.000000 0.000000 0.0
f 64/298 71/299 61/300
#fvcolorindex 38 38 38 
usemtl m17CullBoth
vt -0.116211 1.222656 0.0
vt 0.305664 1.277344 0.0
vt 0.041016 1.014648 0.0
v 35.000000 48.675804 -82.152817
#joint 33
#vjoint 72
v 17.000000 51.675804 -85.152817
#joint 33
#vjoint 73
v 29.000000 55.675804 -75.152817
#joint 33
#vjoint 74
f 72/301 73/302 74/303
#fvcolorindex 34 31 35 
vt 0.469727 -0.380859 0.0
vt 0.406250 -0.397461 0.0
vt 0.041016 1.014648 0.0
v 19.000000 97.675804 -29.152817
#joint 33
#vjoint 75
f 46/304 75/305 74/306
#fvcolorindex 34 34 34 
vt 0.406250 -0.397461 0.0
vt -0.116211 1.222656 0.0
vt 0.041016 1.014648 0.0
f 75/307 72/308 74/309
#fvcolorindex 34 34 34 
usemtl m22CullBoth
vt 3.891602 0.000000 0.0
vt -1.602539 0.831055 0.0
vt -0.047852 -0.060547 0.0
f 46/310 74/311 47/312
#fvcolorindex 35 35 35 
usemtl m23CullBoth
vt 0.958984 0.051758 0.0
vt 0.958984 0.051758 0.0
vt -0.000977 0.310547 0.0
v 8.000000 15.675806 -45.152817
#joint 33
#vjoint 76
#vcolor 42.000000 42.000000 42.000000 255.000000
v -8.000000 15.675806 -45.152817
#joint 33
#vjoint 77
f 76/313 77/314 66/315
#fvcolorindex 39 39 37 
vt 0.958984 0.051758 0.0
vt -0.000977 0.310547 0.0
vt -0.000977 0.310547 0.0
f 76/316 66/317 73/318
#fvcolorindex 39 37 37 
usemtl m20CullBoth
vt -0.000977 0.310547 0.0
vt 0.958984 0.051758 0.0
vt 1.965820 0.336914 0.0
v -13.000000 4.675806 11.847183
#joint 33
#vjoint 78
f 66/319 77/320 78/321
#fvcolorindex 37 39 37 
vt 1.965820 0.336914 0.0
vt 0.958984 0.051758 0.0
vt -0.000977 0.310547 0.0
v 13.000000 4.675806 11.847183
#joint 33
#vjoint 79
f 79/322 76/323 73/324
#fvcolorindex 37 39 37 
usemtl m24CullBothMirrorS
vt 1.225586 -1.043945 0.0
vt 1.400391 -0.783203 0.0
vt 0.476562 -1.033203 0.0
v -15.000000 73.000778 -86.328590
#joint 34
#vjoint 80
#vcolor 195.000000 195.000000 195.000000 255.000000
v -11.000000 84.000778 -79.328590
#joint 34
#vjoint 81
f 80/325 81/326 31/327
#fvcolorindex 40 40 40 
usemtl m25CullBothMirrorS
vt -0.523438 0.062500 0.0
vt -1.647461 0.557617 0.0
vt -3.289062 0.062500 0.0
v -18.000000 73.000778 -58.328590
#joint 34
#vjoint 82
#vcolor 152.000000 152.000000 152.000000 255.000000
v -17.000000 97.000778 -29.328590
#joint 34
#vjoint 83
f 80/328 82/329 83/330
#fvcolorindex 31 41 31 
usemtl m24CullBothMirrorS
vt 0.333984 0.352539 0.0
vt -2.044922 0.000000 0.0
vt 0.000000 0.000000 0.0
f 80/331 83/332 81/333
#fvcolorindex 40 40 40 
usemtl m26CullBothMirrorS
vt 0.105469 -1.132812 0.0
vt 0.476562 -1.033203 0.0
vt 0.384766 -1.057617 0.0
v 0.000000 70.000778 -128.328598
#joint 34
#vjoint 84
v 0.000000 73.000778 -117.328590
#joint 34
#vjoint 85
f 84/334 30/335 85/336
#fvcolorindex 34 34 34 
vt 0.105469 -1.132812 0.0
vt 0.105469 -1.132812 0.0
vt 0.476562 -1.033203 0.0
v -4.000000 70.000778 -128.328598
#joint 34
#vjoint 86
f 84/337 86/338 31/339
#fvcolorindex 34 34 34 
vt 0.105469 -1.132812 0.0
vt 0.476562 -1.033203 0.0
vt 0.476562 -1.033203 0.0
f 84/340 31/341 30/342
#fvcolorindex 34 34 34 
usemtl m25CullBothMirrorS
vt 0.043945 -0.407227 0.0
vt 0.000000 0.000000 0.0
vt -1.946289 0.000000 0.0
v 0.000000 84.000778 -79.328590
#joint 34
#vjoint 87
f 87/343 81/344 83/345
#fvcolorindex 31 34 34 
usemtl m24CullBothMirrorS
vt 1.225586 -1.043945 0.0
vt 1.400391 -0.783203 0.0
vt 0.476562 -1.033203 0.0
f 80/346 81/347 31/348
#fvcolorindex 40 40 40 
usemtl m27CullBothMirrorS
vt 1.000000 0.000000 0.0
vt 0.498047 1.033203 0.0
vt 0.004883 0.857422 0.0
#vcolor 129.000000 129.000000 129.000000 255.000000
f 60/349 31/350 86/351
#fvcolorindex 37 42 42 
vt 1.000000 0.000000 0.0
vt 0.004883 0.857422 0.0
vt 0.000000 0.000000 0.0
#vcolor 106.000000 106.000000 106.000000 255.000000
f 60/352 86/353 58/354
#fvcolorindex 37 43 37 
usemtl m25CullBothMirrorS
vt 0.498047 1.033203 0.0
vt 1.000000 0.000000 0.0
vt 1.513672 1.007812 0.0
f 31/355 60/356 80/357
#fvcolorindex 31 37 31 
usemtl m28CullBothMirrorS
vt -0.243164 0.000000 0.0
vt 0.916992 0.000000 0.0
vt 0.869141 -0.635742 0.0
#vcolor 144.000000 144.000000 144.000000 255.000000
f 81/358 32/359 31/360
#fvcolorindex 44 34 44 
usemtl m26CullBothMirrorS
vt 1.000000 0.000000 0.0
vt 0.000000 -0.155273 0.0
vt 1.000000 -0.353516 0.0
f 87/361 32/362 81/363
#fvcolorindex 34 34 34 
usemtl m27CullBothMirrorS
vt 0.000000 0.937500 0.0
vt 0.503906 2.155273 0.0
vt 0.000000 2.155273 0.0
f 58/364 86/365 84/366
#fvcolorindex 37 35 35 
vt 0.000000 0.000000 0.0
vt 0.000000 0.000000 0.0
vt 1.000000 0.000000 0.0
v 18.000000 73.000778 -58.328590
#joint 34
#vjoint 88
f 60/367 59/368 88/369
#fvcolorindex 37 37 31 
vt 0.000000 0.000000 0.0
vt 1.000000 0.000000 0.0
vt 1.000000 0.000000 0.0
f 60/370 88/371 82/372
#fvcolorindex 37 31 31 
vt 1.000000 0.000000 0.0
vt 0.466797 0.753906 0.0
vt 0.466797 0.753906 0.0
f 29/373 82/374 88/375
#fvcolorindex 37 31 31 
vt 1.000000 0.000000 0.0
vt 0.466797 0.753906 0.0
vt 1.000000 0.000000 0.0
f 29/376 88/377 36/378
#fvcolorindex 37 31 37 
usemtl m25CullBothMirrorS
vt 1.098633 -0.470703 0.0
vt -0.087891 -0.013672 0.0
vt -1.079102 -0.191406 0.0
v 17.000000 97.000778 -29.328590
#joint 34
#vjoint 89
f 87/379 38/380 89/381
#fvcolorindex 31 34 31 
usemtl m24CullBothMirrorS
vt 0.476562 -1.033203 0.0
vt 1.400391 -0.783203 0.0
vt 1.225586 -1.043945 0.0
v 11.000000 84.000778 -79.328590
#joint 34
#vjoint 90
v 15.000000 73.000778 -85.328590
#joint 34
#vjoint 91
f 39/382 90/383 91/384
#fvcolorindex 40 40 40 
usemtl m25CullBothMirrorS
vt -3.289062 0.062500 0.0
vt -1.647461 0.557617 0.0
vt -0.523438 0.062500 0.0
f 89/385 88/386 91/387
#fvcolorindex 31 41 31 
usemtl m24CullBothMirrorS
vt 0.000000 0.000000 0.0
vt -2.044922 0.000000 0.0
vt 0.333984 0.352539 0.0
f 90/388 89/389 91/390
#fvcolorindex 40 40 40 
usemtl m26CullBothMirrorS
vt 0.384766 -1.057617 0.0
vt 0.476562 -1.033203 0.0
vt 0.105469 -1.132812 0.0
f 85/391 30/392 84/393
#fvcolorindex 34 34 34 
vt 0.476562 -1.033203 0.0
vt 0.105469 -1.132812 0.0
vt 0.105469 -1.132812 0.0
v 4.000000 70.000778 -128.328598
#joint 34
#vjoint 92
f 39/394 92/395 84/396
#fvcolorindex 34 34 34 
vt 0.476562 -1.033203 0.0
vt 0.476562 -1.033203 0.0
vt 0.105469 -1.132812 0.0
f 30/397 39/398 84/399
#fvcolorindex 34 34 34 
usemtl m25CullBothMirrorS
vt -1.946289 0.000000 0.0
vt 0.000000 0.000000 0.0
vt 0.043945 -0.407227 0.0
f 89/400 90/401 87/402
#fvcolorindex 31 34 31 
usemtl m24CullBothMirrorS
vt 0.476562 -1.033203 0.0
vt 1.400391 -0.783203 0.0
vt 1.225586 -1.043945 0.0
f 39/403 90/404 91/405
#fvcolorindex 40 40 40 
usemtl m29CullBothMirrorS
vt 0.004883 0.857422 0.0
vt 0.498047 1.033203 0.0
vt 1.000000 0.000000 0.0
f 92/406 39/407 59/408
#fvcolorindex 42 42 37 
usemtl m27CullBothMirrorS
vt 0.000000 0.000000 0.0
vt 0.004883 0.857422 0.0
vt 1.000000 0.000000 0.0
f 58/409 92/410 59/411
#fvcolorindex 37 43 37 
usemtl m25CullBothMirrorS
vt 1.513672 1.007812 0.0
vt 1.000000 0.000000 0.0
vt 0.498047 1.033203 0.0
f 91/412 59/413 39/414
#fvcolorindex 31 37 31 
usemtl m28CullBothMirrorS
vt 0.869141 -0.635742 0.0
vt 0.916992 0.000000 0.0
vt -0.243164 0.000000 0.0
f 39/415 32/416 90/417
#fvcolorindex 44 34 44 
usemtl m26CullBothMirrorS
vt 1.000000 -0.353516 0.0
vt 0.000000 -0.155273 0.0
vt 1.000000 0.000000 0.0
f 90/418 32/419 87/420
#fvcolorindex 34 34 34 
usemtl m30CullBothMirrorS
vt 0.000000 2.155273 0.0
vt 0.503906 2.155273 0.0
vt 0.000000 0.937500 0.0
f 84/421 92/422 58/423
#fvcolorindex 35 35 37 
usemtl m26CullBothMirrorS
vt 1.097656 0.000000 0.0
vt 1.025391 0.272461 0.0
vt 0.000000 0.000000 0.0
v 0.000000 95.000778 -82.328590
#joint 34
#vjoint 93
f 33/424 35/425 93/426
#fvcolorindex 34 34 31 
usemtl m25CullBothMirrorS
vt -1.079102 -0.191406 0.0
vt -0.087891 -0.013672 0.0
vt 1.098633 -0.470703 0.0
f 83/427 33/428 87/429
#fvcolorindex 31 34 31 
usemtl m31CullBothMirrorS
vt -0.080078 0.000000 0.0
vt 0.975586 0.000000 0.0
vt 1.348633 0.413086 0.0
v -15.000000 96.000778 -67.328590
#joint 34
#vjoint 94
v -15.000000 99.000778 -56.328590
#joint 34
#vjoint 95
f 93/430 94/431 95/432
#fvcolorindex 36 34 34 
vt -0.080078 0.000000 0.0
vt 1.348633 0.413086 0.0
vt 1.222656 0.771484 0.0
f 93/433 95/434 33/435
#fvcolorindex 36 34 36 
vt 0.261719 -0.960938 0.0
vt 0.976562 -0.398438 0.0
vt 0.875000 0.000000 0.0
v -15.000000 93.000778 -66.328590
#joint 34
#vjoint 96
f 33/436 95/437 96/438
#fvcolorindex 36 34 31 
vt 0.261719 -0.960938 0.0
vt 0.875000 0.000000 0.0
vt -0.291016 0.000000 0.0
f 33/439 96/440 87/441
#fvcolorindex 36 31 31 
usemtl m25CullBothMirrorS
vt -0.291016 0.000000 0.0
vt 0.875000 0.000000 0.0
vt 0.976562 -0.398438 0.0
v 15.000000 93.000778 -66.328590
#joint 34
#vjoint 97
v 15.000000 99.000778 -56.328590
#joint 34
#vjoint 98
f 87/442 97/443 98/444
#fvcolorindex 31 31 34 
vt -0.291016 0.000000 0.0
vt 0.976562 -0.398438 0.0
vt 0.261719 -0.960938 0.0
f 87/445 98/446 38/447
#fvcolorindex 31 34 36 
usemtl m31CullBothMirrorS
vt 1.222656 0.771484 0.0
vt 1.348633 0.413086 0.0
vt 0.975586 0.000000 0.0
v 15.000000 96.000778 -67.328590
#joint 34
#vjoint 99
f 38/448 98/449 99/450
#fvcolorindex 36 34 34 
vt 1.222656 0.771484 0.0
vt 0.975586 0.000000 0.0
vt -0.080078 0.000000 0.0
f 38/451 99/452 93/453
#fvcolorindex 36 34 36 
usemtl m25CullBothMirrorS
vt -0.291016 0.000000 0.0
vt 0.875000 0.000000 0.0
vt 0.976562 -0.398438 0.0
f 87/454 97/455 98/456
#fvcolorindex 31 31 34 
vt -0.291016 0.000000 0.0
vt 0.976562 -0.398438 0.0
vt 0.261719 -0.960938 0.0
f 87/457 98/458 38/459
#fvcolorindex 31 34 36 
usemtl m31CullBothMirrorS
vt 1.222656 0.771484 0.0
vt 1.348633 0.413086 0.0
vt 0.975586 0.000000 0.0
f 38/460 98/461 99/462
#fvcolorindex 36 34 34 
vt 1.222656 0.771484 0.0
vt 0.975586 0.000000 0.0
vt -0.080078 0.000000 0.0
f 38/463 99/464 93/465
#fvcolorindex 36 34 36 
usemtl m25CullBothMirrorS
vt 0.000000 0.000000 0.0
vt 1.025391 0.272461 0.0
vt 1.097656 0.000000 0.0
f 93/466 35/467 38/468
#fvcolorindex 31 34 34 
usemtl m32CullBothMirrorS
vt 1.000000 0.000000 0.0
vt 0.045898 0.415039 0.0
vt 0.466797 0.753906 0.0
f 29/469 49/470 82/471
#fvcolorindex 32 33 41 
usemtl m33CullBothMirrorS
vt 0.000000 0.000000 0.0
vt 0.767578 0.644531 0.0
vt 0.792969 0.000000 0.0
v -17.000000 83.000778 -27.328590
#joint 34
#vjoint 100
#vcolor 177.000000 177.000000 177.000000 255.000000
f 49/472 83/473 100/474
#fvcolorindex 33 31 45 
usemtl m34CullBothMirrorS
vt 1.336914 0.000000 0.0
vt -0.243164 0.000000 0.0
vt -0.286133 0.642578 0.0
f 82/475 100/476 83/477
#fvcolorindex 41 45 31 
usemtl m25CullBothMirrorS
vt 0.505859 1.000000 0.0
vt 0.000000 0.000000 0.0
vt 1.000000 0.000000 0.0
f 80/478 60/479 82/480
#fvcolorindex 31 37 41 
usemtl m34CullBothMirrorS
vt 0.466797 0.753906 0.0
vt 0.045898 0.415039 0.0
vt 1.000000 0.000000 0.0
f 88/481 48/482 36/483
#fvcolorindex 41 33 37 
usemtl m35CullBothMirrorS
vt 0.792969 0.000000 0.0
vt 0.767578 0.644531 0.0
vt 0.000000 0.000000 0.0
v 17.000000 83.000778 -27.328590
#joint 34
#vjoint 101
f 101/484 89/485 48/486
#fvcolorindex 45 31 33 
usemtl m34CullBothMirrorS
vt 1.336914 0.000000 0.0
vt -0.286133 0.642578 0.0
vt -0.243164 0.000000 0.0
f 88/487 89/488 101/489
#fvcolorindex 41 31 45 
usemtl m25CullBothMirrorS
vt 0.505859 1.000000 0.0
vt 1.000000 0.000000 0.0
vt 0.000000 0.000000 0.0
f 91/490 88/491 59/492
#fvcolorindex 31 41 37 
vt -0.234375 0.967773 0.0
vt 0.650391 0.458008 0.0
vt 1.102539 0.931641 0.0
v 18.000000 57.675804 -77.152817
#joint 33
#vjoint 102
f 88/493 102/494 71/495
#fvcolorindex 31 34 31 
usemtl m26CullBothMirrorS
vt 0.650391 0.458008 0.0
vt 1.614258 0.413086 0.0
vt 1.102539 0.931641 0.0
f 102/496 61/497 71/498
#fvcolorindex 34 34 31 
usemtl m25CullBothMirrorS
vt 0.000000 1.000000 0.0
vt 0.000000 0.500000 0.0
vt 0.922852 0.500000 0.0
v 0.000000 51.675804 -100.152817
#joint 33
#vjoint 103
v 0.000000 51.675804 -85.152817
#joint 33
#vjoint 104
f 63/499 103/500 104/501
#fvcolorindex 31 35 35 
vt 0.000000 1.000000 0.0
vt 0.922852 0.500000 0.0
vt 0.922852 1.039062 0.0
f 63/502 104/503 66/504
#fvcolorindex 31 35 31 
vt -0.094727 -0.424805 0.0
vt 0.999023 0.000000 0.0
vt 0.000000 0.000000 0.0
f 63/505 66/506 64/507
#fvcolorindex 31 31 35 
usemtl m30CullBothMirrorS
vt -0.953125 0.000000 0.0
vt 0.117188 -0.660156 0.0
vt 1.604492 0.000000 0.0
f 64/508 66/509 65/510
#fvcolorindex 35 31 35 
vt 0.160156 0.937500 0.0
vt 0.189453 0.451172 0.0
vt 0.426758 0.484375 0.0
v -18.000000 57.675804 -77.152817
#joint 33
#vjoint 105
f 44/511 105/512 65/513
#fvcolorindex 35 34 34 
vt 0.160156 0.937500 0.0
vt 0.426758 0.484375 0.0
vt 0.291016 0.957031 0.0
f 44/514 65/515 42/516
#fvcolorindex 35 34 35 
usemtl m26CullBothMirrorS
vt 0.426758 0.484375 0.0
vt 0.189453 0.451172 0.0
vt 0.123047 0.037109 0.0
f 65/517 105/518 64/519
#fvcolorindex 34 34 34 
usemtl m25CullBothMirrorS
vt 0.922852 -0.039062 0.0
vt 0.922852 0.500000 0.0
vt 0.000000 0.500000 0.0
f 73/520 104/521 103/522
#fvcolorindex 31 35 35 
vt 0.922852 -0.039062 0.0
vt 0.000000 0.500000 0.0
vt 0.000000 0.000000 0.0
f 73/523 103/524 62/525
#fvcolorindex 31 35 31 
usemtl m30CullBothMirrorS
vt 0.000000 0.000000 0.0
vt 0.999023 0.000000 0.0
vt -0.094727 -0.424805 0.0
f 61/526 73/527 62/528
#fvcolorindex 35 31 31 
vt 1.604492 0.000000 0.0
vt 0.117188 -0.660156 0.0
vt -0.953125 0.000000 0.0
f 74/529 73/530 61/531
#fvcolorindex 35 31 35 
vt 0.291016 0.957031 0.0
vt 0.426758 0.484375 0.0
vt 0.189453 0.451172 0.0
f 47/532 74/533 102/534
#fvcolorindex 35 34 34 
vt 0.291016 0.957031 0.0
vt 0.189453 0.451172 0.0
vt 0.160156 0.937500 0.0
f 47/535 102/536 45/537
#fvcolorindex 35 34 35 
usemtl m26CullBothMirrorS
vt 0.123047 0.037109 0.0
vt 0.189453 0.451172 0.0
vt 0.426758 0.484375 0.0
f 61/538 102/539 74/540
#fvcolorindex 34 34 34 
usemtl m25CullBothMirrorS
vt 1.102539 0.931641 0.0
vt 0.650391 0.458008 0.0
vt -0.234375 0.967773 0.0
f 69/541 105/542 82/543
#fvcolorindex 31 34 31 
vt 1.102539 0.931641 0.0
vt 1.614258 0.413086 0.0
vt 0.650391 0.458008 0.0
f 69/544 64/545 105/546
#fvcolorindex 31 34 34 
usemtl m36CullBothMirrorS
vt 1.102539 0.931641 0.0
vt 1.102539 0.931641 0.0
vt -0.234375 0.967773 0.0
#vcolor 254.000000 254.000000 254.000000 255.000000
f 71/547 69/548 82/549
#fvcolorindex 46 46 31 
vt 1.102539 0.931641 0.0
vt -0.234375 0.967773 0.0
vt -0.234375 0.967773 0.0
f 71/550 82/551 88/552
#fvcolorindex 46 31 31 
usemtl m37CullBothMirrorS
vt 1.366211 -0.393555 0.0
vt 1.439453 -0.605469 0.0
vt 1.439453 -0.605469 0.0
v 5.000000 -68.324196 -92.152817
#joint 33
#vjoint 106
#vcolor 208.000000 208.000000 208.000000 255.000000
v 5.000000 -74.324196 -104.152817
#joint 33
#vjoint 107
#vcolor 79.000000 73.000000 78.000000 255.000000
v -5.000000 -74.324196 -104.152817
#joint 33
#vjoint 108
f 106/553 107/554 108/555
#fvcolorindex 47 48 48 
vt 1.366211 -0.393555 0.0
vt 1.439453 -0.605469 0.0
vt 1.366211 -0.393555 0.0
v -5.000000 -68.324196 -92.152817
#joint 33
#vjoint 109
f 106/556 108/557 109/558
#fvcolorindex 47 48 47 
usemtl m38CullBothMirrorS
vt 1.439453 -0.605469 0.0
vt -1.099609 -0.552734 0.0
vt 0.433594 -0.141602 0.0
v 0.000000 -177.324188 7.847183
#joint 33
#vjoint 110
v -5.000000 -96.324196 -42.152817
#joint 33
#vjoint 111
#vcolor 181.000000 181.000000 181.000000 255.000000
f 108/559 110/560 111/561
#fvcolorindex 48 48 49 
usemtl m39CullBothMirrorS
vt 1.366211 -0.393555 0.0
vt 1.439453 -0.605469 0.0
vt 0.433594 -0.141602 0.0
f 109/562 108/563 111/564
#fvcolorindex 49 48 49 
usemtl m38CullBothMirrorS
vt -1.099609 -0.552734 0.0
vt 1.439453 -0.605469 0.0
vt 1.439453 -0.605469 0.0
f 110/565 108/566 107/567
#fvcolorindex 48 48 48 
usemtl m26CullBothMirrorS
vt 0.433594 -0.141602 0.0
vt 0.433594 -0.141602 0.0
vt -1.099609 -0.552734 0.0
v 5.000000 -96.324196 -42.152817
#joint 33
#vjoint 112
f 112/568 111/569 110/570
#fvcolorindex 34 34 48 
usemtl m39CullBothMirrorS
vt 0.433594 -0.141602 0.0
vt -1.099609 -0.552734 0.0
vt 1.439453 -0.605469 0.0
f 112/571 110/572 107/573
#fvcolorindex 49 48 48 
vt 0.433594 -0.141602 0.0
vt 1.439453 -0.605469 0.0
vt 1.366211 -0.393555 0.0
f 112/574 107/575 106/576
#fvcolorindex 49 48 49 
usemtl m30CullBothMirrorS
vt 1.445312 0.000000 0.0
vt -1.167969 0.000000 0.0
vt 2.580078 -1.404297 0.0
v -47.000000 26.675806 143.847183
#joint 33
#vjoint 113
v 0.000000 -24.324194 215.847183
#joint 33
#vjoint 114
f 113/577 78/578 114/579
#fvcolorindex 35 35 35 
usemtl m26CullBothMirrorS
vt 1.410156 -0.651367 0.0
vt 1.929688 0.021484 0.0
vt -1.213867 0.021484 0.0
v 0.000000 54.675804 159.847183
#joint 33
#vjoint 115
f 113/580 115/581 78/582
#fvcolorindex 34 39 39 
vt -0.892578 -0.351562 0.0
vt -1.736328 -0.005859 0.0
vt 2.029297 -0.005859 0.0
v -19.000000 -27.324194 169.847183
#joint 33
#vjoint 116
f 116/583 114/584 78/585
#fvcolorindex 34 39 39 
usemtl m30CullBothMirrorS
vt 2.580078 -1.404297 0.0
vt -1.167969 0.000000 0.0
vt 1.445312 0.000000 0.0
v 47.000000 26.675806 143.847183
#joint 33
#vjoint 117
f 114/586 79/587 117/588
#fvcolorindex 35 35 35 
usemtl m40CullBothMirrorS
vt -1.213867 0.021484 0.0
vt 1.929688 0.021484 0.0
vt 1.410156 -0.651367 0.0
f 79/589 115/590 117/591
#fvcolorindex 39 39 34 
vt 2.029297 -0.005859 0.0
vt -1.736328 -0.005859 0.0
vt -0.892578 -0.351562 0.0
v 19.000000 -27.324194 169.847183
#joint 33
#vjoint 118
f 79/592 114/593 118/594
#fvcolorindex 39 39 34 
usemtl m41CullBothMirrorS
vt 0.000000 0.000000 0.0
vt 1.000000 0.000000 0.0
vt 1.000000 1.000000 0.0
#vcolor 197.000000 197.000000 197.000000 255.000000
#vcolor 86.000000 86.000000 86.000000 255.000000
f 115/595 73/596 66/597
#fvcolorindex 50 51 51 
usemtl m1CullBoth
vt 1.128906 -2.146484 0.0
vt 0.955078 -2.144531 0.0
vt 0.929688 -2.286133 0.0
f 95/598 94/599 96/600
#fvcolorindex 34 34 31 
usemtl m42CullBoth
vt -0.886719 -1.874023 0.0
vt 3.943359 -1.320312 0.0
vt 3.964844 -1.072266 0.0
f 87/601 96/602 94/603
#fvcolorindex 31 31 34 
vt -0.886719 -1.874023 0.0
vt 3.964844 -1.072266 0.0
vt -0.808594 -1.022461 0.0
f 87/604 94/605 93/606
#fvcolorindex 31 34 36 
usemtl m43CullBoth
vt -0.808594 -1.022461 0.0
vt 3.964844 -1.072266 0.0
vt 3.943359 -1.320312 0.0
f 93/607 99/608 97/609
#fvcolorindex 36 34 31 
vt -0.808594 -1.022461 0.0
vt 3.943359 -1.320312 0.0
vt -0.886719 -1.874023 0.0
f 93/610 97/611 87/612
#fvcolorindex 36 31 31 
usemtl m42CullBoth
vt 0.929688 -2.286133 0.0
vt 0.955078 -2.144531 0.0
vt 1.128906 -2.146484 0.0
f 97/613 99/614 98/615
#fvcolorindex 31 34 34 
usemtl m43CullBoth
vt -0.808594 -1.022461 0.0
vt 3.964844 -1.072266 0.0
vt 3.943359 -1.320312 0.0
f 93/616 99/617 97/618
#fvcolorindex 36 34 31 
vt -0.808594 -1.022461 0.0
vt 3.943359 -1.320312 0.0
vt -0.886719 -1.874023 0.0
f 93/619 97/620 87/621
#fvcolorindex 36 31 31 
usemtl m42CullBoth
vt -4.589844 -0.866211 0.0
vt 0.535156 -2.117188 0.0
vt 7.980469 -0.903320 0.0
v -15.000000 30.675806 -42.152817
#joint 33
#vjoint 119
#vcolor 202.000000 202.000000 202.000000 255.000000
v -6.000000 30.675806 87.847183
#joint 33
#vjoint 120
f 119/622 78/623 120/624
#fvcolorindex 31 52 31 
vt 7.980469 -0.903320 0.0
vt 0.535156 -2.117188 0.0
vt -4.589844 -0.866211 0.0
v 6.000000 30.675806 87.847183
#joint 33
#vjoint 121
v 15.000000 30.675806 -42.152817
#joint 33
#vjoint 122
f 121/625 79/626 122/627
#fvcolorindex 31 52 31 
usemtl m44CullBothMirrorS
vt 1.052734 0.504883 0.0
vt -0.636719 0.303711 0.0
vt -1.234375 0.069336 0.0
v 0.000000 100.000778 5.671409
#joint 34
#vjoint 123
f 123/628 34/629 33/630
#fvcolorindex 34 34 34 
usemtl m45CullBothMirrorS
vt 1.052734 0.504883 0.0
vt -1.234375 0.069336 0.0
vt -0.244141 0.000000 0.0
f 123/631 33/632 83/633
#fvcolorindex 33 33 34 
vt 4.142578 0.000000 0.0
vt 4.427734 0.123047 0.0
vt 0.103516 0.431641 0.0
f 40/634 51/635 123/636
#fvcolorindex 33 34 34 
usemtl m44CullBothMirrorS
vt 0.000000 0.000000 0.0
vt 4.142578 0.000000 0.0
vt 0.103516 0.431641 0.0
f 49/637 40/638 123/639
#fvcolorindex 34 33 34 
vt 1.052734 0.504883 0.0
vt -0.244141 0.000000 0.0
vt 1.000000 0.000000 0.0
f 123/640 83/641 49/642
#fvcolorindex 34 34 34 
vt -1.234375 0.069336 0.0
vt -0.636719 0.303711 0.0
vt 1.052734 0.504883 0.0
f 38/643 34/644 123/645
#fvcolorindex 34 34 34 
vt -0.244141 0.000000 0.0
vt -1.234375 0.069336 0.0
vt 1.052734 0.504883 0.0
f 89/646 38/647 123/648
#fvcolorindex 34 33 33 
vt 0.103516 0.431641 0.0
vt 4.427734 0.123047 0.0
vt 4.142578 0.000000 0.0
f 123/649 51/650 41/651
#fvcolorindex 34 34 33 
vt 0.103516 0.431641 0.0
vt 4.142578 0.000000 0.0
vt 0.000000 0.000000 0.0
f 123/652 41/653 48/654
#fvcolorindex 34 33 34 
vt 1.000000 0.000000 0.0
vt -0.244141 0.000000 0.0
vt 1.052734 0.504883 0.0
f 48/655 89/656 123/657
#fvcolorindex 34 34 34 
vt -0.347656 -0.442383 0.0
vt -0.226562 -0.441406 0.0
vt -0.113281 0.165039 0.0
v -17.000000 90.675804 -1.152817
#joint 33
#vjoint 124
f 43/658 68/659 124/660
#fvcolorindex 34 34 34 
vt -0.113281 0.165039 0.0
vt -0.226562 -0.441406 0.0
vt -0.347656 -0.442383 0.0
v 17.000000 90.675804 -1.152817
#joint 33
#vjoint 125
f 125/661 75/662 46/663
#fvcolorindex 34 34 34 
usemtl m46CullBothMirrorS
vt -0.824707 0.867188 0.0
vt -0.373535 0.000000 0.0
vt 0.980957 0.000000 0.0
f 66/664 119/665 120/666
#fvcolorindex 31 34 42 
vt 1.720215 0.984375 0.0
vt -0.824707 0.867188 0.0
vt 0.980957 0.000000 0.0
f 115/667 66/668 120/669
#fvcolorindex 31 31 42 
usemtl m47CullBothMirrorS
vt 0.980957 0.000000 0.0
vt -0.373535 0.000000 0.0
vt -0.824707 0.867188 0.0
f 121/670 122/671 73/672
#fvcolorindex 42 34 31 
vt 0.980957 0.000000 0.0
vt -0.824707 0.867188 0.0
vt 1.720215 0.984375 0.0
f 121/673 73/674 115/675
#fvcolorindex 42 31 31 
usemtl m48CullBothMirrorS
vt 1.966797 0.844727 0.0
vt 2.025391 0.000000 0.0
vt 2.025391 0.000000 0.0
f 76/676 106/677 109/678
#fvcolorindex 39 47 47 
vt 1.966797 0.844727 0.0
vt 2.025391 0.000000 0.0
vt 1.966797 0.844727 0.0
f 76/679 109/680 77/681
#fvcolorindex 39 47 39 
usemtl m49CullBothMirrorS
vt 0.000000 0.000000 0.0
vt 0.060547 0.999023 0.0
vt 0.060547 0.999023 0.0
f 112/682 79/683 78/684
#fvcolorindex 35 37 37 
vt 0.000000 0.000000 0.0
vt 0.060547 0.999023 0.0
vt 0.000000 0.000000 0.0
f 112/685 78/686 111/687
#fvcolorindex 35 37 35 
usemtl m48CullBothMirrorS
vt 1.966797 0.844727 0.0
vt 2.025391 0.000000 0.0
vt 0.000000 0.000000 0.0
f 77/688 109/689 111/690
#fvcolorindex 39 49 49 
vt 1.966797 0.844727 0.0
vt 0.000000 0.000000 0.0
vt 0.060547 0.999023 0.0
f 77/691 111/692 78/693
#fvcolorindex 39 49 37 
usemtl m50CullBothMirrorS
vt 0.060547 0.999023 0.0
vt 0.000000 0.000000 0.0
vt 2.025391 0.000000 0.0
f 79/694 112/695 106/696
#fvcolorindex 37 49 49 
vt 0.060547 0.999023 0.0
vt 2.025391 0.000000 0.0
vt 1.966797 0.844727 0.0
f 79/697 106/698 76/699
#fvcolorindex 37 49 39 
usemtl m51CullBothMirrorSMirrorT
vt 0.867188 0.046875 0.0
vt 0.867188 1.046875 0.0
vt -0.132812 0.046875 0.0
#vcolor 235.000000 235.000000 235.000000 255.000000
f 114/700 115/701 113/702
#fvcolorindex 53 53 53 
vt -0.132812 0.046875 0.0
vt 0.867188 1.046875 0.0
vt 0.867188 0.046875 0.0
f 117/703 115/704 114/705
#fvcolorindex 53 53 53 
usemtl m52TransparentCullBothEnvMappingClampSClampTTexScaleS0.052735TexScaleT0.052735
vt 0.000000 0.000000 0.0
vt 0.000000 0.000000 0.0
vt 0.000000 0.000000 0.0
#vcolor 228.000000 215.000000 116.000000 255.000000
#vcolor 0.000000 238.000000 125.000000 255.000000
#vcolor 250.000000 243.000000 126.000000 255.000000
vn 1.795276 1.692913 0.913386
vn 0.000000 1.874016 0.984252
vn 1.968504 1.913386 0.992126
f 29/706/67 28/707/68 40/708/69
#fvcolorindex 54 55 56 
usemtl m53TransparentCullBothEnvMappingClampSClampTTexScaleS0.052735TexScaleT0.052735
vt 0.000000 0.000000 0.0
vt 0.000000 0.000000 0.0
vt 0.000000 0.000000 0.0
#vcolor 6.000000 243.000000 126.000000 255.000000
#vcolor 28.000000 215.000000 116.000000 255.000000
vn 0.047244 1.913386 0.992126
vn 0.000000 1.874016 0.984252
vn 0.220472 1.692913 0.913386
f 41/709/70 28/710/71 36/711/72
#fvcolorindex 57 55 58 
g secondary_Part05_Room03
usemtl m54TransparentCullBothClampSClampT
vt -0.102431 0.000000 0.0
vt 0.000000 -0.239005 0.0
vt 0.000000 0.000000 0.0
f 33/712 34/713 35/714
#fvcolorindex 34 34 34 
vt -0.102431 0.000000 0.0
vt -0.102431 -0.239005 0.0
vt 0.000000 0.000000 0.0
f 35/715 34/716 38/717
#fvcolorindex 34 34 34 
usemtl m55TransparentCullBothClampSClampT
vt 0.000000 0.000000 0.0
vt -0.090278 0.000000 0.0
vt 0.000000 -0.219329 0.0
f 30/718 31/719 32/720
#fvcolorindex 33 33 34 
usemtl m54TransparentCullBothClampSClampT
vt -0.090278 -0.219329 0.0
vt 0.000000 0.000000 0.0
vt -0.090278 0.000000 0.0
f 32/721 39/722 30/723
#fvcolorindex 34 33 33 
usemtl m55TransparentCullBothClampSClampT
vt 0.000000 0.000000 0.0
vt -0.222801 0.000000 0.0
vt -0.293403 -0.083912 0.0
f 49/724 29/725 40/726
#fvcolorindex 33 32 49 
usemtl m56TransparentCullBothClampSClampT
vt -0.109375 0.000000 0.0
vt 0.000000 0.000000 0.0
vt 0.144097 0.170139 0.0
f 41/727 36/728 48/729
#fvcolorindex 49 49 33 
usemtl m57TransparentCullBoth
vt 3.893555 0.000000 0.0
vt -1.580078 0.928711 0.0
vt -0.035156 0.000000 0.0
f 43/730 105/731 44/732
#fvcolorindex 35 34 35 
vt -0.035156 0.000000 0.0
vt -1.580078 0.928711 0.0
vt 3.893555 0.000000 0.0
f 45/733 102/734 46/735
#fvcolorindex 35 34 35 
usemtl m58TransparentCullBoth
vt 0.048828 0.544922 0.0
vt 0.000000 0.000000 0.0
vt 4.672852 0.000000 0.0
#vcolor 166.000000 166.000000 166.000000 255.000000
v -6.000000 53.675804 71.847183
#joint 33
#vjoint 126
f 67/736 66/737 126/738
#fvcolorindex 59 31 31 
vt 0.048828 0.544922 0.0
vt 4.672852 0.000000 0.0
vt 4.633789 0.298828 0.0
v -17.000000 52.675804 71.847183
#joint 33
#vjoint 127
f 67/739 126/740 127/741
#fvcolorindex 59 31 59 
vt 4.633789 0.298828 0.0
vt 4.672852 0.000000 0.0
vt 0.000000 0.000000 0.0
v 17.000000 52.675804 71.847183
#joint 33
#vjoint 128
v 6.000000 53.675804 71.847183
#joint 33
#vjoint 129
f 128/742 129/743 73/744
#fvcolorindex 59 31 31 
vt 4.633789 0.298828 0.0
vt 0.000000 0.000000 0.0
vt 0.048828 0.544922 0.0
f 128/745 73/746 72/747
#fvcolorindex 59 31 59 
usemtl m59TransparentCullBothMirrorS
vt 0.982422 0.027344 0.0
vt 0.496094 0.799805 0.0
vt -0.362305 0.346680 0.0
v -28.000000 70.675804 -58.152817
#joint 33
#vjoint 130
f 124/748 68/749 130/750
#fvcolorindex 34 34 34 
vt 0.982422 0.027344 0.0
vt -0.362305 0.346680 0.0
vt 0.000000 0.000000 0.0
v -25.000000 70.675804 -40.152817
#joint 33
#vjoint 131
f 124/751 130/752 131/753
#fvcolorindex 34 34 34 
vt 0.000000 0.000000 0.0
vt -0.362305 0.346680 0.0
vt 0.496094 0.799805 0.0
v 25.000000 70.675804 -40.152817
#joint 33
#vjoint 132
v 28.000000 70.675804 -58.152817
#joint 33
#vjoint 133
f 132/754 133/755 75/756
#fvcolorindex 34 34 34 
vt 0.000000 0.000000 0.0
vt 0.496094 0.799805 0.0
vt 0.982422 0.027344 0.0
f 132/757 75/758 125/759
#fvcolorindex 34 34 34 
usemtl m60TransparentCullBoth
vt -2.744141 -1.421875 0.0
vt -5.582031 -0.581055 0.0
vt -2.500000 -3.034180 0.0
v -17.000000 70.675804 36.847183
#joint 33
#vjoint 134
f 124/760 131/761 134/762
#fvcolorindex 35 35 34 
usemtl m61TransparentCullBoth
vt -2.500000 -3.034180 0.0
vt -5.582031 -0.581055 0.0
vt -2.744141 -1.421875 0.0
v 17.000000 70.675804 36.847183
#joint 33
#vjoint 135
f 135/763 132/764 125/765
#fvcolorindex 34 35 35 
usemtl m62TransparentCullBothMirrorS
vt -0.225098 -0.781250 0.0
vt -0.630371 -1.876953 0.0
vt 0.808105 -1.876953 0.0
f 131/766 67/767 127/768
#fvcolorindex 34 32 32 
vt -0.225098 -0.781250 0.0
vt 0.808105 -1.876953 0.0
vt 0.488770 -0.867188 0.0
f 131/769 127/770 134/771
#fvcolorindex 34 32 34 
vt -0.394531 -0.765625 0.0
vt -0.630371 -1.876953 0.0
vt -0.225098 -0.781250 0.0
f 130/772 67/773 131/774
#fvcolorindex 34 34 34 
vt 0.488770 -0.867188 0.0
vt 0.808105 -1.876953 0.0
vt -0.630371 -1.876953 0.0
f 135/775 128/776 72/777
#fvcolorindex 34 32 32 
vt 0.488770 -0.867188 0.0
vt -0.630371 -1.876953 0.0
vt -0.225098 -0.781250 0.0
f 135/778 72/779 132/780
#fvcolorindex 34 32 34 
vt -0.225098 -0.781250 0.0
vt -0.630371 -1.876953 0.0
vt -0.394531 -0.765625 0.0
f 132/781 72/782 133/783
#fvcolorindex 34 34 34 
g Room07
g Room07_primary
usemtl m63TransparentCullBothClampSClampT
vt 0.968750 0.968750 0.0
vt 0.000000 0.968750 0.0
vt 0.000000 0.000000 0.0
v 0.000000 152.290344 240.000000
#joint 36
#vjoint 136
#vcolor 254.000000 254.000000 254.000000 255.000000
v 124.000000 152.290344 240.000000
#joint 36
#vjoint 137
v 124.000000 13.290338 240.000000
#joint 36
#vjoint 138
f 136/784 137/785 138/786
#fvcolorindex 60 60 60 
vt 0.968750 0.968750 0.0
vt 0.000000 0.000000 0.0
vt 0.968750 0.000000 0.0
v 0.000000 13.290338 240.000000
#joint 36
#vjoint 139
f 136/787 138/788 139/789
#fvcolorindex 60 60 60 
usemtl m64TransparentCullBothClampSClampT
vt 0.968750 0.968750 0.0
vt 0.000000 0.968750 0.0
vt 0.000000 0.000000 0.0
v -124.000000 152.290344 240.000000
#joint 36
#vjoint 140
f 140/790 136/791 139/792
#fvcolorindex 60 60 60 
vt 0.968750 0.968750 0.0
vt 0.000000 0.000000 0.0
vt 0.968750 0.000000 0.0
v -124.000000 13.290338 240.000000
#joint 36
#vjoint 141
f 140/793 139/794 141/795
#fvcolorindex 60 60 60 
usemtl m65TransparentCullBothClampSClampT
vt 0.968750 0.968750 0.0
vt 0.000000 0.968750 0.0
vt 0.000000 0.000000 0.0
v 124.000000 -125.709663 240.000000
#joint 36
#vjoint 142
f 139/796 138/797 142/798
#fvcolorindex 60 60 60 
vt 0.968750 0.968750 0.0
vt 0.000000 0.000000 0.0
vt 0.968750 0.000000 0.0
v 0.000000 -125.709663 240.000000
#joint 36
#vjoint 143
f 139/799 142/800 143/801
#fvcolorindex 60 60 60 
usemtl m66TransparentCullBothClampSClampT
vt 0.968750 0.968750 0.0
vt 0.000000 0.968750 0.0
vt 0.000000 0.000000 0.0
f 141/802 139/803 143/804
#fvcolorindex 60 60 60 
vt 0.968750 0.968750 0.0
vt 0.000000 0.000000 0.0
vt 0.968750 0.000000 0.0
v -124.000000 -125.709663 240.000000
#joint 36
#vjoint 144
f 141/805 143/806 144/807
#fvcolorindex 60 60 60 
