# Created by SubDrag and the GoldenEye Setup Editor V4.4
mtllib body armour.mtl
v -77.999992 -71.000000 -110.000000
vt 0.283203 0.838542 0.0
v 73.000008 -71.000000 -109.000000
vt 0.690430 0.841146 0.0
v 40.000008 -44.000000 -188.000000
vt 0.604492 0.960938 0.0
v -21.999992 -46.000000 -187.000000
vt 0.435547 0.957682 0.0
v 197.000000 -48.000000 -127.000000
vt 1.024414 0.872396 0.0
v -197.000000 -48.000000 -127.000000
vt -0.038086 0.860677 0.0
v -197.000000 -10.000000 -148.000000
vt 1.000000 0.194336 0.0
v -152.000000 -47.000000 -142.000000
vt 0.114258 0.866211 0.0
v -162.000000 -13.000000 -163.000000
vt 1.000000 0.789062 0.0
v -197.000000 -48.000000 -127.000000
vt 0.018555 0.141602 0.0
v -195.000000 10.000000 6.999985
vt 0.010742 0.011719 0.0
v -143.000000 -13.000000 140.999985
vt 0.918945 0.432617 0.0
v -193.000000 -31.000000 16.999985
vt 0.038086 0.785156 0.0
v -59.999992 -46.000000 -174.000000
vt 0.126953 -0.862305 0.0
v -105.999992 -18.000000 -186.000000
vt 1.000977 -0.152344 0.0
v -104.999992 -47.000000 -158.000000
vt 0.020508 -0.139648 0.0
v -105.999992 -18.000000 -186.000000
vt 1.000977 -0.152344 0.0
v -59.999992 -46.000000 -174.000000
vt 0.126953 -0.862305 0.0
v -69.999992 -21.000000 -201.000000
vt 1.002930 -0.754883 0.0
v 197.000000 -48.000000 -127.000000
vt 0.041016 0.183594 0.0
v 196.000000 -9.000000 -145.000000
vt 1.000000 0.189453 0.0
v 152.000000 -47.000000 -144.000000
vt 0.163086 0.740234 0.0
v 161.000000 -13.000000 -162.000000
vt 1.000000 0.649414 0.0
v 106.000008 -46.000000 -162.000000
vt 0.029297 0.171875 0.0
v 105.000008 -18.000000 -187.000000
vt 0.994141 0.221680 0.0
v 63.000008 -44.000000 -179.000000
vt 0.152344 0.905273 0.0
v 71.000008 -22.000000 -203.000000
vt 0.976562 0.840820 0.0
v 192.000000 -32.000000 18.999985
vt 0.120117 0.843750 0.0
v 146.000000 -13.000000 139.999985
vt 1.000000 0.684570 0.0
v 194.000000 11.000000 6.999985
vt 0.023438 0.166992 0.0
v 4.000007 -65.000000 41.999985
vt 0.546875 0.297852 0.0
v -97.999992 -57.000000 135.999985
vt 0.307617 0.049805 0.0
v 112.000008 -56.000000 136.999985
vt 0.799805 0.045898 0.0
v 73.000008 -71.000000 -109.000000
vt 0.709961 0.687500 0.0
v 108.000008 -60.000000 28.999985
vt 0.791992 0.324219 0.0
v -86.999992 -63.000000 30.999985
vt 0.334961 0.324219 0.0
v -193.000000 -31.000000 16.999985
vt 0.084961 0.319336 0.0
v -197.000000 -48.000000 -127.000000
vt 0.075195 0.703125 0.0
v -77.999992 -71.000000 -110.000000
vt 0.355469 0.690430 0.0
v 146.000000 -13.000000 139.999985
vt 0.879883 -0.015625 0.0
v 192.000000 -32.000000 18.999985
vt 0.988281 0.317383 0.0
v -143.000000 -13.000000 140.999985
vt 0.202148 -0.017578 0.0
v 197.000000 -48.000000 -127.000000
vt 1.000000 0.706055 0.0
v 6.000007 12.000000 -149.000000
vt 0.963867 0.607422 0.0
v 197.000000 14.000000 -107.000000
vt 0.094727 0.375000 0.0
v 5.000007 71.000000 -9.000015
vt 0.967773 0.077148 0.0
v 196.000000 -9.000000 -145.000000
vt 0.101562 0.521484 0.0
v 6.000007 12.000000 -149.000000
vt 0.963867 0.607422 0.0
v 71.000008 -22.000000 -203.000000
vt 0.669922 0.788086 0.0
v 197.000000 14.000000 -107.000000
vt 0.094727 0.375000 0.0
v 153.000000 57.000000 3.999985
vt 0.298828 -0.027344 0.0
v 5.000007 71.000000 -9.000015
vt 0.967773 0.077148 0.0
v 194.000000 11.000000 6.999985
vt 0.109375 -0.053711 0.0
v -197.000000 -10.000000 -148.000000
vt 0.920898 0.604492 0.0
v -69.999992 -21.000000 -201.000000
vt 0.342773 0.805664 0.0
v 6.000007 12.000000 -149.000000
vt -0.004883 0.607422 0.0
v -196.000000 15.000000 -108.000000
vt 0.916992 0.451172 0.0
v 5.000007 71.000000 -9.000015
vt -0.000977 0.078125 0.0
v -155.000000 57.000000 3.999985
vt 0.727539 0.028320 0.0
v -195.000000 10.000000 6.999985
vt 0.912109 0.017578 0.0
v 153.000000 57.000000 3.999985
vt 0.223633 0.906250 0.0
v 146.000000 -13.000000 139.999985
vt 0.258789 0.285156 0.0
v 75.000008 58.000000 202.999985
vt 0.618164 -0.000977 0.0
v 5.000007 71.000000 -9.000015
vt 0.967773 0.964844 0.0
v 3.000007 58.000000 202.999985
vt 0.978516 0.000000 0.0
v 194.000000 11.000000 6.999985
vt 0.014648 0.893555 0.0
v 5.000007 71.000000 -9.000015
vt -0.000977 0.964844 0.0
v 3.000007 58.000000 202.999985
vt 0.008789 0.000000 0.0
v -67.999992 58.000000 202.999985
vt 0.333984 0.000977 0.0
v -155.000000 57.000000 3.999985
vt 0.727539 0.906250 0.0
v -195.000000 10.000000 6.999985
vt 0.912109 0.893555 0.0
v -143.000000 -13.000000 140.999985
vt 0.673828 0.282227 0.0
g primary
usemtl m0CullBothClampSClampT
f 1/1 2/2 3/3
usemtl m0CullBothClampSClampT
f 4/4 1/1 3/3
f 2/2 5/5 3/3
f 4/4 6/6 1/1
usemtl m1CullBoth
f 7/7 8/8 9/9
usemtl m1CullBoth
f 8/8 7/7 10/10
f 11/11 12/12 13/13
f 14/14 15/15 16/16
f 17/17 18/18 19/19
f 20/20 21/21 22/22
f 23/23 22/22 21/21
f 24/24 25/25 26/26
f 27/27 26/26 25/25
f 28/28 29/29 30/30
usemtl m2CullBoth
f 31/31 32/32 33/33
usemtl m2CullBoth
f 34/34 31/31 35/35
f 35/35 31/31 33/33
f 36/36 37/37 32/32
f 38/38 37/37 36/36
f 39/39 31/31 34/34
f 33/33 40/40 41/41
f 32/32 37/37 42/42
f 36/36 31/31 39/39
f 38/38 36/36 39/39
f 31/31 36/36 32/32
f 35/35 41/41 43/43
f 35/35 33/33 41/41
f 34/34 35/35 43/43
usemtl m3CullBothClampSClampT
f 44/44 45/45 46/46
usemtl m3CullBothClampSClampT
f 47/47 48/48 49/49
f 50/50 51/51 52/52
f 47/47 50/50 48/48
f 50/50 53/53 51/51
usemtl m4CullBothClampSClampT
f 54/54 55/55 56/56
usemtl m4CullBothClampSClampT
f 57/57 58/58 59/59
f 57/57 56/56 58/58
f 57/57 54/54 56/56
f 60/60 57/57 59/59
usemtl m5CullBothClampSClampT
f 61/61 62/62 63/63
usemtl m5CullBothClampSClampT
f 64/64 63/63 65/65
f 64/64 61/61 63/63
f 62/62 61/61 66/66
usemtl m6CullBothClampSClampT
f 67/67 68/68 69/69
usemtl m6CullBothClampSClampT
f 70/70 67/67 69/69
f 71/71 70/70 72/72
f 70/70 69/69 72/72
g secondary
