# Created by SubDrag and the GoldenEye Setup Editor V4.4
mtllib Gun0007.mtl
#joint 0
#jointposition 0.000000 -20.375574 -74.143860
#joint 1
#jointposition -0.126130 -34.500000 -403.726105
#joint 2
#jointposition 0.000000 -20.375574 -74.143860
#joint 3
#jointposition 28.404760 -54.346611 -32.664295
#joint 4
#jointposition 50.075203 -78.841194 -10.664248
#joint 5
#jointposition 28.643808 -16.714527 20.778549
#joint 6
#jointposition 26.518341 -24.155291 60.154758
#joint 7
#jointposition 24.862719 -25.637974 87.085503
#joint 8
#jointposition 8.820322 -11.296313 21.695198
#joint 9
#jointposition 8.668717 -23.348385 71.418152
#joint 10
#jointposition 7.570724 -26.182207 98.349426
#joint 11
#jointposition -7.449821 -15.536673 21.601517
#joint 12
#jointposition -6.777197 -21.532187 62.353848
#joint 13
#jointposition -6.290760 -23.494061 85.077034
#joint 14
#jointposition -23.590879 -23.057791 21.828247
#joint 15
#jointposition -21.894306 -25.130569 56.929543
#joint 16
#jointposition -20.740978 -24.727604 74.077179
#joint 17
#jointposition 234.474915 -34.500000 -403.725983
#joint 18
#jointposition 234.348785 -20.375599 -74.143890
#joint 19
#jointposition 205.943985 -54.346600 -32.664291
#joint 20
#jointposition 184.273590 -78.841202 -10.664192
#joint 21
#jointposition 205.704987 -16.714600 20.778511
#joint 22
#jointposition 207.830490 -24.155300 60.154812
#joint 23
#jointposition 209.561584 -25.811800 87.094810
#joint 24
#jointposition 225.528473 -11.296299 21.695213
#joint 25
#jointposition 225.680069 -23.348400 71.418114
#joint 26
#jointposition 226.778076 -26.182199 98.349411
#joint 27
#jointposition 241.798599 -15.536699 21.601509
#joint 28
#jointposition 241.125977 -21.532200 62.353809
#joint 29
#jointposition 240.639542 -23.494101 85.077011
#joint 30
#jointposition 257.939697 -23.057798 21.828209
#joint 31
#jointposition 256.243103 -25.130598 56.929508
#joint 32
#jointposition 255.089798 -24.727598 74.077209
#joint 33
#jointposition 0.000000 24.449511 -89.871246
#joint 34
#jointposition 0.000000 32.961548 160.958801
#joint 35
#jointposition 24.367533 31.951448 25.120392
#joint 36
#jointposition 27.895679 30.985382 87.270050
#joint 37
#jointposition 60.879974 33.564850 58.596817
#joint 38
#jointposition 60.879974 33.604816 5.459209
#joint 39
#jointposition 60.879974 33.529736 111.707901
#connection 0 1
#connection 1 2
#connection 2 3
#connection 3 4
#connection 2 5
#connection 5 6
#connection 6 7
#connection 2 8
#connection 8 9
#connection 9 10
#connection 2 11
#connection 11 12
#connection 12 13
#connection 2 14
#connection 14 15
#connection 15 16
#connection 2 33
#connection 33 34
#connection 33 35
#connection 33 36
#connection 0 17
#connection 17 18
#connection 18 19
#connection 19 20
#connection 18 21
#connection 21 22
#connection 22 23
#connection 18 24
#connection 24 25
#connection 25 26
#connection 18 27
#connection 27 28
#connection 28 29
#connection 18 30
#connection 30 31
#connection 31 32
#connection 18 37
#connection 37 38
#connection 37 39
g Room01
g Room01_primary
usemtl m0CullBothMirrorSMirrorT
vt 1.000000 0.000000 0.0
vt 2.000000 0.000000 0.0
vt 2.000000 2.000000 0.0
v 0.000000 22.449511 159.128754
#joint 33
#vjoint 1
#vcolor 255.000000 255.000000 255.000000 255.000000
v 16.000000 25.449511 153.128754
#joint 33
#vjoint 2
v 16.000000 44.449509 153.128754
#joint 33
#vjoint 3
f 1/1 2/2 3/3
#fvcolorindex 1 1 1 
vt 1.000000 0.000000 0.0
vt 2.000000 2.000000 0.0
vt 1.000000 2.005859 0.0
v 0.000000 44.449509 163.128754
#joint 33
#vjoint 4
f 1/4 3/5 4/6
#fvcolorindex 1 1 1 
vt 0.000000 2.000000 0.0
vt 0.000000 0.000000 0.0
vt 1.000000 0.000000 0.0
v -16.000000 44.449509 153.128754
#joint 33
#vjoint 5
v -16.000000 25.449511 153.128754
#joint 33
#vjoint 6
f 5/7 6/8 1/9
#fvcolorindex 1 1 1 
vt 1.000000 2.005859 0.0
vt 0.000000 2.000000 0.0
vt 1.000000 0.000000 0.0
f 4/10 5/11 1/12
#fvcolorindex 1 1 1 
usemtl m1CullBothClampSClampT
vt 0.940430 0.738281 0.0
vt 0.940430 0.848633 0.0
vt 0.830078 0.826172 0.0
v 22.367533 62.951447 25.120392
#joint 35
#vjoint 7
v 16.000000 78.449509 25.128754
#joint 33
#vjoint 8
v 16.000000 75.449509 41.128754
#joint 33
#vjoint 9
f 7/13 8/14 9/15
#fvcolorindex 1 1 1 
vt 0.830078 0.826172 0.0
vt 0.566406 0.782227 0.0
vt 0.698242 0.738281 0.0
v 16.000000 69.449509 78.128754
#joint 33
#vjoint 10
v 21.895679 62.985382 59.270050
#joint 36
#vjoint 11
f 9/16 10/17 11/18
#fvcolorindex 1 1 1 
vt 0.566406 0.782227 0.0
vt 0.346680 0.738281 0.0
vt 0.478516 0.716797 0.0
v 16.000000 63.449509 109.128754
#joint 33
#vjoint 12
v 21.895679 58.985382 91.270050
#joint 36
#vjoint 13
f 10/19 12/20 13/21
#fvcolorindex 1 1 1 
vt 0.346680 0.738281 0.0
vt 0.169922 0.672852 0.0
vt 0.302734 0.650391 0.0
v 16.000000 53.449509 134.128754
#joint 33
#vjoint 14
v 21.895679 49.985382 116.270050
#joint 36
#vjoint 15
f 12/22 14/23 15/24
#fvcolorindex 1 1 1 
vt 0.169922 0.672852 0.0
vt 0.038086 0.606445 0.0
vt 0.104492 0.518555 0.0
v 22.000000 31.449511 144.128754
#joint 33
#vjoint 16
f 14/25 3/26 16/27
#fvcolorindex 1 1 1 
vt 0.104492 0.518555 0.0
vt 0.038086 0.606445 0.0
vt 0.038086 0.474609 0.0
f 16/28 3/29 2/30
#fvcolorindex 1 1 1 
vt 0.148438 0.408203 0.0
vt 0.104492 0.518555 0.0
vt 0.038086 0.474609 0.0
v 16.000000 16.449511 138.128754
#joint 33
#vjoint 17
f 17/31 16/32 2/33
#fvcolorindex 1 1 1 
vt 0.299805 0.250000 0.0
vt 0.302734 0.408203 0.0
vt 0.148438 0.408203 0.0
v 16.000000 0.449511 109.128754
#joint 33
#vjoint 18
v 21.895679 15.985382 116.270050
#joint 36
#vjoint 19
f 18/34 19/35 17/36
#fvcolorindex 1 1 1 
vt 0.299805 0.250000 0.0
vt 0.522461 0.210938 0.0
vt 0.500000 0.342773 0.0
v 16.000000 -11.550489 84.128754
#joint 33
#vjoint 20
v 21.895679 5.985382 88.270050
#joint 36
#vjoint 21
f 18/37 20/38 21/39
#fvcolorindex 1 1 1 
vt 0.522461 0.210938 0.0
vt 0.719727 0.166992 0.0
vt 0.763672 0.254883 0.0
v 16.000000 -18.550489 56.128754
#joint 33
#vjoint 22
v 22.367533 -6.048552 50.120392
#joint 35
#vjoint 23
f 20/40 22/41 23/42
#fvcolorindex 1 1 1 
vt 0.763672 0.254883 0.0
vt 0.719727 0.166992 0.0
vt 0.874023 0.210938 0.0
v 16.000000 -11.550489 34.128754
#joint 33
#vjoint 24
f 23/43 22/44 24/45
#fvcolorindex 1 1 1 
vt 1.072266 0.320312 0.0
vt 1.005859 0.342773 0.0
vt 0.874023 0.210938 0.0
v 16.000000 3.449511 6.128754
#joint 33
#vjoint 25
v 22.367533 5.951448 16.120392
#joint 35
#vjoint 26
f 25/46 26/47 24/48
#fvcolorindex 1 1 1 
vt 0.763672 0.254883 0.0
vt 0.874023 0.210938 0.0
vt 1.005859 0.342773 0.0
f 23/49 24/50 26/51
#fvcolorindex 1 1 1 
vt 0.500000 0.342773 0.0
vt 0.522461 0.210938 0.0
vt 0.763672 0.254883 0.0
f 21/52 20/53 23/54
#fvcolorindex 1 1 1 
vt 0.302734 0.408203 0.0
vt 0.299805 0.250000 0.0
vt 0.500000 0.342773 0.0
f 19/55 18/56 21/57
#fvcolorindex 1 1 1 
vt 0.104492 0.518555 0.0
vt 0.148438 0.408203 0.0
vt 0.302734 0.408203 0.0
f 16/58 17/59 19/60
#fvcolorindex 1 1 1 
vt 0.302734 0.650391 0.0
vt 0.169922 0.672852 0.0
vt 0.104492 0.518555 0.0
f 15/61 14/62 16/63
#fvcolorindex 1 1 1 
vt 0.478516 0.716797 0.0
vt 0.346680 0.738281 0.0
vt 0.302734 0.650391 0.0
f 13/64 12/65 15/66
#fvcolorindex 1 1 1 
vt 0.698242 0.738281 0.0
vt 0.566406 0.782227 0.0
vt 0.478516 0.716797 0.0
f 11/67 10/68 13/69
#fvcolorindex 1 1 1 
vt 0.940430 0.738281 0.0
vt 0.830078 0.826172 0.0
vt 0.698242 0.738281 0.0
f 7/70 9/71 11/72
#fvcolorindex 1 1 1 
vt 0.500000 0.342773 0.0
vt 0.719727 0.342773 0.0
vt 0.500000 0.518555 0.0
v 25.367533 5.951448 56.120392
#joint 35
#vjoint 27
v 27.895679 30.985382 88.270050
#joint 36
#vjoint 28
f 21/73 27/74 28/75
#fvcolorindex 1 1 1 
vt 0.500000 0.518555 0.0
vt 0.719727 0.342773 0.0
vt 0.698242 0.518555 0.0
v 28.367533 30.951448 59.120392
#joint 35
#vjoint 29
#vcolor 65.000000 133.000000 165.000000 255.000000
f 28/76 27/77 29/78
#fvcolorindex 1 1 2 
vt 0.478516 0.716797 0.0
vt 0.302734 0.650391 0.0
vt 0.500000 0.518555 0.0
f 13/79 15/80 28/81
#fvcolorindex 1 1 1 
vt 0.500000 0.342773 0.0
vt 0.500000 0.518555 0.0
vt 0.302734 0.408203 0.0
f 21/82 28/83 19/84
#fvcolorindex 1 1 1 
vt 0.698242 0.738281 0.0
vt 0.478516 0.716797 0.0
vt 0.500000 0.518555 0.0
f 11/85 13/86 28/87
#fvcolorindex 1 1 1 
usemtl m2CullBothClampSClampT
vt 0.698242 0.518555 0.0
vt 0.698242 0.738281 0.0
vt 0.500000 0.518555 0.0
f 29/88 11/89 28/90
#fvcolorindex 2 1 1 
usemtl m1CullBothClampSClampT
vt 0.940430 0.738281 0.0
vt 0.698242 0.738281 0.0
vt 0.698242 0.518555 0.0
f 7/91 11/92 29/93
#fvcolorindex 1 1 2 
vt 0.940430 0.738281 0.0
vt 0.698242 0.518555 0.0
vt 0.940430 0.518555 0.0
v 25.367533 30.951448 25.120392
#joint 35
#vjoint 30
f 7/94 29/95 30/96
#fvcolorindex 1 2 2 
vt 1.005859 0.342773 0.0
vt 0.940430 0.518555 0.0
vt 0.698242 0.518555 0.0
f 26/97 30/98 29/99
#fvcolorindex 1 2 2 
vt 0.719727 0.342773 0.0
vt 1.005859 0.342773 0.0
vt 0.698242 0.518555 0.0
f 27/100 26/101 29/102
#fvcolorindex 1 1 2 
vt 0.763672 0.254883 0.0
vt 1.005859 0.342773 0.0
vt 0.719727 0.342773 0.0
f 23/103 26/104 27/105
#fvcolorindex 1 1 1 
vt 0.763672 0.254883 0.0
vt 0.719727 0.342773 0.0
vt 0.500000 0.342773 0.0
f 23/106 27/107 21/108
#fvcolorindex 1 1 1 
vt 0.302734 0.408203 0.0
vt 0.500000 0.518555 0.0
vt 0.104492 0.518555 0.0
f 19/109 28/110 16/111
#fvcolorindex 1 1 1 
vt 0.104492 0.518555 0.0
vt 0.500000 0.518555 0.0
vt 0.302734 0.650391 0.0
f 16/112 28/113 15/114
#fvcolorindex 1 1 1 
vt 0.719727 0.166992 0.0
vt 0.522461 0.210938 0.0
vt 0.500000 0.166992 0.0
v 0.000000 -18.550489 88.128754
#joint 33
#vjoint 31
#vcolor 41.000000 74.000000 90.000000 255.000000
f 22/115 20/116 31/117
#fvcolorindex 1 1 3 
usemtl m3CullBothClampSClampT
vt 0.719727 0.117188 0.0
vt 0.719727 0.166992 0.0
vt 0.500000 0.166992 0.0
v 0.000000 -25.550489 56.128754
#joint 33
#vjoint 32
f 32/118 22/119 31/120
#fvcolorindex 3 1 3 
vt 0.896484 0.188477 0.0
vt 1.072266 0.298828 0.0
vt 1.072266 0.320312 0.0
v 0.000000 -15.550489 31.128754
#joint 33
#vjoint 33
v 0.000000 0.449511 6.128754
#joint 33
#vjoint 34
f 33/121 34/122 25/123
#fvcolorindex 3 1 1 
vt 0.896484 0.188477 0.0
vt 1.072266 0.320312 0.0
vt 0.874023 0.210938 0.0
f 33/124 25/125 24/126
#fvcolorindex 3 1 1 
vt 0.719727 0.117188 0.0
vt 0.896484 0.188477 0.0
vt 0.874023 0.210938 0.0
f 32/127 33/128 24/129
#fvcolorindex 3 3 1 
vt 0.719727 0.117188 0.0
vt 0.874023 0.210938 0.0
vt 0.719727 0.166992 0.0
f 32/130 24/131 22/132
#fvcolorindex 3 1 1 
usemtl m1CullBothClampSClampT
vt 0.148438 0.408203 0.0
vt 0.038086 0.474609 0.0
vt -0.005859 0.452148 0.0
f 17/133 2/134 1/135
#fvcolorindex 1 1 1 
vt 0.148438 0.408203 0.0
vt -0.005859 0.452148 0.0
vt 0.125977 0.364258 0.0
v 0.000000 9.449511 141.128754
#joint 33
#vjoint 35
f 17/136 1/137 35/138
#fvcolorindex 1 1 1 
vt 0.299805 0.250000 0.0
vt 0.148438 0.408203 0.0
vt 0.125977 0.364258 0.0
f 18/139 17/140 35/141
#fvcolorindex 1 1 1 
vt 0.299805 0.250000 0.0
vt 0.125977 0.364258 0.0
vt 0.299805 0.200195 0.0
v 0.000000 -5.550489 113.128754
#joint 33
#vjoint 36
f 18/142 35/143 36/144
#fvcolorindex 1 1 1 
vt 0.522461 0.210938 0.0
vt 0.299805 0.250000 0.0
vt 0.299805 0.200195 0.0
f 20/145 18/146 36/147
#fvcolorindex 1 1 1 
vt 0.522461 0.210938 0.0
vt 0.299805 0.200195 0.0
vt 0.500000 0.166992 0.0
f 20/148 36/149 31/150
#fvcolorindex 1 1 3 
usemtl m3CullBothClampSClampT
vt 0.500000 0.166992 0.0
vt 0.522461 0.210938 0.0
vt 0.719727 0.166992 0.0
v -16.000000 -11.550489 84.128754
#joint 33
#vjoint 37
v -16.000000 -18.550489 56.128754
#joint 33
#vjoint 38
f 31/151 37/152 38/153
#fvcolorindex 3 1 1 
vt 0.500000 0.166992 0.0
vt 0.719727 0.166992 0.0
vt 0.719727 0.117188 0.0
f 31/154 38/155 32/156
#fvcolorindex 3 1 3 
usemtl m1CullBothClampSClampT
vt 1.072266 0.320312 0.0
vt 1.072266 0.298828 0.0
vt 0.896484 0.188477 0.0
v -16.000000 3.449511 6.128754
#joint 33
#vjoint 39
f 39/157 34/158 33/159
#fvcolorindex 1 1 3 
vt 0.874023 0.210938 0.0
vt 1.072266 0.320312 0.0
vt 0.896484 0.188477 0.0
v -16.000000 -11.550489 34.128754
#joint 33
#vjoint 40
f 40/160 39/161 33/162
#fvcolorindex 1 1 3 
vt 0.874023 0.210938 0.0
vt 0.896484 0.188477 0.0
vt 0.719727 0.117188 0.0
f 40/163 33/164 32/165
#fvcolorindex 1 3 3 
vt 0.719727 0.166992 0.0
vt 0.874023 0.210938 0.0
vt 0.719727 0.117188 0.0
f 38/166 40/167 32/168
#fvcolorindex 1 1 3 
vt -0.005859 0.452148 0.0
vt 0.038086 0.474609 0.0
vt 0.148438 0.408203 0.0
v -16.000000 16.449511 138.128754
#joint 33
#vjoint 41
f 1/169 6/170 41/171
#fvcolorindex 1 1 1 
vt 0.125977 0.364258 0.0
vt -0.005859 0.452148 0.0
vt 0.148438 0.408203 0.0
f 35/172 1/173 41/174
#fvcolorindex 1 1 1 
vt 0.125977 0.364258 0.0
vt 0.148438 0.408203 0.0
vt 0.299805 0.250000 0.0
v -16.000000 0.449511 109.128754
#joint 33
#vjoint 42
f 35/175 41/176 42/177
#fvcolorindex 1 1 1 
vt 0.299805 0.200195 0.0
vt 0.125977 0.364258 0.0
vt 0.299805 0.250000 0.0
f 36/178 35/179 42/180
#fvcolorindex 1 1 1 
vt 0.299805 0.200195 0.0
vt 0.299805 0.250000 0.0
vt 0.522461 0.210938 0.0
f 36/181 42/182 37/183
#fvcolorindex 1 1 1 
usemtl m3CullBothClampSClampT
vt 0.500000 0.166992 0.0
vt 0.299805 0.200195 0.0
vt 0.522461 0.210938 0.0
f 31/184 36/185 37/186
#fvcolorindex 3 1 1 
usemtl m1CullBothClampSClampT
vt 0.830078 0.826172 0.0
vt 0.940430 0.848633 0.0
vt 0.940430 0.738281 0.0
v -16.000000 75.449509 41.128754
#joint 33
#vjoint 43
v -16.000000 78.449509 25.128754
#joint 33
#vjoint 44
v -22.000000 63.449509 25.128754
#joint 33
#vjoint 45
f 43/187 44/188 45/189
#fvcolorindex 1 1 1 
vt 0.698242 0.738281 0.0
vt 0.566406 0.782227 0.0
vt 0.830078 0.826172 0.0
v -22.000000 63.449509 59.128754
#joint 33
#vjoint 46
v -16.000000 69.449509 78.128754
#joint 33
#vjoint 47
f 46/190 47/191 43/192
#fvcolorindex 1 1 1 
vt 0.478516 0.716797 0.0
vt 0.346680 0.738281 0.0
vt 0.566406 0.782227 0.0
v -22.000000 59.449509 91.128754
#joint 33
#vjoint 48
v -16.000000 63.449509 109.128754
#joint 33
#vjoint 49
f 48/193 49/194 47/195
#fvcolorindex 1 1 1 
vt 0.302734 0.650391 0.0
vt 0.169922 0.672852 0.0
vt 0.346680 0.738281 0.0
v -22.000000 50.449509 116.128754
#joint 33
#vjoint 50
v -16.000000 53.449509 134.128754
#joint 33
#vjoint 51
f 50/196 51/197 49/198
#fvcolorindex 1 1 1 
vt 0.104492 0.518555 0.0
vt 0.038086 0.606445 0.0
vt 0.169922 0.672852 0.0
v -22.000000 31.449511 144.128754
#joint 33
#vjoint 52
f 52/199 5/200 51/201
#fvcolorindex 1 1 1 
vt 0.038086 0.474609 0.0
vt 0.038086 0.606445 0.0
vt 0.104492 0.518555 0.0
f 6/202 5/203 52/204
#fvcolorindex 1 1 1 
vt 0.038086 0.474609 0.0
vt 0.104492 0.518555 0.0
vt 0.148438 0.408203 0.0
f 6/205 52/206 41/207
#fvcolorindex 1 1 1 
vt 0.148438 0.408203 0.0
vt 0.302734 0.408203 0.0
vt 0.299805 0.250000 0.0
v -22.000000 16.449511 116.128754
#joint 33
#vjoint 53
f 41/208 53/209 42/210
#fvcolorindex 1 1 1 
vt 0.500000 0.342773 0.0
vt 0.522461 0.210938 0.0
vt 0.299805 0.250000 0.0
v -22.000000 6.449511 88.128754
#joint 33
#vjoint 54
f 54/211 37/212 42/213
#fvcolorindex 1 1 1 
vt 0.763672 0.254883 0.0
vt 0.719727 0.166992 0.0
vt 0.522461 0.210938 0.0
v -22.000000 -5.550489 50.128754
#joint 33
#vjoint 55
f 55/214 38/215 37/216
#fvcolorindex 1 1 1 
vt 0.874023 0.210938 0.0
vt 0.719727 0.166992 0.0
vt 0.763672 0.254883 0.0
f 40/217 38/218 55/219
#fvcolorindex 1 1 1 
vt 0.874023 0.210938 0.0
vt 1.005859 0.342773 0.0
vt 1.072266 0.320312 0.0
v -22.000000 6.449511 16.128754
#joint 33
#vjoint 56
f 40/220 56/221 39/222
#fvcolorindex 1 1 1 
vt 1.005859 0.342773 0.0
vt 0.874023 0.210938 0.0
vt 0.763672 0.254883 0.0
f 56/223 40/224 55/225
#fvcolorindex 1 1 1 
vt 0.763672 0.254883 0.0
vt 0.522461 0.210938 0.0
vt 0.500000 0.342773 0.0
f 55/226 37/227 54/228
#fvcolorindex 1 1 1 
vt 0.500000 0.342773 0.0
vt 0.299805 0.250000 0.0
vt 0.302734 0.408203 0.0
f 54/229 42/230 53/231
#fvcolorindex 1 1 1 
vt 0.302734 0.408203 0.0
vt 0.148438 0.408203 0.0
vt 0.104492 0.518555 0.0
f 53/232 41/233 52/234
#fvcolorindex 1 1 1 
vt 0.104492 0.518555 0.0
vt 0.169922 0.672852 0.0
vt 0.302734 0.650391 0.0
f 52/235 51/236 50/237
#fvcolorindex 1 1 1 
vt 0.302734 0.650391 0.0
vt 0.346680 0.738281 0.0
vt 0.478516 0.716797 0.0
f 50/238 49/239 48/240
#fvcolorindex 1 1 1 
vt 0.478516 0.716797 0.0
vt 0.566406 0.782227 0.0
vt 0.698242 0.738281 0.0
f 48/241 47/242 46/243
#fvcolorindex 1 1 1 
vt 0.698242 0.738281 0.0
vt 0.830078 0.826172 0.0
vt 0.940430 0.738281 0.0
f 46/244 43/245 45/246
#fvcolorindex 1 1 1 
vt 0.500000 0.518555 0.0
vt 0.719727 0.342773 0.0
vt 0.500000 0.342773 0.0
v -28.000000 31.449511 88.128754
#joint 33
#vjoint 57
v -25.000000 6.449511 56.128754
#joint 33
#vjoint 58
f 57/247 58/248 54/249
#fvcolorindex 1 1 1 
vt 0.698242 0.518555 0.0
vt 0.719727 0.342773 0.0
vt 0.500000 0.518555 0.0
v -28.000000 31.449511 59.128754
#joint 33
#vjoint 59
f 59/250 58/251 57/252
#fvcolorindex 1 1 1 
vt 0.500000 0.518555 0.0
vt 0.302734 0.650391 0.0
vt 0.478516 0.716797 0.0
f 57/253 50/254 48/255
#fvcolorindex 1 1 1 
vt 0.302734 0.408203 0.0
vt 0.500000 0.518555 0.0
vt 0.500000 0.342773 0.0
f 53/256 57/257 54/258
#fvcolorindex 1 1 1 
vt 0.500000 0.518555 0.0
vt 0.478516 0.716797 0.0
vt 0.698242 0.738281 0.0
f 57/259 48/260 46/261
#fvcolorindex 1 1 1 
vt 0.500000 0.518555 0.0
vt 0.698242 0.738281 0.0
vt 0.698242 0.518555 0.0
f 57/262 46/263 59/264
#fvcolorindex 1 1 1 
vt 0.698242 0.518555 0.0
vt 0.698242 0.738281 0.0
vt 0.940430 0.738281 0.0
f 59/265 46/266 45/267
#fvcolorindex 1 1 1 
vt 0.940430 0.518555 0.0
vt 0.698242 0.518555 0.0
vt 0.940430 0.738281 0.0
v -25.000000 31.449511 25.128754
#joint 33
#vjoint 60
f 60/268 59/269 45/270
#fvcolorindex 1 1 1 
vt 0.698242 0.518555 0.0
vt 0.940430 0.518555 0.0
vt 1.005859 0.342773 0.0
f 59/271 60/272 56/273
#fvcolorindex 1 1 1 
vt 0.698242 0.518555 0.0
vt 1.005859 0.342773 0.0
vt 0.719727 0.342773 0.0
f 59/274 56/275 58/276
#fvcolorindex 1 1 1 
vt 0.719727 0.342773 0.0
vt 1.005859 0.342773 0.0
vt 0.763672 0.254883 0.0
f 58/277 56/278 55/279
#fvcolorindex 1 1 1 
vt 0.500000 0.342773 0.0
vt 0.719727 0.342773 0.0
vt 0.763672 0.254883 0.0
f 54/280 58/281 55/282
#fvcolorindex 1 1 1 
vt 0.104492 0.518555 0.0
vt 0.500000 0.518555 0.0
vt 0.302734 0.408203 0.0
f 52/283 57/284 53/285
#fvcolorindex 1 1 1 
vt 0.302734 0.650391 0.0
vt 0.500000 0.518555 0.0
vt 0.104492 0.518555 0.0
f 50/286 57/287 52/288
#fvcolorindex 1 1 1 
usemtl m4CullBothClampSClampT
vt 0.232422 0.700195 0.0
vt 0.050781 0.700195 0.0
vt 0.050781 0.585938 0.0
v 16.000000 78.449509 13.128754
#joint 33
#vjoint 61
f 61/289 8/290 7/291
#fvcolorindex 1 1 1 
usemtl m5CullBothClampSClampT
vt 0.548828 0.243164 0.0
vt 0.595703 0.357422 0.0
vt 0.322266 0.151367 0.0
v 16.000000 16.449511 -8.871246
#joint 33
#vjoint 62
#vcolor 45.000000 82.000000 114.000000 255.000000
v 22.367533 30.951448 -11.879608
#joint 35
#vjoint 63
f 62/292 63/293 25/294
#fvcolorindex 4 1 1 
usemtl m4CullBothClampSClampT
vt 0.595703 0.357422 0.0
vt 0.548828 0.243164 0.0
vt 0.685547 0.357422 0.0
v 16.000000 31.449511 -18.871246
#joint 33
#vjoint 64
#vcolor 0.000000 64.000000 90.000000 255.000000
f 63/295 62/296 64/297
#fvcolorindex 1 4 5 
vt 0.912109 0.585938 0.0
vt 0.640625 0.562500 0.0
vt 0.685547 0.357422 0.0
v 16.000000 63.449509 -33.871246
#joint 33
#vjoint 65
v 22.000000 59.449509 -15.871246
#joint 33
#vjoint 66
f 65/298 66/299 64/300
#fvcolorindex 1 1 5 
vt 0.595703 0.357422 0.0
vt 0.685547 0.357422 0.0
vt 0.640625 0.562500 0.0
f 63/301 64/302 66/303
#fvcolorindex 1 5 1 
vt 0.185547 0.173828 0.0
vt 0.322266 0.151367 0.0
vt 0.595703 0.357422 0.0
f 26/304 25/305 63/306
#fvcolorindex 1 1 1 
vt 0.367188 0.585938 0.0
vt 0.232422 0.700195 0.0
vt 0.050781 0.585938 0.0
v 22.367533 62.951447 3.120392
#joint 35
#vjoint 67
f 67/307 61/308 7/309
#fvcolorindex 1 1 1 
vt 0.367188 0.585938 0.0
vt 0.595703 0.357422 0.0
vt 0.640625 0.562500 0.0
f 67/310 63/311 66/312
#fvcolorindex 1 1 1 
vt 0.367188 0.585938 0.0
vt 0.050781 0.585938 0.0
vt 0.050781 0.357422 0.0
f 67/313 7/314 30/315
#fvcolorindex 1 1 2 
vt 0.367188 0.585938 0.0
vt 0.050781 0.357422 0.0
vt 0.595703 0.357422 0.0
f 67/316 30/317 63/318
#fvcolorindex 1 2 1 
vt 0.595703 0.357422 0.0
vt 0.050781 0.357422 0.0
vt 0.185547 0.173828 0.0
f 63/319 30/320 26/321
#fvcolorindex 1 2 1 
vt 0.458984 0.700195 0.0
vt 0.232422 0.700195 0.0
vt 0.367188 0.585938 0.0
v 16.000000 78.449509 -2.871246
#joint 33
#vjoint 68
f 68/322 61/323 67/324
#fvcolorindex 1 1 1 
vt 0.458984 0.700195 0.0
vt 0.367188 0.585938 0.0
vt 0.640625 0.562500 0.0
f 68/325 67/326 66/327
#fvcolorindex 1 1 1 
vt 0.822266 0.676758 0.0
vt 0.458984 0.700195 0.0
vt 0.640625 0.562500 0.0
v 16.000000 75.449509 -27.871246
#joint 33
#vjoint 69
f 69/328 68/329 66/330
#fvcolorindex 1 1 1 
vt 0.822266 0.676758 0.0
vt 0.640625 0.562500 0.0
vt 0.912109 0.585938 0.0
f 69/331 66/332 65/333
#fvcolorindex 1 1 1 
vt 0.322266 0.128906 0.0
vt 0.640625 0.243164 0.0
vt 0.548828 0.243164 0.0
v 0.000000 16.449511 -15.871246
#joint 33
#vjoint 70
f 34/334 70/335 62/336
#fvcolorindex 1 4 4 
vt 0.322266 0.128906 0.0
vt 0.548828 0.243164 0.0
vt 0.322266 0.151367 0.0
f 34/337 62/338 25/339
#fvcolorindex 1 4 1 
vt 0.197266 0.736328 0.0
vt 0.054688 0.079102 0.0
vt 0.492188 0.088867 0.0
v 16.000000 66.449509 -111.871246
#joint 33
#vjoint 71
v 16.000000 25.449511 -99.871246
#joint 33
#vjoint 72
v 16.000000 25.449511 -124.871246
#joint 33
#vjoint 73
f 71/340 72/341 73/342
#fvcolorindex 1 1 1 
vt 1.123047 0.807617 0.0
vt 0.197266 0.736328 0.0
vt 0.492188 0.088867 0.0
v 16.000000 69.449509 -165.871246
#joint 33
#vjoint 74
f 74/343 71/344 73/345
#fvcolorindex 1 1 1 
vt 1.123047 0.807617 0.0
vt 0.492188 0.088867 0.0
vt 0.828125 0.046875 0.0
v 16.000000 22.449511 -143.871246
#joint 33
#vjoint 75
f 74/346 73/347 75/348
#fvcolorindex 1 1 1 
vt 0.699219 0.038086 0.0
vt 0.302734 0.016602 0.0
vt 0.505859 -0.081055 0.0
v 0.000000 19.449511 -111.871246
#joint 33
#vjoint 76
#vcolor 19.000000 95.000000 127.000000 255.000000
f 73/349 72/350 76/351
#fvcolorindex 1 1 6 
usemtl m6CullBothClampSClampT
vt 0.705078 -0.070312 0.0
vt 0.699219 0.038086 0.0
vt 0.505859 -0.081055 0.0
v 0.000000 19.449511 -124.871246
#joint 33
#vjoint 77
f 77/352 73/353 76/354
#fvcolorindex 6 1 6 
usemtl m4CullBothClampSClampT
vt 1.000000 0.000000 0.0
vt 0.699219 0.038086 0.0
vt 0.705078 -0.070312 0.0
f 75/355 73/356 77/357
#fvcolorindex 1 1 6 
vt 1.000000 0.000000 0.0
vt 0.705078 -0.070312 0.0
vt 1.054688 -0.105469 0.0
v 0.000000 16.449511 -146.871246
#joint 33
#vjoint 78
f 75/358 77/359 78/360
#fvcolorindex 1 6 1 
vt 0.197266 0.736328 0.0
vt -0.443359 0.570312 0.0
vt 0.054688 0.079102 0.0
v 0.000000 56.449509 -74.871246
#joint 33
#vjoint 79
f 71/361 79/362 72/363
#fvcolorindex 1 1 1 
vt 1.310547 0.826172 0.0
vt 0.468750 0.727539 0.0
vt 0.466797 0.781250 0.0
v -16.000000 69.449509 -165.871246
#joint 33
#vjoint 80
v -16.000000 66.449509 -111.871246
#joint 33
#vjoint 81
v 0.000000 69.449509 -111.871246
#joint 33
#vjoint 82
f 80/364 81/365 82/366
#fvcolorindex 1 1 1 
vt 0.492188 0.088867 0.0
vt 0.054688 0.079102 0.0
vt 0.197266 0.736328 0.0
v -16.000000 25.449511 -124.871246
#joint 33
#vjoint 83
v -16.000000 25.449511 -99.871246
#joint 33
#vjoint 84
f 83/367 84/368 81/369
#fvcolorindex 1 1 1 
vt 0.492188 0.088867 0.0
vt 0.197266 0.736328 0.0
vt 1.123047 0.807617 0.0
f 83/370 81/371 80/372
#fvcolorindex 1 1 1 
vt 0.828125 0.046875 0.0
vt 0.492188 0.088867 0.0
vt 1.123047 0.807617 0.0
v -16.000000 22.449511 -143.871246
#joint 33
#vjoint 85
f 85/373 83/374 80/375
#fvcolorindex 1 1 1 
usemtl m6CullBothClampSClampT
vt 0.505859 -0.081055 0.0
vt 0.302734 0.016602 0.0
vt 0.699219 0.038086 0.0
f 76/376 84/377 83/378
#fvcolorindex 6 1 1 
vt 0.505859 -0.081055 0.0
vt 0.699219 0.038086 0.0
vt 0.705078 -0.070312 0.0
f 76/379 83/380 77/381
#fvcolorindex 6 1 6 
vt 0.705078 -0.070312 0.0
vt 0.699219 0.038086 0.0
vt 1.000000 0.000000 0.0
f 77/382 83/383 85/384
#fvcolorindex 6 1 1 
usemtl m4CullBothClampSClampT
vt 1.054688 -0.105469 0.0
vt 0.705078 -0.070312 0.0
vt 1.000000 0.000000 0.0
f 78/385 77/386 85/387
#fvcolorindex 1 6 1 
vt 1.310547 0.826172 0.0
vt 0.466797 0.781250 0.0
vt 1.410156 0.832031 0.0
v 0.000000 69.449509 -171.871246
#joint 33
#vjoint 86
f 80/388 82/389 86/390
#fvcolorindex 1 1 1 
vt 0.468750 0.727539 0.0
vt -0.117188 0.533203 0.0
vt 0.466797 0.781250 0.0
f 81/391 79/392 82/393
#fvcolorindex 1 1 1 
vt 0.054688 0.079102 0.0
vt -0.443359 0.570312 0.0
vt 0.197266 0.736328 0.0
f 84/394 79/395 81/396
#fvcolorindex 1 1 1 
usemtl m5CullBothClampSClampT
vt 0.548828 0.243164 0.0
vt 0.640625 0.243164 0.0
vt 0.322266 0.128906 0.0
v -16.000000 16.449511 -8.871246
#joint 33
#vjoint 87
f 87/397 70/398 34/399
#fvcolorindex 4 4 1 
usemtl m4CullBothClampSClampT
vt 0.322266 0.151367 0.0
vt 0.548828 0.243164 0.0
vt 0.322266 0.128906 0.0
f 39/400 87/401 34/402
#fvcolorindex 1 4 1 
vt 0.050781 0.585938 0.0
vt 0.050781 0.700195 0.0
vt 0.232422 0.700195 0.0
v -16.000000 78.449509 13.128754
#joint 33
#vjoint 88
f 45/403 44/404 88/405
#fvcolorindex 1 1 1 
vt 0.322266 0.151367 0.0
vt 0.595703 0.357422 0.0
vt 0.548828 0.243164 0.0
v -22.000000 31.449511 -11.871246
#joint 33
#vjoint 89
f 39/406 89/407 87/408
#fvcolorindex 1 1 4 
usemtl m7CullBothClampSClampT
vt 0.685547 0.357422 0.0
vt 0.548828 0.243164 0.0
vt 0.595703 0.357422 0.0
v -16.000000 31.449511 -18.871246
#joint 33
#vjoint 90
f 90/409 87/410 89/411
#fvcolorindex 5 4 1 
vt 0.685547 0.357422 0.0
vt 0.640625 0.562500 0.0
vt 0.912109 0.585938 0.0
v -22.000000 59.449509 -15.871246
#joint 33
#vjoint 91
v -16.000000 63.449509 -33.871246
#joint 33
#vjoint 92
f 90/412 91/413 92/414
#fvcolorindex 5 1 1 
usemtl m4CullBothClampSClampT
vt 0.640625 0.562500 0.0
vt 0.685547 0.357422 0.0
vt 0.595703 0.357422 0.0
f 91/415 90/416 89/417
#fvcolorindex 1 5 1 
vt 0.595703 0.357422 0.0
vt 0.322266 0.151367 0.0
vt 0.185547 0.173828 0.0
f 89/418 39/419 56/420
#fvcolorindex 1 1 1 
vt 0.050781 0.585938 0.0
vt 0.232422 0.700195 0.0
vt 0.367188 0.585938 0.0
v -22.000000 63.449509 3.128754
#joint 33
#vjoint 93
f 45/421 88/422 93/423
#fvcolorindex 1 1 1 
vt 0.640625 0.562500 0.0
vt 0.595703 0.357422 0.0
vt 0.367188 0.585938 0.0
f 91/424 89/425 93/426
#fvcolorindex 1 1 1 
vt 0.050781 0.357422 0.0
vt 0.050781 0.585938 0.0
vt 0.367188 0.585938 0.0
f 60/427 45/428 93/429
#fvcolorindex 1 1 1 
vt 0.595703 0.357422 0.0
vt 0.050781 0.357422 0.0
vt 0.367188 0.585938 0.0
f 89/430 60/431 93/432
#fvcolorindex 1 1 1 
vt 0.185547 0.173828 0.0
vt 0.050781 0.357422 0.0
vt 0.595703 0.357422 0.0
f 56/433 60/434 89/435
#fvcolorindex 1 1 1 
vt 0.367188 0.585938 0.0
vt 0.232422 0.700195 0.0
vt 0.458984 0.700195 0.0
v -16.000000 78.449509 -2.871246
#joint 33
#vjoint 94
f 93/436 88/437 94/438
#fvcolorindex 1 1 1 
vt 0.640625 0.562500 0.0
vt 0.367188 0.585938 0.0
vt 0.458984 0.700195 0.0
f 91/439 93/440 94/441
#fvcolorindex 1 1 1 
vt 0.640625 0.562500 0.0
vt 0.458984 0.700195 0.0
vt 0.822266 0.676758 0.0
v -16.000000 75.449509 -27.871246
#joint 33
#vjoint 95
f 91/442 94/443 95/444
#fvcolorindex 1 1 1 
vt 0.912109 0.585938 0.0
vt 0.640625 0.562500 0.0
vt 0.822266 0.676758 0.0
f 92/445 91/446 95/447
#fvcolorindex 1 1 1 
usemtl m8CullBoth
vt 0.500000 -2.399414 0.0
vt 0.977539 -2.131836 0.0
vt 0.500000 -1.776367 0.0
v 0.000000 53.449509 141.128754
#joint 33
#vjoint 96
f 4/448 3/449 96/450
#fvcolorindex 1 1 1 
vt 0.500000 -1.776367 0.0
vt 0.977539 -2.131836 0.0
vt 0.977539 -1.598633 0.0
f 96/451 3/452 14/453
#fvcolorindex 1 1 1 
vt 0.500000 -1.064453 0.0
vt 0.500000 -1.776367 0.0
vt 0.977539 -1.598633 0.0
v 0.000000 63.449509 116.128754
#joint 33
#vjoint 97
f 97/454 96/455 14/456
#fvcolorindex 1 1 1 
vt 0.500000 -1.064453 0.0
vt 0.977539 -1.598633 0.0
vt 0.977539 -0.886719 0.0
f 97/457 14/458 12/459
#fvcolorindex 1 1 1 
vt 0.500000 -0.084961 0.0
vt 0.500000 -1.064453 0.0
vt 0.977539 -0.886719 0.0
v 0.000000 72.449509 81.128754
#joint 33
#vjoint 98
f 98/460 97/461 12/462
#fvcolorindex 1 1 1 
vt 0.500000 -0.084961 0.0
vt 0.977539 -0.886719 0.0
vt 0.977539 0.003906 0.0
f 98/463 12/464 10/465
#fvcolorindex 1 1 1 
vt 0.500000 0.982422 0.0
vt 0.500000 -0.084961 0.0
vt 0.977539 0.003906 0.0
v 0.000000 78.449509 44.128754
#joint 33
#vjoint 99
f 99/466 98/467 10/468
#fvcolorindex 1 1 1 
vt 0.500000 0.982422 0.0
vt 0.977539 0.003906 0.0
vt 0.977539 1.071289 0.0
f 99/469 10/470 9/471
#fvcolorindex 1 1 1 
vt 0.500000 1.516602 0.0
vt 0.500000 0.982422 0.0
vt 0.977539 1.071289 0.0
v 0.000000 81.449509 25.128754
#joint 33
#vjoint 100
f 100/472 99/473 9/474
#fvcolorindex 1 1 1 
vt 0.500000 1.516602 0.0
vt 0.977539 1.071289 0.0
vt 0.977539 1.516602 0.0
f 100/475 9/476 8/477
#fvcolorindex 1 1 1 
vt 0.500000 1.961914 0.0
vt 0.500000 1.516602 0.0
vt 0.977539 1.516602 0.0
v 0.000000 81.449509 9.128754
#joint 33
#vjoint 101
f 101/478 100/479 8/480
#fvcolorindex 1 1 1 
vt 0.500000 1.961914 0.0
vt 0.977539 1.516602 0.0
vt 0.977539 1.873047 0.0
f 101/481 8/482 61/483
#fvcolorindex 1 1 1 
vt 0.500000 2.317383 0.0
vt 0.500000 1.961914 0.0
vt 0.977539 1.873047 0.0
v 0.000000 81.449509 -2.871246
#joint 33
#vjoint 102
f 102/484 101/485 61/486
#fvcolorindex 1 1 1 
vt 0.500000 2.317383 0.0
vt 0.977539 1.873047 0.0
vt 0.977539 2.317383 0.0
f 102/487 61/488 68/489
#fvcolorindex 1 1 1 
vt 0.500000 3.208008 0.0
vt 0.500000 2.317383 0.0
vt 0.977539 2.317383 0.0
v 0.000000 78.449509 -33.871246
#joint 33
#vjoint 103
f 103/490 102/491 68/492
#fvcolorindex 1 1 1 
vt 0.500000 3.208008 0.0
vt 0.977539 2.317383 0.0
vt 0.977539 3.029297 0.0
f 103/493 68/494 69/495
#fvcolorindex 1 1 1 
usemtl m9CullBoth
vt 0.500000 3.385742 0.0
vt 0.500000 3.208008 0.0
vt 0.977539 3.029297 0.0
v 0.000000 63.449509 -40.871246
#joint 33
#vjoint 104
f 104/496 103/497 69/498
#fvcolorindex 5 1 1 
vt 0.500000 3.385742 0.0
vt 0.977539 3.029297 0.0
vt 0.977539 3.208008 0.0
f 104/499 69/500 65/501
#fvcolorindex 5 1 1 
vt 0.500000 3.385742 0.0
vt 0.977539 3.208008 0.0
vt 0.977539 2.762695 0.0
f 104/502 65/503 64/504
#fvcolorindex 5 1 5 
usemtl m8CullBoth
vt -0.001953 2.013672 0.0
vt 0.000000 0.055664 0.0
vt 0.500000 0.000000 0.0
f 74/505 75/506 78/507
#fvcolorindex 1 1 1 
vt -0.001953 2.013672 0.0
vt 0.500000 0.000000 0.0
vt 0.500000 2.075195 0.0
f 74/508 78/509 86/510
#fvcolorindex 1 1 1 
vt 0.500000 0.000000 0.0
vt 0.000000 0.000000 0.0
vt -0.001953 1.959961 0.0
f 78/511 85/512 80/513
#fvcolorindex 1 1 1 
vt 0.500000 0.000000 0.0
vt -0.001953 1.959961 0.0
vt 0.500000 2.077148 0.0
f 78/514 80/515 86/516
#fvcolorindex 1 1 1 
vt 0.500000 -1.776367 0.0
vt 0.022461 -2.131836 0.0
vt 0.500000 -2.399414 0.0
f 96/517 5/518 4/519
#fvcolorindex 1 1 1 
vt 0.022461 -1.598633 0.0
vt 0.022461 -2.131836 0.0
vt 0.500000 -1.776367 0.0
f 51/520 5/521 96/522
#fvcolorindex 1 1 1 
vt 0.022461 -1.598633 0.0
vt 0.500000 -1.776367 0.0
vt 0.500000 -1.064453 0.0
f 51/523 96/524 97/525
#fvcolorindex 1 1 1 
vt 0.022461 -0.886719 0.0
vt 0.022461 -1.598633 0.0
vt 0.500000 -1.064453 0.0
f 49/526 51/527 97/528
#fvcolorindex 1 1 1 
vt 0.022461 -0.886719 0.0
vt 0.500000 -1.064453 0.0
vt 0.500000 -0.084961 0.0
f 49/529 97/530 98/531
#fvcolorindex 1 1 1 
vt 0.022461 0.003906 0.0
vt 0.022461 -0.886719 0.0
vt 0.500000 -0.084961 0.0
f 47/532 49/533 98/534
#fvcolorindex 1 1 1 
vt 0.022461 0.003906 0.0
vt 0.500000 -0.084961 0.0
vt 0.500000 0.982422 0.0
f 47/535 98/536 99/537
#fvcolorindex 1 1 1 
vt 0.022461 1.071289 0.0
vt 0.022461 0.003906 0.0
vt 0.500000 0.982422 0.0
f 43/538 47/539 99/540
#fvcolorindex 1 1 1 
vt 0.022461 1.071289 0.0
vt 0.500000 0.982422 0.0
vt 0.500000 1.516602 0.0
f 43/541 99/542 100/543
#fvcolorindex 1 1 1 
vt 0.022461 1.516602 0.0
vt 0.022461 1.071289 0.0
vt 0.500000 1.516602 0.0
f 44/544 43/545 100/546
#fvcolorindex 1 1 1 
vt 0.022461 1.516602 0.0
vt 0.500000 1.516602 0.0
vt 0.500000 1.961914 0.0
f 44/547 100/548 101/549
#fvcolorindex 1 1 1 
vt 0.022461 1.873047 0.0
vt 0.022461 1.516602 0.0
vt 0.500000 1.961914 0.0
f 88/550 44/551 101/552
#fvcolorindex 1 1 1 
vt 0.022461 1.873047 0.0
vt 0.500000 1.961914 0.0
vt 0.500000 2.317383 0.0
f 88/553 101/554 102/555
#fvcolorindex 1 1 1 
vt 0.022461 2.317383 0.0
vt 0.022461 1.873047 0.0
vt 0.500000 2.317383 0.0
f 94/556 88/557 102/558
#fvcolorindex 1 1 1 
vt 0.022461 2.317383 0.0
vt 0.500000 2.317383 0.0
vt 0.500000 3.208008 0.0
f 94/559 102/560 103/561
#fvcolorindex 1 1 1 
vt 0.022461 3.029297 0.0
vt 0.022461 2.317383 0.0
vt 0.500000 3.208008 0.0
f 95/562 94/563 103/564
#fvcolorindex 1 1 1 
vt 0.022461 3.029297 0.0
vt 0.500000 3.208008 0.0
vt 0.500000 3.385742 0.0
f 95/565 103/566 104/567
#fvcolorindex 1 1 5 
vt 0.022461 3.208008 0.0
vt 0.022461 3.029297 0.0
vt 0.500000 3.385742 0.0
f 92/568 95/569 104/570
#fvcolorindex 1 1 5 
usemtl m9CullBoth
vt 0.022461 2.762695 0.0
vt 0.022461 3.208008 0.0
vt 0.500000 3.385742 0.0
f 90/571 92/572 104/573
#fvcolorindex 5 1 5 
usemtl m10CullBothClampT
vt -1.132812 0.299805 0.0
vt -1.378906 0.000000 0.0
vt 0.014648 0.039062 0.0
v 16.000000 22.449511 -61.871246
#joint 33
#vjoint 105
f 64/574 62/575 105/576
#fvcolorindex 5 4 1 
usemtl m11CullBothClampT
vt 0.260742 0.839844 0.0
vt -0.559570 1.000000 0.0
vt -1.132812 0.299805 0.0
v 9.000000 53.449509 -71.871246
#joint 33
#vjoint 106
f 106/577 104/578 64/579
#fvcolorindex 1 5 5 
vt 0.998047 0.101562 0.0
vt 0.260742 0.839844 0.0
vt 0.014648 0.039062 0.0
f 72/580 106/581 105/582
#fvcolorindex 1 1 1 
vt 0.260742 0.839844 0.0
vt -1.132812 0.299805 0.0
vt 0.014648 0.039062 0.0
f 106/583 64/584 105/585
#fvcolorindex 1 5 1 
vt 0.998047 0.101562 0.0
vt 0.342773 1.000000 0.0
vt 0.260742 0.839844 0.0
f 72/586 79/587 106/588
#fvcolorindex 1 1 1 
vt 0.320312 0.132812 0.0
vt 0.316406 0.155273 0.0
vt 0.986328 0.182617 0.0
f 82/589 71/590 74/591
#fvcolorindex 1 1 1 
vt 1.500000 0.150391 0.0
vt 0.000000 0.669922 0.0
vt 0.000000 0.000000 0.0
v 16.000000 -11.550489 -87.871246
#joint 33
#vjoint 107
f 107/592 72/593 105/594
#fvcolorindex 1 1 1 
vt 1.500000 0.754883 0.0
vt 0.000000 0.669922 0.0
vt 1.500000 0.150391 0.0
v 16.000000 -11.550489 -121.871246
#joint 33
#vjoint 108
f 108/595 72/596 107/597
#fvcolorindex 1 1 1 
vt 1.500000 0.754883 0.0
vt 1.500000 0.150391 0.0
vt 3.000000 0.150391 0.0
v 16.000000 -61.550491 -105.871246
#joint 33
#vjoint 109
f 108/598 107/599 109/600
#fvcolorindex 1 1 1 
vt 3.000000 0.851562 0.0
vt 1.500000 0.754883 0.0
vt 3.000000 0.150391 0.0
v 16.000000 -61.550491 -149.871246
#joint 33
#vjoint 110
f 110/601 108/602 109/603
#fvcolorindex 1 1 1 
vt 0.000000 0.669922 0.0
vt 1.500000 0.754883 0.0
vt 0.299805 0.049805 0.0
f 72/604 108/605 76/606
#fvcolorindex 1 1 6 
usemtl m12CullBothClampT
vt 0.299805 0.049805 0.0
vt 1.500000 0.754883 0.0
vt 1.500000 0.049805 0.0
v 0.000000 -8.550489 -130.871246
#joint 33
#vjoint 111
f 76/607 108/608 111/609
#fvcolorindex 6 1 6 
vt 1.500000 0.049805 0.0
vt 1.500000 0.754883 0.0
vt 3.000000 0.851562 0.0
f 111/610 108/611 110/612
#fvcolorindex 6 1 1 
usemtl m11CullBothClampT
vt 3.000000 0.049805 0.0
vt 1.500000 0.049805 0.0
vt 3.000000 0.851562 0.0
v 0.000000 -61.550491 -158.871246
#joint 33
#vjoint 112
f 112/613 111/614 110/615
#fvcolorindex 1 6 1 
usemtl m10CullBothClampT
vt -0.559570 1.000000 0.0
vt 0.260742 0.839844 0.0
vt 0.342773 1.000000 0.0
f 104/616 106/617 79/618
#fvcolorindex 5 1 1 
usemtl m11CullBothClampT
vt 1.065430 0.188477 0.0
vt 0.320312 0.132812 0.0
vt 0.986328 0.182617 0.0
f 86/619 82/620 74/621
#fvcolorindex 1 1 1 
vt 0.320312 0.132812 0.0
vt -0.165039 0.187500 0.0
vt 0.316406 0.155273 0.0
f 82/622 79/623 71/624
#fvcolorindex 1 1 1 
vt 1.500000 0.000000 0.0
vt 1.500000 0.150391 0.0
vt 0.000000 0.000000 0.0
v 0.000000 -15.550489 -80.871246
#joint 33
#vjoint 113
f 113/625 107/626 105/627
#fvcolorindex 1 1 1 
vt 3.000000 0.150391 0.0
vt 1.500000 0.150391 0.0
vt 1.500000 0.000000 0.0
f 109/628 107/629 113/630
#fvcolorindex 1 1 1 
vt 3.000000 0.150391 0.0
vt 1.500000 0.000000 0.0
vt 3.000000 0.000000 0.0
v 0.000000 -61.550491 -99.871246
#joint 33
#vjoint 114
f 109/631 113/632 114/633
#fvcolorindex 1 1 1 
vt 1.500000 0.000000 0.0
vt 0.000000 0.000000 0.0
vt 0.000000 0.000000 0.0
v 0.000000 17.449511 -60.871246
#joint 33
#vjoint 115
f 113/634 105/635 115/636
#fvcolorindex 1 1 6 
usemtl m12CullBothClampT
vt -0.027344 0.000000 0.0
vt 0.014648 0.039062 0.0
vt -1.378906 0.000000 0.0
f 115/637 105/638 62/639
#fvcolorindex 6 1 4 
usemtl m13CullBothClampT
vt -1.214844 0.000000 0.0
vt -0.027344 0.000000 0.0
vt -1.378906 0.000000 0.0
f 70/640 115/641 62/642
#fvcolorindex 4 6 4 
usemtl m11CullBothClampT
vt 0.014648 0.039062 0.0
vt -1.378906 0.000000 0.0
vt -1.132812 0.299805 0.0
v -16.000000 22.449511 -61.871246
#joint 33
#vjoint 116
f 116/643 87/644 90/645
#fvcolorindex 1 6 1 
vt -1.132812 0.299805 0.0
vt -0.559570 1.000000 0.0
vt 0.260742 0.839844 0.0
v -9.000000 53.449509 -71.871246
#joint 33
#vjoint 117
f 90/646 104/647 117/648
#fvcolorindex 1 5 1 
vt 0.014648 0.039062 0.0
vt 0.260742 0.839844 0.0
vt 0.998047 0.101562 0.0
f 116/649 117/650 84/651
#fvcolorindex 1 1 1 
vt 0.014648 0.039062 0.0
vt -1.132812 0.299805 0.0
vt 0.260742 0.839844 0.0
f 116/652 90/653 117/654
#fvcolorindex 1 1 1 
vt 0.260742 0.839844 0.0
vt 0.342773 1.000000 0.0
vt 0.998047 0.101562 0.0
f 117/655 79/656 84/657
#fvcolorindex 1 1 1 
vt 0.000000 0.000000 0.0
vt 0.000000 0.669922 0.0
vt 1.500000 0.150391 0.0
v -16.000000 -11.550489 -87.871246
#joint 33
#vjoint 118
f 116/658 84/659 118/660
#fvcolorindex 1 1 1 
vt 1.500000 0.150391 0.0
vt 0.000000 0.669922 0.0
vt 1.500000 0.754883 0.0
v -16.000000 -11.550489 -121.871246
#joint 33
#vjoint 119
f 118/661 84/662 119/663
#fvcolorindex 1 1 1 
vt 3.000000 0.150391 0.0
vt 1.500000 0.150391 0.0
vt 1.500000 0.754883 0.0
v -16.000000 -61.550491 -105.871246
#joint 33
#vjoint 120
f 120/664 118/665 119/666
#fvcolorindex 1 1 1 
vt 3.000000 0.150391 0.0
vt 1.500000 0.754883 0.0
vt 3.000000 0.851562 0.0
v -16.000000 -61.550491 -149.871246
#joint 33
#vjoint 121
f 120/667 119/668 121/669
#fvcolorindex 1 1 1 
usemtl m12CullBothClampT
vt 0.299805 0.049805 0.0
vt 1.500000 0.754883 0.0
vt 0.000000 0.669922 0.0
f 76/670 119/671 84/672
#fvcolorindex 6 1 1 
vt 1.500000 0.049805 0.0
vt 1.500000 0.754883 0.0
vt 0.299805 0.049805 0.0
f 111/673 119/674 76/675
#fvcolorindex 6 1 6 
usemtl m11CullBothClampT
vt 3.000000 0.851562 0.0
vt 1.500000 0.754883 0.0
vt 1.500000 0.049805 0.0
f 121/676 119/677 111/678
#fvcolorindex 1 1 6 
vt 3.000000 0.851562 0.0
vt 1.500000 0.049805 0.0
vt 3.000000 0.049805 0.0
f 121/679 111/680 112/681
#fvcolorindex 1 6 1 
vt 0.342773 1.000000 0.0
vt 0.260742 0.839844 0.0
vt -0.559570 1.000000 0.0
f 79/682 117/683 104/684
#fvcolorindex 1 1 5 
vt 0.000000 0.000000 0.0
vt 1.500000 0.150391 0.0
vt 1.500000 0.000000 0.0
f 116/685 118/686 113/687
#fvcolorindex 1 1 1 
vt 1.500000 0.000000 0.0
vt 1.500000 0.150391 0.0
vt 3.000000 0.150391 0.0
f 113/688 118/689 120/690
#fvcolorindex 1 1 1 
vt 3.000000 0.000000 0.0
vt 1.500000 0.000000 0.0
vt 3.000000 0.150391 0.0
f 114/691 113/692 120/693
#fvcolorindex 1 1 1 
usemtl m12CullBothClampT
vt 0.000000 0.000000 0.0
vt 0.000000 0.000000 0.0
vt 1.500000 0.000000 0.0
f 115/694 116/695 113/696
#fvcolorindex 6 1 1 
usemtl m13CullBothClampT
vt -1.378906 0.000000 0.0
vt 0.014648 0.039062 0.0
vt -0.027344 0.000000 0.0
f 87/697 116/698 115/699
#fvcolorindex 4 1 6 
vt -1.378906 0.000000 0.0
vt -0.027344 0.000000 0.0
vt -1.214844 0.000000 0.0
f 87/700 115/701 70/702
#fvcolorindex 4 6 4 
g Room03
g Room03_primary
usemtl m11CullBothClampT
vt 3.000000 0.851562 0.0
vt 3.000000 0.851562 0.0
vt 3.000000 0.150391 0.0
v -16.000000 -61.550491 -149.871246
#joint 33
#vjoint 122
#vcolor 255.000000 255.000000 255.000000 255.000000
v 16.000000 -61.550491 -149.871246
#joint 33
#vjoint 123
v 16.000000 -61.550491 -105.871246
#joint 33
#vjoint 124
f 122/703 123/704 124/705
#fvcolorindex 7 7 7 
vt 3.000000 0.851562 0.0
vt 3.000000 0.150391 0.0
vt 3.000000 0.150391 0.0
v -16.000000 -61.550491 -105.871246
#joint 33
#vjoint 125
f 122/706 124/707 125/708
#fvcolorindex 7 7 7 
usemtl m14CullBothClampT
vt 0.000000 0.000000 0.0
vt 3.000000 0.150391 0.0
vt 3.000000 0.150391 0.0
v 0.000000 -61.550491 -99.871246
#joint 33
#vjoint 126
#vcolor 254.000000 254.000000 254.000000 255.000000
f 126/709 125/710 124/711
#fvcolorindex 8 7 7 
vt 0.000000 0.000000 0.0
vt 3.000000 0.851562 0.0
vt 3.000000 0.851562 0.0
v 0.000000 -61.550491 -158.871246
#joint 33
#vjoint 127
f 127/712 123/713 122/714
#fvcolorindex 8 7 7 
g Room05
g Room05_primary
vt 0.724609 0.880859 0.0
vt 0.808594 0.877930 0.0
vt 1.013672 0.691406 0.0
v 66.879974 9.604816 38.459209
#joint 38
#vjoint 128
#vcolor 254.000000 254.000000 254.000000 255.000000
v 60.879974 9.604816 30.459209
#joint 38
#vjoint 129
v 60.879974 22.604816 9.459209
#joint 38
#vjoint 130
f 128/715 129/716 130/717
#fvcolorindex 9 9 9 
vt 0.724609 0.880859 0.0
vt 1.013672 0.691406 0.0
vt 0.867188 0.698242 0.0
v 72.879974 22.604816 24.459209
#joint 38
#vjoint 131
f 128/718 130/719 131/720
#fvcolorindex 9 9 9 
vt 0.791992 0.901367 0.0
vt 0.707031 0.903320 0.0
vt 0.855469 0.703125 0.0
v 55.879974 9.604816 38.459209
#joint 38
#vjoint 132
v 49.879974 22.604816 24.459209
#joint 38
#vjoint 133
f 129/721 132/722 133/723
#fvcolorindex 9 9 9 
vt 0.791992 0.901367 0.0
vt 0.855469 0.703125 0.0
vt 1.001953 0.701172 0.0
f 129/724 133/725 130/726
#fvcolorindex 9 9 9 
vt 0.707031 0.903320 0.0
vt 0.502930 0.911133 0.0
vt 0.501953 0.717773 0.0
v 52.879974 9.564850 58.596817
#joint 37
#vjoint 134
v 44.879974 22.564850 58.596817
#joint 37
#vjoint 135
f 132/727 134/728 135/729
#fvcolorindex 9 9 9 
vt 0.707031 0.903320 0.0
vt 0.501953 0.717773 0.0
vt 0.855469 0.703125 0.0
f 132/730 135/731 133/732
#fvcolorindex 9 9 9 
vt 0.502930 0.911133 0.0
vt 0.298828 0.922852 0.0
vt 0.148438 0.736328 0.0
v 55.879974 9.529736 78.707901
#joint 39
#vjoint 136
v 49.879974 22.529736 93.707901
#joint 39
#vjoint 137
f 134/733 136/734 137/735
#fvcolorindex 9 9 9 
vt 0.502930 0.911133 0.0
vt 0.148438 0.736328 0.0
vt 0.501953 0.717773 0.0
f 134/736 137/737 135/738
#fvcolorindex 9 9 9 
vt 0.298828 0.922852 0.0
vt 0.213867 0.928711 0.0
vt 0.001953 0.748047 0.0
v 60.879974 9.529736 86.707901
#joint 39
#vjoint 138
v 60.879974 22.529736 107.707901
#joint 39
#vjoint 139
f 136/739 138/740 139/741
#fvcolorindex 9 9 9 
vt 0.298828 0.922852 0.0
vt 0.001953 0.748047 0.0
vt 0.148438 0.736328 0.0
f 136/742 139/743 137/744
#fvcolorindex 9 9 9 
vt 0.231445 0.884766 0.0
vt 0.316406 0.886719 0.0
vt 0.160156 0.707031 0.0
v 66.879974 9.529736 78.707901
#joint 39
#vjoint 140
v 72.879974 22.529736 93.707901
#joint 39
#vjoint 141
f 138/745 140/746 141/747
#fvcolorindex 9 9 9 
vt 0.231445 0.884766 0.0
vt 0.160156 0.707031 0.0
vt 0.013672 0.704102 0.0
f 138/748 141/749 139/750
#fvcolorindex 9 9 9 
vt 0.316406 0.886719 0.0
vt 0.519531 0.860352 0.0
vt 0.514648 0.708008 0.0
v 76.879974 11.564850 58.596817
#joint 37
#vjoint 142
v 85.879974 22.564850 58.596817
#joint 37
#vjoint 143
f 140/751 142/752 143/753
#fvcolorindex 9 9 9 
vt 0.316406 0.886719 0.0
vt 0.514648 0.708008 0.0
vt 0.160156 0.707031 0.0
f 140/754 143/755 141/756
#fvcolorindex 9 9 9 
vt 0.519531 0.860352 0.0
vt 0.724609 0.880859 0.0
vt 0.867188 0.698242 0.0
f 142/757 128/758 131/759
#fvcolorindex 9 9 9 
vt 0.519531 0.860352 0.0
vt 0.867188 0.698242 0.0
vt 0.514648 0.708008 0.0
f 142/760 131/761 143/762
#fvcolorindex 9 9 9 
vt 0.867188 0.698242 0.0
vt 1.013672 0.691406 0.0
vt 1.071289 0.444336 0.0
v 60.879974 40.604816 3.459209
#joint 38
#vjoint 144
f 131/763 130/764 144/765
#fvcolorindex 9 9 9 
vt 0.867188 0.698242 0.0
vt 1.071289 0.444336 0.0
vt 0.914062 0.452148 0.0
v 74.879974 40.604816 18.459209
#joint 38
#vjoint 145
f 131/766 144/767 145/768
#fvcolorindex 9 9 9 
vt 1.001953 0.701172 0.0
vt 0.855469 0.703125 0.0
vt 0.909180 0.445312 0.0
v 47.879974 40.604816 18.459209
#joint 38
#vjoint 146
f 130/769 133/770 146/771
#fvcolorindex 9 9 9 
vt 1.001953 0.701172 0.0
vt 0.909180 0.445312 0.0
vt 1.067383 0.443359 0.0
f 130/772 146/773 144/774
#fvcolorindex 9 9 9 
vt 0.855469 0.703125 0.0
vt 0.501953 0.717773 0.0
vt 0.500977 0.461914 0.0
v 41.879974 40.564850 58.596817
#joint 37
#vjoint 147
f 133/775 135/776 147/777
#fvcolorindex 9 9 9 
vt 0.855469 0.703125 0.0
vt 0.500977 0.461914 0.0
vt 0.909180 0.445312 0.0
f 133/778 147/779 146/780
#fvcolorindex 9 9 9 
vt 0.501953 0.717773 0.0
vt 0.148438 0.736328 0.0
vt 0.092773 0.484375 0.0
v 47.879974 40.529736 98.707901
#joint 39
#vjoint 148
f 135/781 137/782 148/783
#fvcolorindex 9 9 9 
vt 0.501953 0.717773 0.0
vt 0.092773 0.484375 0.0
vt 0.500977 0.461914 0.0
f 135/784 148/785 147/786
#fvcolorindex 9 9 9 
vt 0.148438 0.736328 0.0
vt 0.001953 0.748047 0.0
vt -0.065430 0.497070 0.0
v 60.879974 40.529736 114.707901
#joint 39
#vjoint 149
f 137/787 139/788 149/789
#fvcolorindex 9 9 9 
vt 0.148438 0.736328 0.0
vt -0.065430 0.497070 0.0
vt 0.092773 0.484375 0.0
f 137/790 149/791 148/792
#fvcolorindex 9 9 9 
vt 0.013672 0.704102 0.0
vt 0.160156 0.707031 0.0
vt 0.097656 0.462891 0.0
v 74.879974 40.529736 98.707901
#joint 39
#vjoint 150
f 139/793 141/794 150/795
#fvcolorindex 9 9 9 
vt 0.013672 0.704102 0.0
vt 0.097656 0.462891 0.0
vt -0.061523 0.458984 0.0
f 139/796 150/797 149/798
#fvcolorindex 9 9 9 
vt 0.160156 0.707031 0.0
vt 0.514648 0.708008 0.0
vt 0.505859 0.462891 0.0
v 88.879974 40.564850 58.596817
#joint 37
#vjoint 151
f 141/799 143/800 151/801
#fvcolorindex 9 9 9 
vt 0.160156 0.707031 0.0
vt 0.505859 0.462891 0.0
vt 0.097656 0.462891 0.0
f 141/802 151/803 150/804
#fvcolorindex 9 9 9 
vt 0.514648 0.708008 0.0
vt 0.867188 0.698242 0.0
vt 0.914062 0.452148 0.0
f 143/805 131/806 145/807
#fvcolorindex 9 9 9 
vt 0.514648 0.708008 0.0
vt 0.914062 0.452148 0.0
vt 0.505859 0.462891 0.0
f 143/808 145/809 151/810
#fvcolorindex 9 9 9 
vt 0.914062 0.452148 0.0
vt 1.071289 0.444336 0.0
vt 1.000000 0.290039 0.0
v 60.879974 52.604816 9.459209
#joint 38
#vjoint 152
f 145/811 144/812 152/813
#fvcolorindex 9 9 9 
vt 0.914062 0.452148 0.0
vt 1.000000 0.290039 0.0
vt 0.853516 0.296875 0.0
v 72.879974 52.604816 24.459209
#joint 38
#vjoint 153
f 145/814 152/815 153/816
#fvcolorindex 9 9 9 
vt 1.067383 0.443359 0.0
vt 0.909180 0.445312 0.0
vt 0.853516 0.289062 0.0
v 49.879974 52.604816 24.459209
#joint 38
#vjoint 154
f 144/817 146/818 154/819
#fvcolorindex 9 9 9 
vt 1.067383 0.443359 0.0
vt 0.853516 0.289062 0.0
vt 1.000000 0.286133 0.0
f 144/820 154/821 152/822
#fvcolorindex 9 9 9 
vt 0.909180 0.445312 0.0
vt 0.500977 0.461914 0.0
vt 0.500000 0.302734 0.0
v 44.879974 52.564850 58.596817
#joint 37
#vjoint 155
f 146/823 147/824 155/825
#fvcolorindex 9 9 9 
vt 0.909180 0.445312 0.0
vt 0.500000 0.302734 0.0
vt 0.853516 0.289062 0.0
f 146/826 155/827 154/828
#fvcolorindex 9 9 9 
vt 0.500977 0.461914 0.0
vt 0.092773 0.484375 0.0
vt 0.146484 0.322266 0.0
v 49.879974 52.529736 93.707901
#joint 39
#vjoint 156
f 147/829 148/830 156/831
#fvcolorindex 9 9 9 
vt 0.500977 0.461914 0.0
vt 0.146484 0.322266 0.0
vt 0.500000 0.302734 0.0
f 147/832 156/833 155/834
#fvcolorindex 9 9 9 
vt 0.092773 0.484375 0.0
vt -0.065430 0.497070 0.0
vt 0.000000 0.333984 0.0
v 60.879974 52.529736 107.707901
#joint 39
#vjoint 157
f 148/835 149/836 157/837
#fvcolorindex 9 9 9 
vt 0.092773 0.484375 0.0
vt 0.000000 0.333984 0.0
vt 0.146484 0.322266 0.0
f 148/838 157/839 156/840
#fvcolorindex 9 9 9 
vt -0.061523 0.458984 0.0
vt 0.097656 0.462891 0.0
vt 0.146484 0.305664 0.0
v 72.879974 52.529736 93.707901
#joint 39
#vjoint 158
f 149/841 150/842 158/843
#fvcolorindex 9 9 9 
vt -0.061523 0.458984 0.0
vt 0.146484 0.305664 0.0
vt 0.000000 0.302734 0.0
f 149/844 158/845 157/846
#fvcolorindex 9 9 9 
vt 0.097656 0.462891 0.0
vt 0.505859 0.462891 0.0
vt 0.500000 0.306641 0.0
v 83.879974 52.564850 58.596817
#joint 37
#vjoint 159
f 150/847 151/848 159/849
#fvcolorindex 9 9 9 
vt 0.097656 0.462891 0.0
vt 0.500000 0.306641 0.0
vt 0.146484 0.305664 0.0
f 150/850 159/851 158/852
#fvcolorindex 9 9 9 
vt 0.505859 0.462891 0.0
vt 0.914062 0.452148 0.0
vt 0.853516 0.296875 0.0
f 151/853 145/854 153/855
#fvcolorindex 9 9 9 
vt 0.505859 0.462891 0.0
vt 0.853516 0.296875 0.0
vt 0.500000 0.306641 0.0
f 151/856 153/857 159/858
#fvcolorindex 9 9 9 
vt 0.853516 0.296875 0.0
vt 1.000000 0.290039 0.0
vt 0.785156 0.202148 0.0
v 60.879974 58.604816 30.459209
#joint 38
#vjoint 160
f 153/859 152/860 160/861
#fvcolorindex 9 9 9 
vt 0.853516 0.296875 0.0
vt 0.785156 0.202148 0.0
vt 0.701172 0.205078 0.0
v 66.879974 58.604816 38.459209
#joint 38
#vjoint 161
f 153/862 160/863 161/864
#fvcolorindex 9 9 9 
vt 1.000000 0.286133 0.0
vt 0.853516 0.289062 0.0
vt 0.704102 0.204102 0.0
v 55.879974 58.604816 38.459209
#joint 38
#vjoint 162
f 152/865 154/866 162/867
#fvcolorindex 9 9 9 
vt 1.000000 0.286133 0.0
vt 0.704102 0.204102 0.0
vt 0.788086 0.202148 0.0
f 152/868 162/869 160/870
#fvcolorindex 9 9 9 
vt 0.853516 0.289062 0.0
vt 0.500000 0.302734 0.0
vt 0.500000 0.211914 0.0
v 51.879974 58.564850 58.596817
#joint 37
#vjoint 163
f 154/871 155/872 163/873
#fvcolorindex 9 9 9 
vt 0.853516 0.289062 0.0
vt 0.500000 0.211914 0.0
vt 0.704102 0.204102 0.0
f 154/874 163/875 162/876
#fvcolorindex 9 9 9 
vt 0.500000 0.302734 0.0
vt 0.146484 0.322266 0.0
vt 0.294922 0.223633 0.0
v 55.879974 58.529736 78.707901
#joint 39
#vjoint 164
f 155/877 156/878 164/879
#fvcolorindex 9 9 9 
vt 0.500000 0.302734 0.0
vt 0.294922 0.223633 0.0
vt 0.500000 0.211914 0.0
f 155/880 164/881 163/882
#fvcolorindex 9 9 9 
vt 0.146484 0.322266 0.0
vt 0.000000 0.333984 0.0
vt 0.210938 0.229492 0.0
v 60.879974 58.529736 86.707901
#joint 39
#vjoint 165
f 156/883 157/884 165/885
#fvcolorindex 9 9 9 
vt 0.146484 0.322266 0.0
vt 0.210938 0.229492 0.0
vt 0.294922 0.223633 0.0
f 156/886 165/887 164/888
#fvcolorindex 9 9 9 
vt 0.000000 0.302734 0.0
vt 0.146484 0.305664 0.0
vt 0.292969 0.210938 0.0
v 66.879974 58.529736 78.707901
#joint 39
#vjoint 166
f 157/889 158/890 166/891
#fvcolorindex 9 9 9 
vt 0.000000 0.302734 0.0
vt 0.292969 0.210938 0.0
vt 0.208008 0.208984 0.0
f 157/892 166/893 165/894
#fvcolorindex 9 9 9 
vt 0.146484 0.305664 0.0
vt 0.500000 0.306641 0.0
vt 0.497070 0.210938 0.0
v 73.879974 58.564850 58.596817
#joint 37
#vjoint 167
f 158/895 159/896 167/897
#fvcolorindex 9 9 9 
vt 0.146484 0.305664 0.0
vt 0.497070 0.210938 0.0
vt 0.292969 0.210938 0.0
f 158/898 167/899 166/900
#fvcolorindex 9 9 9 
vt 0.500000 0.306641 0.0
vt 0.853516 0.296875 0.0
vt 0.701172 0.205078 0.0
f 159/901 153/902 161/903
#fvcolorindex 9 9 9 
vt 0.500000 0.306641 0.0
vt 0.701172 0.205078 0.0
vt 0.497070 0.210938 0.0
f 159/904 161/905 167/906
#fvcolorindex 9 9 9 
vt 0.808594 0.877930 0.0
vt 0.724609 0.880859 0.0
vt 0.523438 0.986328 0.0
v 61.879974 1.564850 58.596817
#joint 37
#vjoint 168
f 129/907 128/908 168/909
#fvcolorindex 9 9 9 
vt 0.707031 0.903320 0.0
vt 0.791992 0.901367 0.0
vt 0.503906 1.023438 0.0
f 132/910 129/911 168/912
#fvcolorindex 9 9 9 
vt 0.502930 0.911133 0.0
vt 0.707031 0.903320 0.0
vt 0.503906 1.023438 0.0
f 134/913 132/914 168/915
#fvcolorindex 9 9 9 
vt 0.298828 0.922852 0.0
vt 0.502930 0.911133 0.0
vt 0.503906 1.023438 0.0
f 136/916 134/917 168/918
#fvcolorindex 9 9 9 
vt 0.213867 0.928711 0.0
vt 0.298828 0.922852 0.0
vt 0.503906 1.023438 0.0
f 138/919 136/920 168/921
#fvcolorindex 9 9 9 
vt 0.316406 0.886719 0.0
vt 0.231445 0.884766 0.0
vt 0.523438 0.986328 0.0
f 140/922 138/923 168/924
#fvcolorindex 9 9 9 
vt 0.519531 0.860352 0.0
vt 0.316406 0.886719 0.0
vt 0.523438 0.986328 0.0
f 142/925 140/926 168/927
#fvcolorindex 9 9 9 
vt 0.724609 0.880859 0.0
vt 0.519531 0.860352 0.0
vt 0.523438 0.986328 0.0
f 128/928 142/929 168/930
#fvcolorindex 9 9 9 
vt 0.701172 0.205078 0.0
vt 0.785156 0.202148 0.0
vt 0.495117 0.166992 0.0
v 60.879974 61.564850 58.596817
#joint 37
#vjoint 169
f 161/931 160/932 169/933
#fvcolorindex 9 9 9 
vt 0.788086 0.202148 0.0
vt 0.704102 0.204102 0.0
vt 0.499023 0.176758 0.0
f 160/934 162/935 169/936
#fvcolorindex 9 9 9 
vt 0.704102 0.204102 0.0
vt 0.500000 0.211914 0.0
vt 0.499023 0.176758 0.0
f 162/937 163/938 169/939
#fvcolorindex 9 9 9 
vt 0.500000 0.211914 0.0
vt 0.294922 0.223633 0.0
vt 0.499023 0.176758 0.0
f 163/940 164/941 169/942
#fvcolorindex 9 9 9 
vt 0.294922 0.223633 0.0
vt 0.210938 0.229492 0.0
vt 0.499023 0.176758 0.0
f 164/943 165/944 169/945
#fvcolorindex 9 9 9 
vt 0.208008 0.208984 0.0
vt 0.292969 0.210938 0.0
vt 0.495117 0.166992 0.0
f 165/946 166/947 169/948
#fvcolorindex 9 9 9 
vt 0.292969 0.210938 0.0
vt 0.497070 0.210938 0.0
vt 0.495117 0.166992 0.0
f 166/949 167/950 169/951
#fvcolorindex 9 9 9 
vt 0.497070 0.210938 0.0
vt 0.701172 0.205078 0.0
vt 0.495117 0.166992 0.0
f 167/952 161/953 169/954
#fvcolorindex 9 9 9 
