# Created by SubDrag and the GoldenEye Setup Editor V4.4
mtllib Gun000C.mtl
#joint 0
#jointposition 0.000000 -20.375574 -74.143860
#joint 1
#jointposition -0.126130 -34.500000 -403.726105
#joint 2
#jointposition 0.000000 -20.375574 -74.143860
#joint 3
#jointposition 28.404760 -54.346611 -32.664295
#joint 4
#jointposition 50.075203 -78.841194 -10.664248
#joint 5
#jointposition 28.643808 -16.714527 20.778549
#joint 6
#jointposition 26.518341 -24.155291 60.154758
#joint 7
#jointposition 24.862719 -25.637974 87.085503
#joint 8
#jointposition 8.820322 -11.296313 21.695198
#joint 9
#jointposition 8.668717 -23.348385 71.418152
#joint 10
#jointposition 7.570724 -26.182207 98.349426
#joint 11
#jointposition -7.449821 -15.536673 21.601517
#joint 12
#jointposition -6.777197 -21.532187 62.353848
#joint 13
#jointposition -6.290760 -23.494061 85.077034
#joint 14
#jointposition -23.590879 -23.057791 21.828247
#joint 15
#jointposition -21.894306 -25.130569 56.929543
#joint 16
#jointposition -20.740978 -24.727604 74.077179
#joint 17
#jointposition 234.474915 -34.500000 -403.725983
#joint 18
#jointposition 234.348785 -20.375599 -74.143890
#joint 19
#jointposition 205.943985 -54.346600 -32.664291
#joint 20
#jointposition 184.273590 -78.841202 -10.664192
#joint 21
#jointposition 205.704987 -16.714600 20.778511
#joint 22
#jointposition 207.830490 -24.155300 60.154812
#joint 23
#jointposition 209.561584 -25.811800 87.094810
#joint 24
#jointposition 225.528473 -11.296299 21.695213
#joint 25
#jointposition 225.680069 -23.348400 71.418114
#joint 26
#jointposition 226.778076 -26.182199 98.349411
#joint 27
#jointposition 241.798599 -15.536699 21.601509
#joint 28
#jointposition 241.125977 -21.532200 62.353809
#joint 29
#jointposition 240.639542 -23.494101 85.077011
#joint 30
#jointposition 257.939697 -23.057798 21.828209
#joint 31
#jointposition 256.243103 -25.130598 56.929508
#joint 32
#jointposition 255.089798 -24.727598 74.077209
#joint 33
#jointposition 0.000000 -6.857133 -1.280289
#joint 34
#jointposition 0.000000 43.390747 299.948669
#joint 35
#jointposition 18.804062 104.811005 96.951599
#joint 36
#jointposition 31.460585 -38.013000 119.502998
#joint 37
#jointposition 0.000000 92.049698 0.385006
#joint 38
#jointposition -18.771393 104.811005 96.951599
#joint 39
#jointposition -31.285656 -38.013000 119.502998
#joint 40
#jointposition 0.000000 -155.164795 170.136887
#joint 41
#jointposition 0.000000 -116.464279 158.114944
#joint 42
#jointposition 0.000000 -191.513123 167.048721
#connection 0 1
#connection 1 2
#connection 2 3
#connection 3 4
#connection 2 5
#connection 5 6
#connection 6 7
#connection 2 8
#connection 8 9
#connection 9 10
#connection 2 11
#connection 11 12
#connection 12 13
#connection 2 14
#connection 14 15
#connection 15 16
#connection 2 33
#connection 33 34
#connection 33 35
#connection 33 38
#connection 33 36
#connection 33 39
#connection 33 37
#connection 0 17
#connection 17 18
#connection 18 19
#connection 19 20
#connection 18 21
#connection 21 22
#connection 22 23
#connection 18 24
#connection 24 25
#connection 25 26
#connection 18 27
#connection 27 28
#connection 28 29
#connection 18 30
#connection 30 31
#connection 31 32
#connection 18 40
#connection 40 41
#connection 40 42
g Room01
g Room01_primary
usemtl m0CullBothClampSClampT
vt 0.277344 0.348633 0.0
vt 0.257812 0.430664 0.0
vt 0.257812 0.430664 0.0
v -19.000000 -8.857133 224.719711
#joint 33
#vjoint 1
#vcolor 196.000000 196.000000 196.000000 255.000000
v -19.000000 16.142868 230.719711
#joint 33
#vjoint 2
#vcolor 178.000000 178.000000 178.000000 255.000000
v 19.000000 16.142868 230.719711
#joint 33
#vjoint 3
f 1/1 2/2 3/3
#fvcolorindex 1 2 2 
vt 0.277344 0.348633 0.0
vt 0.257812 0.430664 0.0
vt 0.277344 0.348633 0.0
v 19.000000 -8.857133 224.719711
#joint 33
#vjoint 4
f 1/4 3/5 4/6
#fvcolorindex 1 2 1 
usemtl m1CullBothClampSClampT
vt 0.687500 0.140625 0.0
vt 0.861328 0.354492 0.0
vt 0.861328 0.354492 0.0
v -19.285656 -81.013000 80.502998
#joint 39
#vjoint 5
#vcolor 155.000000 155.000000 155.000000 255.000000
v -31.000000 -21.857132 18.719711
#joint 33
#vjoint 6
#vcolor 118.000000 118.000000 118.000000 255.000000
v 31.000000 -21.857132 18.719711
#joint 33
#vjoint 7
f 5/7 6/8 7/9
#fvcolorindex 3 4 4 
vt 0.687500 0.140625 0.0
vt 0.861328 0.354492 0.0
vt 0.687500 0.140625 0.0
v 19.460585 -81.013000 80.502998
#joint 36
#vjoint 8
f 5/10 7/11 8/12
#fvcolorindex 3 4 3 
usemtl m2CullBothClampSClampT
vt 0.257812 0.430664 0.0
vt 0.257812 0.430664 0.0
vt 0.347656 0.354492 0.0
v -19.000000 -8.857133 199.719711
#joint 33
#vjoint 9
f 3/13 2/14 9/15
#fvcolorindex 2 2 2 
vt 0.257812 0.430664 0.0
vt 0.347656 0.354492 0.0
vt 0.347656 0.354492 0.0
v 19.000000 -8.857133 199.719711
#joint 33
#vjoint 10
f 3/16 9/17 10/18
#fvcolorindex 2 2 2 
vt 0.347656 0.354492 0.0
vt 0.347656 0.354492 0.0
vt 0.455078 0.257812 0.0
v -19.285656 -41.013000 162.502991
#joint 39
#vjoint 11
#vcolor 67.000000 67.000000 67.000000 255.000000
f 10/19 9/20 11/21
#fvcolorindex 2 2 5 
vt 0.347656 0.354492 0.0
vt 0.455078 0.257812 0.0
vt 0.455078 0.257812 0.0
v 19.460585 -41.013000 162.502991
#joint 36
#vjoint 12
#vcolor 168.000000 168.000000 168.000000 255.000000
f 10/22 11/23 12/24
#fvcolorindex 2 5 6 
usemtl m0CullBothClampSClampT
vt 0.277344 0.348633 0.0
vt 0.305664 0.224609 0.0
vt 0.277344 0.348633 0.0
v 0.000000 -46.857132 215.719711
#joint 33
#vjoint 13
f 4/25 13/26 1/27
#fvcolorindex 1 3 1 
usemtl m3CullBothClampSClampT
vt 0.455078 0.257812 0.0
vt 0.455078 0.257812 0.0
vt 0.616211 0.176758 0.0
v -19.285656 -69.013000 105.502998
#joint 39
#vjoint 14
#vcolor 164.000000 164.000000 164.000000 255.000000
f 12/28 11/29 14/30
#fvcolorindex 6 5 7 
vt 0.455078 0.257812 0.0
vt 0.616211 0.176758 0.0
vt 0.616211 0.176758 0.0
v 19.460585 -69.013000 105.502998
#joint 36
#vjoint 15
f 12/31 14/32 15/33
#fvcolorindex 6 7 7 
usemtl m1CullBothClampSClampT
vt 0.687500 0.140625 0.0
vt 0.616211 0.176758 0.0
vt 0.616211 0.176758 0.0
f 8/34 15/35 14/36
#fvcolorindex 3 7 7 
vt 0.687500 0.140625 0.0
vt 0.616211 0.176758 0.0
vt 0.687500 0.140625 0.0
f 8/37 14/38 5/39
#fvcolorindex 3 7 3 
usemtl m4CullBothClampSClampT
vt 0.201172 0.666992 0.0
vt 0.051758 0.582031 0.0
vt 0.096680 0.564453 0.0
v 0.000000 88.142868 249.719711
#joint 33
#vjoint 16
#vcolor 254.000000 254.000000 254.000000 255.000000
v 0.000000 66.142868 302.719727
#joint 33
#vjoint 17
v 19.000000 59.142868 287.719727
#joint 33
#vjoint 18
f 16/40 17/41 18/42
#fvcolorindex 8 8 8 
vt 0.201172 0.666992 0.0
vt 0.096680 0.564453 0.0
vt 0.272461 0.663086 0.0
v 19.000000 84.142868 224.719711
#joint 33
#vjoint 19
f 16/43 18/44 19/45
#fvcolorindex 8 8 8 
vt 0.342773 0.731445 0.0
vt 0.201172 0.666992 0.0
vt 0.272461 0.663086 0.0
v 0.000000 103.142868 199.719711
#joint 33
#vjoint 20
f 20/46 16/47 19/48
#fvcolorindex 8 8 8 
vt 0.342773 0.731445 0.0
vt 0.272461 0.663086 0.0
vt 0.404297 0.715820 0.0
v 19.000000 97.142868 177.719711
#joint 33
#vjoint 21
f 20/49 19/50 21/51
#fvcolorindex 8 8 8 
vt 0.483398 0.774414 0.0
vt 0.342773 0.731445 0.0
vt 0.404297 0.715820 0.0
v 0.000000 113.142868 149.719711
#joint 33
#vjoint 22
f 22/52 20/53 21/54
#fvcolorindex 8 8 8 
vt 0.483398 0.774414 0.0
vt 0.404297 0.715820 0.0
vt 0.554688 0.749023 0.0
v 18.804062 102.811005 124.951599
#joint 35
#vjoint 23
f 22/55 21/56 23/57
#fvcolorindex 8 8 8 
vt 0.625000 0.806641 0.0
vt 0.483398 0.774414 0.0
vt 0.554688 0.749023 0.0
v 0.000000 119.142868 99.719711
#joint 33
#vjoint 24
f 24/58 22/59 23/60
#fvcolorindex 8 8 8 
vt 0.625000 0.806641 0.0
vt 0.554688 0.749023 0.0
vt 0.705078 0.771484 0.0
v 18.804062 105.811005 71.951599
#joint 35
#vjoint 25
f 24/61 23/62 25/63
#fvcolorindex 8 8 8 
vt 0.765625 0.829102 0.0
vt 0.625000 0.806641 0.0
vt 0.705078 0.771484 0.0
v 0.000000 122.142868 49.719711
#joint 33
#vjoint 26
f 26/64 24/65 25/66
#fvcolorindex 8 8 8 
vt 0.765625 0.829102 0.0
vt 0.705078 0.771484 0.0
vt 0.855469 0.794922 0.0
v 19.000000 109.142868 18.719711
#joint 33
#vjoint 27
f 26/67 25/68 27/69
#fvcolorindex 8 8 8 
vt 0.863281 0.858398 0.0
vt 0.765625 0.829102 0.0
vt 0.859375 0.826172 0.0
v 0.000000 128.049698 2.385006
#joint 37
#vjoint 28
v 9.000000 122.049698 14.385006
#joint 37
#vjoint 29
f 28/70 26/71 29/72
#fvcolorindex 8 8 8 
vt 0.765625 0.829102 0.0
vt 0.855469 0.794922 0.0
vt 0.859375 0.826172 0.0
f 26/73 27/74 29/75
#fvcolorindex 8 8 8 
vt 1.101562 0.877930 0.0
vt 0.943359 0.833008 0.0
vt 1.101562 0.877930 0.0
v 19.000000 109.142868 -12.280289
#joint 33
#vjoint 30
v 9.000000 122.049698 -15.614994
#joint 37
#vjoint 31
v 9.000000 122.049698 0.385006
#joint 37
#vjoint 32
f 30/76 31/77 32/78
#fvcolorindex 8 8 8 
vt 1.101562 0.877930 0.0
vt 1.101562 0.877930 0.0
vt 0.855469 0.794922 0.0
f 30/79 32/80 27/81
#fvcolorindex 8 8 8 
vt 0.943359 0.833008 0.0
vt 1.101562 0.877930 0.0
vt 0.899414 0.830078 0.0
v 0.000000 128.049698 -25.614994
#joint 37
#vjoint 33
f 31/82 33/83 32/84
#fvcolorindex 8 8 8 
vt 1.023438 0.808594 0.0
vt 1.022461 0.839844 0.0
vt 0.983398 0.836914 0.0
v 19.000000 109.142868 -41.280289
#joint 33
#vjoint 34
v 9.000000 122.049698 -43.614994
#joint 37
#vjoint 35
v 9.000000 122.049698 -29.614994
#joint 37
#vjoint 36
f 34/85 35/86 36/87
#fvcolorindex 8 8 8 
vt 1.023438 0.808594 0.0
vt 0.983398 0.836914 0.0
vt 0.943359 0.801758 0.0
f 34/88 36/89 30/90
#fvcolorindex 8 8 8 
vt 1.022461 0.839844 0.0
vt 1.101562 0.877930 0.0
vt 1.101562 0.877930 0.0
v 0.000000 128.049698 -48.614994
#joint 37
#vjoint 37
f 35/91 37/92 36/93
#fvcolorindex 8 8 8 
vt 1.102539 0.815430 0.0
vt 1.101562 0.877930 0.0
vt 1.062500 0.842773 0.0
v 19.000000 109.142868 -69.280289
#joint 33
#vjoint 38
v 0.000000 128.142868 -67.280289
#joint 33
#vjoint 39
v 9.000000 122.142868 -54.280289
#joint 33
#vjoint 40
f 38/94 39/95 40/96
#fvcolorindex 8 8 8 
vt 1.102539 0.815430 0.0
vt 1.062500 0.842773 0.0
vt 1.023438 0.808594 0.0
f 38/97 40/98 34/99
#fvcolorindex 8 8 8 
vt 0.096680 0.564453 0.0
vt 0.072266 0.436523 0.0
vt 0.162109 0.338867 0.0
v 0.000000 22.142868 296.719727
#joint 33
#vjoint 41
#vcolor 208.000000 208.000000 208.000000 255.000000
v 0.000000 -8.857133 265.719727
#joint 33
#vjoint 42
#vcolor 174.000000 174.000000 174.000000 255.000000
f 18/100 41/101 42/102
#fvcolorindex 8 9 10 
usemtl m5CullBothClampSClampT
vt 0.187500 0.414062 0.0
vt 0.096680 0.564453 0.0
vt 0.162109 0.338867 0.0
v 19.000000 13.142867 255.719711
#joint 33
#vjoint 43
#vcolor 182.000000 182.000000 182.000000 255.000000
f 43/103 18/104 42/105
#fvcolorindex 11 8 10 
vt 0.187500 0.414062 0.0
vt 0.162109 0.338867 0.0
vt 0.305664 0.224609 0.0
f 43/106 42/107 13/108
#fvcolorindex 11 10 3 
usemtl m0CullBothClampSClampT
vt 0.277344 0.348633 0.0
vt 0.187500 0.414062 0.0
vt 0.305664 0.224609 0.0
f 4/109 43/110 13/111
#fvcolorindex 1 11 3 
usemtl m4CullBothClampSClampT
vt 1.208984 0.844727 0.0
vt 1.120117 0.847656 0.0
vt 1.102539 0.815430 0.0
v 0.000000 116.142868 -106.280289
#joint 33
#vjoint 44
f 44/112 39/113 38/114
#fvcolorindex 8 8 8 
vt 1.208984 0.844727 0.0
vt 1.102539 0.815430 0.0
vt 1.253906 0.785156 0.0
v 19.000000 97.142868 -122.280289
#joint 33
#vjoint 45
f 44/115 38/116 45/117
#fvcolorindex 8 8 8 
vt 1.208984 0.844727 0.0
vt 1.253906 0.785156 0.0
vt 1.333008 0.823242 0.0
v 0.000000 106.142868 -150.280289
#joint 33
#vjoint 46
f 44/118 45/119 46/120
#fvcolorindex 8 8 8 
vt 1.333008 0.823242 0.0
vt 1.253906 0.785156 0.0
vt 1.361328 0.720703 0.0
v 25.000000 75.142868 -159.280289
#joint 33
#vjoint 47
#vcolor 221.000000 221.000000 221.000000 255.000000
f 46/121 45/122 47/123
#fvcolorindex 8 8 12 
vt 0.096680 0.564453 0.0
vt 0.187500 0.414062 0.0
vt 0.239258 0.512695 0.0
v 31.000000 41.142868 237.719711
#joint 33
#vjoint 48
f 18/124 43/125 48/126
#fvcolorindex 8 11 12 
vt 0.272461 0.663086 0.0
vt 0.096680 0.564453 0.0
vt 0.239258 0.512695 0.0
f 19/127 18/128 48/129
#fvcolorindex 8 8 12 
vt 0.272461 0.663086 0.0
vt 0.239258 0.512695 0.0
vt 0.397461 0.568359 0.0
v 31.000000 53.142868 180.719711
#joint 33
#vjoint 49
#vcolor 242.000000 242.000000 242.000000 255.000000
f 19/130 48/131 49/132
#fvcolorindex 8 12 13 
vt 0.404297 0.715820 0.0
vt 0.272461 0.663086 0.0
vt 0.397461 0.568359 0.0
f 21/133 19/134 49/135
#fvcolorindex 8 8 13 
vt 0.404297 0.715820 0.0
vt 0.397461 0.568359 0.0
vt 0.547852 0.612305 0.0
v 30.804062 62.811005 127.951599
#joint 35
#vjoint 50
f 21/136 49/137 50/138
#fvcolorindex 8 13 13 
vt 0.554688 0.749023 0.0
vt 0.404297 0.715820 0.0
vt 0.547852 0.612305 0.0
f 23/139 21/140 50/141
#fvcolorindex 8 8 13 
vt 0.554688 0.749023 0.0
vt 0.547852 0.612305 0.0
vt 0.698242 0.624023 0.0
v 30.804062 62.811005 74.951599
#joint 35
#vjoint 51
f 23/142 50/143 51/144
#fvcolorindex 8 13 13 
vt 0.705078 0.771484 0.0
vt 0.554688 0.749023 0.0
vt 0.698242 0.624023 0.0
f 25/145 23/146 51/147
#fvcolorindex 8 8 13 
vt 0.705078 0.771484 0.0
vt 0.698242 0.624023 0.0
vt 0.857422 0.637695 0.0
v 31.000000 63.142868 18.719711
#joint 33
#vjoint 52
#vcolor 240.000000 240.000000 240.000000 255.000000
f 25/148 51/149 52/150
#fvcolorindex 8 13 14 
vt 0.855469 0.794922 0.0
vt 0.705078 0.771484 0.0
vt 0.857422 0.637695 0.0
f 27/151 25/152 52/153
#fvcolorindex 8 8 14 
vt 0.855469 0.794922 0.0
vt 0.857422 0.637695 0.0
vt 1.025391 0.640625 0.0
v 31.000000 59.142868 -41.280289
#joint 33
#vjoint 53
f 27/154 52/155 53/156
#fvcolorindex 8 14 13 
vt 0.943359 0.801758 0.0
vt 0.855469 0.794922 0.0
vt 1.025391 0.640625 0.0
f 30/157 27/158 53/159
#fvcolorindex 8 8 13 
vt 1.023438 0.808594 0.0
vt 0.943359 0.801758 0.0
vt 1.025391 0.640625 0.0
f 34/160 30/161 53/162
#fvcolorindex 8 8 13 
usemtl m6CullBothClampSClampT
vt 1.140625 0.639648 0.0
vt 1.023438 0.808594 0.0
vt 1.025391 0.640625 0.0
v 31.000000 56.142868 -81.280289
#joint 33
#vjoint 54
f 54/163 34/164 53/165
#fvcolorindex 13 8 13 
usemtl m4CullBothClampSClampT
vt 1.102539 0.815430 0.0
vt 1.023438 0.808594 0.0
vt 1.140625 0.639648 0.0
f 38/166 34/167 54/168
#fvcolorindex 8 8 13 
vt 1.102539 0.815430 0.0
vt 1.140625 0.639648 0.0
vt 1.253906 0.785156 0.0
f 38/169 54/170 45/171
#fvcolorindex 8 13 8 
vt 1.253906 0.785156 0.0
vt 1.140625 0.639648 0.0
vt 1.185547 0.632812 0.0
v 31.000000 53.142868 -97.280289
#joint 33
#vjoint 55
f 45/172 54/173 55/174
#fvcolorindex 8 13 11 
usemtl m7CullBothClampSClampT
vt 1.361328 0.720703 0.0
vt 1.253906 0.785156 0.0
vt 1.185547 0.632812 0.0
f 47/175 45/176 55/177
#fvcolorindex 12 8 11 
usemtl m5CullBothClampSClampT
vt 1.185547 0.632812 0.0
vt 1.140625 0.639648 0.0
vt 1.027344 0.515625 0.0
v 31.000000 22.142868 -41.280289
#joint 33
#vjoint 56
#vcolor 124.000000 124.000000 124.000000 255.000000
f 55/178 54/179 56/180
#fvcolorindex 11 13 15 
usemtl m8CullBothClampSClampT
vt 1.027344 0.515625 0.0
vt 1.140625 0.639648 0.0
vt 1.025391 0.640625 0.0
f 56/181 54/182 53/183
#fvcolorindex 15 13 13 
usemtl m9CullBothClampSClampT
vt 0.857422 0.637695 0.0
vt 1.027344 0.515625 0.0
vt 1.025391 0.640625 0.0
f 52/184 56/185 53/186
#fvcolorindex 14 15 13 
usemtl m10CullBothClampSClampT
vt 0.861328 0.354492 0.0
vt 1.027344 0.515625 0.0
vt 0.857422 0.637695 0.0
f 7/187 56/188 52/189
#fvcolorindex 4 15 14 
vt 0.861328 0.354492 0.0
vt 0.857422 0.637695 0.0
vt 0.698242 0.624023 0.0
f 7/190 52/191 51/192
#fvcolorindex 4 14 13 
usemtl m11CullBothClampSClampT
vt 0.668945 0.233398 0.0
vt 0.861328 0.354492 0.0
vt 0.698242 0.624023 0.0
v 31.460585 -53.013000 87.502998
#joint 36
#vjoint 57
#vcolor 190.000000 190.000000 190.000000 255.000000
f 57/193 7/194 51/195
#fvcolorindex 16 4 13 
vt 0.668945 0.233398 0.0
vt 0.698242 0.624023 0.0
vt 0.547852 0.612305 0.0
f 57/196 51/197 50/198
#fvcolorindex 16 13 13 
usemtl m12CullBothClampSClampT
vt 0.490234 0.324219 0.0
vt 0.668945 0.233398 0.0
vt 0.547852 0.612305 0.0
v 31.460585 -22.013000 149.502991
#joint 36
#vjoint 58
#vcolor 203.000000 203.000000 203.000000 255.000000
f 58/199 57/200 50/201
#fvcolorindex 17 16 13 
vt 0.490234 0.324219 0.0
vt 0.547852 0.612305 0.0
vt 0.397461 0.568359 0.0
f 58/202 50/203 49/204
#fvcolorindex 17 13 13 
usemtl m0CullBothClampSClampT
vt 0.381836 0.419922 0.0
vt 0.490234 0.324219 0.0
vt 0.397461 0.568359 0.0
v 31.000000 9.142867 187.719711
#joint 33
#vjoint 59
f 59/205 58/206 49/207
#fvcolorindex 1 17 13 
vt 0.381836 0.419922 0.0
vt 0.397461 0.568359 0.0
vt 0.239258 0.512695 0.0
f 59/208 49/209 48/210
#fvcolorindex 1 13 12 
usemtl m5CullBothClampSClampT
vt 0.187500 0.414062 0.0
vt 0.277344 0.348633 0.0
vt 0.257812 0.430664 0.0
f 43/211 4/212 3/213
#fvcolorindex 11 1 2 
usemtl m7CullBothClampSClampT
vt 0.239258 0.512695 0.0
vt 0.187500 0.414062 0.0
vt 0.257812 0.430664 0.0
f 48/214 43/215 3/216
#fvcolorindex 12 11 2 
vt 0.239258 0.512695 0.0
vt 0.257812 0.430664 0.0
vt 0.381836 0.419922 0.0
f 48/217 3/218 59/219
#fvcolorindex 12 2 1 
usemtl m0CullBothClampSClampT
vt 0.381836 0.419922 0.0
vt 0.257812 0.430664 0.0
vt 0.347656 0.354492 0.0
f 59/220 3/221 10/222
#fvcolorindex 1 2 2 
usemtl m12CullBothClampSClampT
vt 0.490234 0.324219 0.0
vt 0.381836 0.419922 0.0
vt 0.347656 0.354492 0.0
f 58/223 59/224 10/225
#fvcolorindex 17 1 2 
vt 0.490234 0.324219 0.0
vt 0.347656 0.354492 0.0
vt 0.455078 0.257812 0.0
f 58/226 10/227 12/228
#fvcolorindex 17 2 6 
usemtl m11CullBothClampSClampT
vt 0.668945 0.233398 0.0
vt 0.490234 0.324219 0.0
vt 0.455078 0.257812 0.0
f 57/229 58/230 12/231
#fvcolorindex 16 17 6 
vt 0.668945 0.233398 0.0
vt 0.455078 0.257812 0.0
vt 0.616211 0.176758 0.0
f 57/232 12/233 15/234
#fvcolorindex 16 6 7 
vt 0.668945 0.233398 0.0
vt 0.616211 0.176758 0.0
vt 0.687500 0.140625 0.0
f 57/235 15/236 8/237
#fvcolorindex 16 7 3 
vt 0.668945 0.233398 0.0
vt 0.687500 0.140625 0.0
vt 0.861328 0.354492 0.0
f 57/238 8/239 7/240
#fvcolorindex 16 3 4 
usemtl m4CullBothClampSClampT
vt 0.096680 0.564453 0.0
vt 0.051758 0.582031 0.0
vt 0.201172 0.666992 0.0
v -19.000000 59.142868 287.719727
#joint 33
#vjoint 60
f 60/241 17/242 16/243
#fvcolorindex 8 8 8 
vt 0.272461 0.663086 0.0
vt 0.096680 0.564453 0.0
vt 0.201172 0.666992 0.0
v -19.000000 84.142868 224.719711
#joint 33
#vjoint 61
f 61/244 60/245 16/246
#fvcolorindex 8 8 8 
vt 0.272461 0.663086 0.0
vt 0.201172 0.666992 0.0
vt 0.342773 0.731445 0.0
f 61/247 16/248 20/249
#fvcolorindex 8 8 8 
vt 0.404297 0.715820 0.0
vt 0.272461 0.663086 0.0
vt 0.342773 0.731445 0.0
v -19.000000 97.142868 177.719711
#joint 33
#vjoint 62
f 62/250 61/251 20/252
#fvcolorindex 8 8 8 
vt 0.404297 0.715820 0.0
vt 0.342773 0.731445 0.0
vt 0.483398 0.774414 0.0
f 62/253 20/254 22/255
#fvcolorindex 8 8 8 
vt 0.554688 0.749023 0.0
vt 0.404297 0.715820 0.0
vt 0.483398 0.774414 0.0
v -18.771393 102.811005 124.951599
#joint 38
#vjoint 63
f 63/256 62/257 22/258
#fvcolorindex 8 8 8 
vt 0.554688 0.749023 0.0
vt 0.483398 0.774414 0.0
vt 0.625000 0.806641 0.0
f 63/259 22/260 24/261
#fvcolorindex 8 8 8 
vt 0.705078 0.771484 0.0
vt 0.554688 0.749023 0.0
vt 0.625000 0.806641 0.0
v -18.771393 105.811005 71.951599
#joint 38
#vjoint 64
f 64/262 63/263 24/264
#fvcolorindex 8 8 8 
vt 0.705078 0.771484 0.0
vt 0.625000 0.806641 0.0
vt 0.765625 0.829102 0.0
f 64/265 24/266 26/267
#fvcolorindex 8 8 8 
vt 0.855469 0.794922 0.0
vt 0.705078 0.771484 0.0
vt 0.765625 0.829102 0.0
v -19.000000 109.142868 18.719711
#joint 33
#vjoint 65
f 65/268 64/269 26/270
#fvcolorindex 8 8 8 
vt 0.855469 0.794922 0.0
vt 0.765625 0.829102 0.0
vt 0.859375 0.826172 0.0
v -9.000000 122.049698 14.385006
#joint 37
#vjoint 66
f 65/271 26/272 66/273
#fvcolorindex 8 8 8 
vt 0.765625 0.829102 0.0
vt 0.863281 0.858398 0.0
vt 0.859375 0.826172 0.0
f 26/274 28/275 66/276
#fvcolorindex 8 8 8 
vt 0.855469 0.794922 0.0
vt 0.899414 0.830078 0.0
vt 0.943359 0.833008 0.0
v -9.000000 122.049698 0.385006
#joint 37
#vjoint 67
v -9.000000 122.049698 -15.614994
#joint 37
#vjoint 68
f 65/277 67/278 68/279
#fvcolorindex 8 8 8 
vt 0.855469 0.794922 0.0
vt 0.943359 0.833008 0.0
vt 0.943359 0.801758 0.0
v -19.000000 109.142868 -12.280289
#joint 33
#vjoint 69
f 65/280 68/281 69/282
#fvcolorindex 8 8 8 
vt 0.899414 0.830078 0.0
vt 0.942383 0.865234 0.0
vt 0.943359 0.833008 0.0
f 67/283 33/284 68/285
#fvcolorindex 8 8 8 
vt 1.101562 0.877930 0.0
vt 1.101562 0.877930 0.0
vt 1.022461 0.839844 0.0
v -9.000000 122.049698 -29.614994
#joint 37
#vjoint 70
v -9.000000 122.049698 -43.614994
#joint 37
#vjoint 71
f 69/286 70/287 71/288
#fvcolorindex 8 8 8 
vt 1.101562 0.877930 0.0
vt 1.022461 0.839844 0.0
vt 1.023438 0.808594 0.0
v -19.000000 109.142868 -41.280289
#joint 33
#vjoint 72
f 69/289 71/290 72/291
#fvcolorindex 8 8 8 
vt 0.983398 0.836914 0.0
vt 1.022461 0.871094 0.0
vt 1.022461 0.839844 0.0
f 70/292 37/293 71/294
#fvcolorindex 8 8 8 
vt 1.023438 0.808594 0.0
vt 1.062500 0.842773 0.0
vt 1.101562 0.877930 0.0
v -9.000000 122.142868 -54.280289
#joint 33
#vjoint 73
f 72/295 73/296 39/297
#fvcolorindex 8 8 8 
vt 1.023438 0.808594 0.0
vt 1.101562 0.877930 0.0
vt 1.102539 0.815430 0.0
v -19.000000 109.142868 -69.280289
#joint 33
#vjoint 74
f 72/298 39/299 74/300
#fvcolorindex 8 8 8 
usemtl m13CullBothClampSClampT
vt 0.162109 0.338867 0.0
vt 0.072266 0.436523 0.0
vt 0.096680 0.564453 0.0
f 42/301 41/302 60/303
#fvcolorindex 10 9 8 
vt 0.162109 0.338867 0.0
vt 0.096680 0.564453 0.0
vt 0.187500 0.414062 0.0
v -19.000000 13.142867 255.719711
#joint 33
#vjoint 75
f 42/304 60/305 75/306
#fvcolorindex 10 8 11 
usemtl m1CullBothClampSClampT
vt 0.305664 0.224609 0.0
vt 0.162109 0.338867 0.0
vt 0.187500 0.414062 0.0
f 13/307 42/308 75/309
#fvcolorindex 3 10 11 
vt 0.305664 0.224609 0.0
vt 0.187500 0.414062 0.0
vt 0.277344 0.348633 0.0
f 13/310 75/311 1/312
#fvcolorindex 3 11 1 
usemtl m4CullBothClampSClampT
vt 1.102539 0.815430 0.0
vt 1.120117 0.847656 0.0
vt 1.208984 0.844727 0.0
f 74/313 39/314 44/315
#fvcolorindex 8 8 8 
vt 1.253906 0.785156 0.0
vt 1.102539 0.815430 0.0
vt 1.208984 0.844727 0.0
v -19.000000 97.142868 -122.280289
#joint 33
#vjoint 76
f 76/316 74/317 44/318
#fvcolorindex 8 8 8 
vt 1.333008 0.823242 0.0
vt 1.253906 0.785156 0.0
vt 1.208984 0.844727 0.0
f 46/319 76/320 44/321
#fvcolorindex 8 8 8 
usemtl m7CullBothClampSClampT
vt 1.361328 0.720703 0.0
vt 1.253906 0.785156 0.0
vt 1.333008 0.823242 0.0
v -25.000000 75.142868 -159.280289
#joint 33
#vjoint 77
f 77/322 76/323 46/324
#fvcolorindex 12 8 8 
vt 0.239258 0.512695 0.0
vt 0.187500 0.414062 0.0
vt 0.096680 0.564453 0.0
v -31.000000 41.142868 237.719711
#joint 33
#vjoint 78
f 78/325 75/326 60/327
#fvcolorindex 12 11 8 
vt 0.239258 0.512695 0.0
vt 0.096680 0.564453 0.0
vt 0.272461 0.663086 0.0
f 78/328 60/329 61/330
#fvcolorindex 12 8 8 
usemtl m6CullBothClampSClampT
vt 0.397461 0.568359 0.0
vt 0.239258 0.512695 0.0
vt 0.272461 0.663086 0.0
v -31.000000 53.142868 180.719711
#joint 33
#vjoint 79
f 79/331 78/332 61/333
#fvcolorindex 13 12 8 
vt 0.397461 0.568359 0.0
vt 0.272461 0.663086 0.0
vt 0.404297 0.715820 0.0
f 79/334 61/335 62/336
#fvcolorindex 13 8 8 
vt 0.547852 0.612305 0.0
vt 0.397461 0.568359 0.0
vt 0.404297 0.715820 0.0
v -30.771393 62.811005 127.951599
#joint 38
#vjoint 80
f 80/337 79/338 62/339
#fvcolorindex 13 13 8 
vt 0.547852 0.612305 0.0
vt 0.404297 0.715820 0.0
vt 0.554688 0.749023 0.0
f 80/340 62/341 63/342
#fvcolorindex 13 8 8 
vt 0.698242 0.624023 0.0
vt 0.547852 0.612305 0.0
vt 0.554688 0.749023 0.0
v -30.771393 62.811005 74.951599
#joint 38
#vjoint 81
f 81/343 80/344 63/345
#fvcolorindex 13 13 8 
vt 0.698242 0.624023 0.0
vt 0.554688 0.749023 0.0
vt 0.705078 0.771484 0.0
f 81/346 63/347 64/348
#fvcolorindex 13 8 8 
usemtl m9CullBothClampSClampT
vt 0.857422 0.637695 0.0
vt 0.698242 0.624023 0.0
vt 0.705078 0.771484 0.0
v -31.000000 63.142868 18.719711
#joint 33
#vjoint 82
f 82/349 81/350 64/351
#fvcolorindex 14 13 8 
vt 0.857422 0.637695 0.0
vt 0.705078 0.771484 0.0
vt 0.855469 0.794922 0.0
f 82/352 64/353 65/354
#fvcolorindex 14 8 8 
usemtl m6CullBothClampSClampT
vt 1.025391 0.640625 0.0
vt 0.857422 0.637695 0.0
vt 0.855469 0.794922 0.0
v -31.000000 59.142868 -41.280289
#joint 33
#vjoint 83
f 83/355 82/356 65/357
#fvcolorindex 13 14 8 
vt 1.025391 0.640625 0.0
vt 0.855469 0.794922 0.0
vt 0.943359 0.801758 0.0
f 83/358 65/359 69/360
#fvcolorindex 13 8 8 
vt 1.025391 0.640625 0.0
vt 0.943359 0.801758 0.0
vt 1.023438 0.808594 0.0
f 83/361 69/362 72/363
#fvcolorindex 13 8 8 
vt 1.025391 0.640625 0.0
vt 1.023438 0.808594 0.0
vt 1.140625 0.639648 0.0
v -31.000000 56.142868 -81.280289
#joint 33
#vjoint 84
f 83/364 72/365 84/366
#fvcolorindex 13 8 13 
vt 1.140625 0.639648 0.0
vt 1.023438 0.808594 0.0
vt 1.102539 0.815430 0.0
f 84/367 72/368 74/369
#fvcolorindex 13 8 8 
usemtl m4CullBothClampSClampT
vt 1.253906 0.785156 0.0
vt 1.140625 0.639648 0.0
vt 1.102539 0.815430 0.0
f 76/370 84/371 74/372
#fvcolorindex 8 13 8 
usemtl m5CullBothClampSClampT
vt 1.185547 0.632812 0.0
vt 1.140625 0.639648 0.0
vt 1.253906 0.785156 0.0
v -31.000000 53.142868 -97.280289
#joint 33
#vjoint 85
f 85/373 84/374 76/375
#fvcolorindex 11 13 8 
vt 1.185547 0.632812 0.0
vt 1.253906 0.785156 0.0
vt 1.361328 0.720703 0.0
f 85/376 76/377 77/378
#fvcolorindex 11 8 12 
usemtl m8CullBothClampSClampT
vt 1.027344 0.515625 0.0
vt 1.140625 0.639648 0.0
vt 1.185547 0.632812 0.0
v -31.000000 22.142868 -41.280289
#joint 33
#vjoint 86
f 86/379 84/380 85/381
#fvcolorindex 15 13 11 
usemtl m6CullBothClampSClampT
vt 1.025391 0.640625 0.0
vt 1.140625 0.639648 0.0
vt 1.027344 0.515625 0.0
f 83/382 84/383 86/384
#fvcolorindex 13 13 15 
vt 1.025391 0.640625 0.0
vt 1.027344 0.515625 0.0
vt 0.857422 0.637695 0.0
f 83/385 86/386 82/387
#fvcolorindex 13 15 14 
usemtl m9CullBothClampSClampT
vt 0.857422 0.637695 0.0
vt 1.027344 0.515625 0.0
vt 0.861328 0.354492 0.0
f 82/388 86/389 6/390
#fvcolorindex 14 15 4 
usemtl m6CullBothClampSClampT
vt 0.698242 0.624023 0.0
vt 0.857422 0.637695 0.0
vt 0.861328 0.354492 0.0
f 81/391 82/392 6/393
#fvcolorindex 13 14 4 
vt 0.698242 0.624023 0.0
vt 0.861328 0.354492 0.0
vt 0.668945 0.233398 0.0
v -31.285656 -53.013000 87.502998
#joint 39
#vjoint 87
f 81/394 6/395 87/396
#fvcolorindex 13 4 16 
vt 0.547852 0.612305 0.0
vt 0.698242 0.624023 0.0
vt 0.668945 0.233398 0.0
f 80/397 81/398 87/399
#fvcolorindex 13 13 16 
vt 0.547852 0.612305 0.0
vt 0.668945 0.233398 0.0
vt 0.490234 0.324219 0.0
v -31.285656 -22.013000 149.502991
#joint 39
#vjoint 88
f 80/400 87/401 88/402
#fvcolorindex 13 16 17 
vt 0.397461 0.568359 0.0
vt 0.547852 0.612305 0.0
vt 0.490234 0.324219 0.0
f 79/403 80/404 88/405
#fvcolorindex 13 13 17 
vt 0.397461 0.568359 0.0
vt 0.490234 0.324219 0.0
vt 0.381836 0.419922 0.0
v -31.000000 9.142867 187.719711
#joint 33
#vjoint 89
f 79/406 88/407 89/408
#fvcolorindex 13 17 1 
usemtl m7CullBothClampSClampT
vt 0.239258 0.512695 0.0
vt 0.397461 0.568359 0.0
vt 0.381836 0.419922 0.0
f 78/409 79/410 89/411
#fvcolorindex 12 13 1 
usemtl m2CullBothClampSClampT
vt 0.257812 0.430664 0.0
vt 0.277344 0.348633 0.0
vt 0.187500 0.414062 0.0
f 2/412 1/413 75/414
#fvcolorindex 2 1 11 
vt 0.257812 0.430664 0.0
vt 0.187500 0.414062 0.0
vt 0.239258 0.512695 0.0
f 2/415 75/416 78/417
#fvcolorindex 2 11 12 
usemtl m0CullBothClampSClampT
vt 0.381836 0.419922 0.0
vt 0.257812 0.430664 0.0
vt 0.239258 0.512695 0.0
f 89/418 2/419 78/420
#fvcolorindex 1 2 12 
usemtl m2CullBothClampSClampT
vt 0.347656 0.354492 0.0
vt 0.257812 0.430664 0.0
vt 0.381836 0.419922 0.0
f 9/421 2/422 89/423
#fvcolorindex 2 2 1 
vt 0.347656 0.354492 0.0
vt 0.381836 0.419922 0.0
vt 0.490234 0.324219 0.0
f 9/424 89/425 88/426
#fvcolorindex 2 1 17 
usemtl m3CullBothClampSClampT
vt 0.455078 0.257812 0.0
vt 0.347656 0.354492 0.0
vt 0.490234 0.324219 0.0
f 11/427 9/428 88/429
#fvcolorindex 6 2 17 
vt 0.455078 0.257812 0.0
vt 0.490234 0.324219 0.0
vt 0.668945 0.233398 0.0
f 11/430 88/431 87/432
#fvcolorindex 6 17 16 
usemtl m14CullBothClampSClampT
vt 0.616211 0.176758 0.0
vt 0.455078 0.257812 0.0
vt 0.668945 0.233398 0.0
f 14/433 11/434 87/435
#fvcolorindex 7 6 16 
usemtl m1CullBothClampSClampT
vt 0.687500 0.140625 0.0
vt 0.616211 0.176758 0.0
vt 0.668945 0.233398 0.0
f 5/436 14/437 87/438
#fvcolorindex 3 7 16 
usemtl m10CullBothClampSClampT
vt 0.861328 0.354492 0.0
vt 0.687500 0.140625 0.0
vt 0.668945 0.233398 0.0
f 6/439 5/440 87/441
#fvcolorindex 4 3 16 
usemtl m15CullBothClampSClampT
vt 0.000000 0.000000 0.0
vt 0.000000 0.000000 0.0
vt 0.000000 0.000000 0.0
v 0.000000 109.142868 33.719711
#joint 33
#vjoint 90
f 28/442 29/443 90/444
#fvcolorindex 5 5 5 
vt 0.000000 0.000000 0.0
vt 0.000000 0.000000 0.0
vt 0.000000 0.000000 0.0
f 29/445 27/446 90/447
#fvcolorindex 5 5 5 
vt 0.000000 0.000000 0.0
vt 0.000000 0.000000 0.0
vt 0.000000 0.000000 0.0
f 65/448 66/449 90/450
#fvcolorindex 5 5 5 
vt 0.000000 0.000000 0.0
vt 0.000000 0.000000 0.0
vt 0.000000 0.000000 0.0
f 66/451 28/452 90/453
#fvcolorindex 5 5 5 
usemtl m4CullBothClampSClampT
vt 1.101562 0.877930 0.0
vt 0.899414 0.830078 0.0
vt 1.101562 0.877930 0.0
v 0.000000 122.049698 7.385006
#joint 37
#vjoint 91
f 33/454 91/455 32/456
#fvcolorindex 8 8 8 
vt 0.899414 0.830078 0.0
vt 0.000000 0.000000 0.0
vt 0.855469 0.794922 0.0
#vcolor 249.000000 249.000000 249.000000 255.000000
f 91/457 90/458 27/459
#fvcolorindex 8 18 8 
vt 0.899414 0.830078 0.0
vt 0.855469 0.794922 0.0
vt 1.101562 0.877930 0.0
f 91/460 27/461 32/462
#fvcolorindex 8 8 8 
vt 0.855469 0.794922 0.0
vt 0.000000 0.000000 0.0
vt 0.899414 0.830078 0.0
f 65/463 90/464 91/465
#fvcolorindex 8 18 8 
vt 0.855469 0.794922 0.0
vt 0.899414 0.830078 0.0
vt 0.899414 0.830078 0.0
f 65/466 91/467 67/468
#fvcolorindex 8 8 8 
vt 0.899414 0.830078 0.0
vt 1.101562 0.877930 0.0
vt 0.899414 0.830078 0.0
f 91/469 33/470 67/471
#fvcolorindex 8 8 8 
usemtl m15CullBothClampSClampT
vt 0.000000 0.000000 0.0
vt 0.000000 0.000000 0.0
vt 0.000000 0.000000 0.0
v 0.000000 109.142868 4.719711
#joint 33
#vjoint 92
f 33/472 31/473 92/474
#fvcolorindex 5 5 5 
vt 0.000000 0.000000 0.0
vt 0.000000 0.000000 0.0
vt 0.000000 0.000000 0.0
f 31/475 30/476 92/477
#fvcolorindex 5 5 5 
vt 0.000000 0.000000 0.0
vt 0.000000 0.000000 0.0
vt 0.000000 0.000000 0.0
f 69/478 68/479 92/480
#fvcolorindex 5 5 5 
vt 0.000000 0.000000 0.0
vt 0.000000 0.000000 0.0
vt 0.000000 0.000000 0.0
f 68/481 33/482 92/483
#fvcolorindex 5 5 5 
usemtl m4CullBothClampSClampT
vt 1.101562 0.877930 0.0
vt 1.101562 0.877930 0.0
vt 1.101562 0.877930 0.0
v 0.000000 122.049698 -20.614994
#joint 37
#vjoint 93
f 37/484 93/485 36/486
#fvcolorindex 8 8 8 
vt 1.101562 0.877930 0.0
vt 0.000000 0.000000 0.0
vt 1.101562 0.877930 0.0
f 93/487 92/488 30/489
#fvcolorindex 8 18 8 
vt 1.101562 0.877930 0.0
vt 1.101562 0.877930 0.0
vt 1.101562 0.877930 0.0
f 93/490 30/491 36/492
#fvcolorindex 8 8 8 
vt 1.101562 0.877930 0.0
vt 0.000000 0.000000 0.0
vt 1.101562 0.877930 0.0
f 69/493 92/494 93/495
#fvcolorindex 8 18 8 
vt 1.101562 0.877930 0.0
vt 1.101562 0.877930 0.0
vt 1.101562 0.877930 0.0
f 69/496 93/497 70/498
#fvcolorindex 8 8 8 
vt 1.101562 0.877930 0.0
vt 1.101562 0.877930 0.0
vt 1.101562 0.877930 0.0
f 93/499 37/500 70/501
#fvcolorindex 8 8 8 
usemtl m15CullBothClampSClampT
vt 0.000000 0.000000 0.0
vt 0.000000 0.000000 0.0
vt 0.000000 0.000000 0.0
v 0.000000 109.142868 -22.280289
#joint 33
#vjoint 94
f 37/502 35/503 94/504
#fvcolorindex 5 5 5 
vt 0.000000 0.000000 0.0
vt 0.000000 0.000000 0.0
vt 0.000000 0.000000 0.0
f 35/505 34/506 94/507
#fvcolorindex 5 5 5 
vt 0.000000 0.000000 0.0
vt 0.000000 0.000000 0.0
vt 0.000000 0.000000 0.0
f 72/508 71/509 94/510
#fvcolorindex 5 5 5 
vt 0.000000 0.000000 0.0
vt 0.000000 0.000000 0.0
vt 0.000000 0.000000 0.0
f 71/511 37/512 94/513
#fvcolorindex 5 5 5 
usemtl m4CullBothClampSClampT
vt 1.101562 0.877930 0.0
vt 1.101562 0.877930 0.0
vt 1.062500 0.842773 0.0
v 0.000000 122.142868 -45.280289
#joint 33
#vjoint 95
f 39/514 95/515 40/516
#fvcolorindex 8 18 8 
usemtl m16CullBothClampSClampT
vt 1.101562 0.877930 0.0
vt 0.000000 0.000000 0.0
vt 1.023438 0.808594 0.0
f 95/517 94/518 34/519
#fvcolorindex 18 18 8 
vt 1.101562 0.877930 0.0
vt 1.023438 0.808594 0.0
vt 1.062500 0.842773 0.0
f 95/520 34/521 40/522
#fvcolorindex 18 8 8 
usemtl m4CullBothClampSClampT
vt 1.023438 0.808594 0.0
vt 0.000000 0.000000 0.0
vt 1.101562 0.877930 0.0
f 72/523 94/524 95/525
#fvcolorindex 8 18 18 
vt 1.023438 0.808594 0.0
vt 1.101562 0.877930 0.0
vt 1.062500 0.842773 0.0
f 72/526 95/527 73/528
#fvcolorindex 8 18 8 
vt 1.101562 0.877930 0.0
vt 1.101562 0.877930 0.0
vt 1.062500 0.842773 0.0
f 95/529 39/530 73/531
#fvcolorindex 8 8 8 
usemtl m17CullBoth
vt -3.087891 0.553711 0.0
vt -2.866211 0.645508 0.0
vt -2.719727 0.502930 0.0
v 13.000000 -24.857132 18.719711
#joint 33
#vjoint 96
v 13.000000 -52.857132 2.719711
#joint 33
#vjoint 97
#vcolor 188.000000 188.000000 188.000000 255.000000
v 13.000000 -2.857133 -9.280289
#joint 33
#vjoint 98
f 96/532 97/533 98/534
#fvcolorindex 5 19 5 
vt -2.719727 0.502930 0.0
vt -2.866211 0.645508 0.0
vt -2.326172 0.629883 0.0
v 13.000000 -40.857132 -37.280289
#joint 33
#vjoint 99
f 98/535 97/536 99/537
#fvcolorindex 5 19 2 
usemtl m18CullBoth
vt -2.326172 0.629883 0.0
vt -2.866211 0.645508 0.0
vt -2.592773 0.804688 0.0
v 13.000000 -102.857132 -16.280289
#joint 33
#vjoint 100
f 99/538 97/539 100/540
#fvcolorindex 2 19 19 
usemtl m19CullBoth
vt -1.878906 0.832031 0.0
vt -2.326172 0.629883 0.0
vt -2.592773 0.804688 0.0
v 13.000000 -102.857132 -69.280289
#joint 33
#vjoint 101
#vcolor 156.000000 156.000000 156.000000 255.000000
f 101/541 99/542 100/543
#fvcolorindex 20 2 19 
usemtl m17CullBoth
vt -2.450195 0.499023 0.0
vt -2.719727 0.502930 0.0
vt -2.326172 0.629883 0.0
v 0.000000 -5.857133 -25.280289
#joint 33
#vjoint 102
f 102/544 98/545 99/546
#fvcolorindex 5 5 2 
vt -2.450195 0.499023 0.0
vt -2.326172 0.629883 0.0
vt -2.097656 0.623047 0.0
v 0.000000 -43.857132 -50.280289
#joint 33
#vjoint 103
#vcolor 133.000000 133.000000 133.000000 255.000000
f 102/547 99/548 103/549
#fvcolorindex 5 2 21 
usemtl m20CullBoth
vt -2.097656 0.623047 0.0
vt -2.326172 0.629883 0.0
vt -1.878906 0.832031 0.0
f 103/550 99/551 101/552
#fvcolorindex 21 2 20 
usemtl m21CullBoth
vt -1.694336 0.814453 0.0
vt -2.097656 0.623047 0.0
vt -1.878906 0.832031 0.0
v 0.000000 -102.857132 -78.280289
#joint 33
#vjoint 104
#vcolor 120.000000 120.000000 120.000000 255.000000
f 104/553 103/554 101/555
#fvcolorindex 22 21 20 
usemtl m17CullBoth
vt -2.398438 0.477539 0.0
vt -2.719727 0.502930 0.0
vt -2.450195 0.499023 0.0
f 56/556 98/557 102/558
#fvcolorindex 5 5 5 
vt -3.176758 0.577148 0.0
vt -2.719727 0.502930 0.0
vt -2.398438 0.477539 0.0
f 7/559 98/560 56/561
#fvcolorindex 5 5 5 
vt -3.087891 0.553711 0.0
vt -2.719727 0.502930 0.0
vt -3.176758 0.577148 0.0
f 96/562 98/563 7/564
#fvcolorindex 5 5 5 
vt -2.398438 0.477539 0.0
vt -2.450195 0.499023 0.0
vt -1.741211 0.489258 0.0
v 0.000000 6.142867 -78.280289
#joint 33
#vjoint 105
f 56/565 102/566 105/567
#fvcolorindex 5 5 5 
vt -1.656250 0.414062 0.0
vt -2.398438 0.477539 0.0
vt -1.741211 0.489258 0.0
f 55/568 56/569 105/570
#fvcolorindex 5 5 5 
vt -1.656250 0.414062 0.0
vt -1.741211 0.489258 0.0
vt -0.696289 0.501953 0.0
v 0.000000 16.142868 -156.280289
#joint 33
#vjoint 106
#vcolor 82.000000 82.000000 82.000000 255.000000
f 55/571 105/572 106/573
#fvcolorindex 5 5 23 
usemtl m22CullBoth
vt -0.795898 0.370117 0.0
vt -1.656250 0.414062 0.0
vt -0.696289 0.501953 0.0
#vcolor 146.000000 146.000000 146.000000 255.000000
f 47/574 55/575 106/576
#fvcolorindex 24 5 23 
vt -0.795898 0.370117 0.0
vt -0.696289 0.501953 0.0
vt 0.225586 0.518555 0.0
v 0.000000 22.142868 -225.280289
#joint 33
#vjoint 107
#vcolor 112.000000 112.000000 112.000000 255.000000
f 47/577 106/578 107/579
#fvcolorindex 24 23 25 
usemtl m23CullBoth
vt 0.176758 0.426758 0.0
vt -0.795898 0.370117 0.0
vt 0.225586 0.518555 0.0
v 16.000000 63.142868 -228.280289
#joint 33
#vjoint 108
f 108/580 47/581 107/582
#fvcolorindex 17 24 25 
vt 0.176758 0.426758 0.0
vt 0.225586 0.518555 0.0
vt 1.231445 0.547852 0.0
v 0.000000 25.142868 -300.280273
#joint 33
#vjoint 109
#vcolor 137.000000 137.000000 137.000000 255.000000
f 108/583 107/584 109/585
#fvcolorindex 17 25 26 
usemtl m24CullBoth
vt -0.818359 0.228516 0.0
vt -0.795898 0.370117 0.0
vt 0.176758 0.426758 0.0
f 46/586 47/587 108/588
#fvcolorindex 13 24 17 
usemtl m25CullBoth
vt 0.029297 0.316406 0.0
vt -0.818359 0.228516 0.0
vt 0.176758 0.426758 0.0
v 0.000000 88.142868 -212.280289
#joint 33
#vjoint 110
f 110/589 46/590 108/591
#fvcolorindex 14 13 17 
usemtl m26CullBoth
vt 0.666992 0.396484 0.0
vt 0.029297 0.316406 0.0
vt 0.176758 0.426758 0.0
v 0.000000 69.142868 -259.280273
#joint 33
#vjoint 111
#vcolor 229.000000 229.000000 229.000000 255.000000
f 111/592 110/593 108/594
#fvcolorindex 27 14 17 
usemtl m27CullBoth
vt 1.350586 0.505859 0.0
vt 0.176758 0.426758 0.0
vt 1.231445 0.547852 0.0
v 0.000000 41.142868 -309.280273
#joint 33
#vjoint 112
#vcolor 195.000000 195.000000 195.000000 255.000000
f 112/595 108/596 109/597
#fvcolorindex 28 17 26 
usemtl m26CullBoth
vt 0.666992 0.396484 0.0
vt 0.176758 0.426758 0.0
vt 1.350586 0.505859 0.0
f 111/598 108/599 112/600
#fvcolorindex 27 17 28 
usemtl m17CullBoth
vt -2.719727 0.502930 0.0
vt -2.866211 0.645508 0.0
vt -3.087891 0.553711 0.0
v -12.000000 -2.857133 -9.280289
#joint 33
#vjoint 113
v -12.000000 -52.857132 2.719711
#joint 33
#vjoint 114
v -12.000000 -24.857132 18.719711
#joint 33
#vjoint 115
f 113/601 114/602 115/603
#fvcolorindex 5 19 5 
usemtl m18CullBoth
vt -2.326172 0.629883 0.0
vt -2.866211 0.645508 0.0
vt -2.719727 0.502930 0.0
v -12.000000 -40.857132 -37.280289
#joint 33
#vjoint 116
f 116/604 114/605 113/606
#fvcolorindex 2 19 5 
usemtl m28CullBoth
vt -2.592773 0.804688 0.0
vt -2.866211 0.645508 0.0
vt -2.326172 0.629883 0.0
v -12.000000 -102.857132 -16.280289
#joint 33
#vjoint 117
f 117/607 114/608 116/609
#fvcolorindex 19 19 2 
vt -2.592773 0.804688 0.0
vt -2.326172 0.629883 0.0
vt -1.878906 0.832031 0.0
v -12.000000 -102.857132 -69.280289
#joint 33
#vjoint 118
f 117/610 116/611 118/612
#fvcolorindex 19 2 20 
usemtl m18CullBoth
vt -2.326172 0.629883 0.0
vt -2.719727 0.502930 0.0
vt -2.450195 0.499023 0.0
f 116/613 113/614 102/615
#fvcolorindex 2 5 5 
usemtl m20CullBoth
vt -2.097656 0.623047 0.0
vt -2.326172 0.629883 0.0
vt -2.450195 0.499023 0.0
f 103/616 116/617 102/618
#fvcolorindex 21 2 5 
usemtl m19CullBoth
vt -1.878906 0.832031 0.0
vt -2.326172 0.629883 0.0
vt -2.097656 0.623047 0.0
f 118/619 116/620 103/621
#fvcolorindex 20 2 21 
vt -1.878906 0.832031 0.0
vt -2.097656 0.623047 0.0
vt -1.694336 0.814453 0.0
f 118/622 103/623 104/624
#fvcolorindex 20 21 22 
usemtl m17CullBoth
vt -2.450195 0.499023 0.0
vt -2.719727 0.502930 0.0
vt -2.398438 0.477539 0.0
f 102/625 113/626 86/627
#fvcolorindex 5 5 5 
vt -2.398438 0.477539 0.0
vt -2.719727 0.502930 0.0
vt -3.176758 0.577148 0.0
f 86/628 113/629 6/630
#fvcolorindex 5 5 5 
vt -3.176758 0.577148 0.0
vt -2.719727 0.502930 0.0
vt -3.087891 0.553711 0.0
f 6/631 113/632 115/633
#fvcolorindex 5 5 5 
vt -1.741211 0.489258 0.0
vt -2.450195 0.499023 0.0
vt -2.398438 0.477539 0.0
f 105/634 102/635 86/636
#fvcolorindex 5 5 5 
vt -1.741211 0.489258 0.0
vt -2.398438 0.477539 0.0
vt -1.656250 0.414062 0.0
f 105/637 86/638 85/639
#fvcolorindex 5 5 5 
usemtl m29CullBoth
vt -0.696289 0.501953 0.0
vt -1.741211 0.489258 0.0
vt -1.656250 0.414062 0.0
f 106/640 105/641 85/642
#fvcolorindex 23 5 5 
vt -0.696289 0.501953 0.0
vt -1.656250 0.414062 0.0
vt -0.795898 0.370117 0.0
f 106/643 85/644 77/645
#fvcolorindex 23 5 24 
usemtl m30CullBoth
vt 0.225586 0.518555 0.0
vt -0.696289 0.501953 0.0
vt -0.795898 0.370117 0.0
f 107/646 106/647 77/648
#fvcolorindex 25 23 24 
vt 0.225586 0.518555 0.0
vt -0.795898 0.370117 0.0
vt 0.176758 0.426758 0.0
v -16.000000 63.142868 -228.280289
#joint 33
#vjoint 119
f 107/649 77/650 119/651
#fvcolorindex 25 24 17 
usemtl m31CullBoth
vt 1.231445 0.547852 0.0
vt 0.225586 0.518555 0.0
vt 0.176758 0.426758 0.0
f 109/652 107/653 119/654
#fvcolorindex 26 25 17 
usemtl m23CullBoth
vt 0.176758 0.426758 0.0
vt -0.795898 0.370117 0.0
vt -0.818359 0.228516 0.0
f 119/655 77/656 46/657
#fvcolorindex 17 24 13 
vt 0.176758 0.426758 0.0
vt -0.818359 0.228516 0.0
vt 0.029297 0.316406 0.0
f 119/658 46/659 110/660
#fvcolorindex 17 13 14 
vt 0.176758 0.426758 0.0
vt 0.029297 0.316406 0.0
vt 0.666992 0.396484 0.0
f 119/661 110/662 111/663
#fvcolorindex 17 14 27 
usemtl m31CullBoth
vt 1.231445 0.547852 0.0
vt 0.176758 0.426758 0.0
vt 1.350586 0.505859 0.0
f 109/664 119/665 112/666
#fvcolorindex 26 17 28 
usemtl m27CullBoth
vt 1.350586 0.505859 0.0
vt 0.176758 0.426758 0.0
vt 0.666992 0.396484 0.0
f 112/667 119/668 111/669
#fvcolorindex 28 17 27 
usemtl m28CullBoth
vt -2.866211 0.645508 0.0
vt -2.866211 0.645508 0.0
vt -3.087891 0.553711 0.0
f 114/670 97/671 96/672
#fvcolorindex 19 19 5 
vt -2.866211 0.645508 0.0
vt -3.087891 0.553711 0.0
vt -3.087891 0.553711 0.0
f 114/673 96/674 115/675
#fvcolorindex 19 5 5 
usemtl m32CullBoth
vt -2.592773 0.804688 0.0
vt -2.592773 0.804688 0.0
vt -2.866211 0.645508 0.0
f 117/676 100/677 97/678
#fvcolorindex 8 19 19 
vt -2.592773 0.804688 0.0
vt -2.866211 0.645508 0.0
vt -2.866211 0.645508 0.0
f 117/679 97/680 114/681
#fvcolorindex 8 19 19 
usemtl m19CullBoth
vt -1.878906 0.832031 0.0
vt -1.878906 0.832031 0.0
vt -2.592773 0.804688 0.0
f 118/682 101/683 100/684
#fvcolorindex 20 20 19 
vt -1.878906 0.832031 0.0
vt -2.592773 0.804688 0.0
vt -2.592773 0.804688 0.0
f 118/685 100/686 117/687
#fvcolorindex 20 19 19 
usemtl m21CullBoth
vt -1.694336 0.814453 0.0
vt -1.878906 0.832031 0.0
vt -1.878906 0.832031 0.0
f 104/688 101/689 118/690
#fvcolorindex 22 20 20 
usemtl m33CullBothMirrorSMirrorT
vt 0.121094 0.996094 0.0
vt 1.000000 0.000000 0.0
vt 0.000000 0.000000 0.0
f 17/691 41/692 18/693
#fvcolorindex 8 9 8 
vt 0.000000 0.000000 0.0
vt 1.000000 0.000000 0.0
vt 0.121094 0.996094 0.0
f 60/694 41/695 17/696
#fvcolorindex 8 9 8 
g Room03
g Room03_primary
usemtl m32CullBoth
vt 0.341797 0.177734 0.0
vt 0.301758 0.175781 0.0
vt 0.152344 0.320312 0.0
v 6.000000 -227.513123 148.048721
#joint 42
#vjoint 120
#vcolor 254.000000 254.000000 254.000000 255.000000
v 0.000000 -227.513123 144.048721
#joint 42
#vjoint 121
v 0.000000 -196.513123 122.048721
#joint 42
#vjoint 122
f 120/697 121/698 122/699
#fvcolorindex 29 29 29 
vt 0.341797 0.177734 0.0
vt 0.152344 0.320312 0.0
vt 0.291016 0.329102 0.0
v 10.000000 -196.513123 137.048721
#joint 42
#vjoint 123
f 120/700 122/701 123/702
#fvcolorindex 29 29 29 
vt 0.716797 0.209961 0.0
vt 0.651367 0.207031 0.0
vt 0.784180 0.369141 0.0
v -6.000000 -227.513123 148.048721
#joint 42
#vjoint 124
v -10.000000 -196.513123 137.048721
#joint 42
#vjoint 125
f 121/703 124/704 125/705
#fvcolorindex 29 29 29 
vt 0.716797 0.209961 0.0
vt 0.784180 0.369141 0.0
vt 1.005859 0.375977 0.0
f 121/706 125/707 122/708
#fvcolorindex 29 29 29 
vt 0.651367 0.207031 0.0
vt 0.291016 0.200195 0.0
vt 0.249023 0.358398 0.0
v -8.000000 -227.513123 172.048721
#joint 42
#vjoint 126
v -14.000000 -196.513123 172.048721
#joint 42
#vjoint 127
f 124/709 126/710 127/711
#fvcolorindex 29 29 29 
vt 0.651367 0.207031 0.0
vt 0.249023 0.358398 0.0
vt 0.784180 0.369141 0.0
f 124/712 127/713 125/714
#fvcolorindex 29 29 29 
vt 0.291016 0.200195 0.0
vt -0.018555 0.194336 0.0
vt -0.224609 0.349609 0.0
v -6.000000 -227.513123 193.048721
#joint 42
#vjoint 128
v -10.000000 -196.513123 203.048721
#joint 42
#vjoint 129
f 126/715 128/716 129/717
#fvcolorindex 29 29 29 
vt 0.291016 0.200195 0.0
vt -0.224609 0.349609 0.0
vt 0.249023 0.358398 0.0
f 126/718 129/719 127/720
#fvcolorindex 29 29 29 
vt -0.018555 0.194336 0.0
vt -0.119141 0.193359 0.0
vt -0.418945 0.347656 0.0
v 0.000000 -227.513123 199.048721
#joint 42
#vjoint 130
v 0.000000 -196.513123 216.048721
#joint 42
#vjoint 131
f 128/721 130/722 131/723
#fvcolorindex 29 29 29 
vt -0.018555 0.194336 0.0
vt -0.418945 0.347656 0.0
vt -0.224609 0.349609 0.0
f 128/724 131/725 129/726
#fvcolorindex 29 29 29 
vt 0.826172 0.215820 0.0
vt 0.762695 0.209961 0.0
vt 0.923828 0.376953 0.0
v 6.000000 -227.513123 193.048721
#joint 42
#vjoint 132
v 10.000000 -196.513123 203.048721
#joint 42
#vjoint 133
f 130/727 132/728 133/729
#fvcolorindex 29 29 29 
vt 0.826172 0.215820 0.0
vt 0.923828 0.376953 0.0
vt 1.045898 0.388672 0.0
f 130/730 133/731 131/732
#fvcolorindex 29 29 29 
vt 0.762695 0.209961 0.0
vt 0.568359 0.195312 0.0
vt 0.625977 0.353516 0.0
v 8.000000 -227.513123 172.048721
#joint 42
#vjoint 134
v 14.000000 -196.513123 172.048721
#joint 42
#vjoint 135
f 132/733 134/734 135/735
#fvcolorindex 29 29 29 
vt 0.762695 0.209961 0.0
vt 0.625977 0.353516 0.0
vt 0.923828 0.376953 0.0
f 132/736 135/737 133/738
#fvcolorindex 29 29 29 
vt 0.568359 0.195312 0.0
vt 0.341797 0.177734 0.0
vt 0.291016 0.329102 0.0
f 134/739 120/740 123/741
#fvcolorindex 29 29 29 
vt 0.568359 0.195312 0.0
vt 0.291016 0.329102 0.0
vt 0.625977 0.353516 0.0
f 134/742 123/743 135/744
#fvcolorindex 29 29 29 
vt 0.291016 0.329102 0.0
vt 0.152344 0.320312 0.0
vt 0.144531 0.533203 0.0
v 0.000000 -155.164795 113.136887
#joint 40
#vjoint 136
f 123/745 122/746 136/747
#fvcolorindex 29 29 29 
vt 0.291016 0.329102 0.0
vt 0.144531 0.533203 0.0
vt 0.317383 0.543945 0.0
v 11.000000 -155.164795 131.136887
#joint 40
#vjoint 137
f 123/748 136/749 137/750
#fvcolorindex 29 29 29 
vt 1.005859 0.375977 0.0
vt 0.784180 0.369141 0.0
vt 0.810547 0.588867 0.0
v -11.000000 -155.164795 131.136887
#joint 40
#vjoint 138
f 122/751 125/752 138/753
#fvcolorindex 29 29 29 
vt 1.005859 0.375977 0.0
vt 0.810547 0.588867 0.0
vt 1.087891 0.596680 0.0
f 122/754 138/755 136/756
#fvcolorindex 29 29 29 
vt 0.784180 0.369141 0.0
vt 0.249023 0.358398 0.0
vt 0.223633 0.576172 0.0
v -16.000000 -155.164795 170.136887
#joint 40
#vjoint 139
f 125/757 127/758 139/759
#fvcolorindex 29 29 29 
vt 0.784180 0.369141 0.0
vt 0.223633 0.576172 0.0
vt 0.810547 0.588867 0.0
f 125/760 139/761 138/762
#fvcolorindex 29 29 29 
vt 0.249023 0.358398 0.0
vt -0.224609 0.349609 0.0
vt -0.297852 0.566406 0.0
v -11.000000 -155.164795 205.136887
#joint 40
#vjoint 140
f 127/763 129/764 140/765
#fvcolorindex 29 29 29 
vt 0.249023 0.358398 0.0
vt -0.297852 0.566406 0.0
vt 0.223633 0.576172 0.0
f 127/766 140/767 139/768
#fvcolorindex 29 29 29 
vt -0.224609 0.349609 0.0
vt -0.418945 0.347656 0.0
vt -0.556641 0.563477 0.0
v 0.000000 -155.164795 222.136887
#joint 40
#vjoint 141
f 129/769 131/770 141/771
#fvcolorindex 29 29 29 
vt -0.224609 0.349609 0.0
vt -0.556641 0.563477 0.0
vt -0.297852 0.566406 0.0
f 129/772 141/773 140/774
#fvcolorindex 29 29 29 
vt 1.045898 0.388672 0.0
vt 0.923828 0.376953 0.0
vt 1.012695 0.596680 0.0
v 11.000000 -155.164795 205.136887
#joint 40
#vjoint 142
f 131/775 133/776 142/777
#fvcolorindex 29 29 29 
vt 1.045898 0.388672 0.0
vt 1.012695 0.596680 0.0
vt 1.174805 0.611328 0.0
f 131/778 142/779 141/780
#fvcolorindex 29 29 29 
vt 0.923828 0.376953 0.0
vt 0.625977 0.353516 0.0
vt 0.685547 0.570312 0.0
v 16.000000 -155.164795 170.136887
#joint 40
#vjoint 143
f 133/781 135/782 143/783
#fvcolorindex 29 29 29 
vt 0.923828 0.376953 0.0
vt 0.685547 0.570312 0.0
vt 1.012695 0.596680 0.0
f 133/784 143/785 142/786
#fvcolorindex 29 29 29 
vt 0.625977 0.353516 0.0
vt 0.291016 0.329102 0.0
vt 0.317383 0.543945 0.0
f 135/787 123/788 137/789
#fvcolorindex 29 29 29 
vt 0.625977 0.353516 0.0
vt 0.317383 0.543945 0.0
vt 0.685547 0.570312 0.0
f 135/790 137/791 143/792
#fvcolorindex 29 29 29 
vt 0.317383 0.543945 0.0
vt 0.144531 0.533203 0.0
vt 0.203125 0.750000 0.0
v 0.000000 -113.464279 111.114944
#joint 41
#vjoint 144
f 137/793 136/794 144/795
#fvcolorindex 29 29 29 
vt 0.317383 0.543945 0.0
vt 0.203125 0.750000 0.0
vt 0.372070 0.760742 0.0
v 10.000000 -113.464279 129.114944
#joint 41
#vjoint 145
f 137/796 144/797 145/798
#fvcolorindex 29 29 29 
vt 1.087891 0.596680 0.0
vt 0.810547 0.588867 0.0
vt 0.791992 0.807617 0.0
v -10.000000 -113.464279 129.114944
#joint 41
#vjoint 146
f 136/799 138/800 146/801
#fvcolorindex 29 29 29 
vt 1.087891 0.596680 0.0
vt 0.791992 0.807617 0.0
vt 1.062500 0.814453 0.0
f 136/802 146/803 144/804
#fvcolorindex 29 29 29 
vt 0.810547 0.588867 0.0
vt 0.223633 0.576172 0.0
vt 0.264648 0.795898 0.0
v -14.000000 -113.464279 164.114944
#joint 41
#vjoint 147
f 138/805 139/806 147/807
#fvcolorindex 29 29 29 
vt 0.810547 0.588867 0.0
vt 0.264648 0.795898 0.0
vt 0.791992 0.807617 0.0
f 138/808 147/809 146/810
#fvcolorindex 29 29 29 
vt 0.223633 0.576172 0.0
vt -0.297852 0.566406 0.0
vt -0.179688 0.788086 0.0
v -10.000000 -113.464279 193.114944
#joint 41
#vjoint 148
f 139/811 140/812 148/813
#fvcolorindex 29 29 29 
vt 0.223633 0.576172 0.0
vt -0.179688 0.788086 0.0
vt 0.264648 0.795898 0.0
f 139/814 148/815 147/816
#fvcolorindex 29 29 29 
vt -0.297852 0.566406 0.0
vt -0.556641 0.563477 0.0
vt -0.390625 0.786133 0.0
v 0.000000 -113.464279 207.114944
#joint 41
#vjoint 149
f 140/817 141/818 149/819
#fvcolorindex 29 29 29 
vt -0.297852 0.566406 0.0
vt -0.390625 0.786133 0.0
vt -0.179688 0.788086 0.0
f 140/820 149/821 148/822
#fvcolorindex 29 29 29 
vt 1.174805 0.611328 0.0
vt 1.012695 0.596680 0.0
vt 0.981445 0.807617 0.0
v 10.000000 -113.464279 193.114944
#joint 41
#vjoint 150
f 141/823 142/824 150/825
#fvcolorindex 29 29 29 
vt 1.174805 0.611328 0.0
vt 0.981445 0.807617 0.0
vt 1.114258 0.819336 0.0
f 141/826 150/827 149/828
#fvcolorindex 29 29 29 
vt 1.012695 0.596680 0.0
vt 0.685547 0.570312 0.0
vt 0.703125 0.785156 0.0
v 14.000000 -113.464279 164.114944
#joint 41
#vjoint 151
f 142/829 143/830 151/831
#fvcolorindex 29 29 29 
vt 1.012695 0.596680 0.0
vt 0.703125 0.785156 0.0
vt 0.981445 0.807617 0.0
f 142/832 151/833 150/834
#fvcolorindex 29 29 29 
vt 0.685547 0.570312 0.0
vt 0.317383 0.543945 0.0
vt 0.372070 0.760742 0.0
f 143/835 137/836 145/837
#fvcolorindex 29 29 29 
vt 0.685547 0.570312 0.0
vt 0.372070 0.760742 0.0
vt 0.703125 0.785156 0.0
f 143/838 145/839 151/840
#fvcolorindex 29 29 29 
vt 0.372070 0.760742 0.0
vt 0.203125 0.750000 0.0
vt 0.360352 0.917969 0.0
v 0.000000 -82.464279 121.114944
#joint 41
#vjoint 152
f 145/841 144/842 152/843
#fvcolorindex 29 29 29 
vt 0.372070 0.760742 0.0
vt 0.360352 0.917969 0.0
vt 0.449219 0.923828 0.0
v 6.000000 -82.464279 131.114944
#joint 41
#vjoint 153
f 145/844 152/845 153/846
#fvcolorindex 29 29 29 
vt 1.062500 0.814453 0.0
vt 0.791992 0.807617 0.0
vt 0.720703 0.966797 0.0
v -6.000000 -82.464279 131.114944
#joint 41
#vjoint 154
f 144/847 146/848 154/849
#fvcolorindex 29 29 29 
vt 1.062500 0.814453 0.0
vt 0.720703 0.966797 0.0
vt 0.863281 0.970703 0.0
f 144/850 154/851 152/852
#fvcolorindex 29 29 29 
vt 0.791992 0.807617 0.0
vt 0.264648 0.795898 0.0
vt 0.390625 0.959961 0.0
v -8.000000 -82.464279 153.114944
#joint 41
#vjoint 155
f 146/853 147/854 155/855
#fvcolorindex 29 29 29 
vt 0.791992 0.807617 0.0
vt 0.390625 0.959961 0.0
vt 0.720703 0.966797 0.0
f 146/856 155/857 154/858
#fvcolorindex 29 29 29 
vt 0.264648 0.795898 0.0
vt -0.179688 0.788086 0.0
vt 0.152344 0.956055 0.0
v -6.000000 -82.464279 168.114944
#joint 41
#vjoint 156
f 147/859 148/860 156/861
#fvcolorindex 29 29 29 
vt 0.264648 0.795898 0.0
vt 0.152344 0.956055 0.0
vt 0.390625 0.959961 0.0
f 147/862 156/863 155/864
#fvcolorindex 29 29 29 
vt -0.179688 0.788086 0.0
vt -0.390625 0.786133 0.0
vt 0.044922 0.954102 0.0
v 0.000000 -82.464279 175.114944
#joint 41
#vjoint 157
f 148/865 149/866 157/867
#fvcolorindex 29 29 29 
vt -0.179688 0.788086 0.0
vt 0.044922 0.954102 0.0
vt 0.152344 0.956055 0.0
f 148/868 157/869 156/870
#fvcolorindex 29 29 29 
vt 1.114258 0.819336 0.0
vt 0.981445 0.807617 0.0
vt 0.805664 0.950195 0.0
v 6.000000 -82.464279 168.114944
#joint 41
#vjoint 158
f 149/871 150/872 158/873
#fvcolorindex 29 29 29 
vt 1.114258 0.819336 0.0
vt 0.805664 0.950195 0.0
vt 0.873047 0.957031 0.0
f 149/874 158/875 157/876
#fvcolorindex 29 29 29 
vt 0.981445 0.807617 0.0
vt 0.703125 0.785156 0.0
vt 0.656250 0.938477 0.0
v 8.000000 -82.464279 153.114944
#joint 41
#vjoint 159
f 150/877 151/878 159/879
#fvcolorindex 29 29 29 
vt 0.981445 0.807617 0.0
vt 0.656250 0.938477 0.0
vt 0.805664 0.950195 0.0
f 150/880 159/881 158/882
#fvcolorindex 29 29 29 
vt 0.703125 0.785156 0.0
vt 0.372070 0.760742 0.0
vt 0.449219 0.923828 0.0
f 151/883 145/884 153/885
#fvcolorindex 29 29 29 
vt 0.703125 0.785156 0.0
vt 0.449219 0.923828 0.0
vt 0.656250 0.938477 0.0
f 151/886 153/887 159/888
#fvcolorindex 29 29 29 
vt 0.301758 0.175781 0.0
vt 0.341797 0.177734 0.0
vt 0.553711 0.152344 0.0
v 0.000000 -236.513123 172.048721
#joint 42
#vjoint 160
f 121/889 120/890 160/891
#fvcolorindex 29 29 29 
vt 0.651367 0.207031 0.0
vt 0.716797 0.209961 0.0
vt 0.301758 0.158203 0.0
f 124/892 121/893 160/894
#fvcolorindex 29 29 29 
vt 0.291016 0.200195 0.0
vt 0.651367 0.207031 0.0
vt 0.301758 0.158203 0.0
f 126/895 124/896 160/897
#fvcolorindex 29 29 29 
vt -0.018555 0.194336 0.0
vt 0.291016 0.200195 0.0
vt 0.301758 0.158203 0.0
f 128/898 126/899 160/900
#fvcolorindex 29 29 29 
vt -0.119141 0.193359 0.0
vt -0.018555 0.194336 0.0
vt 0.301758 0.158203 0.0
f 130/901 128/902 160/903
#fvcolorindex 29 29 29 
vt 0.762695 0.209961 0.0
vt 0.826172 0.215820 0.0
vt 0.553711 0.152344 0.0
f 132/904 130/905 160/906
#fvcolorindex 29 29 29 
vt 0.568359 0.195312 0.0
vt 0.762695 0.209961 0.0
vt 0.553711 0.152344 0.0
f 134/907 132/908 160/909
#fvcolorindex 29 29 29 
vt 0.341797 0.177734 0.0
vt 0.568359 0.195312 0.0
vt 0.553711 0.152344 0.0
f 120/910 134/911 160/912
#fvcolorindex 29 29 29 
vt 0.449219 0.923828 0.0
vt 0.360352 0.917969 0.0
vt 0.546875 0.965820 0.0
v 0.000000 -75.464279 140.114944
#joint 41
#vjoint 161
f 153/913 152/914 161/915
#fvcolorindex 29 29 29 
vt 0.863281 0.970703 0.0
vt 0.720703 0.966797 0.0
vt 0.576172 1.000000 0.0
f 152/916 154/917 161/918
#fvcolorindex 29 29 29 
vt 0.720703 0.966797 0.0
vt 0.390625 0.959961 0.0
vt 0.576172 1.000000 0.0
f 154/919 155/920 161/921
#fvcolorindex 29 29 29 
vt 0.390625 0.959961 0.0
vt 0.152344 0.956055 0.0
vt 0.576172 1.000000 0.0
f 155/922 156/923 161/924
#fvcolorindex 29 29 29 
vt 0.152344 0.956055 0.0
vt 0.044922 0.954102 0.0
vt 0.576172 1.000000 0.0
f 156/925 157/926 161/927
#fvcolorindex 29 29 29 
vt 0.873047 0.957031 0.0
vt 0.805664 0.950195 0.0
vt 0.546875 0.965820 0.0
f 157/928 158/929 161/930
#fvcolorindex 29 29 29 
vt 0.805664 0.950195 0.0
vt 0.656250 0.938477 0.0
vt 0.546875 0.965820 0.0
f 158/931 159/932 161/933
#fvcolorindex 29 29 29 
vt 0.656250 0.938477 0.0
vt 0.449219 0.923828 0.0
vt 0.546875 0.965820 0.0
f 159/934 153/935 161/936
#fvcolorindex 29 29 29 
