# Created by SubDrag and the GoldenEye Setup Editor V4.4
mtllib sentry gun.mtl
v -300.000000 -0.067657 100.000000
vt 0.974121 0.575195 0.0
v -300.000000 399.932343 200.000000
vt 1.000000 0.183594 0.0
v -250.000000 399.932343 -100.000000
vt 0.919922 0.196289 0.0
v -250.000000 -0.067657 -100.000000
vt 0.919922 0.583984 0.0
v -250.000000 399.932343 -100.000000
vt 0.466797 0.186523 0.0
v -350.000000 399.932343 -100.000000
vt 0.320801 0.180664 0.0
v -350.000000 -0.067657 -100.000000
vt 0.317383 0.583008 0.0
v -250.000000 -0.067657 -100.000000
vt 0.463379 0.588867 0.0
v -350.000000 -0.067657 -100.000000
vt 1.000000 0.503906 0.0
v -350.000000 399.932343 -100.000000
vt 1.000000 0.192383 0.0
v -300.000000 399.932343 200.000000
vt 0.827148 0.199219 0.0
v -300.000000 -0.067657 100.000000
vt 0.883301 0.508789 0.0
v -250.000000 -0.067657 -100.000000
vt 0.000000 0.000000 0.0
v -350.000000 -0.067657 -100.000000
vt 0.000000 0.000000 0.0
v -300.000000 -0.067657 100.000000
vt 0.000000 0.000000 0.0
v -250.000000 -0.067657 200.000000
vt 0.531738 -0.186523 0.0
v -350.000000 -0.067657 200.000000
vt 0.531738 -0.317383 0.0
v -350.000000 -0.067657 -200.000000
vt 0.000000 -0.317383 0.0
v -250.000000 -0.067657 -200.000000
vt 0.000000 -0.186523 0.0
v -300.000000 -100.067657 -200.000000
vt 0.000000 0.000000 0.0
v -300.000000 -100.067657 200.000000
vt 0.507812 0.000000 0.0
v -250.000000 -0.067657 200.000000
vt 0.507812 0.413086 0.0
v -250.000000 -0.067657 -200.000000
vt 0.000000 0.413086 0.0
v -300.000000 -100.067657 200.000000
vt 0.623047 0.000000 0.0
v -350.000000 -0.067657 -200.000000
vt 0.000000 0.435547 0.0
v -350.000000 -0.067657 200.000000
vt 0.623047 0.435547 0.0
v -700.000000 -399.932343 -450.000000
vt 1.000000 0.000000 0.0
v -700.000000 100.067650 -450.000000
vt 1.000000 1.000000 0.0
v -700.000000 100.067650 -200.000000
vt 0.000000 1.000000 0.0
v -700.000000 -399.932343 -200.000000
vt 0.000000 0.000000 0.0
v 100.000000 -399.932343 -200.000000
vt 1.000000 0.000000 0.0
v 100.000000 100.067650 -200.000000
vt 1.000000 1.000000 0.0
v 100.000000 100.067650 -450.000000
vt 1.000000 1.000000 0.0
v -700.000000 100.067650 -450.000000
vt 0.000000 1.000000 0.0
v -700.000000 -399.932343 -450.000000
vt 0.000000 0.000000 0.0
v 100.000000 -399.932343 -450.000000
vt 1.000000 0.000000 0.0
v 100.000000 100.067650 -450.000000
vt 0.000000 1.000000 0.0
v 100.000000 -399.932343 -450.000000
vt 0.000000 0.000000 0.0
v -700.000000 100.067650 -450.000000
vt 0.000000 0.000000 0.0
v -700.000000 100.067650 -200.000000
vt 1.000000 0.000000 0.0
v 100.000000 -399.932343 -450.000000
vt 1.000000 1.000000 0.0
v 100.000000 -399.932343 -200.000000
vt 0.000000 1.000000 0.0
v -200.000000 -149.932343 200.000000
vt 0.000000 0.000000 0.0
v -200.000000 -149.932343 450.000000
vt 1.000000 0.000000 0.0
v -200.000000 50.067650 450.000000
vt 1.000000 1.000000 0.0
v -200.000000 50.067650 200.000000
vt 0.000000 1.000000 0.0
v -600.000000 -149.932343 200.000000
vt 0.000000 -0.625000 0.0
v -600.000000 50.067650 200.000000
vt 1.000000 -0.625000 0.0
v -600.000000 50.067650 450.000000
vt 1.000000 0.000000 0.0
v -600.000000 -149.932343 450.000000
vt 0.000000 0.000000 0.0
v 0.000000 50.067650 450.000000
vt 1.000000 1.000000 0.0
v -600.000000 50.067650 200.000000
vt 0.000000 0.000000 0.0
v 0.000000 50.067650 200.000000
vt 0.000000 1.000000 0.0
v 0.000000 50.067650 200.000000
vt 1.000000 1.000000 0.0
v -600.000000 50.067650 200.000000
vt 1.000000 0.000000 0.0
v -600.000000 -149.932343 200.000000
vt 0.000000 0.000000 0.0
v -150.000000 -149.932343 200.000000
vt 0.000000 0.750000 0.0
v -150.000000 -149.932343 450.000000
vt 0.000000 0.750000 0.0
v -150.000000 -149.932343 200.000000
vt 0.000000 0.899902 0.0
v -600.000000 -149.932343 200.000000
vt 0.000000 0.000000 0.0
v -600.000000 -149.932343 450.000000
vt 1.000000 0.000000 0.0
v -150.000000 -149.932343 450.000000
vt 1.000000 0.899902 0.0
v -150.000000 -149.932343 200.000000
vt 0.000000 0.000000 0.0
v -150.000000 -149.932343 450.000000
vt 0.000000 0.000000 0.0
v -150.000000 50.067650 450.000000
vt 0.000000 0.000000 0.0
v -150.000000 50.067650 200.000000
vt 0.000000 0.000000 0.0
v 700.000000 -47.240368 -327.173523
vt 0.500000 0.483398 0.0
v 700.000000 56.759632 -267.173523
vt 0.941895 0.716797 0.0
v 700.000000 56.759632 -387.173523
vt 0.518066 0.982422 0.0
v 700.000000 -47.240368 -207.173523
vt 0.923828 0.217773 0.0
v 700.000000 -151.240372 -267.173523
vt 0.481934 -0.016602 0.0
v 700.000000 -151.240372 -387.173523
vt 0.058105 0.249023 0.0
v 700.000000 -47.240368 -447.173523
vt 0.076172 0.748047 0.0
v 700.000000 56.759632 -267.173523
vt 1.000000 -0.495117 0.0
v 100.000000 56.759632 -267.173523
vt 0.000000 -0.495117 0.0
v 100.000000 56.759632 -387.173523
vt 0.000000 0.504883 0.0
v 700.000000 56.759632 -387.173523
vt 1.000000 0.504883 0.0
v 700.000000 -47.240368 -207.173523
vt 1.000000 -0.505859 0.0
v 100.000000 -47.240368 -207.173523
vt 0.000000 -0.505859 0.0
v 100.000000 56.759632 -267.173523
vt 0.000000 0.494141 0.0
v 700.000000 56.759632 -267.173523
vt 1.000000 0.494141 0.0
v 700.000000 -151.240372 -267.173523
vt 1.000000 -0.447266 0.0
v 100.000000 -151.240372 -267.173523
vt 0.000000 -0.447266 0.0
v 100.000000 -47.240368 -207.173523
vt 0.000000 0.552734 0.0
v 700.000000 -47.240368 -207.173523
vt 1.000000 0.552734 0.0
v 700.000000 -151.240372 -387.173523
vt 1.000000 -0.476562 0.0
v 100.000000 -151.240372 -387.173523
vt 0.000000 -0.476562 0.0
v 100.000000 -151.240372 -267.173523
vt 0.000000 0.523438 0.0
v 700.000000 -151.240372 -267.173523
vt 1.000000 0.523438 0.0
v 700.000000 -47.240368 -447.173523
vt 1.000000 -0.492188 0.0
v 100.000000 -47.240368 -447.173523
vt 0.000000 -0.492188 0.0
v 100.000000 -151.240372 -387.173523
vt 0.000000 0.507812 0.0
v 700.000000 -151.240372 -387.173523
vt 1.000000 0.507812 0.0
v 700.000000 56.759632 -387.173523
vt 1.000000 -0.398438 0.0
v 100.000000 56.759632 -387.173523
vt 0.000000 -0.398438 0.0
v 100.000000 -47.240368 -447.173523
vt 0.000000 0.601562 0.0
v 700.000000 -47.240368 -447.173523
vt 1.000000 0.601562 0.0
g primary
usemtl m0
f 1/1 2/2 3/3
usemtl m0
f 1/1 3/3 4/4
usemtl m1
f 5/5 6/6 7/7
usemtl m1
f 5/5 7/7 8/8
usemtl m0
f 9/9 10/10 11/11
f 9/9 11/11 12/12
usemtl m2
f 13/13 14/14 15/15
usemtl m3
f 16/16 17/17 18/18
usemtl m3
f 16/16 18/18 19/19
f 20/20 21/21 22/22
f 20/20 22/22 23/23
usemtl m4
f 24/24 20/20 25/25
usemtl m4
f 24/24 25/25 26/26
usemtl m5
f 27/27 28/28 29/29
usemtl m5
f 27/27 29/29 30/30
usemtl m6ClampSClampT
f 31/31 30/30 29/29
usemtl m6ClampSClampT
f 31/31 29/29 32/32
usemtl m7ClampSClampT
f 33/33 34/34 35/35
usemtl m7ClampSClampT
f 33/33 35/35 36/36
usemtl m8
f 31/31 32/32 37/37
usemtl m8
f 31/31 37/37 38/38
usemtl m9
f 39/39 37/37 32/32
usemtl m9
f 39/39 32/32 40/40
usemtl m10
f 41/41 27/27 30/30
usemtl m10
f 41/41 30/30 42/42
usemtl m11
f 43/43 44/44 45/45
usemtl m11
f 43/43 45/45 46/46
usemtl m12ClampT
f 47/47 48/48 49/49
usemtl m12ClampT
f 47/47 49/49 50/50
usemtl m13CullBoth
f 51/51 49/49 52/52
usemtl m13CullBoth
f 51/51 52/52 53/53
usemtl m14CullBothClampT
f 54/54 55/55 56/56
usemtl m14CullBothClampT
f 54/54 56/56 57/57
f 50/50 49/49 51/51
f 50/50 51/51 58/58
usemtl m15CullBoth
f 59/59 60/60 61/61
usemtl m15CullBoth
f 59/59 61/61 62/62
usemtl m16
f 67/67 68/68 69/69
usemtl m17
f 70/70 68/68 67/67
usemtl m17
f 71/71 70/70 67/67
f 72/72 71/71 67/67
f 73/73 72/72 67/67
f 69/69 73/73 67/67
usemtl m18
f 74/74 75/75 76/76
usemtl m18
f 74/74 76/76 77/77
f 78/78 79/79 80/80
f 78/78 80/80 81/81
f 82/82 83/83 84/84
f 82/82 84/84 85/85
f 86/86 87/87 88/88
f 86/86 88/88 89/89
f 90/90 91/91 92/92
f 90/90 92/92 93/93
f 94/94 95/95 96/96
f 94/94 96/96 97/97
g secondary
usemtl m19CullBothEnvMappingTexScaleS0.062501TexScaleT0.031250
f 63/63 64/64 65/65
usemtl m19CullBothEnvMappingTexScaleS0.062501TexScaleT0.031250
f 63/63 65/65 66/66
