# Created by SubDrag and the GoldenEye Setup Editor V4.4
mtllib Gun0011.mtl
#joint 0
#jointposition 0.000000 -20.375574 35.330894
#joint 1
#jointposition -0.126130 -34.500000 -403.726105
#joint 2
#jointposition 0.000000 -20.375574 -74.143860
#joint 3
#jointposition 28.404760 -54.346611 -32.664295
#joint 4
#jointposition 50.075203 -78.841194 -10.664248
#joint 5
#jointposition 28.643808 -16.714527 20.778549
#joint 6
#jointposition 26.518341 -24.155291 60.154758
#joint 7
#jointposition 24.862719 -25.637974 87.085503
#joint 8
#jointposition 8.820322 -11.296313 21.695198
#joint 9
#jointposition 8.668717 -23.348385 71.418152
#joint 10
#jointposition 7.570724 -26.182207 98.349426
#joint 11
#jointposition -7.449821 -15.536673 21.601517
#joint 12
#jointposition -6.777197 -21.532187 62.353848
#joint 13
#jointposition -6.290760 -23.494061 85.077034
#joint 14
#jointposition -23.590879 -23.057791 21.828247
#joint 15
#jointposition -21.894306 -25.130569 56.929543
#joint 16
#jointposition -20.740978 -24.727604 74.077179
#joint 17
#jointposition 234.474915 -34.500000 -403.725983
#joint 18
#jointposition 234.348785 -20.375599 -74.143890
#joint 19
#jointposition 205.943985 -54.346600 -32.664291
#joint 20
#jointposition 184.273590 -78.841202 -10.664192
#joint 21
#jointposition 205.704987 -16.714600 20.778511
#joint 22
#jointposition 207.830490 -24.155300 60.154812
#joint 23
#jointposition 209.561584 -25.811800 87.094810
#joint 24
#jointposition 225.528473 -11.296299 21.695213
#joint 25
#jointposition 225.680069 -23.348400 71.418114
#joint 26
#jointposition 226.778076 -26.182199 98.349411
#joint 27
#jointposition 241.798599 -15.536699 21.601509
#joint 28
#jointposition 241.125977 -21.532200 62.353809
#joint 29
#jointposition 240.639542 -23.494101 85.077011
#joint 30
#jointposition 257.939697 -23.057798 21.828209
#joint 31
#jointposition 256.243103 -25.130598 56.929508
#joint 32
#jointposition 255.089798 -24.727598 74.077209
#joint 33
#jointposition 0.000000 -27.829763 346.661285
#joint 34
#jointposition 0.000000 20.843695 915.291504
#joint 35
#jointposition 0.000000 20.855129 939.204590
#joint 36
#jointposition 0.000000 20.812819 983.608398
#joint 37
#jointposition -29.945004 78.846268 224.704132
#joint 38
#jointposition 0.000000 -54.901833 204.916031
#joint 39
#jointposition 225.357391 -54.901829 204.916046
#connection 0 1
#connection 1 2
#connection 2 3
#connection 3 4
#connection 2 5
#connection 5 6
#connection 6 7
#connection 2 8
#connection 8 9
#connection 9 10
#connection 2 11
#connection 11 12
#connection 12 13
#connection 2 14
#connection 14 15
#connection 15 16
#connection 2 33
#connection 33 37
#connection 33 34
#connection 34 35
#connection 34 36
#connection 33 38
#connection 0 17
#connection 17 18
#connection 18 19
#connection 19 20
#connection 18 21
#connection 21 22
#connection 22 23
#connection 18 24
#connection 24 25
#connection 25 26
#connection 18 27
#connection 27 28
#connection 28 29
#connection 18 30
#connection 30 31
#connection 31 32
#connection 18 39
g Room02
g Room02_primary
usemtl m0TransparentCullBothClampSClampT
vt 0.968750 0.968750 0.0
vt 0.000000 0.968750 0.0
vt 0.000000 0.000000 0.0
v 90.000000 121.812820 983.608398
#joint 36
#vjoint 1
#vcolor 255.000000 255.000000 255.000000 127.000000
v 0.000000 121.812820 983.608398
#joint 36
#vjoint 2
v 0.000000 20.812819 983.608398
#joint 36
#vjoint 3
f 1/1 2/2 3/3
#fvcolorindex 1 1 1 
vt 0.968750 0.968750 0.0
vt 0.000000 0.000000 0.0
vt 0.968750 0.000000 0.0
v 90.000000 20.812819 983.608398
#joint 36
#vjoint 4
f 1/4 3/5 4/6
#fvcolorindex 1 1 1 
vt 0.968750 0.968750 0.0
vt 0.000000 0.968750 0.0
vt 0.000000 0.000000 0.0
v -90.000000 121.855133 939.204590
#joint 35
#vjoint 5
v 0.000000 121.855133 939.204590
#joint 35
#vjoint 6
v 0.000000 20.855129 939.204590
#joint 35
#vjoint 7
f 5/7 6/8 7/9
#fvcolorindex 1 1 1 
vt 0.968750 0.968750 0.0
vt 0.000000 0.000000 0.0
vt 0.968750 0.000000 0.0
v -90.000000 20.855129 939.204590
#joint 35
#vjoint 8
f 5/10 7/11 8/12
#fvcolorindex 1 1 1 
usemtl m1TransparentCullBothClampSClampT
vt 0.968750 0.968750 0.0
vt 0.000000 0.968750 0.0
vt 0.000000 0.000000 0.0
v -90.000000 121.812820 983.608398
#joint 36
#vjoint 9
v -90.000000 20.812819 983.608398
#joint 36
#vjoint 10
f 2/13 9/14 10/15
#fvcolorindex 1 1 1 
vt 0.968750 0.968750 0.0
vt 0.000000 0.000000 0.0
vt 0.968750 0.000000 0.0
f 2/16 10/17 3/18
#fvcolorindex 1 1 1 
vt 0.968750 0.968750 0.0
vt 0.000000 0.968750 0.0
vt 0.000000 0.000000 0.0
v 90.000000 121.855133 939.204590
#joint 35
#vjoint 11
v 90.000000 20.855129 939.204590
#joint 35
#vjoint 12
f 6/19 11/20 12/21
#fvcolorindex 1 1 1 
vt 0.968750 0.968750 0.0
vt 0.000000 0.000000 0.0
vt 0.968750 0.000000 0.0
f 6/22 12/23 7/24
#fvcolorindex 1 1 1 
usemtl m2TransparentCullBothClampSClampT
vt 0.968750 0.968750 0.0
vt 0.000000 0.968750 0.0
vt 0.000000 0.000000 0.0
v 0.000000 -80.187180 983.608398
#joint 36
#vjoint 13
f 4/25 3/26 13/27
#fvcolorindex 1 1 1 
vt 0.968750 0.968750 0.0
vt 0.000000 0.000000 0.0
vt 0.968750 0.000000 0.0
v 90.000000 -80.187180 983.608398
#joint 36
#vjoint 14
f 4/28 13/29 14/30
#fvcolorindex 1 1 1 
vt 0.968750 0.968750 0.0
vt 0.000000 0.968750 0.0
vt 0.000000 0.000000 0.0
v 0.000000 -80.144867 939.204590
#joint 35
#vjoint 15
f 8/31 7/32 15/33
#fvcolorindex 1 1 1 
vt 0.968750 0.968750 0.0
vt 0.000000 0.000000 0.0
vt 0.968750 0.000000 0.0
v -90.000000 -80.144867 939.204590
#joint 35
#vjoint 16
f 8/34 15/35 16/36
#fvcolorindex 1 1 1 
usemtl m3TransparentCullBothClampSClampT
vt 0.968750 0.968750 0.0
vt 0.000000 0.968750 0.0
vt 0.000000 0.000000 0.0
v -90.000000 -80.187180 983.608398
#joint 36
#vjoint 17
f 3/37 10/38 17/39
#fvcolorindex 1 1 1 
vt 0.968750 0.968750 0.0
vt 0.000000 0.000000 0.0
vt 0.968750 0.000000 0.0
f 3/40 17/41 13/42
#fvcolorindex 1 1 1 
vt 0.968750 0.968750 0.0
vt 0.000000 0.968750 0.0
vt 0.000000 0.000000 0.0
v 90.000000 -80.144867 939.204590
#joint 35
#vjoint 18
f 7/43 12/44 18/45
#fvcolorindex 1 1 1 
vt 0.968750 0.968750 0.0
vt 0.000000 0.000000 0.0
vt 0.968750 0.000000 0.0
f 7/46 18/47 15/48
#fvcolorindex 1 1 1 
g Room03
usemtl m4TransparentCullBothClampSClampT
vt 1.000000 0.000000 0.0
vt 1.000000 1.000000 0.0
vt 0.000000 1.000000 0.0
v 224.000000 -53.156303 923.291504
#joint 34
#vjoint 19
#vcolor 255.000000 255.000000 255.000000 127.000000
v 212.000000 -90.156303 923.291504
#joint 34
#vjoint 20
v 2.000000 -22.156305 923.291504
#joint 34
#vjoint 21
f 19/49 20/50 21/51
#fvcolorindex 2 2 2 
vt 1.000000 0.000000 0.0
vt 0.000000 1.000000 0.0
vt 0.000000 0.000000 0.0
v 25.000000 52.843697 923.291504
#joint 34
#vjoint 22
f 19/52 21/53 22/54
#fvcolorindex 2 2 2 
vt 1.000000 0.000000 0.0
vt 1.000000 1.000000 0.0
vt 0.000000 1.000000 0.0
v -212.000000 -91.156303 923.291504
#joint 34
#vjoint 23
v -224.000000 -53.156303 923.291504
#joint 34
#vjoint 24
v -25.000000 51.843697 923.291504
#joint 34
#vjoint 25
f 23/55 24/56 25/57
#fvcolorindex 2 2 2 
vt 1.000000 0.000000 0.0
vt 0.000000 1.000000 0.0
vt 0.000000 0.000000 0.0
v -2.000000 -23.156305 923.291504
#joint 34
#vjoint 26
f 23/58 25/59 26/60
#fvcolorindex 2 2 2 
vt 0.000000 0.000000 0.0
vt 0.000000 1.000000 0.0
vt 1.000000 1.000000 0.0
v -2.000000 64.843697 923.291504
#joint 34
#vjoint 27
v -25.000000 -10.156305 923.291504
#joint 34
#vjoint 28
v -224.000000 94.843697 923.291504
#joint 34
#vjoint 29
f 27/61 28/62 29/63
#fvcolorindex 2 2 2 
vt 0.000000 0.000000 0.0
vt 1.000000 1.000000 0.0
vt 1.000000 0.000000 0.0
v -212.000000 132.843689 923.291504
#joint 34
#vjoint 30
f 27/64 29/65 30/66
#fvcolorindex 2 2 2 
vt 0.000000 0.000000 0.0
vt 0.000000 1.000000 0.0
vt 1.000000 1.000000 0.0
v 27.000000 -10.156305 923.291504
#joint 34
#vjoint 31
v 0.000000 63.843697 923.291504
#joint 34
#vjoint 32
v 206.000000 142.843689 923.291504
#joint 34
#vjoint 33
f 31/67 32/68 33/69
#fvcolorindex 2 2 2 
vt 0.000000 0.000000 0.0
vt 1.000000 1.000000 0.0
vt 1.000000 0.000000 0.0
v 220.000000 105.843697 923.291504
#joint 34
#vjoint 34
f 31/70 33/71 34/72
#fvcolorindex 2 2 2 
g Room04
g Room04_primary
usemtl m5
vt 10.431641 1.009766 0.0
vt 1.009277 1.009766 0.0
vt 0.000000 0.000000 0.0
v 23.000000 79.170235 315.661285
#joint 33
#vjoint 35
#vcolor 254.000000 254.000000 254.000000 255.000000
v 23.000000 79.170235 642.661255
#joint 33
#vjoint 36
v 23.000000 56.170235 677.661255
#joint 33
#vjoint 37
#vcolor 0.000000 0.000000 0.000000 255.000000
f 35/73 36/74 37/75
#fvcolorindex 3 3 4 
vt 10.431641 1.009766 0.0
vt 0.000000 0.000000 0.0
vt 10.431641 0.000000 0.0
v 23.000000 56.170235 315.661285
#joint 33
#vjoint 38
f 35/76 37/77 38/78
#fvcolorindex 3 4 4 
usemtl m6
vt 0.000000 1.000000 0.0
vt 0.000000 0.000000 0.0
vt 2.000000 0.000000 0.0
v 23.000000 114.170235 642.661255
#joint 33
#vjoint 39
v 23.000000 114.170235 677.661255
#joint 33
#vjoint 40
#vcolor 112.000000 112.000000 112.000000 255.000000
f 39/79 40/80 37/81
#fvcolorindex 4 5 4 
vt 0.000000 1.000000 0.0
vt 2.000000 0.000000 0.0
vt 1.000000 1.000000 0.0
f 39/82 37/83 36/84
#fvcolorindex 4 4 3 
vt 1.000000 0.000000 0.0
vt 0.000000 0.000000 0.0
vt 0.000000 1.000000 0.0
v -23.000000 79.170235 642.661255
#joint 33
#vjoint 41
#vcolor 166.000000 166.000000 166.000000 255.000000
f 39/85 36/86 41/87
#fvcolorindex 4 3 6 
vt 1.000000 0.000000 0.0
vt 0.000000 1.000000 0.0
vt 1.000000 1.000000 0.0
v -23.000000 114.170235 642.661255
#joint 33
#vjoint 42
f 39/88 41/89 42/90
#fvcolorindex 4 6 4 
usemtl m7
vt 0.000000 0.000000 0.0
vt 7.729492 0.000000 0.0
vt 6.981445 1.005859 0.0
v -23.000000 56.170235 315.661285
#joint 33
#vjoint 43
#vcolor 67.000000 67.000000 67.000000 255.000000
v -23.000000 56.170235 677.661255
#joint 33
#vjoint 44
f 43/91 44/92 41/93
#fvcolorindex 7 4 7 
vt 0.000000 0.000000 0.0
vt 6.981445 1.005859 0.0
vt 0.000000 1.005859 0.0
v -23.000000 79.170235 315.661285
#joint 33
#vjoint 45
f 43/94 41/95 45/96
#fvcolorindex 7 7 7 
vt 0.825195 0.000000 0.0
vt 0.825195 0.987305 0.0
vt 0.331543 0.987305 0.0
v -23.000000 114.170235 677.661255
#joint 33
#vjoint 46
f 46/97 42/98 41/99
#fvcolorindex 7 4 7 
vt 0.825195 0.000000 0.0
vt 0.331543 0.987305 0.0
vt 0.000000 0.000000 0.0
f 46/100 41/101 44/102
#fvcolorindex 7 7 4 
usemtl m6
vt 0.000000 0.166992 0.0
vt 0.000000 0.833008 0.0
vt 1.000000 0.833008 0.0
f 44/103 37/104 40/105
#fvcolorindex 4 4 5 
vt 0.000000 0.166992 0.0
vt 1.000000 0.833008 0.0
vt 1.000000 0.166992 0.0
#vcolor 141.000000 141.000000 141.000000 255.000000
f 44/106 40/107 46/108
#fvcolorindex 4 5 8 
usemtl m8
vt 6.104980 0.000000 0.0
vt 6.104980 0.996094 0.0
vt 0.000000 0.996094 0.0
v 23.000000 114.170235 315.661285
#joint 33
#vjoint 47
#vcolor 144.000000 144.000000 144.000000 255.000000
v 23.000000 149.170242 315.661285
#joint 33
#vjoint 48
v 23.000000 149.170242 642.661255
#joint 33
#vjoint 49
f 47/109 48/110 49/111
#fvcolorindex 9 3 3 
vt 6.104980 0.000000 0.0
vt 0.000000 0.996094 0.0
vt 0.000000 0.000000 0.0
f 47/112 49/113 39/114
#fvcolorindex 9 3 4 
usemtl m9
vt 0.000000 0.000000 0.0
vt 0.500000 1.008789 0.0
vt 1.000000 0.000000 0.0
f 40/115 39/116 49/117
#fvcolorindex 5 4 3 
usemtl m7
vt 1.000000 0.000000 0.0
vt 0.500000 1.000000 0.0
vt 0.000000 0.000000 0.0
v -23.000000 149.170242 642.661255
#joint 33
#vjoint 50
f 50/118 42/119 46/120
#fvcolorindex 7 4 7 
usemtl m9
vt 1.504883 0.000000 0.0
vt 0.000000 0.000000 0.0
vt 0.501465 -0.614258 0.0
v 7.000000 126.170235 642.661255
#joint 33
#vjoint 51
#vcolor 208.000000 208.000000 208.000000 255.000000
f 40/121 49/122 51/123
#fvcolorindex 5 3 10 
usemtl m10
vt 0.000000 0.000000 0.0
vt 1.454102 0.000000 0.0
vt 0.484863 -0.553711 0.0
#vcolor 181.000000 181.000000 181.000000 255.000000
v -7.000000 126.170235 642.661255
#joint 33
#vjoint 52
f 50/124 46/125 52/126
#fvcolorindex 11 8 4 
usemtl m11
vt 0.316406 0.166992 0.0
vt 0.316406 0.833008 0.0
vt 0.843262 0.666992 0.0
f 46/127 40/128 51/129
#fvcolorindex 8 5 10 
vt 0.316406 0.166992 0.0
vt 0.843262 0.666992 0.0
vt 0.843262 0.333008 0.0
f 46/130 51/131 52/132
#fvcolorindex 8 10 4 
usemtl m12
vt 0.000000 -0.646484 0.0
vt 8.098145 -0.646484 0.0
vt 8.098145 0.000000 0.0
v 7.000000 126.170235 315.661285
#joint 33
#vjoint 53
#vcolor 242.000000 242.000000 242.000000 255.000000
f 53/133 51/134 49/135
#fvcolorindex 12 10 3 
vt 0.000000 -0.646484 0.0
vt 8.098145 0.000000 0.0
vt 0.000000 0.000000 0.0
f 53/136 49/137 48/138
#fvcolorindex 12 3 3 
usemtl m6
vt 1.000000 -11.194336 0.0
vt 0.000000 -11.194336 0.0
vt 0.000000 0.000000 0.0
f 52/139 51/140 53/141
#fvcolorindex 4 10 12 
vt 1.000000 -11.194336 0.0
vt 0.000000 0.000000 0.0
vt 1.000000 0.000000 0.0
v -7.000000 126.170235 315.661285
#joint 33
#vjoint 54
f 52/142 53/143 54/144
#fvcolorindex 4 12 4 
usemtl m13
vt 0.000000 0.000000 0.0
vt 7.175781 0.000000 0.0
vt 7.175781 -0.559570 0.0
v -23.000000 149.170242 315.661285
#joint 33
#vjoint 55
#vcolor 216.000000 216.000000 216.000000 255.000000
f 55/145 50/146 52/147
#fvcolorindex 13 11 4 
vt 0.000000 0.000000 0.0
vt 7.175781 -0.559570 0.0
vt 0.000000 -0.559570 0.0
f 55/148 52/149 54/150
#fvcolorindex 13 4 4 
usemtl m5
vt 0.500000 0.833984 0.0
vt 1.000000 0.833984 0.0
vt 1.000000 0.322266 0.0
v -23.000000 114.170235 315.661285
#joint 33
#vjoint 56
f 35/151 47/152 56/153
#fvcolorindex 3 7 7 
vt 0.500000 0.833984 0.0
vt 1.000000 0.322266 0.0
vt 0.500000 0.322266 0.0
f 35/154 56/155 45/156
#fvcolorindex 3 7 7 
usemtl m10
vt 1.627930 0.000000 0.0
vt 0.542480 -0.647461 0.0
vt 0.000000 0.000000 0.0
v 23.000000 114.170235 280.661285
#joint 33
#vjoint 57
f 57/157 53/158 48/159
#fvcolorindex 11 12 3 
usemtl m5
vt 0.000000 0.000000 0.0
vt 0.997070 -0.997070 0.0
vt 1.994629 0.000000 0.0
#vcolor 235.000000 235.000000 235.000000 255.000000
f 48/160 47/161 57/162
#fvcolorindex 3 9 14 
usemtl m13
vt 0.000000 0.000000 0.0
vt 0.442871 -0.541992 0.0
vt 1.328613 0.000000 0.0
v -23.000000 114.170235 280.661285
#joint 33
#vjoint 58
#vcolor 203.000000 203.000000 203.000000 255.000000
f 55/163 54/164 58/165
#fvcolorindex 13 4 15 
usemtl m7
vt 0.000000 0.000000 0.0
vt 0.487793 1.002930 0.0
vt -0.501465 0.975586 0.0
#vcolor 177.000000 177.000000 177.000000 255.000000
f 56/166 55/167 58/168
#fvcolorindex 7 7 16 
usemtl m14
vt 1.500000 1.000977 0.0
vt 1.000000 0.487305 0.0
vt 0.000000 0.487305 0.0
f 58/169 54/170 53/171
#fvcolorindex 16 4 12 
vt 1.500000 1.000977 0.0
vt 0.000000 0.487305 0.0
vt -0.500000 1.000977 0.0
f 58/172 53/173 57/174
#fvcolorindex 16 12 14 
usemtl m15
vt 0.000000 1.000000 0.0
vt 0.000000 0.000000 0.0
vt 1.000000 0.000000 0.0
v 35.000000 91.170235 315.661285
#joint 33
#vjoint 59
f 57/175 47/176 59/177
#fvcolorindex 14 9 4 
vt 0.000000 1.000000 0.0
vt 1.000000 0.000000 0.0
vt 1.000000 1.000000 0.0
v 35.000000 91.170235 280.661285
#joint 33
#vjoint 60
#vcolor 161.000000 161.000000 161.000000 255.000000
f 57/178 59/179 60/180
#fvcolorindex 14 4 17 
usemtl m16
vt 0.000000 1.001953 0.0
vt 0.000000 0.000000 0.0
vt 0.373535 0.000000 0.0
v -35.000000 91.170235 280.661285
#joint 33
#vjoint 61
#vcolor 79.000000 79.000000 79.000000 255.000000
v -35.000000 91.170235 315.661285
#joint 33
#vjoint 62
f 61/181 62/182 56/183
#fvcolorindex 18 18 7 
vt 0.000000 1.001953 0.0
vt 0.373535 0.000000 0.0
vt 0.373535 1.001953 0.0
f 61/184 56/185 58/186
#fvcolorindex 18 7 16 
usemtl m6
vt 1.000000 0.000000 0.0
vt 0.500000 1.000977 0.0
vt 0.000000 1.000977 0.0
v 35.000000 44.170235 315.661285
#joint 33
#vjoint 63
v 35.000000 67.170235 280.661285
#joint 33
#vjoint 64
f 63/187 64/188 60/189
#fvcolorindex 4 3 17 
vt 1.000000 0.000000 0.0
vt 0.000000 1.000977 0.0
vt 0.000000 0.000000 0.0
f 63/190 60/191 59/192
#fvcolorindex 4 17 4 
vt 4.974121 0.000000 0.0
vt 3.979492 0.999023 0.0
vt 0.994629 0.999023 0.0
v 35.000000 44.170235 140.661285
#joint 33
#vjoint 65
v 35.000000 67.170235 175.661285
#joint 33
#vjoint 66
f 65/193 66/194 64/195
#fvcolorindex 4 5 3 
vt 4.974121 0.000000 0.0
vt 0.994629 0.999023 0.0
vt 0.000000 0.000000 0.0
f 65/196 64/197 63/198
#fvcolorindex 4 3 4 
usemtl m5
vt 0.000000 1.007812 0.0
vt 0.000000 0.000000 0.0
vt 1.000000 0.000000 0.0
v 35.000000 91.170235 140.661285
#joint 33
#vjoint 67
v 35.000000 91.170235 175.661285
#joint 33
#vjoint 68
f 67/199 68/200 66/201
#fvcolorindex 3 5 5 
vt 0.000000 1.007812 0.0
vt 1.000000 0.000000 0.0
vt 2.000000 1.007812 0.0
f 67/202 66/203 65/204
#fvcolorindex 3 5 4 
usemtl m6
vt 0.666504 0.961914 0.0
vt 0.500000 0.833984 0.0
vt 0.000000 0.833984 0.0
f 59/205 35/206 38/207
#fvcolorindex 4 3 4 
vt 0.666504 0.961914 0.0
vt 0.000000 0.833984 0.0
vt 0.000000 0.961914 0.0
f 59/208 38/209 63/210
#fvcolorindex 4 4 4 
usemtl m7
vt 0.000000 0.322266 0.0
vt 0.500000 0.322266 0.0
vt 0.666504 0.194336 0.0
f 43/211 45/212 62/213
#fvcolorindex 7 7 7 
vt 0.000000 0.322266 0.0
vt 0.666504 0.194336 0.0
vt 0.000000 0.194336 0.0
v -35.000000 44.170235 315.661285
#joint 33
#vjoint 69
f 43/214 62/215 69/216
#fvcolorindex 7 7 4 
vt 0.331543 0.994141 0.0
vt 0.000000 0.000000 0.0
vt 0.662598 0.000000 0.0
v -35.000000 67.170235 280.661285
#joint 33
#vjoint 70
f 70/217 69/218 62/219
#fvcolorindex 7 4 18 
vt 0.331543 0.994141 0.0
vt 0.662598 0.000000 0.0
vt 0.662598 0.994141 0.0
f 70/220 62/221 61/222
#fvcolorindex 7 18 18 
vt -0.913574 0.987305 0.0
vt -1.654297 0.000000 0.0
vt 2.048340 0.000000 0.0
v -35.000000 67.170235 175.661285
#joint 33
#vjoint 71
v -35.000000 44.170235 140.661285
#joint 33
#vjoint 72
f 71/223 72/224 69/225
#fvcolorindex 7 7 4 
vt -0.913574 0.987305 0.0
vt 2.048340 0.000000 0.0
vt 1.307617 0.987305 0.0
f 71/226 69/227 70/228
#fvcolorindex 7 4 7 
vt -0.333984 1.001953 0.0
vt 0.000000 0.000000 0.0
vt 0.333984 0.000000 0.0
v -35.000000 91.170235 175.661285
#joint 33
#vjoint 73
f 72/229 71/230 73/231
#fvcolorindex 7 7 7 
vt -0.333984 1.001953 0.0
vt 0.333984 0.000000 0.0
vt 0.333984 1.001953 0.0
v -35.000000 91.170235 140.661285
#joint 33
#vjoint 74
f 72/232 73/233 74/234
#fvcolorindex 7 7 3 
usemtl m5
vt 1.000000 1.000977 0.0
vt 1.000000 0.000000 0.0
vt 0.000000 0.000000 0.0
f 74/235 73/236 68/237
#fvcolorindex 3 3 3 
vt 1.000000 1.000977 0.0
vt 0.000000 0.000000 0.0
vt 0.000000 1.000977 0.0
f 74/238 68/239 67/240
#fvcolorindex 3 3 3 
usemtl m7
vt 0.666504 0.194336 0.0
vt 0.500000 0.322266 0.0
vt 1.000000 0.322266 0.0
f 62/241 45/242 56/243
#fvcolorindex 7 7 7 
usemtl m6
vt 0.000000 0.309570 0.0
vt 0.000000 0.241211 0.0
vt -0.441895 0.241211 0.0
v 23.000000 91.170235 280.661285
#joint 33
#vjoint 75
f 75/244 60/245 64/246
#fvcolorindex 4 6 3 
usemtl m10
vt 0.441895 0.309570 0.0
vt 0.000000 0.241211 0.0
vt 0.000000 0.309570 0.0
f 57/247 60/248 75/249
#fvcolorindex 11 6 4 
usemtl m17
vt -0.441895 0.651367 0.0
vt 0.000000 0.651367 0.0
vt 0.000000 0.583008 0.0
v -23.000000 91.170235 280.661285
#joint 33
#vjoint 76
f 70/250 61/251 76/252
#fvcolorindex 6 6 4 
usemtl m6
vt 0.000000 0.583008 0.0
vt 0.000000 0.651367 0.0
vt 0.441895 0.583008 0.0
f 76/253 61/254 58/255
#fvcolorindex 4 6 15 
vt 0.000000 0.583008 0.0
vt 0.441895 0.583008 0.0
vt 0.441895 0.309570 0.0
f 76/256 58/257 57/258
#fvcolorindex 4 15 11 
vt 0.000000 0.583008 0.0
vt 0.441895 0.309570 0.0
vt 0.000000 0.309570 0.0
f 76/259 57/260 75/261
#fvcolorindex 4 11 4 
vt 4.637207 0.000000 0.0
vt 4.637207 0.994141 0.0
vt 0.000000 0.994141 0.0
f 42/262 50/263 55/264
#fvcolorindex 4 7 7 
vt 4.637207 0.000000 0.0
vt 0.000000 0.994141 0.0
vt 0.000000 0.000000 0.0
f 42/265 55/266 56/267
#fvcolorindex 4 7 7 
usemtl m5
vt 0.500000 0.833984 0.0
vt 0.666504 0.961914 0.0
vt 1.000000 0.833984 0.0
f 35/268 59/269 47/270
#fvcolorindex 3 4 7 
usemtl m18EnvMappingTexScaleS0.031250TexScaleT0.031250
vt 0.000000 0.000000 0.0
vt 0.000000 0.000000 0.0
vt 0.000000 0.000000 0.0
v 11.000000 31.170237 677.661255
#joint 33
#vjoint 77
#vcolor 89.000000 89.000000 10.000000 255.000000
v 7.000000 28.170237 732.661255
#joint 33
#vjoint 78
v 10.000000 21.170237 732.661255
#joint 33
#vjoint 79
#vcolor 126.000000 0.000000 10.000000 255.000000
vn 0.700787 0.700787 0.078740
vn 0.700787 0.700787 0.078740
vn 0.992126 0.000000 0.078740
f 77/271/1 78/272/2 79/273/3
#fvcolorindex 19 19 20 
vt 0.000000 0.000000 0.0
vt 0.000000 0.000000 0.0
vt 0.000000 0.000000 0.0
v 15.000000 21.170237 677.661255
#joint 33
#vjoint 80
vn 0.700787 0.700787 0.078740
vn 0.992126 0.000000 0.078740
vn 0.992126 0.000000 0.078740
f 77/274/4 79/275/5 80/276/6
#fvcolorindex 19 20 20 
usemtl m19EnvMappingTexScaleS0.031250TexScaleT0.031250
vt 0.000000 0.000000 0.0
vt 0.000000 0.000000 0.0
vt 0.000000 0.000000 0.0
v 7.000000 13.170237 732.661255
#joint 33
#vjoint 81
#vcolor 89.000000 167.000000 10.000000 255.000000
vn 0.992126 0.000000 0.078740
vn 0.992126 0.000000 0.078740
vn 0.700787 1.314961 0.078740
f 80/277/7 79/278/8 81/279/9
#fvcolorindex 20 20 21 
vt 0.000000 0.000000 0.0
vt 0.000000 0.000000 0.0
vt 0.000000 0.000000 0.0
v 11.000000 10.170237 677.661255
#joint 33
#vjoint 82
vn 0.992126 0.000000 0.078740
vn 0.700787 1.314961 0.078740
vn 0.700787 1.314961 0.078740
f 80/280/10 81/281/11 82/282/12
#fvcolorindex 20 21 21 
usemtl m20EnvMappingTexScaleS0.031250TexScaleT0.031250
vt 0.000000 0.000000 0.0
vt 0.000000 0.000000 0.0
vt 0.000000 0.000000 0.0
v 0.000000 10.170237 732.661255
#joint 33
#vjoint 83
#vcolor 0.000000 130.000000 10.000000 255.000000
vn 0.700787 1.314961 0.078740
vn 0.700787 1.314961 0.078740
vn 0.000000 1.023622 0.078740
f 82/283/13 81/284/14 83/285/15
#fvcolorindex 21 21 22 
vt 0.000000 0.000000 0.0
vt 0.000000 0.000000 0.0
vt 0.000000 0.000000 0.0
v 0.000000 6.170237 677.661255
#joint 33
#vjoint 84
vn 0.700787 1.314961 0.078740
vn 0.000000 1.023622 0.078740
vn 0.000000 1.023622 0.078740
f 82/286/16 83/287/17 84/288/18
#fvcolorindex 21 22 22 
usemtl m21EnvMappingTexScaleS0.031250TexScaleT0.031250
vt 0.000000 0.000000 0.0
vt 0.000000 0.000000 0.0
vt 0.000000 0.000000 0.0
v -7.000000 13.170237 732.661255
#joint 33
#vjoint 85
#vcolor 167.000000 167.000000 10.000000 255.000000
vn 0.000000 1.023622 0.078740
vn 0.000000 1.023622 0.078740
vn 1.314961 1.314961 0.078740
f 84/289/19 83/290/20 85/291/21
#fvcolorindex 22 22 23 
vt 0.000000 0.000000 0.0
vt 0.000000 0.000000 0.0
vt 0.000000 0.000000 0.0
v -11.000000 10.170237 677.661255
#joint 33
#vjoint 86
vn 0.000000 1.023622 0.078740
vn 1.314961 1.314961 0.078740
vn 1.314961 1.314961 0.078740
f 84/292/22 85/293/23 86/294/24
#fvcolorindex 22 23 23 
usemtl m22EnvMappingTexScaleS0.031250TexScaleT0.031250
vt 0.000000 0.000000 0.0
vt 0.000000 0.000000 0.0
vt 0.000000 0.000000 0.0
v -10.000000 21.170237 732.661255
#joint 33
#vjoint 87
#vcolor 130.000000 0.000000 10.000000 255.000000
vn 1.314961 1.314961 0.078740
vn 1.314961 1.314961 0.078740
vn 1.023622 0.000000 0.078740
f 86/295/25 85/296/26 87/297/27
#fvcolorindex 23 23 24 
vt 0.000000 0.000000 0.0
vt 0.000000 0.000000 0.0
vt 0.000000 0.000000 0.0
v -15.000000 21.170237 677.661255
#joint 33
#vjoint 88
vn 1.314961 1.314961 0.078740
vn 1.023622 0.000000 0.078740
vn 1.023622 0.000000 0.078740
f 86/298/28 87/299/29 88/300/30
#fvcolorindex 23 24 24 
usemtl m23EnvMappingTexScaleS0.031250TexScaleT0.031250
vt 0.000000 0.000000 0.0
vt 0.000000 0.000000 0.0
vt 0.000000 0.000000 0.0
v -7.000000 28.170237 732.661255
#joint 33
#vjoint 89
#vcolor 167.000000 89.000000 10.000000 255.000000
vn 1.023622 0.000000 0.078740
vn 1.023622 0.000000 0.078740
vn 1.314961 0.700787 0.078740
f 88/301/31 87/302/32 89/303/33
#fvcolorindex 24 24 25 
vt 0.000000 0.000000 0.0
vt 0.000000 0.000000 0.0
vt 0.000000 0.000000 0.0
v -11.000000 31.170237 677.661255
#joint 33
#vjoint 90
vn 1.023622 0.000000 0.078740
vn 1.314961 0.700787 0.078740
vn 1.314961 0.700787 0.078740
f 88/304/34 89/305/35 90/306/36
#fvcolorindex 24 25 25 
usemtl m24EnvMappingTexScaleS0.031250TexScaleT0.031250
vt 0.000000 0.000000 0.0
vt 0.000000 0.000000 0.0
vt 0.000000 0.000000 0.0
v 0.000000 31.170237 732.661255
#joint 33
#vjoint 91
#vcolor 0.000000 126.000000 10.000000 255.000000
v 0.000000 36.170235 677.661255
#joint 33
#vjoint 92
vn 1.314961 0.700787 0.078740
vn 0.000000 0.992126 0.078740
vn 0.000000 0.992126 0.078740
f 89/307/37 91/308/38 92/309/39
#fvcolorindex 25 26 26 
vt 0.000000 0.000000 0.0
vt 0.000000 0.000000 0.0
vt 0.000000 0.000000 0.0
vn 1.314961 0.700787 0.078740
vn 0.000000 0.992126 0.078740
vn 1.314961 0.700787 0.078740
f 89/310/40 92/311/41 90/312/42
#fvcolorindex 25 26 25 
usemtl m25EnvMappingTexScaleS0.031250TexScaleT0.031250
vt 0.000000 0.000000 0.0
vt 0.000000 0.000000 0.0
vt 0.000000 0.000000 0.0
vn 0.000000 0.992126 0.078740
vn 0.700787 0.700787 0.078740
vn 0.700787 0.700787 0.078740
f 91/313/43 78/314/44 77/315/45
#fvcolorindex 26 19 19 
vt 0.000000 0.000000 0.0
vt 0.000000 0.000000 0.0
vt 0.000000 0.000000 0.0
vn 0.000000 0.992126 0.078740
vn 0.700787 0.700787 0.078740
vn 0.000000 0.992126 0.078740
f 91/316/46 77/317/47 92/318/48
#fvcolorindex 26 19 26 
usemtl m26EnvMappingTexScaleS0.031250TexScaleT0.031250
vt 0.000000 0.000000 0.0
vt 0.000000 0.000000 0.0
vt 0.000000 0.000000 0.0
#vcolor 89.000000 89.000000 0.000000 255.000000
v 7.000000 28.170237 830.661255
#joint 33
#vjoint 93
#vcolor 89.000000 89.000000 253.000000 255.000000
v 10.000000 21.170237 830.661255
#joint 33
#vjoint 94
#vcolor 126.000000 0.000000 253.000000 255.000000
vn 0.700787 0.700787 0.000000
vn 0.700787 0.700787 1.992126
vn 0.992126 0.000000 1.992126
f 78/319/49 93/320/50 94/321/51
#fvcolorindex 27 28 29 
vt 0.000000 0.000000 0.0
vt 0.000000 0.000000 0.0
vt 0.000000 0.000000 0.0
#vcolor 127.000000 0.000000 0.000000 255.000000
vn 0.700787 0.700787 0.000000
vn 0.992126 0.000000 1.992126
vn 1.000000 0.000000 0.000000
f 78/322/52 94/323/53 79/324/54
#fvcolorindex 27 29 30 
usemtl m27EnvMappingTexScaleS0.031250TexScaleT0.031250
vt 0.000000 0.000000 0.0
vt 0.000000 0.000000 0.0
vt 0.000000 0.000000 0.0
v 7.000000 13.170237 830.661255
#joint 33
#vjoint 95
#vcolor 89.000000 167.000000 253.000000 255.000000
vn 1.000000 0.000000 0.000000
vn 0.992126 0.000000 1.992126
vn 0.700787 1.314961 1.992126
f 79/325/55 94/326/56 95/327/57
#fvcolorindex 30 29 31 
vt 0.000000 0.000000 0.0
vt 0.000000 0.000000 0.0
vt 0.000000 0.000000 0.0
#vcolor 89.000000 167.000000 0.000000 255.000000
vn 1.000000 0.000000 0.000000
vn 0.700787 1.314961 1.992126
vn 0.700787 1.314961 0.000000
f 79/328/58 95/329/59 81/330/60
#fvcolorindex 30 31 32 
usemtl m28EnvMappingTexScaleS0.031250TexScaleT0.031250
vt 0.000000 0.000000 0.0
vt 0.000000 0.000000 0.0
vt 0.000000 0.000000 0.0
v 0.000000 10.170237 830.661255
#joint 33
#vjoint 96
#vcolor 0.000000 130.000000 253.000000 255.000000
vn 0.700787 1.314961 0.000000
vn 0.700787 1.314961 1.992126
vn 0.000000 1.023622 1.992126
f 81/331/61 95/332/62 96/333/63
#fvcolorindex 32 31 33 
vt 0.000000 0.000000 0.0
vt 0.000000 0.000000 0.0
vt 0.000000 0.000000 0.0
#vcolor 0.000000 129.000000 0.000000 255.000000
vn 0.700787 1.314961 0.000000
vn 0.000000 1.023622 1.992126
vn 0.000000 1.015748 0.000000
f 81/334/64 96/335/65 83/336/66
#fvcolorindex 32 33 34 
usemtl m29EnvMappingTexScaleS0.031250TexScaleT0.031250
vt 0.000000 0.000000 0.0
vt 0.000000 0.000000 0.0
vt 0.000000 0.000000 0.0
v -7.000000 13.170237 830.661255
#joint 33
#vjoint 97
#vcolor 167.000000 167.000000 253.000000 255.000000
vn 0.000000 1.015748 0.000000
vn 0.000000 1.023622 1.992126
vn 1.314961 1.314961 1.992126
f 83/337/67 96/338/68 97/339/69
#fvcolorindex 34 33 35 
vt 0.000000 0.000000 0.0
vt 0.000000 0.000000 0.0
vt 0.000000 0.000000 0.0
#vcolor 167.000000 167.000000 0.000000 255.000000
vn 0.000000 1.015748 0.000000
vn 1.314961 1.314961 1.992126
vn 1.314961 1.314961 0.000000
f 83/340/70 97/341/71 85/342/72
#fvcolorindex 34 35 36 
usemtl m30EnvMappingTexScaleS0.031250TexScaleT0.031250
vt 0.000000 0.000000 0.0
vt 0.000000 0.000000 0.0
vt 0.000000 0.000000 0.0
v -10.000000 21.170237 830.661255
#joint 33
#vjoint 98
#vcolor 130.000000 0.000000 253.000000 255.000000
vn 1.314961 1.314961 0.000000
vn 1.314961 1.314961 1.992126
vn 1.023622 0.000000 1.992126
f 85/343/73 97/344/74 98/345/75
#fvcolorindex 36 35 37 
vt 0.000000 0.000000 0.0
vt 0.000000 0.000000 0.0
vt 0.000000 0.000000 0.0
#vcolor 129.000000 0.000000 0.000000 255.000000
vn 1.314961 1.314961 0.000000
vn 1.023622 0.000000 1.992126
vn 1.015748 0.000000 0.000000
f 85/346/76 98/347/77 87/348/78
#fvcolorindex 36 37 38 
usemtl m31EnvMappingTexScaleS0.031250TexScaleT0.031250
vt 0.000000 0.000000 0.0
vt 0.000000 0.000000 0.0
vt 0.000000 0.000000 0.0
v -7.000000 28.170237 830.661255
#joint 33
#vjoint 99
#vcolor 167.000000 89.000000 253.000000 255.000000
vn 1.015748 0.000000 0.000000
vn 1.023622 0.000000 1.992126
vn 1.314961 0.700787 1.992126
f 87/349/79 98/350/80 99/351/81
#fvcolorindex 38 37 39 
vt 0.000000 0.000000 0.0
vt 0.000000 0.000000 0.0
vt 0.000000 0.000000 0.0
#vcolor 167.000000 89.000000 0.000000 255.000000
vn 1.015748 0.000000 0.000000
vn 1.314961 0.700787 1.992126
vn 1.314961 0.700787 0.000000
f 87/352/82 99/353/83 89/354/84
#fvcolorindex 38 39 40 
usemtl m32EnvMappingTexScaleS0.031250TexScaleT0.031250
vt 0.000000 0.000000 0.0
vt 0.000000 0.000000 0.0
vt 0.000000 0.000000 0.0
v 0.000000 31.170237 830.661255
#joint 33
#vjoint 100
#vcolor 0.000000 126.000000 253.000000 255.000000
vn 1.314961 0.700787 0.000000
vn 1.314961 0.700787 1.992126
vn 0.000000 0.992126 1.992126
f 89/355/85 99/356/86 100/357/87
#fvcolorindex 40 39 41 
vt 0.000000 0.000000 0.0
vt 0.000000 0.000000 0.0
vt 0.000000 0.000000 0.0
#vcolor 0.000000 127.000000 0.000000 255.000000
vn 1.314961 0.700787 0.000000
vn 0.000000 0.992126 1.992126
vn 0.000000 1.000000 0.000000
f 89/358/88 100/359/89 91/360/90
#fvcolorindex 40 41 42 
usemtl m33EnvMappingTexScaleS0.031250TexScaleT0.031250
vt 0.000000 0.000000 0.0
vt 0.000000 0.000000 0.0
vt 0.000000 0.000000 0.0
vn 0.000000 1.000000 0.000000
vn 0.000000 0.992126 1.992126
vn 0.700787 0.700787 1.992126
f 91/361/91 100/362/92 93/363/93
#fvcolorindex 42 41 28 
vt 0.000000 0.000000 0.0
vt 0.000000 0.000000 0.0
vt 0.000000 0.000000 0.0
vn 0.000000 1.000000 0.000000
vn 0.700787 0.700787 1.992126
vn 0.700787 0.700787 0.000000
f 91/364/94 93/365/95 78/366/96
#fvcolorindex 42 28 27 
usemtl m34EnvMappingTexScaleS0.031250TexScaleT0.031250
vt 0.000000 0.000000 0.0
vt 0.000000 0.000000 0.0
vt 0.000000 0.000000 0.0
v 11.000000 31.170237 914.661255
#joint 33
#vjoint 101
#vcolor 89.000000 89.000000 250.000000 255.000000
v 15.000000 21.170237 914.661255
#joint 33
#vjoint 102
#vcolor 126.000000 0.000000 250.000000 255.000000
vn 0.700787 0.700787 1.992126
vn 0.700787 0.700787 1.968504
vn 0.992126 0.000000 1.968504
f 93/367/97 101/368/98 102/369/99
#fvcolorindex 28 43 44 
vt 0.000000 0.000000 0.0
vt 0.000000 0.000000 0.0
vt 0.000000 0.000000 0.0
vn 0.700787 0.700787 1.992126
vn 0.992126 0.000000 1.968504
vn 0.992126 0.000000 1.992126
f 93/370/100 102/371/101 94/372/102
#fvcolorindex 28 44 29 
usemtl m35EnvMappingTexScaleS0.031250TexScaleT0.031250
vt 0.000000 0.000000 0.0
vt 0.000000 0.000000 0.0
vt 0.000000 0.000000 0.0
v 0.000000 36.170235 914.661255
#joint 33
#vjoint 103
#vcolor 0.000000 126.000000 250.000000 255.000000
vn 0.000000 0.992126 1.992126
vn 0.000000 0.992126 1.968504
vn 0.700787 0.700787 1.968504
f 100/373/103 103/374/104 101/375/105
#fvcolorindex 41 45 43 
vt 0.000000 0.000000 0.0
vt 0.000000 0.000000 0.0
vt 0.000000 0.000000 0.0
vn 0.000000 0.992126 1.992126
vn 0.700787 0.700787 1.968504
vn 0.700787 0.700787 1.992126
f 100/376/106 101/377/107 93/378/108
#fvcolorindex 41 43 28 
usemtl m36EnvMappingTexScaleS0.031250TexScaleT0.031250
vt 0.000000 0.000000 0.0
vt 0.000000 0.000000 0.0
vt 0.000000 0.000000 0.0
v -11.000000 31.170237 914.661255
#joint 33
#vjoint 104
#vcolor 167.000000 89.000000 250.000000 255.000000
vn 1.314961 0.700787 1.992126
vn 1.314961 0.700787 1.968504
vn 0.000000 0.992126 1.968504
f 99/379/109 104/380/110 103/381/111
#fvcolorindex 39 46 45 
vt 0.000000 0.000000 0.0
vt 0.000000 0.000000 0.0
vt 0.000000 0.000000 0.0
vn 1.314961 0.700787 1.992126
vn 0.000000 0.992126 1.968504
vn 0.000000 0.992126 1.992126
f 99/382/112 103/383/113 100/384/114
#fvcolorindex 39 45 41 
usemtl m37EnvMappingTexScaleS0.031250TexScaleT0.031250
vt 0.000000 0.000000 0.0
vt 0.000000 0.000000 0.0
vt 0.000000 0.000000 0.0
v -15.000000 21.170237 914.661255
#joint 33
#vjoint 105
#vcolor 130.000000 0.000000 250.000000 255.000000
vn 1.023622 0.000000 1.992126
vn 1.023622 0.000000 1.968504
vn 1.314961 0.700787 1.968504
f 98/385/115 105/386/116 104/387/117
#fvcolorindex 37 47 46 
vt 0.000000 0.000000 0.0
vt 0.000000 0.000000 0.0
vt 0.000000 0.000000 0.0
vn 1.023622 0.000000 1.992126
vn 1.314961 0.700787 1.968504
vn 1.314961 0.700787 1.992126
f 98/388/118 104/389/119 99/390/120
#fvcolorindex 37 46 39 
usemtl m38EnvMappingTexScaleS0.031250TexScaleT0.031250
vt 0.000000 0.000000 0.0
vt 0.000000 0.000000 0.0
vt 0.000000 0.000000 0.0
v -11.000000 10.170237 914.661255
#joint 33
#vjoint 106
#vcolor 167.000000 167.000000 250.000000 255.000000
vn 1.314961 1.314961 1.992126
vn 1.314961 1.314961 1.968504
vn 1.023622 0.000000 1.968504
f 97/391/121 106/392/122 105/393/123
#fvcolorindex 35 48 47 
vt 0.000000 0.000000 0.0
vt 0.000000 0.000000 0.0
vt 0.000000 0.000000 0.0
vn 1.314961 1.314961 1.992126
vn 1.023622 0.000000 1.968504
vn 1.023622 0.000000 1.992126
f 97/394/124 105/395/125 98/396/126
#fvcolorindex 35 47 37 
usemtl m39EnvMappingTexScaleS0.031250TexScaleT0.031250
vt 0.000000 0.000000 0.0
vt 0.000000 0.000000 0.0
vt 0.000000 0.000000 0.0
v 0.000000 6.170237 914.661255
#joint 33
#vjoint 107
#vcolor 0.000000 130.000000 250.000000 255.000000
vn 0.000000 1.023622 1.992126
vn 0.000000 1.023622 1.968504
vn 1.314961 1.314961 1.968504
f 96/397/127 107/398/128 106/399/129
#fvcolorindex 33 49 48 
vt 0.000000 0.000000 0.0
vt 0.000000 0.000000 0.0
vt 0.000000 0.000000 0.0
vn 0.000000 1.023622 1.992126
vn 1.314961 1.314961 1.968504
vn 1.314961 1.314961 1.992126
f 96/400/130 106/401/131 97/402/132
#fvcolorindex 33 48 35 
usemtl m40EnvMappingTexScaleS0.031250TexScaleT0.031250
vt 0.000000 0.000000 0.0
vt 0.000000 0.000000 0.0
vt 0.000000 0.000000 0.0
v 11.000000 10.170237 914.661255
#joint 33
#vjoint 108
#vcolor 89.000000 167.000000 250.000000 255.000000
vn 0.700787 1.314961 1.992126
vn 0.700787 1.314961 1.968504
vn 0.000000 1.023622 1.968504
f 95/403/133 108/404/134 107/405/135
#fvcolorindex 31 50 49 
vt 0.000000 0.000000 0.0
vt 0.000000 0.000000 0.0
vt 0.000000 0.000000 0.0
vn 0.700787 1.314961 1.992126
vn 0.000000 1.023622 1.968504
vn 0.000000 1.023622 1.992126
f 95/406/136 107/407/137 96/408/138
#fvcolorindex 31 49 33 
usemtl m41EnvMappingTexScaleS0.031250TexScaleT0.031250
vt 0.000000 0.000000 0.0
vt 0.000000 0.000000 0.0
vt 0.000000 0.000000 0.0
vn 0.992126 0.000000 1.992126
vn 0.992126 0.000000 1.968504
vn 0.700787 1.314961 1.968504
f 94/409/139 102/410/140 108/411/141
#fvcolorindex 29 44 50 
vt 0.000000 0.000000 0.0
vt 0.000000 0.000000 0.0
vt 0.000000 0.000000 0.0
vn 0.992126 0.000000 1.992126
vn 0.700787 1.314961 1.968504
vn 0.700787 1.314961 1.992126
f 94/412/142 108/413/143 95/414/144
#fvcolorindex 29 50 31 
usemtl m42
vt -0.225098 0.906250 0.0
vt 0.645996 0.908203 0.0
vt 0.645996 0.887695 0.0
v 35.000000 44.170235 677.661255
#joint 33
#vjoint 109
f 109/415 63/416 38/417
#fvcolorindex 3 3 4 
vt -0.225098 0.906250 0.0
vt 0.645996 0.887695 0.0
vt -0.225586 0.886719 0.0
f 109/418 38/419 37/420
#fvcolorindex 3 4 4 
vt 0.764648 0.923828 0.0
vt -0.100098 0.935547 0.0
vt -0.102051 0.876953 0.0
f 44/421 43/422 69/423
#fvcolorindex 3 3 3 
vt 0.764648 0.923828 0.0
vt -0.102051 0.876953 0.0
vt 0.762695 0.864258 0.0
v -35.000000 44.170235 677.661255
#joint 33
#vjoint 110
f 44/424 69/425 110/426
#fvcolorindex 3 3 3 
vt 0.645996 0.908203 0.0
vt -0.225098 0.906250 0.0
vt -0.115723 0.668945 0.0
v 35.000000 21.170237 630.661255
#joint 33
#vjoint 111
f 63/427 109/428 111/429
#fvcolorindex 3 3 3 
vt 0.645996 0.908203 0.0
vt -0.115723 0.668945 0.0
vt 0.192383 0.550781 0.0
v 35.000000 9.170237 502.661285
#joint 33
#vjoint 112
f 63/430 111/431 112/432
#fvcolorindex 3 3 3 
vt -0.148438 0.292969 0.0
vt -0.115723 0.668945 0.0
vt -0.225098 0.906250 0.0
v 23.000000 -13.829763 642.661255
#joint 33
#vjoint 113
f 113/433 111/434 109/435
#fvcolorindex 3 3 3 
vt -0.148438 0.292969 0.0
vt -0.225098 0.906250 0.0
vt -0.235352 0.074219 0.0
v 35.000000 -36.829765 677.661255
#joint 33
#vjoint 114
f 113/436 109/437 114/438
#fvcolorindex 3 3 3 
vt 0.468750 0.174805 0.0
vt 0.645996 0.908203 0.0
vt 0.192383 0.550781 0.0
v 23.000000 -25.829763 385.661285
#joint 33
#vjoint 115
f 115/439 63/440 112/441
#fvcolorindex 3 3 3 
vt 0.468750 0.174805 0.0
vt 0.192383 0.550781 0.0
vt 0.159668 0.173828 0.0
v 23.000000 -25.829763 513.661255
#joint 33
#vjoint 116
f 115/442 112/443 116/444
#fvcolorindex 3 3 3 
vt 0.641113 0.791992 0.0
vt 0.556152 0.661133 0.0
vt 0.554199 0.195312 0.0
v -35.000000 -36.829765 677.661255
#joint 33
#vjoint 117
v -23.000000 -13.829763 642.661255
#joint 33
#vjoint 118
f 117/445 118/446 113/447
#fvcolorindex 3 3 3 
vt 0.641113 0.791992 0.0
vt 0.554199 0.195312 0.0
vt 0.638184 0.092773 0.0
f 117/448 113/449 114/450
#fvcolorindex 3 3 3 
vt 0.245117 0.145508 0.0
vt 0.247070 0.611328 0.0
vt -0.062500 0.561523 0.0
v -23.000000 -25.829763 513.661255
#joint 33
#vjoint 119
v -23.000000 -25.829763 385.661285
#joint 33
#vjoint 120
f 116/451 119/452 120/453
#fvcolorindex 3 3 3 
vt 0.245117 0.145508 0.0
vt -0.062500 0.561523 0.0
vt -0.064453 0.095703 0.0
f 116/454 120/455 115/456
#fvcolorindex 3 3 3 
vt 0.055176 0.003906 0.0
vt 0.061523 0.624023 0.0
vt -0.062012 0.621094 0.0
f 114/457 109/458 110/459
#fvcolorindex 3 3 3 
vt 0.055176 0.003906 0.0
vt -0.062012 0.621094 0.0
vt -0.068848 0.000977 0.0
f 114/460 110/461 117/462
#fvcolorindex 3 3 3 
vt -0.115723 0.668945 0.0
vt -0.148438 0.292969 0.0
vt 0.159668 0.173828 0.0
f 111/463 113/464 116/465
#fvcolorindex 3 3 3 
vt -0.115723 0.668945 0.0
vt 0.159668 0.173828 0.0
vt 0.192383 0.550781 0.0
f 111/466 116/467 112/468
#fvcolorindex 3 3 3 
vt 0.554199 0.195312 0.0
vt 0.556152 0.661133 0.0
vt 0.247070 0.611328 0.0
f 113/469 118/470 119/471
#fvcolorindex 3 3 3 
vt 0.554199 0.195312 0.0
vt 0.247070 0.611328 0.0
vt 0.245117 0.145508 0.0
f 113/472 119/473 116/474
#fvcolorindex 3 3 3 
vt 0.750000 0.237305 0.0
vt 0.762695 0.864258 0.0
vt 0.647461 0.686523 0.0
v -35.000000 21.170237 630.661255
#joint 33
#vjoint 121
f 117/475 110/476 121/477
#fvcolorindex 3 3 3 
vt 0.750000 0.237305 0.0
vt 0.647461 0.686523 0.0
vt 0.670410 0.388672 0.0
f 117/478 121/479 118/480
#fvcolorindex 3 3 3 
vt 0.338867 0.601562 0.0
vt 0.361328 0.303711 0.0
vt 0.670410 0.388672 0.0
v -35.000000 9.170237 502.661285
#joint 33
#vjoint 122
f 122/481 119/482 118/483
#fvcolorindex 3 3 3 
vt 0.338867 0.601562 0.0
vt 0.670410 0.388672 0.0
vt 0.647461 0.686523 0.0
f 122/484 118/485 121/486
#fvcolorindex 3 3 3 
vt 0.338867 0.601562 0.0
vt 0.647461 0.686523 0.0
vt 0.762695 0.864258 0.0
f 122/487 121/488 110/489
#fvcolorindex 3 3 3 
vt 0.338867 0.601562 0.0
vt 0.762695 0.864258 0.0
vt -0.102051 0.876953 0.0
f 122/490 110/491 69/492
#fvcolorindex 3 3 3 
vt 0.361328 0.303711 0.0
vt 0.338867 0.601562 0.0
vt -0.102051 0.876953 0.0
f 119/493 122/494 69/495
#fvcolorindex 3 3 3 
vt 0.361328 0.303711 0.0
vt -0.102051 0.876953 0.0
vt 0.054688 0.307617 0.0
f 119/496 69/497 120/498
#fvcolorindex 3 3 3 
usemtl m43
vt 1.000000 0.000000 0.0
vt 0.922852 0.918945 0.0
vt 0.000000 0.918945 0.0
v 35.000000 44.170235 -10.338715
#joint 33
#vjoint 123
#vcolor 226.000000 226.000000 226.000000 255.000000
v 35.000000 91.170235 0.661285
#joint 33
#vjoint 124
f 123/499 124/500 67/501
#fvcolorindex 51 3 3 
vt 1.000000 0.000000 0.0
vt 0.000000 0.918945 0.0
vt 0.000000 0.000000 0.0
f 123/502 67/503 65/504
#fvcolorindex 51 3 4 
usemtl m42
vt 0.922852 0.918945 0.0
vt 0.000000 0.918945 0.0
vt 0.000000 0.918945 0.0
v -35.000000 91.170235 0.661285
#joint 33
#vjoint 125
f 125/505 74/506 67/507
#fvcolorindex 3 3 3 
vt 0.922852 0.918945 0.0
vt 0.000000 0.918945 0.0
vt 0.922852 0.918945 0.0
f 125/508 67/509 124/510
#fvcolorindex 3 3 3 
usemtl m44
vt 0.000000 0.000000 0.0
vt 0.000000 0.978516 0.0
vt 0.922852 0.978516 0.0
f 72/511 74/512 125/513
#fvcolorindex 7 3 3 
vt 0.000000 0.000000 0.0
vt 0.922852 0.978516 0.0
vt 1.000000 0.000000 0.0
v -35.000000 44.170235 -10.338715
#joint 33
#vjoint 126
f 72/514 125/515 126/516
#fvcolorindex 7 3 7 
usemtl m45
vt 1.000000 0.000000 0.0
vt 0.922852 0.918945 0.0
vt 0.922852 0.918945 0.0
f 126/517 125/518 124/519
#fvcolorindex 11 3 3 
vt 1.000000 0.000000 0.0
vt 0.922852 0.918945 0.0
vt 1.000000 0.000000 0.0
f 126/520 124/521 123/522
#fvcolorindex 11 3 11 
usemtl m46
vt 2.671875 0.934570 0.0
vt 0.000000 0.934570 0.0
vt 0.000000 0.270508 0.0
v 23.000000 91.170235 175.661285
#joint 33
#vjoint 127
f 127/523 75/524 64/525
#fvcolorindex 3 4 3 
vt 2.671875 0.934570 0.0
vt 0.000000 0.270508 0.0
vt 2.671875 0.270508 0.0
f 127/526 64/527 66/528
#fvcolorindex 3 3 3 
usemtl m47
vt 0.000000 -0.088867 0.0
vt 1.744141 -0.088867 0.0
vt 1.744141 0.686523 0.0
v -23.000000 91.170235 175.661285
#joint 33
#vjoint 128
f 75/529 127/530 128/531
#fvcolorindex 4 3 3 
vt 0.000000 -0.088867 0.0
vt 1.744141 0.686523 0.0
vt 0.000000 0.686523 0.0
f 75/532 128/533 76/534
#fvcolorindex 4 3 4 
vt 2.547852 0.000000 0.0
vt 0.000000 0.000000 0.0
vt 0.000000 -0.632812 0.0
f 76/535 128/536 71/537
#fvcolorindex 4 3 3 
vt 2.547852 0.000000 0.0
vt 0.000000 -0.632812 0.0
vt 2.547852 -0.632812 0.0
f 76/538 71/539 70/540
#fvcolorindex 4 3 3 
usemtl m46
vt 0.000000 0.000000 0.0
vt 0.000000 0.857422 0.0
vt 6.073242 0.857422 0.0
f 41/541 36/542 35/543
#fvcolorindex 3 3 3 
vt 0.000000 0.000000 0.0
vt 6.073242 0.857422 0.0
vt 6.073242 0.000000 0.0
f 41/544 35/545 45/546
#fvcolorindex 3 3 3 
usemtl m48
vt 6.907227 0.000000 0.0
vt 0.000000 0.000000 0.0
vt 0.000000 0.986328 0.0
f 47/547 39/548 42/549
#fvcolorindex 7 4 4 
vt 6.907227 0.000000 0.0
vt 0.000000 0.986328 0.0
vt 6.907227 0.986328 0.0
f 47/550 42/551 56/552
#fvcolorindex 7 4 7 
usemtl m49
vt 0.166992 -0.671875 0.0
vt 0.833008 -0.671875 0.0
vt 1.000000 0.000000 0.0
v 23.000000 -48.829765 0.661285
#joint 33
#vjoint 129
#vcolor 156.000000 156.000000 156.000000 255.000000
v -23.000000 -48.829765 0.661285
#joint 33
#vjoint 130
f 129/553 130/554 126/555
#fvcolorindex 52 52 11 
vt 0.166992 -0.671875 0.0
vt 1.000000 0.000000 0.0
vt 0.000000 0.000000 0.0
f 129/556 126/557 123/558
#fvcolorindex 52 11 11 
usemtl m50
vt 0.000000 -0.676270 0.0
vt 2.670898 -0.896973 0.0
vt 2.892578 0.000000 0.0
v 23.000000 -25.829763 140.661285
#joint 33
#vjoint 131
f 131/559 129/560 123/561
#fvcolorindex 7 7 51 
vt 0.000000 -0.676270 0.0
vt 2.892578 0.000000 0.0
vt 0.000000 0.000000 0.0
f 131/562 123/563 65/564
#fvcolorindex 7 51 4 
vt 2.988281 0.000000 0.0
vt 0.000000 0.000000 0.0
vt 0.229492 -0.926758 0.0
f 72/565 126/566 130/567
#fvcolorindex 7 7 7 
vt 2.988281 0.000000 0.0
vt 0.229492 -0.926758 0.0
vt 2.988281 -0.698242 0.0
v -23.000000 -25.829763 140.661285
#joint 33
#vjoint 132
f 72/568 130/569 132/570
#fvcolorindex 7 7 7 
vt 0.000000 1.000000 0.0
vt 0.000000 0.000000 0.0
vt 1.000000 0.000000 0.0
f 132/571 130/572 129/573
#fvcolorindex 7 7 7 
vt 0.000000 1.000000 0.0
vt 1.000000 0.000000 0.0
vt 1.000000 1.000000 0.0
f 132/574 129/575 131/576
#fvcolorindex 7 7 7 
usemtl m51
vt 0.000000 0.000000 0.0
vt 0.166992 0.250000 0.0
vt 0.000000 0.750000 0.0
v 35.000000 -60.829765 140.661285
#joint 33
#vjoint 133
#vcolor 174.000000 174.000000 174.000000 255.000000
f 133/577 131/578 65/579
#fvcolorindex 53 53 4 
vt 1.000000 0.750000 0.0
vt 0.833008 0.250000 0.0
vt 1.000000 0.000000 0.0
v -35.000000 -60.829765 140.661285
#joint 33
#vjoint 134
f 72/580 132/581 134/582
#fvcolorindex 53 53 53 
vt 1.000000 0.000000 0.0
vt 0.833008 0.250000 0.0
vt 0.166992 0.250000 0.0
f 134/583 132/584 131/585
#fvcolorindex 53 53 53 
vt 1.000000 0.000000 0.0
vt 0.166992 0.250000 0.0
vt 0.000000 0.000000 0.0
f 134/586 131/587 133/588
#fvcolorindex 53 53 53 
usemtl m52
vt -0.203125 -0.001953 0.0
vt 1.000000 0.000000 0.0
vt 0.999023 0.804688 0.0
f 133/589 65/590 63/591
#fvcolorindex 14 4 4 
vt -0.203125 -0.001953 0.0
vt 0.999023 0.804688 0.0
vt 0.464844 0.589355 0.0
v 35.000000 -1.829763 269.661285
#joint 33
#vjoint 135
f 133/592 63/593 135/594
#fvcolorindex 14 4 51 
usemtl m50
vt 0.919922 0.737793 0.0
vt 1.656250 1.006348 0.0
vt 1.656250 0.000000 0.0
v -35.000000 -1.829763 269.661285
#joint 33
#vjoint 136
f 136/595 69/596 72/597
#fvcolorindex 7 4 7 
vt 0.919922 0.737793 0.0
vt 1.656250 0.000000 0.0
vt 0.000000 0.000000 0.0
f 136/598 72/599 134/600
#fvcolorindex 7 7 7 
usemtl m52
vt -0.203125 -0.001953 0.0
vt 0.464844 0.589355 0.0
vt -0.070312 0.588379 0.0
v 35.000000 -48.829765 269.661285
#joint 33
#vjoint 137
#vcolor 229.000000 229.000000 229.000000 255.000000
f 133/601 135/602 137/603
#fvcolorindex 14 51 54 
usemtl m50
vt 0.183594 0.737793 0.0
vt 0.919922 0.737793 0.0
vt 0.000000 0.000000 0.0
v -35.000000 -48.829765 269.661285
#joint 33
#vjoint 138
f 138/604 136/605 134/606
#fvcolorindex 7 7 7 
usemtl m53
vt 0.196289 1.146973 0.0
vt 0.464844 0.589355 0.0
vt 0.999023 0.804688 0.0
f 115/607 135/608 63/609
#fvcolorindex 4 51 4 
vt 0.551758 1.408691 0.0
vt 1.656250 1.006348 0.0
vt 0.919922 0.737793 0.0
f 120/610 69/611 136/612
#fvcolorindex 4 4 7 
usemtl m54
vt -0.070312 0.588379 0.0
vt 0.464844 0.589355 0.0
vt 0.196289 1.146973 0.0
f 137/613 135/614 115/615
#fvcolorindex 54 51 4 
usemtl m53
vt 0.551758 1.408691 0.0
vt 0.919922 0.737793 0.0
vt 0.183594 0.737793 0.0
f 120/616 136/617 138/618
#fvcolorindex 4 7 7 
usemtl m55
vt 0.000000 1.000000 0.0
vt 0.000000 0.000000 0.0
vt 1.000000 0.000000 0.0
#vcolor 255.000000 255.000000 255.000000 255.000000
f 134/619 133/620 137/621
#fvcolorindex 55 55 55 
vt 0.000000 1.000000 0.0
vt 1.000000 0.000000 0.0
vt 1.000000 1.000000 0.0
f 134/622 137/623 138/624
#fvcolorindex 55 55 55 
vt 1.000000 1.000000 0.0
vt 1.000000 0.000000 0.0
vt 1.917969 0.166504 0.0
f 138/625 137/626 115/627
#fvcolorindex 55 55 55 
vt 1.000000 1.000000 0.0
vt 1.917969 0.166504 0.0
vt 1.917969 0.833496 0.0
f 138/628 115/629 120/630
#fvcolorindex 55 55 55 
usemtl m56
vt -1.416016 0.359375 0.0
vt -1.210938 0.081055 0.0
vt -1.064453 0.187500 0.0
v 8.000000 -25.829763 418.661285
#joint 33
#vjoint 139
v 8.000000 -60.829765 400.661285
#joint 33
#vjoint 140
v 0.000000 -56.829765 396.661285
#joint 33
#vjoint 141
f 139/631 140/632 141/633
#fvcolorindex 3 3 3 
vt -1.416016 0.359375 0.0
vt -1.064453 0.187500 0.0
vt -1.259766 0.460938 0.0
v 0.000000 -24.829763 412.661285
#joint 33
#vjoint 142
#vcolor 150.000000 150.000000 150.000000 255.000000
f 139/634 141/635 142/636
#fvcolorindex 3 3 56 
usemtl m57
vt -1.175781 0.340820 0.0
vt -1.259766 0.460938 0.0
vt -1.064453 0.187500 0.0
v -8.000000 -25.829763 418.661285
#joint 33
#vjoint 143
f 143/637 142/638 141/639
#fvcolorindex 7 56 3 
vt -1.175781 0.340820 0.0
vt -1.064453 0.187500 0.0
vt -0.970703 0.061523 0.0
v -8.000000 -60.829765 400.661285
#joint 33
#vjoint 144
f 143/640 141/641 144/642
#fvcolorindex 7 3 6 
usemtl m56
vt -1.064453 0.187500 0.0
vt -0.650391 0.431641 0.0
vt -0.509766 0.334961 0.0
v 0.000000 -56.829765 364.661285
#joint 33
#vjoint 145
v -8.000000 -60.829765 364.661285
#joint 33
#vjoint 146
f 141/643 145/644 146/645
#fvcolorindex 3 6 7 
vt -1.064453 0.187500 0.0
vt -0.509766 0.334961 0.0
vt -0.970703 0.061523 0.0
f 141/646 146/647 144/648
#fvcolorindex 3 7 6 
vt -0.750000 0.353516 0.0
vt -0.650391 0.431641 0.0
vt -1.064453 0.187500 0.0
v 8.000000 -60.829765 364.661285
#joint 33
#vjoint 147
f 147/649 145/650 141/651
#fvcolorindex 3 6 3 
vt -0.750000 0.353516 0.0
vt -1.064453 0.187500 0.0
vt -1.210938 0.081055 0.0
f 147/652 141/653 140/654
#fvcolorindex 3 3 3 
usemtl m58
vt -0.650391 0.431641 0.0
vt -0.348633 0.391602 0.0
vt -0.509766 0.334961 0.0
v -12.000000 -60.829765 356.661285
#joint 33
#vjoint 148
f 145/655 148/656 146/657
#fvcolorindex 6 7 7 
usemtl m59
vt -0.709961 0.419922 0.0
vt -0.650391 0.431641 0.0
vt -0.750000 0.353516 0.0
v 12.000000 -60.829765 356.661285
#joint 33
#vjoint 149
f 149/658 145/659 147/660
#fvcolorindex 9 6 3 
usemtl m57
vt -0.348633 0.391602 0.0
vt -0.452148 0.840820 0.0
vt -0.003906 0.935547 0.0
v -12.000000 -36.829765 356.661285
#joint 33
#vjoint 150
v -12.000000 -44.829765 324.661285
#joint 33
#vjoint 151
f 148/661 150/662 151/663
#fvcolorindex 7 7 7 
vt -0.348633 0.391602 0.0
vt -0.003906 0.935547 0.0
vt 0.031250 0.786133 0.0
v -12.000000 -52.829765 324.661285
#joint 33
#vjoint 152
f 148/664 151/665 152/666
#fvcolorindex 7 7 7 
usemtl m60
vt -0.813477 0.869141 0.0
vt -0.709961 0.419922 0.0
vt -0.330078 0.814453 0.0
v 12.000000 -36.829765 356.661285
#joint 33
#vjoint 153
#vcolor 75.000000 75.000000 75.000000 255.000000
v 12.000000 -52.829765 324.661285
#joint 33
#vjoint 154
#vcolor 210.000000 210.000000 210.000000 255.000000
f 153/667 149/668 154/669
#fvcolorindex 57 9 58 
vt -0.813477 0.869141 0.0
vt -0.330078 0.814453 0.0
vt -0.365234 0.963867 0.0
v 12.000000 -44.829765 324.661285
#joint 33
#vjoint 155
#vcolor 182.000000 182.000000 182.000000 255.000000
f 153/670 154/671 155/672
#fvcolorindex 57 58 59 
usemtl m57
vt -0.509766 0.334961 0.0
vt -0.348633 0.391602 0.0
vt -0.140625 0.002930 0.0
v -12.000000 -84.829765 348.661285
#joint 33
#vjoint 156
f 146/673 148/674 156/675
#fvcolorindex 7 7 7 
vt -0.509766 0.334961 0.0
vt -0.140625 0.002930 0.0
vt -0.421875 -0.043945 0.0
v 0.000000 -84.829765 356.661285
#joint 33
#vjoint 157
f 146/676 156/677 157/678
#fvcolorindex 7 7 7 
vt -0.283203 -0.643555 0.0
vt -0.421875 -0.043945 0.0
vt -0.140625 0.002930 0.0
v 0.000000 -116.829765 356.661285
#joint 33
#vjoint 158
f 158/679 157/680 156/681
#fvcolorindex 7 7 7 
vt -0.283203 -0.643555 0.0
vt -0.140625 0.002930 0.0
vt -0.001953 -0.596680 0.0
v -12.000000 -116.829765 348.661285
#joint 33
#vjoint 159
f 158/682 156/683 159/684
#fvcolorindex 7 7 7 
vt -0.348633 0.391602 0.0
vt 0.031250 0.786133 0.0
vt 0.169922 0.186523 0.0
v -12.000000 -84.829765 324.661285
#joint 33
#vjoint 160
f 148/685 152/686 160/687
#fvcolorindex 7 7 7 
vt -0.348633 0.391602 0.0
vt 0.169922 0.186523 0.0
vt -0.140625 0.002930 0.0
f 148/688 160/689 156/690
#fvcolorindex 7 7 7 
vt 0.169922 0.186523 0.0
vt 0.308594 -0.413086 0.0
vt -0.001953 -0.596680 0.0
v -12.000000 -116.829765 324.661285
#joint 33
#vjoint 161
f 160/691 161/692 159/693
#fvcolorindex 7 7 7 
vt 0.169922 0.186523 0.0
vt -0.001953 -0.596680 0.0
vt -0.140625 0.002930 0.0
f 160/694 159/695 156/696
#fvcolorindex 7 7 7 
vt 0.006836 1.151367 0.0
vt 0.076172 0.851562 0.0
vt 0.031250 0.786133 0.0
v -8.000000 -36.829765 316.661285
#joint 33
#vjoint 162
v -8.000000 -52.829765 316.661285
#joint 33
#vjoint 163
#vcolor 116.000000 116.000000 116.000000 255.000000
f 162/697 163/698 152/699
#fvcolorindex 7 60 7 
vt 0.006836 1.151367 0.0
vt 0.031250 0.786133 0.0
vt -0.003906 0.935547 0.0
f 162/700 152/701 151/702
#fvcolorindex 7 7 7 
vt 0.031250 0.786133 0.0
vt 0.076172 0.851562 0.0
vt 0.318359 0.313477 0.0
v -8.000000 -84.829765 308.661285
#joint 33
#vjoint 164
#vcolor 106.000000 106.000000 106.000000 255.000000
f 152/703 163/704 164/705
#fvcolorindex 7 60 61 
vt 0.031250 0.786133 0.0
vt 0.318359 0.313477 0.0
vt 0.169922 0.186523 0.0
f 152/706 164/707 160/708
#fvcolorindex 7 61 7 
vt 0.308594 -0.413086 0.0
vt 0.169922 0.186523 0.0
vt 0.318359 0.313477 0.0
f 161/709 160/710 164/711
#fvcolorindex 7 7 61 
vt 0.308594 -0.413086 0.0
vt 0.318359 0.313477 0.0
vt 0.458008 -0.286133 0.0
v -8.000000 -116.829765 308.661285
#joint 33
#vjoint 165
#vcolor 90.000000 90.000000 90.000000 255.000000
f 161/712 164/713 165/714
#fvcolorindex 7 61 62 
vt 0.006836 1.151367 0.0
vt -0.233398 1.169922 0.0
vt -0.163086 0.870117 0.0
v 8.000000 -36.829765 316.661285
#joint 33
#vjoint 166
#vcolor 104.000000 104.000000 104.000000 255.000000
v 8.000000 -52.829765 316.661285
#joint 33
#vjoint 167
f 162/715 166/716 167/717
#fvcolorindex 7 63 12 
vt 0.006836 1.151367 0.0
vt -0.163086 0.870117 0.0
vt 0.076172 0.851562 0.0
f 162/718 167/719 163/720
#fvcolorindex 7 12 60 
usemtl m61
vt 0.076172 0.851562 0.0
vt -0.163086 0.870117 0.0
vt 0.079102 0.332031 0.0
v 8.000000 -84.829765 308.661285
#joint 33
#vjoint 168
#vcolor 249.000000 249.000000 249.000000 255.000000
f 163/721 167/722 168/723
#fvcolorindex 60 12 64 
vt 0.076172 0.851562 0.0
vt 0.079102 0.332031 0.0
vt 0.318359 0.313477 0.0
f 163/724 168/725 164/726
#fvcolorindex 60 64 61 
usemtl m62
vt 0.079102 0.332031 0.0
vt 0.217773 -0.266602 0.0
vt 0.458008 -0.286133 0.0
v 8.000000 -116.829765 308.661285
#joint 33
#vjoint 169
f 168/727 169/728 165/729
#fvcolorindex 64 54 62 
vt 0.079102 0.332031 0.0
vt 0.458008 -0.286133 0.0
vt 0.318359 0.313477 0.0
f 168/730 165/731 164/732
#fvcolorindex 64 62 61 
usemtl m57
vt -0.750000 0.353516 0.0
vt -0.421875 -0.043945 0.0
vt -0.501953 0.031250 0.0
v 12.000000 -84.829765 348.661285
#joint 33
#vjoint 170
#vcolor 108.000000 108.000000 108.000000 255.000000
f 147/733 157/734 170/735
#fvcolorindex 7 7 65 
vt -0.750000 0.353516 0.0
vt -0.501953 0.031250 0.0
vt -0.709961 0.419922 0.0
f 147/736 170/737 149/738
#fvcolorindex 7 65 9 
usemtl m63
vt -0.501953 0.031250 0.0
vt -0.191406 0.214844 0.0
vt -0.330078 0.814453 0.0
v 12.000000 -84.829765 324.661285
#joint 33
#vjoint 171
f 170/739 171/740 154/741
#fvcolorindex 65 15 58 
vt -0.501953 0.031250 0.0
vt -0.330078 0.814453 0.0
vt -0.709961 0.419922 0.0
f 170/742 154/743 149/744
#fvcolorindex 65 58 9 
usemtl m64
vt -0.363281 -0.568359 0.0
vt -0.501953 0.031250 0.0
vt -0.421875 -0.043945 0.0
v 12.000000 -116.829765 348.661285
#joint 33
#vjoint 172
#vcolor 120.000000 120.000000 120.000000 255.000000
f 172/745 170/746 157/747
#fvcolorindex 66 65 7 
vt -0.363281 -0.568359 0.0
vt -0.421875 -0.043945 0.0
vt -0.283203 -0.643555 0.0
f 172/748 157/749 158/750
#fvcolorindex 66 7 7 
usemtl m65
vt -0.052734 -0.384766 0.0
vt -0.191406 0.214844 0.0
vt -0.501953 0.031250 0.0
v 12.000000 -116.829765 324.661285
#joint 33
#vjoint 173
f 173/751 171/752 170/753
#fvcolorindex 15 15 65 
vt -0.052734 -0.384766 0.0
vt -0.501953 0.031250 0.0
vt -0.363281 -0.568359 0.0
f 173/754 170/755 172/756
#fvcolorindex 15 65 66 
usemtl m66
vt -0.233398 1.169922 0.0
vt -0.365234 0.963867 0.0
vt -0.330078 0.814453 0.0
f 166/757 155/758 154/759
#fvcolorindex 63 59 58 
vt -0.233398 1.169922 0.0
vt -0.330078 0.814453 0.0
vt -0.163086 0.870117 0.0
f 166/760 154/761 167/762
#fvcolorindex 63 58 12 
usemtl m67
vt -0.163086 0.870117 0.0
vt -0.330078 0.814453 0.0
vt -0.191406 0.214844 0.0
f 167/763 154/764 171/765
#fvcolorindex 12 58 15 
vt -0.163086 0.870117 0.0
vt -0.191406 0.214844 0.0
vt 0.079102 0.332031 0.0
f 167/766 171/767 168/768
#fvcolorindex 12 15 64 
usemtl m62
vt 0.079102 0.332031 0.0
vt -0.191406 0.214844 0.0
vt -0.052734 -0.384766 0.0
f 168/769 171/770 173/771
#fvcolorindex 64 15 15 
vt 0.079102 0.332031 0.0
vt -0.052734 -0.384766 0.0
vt 0.217773 -0.266602 0.0
f 168/772 173/773 169/774
#fvcolorindex 64 15 54 
usemtl m57
vt -3.718750 -3.521484 0.0
vt -2.718750 -3.521484 0.0
vt -3.218750 -3.021484 0.0
f 147/775 146/776 157/777
#fvcolorindex 7 7 7 
vt -2.718750 -6.345703 0.0
vt -2.718750 -5.748047 0.0
vt -3.718750 -5.748047 0.0
f 143/778 144/779 140/780
#fvcolorindex 7 7 7 
vt -2.718750 -6.345703 0.0
vt -3.718750 -5.748047 0.0
vt -3.718750 -6.345703 0.0
f 143/781 140/782 139/783
#fvcolorindex 7 7 7 
vt -3.718750 -5.748047 0.0
vt -2.718750 -5.748047 0.0
vt -2.718750 -3.521484 0.0
f 140/784 144/785 146/786
#fvcolorindex 7 7 7 
vt -3.718750 -5.748047 0.0
vt -2.718750 -3.521484 0.0
vt -3.718750 -3.521484 0.0
f 140/787 146/788 147/789
#fvcolorindex 7 7 7 
usemtl m68
vt -0.365234 0.963867 0.0
vt -0.456055 1.118164 0.0
vt -0.905273 1.023438 0.0
v 16.000000 -36.829765 324.661285
#joint 33
#vjoint 174
#vcolor 168.000000 168.000000 168.000000 255.000000
v 16.000000 -28.829763 356.661285
#joint 33
#vjoint 175
#vcolor 69.000000 69.000000 69.000000 255.000000
f 155/790 174/791 175/792
#fvcolorindex 59 67 68 
vt -0.365234 0.963867 0.0
vt -0.905273 1.023438 0.0
vt -0.813477 0.869141 0.0
f 155/793 175/794 153/795
#fvcolorindex 59 68 57 
usemtl m57
vt 0.023438 1.081055 0.0
vt -0.003906 0.935547 0.0
vt -0.452148 0.840820 0.0
v -16.000000 -36.829765 324.661285
#joint 33
#vjoint 176
f 176/796 151/797 150/798
#fvcolorindex 7 7 7 
vt 0.023438 1.081055 0.0
vt -0.452148 0.840820 0.0
vt -0.425781 0.985352 0.0
v -16.000000 -28.829763 356.661285
#joint 33
#vjoint 177
f 176/799 150/800 177/801
#fvcolorindex 7 7 7 
vt -0.003906 0.935547 0.0
vt 0.023438 1.081055 0.0
vt 0.006836 1.151367 0.0
f 151/802 176/803 162/804
#fvcolorindex 7 7 7 
vt -0.452148 0.840820 0.0
vt -0.348633 0.391602 0.0
vt -0.650391 0.431641 0.0
f 150/805 148/806 145/807
#fvcolorindex 7 7 6 
vt -0.452148 0.840820 0.0
vt -0.650391 0.431641 0.0
vt -0.768555 0.943359 0.0
v 0.000000 -28.829763 364.661285
#joint 33
#vjoint 178
f 150/808 145/809 178/810
#fvcolorindex 7 6 7 
vt -0.452148 0.840820 0.0
vt -0.768555 0.943359 0.0
vt -0.425781 0.985352 0.0
f 150/811 178/812 177/813
#fvcolorindex 7 7 7 
usemtl m68
vt -0.365234 0.963867 0.0
vt -0.233398 1.169922 0.0
vt -0.456055 1.118164 0.0
f 155/814 166/815 174/816
#fvcolorindex 59 63 67 
usemtl m57
vt -0.768555 0.943359 0.0
vt -0.650391 0.431641 0.0
vt -0.709961 0.419922 0.0
f 178/817 145/818 149/819
#fvcolorindex 7 7 9 
vt -0.768555 0.943359 0.0
vt -0.709961 0.419922 0.0
vt -0.813477 0.869141 0.0
f 178/820 149/821 153/822
#fvcolorindex 7 9 57 
usemtl m60
vt -0.813477 0.869141 0.0
vt -0.905273 1.023438 0.0
vt -0.768555 0.943359 0.0
f 153/823 175/824 178/825
#fvcolorindex 57 68 7 
usemtl m65
vt -0.052734 -0.384766 0.0
vt -0.191406 0.214844 0.0
vt -0.501953 0.031250 0.0
f 161/826 173/827 172/828
#fvcolorindex 15 15 65 
vt -0.052734 -0.384766 0.0
vt -0.501953 0.031250 0.0
vt -0.363281 -0.568359 0.0
f 161/829 172/830 159/831
#fvcolorindex 15 65 66 
vt -0.052734 -0.384766 0.0
vt 0.131836 -0.165039 0.0
vt 0.040039 0.232422 0.0
f 161/832 165/833 169/834
#fvcolorindex 15 3 3 
vt -0.052734 -0.384766 0.0
vt 0.040039 0.232422 0.0
vt -0.191406 0.214844 0.0
f 161/835 169/836 173/837
#fvcolorindex 15 3 15 
usemtl m63
vt -0.501953 0.031250 0.0
vt -0.535156 -0.333984 0.0
vt -0.363281 -0.568359 0.0
f 172/838 158/839 159/840
#fvcolorindex 65 3 66 
g Room06
g Room06_primary
usemtl m5
vt 0.000000 0.267578 0.0
vt 1.000000 0.210938 0.0
vt 1.000000 0.950195 0.0
v 35.000000 67.170235 175.661285
#joint 33
#vjoint 179
#vcolor 254.000000 254.000000 254.000000 255.000000
v 35.000000 91.170235 175.661285
#joint 33
#vjoint 180
v 23.000000 91.170235 175.661285
#joint 33
#vjoint 181
f 179/841 180/842 181/843
#fvcolorindex 69 69 69 
vt 0.000000 0.199219 0.0
vt 1.000000 1.000000 0.0
vt 1.000000 0.165039 0.0
v -35.000000 67.170235 175.661285
#joint 33
#vjoint 182
v -23.000000 91.170235 175.661285
#joint 33
#vjoint 183
v -35.000000 91.170235 175.661285
#joint 33
#vjoint 184
f 182/844 183/845 184/846
#fvcolorindex 69 69 69 
usemtl m42
vt 0.879395 -0.004883 0.0
vt 0.860352 1.011719 0.0
vt 0.803223 1.015625 0.0
v 35.000000 44.170235 677.661255
#joint 33
#vjoint 185
v 23.000000 56.170235 677.661255
#joint 33
#vjoint 186
v -23.000000 56.170235 677.661255
#joint 33
#vjoint 187
f 185/847 186/848 187/849
#fvcolorindex 69 69 69 
vt 0.879395 -0.004883 0.0
vt 0.803223 1.015625 0.0
vt 0.793457 0.000000 0.0
v -35.000000 44.170235 677.661255
#joint 33
#vjoint 188
f 185/850 187/851 188/852
#fvcolorindex 69 69 69 
usemtl m69
vt 0.631836 0.620117 0.0
vt 0.519531 0.667969 0.0
vt 0.518555 0.508789 0.0
v 11.000000 31.170237 914.661255
#joint 33
#vjoint 189
v 0.000000 36.170235 914.661255
#joint 33
#vjoint 190
v 0.000000 20.624426 914.330872
#joint 0
#vjoint 191
#vcolor 0.000000 0.000000 0.000000 255.000000
f 189/853 190/854 191/855
#fvcolorindex 69 69 70 
vt 0.678711 0.506836 0.0
vt 0.631836 0.620117 0.0
vt 0.518555 0.508789 0.0
v 15.000000 21.170237 914.661255
#joint 33
#vjoint 192
f 192/856 189/857 191/858
#fvcolorindex 69 69 70 
vt 0.631836 0.394531 0.0
vt 0.678711 0.506836 0.0
vt 0.518555 0.508789 0.0
v 11.000000 10.170237 914.661255
#joint 33
#vjoint 193
f 193/859 192/860 191/861
#fvcolorindex 69 69 70 
vt 0.518555 0.349609 0.0
vt 0.631836 0.394531 0.0
vt 0.518555 0.508789 0.0
v 0.000000 6.170237 914.661255
#joint 33
#vjoint 194
f 194/862 193/863 191/864
#fvcolorindex 69 69 70 
vt 0.405273 0.398438 0.0
vt 0.518555 0.349609 0.0
vt 0.518555 0.508789 0.0
v -11.000000 10.170237 914.661255
#joint 33
#vjoint 195
f 195/865 194/866 191/867
#fvcolorindex 69 69 70 
vt 0.359375 0.511719 0.0
vt 0.405273 0.398438 0.0
vt 0.518555 0.508789 0.0
v -15.000000 21.170237 914.661255
#joint 33
#vjoint 196
f 196/868 195/869 191/870
#fvcolorindex 69 69 70 
vt 0.406250 0.623047 0.0
vt 0.359375 0.511719 0.0
vt 0.518555 0.508789 0.0
v -11.000000 31.170237 914.661255
#joint 33
#vjoint 197
f 197/871 196/872 191/873
#fvcolorindex 69 69 70 
vt 0.519531 0.667969 0.0
vt 0.406250 0.623047 0.0
vt 0.518555 0.508789 0.0
f 190/874 197/875 191/876
#fvcolorindex 69 69 70 
g Room08
g Room08_primary
usemtl m70
vt 0.828125 0.996094 0.0
vt 0.962891 0.000000 0.0
vt 0.000000 0.000000 0.0
v 237.357391 -106.901825 257.916046
#joint 39
#vjoint 198
#vcolor 254.000000 254.000000 254.000000 255.000000
v 237.357391 -130.901825 175.916046
#joint 39
#vjoint 199
v 237.357391 -57.901829 165.916046
#joint 39
#vjoint 200
f 198/877 199/878 200/879
#fvcolorindex 71 71 71 
vt 0.828125 0.996094 0.0
vt 0.000000 0.000000 0.0
vt 0.134766 0.957031 0.0
v 237.357391 -50.901829 246.916046
#joint 39
#vjoint 201
f 198/880 200/881 201/882
#fvcolorindex 71 71 71 
vt 0.815430 0.987305 0.0
vt -0.042969 0.987305 0.0
vt 0.000000 0.000000 0.0
v 237.357391 -176.901825 280.916046
#joint 39
#vjoint 202
v 237.357391 -200.901825 199.916046
#joint 39
#vjoint 203
f 198/883 202/884 203/885
#fvcolorindex 71 71 71 
vt 0.815430 0.987305 0.0
vt 0.000000 0.000000 0.0
vt 0.858398 0.000000 0.0
f 198/886 203/887 199/888
#fvcolorindex 71 71 71 
vt 0.000000 -0.405273 0.0
vt 1.282227 -0.405273 0.0
vt 1.282227 0.000000 0.0
v 214.357391 -106.901825 257.916046
#joint 39
#vjoint 204
f 202/889 198/890 204/891
#fvcolorindex 71 71 71 
vt 0.000000 -0.405273 0.0
vt 1.282227 0.000000 0.0
vt 0.000000 0.000000 0.0
v 214.357391 -176.901825 280.916046
#joint 39
#vjoint 205
f 202/892 204/893 205/894
#fvcolorindex 71 71 71 
vt 0.000000 -1.009766 0.0
vt 0.277344 -1.009766 0.0
vt 0.277344 0.000000 0.0
v 214.357391 -200.901825 199.916046
#joint 39
#vjoint 206
f 206/895 203/896 202/897
#fvcolorindex 71 71 71 
vt 0.000000 -1.009766 0.0
vt 0.277344 0.000000 0.0
vt 0.000000 0.000000 0.0
f 206/898 202/899 205/900
#fvcolorindex 71 71 71 
vt 1.000000 0.000000 0.0
vt 0.000000 0.000000 0.0
vt 0.000000 -0.392578 0.0
v 214.357391 -50.901829 246.916046
#joint 39
#vjoint 207
f 207/901 204/902 198/903
#fvcolorindex 71 71 71 
vt 1.000000 0.000000 0.0
vt 0.000000 -0.392578 0.0
vt 1.000000 -0.392578 0.0
f 207/904 198/905 201/906
#fvcolorindex 71 71 71 
vt -0.032227 0.333008 0.0
vt -0.032227 0.000000 0.0
vt 1.021484 0.000000 0.0
v 214.357391 -130.901825 175.916046
#joint 39
#vjoint 208
f 208/907 199/908 203/909
#fvcolorindex 71 71 71 
vt -0.032227 0.333008 0.0
vt 1.021484 0.000000 0.0
vt 1.021484 0.333008 0.0
f 208/910 203/911 206/912
#fvcolorindex 71 71 71 
vt 0.000000 0.333008 0.0
vt 0.000000 0.000000 0.0
vt 1.175781 0.000000 0.0
v 214.357391 -57.901829 165.916046
#joint 39
#vjoint 209
f 209/913 200/914 199/915
#fvcolorindex 71 71 71 
vt 0.000000 0.333008 0.0
vt 1.175781 0.000000 0.0
vt 1.175781 0.333008 0.0
f 209/916 199/917 208/918
#fvcolorindex 71 71 71 
vt 0.000000 0.000000 0.0
vt 1.000000 0.000000 0.0
vt 1.000000 1.000000 0.0
f 209/919 208/920 204/921
#fvcolorindex 71 71 71 
vt 0.000000 0.000000 0.0
vt 1.000000 1.000000 0.0
vt 0.274414 0.960938 0.0
f 209/922 204/923 207/924
#fvcolorindex 71 71 71 
vt 0.000000 0.000000 0.0
vt 0.000000 1.000000 0.0
vt 1.000000 1.000000 0.0
f 206/925 205/926 204/927
#fvcolorindex 71 71 71 
vt 0.000000 0.000000 0.0
vt 1.000000 1.000000 0.0
vt 1.000000 0.000000 0.0
f 206/928 204/929 208/930
#fvcolorindex 71 71 71 
g Room0A
g Room0A_primary
vt 0.828125 0.996094 0.0
vt 0.962891 0.000000 0.0
vt 0.000000 0.000000 0.0
v 12.000000 -106.901833 257.916016
#joint 38
#vjoint 210
#vcolor 254.000000 254.000000 254.000000 255.000000
v 12.000000 -130.901825 175.916031
#joint 38
#vjoint 211
v 12.000000 -57.901833 165.916031
#joint 38
#vjoint 212
f 210/931 211/932 212/933
#fvcolorindex 72 72 72 
vt 0.828125 0.996094 0.0
vt 0.000000 0.000000 0.0
vt 0.134766 0.957031 0.0
v 12.000000 -50.901833 246.916031
#joint 38
#vjoint 213
f 210/934 212/935 213/936
#fvcolorindex 72 72 72 
vt 0.815430 0.987305 0.0
vt -0.042969 0.987305 0.0
vt 0.000000 0.000000 0.0
v 12.000000 -176.901825 280.916016
#joint 38
#vjoint 214
v 12.000000 -200.901825 199.916031
#joint 38
#vjoint 215
f 210/937 214/938 215/939
#fvcolorindex 72 72 72 
vt 0.815430 0.987305 0.0
vt 0.000000 0.000000 0.0
vt 0.858398 0.000000 0.0
f 210/940 215/941 211/942
#fvcolorindex 72 72 72 
vt 0.000000 -0.405273 0.0
vt 1.282227 -0.405273 0.0
vt 1.282227 0.000000 0.0
v -12.000000 -106.901833 257.916016
#joint 38
#vjoint 216
f 214/943 210/944 216/945
#fvcolorindex 72 72 72 
vt 0.000000 -0.405273 0.0
vt 1.282227 0.000000 0.0
vt 0.000000 0.000000 0.0
v -12.000000 -176.901825 280.916016
#joint 38
#vjoint 217
f 214/946 216/947 217/948
#fvcolorindex 72 72 72 
vt 0.000000 -1.009766 0.0
vt 0.277344 -1.009766 0.0
vt 0.277344 0.000000 0.0
v -12.000000 -200.901825 199.916031
#joint 38
#vjoint 218
f 218/949 215/950 214/951
#fvcolorindex 72 72 72 
vt 0.000000 -1.009766 0.0
vt 0.277344 0.000000 0.0
vt 0.000000 0.000000 0.0
f 218/952 214/953 217/954
#fvcolorindex 72 72 72 
vt 1.000000 0.000000 0.0
vt 0.000000 0.000000 0.0
vt 0.000000 -0.392578 0.0
v -12.000000 -50.901833 246.916031
#joint 38
#vjoint 219
f 219/955 216/956 210/957
#fvcolorindex 72 72 72 
vt 1.000000 0.000000 0.0
vt 0.000000 -0.392578 0.0
vt 1.000000 -0.392578 0.0
f 219/958 210/959 213/960
#fvcolorindex 72 72 72 
vt -0.032227 0.333008 0.0
vt -0.032227 0.000000 0.0
vt 1.021484 0.000000 0.0
v -12.000000 -130.901825 175.916031
#joint 38
#vjoint 220
f 220/961 211/962 215/963
#fvcolorindex 72 72 72 
vt -0.032227 0.333008 0.0
vt 1.021484 0.000000 0.0
vt 1.021484 0.333008 0.0
f 220/964 215/965 218/966
#fvcolorindex 72 72 72 
vt 0.000000 0.333008 0.0
vt 0.000000 0.000000 0.0
vt 1.175781 0.000000 0.0
v -12.000000 -57.901833 165.916031
#joint 38
#vjoint 221
f 221/967 212/968 211/969
#fvcolorindex 72 72 72 
vt 0.000000 0.333008 0.0
vt 1.175781 0.000000 0.0
vt 1.175781 0.333008 0.0
f 221/970 211/971 220/972
#fvcolorindex 72 72 72 
vt 0.000000 0.000000 0.0
vt 1.000000 0.000000 0.0
vt 1.000000 1.000000 0.0
f 221/973 220/974 216/975
#fvcolorindex 72 72 72 
vt 0.000000 0.000000 0.0
vt 1.000000 1.000000 0.0
vt 0.274414 0.960938 0.0
f 221/976 216/977 219/978
#fvcolorindex 72 72 72 
vt 0.000000 0.000000 0.0
vt 0.000000 1.000000 0.0
vt 1.000000 1.000000 0.0
f 218/979 217/980 216/981
#fvcolorindex 72 72 72 
vt 0.000000 0.000000 0.0
vt 1.000000 1.000000 0.0
vt 1.000000 0.000000 0.0
f 218/982 216/983 220/984
#fvcolorindex 72 72 72 
