# Created by SubDrag and the GoldenEye Setup Editor V4.4
mtllib Gun0015.mtl
#joint 0
#jointposition 0.000000 -20.375574 18.722727
#joint 1
#jointposition -0.126130 -34.500000 -403.726105
#joint 2
#jointposition 0.000000 -20.375574 -74.143860
#joint 3
#jointposition 28.404760 -54.346611 -32.664295
#joint 4
#jointposition 50.075203 -78.841194 -10.664248
#joint 5
#jointposition 28.643808 -16.714527 20.778549
#joint 6
#jointposition 26.518341 -24.155291 60.154758
#joint 7
#jointposition 24.862719 -25.637974 87.085503
#joint 8
#jointposition 8.820322 -11.296313 21.695198
#joint 9
#jointposition 8.668717 -23.348385 71.418152
#joint 10
#jointposition 7.570724 -26.182207 98.349426
#joint 11
#jointposition -7.449821 -15.536673 21.601517
#joint 12
#jointposition -6.777197 -21.532187 62.353848
#joint 13
#jointposition -6.290760 -23.494061 85.077034
#joint 14
#jointposition -23.590879 -23.057791 21.828247
#joint 15
#jointposition -21.894306 -25.130569 56.929543
#joint 16
#jointposition -20.740978 -24.727604 74.077179
#joint 17
#jointposition 234.474915 -34.500000 -403.726013
#joint 18
#jointposition 234.348785 -20.375599 -74.143921
#joint 19
#jointposition 205.943985 -54.346600 -32.664322
#joint 20
#jointposition 184.273590 -78.841202 -10.664223
#joint 21
#jointposition 205.704987 -16.714600 20.778481
#joint 22
#jointposition 207.830490 -24.155300 60.154781
#joint 23
#jointposition 209.561584 -25.811800 87.094780
#joint 24
#jointposition 225.528473 -11.296299 21.695183
#joint 25
#jointposition 225.680069 -23.348400 71.418083
#joint 26
#jointposition 226.778076 -26.182199 98.349380
#joint 27
#jointposition 241.798599 -15.536699 21.601479
#joint 28
#jointposition 241.125977 -21.532200 62.353779
#joint 29
#jointposition 240.639542 -23.494101 85.076981
#joint 30
#jointposition 257.939697 -23.057798 21.828178
#joint 31
#jointposition 256.243103 -25.130598 56.929478
#joint 32
#jointposition 255.089798 -24.727598 74.077179
#joint 33
#jointposition 55.097855 -1.806856 -183.492020
#joint 34
#jointposition 26.367647 62.938988 -177.582520
#joint 35
#jointposition 55.097855 62.521385 633.386230
#joint 36
#jointposition 45.351700 245.156097 -183.624268
#joint 37
#jointposition 26.715389 237.985550 -183.624268
#joint 38
#jointposition 12.644939 223.537979 -183.608902
#joint 39
#jointposition 4.992878 205.211548 -183.624268
#joint 40
#jointposition 54.849785 74.813850 -363.154358
#joint 41
#jointposition 221.170105 23.456596 216.542145
#connection 0 1
#connection 1 2
#connection 2 3
#connection 3 4
#connection 2 5
#connection 5 6
#connection 6 7
#connection 2 8
#connection 8 9
#connection 9 10
#connection 2 11
#connection 11 12
#connection 12 13
#connection 2 14
#connection 14 15
#connection 15 16
#connection 2 33
#connection 33 34
#connection 33 35
#connection 33 39
#connection 39 38
#connection 38 37
#connection 37 36
#connection 33 40
#connection 0 17
#connection 17 18
#connection 18 19
#connection 19 20
#connection 18 21
#connection 21 22
#connection 22 23
#connection 18 24
#connection 24 25
#connection 25 26
#connection 18 27
#connection 27 28
#connection 28 29
#connection 18 30
#connection 30 31
#connection 31 32
#connection 18 41
g Room01
g Room01_primary
usemtl m0
vt 0.589844 0.764648 0.0
vt 0.021484 0.387695 0.0
vt 0.209961 0.104492 0.0
v 67.097855 75.193146 91.507980
#joint 33
#vjoint 1
#vcolor 215.000000 215.000000 215.000000 255.000000
v 67.097855 75.193146 163.507980
#joint 33
#vjoint 2
v 67.097855 39.193146 163.507980
#joint 33
#vjoint 3
f 1/1 2/2 3/3
#fvcolorindex 1 1 1 
vt 0.589844 0.764648 0.0
vt 0.209961 0.104492 0.0
vt 0.588867 0.355469 0.0
v 67.097855 39.193146 115.507980
#joint 33
#vjoint 4
f 1/4 3/5 4/6
#fvcolorindex 1 1 1 
usemtl m1
vt 0.000000 -0.064453 0.0
vt 1.000000 -0.064453 0.0
vt 1.000000 0.269531 0.0
#vcolor 249.000000 249.000000 249.000000 255.000000
v 43.097855 75.193146 91.507980
#joint 33
#vjoint 5
f 2/7 1/8 5/9
#fvcolorindex 2 2 2 
vt 0.000000 -0.064453 0.0
vt 1.000000 0.269531 0.0
vt 0.000000 0.269531 0.0
v 43.097855 75.193146 163.507980
#joint 33
#vjoint 6
f 2/10 5/11 6/12
#fvcolorindex 2 2 2 
usemtl m2
vt 0.410156 0.373047 0.0
vt 0.674805 0.523438 0.0
vt 0.617188 0.775391 0.0
v 43.097855 39.193146 115.507980
#joint 33
#vjoint 7
#vcolor 67.000000 67.000000 67.000000 255.000000
v 43.097855 39.193146 163.507980
#joint 33
#vjoint 8
f 7/13 8/14 6/15
#fvcolorindex 3 3 3 
vt 0.410156 0.373047 0.0
vt 0.617188 0.775391 0.0
vt 0.220703 0.549805 0.0
f 7/16 6/17 5/18
#fvcolorindex 3 3 3 
vt 1.096680 0.302734 0.0
vt 0.653320 0.885742 0.0
vt 0.185547 0.556641 0.0
f 3/19 2/20 6/21
#fvcolorindex 3 3 3 
vt 1.096680 0.302734 0.0
vt 0.185547 0.556641 0.0
vt 0.629883 -0.026367 0.0
f 3/22 6/23 8/24
#fvcolorindex 3 3 3 
usemtl m0
vt 0.864258 0.002930 0.0
vt 0.670898 0.804688 0.0
vt 0.517578 0.216797 0.0
v 67.097855 15.193144 91.507980
#joint 33
#vjoint 9
f 9/25 1/26 4/27
#fvcolorindex 1 1 1 
usemtl m2
vt 0.410156 0.373047 0.0
vt 0.220703 0.549805 0.0
vt 0.316406 0.129883 0.0
v 43.097855 15.193144 91.507980
#joint 33
#vjoint 10
f 7/28 5/29 10/30
#fvcolorindex 3 3 3 
usemtl m3
vt 0.894531 0.744141 0.0
vt 0.886719 0.912109 0.0
vt 0.105469 0.458008 0.0
v 84.097855 63.193146 -220.492020
#joint 33
#vjoint 11
#vcolor 221.000000 221.000000 221.000000 255.000000
v 82.097855 74.193146 -220.492020
#joint 33
#vjoint 12
#vcolor 254.000000 254.000000 254.000000 255.000000
v 82.097855 74.193146 -136.492020
#joint 33
#vjoint 13
f 11/31 12/32 13/33
#fvcolorindex 4 5 5 
vt 0.894531 0.744141 0.0
vt 0.105469 0.458008 0.0
vt 0.113281 0.290039 0.0
v 84.097855 63.193146 -136.492020
#joint 33
#vjoint 14
f 11/34 13/35 14/36
#fvcolorindex 4 5 4 
usemtl m4
vt 0.119141 0.161133 0.0
vt 0.901367 0.615234 0.0
vt 0.894531 0.744141 0.0
v 82.097855 52.193146 -136.492020
#joint 33
#vjoint 15
#vcolor 148.000000 148.000000 148.000000 255.000000
v 82.097855 52.193146 -220.492020
#joint 33
#vjoint 16
f 15/37 16/38 11/39
#fvcolorindex 6 6 4 
vt 0.119141 0.161133 0.0
vt 0.894531 0.744141 0.0
vt 0.113281 0.290039 0.0
f 15/40 11/41 14/42
#fvcolorindex 6 4 4 
usemtl m5
vt 0.123047 0.090820 0.0
vt 0.904297 0.544922 0.0
vt 0.901367 0.615234 0.0
v 75.097855 43.193146 -136.492020
#joint 33
#vjoint 17
#vcolor 104.000000 104.000000 104.000000 255.000000
v 75.097855 43.193146 -220.492020
#joint 33
#vjoint 18
f 17/43 18/44 16/45
#fvcolorindex 7 7 6 
vt 0.123047 0.090820 0.0
vt 0.901367 0.615234 0.0
vt 0.119141 0.161133 0.0
f 17/46 16/47 15/48
#fvcolorindex 7 6 6 
usemtl m6
vt 0.105469 0.458008 0.0
vt 0.886719 0.912109 0.0
vt 0.877930 1.094727 0.0
v 75.097855 83.193146 -220.492020
#joint 33
#vjoint 19
f 13/49 12/50 19/51
#fvcolorindex 5 5 5 
vt 0.105469 0.458008 0.0
vt 0.877930 1.094727 0.0
vt 0.096680 0.640625 0.0
v 75.097855 83.193146 -136.492020
#joint 33
#vjoint 20
f 13/52 19/53 20/54
#fvcolorindex 5 5 5 
vt 0.096680 0.640625 0.0
vt 0.877930 1.094727 0.0
vt 0.886719 0.912109 0.0
v 35.097855 83.193146 -136.492020
#joint 33
#vjoint 21
v 35.097855 83.193146 -220.492020
#joint 33
#vjoint 22
v 28.097855 74.193146 -220.492020
#joint 33
#vjoint 23
f 21/55 22/56 23/57
#fvcolorindex 5 5 5 
vt 0.096680 0.640625 0.0
vt 0.886719 0.912109 0.0
vt 0.105469 0.458008 0.0
v 28.097855 74.193146 -136.492020
#joint 33
#vjoint 24
f 21/58 23/59 24/60
#fvcolorindex 5 5 5 
usemtl m4
vt 0.119141 0.161133 0.0
vt 0.901367 0.615234 0.0
vt 0.904297 0.544922 0.0
v 28.097855 52.193146 -136.492020
#joint 33
#vjoint 25
v 28.097855 52.193146 -220.492020
#joint 33
#vjoint 26
v 35.097855 43.193146 -220.492020
#joint 33
#vjoint 27
f 25/61 26/62 27/63
#fvcolorindex 6 6 7 
vt 0.119141 0.161133 0.0
vt 0.904297 0.544922 0.0
vt 0.123047 0.090820 0.0
v 35.097855 43.193146 -136.492020
#joint 33
#vjoint 28
f 25/64 27/65 28/66
#fvcolorindex 6 7 3 
usemtl m3
vt 0.113281 0.290039 0.0
vt 0.894531 0.744141 0.0
vt 0.901367 0.615234 0.0
v 26.097855 63.193146 -136.492020
#joint 33
#vjoint 29
v 26.097855 63.193146 -220.492020
#joint 33
#vjoint 30
f 29/67 30/68 26/69
#fvcolorindex 4 4 6 
vt 0.113281 0.290039 0.0
vt 0.901367 0.615234 0.0
vt 0.119141 0.161133 0.0
f 29/70 26/71 25/72
#fvcolorindex 4 6 6 
vt 0.113281 0.290039 0.0
vt 0.105469 0.458008 0.0
vt 0.886719 0.912109 0.0
f 29/73 24/74 23/75
#fvcolorindex 4 5 5 
vt 0.113281 0.290039 0.0
vt 0.886719 0.912109 0.0
vt 0.894531 0.744141 0.0
f 29/76 23/77 30/78
#fvcolorindex 4 5 4 
usemtl m6
vt 0.806641 0.853516 0.0
vt 0.011719 0.409180 0.0
vt 0.057617 0.333008 0.0
v 55.097855 92.193146 463.507996
#joint 33
#vjoint 31
v 55.097855 92.193146 632.507996
#joint 33
#vjoint 32
v 80.097855 78.193146 632.507996
#joint 33
#vjoint 33
f 31/79 32/80 33/81
#fvcolorindex 5 5 5 
vt 0.806641 0.853516 0.0
vt 0.057617 0.333008 0.0
vt 0.852539 0.777344 0.0
v 80.097855 78.193146 463.507996
#joint 33
#vjoint 34
f 31/82 33/83 34/84
#fvcolorindex 5 5 5 
usemtl m2
vt 0.852539 0.777344 0.0
vt 0.057617 0.333008 0.0
vt 0.011719 0.409180 0.0
v 30.097855 78.193146 463.507996
#joint 33
#vjoint 35
v 30.097855 78.193146 632.507996
#joint 33
#vjoint 36
f 35/85 36/86 32/87
#fvcolorindex 3 3 5 
vt 0.852539 0.777344 0.0
vt 0.011719 0.409180 0.0
vt 0.806641 0.853516 0.0
f 35/88 32/89 31/90
#fvcolorindex 3 5 5 
vt 0.944336 0.625000 0.0
vt 0.148438 0.179688 0.0
vt 0.057617 0.333008 0.0
v 30.097855 49.193146 463.507996
#joint 33
#vjoint 37
v 30.097855 49.193146 632.507996
#joint 33
#vjoint 38
f 37/91 38/92 36/93
#fvcolorindex 3 3 3 
vt 0.944336 0.625000 0.0
vt 0.057617 0.333008 0.0
vt 0.852539 0.777344 0.0
f 37/94 36/95 35/96
#fvcolorindex 3 3 3 
vt 0.990234 0.548828 0.0
vt 0.194336 0.103516 0.0
vt 0.148438 0.179688 0.0
v 55.097855 34.193146 463.507996
#joint 33
#vjoint 39
v 55.097855 34.193146 632.507996
#joint 33
#vjoint 40
f 39/97 40/98 38/99
#fvcolorindex 3 3 3 
vt 0.990234 0.548828 0.0
vt 0.148438 0.179688 0.0
vt 0.944336 0.625000 0.0
f 39/100 38/101 37/102
#fvcolorindex 3 3 3 
usemtl m7
vt 0.944336 0.625000 0.0
vt 0.148438 0.179688 0.0
vt 0.194336 0.103516 0.0
v 80.097855 49.193146 463.507996
#joint 33
#vjoint 41
#vcolor 79.000000 79.000000 79.000000 255.000000
v 80.097855 49.193146 632.507996
#joint 33
#vjoint 42
f 41/103 42/104 40/105
#fvcolorindex 8 8 3 
vt 0.944336 0.625000 0.0
vt 0.194336 0.103516 0.0
vt 0.990234 0.548828 0.0
f 41/106 40/107 39/108
#fvcolorindex 8 3 3 
usemtl m6
vt 0.852539 0.777344 0.0
vt 0.057617 0.333008 0.0
vt 0.148438 0.179688 0.0
f 34/109 33/110 42/111
#fvcolorindex 5 5 8 
vt 0.852539 0.777344 0.0
vt 0.148438 0.179688 0.0
vt 0.944336 0.625000 0.0
f 34/112 42/113 41/114
#fvcolorindex 5 8 8 
usemtl m8
vt 0.944336 0.625000 0.0
vt 0.852539 0.777344 0.0
vt 0.806641 0.853516 0.0
#vcolor 73.000000 73.000000 73.000000 255.000000
f 37/115 35/116 31/117
#fvcolorindex 9 9 9 
vt 0.944336 0.625000 0.0
vt 0.806641 0.853516 0.0
vt 0.852539 0.777344 0.0
f 37/118 31/119 34/120
#fvcolorindex 9 9 9 
vt 0.944336 0.625000 0.0
vt 0.852539 0.777344 0.0
vt 0.944336 0.625000 0.0
f 37/121 34/122 41/123
#fvcolorindex 9 9 9 
vt 0.944336 0.625000 0.0
vt 0.944336 0.625000 0.0
vt 0.990234 0.548828 0.0
f 37/124 41/125 39/126
#fvcolorindex 9 9 9 
usemtl m9
vt 0.000000 0.497070 0.0
vt 0.500000 0.497070 0.0
vt 0.038086 0.687500 0.0
v 91.097855 195.193146 -184.492020
#joint 33
#vjoint 43
#vcolor 27.000000 27.000000 27.000000 255.000000
v 55.097855 195.193146 -184.492020
#joint 33
#vjoint 44
v 89.097855 209.193146 -184.492020
#joint 33
#vjoint 45
f 43/127 44/128 45/129
#fvcolorindex 10 5 10 
usemtl m10
vt 0.500000 0.497070 0.0
vt 0.147461 0.848633 0.0
vt 0.038086 0.687500 0.0
v 81.097855 221.193146 -184.492020
#joint 33
#vjoint 46
f 44/130 46/131 45/132
#fvcolorindex 5 10 10 
vt 0.500000 0.497070 0.0
vt 0.309570 0.956055 0.0
vt 0.147461 0.848633 0.0
v 69.097855 228.193146 -184.492020
#joint 33
#vjoint 47
f 44/133 47/134 46/135
#fvcolorindex 5 10 10 
vt 0.500000 0.497070 0.0
vt 0.501953 0.994141 0.0
vt 0.309570 0.956055 0.0
v 55.097855 231.193146 -184.492020
#joint 33
#vjoint 48
f 44/136 48/137 47/138
#fvcolorindex 5 10 10 
vt 0.500000 0.497070 0.0
vt 0.693359 0.956055 0.0
vt 0.501953 0.994141 0.0
v 41.097855 228.193146 -184.492020
#joint 33
#vjoint 49
f 44/139 49/140 48/141
#fvcolorindex 5 10 10 
vt 0.500000 0.497070 0.0
vt 0.855469 0.848633 0.0
vt 0.693359 0.956055 0.0
v 30.097855 221.193146 -184.492020
#joint 33
#vjoint 50
f 44/142 50/143 49/144
#fvcolorindex 5 10 10 
vt 0.500000 0.497070 0.0
vt 0.962891 0.687500 0.0
vt 0.855469 0.848633 0.0
v 22.097855 209.193146 -184.492020
#joint 33
#vjoint 51
f 44/145 51/146 50/147
#fvcolorindex 5 10 10 
vt 0.500000 0.497070 0.0
vt 1.000000 0.497070 0.0
vt 0.962891 0.687500 0.0
v 19.097855 195.193146 -184.492020
#joint 33
#vjoint 52
f 44/148 52/149 51/150
#fvcolorindex 5 10 10 
usemtl m9
vt 0.000000 0.497070 0.0
vt 0.037109 0.306641 0.0
vt 0.500000 0.497070 0.0
v 89.097855 181.193146 -184.492020
#joint 33
#vjoint 53
f 43/151 53/152 44/153
#fvcolorindex 10 10 5 
vt 0.037109 0.306641 0.0
vt 0.144531 0.145508 0.0
vt 0.500000 0.497070 0.0
v 81.097855 169.193146 -184.492020
#joint 33
#vjoint 54
f 53/154 54/155 44/156
#fvcolorindex 10 10 5 
vt 0.144531 0.145508 0.0
vt 0.306641 0.037109 0.0
vt 0.500000 0.497070 0.0
v 69.097855 162.193146 -184.492020
#joint 33
#vjoint 55
f 54/157 55/158 44/159
#fvcolorindex 10 10 5 
vt 0.306641 0.037109 0.0
vt 0.498047 0.000000 0.0
vt 0.500000 0.497070 0.0
v 55.097855 159.193146 -184.492020
#joint 33
#vjoint 56
f 55/160 56/161 44/162
#fvcolorindex 10 10 5 
vt 0.498047 0.000000 0.0
vt 0.690430 0.037109 0.0
vt 0.500000 0.497070 0.0
v 41.097855 162.193146 -184.492020
#joint 33
#vjoint 57
f 56/163 57/164 44/165
#fvcolorindex 10 10 5 
vt 0.690430 0.037109 0.0
vt 0.852539 0.145508 0.0
vt 0.500000 0.497070 0.0
v 30.097855 169.193146 -184.492020
#joint 33
#vjoint 58
f 57/166 58/167 44/168
#fvcolorindex 10 10 5 
vt 0.852539 0.145508 0.0
vt 0.961914 0.306641 0.0
vt 0.500000 0.497070 0.0
v 22.097855 181.193146 -184.492020
#joint 33
#vjoint 59
f 58/169 59/170 44/171
#fvcolorindex 10 10 5 
vt 0.961914 0.306641 0.0
vt 1.000000 0.497070 0.0
vt 0.500000 0.497070 0.0
f 59/172 52/173 44/174
#fvcolorindex 10 10 5 
usemtl m11
vt 0.000000 0.000000 0.0
vt 1.000000 0.000000 0.0
vt 1.409180 2.988281 0.0
v 42.351700 229.156097 -38.624268
#joint 36
#vjoint 60
#vcolor 122.000000 122.000000 122.000000 255.000000
v 56.351700 232.156097 -38.624268
#joint 36
#vjoint 61
#vcolor 118.000000 118.000000 118.000000 255.000000
v 56.351700 261.156097 -7.624268
#joint 36
#vjoint 62
f 60/175 61/176 62/177
#fvcolorindex 11 12 12 
vt 0.000000 0.000000 0.0
vt 1.409180 2.988281 0.0
vt -0.409180 2.988281 0.0
v 31.351700 256.156097 -7.624268
#joint 36
#vjoint 63
f 60/178 62/179 63/180
#fvcolorindex 11 12 11 
usemtl m12
vt 0.000000 0.000000 0.0
vt 1.000000 0.000000 0.0
vt 1.409180 2.988281 0.0
v 29.715389 220.985550 -38.624268
#joint 37
#vjoint 64
#vcolor 133.000000 133.000000 133.000000 255.000000
v 40.715389 228.985550 -38.624268
#joint 37
#vjoint 65
v 29.715389 255.985550 -7.624268
#joint 37
#vjoint 66
f 64/181 65/182 66/183
#fvcolorindex 13 11 11 
vt 0.000000 0.000000 0.0
vt 1.409180 2.988281 0.0
vt -0.409180 2.988281 0.0
v 8.715389 241.985550 -7.624268
#joint 37
#vjoint 67
f 64/184 66/185 67/186
#fvcolorindex 13 11 13 
usemtl m13
vt 0.000000 0.000000 0.0
vt 1.000000 0.000000 0.0
vt 1.409180 2.988281 0.0
v 20.644939 208.537979 -38.608902
#joint 38
#vjoint 68
#vcolor 155.000000 155.000000 155.000000 255.000000
v 28.644939 220.537979 -38.608902
#joint 38
#vjoint 69
v 7.644939 241.537979 -7.608902
#joint 38
#vjoint 70
f 68/187 69/188 70/189
#fvcolorindex 14 13 13 
vt 0.000000 0.000000 0.0
vt 1.409180 2.988281 0.0
vt -0.409180 2.988281 0.0
v -6.355061 219.537979 -7.608902
#joint 38
#vjoint 71
f 68/190 70/191 71/192
#fvcolorindex 14 13 14 
usemtl m14
vt 0.000000 0.000000 0.0
vt 1.000000 0.000000 0.0
vt 1.409180 2.988281 0.0
v 18.992878 194.211548 -38.624268
#joint 39
#vjoint 72
#vcolor 170.000000 170.000000 170.000000 255.000000
v 20.992878 208.211548 -38.624268
#joint 39
#vjoint 73
v -6.007122 219.211548 -7.624268
#joint 39
#vjoint 74
f 72/193 73/194 74/195
#fvcolorindex 15 14 14 
vt 0.000000 0.000000 0.0
vt 1.409180 2.988281 0.0
vt -0.409180 2.988281 0.0
v -11.007122 194.211548 -7.624268
#joint 39
#vjoint 75
f 72/196 74/197 75/198
#fvcolorindex 15 14 15 
usemtl m15
vt 0.049805 1.056641 0.0
vt 0.049805 -1.325195 0.0
vt 0.997070 -0.001953 0.0
v 79.097855 111.193146 -124.492020
#joint 33
#vjoint 76
#vcolor 229.000000 229.000000 229.000000 255.000000
v 79.097855 111.193146 91.507980
#joint 33
#vjoint 77
v 79.097855 15.193144 -28.492020
#joint 33
#vjoint 78
f 76/199 77/200 78/201
#fvcolorindex 16 1 1 
usemtl m16
vt 0.539062 -0.458008 0.0
vt 0.539062 2.019531 0.0
vt 0.041992 2.972656 0.0
v 67.097855 135.193146 -124.492020
#joint 33
#vjoint 79
v 67.097855 135.193146 31.507980
#joint 33
#vjoint 80
f 79/202 80/203 77/204
#fvcolorindex 5 5 5 
vt 0.539062 -0.458008 0.0
vt 0.041992 2.972656 0.0
vt 0.041992 -0.458008 0.0
f 79/205 77/206 76/207
#fvcolorindex 5 5 16 
usemtl m15
vt 0.041992 -0.458008 0.0
vt 0.041992 2.972656 0.0
vt 0.539062 2.019531 0.0
v 31.097855 111.193146 -124.492020
#joint 33
#vjoint 81
v 31.097855 111.193146 91.507980
#joint 33
#vjoint 82
v 43.097855 135.193146 31.507980
#joint 33
#vjoint 83
f 81/208 82/209 83/210
#fvcolorindex 16 5 5 
vt 0.041992 -0.458008 0.0
vt 0.539062 2.019531 0.0
vt 0.539062 -0.458008 0.0
v 43.097855 135.193146 -124.492020
#joint 33
#vjoint 84
f 81/211 83/212 84/213
#fvcolorindex 16 5 5 
usemtl m17
vt 0.000000 -1.333008 0.0
vt 0.000000 0.847656 0.0
vt 0.487305 1.574219 0.0
v 55.097855 -8.806856 -52.492020
#joint 33
#vjoint 85
v 55.097855 -8.806856 -124.492020
#joint 33
#vjoint 86
#vcolor 161.000000 161.000000 161.000000 255.000000
v 67.097855 15.193144 -148.492020
#joint 33
#vjoint 87
f 85/214 86/215 87/216
#fvcolorindex 12 17 17 
vt 0.000000 -1.333008 0.0
vt 0.487305 1.574219 0.0
vt 0.487305 -2.059570 0.0
v 67.097855 15.193144 -28.492020
#joint 33
#vjoint 88
f 85/217 87/218 88/219
#fvcolorindex 12 17 12 
usemtl m18
vt 0.812500 -2.059570 0.0
vt 0.812500 1.574219 0.0
vt 0.000000 0.847656 0.0
v 43.097855 15.193144 -28.492020
#joint 33
#vjoint 89
v 43.097855 15.193144 -148.492020
#joint 33
#vjoint 90
f 89/220 90/221 86/222
#fvcolorindex 3 3 3 
vt 0.812500 -2.059570 0.0
vt 0.000000 0.847656 0.0
vt 0.000000 -1.333008 0.0
f 89/223 86/224 85/225
#fvcolorindex 3 3 3 
usemtl m19
vt 0.486328 -1.444336 0.0
vt 0.000000 -0.719727 0.0
vt 0.000000 0.005859 0.0
v 55.097855 -32.806854 -124.492020
#joint 33
#vjoint 91
#vcolor 193.000000 193.000000 193.000000 255.000000
f 87/226 86/227 91/228
#fvcolorindex 17 17 18 
vt 0.486328 -1.444336 0.0
vt 0.000000 0.005859 0.0
vt 0.486328 0.005859 0.0
v 67.097855 -32.806854 -148.492020
#joint 33
#vjoint 92
#vcolor 202.000000 202.000000 202.000000 255.000000
f 87/229 91/230 92/231
#fvcolorindex 17 18 19 
usemtl m18
vt 0.810547 0.005859 0.0
vt 0.000000 0.005859 0.0
vt 0.000000 -0.719727 0.0
v 43.097855 -32.806854 -148.492020
#joint 33
#vjoint 93
f 93/232 91/233 86/234
#fvcolorindex 3 3 3 
vt 0.810547 0.005859 0.0
vt 0.000000 -0.719727 0.0
vt 0.810547 -1.444336 0.0
f 93/235 86/236 90/237
#fvcolorindex 3 3 3 
usemtl m20EnvMappingTexScaleS0.031250TexScaleT0.031250
vt 0.000000 0.000000 0.0
vt 0.000000 0.000000 0.0
vt 0.000000 0.000000 0.0
v 65.097855 69.193146 163.507980
#joint 33
#vjoint 94
#vcolor 109.000000 63.000000 0.000000 255.000000
v 55.097855 75.193146 163.507980
#joint 33
#vjoint 95
#vcolor 0.000000 127.000000 0.000000 255.000000
v 55.097855 75.193146 463.507996
#joint 33
#vjoint 96
vn 0.858268 0.496063 0.000000
vn 0.000000 1.000000 0.000000
vn 0.000000 1.000000 0.000000
f 94/238/1 95/239/2 96/240/3
#fvcolorindex 20 21 21 
vt 0.000000 0.000000 0.0
vt 0.000000 0.000000 0.0
vt 0.000000 0.000000 0.0
v 65.097855 69.193146 463.507996
#joint 33
#vjoint 97
vn 0.858268 0.496063 0.000000
vn 0.000000 1.000000 0.000000
vn 0.858268 0.496063 0.000000
f 94/241/4 96/242/5 97/243/6
#fvcolorindex 20 21 20 
usemtl m21EnvMappingTexScaleS0.031250TexScaleT0.031250
vt 0.000000 0.000000 0.0
vt 0.000000 0.000000 0.0
vt 0.000000 0.000000 0.0
v 45.097855 69.193146 163.507980
#joint 33
#vjoint 98
#vcolor 147.000000 63.000000 0.000000 255.000000
v 45.097855 69.193146 463.507996
#joint 33
#vjoint 99
vn 0.000000 1.000000 0.000000
vn 1.157480 0.496063 0.000000
vn 1.157480 0.496063 0.000000
f 95/244/7 98/245/8 99/246/9
#fvcolorindex 21 22 22 
vt 0.000000 0.000000 0.0
vt 0.000000 0.000000 0.0
vt 0.000000 0.000000 0.0
vn 0.000000 1.000000 0.000000
vn 1.157480 0.496063 0.000000
vn 0.000000 1.000000 0.000000
f 95/247/10 99/248/11 96/249/12
#fvcolorindex 21 22 21 
usemtl m22EnvMappingTexScaleS0.031250TexScaleT0.031250
vt 0.000000 0.000000 0.0
vt 0.000000 0.000000 0.0
vt 0.000000 0.000000 0.0
v 45.097855 57.193146 163.507980
#joint 33
#vjoint 100
#vcolor 147.000000 193.000000 0.000000 255.000000
vn 1.157480 0.496063 0.000000
vn 1.157480 0.496063 0.000000
vn 1.157480 1.519685 0.000000
f 99/250/13 98/251/14 100/252/15
#fvcolorindex 22 22 23 
vt 0.000000 0.000000 0.0
vt 0.000000 0.000000 0.0
vt 0.000000 0.000000 0.0
v 45.097855 57.193146 463.507996
#joint 33
#vjoint 101
vn 1.157480 0.496063 0.000000
vn 1.157480 1.519685 0.000000
vn 1.157480 1.519685 0.000000
f 99/253/16 100/254/17 101/255/18
#fvcolorindex 22 23 23 
usemtl m23EnvMappingTexScaleS0.031250TexScaleT0.031250
vt 0.000000 0.000000 0.0
vt 0.000000 0.000000 0.0
vt 0.000000 0.000000 0.0
v 55.097855 51.193146 163.507980
#joint 33
#vjoint 102
#vcolor 0.000000 129.000000 0.000000 255.000000
vn 1.157480 1.519685 0.000000
vn 1.157480 1.519685 0.000000
vn 0.000000 1.015748 0.000000
f 101/256/19 100/257/20 102/258/21
#fvcolorindex 23 23 24 
vt 0.000000 0.000000 0.0
vt 0.000000 0.000000 0.0
vt 0.000000 0.000000 0.0
v 55.097855 51.193146 463.507996
#joint 33
#vjoint 103
vn 1.157480 1.519685 0.000000
vn 0.000000 1.015748 0.000000
vn 0.000000 1.015748 0.000000
f 101/259/22 102/260/23 103/261/24
#fvcolorindex 23 24 24 
usemtl m24EnvMappingTexScaleS0.031250TexScaleT0.031250
vt 0.000000 0.000000 0.0
vt 0.000000 0.000000 0.0
vt 0.000000 0.000000 0.0
v 65.097855 57.193146 163.507980
#joint 33
#vjoint 104
#vcolor 109.000000 193.000000 0.000000 255.000000
vn 0.000000 1.015748 0.000000
vn 0.000000 1.015748 0.000000
vn 0.858268 1.519685 0.000000
f 103/262/25 102/263/26 104/264/27
#fvcolorindex 24 24 25 
vt 0.000000 0.000000 0.0
vt 0.000000 0.000000 0.0
vt 0.000000 0.000000 0.0
v 65.097855 57.193146 463.507996
#joint 33
#vjoint 105
vn 0.000000 1.015748 0.000000
vn 0.858268 1.519685 0.000000
vn 0.858268 1.519685 0.000000
f 103/265/28 104/266/29 105/267/30
#fvcolorindex 24 25 25 
usemtl m25EnvMappingTexScaleS0.031250TexScaleT0.031250
vt 0.000000 0.000000 0.0
vt 0.000000 0.000000 0.0
vt 0.000000 0.000000 0.0
vn 0.858268 1.519685 0.000000
vn 0.858268 1.519685 0.000000
vn 0.858268 0.496063 0.000000
f 105/268/31 104/269/32 94/270/33
#fvcolorindex 25 25 20 
vt 0.000000 0.000000 0.0
vt 0.000000 0.000000 0.0
vt 0.000000 0.000000 0.0
vn 0.858268 1.519685 0.000000
vn 0.858268 0.496063 0.000000
vn 0.858268 0.496063 0.000000
f 105/271/34 94/272/35 97/273/36
#fvcolorindex 25 20 20 
usemtl m26
vt 0.500000 1.000000 0.0
vt 0.500000 0.380859 0.0
vt 0.711914 0.380859 0.0
v 91.097855 63.193146 -472.492004
#joint 33
#vjoint 106
#vcolor 116.000000 116.000000 116.000000 255.000000
v 91.097855 63.193146 -316.492004
#joint 33
#vjoint 107
v 86.097855 43.193146 -316.492004
#joint 33
#vjoint 108
f 106/274 107/275 108/276
#fvcolorindex 26 5 5 
vt 0.500000 1.000000 0.0
vt 0.711914 0.380859 0.0
vt 1.000000 1.000000 0.0
v 79.097855 15.193144 -472.492004
#joint 33
#vjoint 109
#vcolor 86.000000 86.000000 86.000000 255.000000
f 106/277 108/278 109/279
#fvcolorindex 26 5 27 
usemtl m27
vt 0.711914 0.380859 0.0
vt 1.000000 0.380859 0.0
vt 1.000000 1.000000 0.0
v 79.097855 15.193144 -316.492004
#joint 33
#vjoint 110
f 108/280 110/281 109/282
#fvcolorindex 5 5 27 
vt 0.711914 0.380859 0.0
vt 0.729492 0.380859 0.0
vt 1.000000 0.380859 0.0
v 79.097855 43.193146 -316.492004
#joint 33
#vjoint 111
f 108/283 111/284 110/285
#fvcolorindex 5 5 5 
vt 0.500000 0.380859 0.0
vt 0.500000 0.000000 0.0
vt 0.711914 0.000000 0.0
v 91.097855 63.193146 -220.492020
#joint 33
#vjoint 112
v 86.097855 43.193146 -220.492020
#joint 33
#vjoint 113
f 107/286 112/287 113/288
#fvcolorindex 5 26 5 
vt 0.500000 0.380859 0.0
vt 0.711914 0.000000 0.0
vt 0.711914 0.380859 0.0
f 107/289 113/290 108/291
#fvcolorindex 5 5 5 
vt 0.711914 0.000000 0.0
vt 1.000000 0.000000 0.0
vt 1.000000 0.380859 0.0
v 79.097855 43.193146 -220.492020
#joint 33
#vjoint 114
f 113/292 114/293 111/294
#fvcolorindex 5 3 5 
vt 0.711914 0.000000 0.0
vt 1.000000 0.380859 0.0
vt 0.711914 0.380859 0.0
f 113/295 111/296 108/297
#fvcolorindex 5 5 5 
usemtl m28
vt 0.048828 1.000000 0.0
vt 0.500000 0.380859 0.0
vt 0.500000 1.000000 0.0
v 79.097855 111.193146 -472.492004
#joint 33
#vjoint 115
#vcolor 242.000000 242.000000 242.000000 255.000000
f 115/298 107/299 106/300
#fvcolorindex 28 5 26 
vt 0.048828 1.000000 0.0
vt 0.048828 0.000000 0.0
vt 0.500000 0.000000 0.0
v 79.097855 111.193146 -220.492020
#joint 33
#vjoint 116
f 115/301 116/302 112/303
#fvcolorindex 28 28 26 
vt 0.048828 1.000000 0.0
vt 0.500000 0.000000 0.0
vt 0.500000 0.380859 0.0
f 115/304 112/305 107/306
#fvcolorindex 28 26 5 
usemtl m26
vt 0.500000 1.000000 0.0
vt 0.500000 0.380859 0.0
vt 0.048828 1.000000 0.0
v 19.097855 63.193146 -472.492004
#joint 33
#vjoint 117
v 19.097855 63.193146 -316.492004
#joint 33
#vjoint 118
v 31.097855 111.193146 -472.492004
#joint 33
#vjoint 119
f 117/307 118/308 119/309
#fvcolorindex 26 5 28 
usemtl m27
vt 0.500000 0.380859 0.0
vt 0.500000 0.000000 0.0
vt 0.048828 0.000000 0.0
v 19.097855 63.193146 -220.492020
#joint 33
#vjoint 120
v 31.097855 111.193146 -220.492020
#joint 33
#vjoint 121
f 118/310 120/311 121/312
#fvcolorindex 5 26 28 
vt 0.500000 0.380859 0.0
vt 0.048828 0.000000 0.0
vt 0.048828 1.000000 0.0
f 118/313 121/314 119/315
#fvcolorindex 5 28 28 
vt 0.711914 0.380859 0.0
vt 0.711914 0.000000 0.0
vt 0.500000 0.000000 0.0
v 24.097855 43.193146 -316.492004
#joint 33
#vjoint 122
v 24.097855 43.193146 -220.492020
#joint 33
#vjoint 123
f 122/316 123/317 120/318
#fvcolorindex 5 5 26 
vt 0.711914 0.380859 0.0
vt 0.500000 0.000000 0.0
vt 0.500000 0.380859 0.0
f 122/319 120/320 118/321
#fvcolorindex 5 26 5 
usemtl m29
vt 1.000000 1.000000 0.0
vt 0.711914 0.380859 0.0
vt 0.500000 0.380859 0.0
v 31.097855 15.193144 -472.492004
#joint 33
#vjoint 124
f 124/322 122/323 118/324
#fvcolorindex 27 5 5 
vt 1.000000 1.000000 0.0
vt 0.500000 0.380859 0.0
vt 0.500000 1.000000 0.0
f 124/325 118/326 117/327
#fvcolorindex 27 5 26 
usemtl m27
vt 1.000000 0.380859 0.0
vt 0.729492 0.380859 0.0
vt 0.711914 0.380859 0.0
v 31.097855 15.193144 -316.492004
#joint 33
#vjoint 125
v 31.097855 43.193146 -316.492004
#joint 33
#vjoint 126
f 125/328 126/329 122/330
#fvcolorindex 5 5 5 
vt 0.711914 0.380859 0.0
vt 1.000000 0.380859 0.0
vt 1.000000 0.000000 0.0
v 31.097855 43.193146 -220.492020
#joint 33
#vjoint 127
f 122/331 126/332 127/333
#fvcolorindex 5 5 3 
vt 0.711914 0.380859 0.0
vt 1.000000 0.000000 0.0
vt 0.711914 0.000000 0.0
f 122/334 127/335 123/336
#fvcolorindex 5 3 5 
usemtl m29
vt 1.000000 1.000000 0.0
vt 1.000000 0.380859 0.0
vt 0.711914 0.380859 0.0
f 124/337 125/338 122/339
#fvcolorindex 27 5 5 
usemtl m30CullBoth
vt 0.097656 1.014160 0.0
vt 0.659180 0.005371 0.0
vt 1.000000 0.000000 0.0
v 55.097855 -32.806854 -112.492020
#joint 33
#vjoint 128
f 86/340 91/341 128/342
#fvcolorindex 3 3 3 
vt 0.097656 1.014160 0.0
vt 1.000000 0.000000 0.0
vt 1.000000 1.000000 0.0
v 55.097855 -8.806856 -110.492020
#joint 33
#vjoint 129
f 86/343 128/344 129/345
#fvcolorindex 3 3 3 
usemtl m31
vt 0.782227 0.403320 0.0
vt 0.782227 0.676270 0.0
vt 0.982422 0.539551 0.0
v 79.097855 15.193144 -220.492020
#joint 33
#vjoint 130
v 79.097855 15.193144 -148.492020
#joint 33
#vjoint 131
v 67.097855 -8.806856 -184.492020
#joint 33
#vjoint 132
f 130/346 131/347 132/348
#fvcolorindex 3 3 3 
usemtl m32
vt 0.982422 0.099121 0.0
vt 1.246094 0.001953 0.0
vt 0.738281 0.000977 0.0
#vcolor 100.000000 100.000000 100.000000 255.000000
#vcolor 96.000000 96.000000 96.000000 255.000000
f 132/349 131/350 92/351
#fvcolorindex 29 3 30 
usemtl m33
vt 1.000000 0.077148 0.0
vt 1.000000 0.374512 0.0
vt 0.299805 0.434082 0.0
v 67.097855 -56.806854 -196.492020
#joint 33
#vjoint 133
f 133/352 132/353 92/354
#fvcolorindex 5 3 30 
vt 1.000000 0.077148 0.0
vt 0.299805 0.434082 0.0
vt 0.000000 0.077148 0.0
v 67.097855 -104.806854 -148.492020
#joint 33
#vjoint 134
f 133/355 92/356 134/357
#fvcolorindex 5 30 26 
usemtl m34
vt 0.000000 0.074219 0.0
vt 0.872070 0.556152 0.0
vt 0.089844 1.002930 0.0
v 67.097855 -104.806854 -220.492020
#joint 33
#vjoint 135
f 135/358 133/359 134/360
#fvcolorindex 26 5 26 
vt 0.612305 0.304688 0.0
vt 1.000000 0.080078 0.0
vt 0.000000 0.080078 0.0
v 67.097855 -44.806854 -244.492020
#joint 33
#vjoint 136
f 136/361 133/362 135/363
#fvcolorindex 26 5 26 
usemtl m33
vt 1.000000 0.080078 0.0
vt 0.612305 0.304688 0.0
vt 1.000000 0.438477 0.0
v 79.097855 -8.806856 -256.492004
#joint 33
#vjoint 137
f 133/364 136/365 137/366
#fvcolorindex 5 3 5 
vt 0.942383 0.266602 0.0
vt 0.782227 0.403320 0.0
vt 0.982422 0.539551 0.0
f 137/367 130/368 132/369
#fvcolorindex 5 3 3 
usemtl m31
vt 0.615234 1.048828 0.0
vt 1.000000 1.000000 0.0
vt 1.000000 0.241699 0.0
v 67.097855 -44.806854 -472.492004
#joint 33
#vjoint 138
v 79.097855 -8.806856 -472.492004
#joint 33
#vjoint 139
#vcolor 75.000000 75.000000 75.000000 255.000000
f 138/370 139/371 137/372
#fvcolorindex 3 31 5 
vt 0.615234 1.048828 0.0
vt 1.000000 0.241699 0.0
vt 0.615234 0.248047 0.0
f 138/373 137/374 136/375
#fvcolorindex 3 5 3 
vt -0.035156 0.194824 0.0
vt 0.579102 0.260742 0.0
vt 0.609375 0.260742 0.0
v 43.097855 -104.806854 -220.492020
#joint 33
#vjoint 140
v 43.097855 -44.806854 -244.492020
#joint 33
#vjoint 141
f 140/376 141/377 136/378
#fvcolorindex 3 3 3 
vt -0.035156 0.194824 0.0
vt 0.609375 0.260742 0.0
vt -0.003906 0.194824 0.0
f 140/379 136/380 135/381
#fvcolorindex 3 3 3 
vt 0.565430 0.878418 0.0
vt 0.595703 0.878418 0.0
vt 0.609375 0.260742 0.0
v 43.097855 -44.806854 -472.492004
#joint 33
#vjoint 142
f 142/382 138/383 136/384
#fvcolorindex 3 3 3 
vt 0.565430 0.878418 0.0
vt 0.609375 0.260742 0.0
vt 0.579102 0.260742 0.0
f 142/385 136/386 141/387
#fvcolorindex 3 3 3 
vt 0.565430 0.878418 0.0
vt 0.579102 0.260742 0.0
vt 0.931641 0.293945 0.0
v 31.097855 -8.806856 -256.492004
#joint 33
#vjoint 143
f 142/388 141/389 143/390
#fvcolorindex 3 3 3 
vt 0.565430 0.878418 0.0
vt 0.931641 0.293945 0.0
vt 0.918945 0.878906 0.0
v 31.097855 -8.806856 -472.492004
#joint 33
#vjoint 144
f 142/391 143/392 144/393
#fvcolorindex 3 3 3 
vt 0.931641 0.293945 0.0
vt 0.579102 0.260742 0.0
vt 0.458984 0.130859 0.0
v 43.097855 -56.806854 -196.492020
#joint 33
#vjoint 145
f 143/394 141/395 145/396
#fvcolorindex 3 3 3 
vt 0.458984 0.130859 0.0
vt 0.579102 0.260742 0.0
vt -0.035156 0.194824 0.0
f 145/397 141/398 140/399
#fvcolorindex 3 3 3 
vt -0.031250 0.000000 0.0
vt 0.458984 0.130859 0.0
vt -0.035156 0.194824 0.0
v 43.097855 -104.806854 -148.492020
#joint 33
#vjoint 146
f 146/400 145/401 140/402
#fvcolorindex 3 3 3 
vt 0.708008 0.000977 0.0
vt 0.458984 0.130859 0.0
vt -0.031250 0.000000 0.0
f 93/403 145/404 146/405
#fvcolorindex 3 3 3 
vt 0.952148 0.098633 0.0
vt 0.458984 0.130859 0.0
vt 0.708008 0.000977 0.0
v 43.097855 -8.806856 -184.492020
#joint 33
#vjoint 147
f 147/406 145/407 93/408
#fvcolorindex 3 3 3 
vt 0.952148 0.098633 0.0
vt 0.708008 0.000977 0.0
vt 1.184570 0.001465 0.0
v 31.097855 15.193144 -148.492020
#joint 33
#vjoint 148
f 147/409 93/410 148/411
#fvcolorindex 3 3 3 
vt 0.942383 0.403320 0.0
vt 1.062500 0.539551 0.0
vt 0.942383 0.676270 0.0
v 31.097855 15.193144 -220.492020
#joint 33
#vjoint 149
f 149/412 147/413 148/414
#fvcolorindex 3 3 3 
vt 1.103516 0.266602 0.0
vt 1.062500 0.539551 0.0
vt 0.942383 0.403320 0.0
f 143/415 147/416 149/417
#fvcolorindex 3 3 3 
usemtl m33
vt 0.981445 0.000000 0.0
vt 0.000000 0.000000 0.0
vt 0.018555 1.000000 0.0
#vcolor 127.000000 127.000000 127.000000 255.000000
f 133/418 145/419 147/420
#fvcolorindex 5 32 32 
vt 0.981445 0.000000 0.0
vt 0.018555 1.000000 0.0
vt 1.000000 1.000000 0.0
f 133/421 147/422 132/423
#fvcolorindex 5 32 29 
vt 1.000000 0.000000 0.0
vt 1.000000 1.000000 0.0
vt 0.383789 1.000000 0.0
f 133/424 137/425 143/426
#fvcolorindex 5 5 2 
vt 1.000000 0.000000 0.0
vt 0.383789 1.000000 0.0
vt 0.692383 0.000000 0.0
f 133/427 143/428 145/429
#fvcolorindex 5 2 2 
vt 0.970703 0.260742 0.0
vt 0.568359 0.322266 0.0
vt 0.573242 0.426270 0.0
f 137/430 132/431 147/432
#fvcolorindex 5 3 3 
vt 0.970703 0.260742 0.0
vt 0.573242 0.426270 0.0
vt 0.978516 0.468262 0.0
f 137/433 147/434 143/435
#fvcolorindex 5 3 3 
vt 1.000000 -0.111328 0.0
vt 1.000000 -0.666504 0.0
vt 0.833008 -0.666504 0.0
v 91.097855 15.193144 91.507980
#joint 33
#vjoint 150
v 91.097855 15.193144 -28.492020
#joint 33
#vjoint 151
f 150/436 151/437 78/438
#fvcolorindex 5 5 27 
vt 1.000000 -0.111328 0.0
vt 0.833008 -0.666504 0.0
vt 0.833008 -0.111328 0.0
v 79.097855 15.193144 91.507980
#joint 33
#vjoint 152
f 150/439 78/440 152/441
#fvcolorindex 5 27 27 
usemtl m35
vt 0.166992 -0.666504 0.0
vt 0.000000 -0.666504 0.0
vt 0.000000 -0.111328 0.0
v 31.097855 15.193144 -28.492020
#joint 33
#vjoint 153
v 19.097855 15.193144 -28.492020
#joint 33
#vjoint 154
v 19.097855 15.193144 91.507980
#joint 33
#vjoint 155
f 153/442 154/443 155/444
#fvcolorindex 27 5 5 
vt 0.166992 -0.666504 0.0
vt 0.000000 -0.111328 0.0
vt 0.166992 -0.111328 0.0
v 31.097855 15.193144 91.507980
#joint 33
#vjoint 156
f 153/445 155/446 156/447
#fvcolorindex 27 5 27 
usemtl m33
vt 1.000000 0.000000 0.0
vt 1.000000 -0.111328 0.0
vt 0.833008 -0.111328 0.0
v 91.097855 39.193146 115.507980
#joint 33
#vjoint 157
f 157/448 150/449 152/450
#fvcolorindex 5 5 27 
vt 1.000000 0.000000 0.0
vt 0.833008 -0.111328 0.0
vt 0.666992 0.000000 0.0
f 157/451 152/452 4/453
#fvcolorindex 5 27 27 
usemtl m35
vt 0.833008 -0.111328 0.0
vt 0.666992 -0.111328 0.0
vt 0.666992 0.000000 0.0
f 152/454 9/455 4/456
#fvcolorindex 27 27 27 
vt 0.333008 -0.111328 0.0
vt 0.166992 -0.111328 0.0
vt 0.333008 0.000000 0.0
f 10/457 156/458 7/459
#fvcolorindex 27 27 27 
vt 0.166992 -0.111328 0.0
vt 0.000000 -0.111328 0.0
vt 0.000000 0.000000 0.0
v 19.097855 39.193146 115.507980
#joint 33
#vjoint 158
f 156/460 155/461 158/462
#fvcolorindex 27 5 5 
vt 0.166992 -0.111328 0.0
vt 0.000000 0.000000 0.0
vt 0.333008 0.000000 0.0
f 156/463 158/464 7/465
#fvcolorindex 27 5 27 
vt 0.500000 0.222168 0.0
vt 0.333008 0.000000 0.0
vt 0.000000 0.000000 0.0
v 55.097855 39.193146 163.507980
#joint 33
#vjoint 159
f 159/466 7/467 158/468
#fvcolorindex 27 27 5 
vt 0.500000 0.222168 0.0
vt 1.000000 0.000000 0.0
vt 0.666992 0.000000 0.0
f 159/469 157/470 4/471
#fvcolorindex 27 5 27 
usemtl m33
vt 0.616211 0.938965 0.0
vt 1.000000 0.845215 0.0
vt 1.000000 0.000000 0.0
v 91.097855 39.193146 331.507996
#joint 33
#vjoint 160
f 150/472 157/473 160/474
#fvcolorindex 5 5 5 
vt 0.616211 0.938965 0.0
vt 1.000000 0.000000 0.0
vt 0.616211 0.000000 0.0
v 91.097855 15.193144 331.507996
#joint 33
#vjoint 161
f 150/475 160/476 161/477
#fvcolorindex 5 5 5 
usemtl m35
vt 0.232422 0.093750 0.0
vt 0.616211 0.938965 0.0
vt 0.616211 0.000000 0.0
v 79.097855 -8.806856 307.507996
#joint 33
#vjoint 162
f 162/478 150/479 161/480
#fvcolorindex 27 5 5 
vt 0.232422 1.502441 0.0
vt 0.616211 0.938965 0.0
vt 0.232422 0.093750 0.0
v 79.097855 -8.806856 -52.492020
#joint 33
#vjoint 163
f 163/481 150/482 162/483
#fvcolorindex 27 5 27 
usemtl m33
vt 0.616211 1.408691 0.0
vt 0.616211 0.938965 0.0
vt 0.232422 1.502441 0.0
f 151/484 150/485 163/486
#fvcolorindex 5 5 27 
vt 0.232422 1.502441 0.0
vt 0.616211 1.408691 0.0
vt 0.616211 1.408691 0.0
v 31.097855 -8.806856 -52.492020
#joint 33
#vjoint 164
f 164/487 154/488 151/489
#fvcolorindex 5 27 27 
vt 0.232422 1.502441 0.0
vt 0.616211 1.408691 0.0
vt 0.232422 1.502441 0.0
f 164/490 151/491 163/492
#fvcolorindex 5 27 27 
vt 0.616211 0.938965 0.0
vt 0.616211 1.408691 0.0
vt 0.232422 1.502441 0.0
f 155/493 154/494 164/495
#fvcolorindex 5 5 5 
vt 0.616211 0.938965 0.0
vt 0.232422 1.502441 0.0
vt 0.232422 0.093750 0.0
v 31.097855 -8.806856 307.507996
#joint 33
#vjoint 165
f 155/496 164/497 165/498
#fvcolorindex 5 5 5 
vt 0.616211 0.000000 0.0
vt 0.616211 0.938965 0.0
vt 0.232422 0.093750 0.0
v 19.097855 15.193144 331.507996
#joint 33
#vjoint 166
f 166/499 155/500 165/501
#fvcolorindex 5 5 5 
vt 1.000000 0.000000 0.0
vt 1.000000 0.845215 0.0
vt 0.616211 0.938965 0.0
v 19.097855 39.193146 331.507996
#joint 33
#vjoint 167
f 167/502 158/503 155/504
#fvcolorindex 5 5 5 
vt 1.000000 0.000000 0.0
vt 0.616211 0.938965 0.0
vt 0.616211 0.000000 0.0
f 167/505 155/506 166/507
#fvcolorindex 5 5 5 
vt 1.000000 1.000000 0.0
vt 1.000000 0.000000 0.0
vt 0.500000 0.222168 0.0
f 160/508 157/509 159/510
#fvcolorindex 5 5 27 
vt 0.000000 0.000000 0.0
vt 0.000000 1.000000 0.0
vt 0.500000 0.222168 0.0
f 158/511 167/512 159/513
#fvcolorindex 5 5 27 
vt 1.000000 1.000000 0.0
vt 0.500000 0.222168 0.0
vt 0.000000 1.000000 0.0
f 160/514 159/515 167/516
#fvcolorindex 5 27 5 
usemtl m36
vt 0.862305 8.084961 0.0
vt 0.862305 7.584961 0.0
vt 0.862305 6.084961 0.0
v 31.097855 111.193146 355.507996
#joint 33
#vjoint 168
v 31.097855 87.193146 331.507996
#joint 33
#vjoint 169
v 31.097855 15.193144 331.507996
#joint 33
#vjoint 170
f 168/517 169/518 170/519
#fvcolorindex 3 3 3 
vt 0.862305 8.084961 0.0
vt 0.862305 6.084961 0.0
vt 0.862305 6.084961 0.0
v 31.097855 15.193144 355.507996
#joint 33
#vjoint 171
f 168/520 170/521 171/522
#fvcolorindex 3 3 3 
vt 0.862305 7.584961 0.0
vt 0.862305 8.084961 0.0
vt 0.862305 8.084961 0.0
f 169/523 168/524 82/525
#fvcolorindex 3 3 3 
vt 0.862305 7.584961 0.0
vt 0.862305 8.084961 0.0
vt 0.862305 7.584961 0.0
v 31.097855 87.193146 91.507980
#joint 33
#vjoint 172
f 169/526 82/527 172/528
#fvcolorindex 3 3 3 
usemtl m37
vt 0.862305 6.084961 0.0
vt 1.112305 6.584961 0.0
vt 1.612305 6.584961 0.0
#vcolor 88.000000 88.000000 88.000000 255.000000
v 43.097855 39.193146 331.507996
#joint 33
#vjoint 173
v 67.097855 39.193146 331.507996
#joint 33
#vjoint 174
f 170/529 173/530 174/531
#fvcolorindex 33 33 33 
vt 0.862305 6.084961 0.0
vt 1.612305 6.584961 0.0
vt 1.862305 6.084961 0.0
v 79.097855 15.193144 331.507996
#joint 33
#vjoint 175
f 170/532 174/533 175/534
#fvcolorindex 33 33 33 
vt 0.862305 6.084961 0.0
vt 0.862305 7.584961 0.0
vt 1.112305 7.584961 0.0
v 43.097855 87.193146 331.507996
#joint 33
#vjoint 176
f 170/535 169/536 176/537
#fvcolorindex 33 33 33 
vt 0.862305 6.084961 0.0
vt 1.112305 7.584961 0.0
vt 1.112305 6.584961 0.0
f 170/538 176/539 173/540
#fvcolorindex 33 33 33 
vt 1.612305 6.584961 0.0
vt 1.612305 7.584961 0.0
vt 1.862305 7.584961 0.0
v 67.097855 87.193146 331.507996
#joint 33
#vjoint 177
v 79.097855 87.193146 331.507996
#joint 33
#vjoint 178
f 174/541 177/542 178/543
#fvcolorindex 33 33 33 
vt 1.612305 6.584961 0.0
vt 1.862305 7.584961 0.0
vt 1.862305 6.084961 0.0
f 174/544 178/545 175/546
#fvcolorindex 33 33 33 
vt 1.612305 8.084961 0.0
vt 1.612305 7.584961 0.0
vt 1.112305 7.584961 0.0
v 67.097855 111.193146 331.507996
#joint 33
#vjoint 179
f 179/547 177/548 176/549
#fvcolorindex 33 33 33 
vt 1.612305 8.084961 0.0
vt 1.112305 7.584961 0.0
vt 1.112305 8.084961 0.0
v 43.097855 111.193146 331.507996
#joint 33
#vjoint 180
f 179/550 176/551 180/552
#fvcolorindex 33 33 33 
vt 1.112305 7.584961 0.0
vt 0.862305 7.584961 0.0
vt 1.112305 8.084961 0.0
f 176/553 169/554 180/555
#fvcolorindex 33 33 33 
vt 1.612305 8.084961 0.0
vt 1.862305 7.584961 0.0
vt 1.612305 7.584961 0.0
f 179/556 178/557 177/558
#fvcolorindex 33 33 33 
usemtl m38
vt 0.862305 7.584961 0.0
vt 1.112305 8.084961 0.0
vt 1.112305 8.084961 0.0
v 43.097855 111.193146 91.507980
#joint 33
#vjoint 181
f 172/559 181/560 180/561
#fvcolorindex 12 12 12 
vt 0.862305 7.584961 0.0
vt 1.112305 8.084961 0.0
vt 0.862305 7.584961 0.0
f 172/562 180/563 169/564
#fvcolorindex 12 12 12 
usemtl m36
vt 1.612305 8.084961 0.0
vt 1.862305 7.584961 0.0
vt 1.862305 7.584961 0.0
v 67.097855 111.193146 91.507980
#joint 33
#vjoint 182
v 79.097855 87.193146 91.507980
#joint 33
#vjoint 183
f 182/565 183/566 178/567
#fvcolorindex 3 3 3 
vt 1.612305 8.084961 0.0
vt 1.862305 7.584961 0.0
vt 1.612305 8.084961 0.0
f 182/568 178/569 179/570
#fvcolorindex 3 3 3 
vt 1.862305 8.084961 0.0
vt 1.612305 7.584961 0.0
vt 1.612305 6.584961 0.0
v 79.097855 111.193146 355.507996
#joint 33
#vjoint 184
v 67.097855 87.193146 355.507996
#joint 33
#vjoint 185
v 67.097855 39.193146 355.507996
#joint 33
#vjoint 186
f 184/571 185/572 186/573
#fvcolorindex 3 3 3 
vt 1.862305 8.084961 0.0
vt 1.612305 6.584961 0.0
vt 1.862305 6.084961 0.0
v 79.097855 15.193144 355.507996
#joint 33
#vjoint 187
f 184/574 186/575 187/576
#fvcolorindex 3 3 3 
vt 1.862305 8.084961 0.0
vt 0.862305 8.084961 0.0
vt 1.112305 7.584961 0.0
v 43.097855 87.193146 355.507996
#joint 33
#vjoint 188
f 184/577 168/578 188/579
#fvcolorindex 3 3 3 
vt 1.862305 8.084961 0.0
vt 1.112305 7.584961 0.0
vt 1.612305 7.584961 0.0
f 184/580 188/581 185/582
#fvcolorindex 3 3 3 
vt 0.862305 8.084961 0.0
vt 0.862305 6.084961 0.0
vt 1.112305 6.584961 0.0
v 43.097855 39.193146 355.507996
#joint 33
#vjoint 189
f 168/583 171/584 189/585
#fvcolorindex 3 3 3 
vt 0.862305 8.084961 0.0
vt 1.112305 6.584961 0.0
vt 1.112305 7.584961 0.0
f 168/586 189/587 188/588
#fvcolorindex 3 3 3 
vt 0.862305 6.084961 0.0
vt 1.862305 6.084961 0.0
vt 1.612305 6.584961 0.0
f 171/589 187/590 186/591
#fvcolorindex 3 3 3 
vt 0.862305 6.084961 0.0
vt 1.612305 6.584961 0.0
vt 1.112305 6.584961 0.0
f 171/592 186/593 189/594
#fvcolorindex 3 3 3 
usemtl m39EnvMappingTexScaleS0.031250TexScaleT0.031250
vt 0.000000 0.000000 0.0
vt 0.000000 0.000000 0.0
vt 0.000000 0.000000 0.0
#vcolor 133.000000 227.000000 0.000000 255.000000
#vcolor 143.000000 200.000000 0.000000 255.000000
#vcolor 140.000000 206.000000 0.000000 255.000000
vn 1.047244 1.787402 0.000000
vn 1.125984 1.574803 0.000000
vn 1.102362 1.622047 0.000000
f 144/595/37 143/596/38 149/597/39
#fvcolorindex 34 35 36 
vt 0.000000 0.000000 0.0
vt 0.000000 0.000000 0.0
vt 0.000000 0.000000 0.0
#vcolor 137.000000 212.000000 0.000000 255.000000
vn 1.047244 1.787402 0.000000
vn 1.102362 1.622047 0.000000
vn 1.078740 1.669291 0.000000
f 144/598/40 149/599/41 124/600/42
#fvcolorindex 34 36 37 
usemtl m40EnvMappingTexScaleS0.031250TexScaleT0.031250
vt 0.000000 0.000000 0.0
vt 0.000000 0.000000 0.0
vt 0.000000 0.000000 0.0
#vcolor 157.000000 79.000000 0.000000 255.000000
v 43.097855 117.193146 -220.492020
#joint 33
#vjoint 190
#vcolor 227.000000 123.000000 0.000000 255.000000
vn 1.236220 0.622047 0.000000
vn 1.236220 0.622047 0.000000
vn 1.787402 0.968504 0.000000
f 119/601/43 121/602/44 190/603/45
#fvcolorindex 38 38 39 
vt 0.000000 0.000000 0.0
vt 0.000000 0.000000 0.0
vt 0.000000 0.000000 0.0
v 43.097855 117.193146 -472.492004
#joint 33
#vjoint 191
vn 1.236220 0.622047 0.000000
vn 1.787402 0.968504 0.000000
vn 1.787402 0.968504 0.000000
f 119/604/46 190/605/47 191/606/48
#fvcolorindex 38 39 39 
usemtl m41EnvMappingTexScaleS0.031250TexScaleT0.031250
vt 0.000000 0.000000 0.0
vt 0.000000 0.000000 0.0
vt 0.000000 0.000000 0.0
#vcolor 126.000000 241.000000 0.000000 255.000000
#vcolor 123.000000 227.000000 5.000000 255.000000
#vcolor 113.000000 200.000000 2.000000 255.000000
vn 0.992126 1.897638 0.000000
vn 0.968504 1.787402 0.039370
vn 0.889764 1.574803 0.015748
f 109/607/49 130/608/50 137/609/51
#fvcolorindex 40 41 42 
vt 0.000000 0.000000 0.0
vt 0.000000 0.000000 0.0
vt 0.000000 0.000000 0.0
#vcolor 125.000000 236.000000 0.000000 255.000000
vn 0.992126 1.897638 0.000000
vn 0.889764 1.574803 0.015748
vn 0.984252 1.858268 0.000000
f 109/610/52 137/611/53 139/612/54
#fvcolorindex 40 42 43 
usemtl m42EnvMappingTexScaleS0.031250TexScaleT0.031250
vt 0.000000 0.000000 0.0
vt 0.000000 0.000000 0.0
vt 0.000000 0.000000 0.0
v 67.097855 117.193146 -220.492020
#joint 33
#vjoint 192
#vcolor 29.000000 123.000000 0.000000 255.000000
v 67.097855 117.193146 -472.492004
#joint 33
#vjoint 193
vn 1.787402 0.968504 0.000000
vn 0.228346 0.968504 0.000000
vn 0.228346 0.968504 0.000000
f 190/613/55 192/614/56 193/615/57
#fvcolorindex 39 44 44 
vt 0.000000 0.000000 0.0
vt 0.000000 0.000000 0.0
vt 0.000000 0.000000 0.0
vn 1.787402 0.968504 0.000000
vn 0.228346 0.968504 0.000000
vn 1.787402 0.968504 0.000000
f 190/616/58 193/617/59 191/618/60
#fvcolorindex 39 44 39 
usemtl m43EnvMappingTexScaleS0.031250TexScaleT0.031250
vt 0.000000 0.000000 0.0
vt 0.000000 0.000000 0.0
vt 0.000000 0.000000 0.0
#vcolor 99.000000 79.000000 0.000000 255.000000
vn 0.228346 0.968504 0.000000
vn 0.779528 0.622047 0.000000
vn 0.779528 0.622047 0.000000
f 192/619/61 116/620/62 115/621/63
#fvcolorindex 44 45 45 
vt 0.000000 0.000000 0.0
vt 0.000000 0.000000 0.0
vt 0.000000 0.000000 0.0
vn 0.228346 0.968504 0.000000
vn 0.779528 0.622047 0.000000
vn 0.228346 0.968504 0.000000
f 192/622/64 115/623/65 193/624/66
#fvcolorindex 44 45 44 
usemtl m44
vt 3.994141 0.000000 0.0
vt 3.994141 -0.474609 0.0
vt 0.000000 -0.474609 0.0
v 42.351700 229.156097 -183.624268
#joint 36
#vjoint 194
v 56.351700 232.156097 -183.624268
#joint 36
#vjoint 195
#vcolor 189.000000 189.000000 189.000000 255.000000
#vcolor 137.000000 137.000000 137.000000 255.000000
f 194/625 195/626 61/627
#fvcolorindex 3 46 47 
vt 3.994141 0.000000 0.0
vt 0.000000 -0.474609 0.0
vt 0.000000 0.000000 0.0
f 194/628 61/629 60/630
#fvcolorindex 3 47 3 
vt 2.885742 0.992188 0.0
vt 3.497070 0.000000 0.0
vt 0.000000 0.000000 0.0
v 31.351700 256.156097 -183.624268
#joint 36
#vjoint 196
f 60/631 63/632 196/633
#fvcolorindex 3 3 3 
vt 2.885742 0.992188 0.0
vt 0.000000 0.000000 0.0
vt 0.000000 0.992188 0.0
f 60/634 196/635 194/636
#fvcolorindex 3 3 3 
vt 3.994141 0.000000 0.0
vt 3.994141 -0.474609 0.0
vt 0.000000 -0.474609 0.0
v 29.715389 220.985550 -183.624268
#joint 37
#vjoint 197
v 40.715389 228.985550 -183.624268
#joint 37
#vjoint 198
#vcolor 252.000000 252.000000 252.000000 255.000000
f 197/637 198/638 65/639
#fvcolorindex 3 48 3 
vt 3.994141 0.000000 0.0
vt 0.000000 -0.474609 0.0
vt 0.000000 0.000000 0.0
f 197/640 65/641 64/642
#fvcolorindex 3 3 30 
usemtl m45
vt 2.885742 0.992188 0.0
vt 3.497070 0.000000 0.0
vt 0.000000 0.000000 0.0
v 8.715389 241.985550 -183.624268
#joint 37
#vjoint 199
f 64/643 67/644 199/645
#fvcolorindex 30 3 3 
vt 2.885742 0.992188 0.0
vt 0.000000 0.000000 0.0
vt 0.000000 0.992188 0.0
f 64/646 199/647 197/648
#fvcolorindex 30 3 3 
usemtl m46
vt 3.994141 0.000000 0.0
vt 3.994141 -0.474609 0.0
vt 0.000000 -0.474609 0.0
v 20.644939 208.537979 -183.608902
#joint 38
#vjoint 200
#vcolor 154.000000 154.000000 154.000000 255.000000
v 28.644939 220.537979 -183.608902
#joint 38
#vjoint 201
f 200/649 201/650 69/651
#fvcolorindex 49 5 30 
vt 3.994141 0.000000 0.0
vt 0.000000 -0.474609 0.0
vt 0.000000 0.000000 0.0
#vcolor 177.000000 177.000000 177.000000 255.000000
f 200/652 69/653 68/654
#fvcolorindex 49 30 50 
usemtl m47
vt 2.885742 0.992188 0.0
vt 3.497070 0.000000 0.0
vt 0.000000 0.000000 0.0
v -6.355061 219.537979 -183.608902
#joint 38
#vjoint 202
f 68/655 71/656 202/657
#fvcolorindex 50 3 3 
vt 2.885742 0.992188 0.0
vt 0.000000 0.000000 0.0
vt 0.000000 0.992188 0.0
f 68/658 202/659 200/660
#fvcolorindex 50 3 49 
usemtl m48
vt 3.994141 0.000000 0.0
vt 3.994141 -0.474609 0.0
vt 0.000000 -0.474609 0.0
v 18.992878 194.211548 -183.624268
#joint 39
#vjoint 203
v 20.992878 208.211548 -183.624268
#joint 39
#vjoint 204
f 203/661 204/662 73/663
#fvcolorindex 6 49 50 
vt 3.994141 0.000000 0.0
vt 0.000000 -0.474609 0.0
vt 0.000000 0.000000 0.0
#vcolor 182.000000 182.000000 182.000000 255.000000
f 203/664 73/665 72/666
#fvcolorindex 6 50 51 
usemtl m49
vt 0.283203 0.000000 0.0
vt 0.283203 0.739258 0.0
vt 0.063477 0.985352 0.0
f 175/667 178/668 184/669
#fvcolorindex 1 1 1 
vt 0.283203 0.000000 0.0
vt 0.063477 0.985352 0.0
vt 0.063477 0.000000 0.0
f 175/670 184/671 187/672
#fvcolorindex 1 1 1 
vt 0.060547 -2.576172 0.0
vt 0.286133 -2.341797 0.0
vt 0.286133 0.000000 0.0
f 184/673 178/674 183/675
#fvcolorindex 1 1 1 
vt 0.060547 -2.576172 0.0
vt 0.286133 0.000000 0.0
vt 0.060547 0.000000 0.0
f 184/676 183/677 77/678
#fvcolorindex 1 1 1 
usemtl m50
vt 0.208984 4.178711 0.0
vt 0.208984 8.822266 0.0
vt 0.048828 9.286133 0.0
f 182/679 179/680 184/681
#fvcolorindex 2 2 2 
vt 0.208984 4.178711 0.0
vt 0.048828 9.286133 0.0
vt 0.048828 4.178711 0.0
f 182/682 184/683 77/684
#fvcolorindex 2 2 5 
vt 0.196289 0.708984 0.0
vt 0.043945 0.948242 0.0
vt 0.046875 -0.008789 0.0
f 180/685 168/686 184/687
#fvcolorindex 2 2 2 
vt 0.196289 0.708984 0.0
vt 0.046875 -0.008789 0.0
vt 0.197266 0.230469 0.0
f 180/688 184/689 179/690
#fvcolorindex 2 2 2 
vt 0.052734 7.220703 0.0
vt 0.212891 7.220703 0.0
vt 0.212891 12.328125 0.0
f 181/691 82/692 168/693
#fvcolorindex 2 3 2 
vt 0.052734 7.220703 0.0
vt 0.212891 12.328125 0.0
vt 0.052734 11.863281 0.0
f 181/694 168/695 180/696
#fvcolorindex 2 2 2 
usemtl m49
vt 0.050781 -2.250000 0.0
vt 1.000000 -2.250000 0.0
vt 1.000000 -1.000000 0.0
f 77/697 152/698 78/699
#fvcolorindex 1 1 1 
usemtl m51
vt 0.050781 0.000000 0.0
vt 1.000000 -1.000000 0.0
vt 1.000000 0.000000 0.0
v 79.097855 15.193144 -124.492020
#joint 33
#vjoint 205
f 76/700 78/701 205/702
#fvcolorindex 16 1 1 
usemtl m52
vt 1.000000 0.000000 0.0
vt 0.732422 0.125000 0.0
vt 0.733398 0.000000 0.0
v 67.097855 111.193146 -124.492020
#joint 33
#vjoint 206
f 79/703 76/704 206/705
#fvcolorindex 33 10 10 
usemtl m53
vt 0.997070 0.750977 0.0
vt -0.004883 0.990234 0.0
vt 0.000000 0.000000 0.0
#vcolor 144.000000 144.000000 144.000000 255.000000
f 83/706 82/707 77/708
#fvcolorindex 52 3 5 
vt 0.997070 0.750977 0.0
vt 0.000000 0.000000 0.0
vt 0.999023 0.255859 0.0
f 83/709 77/710 80/711
#fvcolorindex 52 5 5 
usemtl m54
vt 1.000000 0.934570 0.0
vt 0.038086 0.000000 0.0
vt 1.000000 0.000000 0.0
v 31.097855 15.193144 -124.492020
#joint 33
#vjoint 207
f 153/712 81/713 207/714
#fvcolorindex 3 3 3 
vt 0.038086 2.102539 0.0
vt 0.038086 0.000000 0.0
vt 1.000000 0.934570 0.0
f 82/715 81/716 153/717
#fvcolorindex 3 3 3 
vt 0.038086 2.102539 0.0
vt 1.000000 0.934570 0.0
vt 1.000000 2.102539 0.0
f 82/718 153/719 156/720
#fvcolorindex 3 3 3 
usemtl m55
vt 0.733398 0.000000 0.0
vt 0.732422 0.125000 0.0
vt 1.000000 0.000000 0.0
v 43.097855 111.193146 -124.492020
#joint 33
#vjoint 208
f 208/721 81/722 84/723
#fvcolorindex 10 10 33 
usemtl m56
vt 1.000000 1.000000 0.0
vt 0.726562 1.000000 0.0
vt 0.726562 0.000000 0.0
#vcolor 226.000000 226.000000 226.000000 255.000000
f 149/724 127/725 126/726
#fvcolorindex 53 5 53 
vt 1.000000 1.000000 0.0
vt 0.726562 0.000000 0.0
vt 1.000000 0.000000 0.0
f 149/727 126/728 125/729
#fvcolorindex 53 53 53 
usemtl m49
vt 1.000000 2.010742 0.0
vt 0.000000 2.010742 0.0
vt 0.000000 0.000000 0.0
f 176/730 188/731 189/732
#fvcolorindex 1 1 1 
vt 1.000000 2.010742 0.0
vt 0.000000 0.000000 0.0
vt 1.000000 0.000000 0.0
f 176/733 189/734 173/735
#fvcolorindex 1 1 1 
usemtl m54
vt 1.000000 2.010742 0.0
vt 0.000000 2.010742 0.0
vt 0.000000 2.010742 0.0
f 177/736 185/737 188/738
#fvcolorindex 3 3 3 
vt 1.000000 2.010742 0.0
vt 0.000000 2.010742 0.0
vt 1.000000 2.010742 0.0
f 177/739 188/740 176/741
#fvcolorindex 3 3 3 
vt 1.000000 0.000000 0.0
vt 0.000000 0.000000 0.0
vt 0.000000 2.010742 0.0
f 174/742 186/743 185/744
#fvcolorindex 3 3 3 
vt 1.000000 0.000000 0.0
vt 0.000000 2.010742 0.0
vt 1.000000 2.010742 0.0
f 174/745 185/746 177/747
#fvcolorindex 3 3 3 
usemtl m50
vt 0.000000 0.000000 0.0
vt 1.000000 0.000000 0.0
vt 1.000000 0.000000 0.0
f 186/748 174/749 173/750
#fvcolorindex 2 2 2 
vt 0.000000 0.000000 0.0
vt 1.000000 0.000000 0.0
vt 0.000000 0.000000 0.0
f 186/751 173/752 189/753
#fvcolorindex 2 2 2 
usemtl m56
vt 1.000000 0.000000 0.0
vt 0.726562 0.000000 0.0
vt 0.726562 0.875000 0.0
v 79.097855 43.193146 -136.492020
#joint 33
#vjoint 209
f 130/754 114/755 209/756
#fvcolorindex 53 53 53 
vt 1.000000 0.000000 0.0
vt 0.726562 0.875000 0.0
vt 1.000000 1.000000 0.0
f 130/757 209/758 205/759
#fvcolorindex 53 53 53 
vt 1.000000 1.000000 0.0
vt 0.726562 0.875000 0.0
vt 0.324219 0.875000 0.0
v 79.097855 83.193146 -136.492020
#joint 33
#vjoint 210
f 205/760 209/761 210/762
#fvcolorindex 53 53 53 
vt 1.000000 1.000000 0.0
vt 0.324219 0.875000 0.0
vt 0.051758 1.000000 0.0
f 205/763 210/764 76/765
#fvcolorindex 53 53 53 
vt 0.051758 1.000000 0.0
vt 0.324219 0.875000 0.0
vt 0.324219 0.000000 0.0
v 79.097855 83.193146 -220.492020
#joint 33
#vjoint 211
f 76/766 210/767 211/768
#fvcolorindex 53 53 53 
vt 0.051758 1.000000 0.0
vt 0.324219 0.000000 0.0
vt 0.051758 0.000000 0.0
f 76/769 211/770 116/771
#fvcolorindex 53 53 53 
usemtl m57
vt 0.726562 0.000000 0.0
vt 0.726562 0.000000 0.0
vt 0.726562 0.875000 0.0
f 114/772 18/773 17/774
#fvcolorindex 5 5 5 
vt 0.726562 0.000000 0.0
vt 0.726562 0.875000 0.0
vt 0.726562 0.875000 0.0
f 114/775 17/776 209/777
#fvcolorindex 5 5 5 
vt 0.324219 0.875000 0.0
vt 0.324219 0.875000 0.0
vt 0.726562 0.875000 0.0
f 20/778 210/779 209/780
#fvcolorindex 5 5 5 
vt 0.324219 0.875000 0.0
vt 0.726562 0.875000 0.0
vt 0.726562 0.875000 0.0
f 20/781 209/782 17/783
#fvcolorindex 5 5 5 
vt 0.324219 0.000000 0.0
vt 0.324219 0.000000 0.0
vt 0.324219 0.875000 0.0
f 19/784 211/785 210/786
#fvcolorindex 5 5 5 
vt 0.324219 0.000000 0.0
vt 0.324219 0.875000 0.0
vt 0.324219 0.875000 0.0
f 19/787 210/788 20/789
#fvcolorindex 5 5 5 
vt 0.795898 0.000000 0.0
vt 0.795898 1.714844 0.0
vt 0.375000 1.714844 0.0
f 190/790 84/791 79/792
#fvcolorindex 5 5 5 
vt 0.795898 0.000000 0.0
vt 0.375000 1.714844 0.0
vt 0.375000 0.000000 0.0
f 190/793 79/794 192/795
#fvcolorindex 5 5 5 
usemtl m55
vt 0.726562 0.970703 0.0
vt 0.726562 0.000000 0.0
vt 0.792969 0.000000 0.0
v 67.097855 111.193146 -220.492020
#joint 33
#vjoint 212
f 206/796 212/797 192/798
#fvcolorindex 10 5 5 
vt 0.726562 0.970703 0.0
vt 0.792969 0.000000 0.0
vt 0.992188 0.970703 0.0
f 206/799 192/800 79/801
#fvcolorindex 10 5 5 
vt 0.812500 1.000000 0.0
vt 0.812500 0.000000 0.0
vt 1.000000 0.000000 0.0
f 76/802 116/803 212/804
#fvcolorindex 10 5 5 
vt 0.812500 1.000000 0.0
vt 1.000000 0.000000 0.0
vt 1.000000 1.000000 0.0
f 76/805 212/806 206/807
#fvcolorindex 10 5 10 
usemtl m54
vt 1.000000 1.000000 0.0
vt 0.726562 0.875000 0.0
vt 0.726562 0.000000 0.0
v 31.097855 43.193146 -136.492020
#joint 33
#vjoint 213
f 207/808 213/809 127/810
#fvcolorindex 3 3 53 
vt 1.000000 1.000000 0.0
vt 0.726562 0.000000 0.0
vt 1.000000 0.000000 0.0
f 207/811 127/812 149/813
#fvcolorindex 3 53 53 
vt 0.051758 1.000000 0.0
vt 0.324219 0.875000 0.0
vt 0.726562 0.875000 0.0
v 31.097855 83.193146 -136.492020
#joint 33
#vjoint 214
f 81/814 214/815 213/816
#fvcolorindex 3 3 3 
vt 0.051758 1.000000 0.0
vt 0.726562 0.875000 0.0
vt 1.000000 1.000000 0.0
f 81/817 213/818 207/819
#fvcolorindex 3 3 3 
usemtl m56
vt 0.051758 0.000000 0.0
vt 0.324219 0.000000 0.0
vt 0.324219 0.875000 0.0
v 31.097855 83.193146 -220.492020
#joint 33
#vjoint 215
f 121/820 215/821 214/822
#fvcolorindex 53 53 3 
vt 0.051758 0.000000 0.0
vt 0.324219 0.875000 0.0
vt 0.051758 1.000000 0.0
f 121/823 214/824 81/825
#fvcolorindex 53 3 3 
usemtl m54
vt 1.000000 1.000000 0.0
vt 1.000000 0.000000 0.0
vt 0.812500 0.000000 0.0
v 43.097855 111.193146 -220.492020
#joint 33
#vjoint 216
f 208/826 216/827 121/828
#fvcolorindex 3 5 5 
vt 1.000000 1.000000 0.0
vt 0.812500 0.000000 0.0
vt 0.812500 1.000000 0.0
f 208/829 121/830 81/831
#fvcolorindex 3 5 3 
usemtl m57
vt 0.992188 0.970703 0.0
vt 0.792969 0.000000 0.0
vt 0.726562 0.000000 0.0
f 84/832 190/833 216/834
#fvcolorindex 5 5 5 
vt 0.992188 0.970703 0.0
vt 0.726562 0.000000 0.0
vt 0.726562 0.970703 0.0
f 84/835 216/836 208/837
#fvcolorindex 5 5 3 
vt 0.324219 0.875000 0.0
vt 0.324219 0.875000 0.0
vt 0.324219 0.000000 0.0
f 21/838 214/839 215/840
#fvcolorindex 5 5 5 
vt 0.324219 0.875000 0.0
vt 0.324219 0.000000 0.0
vt 0.324219 0.000000 0.0
f 21/841 215/842 22/843
#fvcolorindex 5 5 5 
usemtl m54
vt 0.726562 0.875000 0.0
vt 0.726562 0.875000 0.0
vt 0.324219 0.875000 0.0
f 28/844 213/845 214/846
#fvcolorindex 3 3 3 
vt 0.726562 0.875000 0.0
vt 0.324219 0.875000 0.0
vt 0.324219 0.875000 0.0
f 28/847 214/848 21/849
#fvcolorindex 3 3 3 
vt 0.726562 0.875000 0.0
vt 0.726562 0.875000 0.0
vt 0.726562 0.000000 0.0
f 213/850 28/851 27/852
#fvcolorindex 3 3 5 
vt 0.726562 0.875000 0.0
vt 0.726562 0.000000 0.0
vt 0.726562 0.000000 0.0
f 213/853 27/854 127/855
#fvcolorindex 3 5 5 
usemtl m56
vt 1.000000 0.000000 0.0
vt 0.726562 0.000000 0.0
vt 0.726562 1.000000 0.0
f 110/856 111/857 114/858
#fvcolorindex 53 53 5 
vt 1.000000 0.000000 0.0
vt 0.726562 1.000000 0.0
vt 1.000000 1.000000 0.0
f 110/859 114/860 130/861
#fvcolorindex 53 5 53 
usemtl m57
vt 1.000000 0.000000 0.0
vt 1.000000 1.246094 0.0
vt 0.878906 1.246094 0.0
v 89.097855 209.193146 -39.492020
#joint 33
#vjoint 217
v 91.097855 195.193146 -39.492020
#joint 33
#vjoint 218
#vcolor 191.000000 191.000000 191.000000 255.000000
f 45/862 217/863 218/864
#fvcolorindex 5 5 54 
vt 1.000000 0.000000 0.0
vt 0.878906 1.246094 0.0
vt 0.878906 0.000000 0.0
f 45/865 218/866 43/867
#fvcolorindex 5 54 54 
vt 0.887695 0.000000 0.0
vt 0.887695 1.315430 0.0
vt 0.783203 1.315430 0.0
v 81.097855 221.193146 -39.492020
#joint 33
#vjoint 219
f 46/868 219/869 217/870
#fvcolorindex 5 5 5 
vt 0.887695 0.000000 0.0
vt 0.783203 1.315430 0.0
vt 0.783203 0.000000 0.0
f 46/871 217/872 45/873
#fvcolorindex 5 5 5 
vt 1.000000 0.000000 0.0
vt 1.000000 1.315430 0.0
vt 0.887695 1.315430 0.0
v 69.097855 228.193146 -39.492020
#joint 33
#vjoint 220
f 47/874 220/875 219/876
#fvcolorindex 5 5 5 
vt 1.000000 0.000000 0.0
vt 0.887695 1.315430 0.0
vt 0.887695 0.000000 0.0
f 47/877 219/878 46/879
#fvcolorindex 5 5 5 
vt 0.883789 0.000000 0.0
vt 0.883789 1.656250 0.0
vt 0.776367 1.656250 0.0
v 55.097855 231.193146 -39.492020
#joint 33
#vjoint 221
#vcolor 222.000000 222.000000 222.000000 255.000000
f 48/880 221/881 220/882
#fvcolorindex 5 55 5 
vt 0.883789 0.000000 0.0
vt 0.776367 1.656250 0.0
vt 0.776367 0.000000 0.0
f 48/883 220/884 47/885
#fvcolorindex 5 5 5 
usemtl m58
vt 1.000000 0.000000 0.0
vt 1.000000 1.656250 0.0
vt 0.883789 1.656250 0.0
#vcolor 208.000000 208.000000 208.000000 255.000000
v 41.097855 228.193146 -39.492020
#joint 33
#vjoint 222
f 49/886 222/887 221/888
#fvcolorindex 56 56 55 
vt 1.000000 0.000000 0.0
vt 0.883789 1.656250 0.0
vt 0.883789 0.000000 0.0
f 49/889 221/890 48/891
#fvcolorindex 56 55 5 
usemtl m59
vt 0.883789 0.000000 0.0
vt 0.883789 1.588867 0.0
vt 0.776367 1.588867 0.0
#vcolor 129.000000 129.000000 129.000000 255.000000
v 30.097855 221.193146 -39.492020
#joint 33
#vjoint 223
f 50/892 223/893 222/894
#fvcolorindex 57 57 56 
vt 0.883789 0.000000 0.0
vt 0.776367 1.588867 0.0
vt 0.776367 0.000000 0.0
f 50/895 222/896 49/897
#fvcolorindex 57 56 56 
usemtl m54
vt 1.000000 0.000000 0.0
vt 1.000000 1.588867 0.0
vt 0.883789 1.588867 0.0
v 22.097855 209.193146 -39.492020
#joint 33
#vjoint 224
f 51/898 224/899 223/900
#fvcolorindex 3 3 57 
vt 1.000000 0.000000 0.0
vt 0.883789 1.588867 0.0
vt 0.883789 0.000000 0.0
f 51/901 223/902 50/903
#fvcolorindex 3 57 57 
vt 0.820312 0.000000 0.0
vt 0.820312 1.838867 0.0
vt 0.655273 1.838867 0.0
v 19.097855 195.193146 -39.492020
#joint 33
#vjoint 225
f 52/904 225/905 224/906
#fvcolorindex 3 3 3 
vt 0.820312 0.000000 0.0
vt 0.655273 1.838867 0.0
vt 0.655273 0.000000 0.0
f 52/907 224/908 51/909
#fvcolorindex 3 3 3 
vt 1.000000 0.000000 0.0
vt 1.000000 1.838867 0.0
vt 0.820312 1.838867 0.0
v 22.097855 181.193146 -39.492020
#joint 33
#vjoint 226
f 59/910 226/911 225/912
#fvcolorindex 3 3 3 
vt 1.000000 0.000000 0.0
vt 0.820312 1.838867 0.0
vt 0.820312 0.000000 0.0
f 59/913 225/914 52/915
#fvcolorindex 3 3 3 
vt 0.886719 0.000000 0.0
vt 0.886719 1.687500 0.0
vt 0.783203 1.687500 0.0
v 30.097855 169.193146 -39.492020
#joint 33
#vjoint 227
f 58/916 227/917 226/918
#fvcolorindex 3 3 3 
vt 0.886719 0.000000 0.0
vt 0.783203 1.687500 0.0
vt 0.783203 0.000000 0.0
f 58/919 226/920 59/921
#fvcolorindex 3 3 3 
vt 1.000000 0.000000 0.0
vt 1.000000 1.687500 0.0
vt 0.886719 1.687500 0.0
v 41.097855 162.193146 -39.492020
#joint 33
#vjoint 228
f 57/922 228/923 227/924
#fvcolorindex 3 3 3 
vt 1.000000 0.000000 0.0
vt 0.886719 1.687500 0.0
vt 0.886719 0.000000 0.0
f 57/925 227/926 58/927
#fvcolorindex 3 3 3 
vt 0.881836 0.000000 0.0
vt 0.881836 1.627930 0.0
vt 0.771484 1.627930 0.0
v 55.097855 159.193146 -39.492020
#joint 33
#vjoint 229
f 56/928 229/929 228/930
#fvcolorindex 3 3 3 
vt 0.881836 0.000000 0.0
vt 0.771484 1.627930 0.0
vt 0.771484 0.000000 0.0
f 56/931 228/932 57/933
#fvcolorindex 3 3 3 
vt 1.000000 0.000000 0.0
vt 1.000000 1.627930 0.0
vt 0.881836 1.627930 0.0
v 69.097855 162.193146 -39.492020
#joint 33
#vjoint 230
f 55/934 230/935 229/936
#fvcolorindex 3 3 3 
vt 1.000000 0.000000 0.0
vt 0.881836 1.627930 0.0
vt 0.881836 0.000000 0.0
f 55/937 229/938 56/939
#fvcolorindex 3 3 3 
vt 0.878906 0.000000 0.0
vt 0.878906 1.246094 0.0
vt 0.766602 1.246094 0.0
v 81.097855 169.193146 -39.492020
#joint 33
#vjoint 231
f 54/940 231/941 230/942
#fvcolorindex 3 3 3 
vt 0.878906 0.000000 0.0
vt 0.766602 1.246094 0.0
vt 0.766602 0.000000 0.0
f 54/943 230/944 55/945
#fvcolorindex 3 3 3 
usemtl m60
vt 1.000000 0.000000 0.0
vt 1.000000 1.246094 0.0
vt 0.878906 1.246094 0.0
v 89.097855 181.193146 -39.492020
#joint 33
#vjoint 232
f 53/946 232/947 231/948
#fvcolorindex 7 7 3 
vt 1.000000 0.000000 0.0
vt 0.878906 1.246094 0.0
vt 0.878906 0.000000 0.0
f 53/949 231/950 54/951
#fvcolorindex 7 3 3 
usemtl m61
vt 0.878906 0.000000 0.0
vt 0.878906 1.246094 0.0
vt 0.765625 1.246094 0.0
f 43/952 218/953 232/954
#fvcolorindex 54 54 7 
vt 0.878906 0.000000 0.0
vt 0.765625 1.246094 0.0
vt 0.765625 0.000000 0.0
f 43/955 232/956 53/957
#fvcolorindex 54 7 7 
usemtl m62
vt 0.987305 -0.382812 0.0
vt 0.000000 0.000000 0.0
vt 0.033203 -0.199219 0.0
#vcolor 108.000000 108.000000 108.000000 255.000000
#vcolor 173.000000 173.000000 173.000000 255.000000
f 228/958 221/959 222/960
#fvcolorindex 58 59 58 
vt 0.987305 -0.382812 0.0
vt 0.033203 -0.199219 0.0
vt 0.139648 -0.382812 0.0
f 228/961 222/962 223/963
#fvcolorindex 58 58 58 
vt 0.139648 -0.382812 0.0
vt 0.302734 -0.523438 0.0
vt 0.987305 -0.382812 0.0
f 223/964 224/965 228/966
#fvcolorindex 58 58 58 
vt 0.302734 -0.523438 0.0
vt 0.499023 -0.599609 0.0
vt 0.987305 -0.382812 0.0
f 224/967 225/968 228/969
#fvcolorindex 58 58 58 
vt 0.499023 -0.599609 0.0
vt 0.698242 -0.599609 0.0
vt 0.869141 -0.523438 0.0
f 225/970 226/971 227/972
#fvcolorindex 58 58 58 
vt 0.499023 -0.599609 0.0
vt 0.869141 -0.523438 0.0
vt 0.987305 -0.382812 0.0
f 225/973 227/974 228/975
#fvcolorindex 58 58 58 
usemtl m63
vt 1.000000 0.000000 0.0
vt 0.893555 0.183594 0.0
vt 0.729492 0.324219 0.0
f 230/976 231/977 232/978
#fvcolorindex 47 58 58 
vt 1.000000 0.000000 0.0
vt 0.729492 0.324219 0.0
vt 0.533203 0.400391 0.0
f 230/979 232/980 218/981
#fvcolorindex 47 58 58 
vt 1.000000 0.000000 0.0
vt 0.533203 0.400391 0.0
vt 0.333984 0.400391 0.0
f 230/982 218/983 217/984
#fvcolorindex 47 58 58 
vt 1.000000 0.000000 0.0
vt 0.333984 0.400391 0.0
vt 0.163086 0.324219 0.0
f 230/985 217/986 219/987
#fvcolorindex 47 58 58 
vt 1.000000 0.000000 0.0
vt 0.163086 0.324219 0.0
vt 0.045898 0.183594 0.0
f 230/988 219/989 220/990
#fvcolorindex 47 58 58 
usemtl m64
vt 0.000000 0.000000 0.0
vt 1.000000 0.000000 0.0
vt 0.045898 0.183594 0.0
f 221/991 230/992 220/993
#fvcolorindex 59 47 58 
usemtl m65
vt 0.678711 0.333984 0.0
vt 0.678711 0.102539 0.0
vt 0.434570 0.009766 0.0
f 221/994 228/995 83/996
#fvcolorindex 55 3 3 
usemtl m64
vt 0.678711 0.333984 0.0
vt 0.434570 0.000000 0.0
vt 0.678711 0.089844 0.0
f 221/997 80/998 230/999
#fvcolorindex 59 28 47 
usemtl m65
vt 0.678711 0.333984 0.0
vt 0.434570 0.009766 0.0
vt 0.434570 0.000000 0.0
f 221/1000 83/1001 80/1002
#fvcolorindex 55 3 28 
usemtl m54
vt 0.678711 0.102539 0.0
vt 0.678711 0.009766 0.0
vt 0.434570 0.009766 0.0
v 43.097855 135.193146 -39.492020
#joint 33
#vjoint 233
f 228/1003 233/1004 83/1005
#fvcolorindex 3 3 3 
usemtl m66
vt 0.434570 0.000000 0.0
vt 0.678711 0.000000 0.0
vt 0.678711 0.089844 0.0
v 67.097855 135.193146 -39.492020
#joint 33
#vjoint 234
f 80/1006 234/1007 230/1008
#fvcolorindex 28 50 3 
usemtl m54
vt 0.069336 0.275391 0.0
vt 0.561523 0.493164 0.0
vt 0.028320 0.556641 0.0
f 229/1009 233/1010 228/1011
#fvcolorindex 3 3 3 
vt 0.537109 0.010742 0.0
vt 0.069336 0.275391 0.0
vt 0.000000 0.000000 0.0
f 234/1012 229/1013 230/1014
#fvcolorindex 3 3 3 
vt 0.069336 0.275391 0.0
vt 0.537109 0.010742 0.0
vt 0.561523 0.493164 0.0
f 229/1015 234/1016 233/1017
#fvcolorindex 3 3 3 
usemtl m57
vt 1.000000 1.000000 0.0
vt 0.863281 1.000000 0.0
vt 0.863281 0.000000 0.0
f 233/1018 234/1019 79/1020
#fvcolorindex 5 5 5 
vt 1.000000 1.000000 0.0
vt 0.863281 0.000000 0.0
vt 1.000000 0.000000 0.0
f 233/1021 79/1022 84/1023
#fvcolorindex 5 5 5 
usemtl m67
vt 0.416992 0.000000 0.0
vt 1.000000 0.000000 0.0
vt 1.000000 0.227539 0.0
v 56.351700 261.156097 -183.624268
#joint 36
#vjoint 235
f 235/1024 195/1025 194/1026
#fvcolorindex 27 27 27 
vt 0.416992 0.000000 0.0
vt 1.000000 0.227539 0.0
vt 0.416992 0.413086 0.0
f 235/1027 194/1028 196/1029
#fvcolorindex 27 27 27 
usemtl m61
vt 0.415039 -0.211914 0.0
vt 1.000000 0.000000 0.0
vt 1.000000 1.000000 0.0
f 62/1030 61/1031 195/1032
#fvcolorindex 54 47 46 
vt 0.415039 -0.211914 0.0
vt 1.000000 1.000000 0.0
vt 0.415039 1.000000 0.0
f 62/1033 195/1034 235/1035
#fvcolorindex 54 46 5 
usemtl m57
vt 0.737305 3.104492 0.0
vt 0.420898 3.104492 0.0
vt 0.420898 0.000000 0.0
f 63/1036 62/1037 235/1038
#fvcolorindex 5 5 5 
vt 0.737305 3.104492 0.0
vt 0.420898 0.000000 0.0
vt 0.737305 0.000000 0.0
f 63/1039 235/1040 196/1041
#fvcolorindex 5 5 5 
usemtl m67
vt 0.416992 0.000000 0.0
vt 1.000000 0.000000 0.0
vt 1.000000 0.227539 0.0
v 29.715389 255.985550 -183.624268
#joint 37
#vjoint 236
f 236/1042 198/1043 197/1044
#fvcolorindex 27 27 27 
vt 0.416992 0.000000 0.0
vt 1.000000 0.227539 0.0
vt 0.416992 0.413086 0.0
f 236/1045 197/1046 199/1047
#fvcolorindex 27 27 27 
usemtl m68
vt 0.415039 -0.211914 0.0
vt 1.000000 0.000000 0.0
vt 1.000000 1.000000 0.0
#vcolor 244.000000 244.000000 244.000000 255.000000
f 66/1048 65/1049 198/1050
#fvcolorindex 60 5 48 
vt 0.415039 -0.211914 0.0
vt 1.000000 1.000000 0.0
vt 0.415039 1.000000 0.0
f 66/1051 198/1052 236/1053
#fvcolorindex 60 48 60 
usemtl m69
vt 0.737305 3.104492 0.0
vt 0.420898 3.104492 0.0
vt 0.420898 0.000000 0.0
#vcolor 234.000000 234.000000 234.000000 255.000000
f 67/1054 66/1055 236/1056
#fvcolorindex 61 61 61 
vt 0.737305 3.104492 0.0
vt 0.420898 0.000000 0.0
vt 0.737305 0.000000 0.0
f 67/1057 236/1058 199/1059
#fvcolorindex 61 61 61 
usemtl m67
vt 0.416992 0.000000 0.0
vt 1.000000 0.000000 0.0
vt 1.000000 0.227539 0.0
v 7.644939 241.537979 -183.608902
#joint 38
#vjoint 237
f 237/1060 201/1061 200/1062
#fvcolorindex 27 27 27 
vt 0.416992 0.000000 0.0
vt 1.000000 0.227539 0.0
vt 0.416992 0.413086 0.0
f 237/1063 200/1064 202/1065
#fvcolorindex 27 27 27 
usemtl m70
vt 0.415039 -0.211914 0.0
vt 1.000000 0.000000 0.0
vt 1.000000 1.000000 0.0
#vcolor 219.000000 219.000000 219.000000 255.000000
f 70/1066 69/1067 201/1068
#fvcolorindex 62 5 5 
vt 0.415039 -0.211914 0.0
vt 1.000000 1.000000 0.0
vt 0.415039 1.000000 0.0
f 70/1069 201/1070 237/1071
#fvcolorindex 62 5 5 
usemtl m71
vt 0.737305 3.104492 0.0
vt 0.420898 3.104492 0.0
vt 0.420898 0.000000 0.0
f 71/1072 70/1073 237/1074
#fvcolorindex 46 46 46 
vt 0.737305 3.104492 0.0
vt 0.420898 0.000000 0.0
vt 0.737305 0.000000 0.0
f 71/1075 237/1076 202/1077
#fvcolorindex 46 46 46 
usemtl m67
vt 0.416992 0.000000 0.0
vt 1.000000 0.000000 0.0
vt 1.000000 0.227539 0.0
v -6.007122 219.211548 -183.624268
#joint 39
#vjoint 238
f 238/1078 204/1079 203/1080
#fvcolorindex 27 27 27 
vt 0.416992 0.000000 0.0
vt 1.000000 0.227539 0.0
vt 0.416992 0.413086 0.0
v -11.007122 194.211548 -183.624268
#joint 39
#vjoint 239
f 238/1081 203/1082 239/1083
#fvcolorindex 27 27 27 
usemtl m72
vt 0.415039 -0.211914 0.0
vt 1.000000 0.000000 0.0
vt 1.000000 1.000000 0.0
#vcolor 175.000000 175.000000 175.000000 255.000000
f 74/1084 73/1085 204/1086
#fvcolorindex 63 16 16 
vt 0.415039 -0.211914 0.0
vt 1.000000 1.000000 0.0
vt 0.415039 1.000000 0.0
f 74/1087 204/1088 238/1089
#fvcolorindex 63 16 16 
usemtl m73
vt 0.737305 3.104492 0.0
vt 0.420898 3.104492 0.0
vt 0.420898 0.000000 0.0
#vcolor 120.000000 120.000000 120.000000 255.000000
f 75/1090 74/1091 238/1092
#fvcolorindex 64 64 64 
vt 0.737305 3.104492 0.0
vt 0.420898 0.000000 0.0
vt 0.737305 0.000000 0.0
f 75/1093 238/1094 239/1095
#fvcolorindex 64 64 64 
usemtl m74
vt 1.000000 2.888672 0.0
vt 0.409180 3.500000 0.0
vt 0.409180 0.000000 0.0
#vcolor 106.000000 106.000000 106.000000 255.000000
f 72/1096 75/1097 239/1098
#fvcolorindex 51 65 3 
vt 1.000000 2.888672 0.0
vt 0.409180 0.000000 0.0
vt 1.000000 0.000000 0.0
f 72/1099 239/1100 203/1101
#fvcolorindex 51 3 6 
usemtl m75TransparentClampSClampT
vt 7.915039 -0.180664 0.0
vt 0.000000 -0.180664 0.0
vt 0.000000 1.264648 0.0
f 124/1102 125/1103 122/1104
#fvcolorindex 27 5 5 
usemtl m76TransparentClampSClampT
vt 1.354492 2.751953 0.0
vt -2.750977 -1.345703 0.0
vt 1.350586 -1.349609 0.0
f 76/1105 78/1106 205/1107
#fvcolorindex 16 1 1 
usemtl m77TransparentClampSClampT
vt -0.161133 7.303711 0.0
vt -0.161133 -0.151367 0.0
vt 9.158203 -0.151367 0.0
f 77/1108 152/1109 78/1110
#fvcolorindex 1 1 1 
usemtl m76TransparentClampSClampT
vt 7.042969 2.192383 0.0
vt -7.843750 2.192383 0.0
vt 0.426758 -4.423828 0.0
f 76/1111 77/1112 78/1113
#fvcolorindex 16 1 1 
usemtl m78TransparentClampSClampT
vt 0.000000 1.264648 0.0
vt 0.000000 -0.180664 0.0
vt 7.915039 -0.180664 0.0
f 108/1114 110/1115 109/1116
#fvcolorindex 5 5 27 
g Room03
g Room03_primary
usemtl m16
vt 1.007812 0.215820 0.0
vt 0.285156 0.215820 0.0
vt 0.285156 -0.305664 0.0
v 79.097855 15.193144 91.507980
#joint 33
#vjoint 240
#vcolor 254.000000 254.000000 254.000000 255.000000
v 79.097855 87.193146 91.507980
#joint 33
#vjoint 241
v 31.097855 87.193146 91.507980
#joint 33
#vjoint 242
f 240/1117 241/1118 242/1119
#fvcolorindex 66 66 66 
vt 1.007812 0.215820 0.0
vt 0.285156 -0.305664 0.0
vt 1.007812 -0.306641 0.0
v 31.097855 15.193144 91.507980
#joint 33
#vjoint 243
f 240/1120 242/1121 243/1122
#fvcolorindex 66 66 66 
vt 0.285156 0.215820 0.0
vt 0.043945 0.085938 0.0
vt 0.043945 -0.175781 0.0
v 67.097855 111.193146 91.507980
#joint 33
#vjoint 244
v 43.097855 111.193146 91.507980
#joint 33
#vjoint 245
f 241/1123 244/1124 245/1125
#fvcolorindex 66 66 66 
vt 0.285156 0.215820 0.0
vt 0.043945 -0.175781 0.0
vt 0.285156 -0.305664 0.0
f 241/1126 245/1127 242/1128
#fvcolorindex 66 66 66 
usemtl m27
vt 1.000000 0.000000 0.0
vt 1.000000 0.263672 0.0
vt 0.702148 0.276367 0.0
v 24.097855 43.193146 -220.492020
#joint 33
#vjoint 246
v 86.097855 43.193146 -220.492020
#joint 33
#vjoint 247
v 91.097855 63.193146 -220.492020
#joint 33
#vjoint 248
f 246/1129 247/1130 248/1131
#fvcolorindex 66 66 66 
vt 1.000000 0.000000 0.0
vt 0.702148 0.276367 0.0
vt 0.702148 -0.030273 0.0
v 19.097855 63.193146 -220.492020
#joint 33
#vjoint 249
f 246/1132 248/1133 249/1134
#fvcolorindex 66 66 66 
vt 0.000000 0.000000 0.0
vt 0.702148 -0.030273 0.0
vt 0.702148 0.053711 0.0
v 31.097855 111.193146 -220.492020
#joint 33
#vjoint 250
v 39.097855 63.193146 -220.492020
#joint 33
#vjoint 251
f 250/1135 249/1136 251/1137
#fvcolorindex 66 66 66 
vt 0.702148 0.185547 0.0
vt 0.702148 0.276367 0.0
vt 0.000000 0.204590 0.0
v 70.097855 63.193146 -220.492020
#joint 33
#vjoint 252
v 79.097855 111.193146 -220.492020
#joint 33
#vjoint 253
f 252/1138 248/1139 253/1140
#fvcolorindex 66 66 66 
usemtl m33
vt 0.000000 1.000000 0.0
vt 0.000000 0.000000 0.0
vt 1.000000 0.000000 0.0
v 43.097855 -104.806854 -148.492020
#joint 33
#vjoint 254
v 43.097855 -104.806854 -220.492020
#joint 33
#vjoint 255
v 67.097855 -104.806854 -220.492020
#joint 33
#vjoint 256
f 254/1141 255/1142 256/1143
#fvcolorindex 66 66 66 
vt 0.000000 1.000000 0.0
vt 1.000000 0.000000 0.0
vt 1.000000 1.000000 0.0
v 67.097855 -104.806854 -148.492020
#joint 33
#vjoint 257
f 254/1144 256/1145 257/1146
#fvcolorindex 66 66 66 
vt 0.381836 0.573242 0.0
vt 0.000000 0.573242 0.0
vt 0.000000 0.000000 0.0
v 67.097855 -32.806854 -148.492020
#joint 33
#vjoint 258
v 43.097855 -32.806854 -148.492020
#joint 33
#vjoint 259
f 258/1147 259/1148 254/1149
#fvcolorindex 66 66 66 
vt 0.381836 0.573242 0.0
vt 0.000000 0.000000 0.0
vt 0.381836 0.000000 0.0
f 258/1150 254/1151 257/1152
#fvcolorindex 66 66 66 
vt 0.238281 -0.238281 0.0
vt 0.595703 0.000000 0.0
vt 0.000000 0.000000 0.0
v 55.097855 -32.806854 -124.492020
#joint 33
#vjoint 260
f 258/1153 260/1154 259/1155
#fvcolorindex 66 66 66 
vt 0.000000 0.463867 0.0
vt 0.000000 0.348145 0.0
vt 0.927734 0.348145 0.0
v 79.097855 15.193144 -148.492020
#joint 33
#vjoint 261
v 67.097855 15.193144 -148.492020
#joint 33
#vjoint 262
f 261/1156 262/1157 258/1158
#fvcolorindex 66 66 66 
vt 0.000000 0.000000 0.0
vt 0.333008 0.000000 0.0
vt 0.333008 1.250000 0.0
v 31.097855 -8.806856 -52.492020
#joint 33
#vjoint 263
v 79.097855 -8.806856 -52.492020
#joint 33
#vjoint 264
v 79.097855 -8.806856 307.507996
#joint 33
#vjoint 265
f 263/1159 264/1160 265/1161
#fvcolorindex 66 66 66 
vt 0.000000 0.000000 0.0
vt 0.333008 1.250000 0.0
vt 0.000000 1.250000 0.0
v 31.097855 -8.806856 307.507996
#joint 33
#vjoint 266
f 263/1162 265/1163 266/1164
#fvcolorindex 66 66 66 
vt 0.500000 -0.125000 0.0
vt 0.500000 0.625000 0.0
vt 0.000000 0.500000 0.0
v 91.097855 15.193144 331.507996
#joint 33
#vjoint 267
v 19.097855 15.193144 331.507996
#joint 33
#vjoint 268
f 267/1165 268/1166 266/1167
#fvcolorindex 66 66 66 
vt 0.500000 -0.125000 0.0
vt 0.000000 0.500000 0.0
vt 0.000000 0.000000 0.0
f 267/1168 266/1169 265/1170
#fvcolorindex 66 66 66 
vt 0.500000 -0.125000 0.0
vt 1.000000 -0.125000 0.0
vt 1.000000 0.625000 0.0
v 91.097855 39.193146 331.507996
#joint 33
#vjoint 269
v 19.097855 39.193146 331.507996
#joint 33
#vjoint 270
f 267/1171 269/1172 270/1173
#fvcolorindex 66 66 66 
vt 0.500000 -0.125000 0.0
vt 1.000000 0.625000 0.0
vt 0.500000 0.625000 0.0
f 267/1174 270/1175 268/1176
#fvcolorindex 66 66 66 
vt 0.000000 0.116211 0.0
vt 0.000000 0.000000 0.0
vt 0.927734 0.116211 0.0
v 43.097855 15.193144 -148.492020
#joint 33
#vjoint 271
v 31.097855 15.193144 -148.492020
#joint 33
#vjoint 272
f 271/1177 272/1178 259/1179
#fvcolorindex 66 66 66 
usemtl m79
vt -0.142578 0.126953 0.0
vt 0.063477 0.112305 0.0
vt 0.070312 0.215820 0.0
v 43.097855 111.193146 -220.492020
#joint 33
#vjoint 273
v 43.097855 117.193146 -220.492020
#joint 33
#vjoint 274
f 250/1180 273/1181 274/1182
#fvcolorindex 66 66 66 
vt 0.000000 0.000000 0.0
vt 0.333008 0.000000 0.0
vt 0.000000 0.166992 0.0
v 67.097855 111.193146 -220.492020
#joint 33
#vjoint 275
v 67.097855 117.193146 -220.492020
#joint 33
#vjoint 276
f 275/1183 253/1184 276/1185
#fvcolorindex 66 66 66 
usemtl m57
vt 0.000000 0.000000 0.0
vt 0.333008 0.000000 0.0
vt 0.333008 3.333008 0.0
v 79.097855 15.193144 -28.492020
#joint 33
#vjoint 277
v 67.097855 15.193144 -28.492020
#joint 33
#vjoint 278
f 277/1186 278/1187 262/1188
#fvcolorindex 66 66 66 
vt 0.000000 0.000000 0.0
vt 0.333008 3.333008 0.0
vt 0.000000 3.333008 0.0
f 277/1189 262/1190 261/1191
#fvcolorindex 66 66 66 
vt 0.372070 0.743164 0.0
vt 0.000000 0.743164 0.0
vt 0.000000 0.000000 0.0
v 79.097855 15.193144 331.507996
#joint 33
#vjoint 279
v 79.097855 15.193144 355.507996
#joint 33
#vjoint 280
v 31.097855 15.193144 355.507996
#joint 33
#vjoint 281
f 279/1192 280/1193 281/1194
#fvcolorindex 66 66 66 
vt 0.372070 0.743164 0.0
vt 0.000000 0.000000 0.0
vt 0.372070 0.000000 0.0
v 31.097855 15.193144 331.507996
#joint 33
#vjoint 282
f 279/1195 281/1196 282/1197
#fvcolorindex 66 66 66 
vt 0.303711 3.034180 0.0
vt 0.000000 3.034180 0.0
vt 0.000000 0.000000 0.0
v 43.097855 15.193144 -28.492020
#joint 33
#vjoint 283
v 31.097855 15.193144 -28.492020
#joint 33
#vjoint 284
f 283/1198 284/1199 272/1200
#fvcolorindex 66 66 66 
vt 0.303711 3.034180 0.0
vt 0.000000 0.000000 0.0
vt 0.303711 0.000000 0.0
f 283/1201 272/1202 271/1203
#fvcolorindex 66 66 66 
usemtl m80
vt 0.286133 0.660156 0.0
vt 0.518555 0.506836 0.0
vt 0.521484 0.817383 0.0
v 30.097855 78.193146 632.507996
#joint 33
#vjoint 285
v 55.000000 62.624428 632.722717
#joint 0
#vjoint 286
#vcolor 0.000000 0.000000 0.000000 255.000000
v 55.097855 92.193146 632.507996
#joint 33
#vjoint 287
f 285/1204 286/1205 287/1206
#fvcolorindex 66 67 66 
usemtl m81
vt 0.518555 0.506836 0.0
vt 0.753906 0.664062 0.0
vt 0.521484 0.817383 0.0
v 80.097855 78.193146 632.507996
#joint 33
#vjoint 288
#vcolor 68.000000 68.000000 68.000000 255.000000
f 286/1207 288/1208 287/1209
#fvcolorindex 67 68 66 
usemtl m82
vt 0.751953 0.353516 0.0
vt 0.753906 0.664062 0.0
vt 0.518555 0.506836 0.0
v 80.097855 49.193146 632.507996
#joint 33
#vjoint 289
#vcolor 48.000000 48.000000 48.000000 255.000000
f 289/1210 288/1211 286/1212
#fvcolorindex 69 68 67 
usemtl m80
vt 0.516602 0.196289 0.0
vt 0.751953 0.353516 0.0
vt 0.518555 0.506836 0.0
v 55.097855 34.193146 632.507996
#joint 33
#vjoint 290
f 290/1213 289/1214 286/1215
#fvcolorindex 66 69 67 
vt 0.284180 0.349609 0.0
vt 0.516602 0.196289 0.0
vt 0.518555 0.506836 0.0
v 30.097855 49.193146 632.507996
#joint 33
#vjoint 291
f 291/1216 290/1217 286/1218
#fvcolorindex 66 66 67 
vt 0.284180 0.349609 0.0
vt 0.518555 0.506836 0.0
vt 0.286133 0.660156 0.0
f 291/1219 286/1220 285/1221
#fvcolorindex 66 67 66 
g Room05
g Room05_primary
usemtl m16
vt 0.000000 0.000000 0.0
vt 0.000000 0.233398 0.0
vt 1.000000 0.233398 0.0
v 45.849785 -58.186150 -419.154358
#joint 40
#vjoint 292
#vcolor 254.000000 254.000000 254.000000 255.000000
v 64.849785 -58.186150 -419.154358
#joint 40
#vjoint 293
v 64.849785 -58.186150 -310.154358
#joint 40
#vjoint 294
f 292/1222 293/1223 294/1224
#fvcolorindex 70 70 70 
vt 0.000000 0.000000 0.0
vt 1.000000 0.233398 0.0
vt 1.000000 0.000000 0.0
v 45.849785 -58.186150 -310.154358
#joint 40
#vjoint 295
f 292/1225 294/1226 295/1227
#fvcolorindex 70 70 70 
vt 1.000000 0.000000 0.0
vt 0.000000 0.000000 0.0
vt 0.000000 3.001953 0.0
v 64.849785 74.813850 -419.154358
#joint 40
#vjoint 296
f 294/1228 293/1229 296/1230
#fvcolorindex 70 70 70 
vt 1.000000 0.000000 0.0
vt 0.000000 3.001953 0.0
vt 1.000000 3.001953 0.0
v 64.849785 74.813850 -310.154358
#joint 40
#vjoint 297
f 294/1231 296/1232 297/1233
#fvcolorindex 70 70 70 
vt 0.000000 0.000000 0.0
vt 1.000000 0.000000 0.0
vt 1.000000 2.991211 0.0
v 45.849785 74.813850 -310.154358
#joint 40
#vjoint 298
f 292/1234 295/1235 298/1236
#fvcolorindex 70 70 70 
vt 0.000000 0.000000 0.0
vt 1.000000 2.991211 0.0
vt 0.000000 2.991211 0.0
v 45.849785 74.813850 -419.154358
#joint 40
#vjoint 299
f 292/1237 298/1238 299/1239
#fvcolorindex 70 70 70 
usemtl m83
vt 1.000000 0.539062 0.0
vt 1.000000 0.360352 0.0
vt 0.000000 0.356445 0.0
f 298/1240 297/1241 296/1242
#fvcolorindex 70 70 70 
vt 1.000000 0.539062 0.0
vt 0.000000 0.356445 0.0
vt 0.000000 0.536133 0.0
f 298/1243 296/1244 299/1245
#fvcolorindex 70 70 70 
usemtl m57
vt 0.490234 0.000000 0.0
vt 0.000000 0.000000 0.0
vt -0.008789 1.001953 0.0
f 295/1246 294/1247 297/1248
#fvcolorindex 70 70 70 
vt 0.490234 0.000000 0.0
vt -0.008789 1.001953 0.0
vt 0.481445 1.001953 0.0
f 295/1249 297/1250 298/1251
#fvcolorindex 70 70 70 
vt -0.019531 1.000000 0.0
vt 0.479492 1.000000 0.0
vt 0.499023 0.000000 0.0
f 299/1252 296/1253 293/1254
#fvcolorindex 70 70 70 
vt -0.019531 1.000000 0.0
vt 0.499023 0.000000 0.0
vt 0.000000 0.000000 0.0
f 299/1255 293/1256 292/1257
#fvcolorindex 70 70 70 
g Room07
g Room07_primary
usemtl m16
vt 0.000000 0.000000 0.0
vt 0.000000 0.233398 0.0
vt 1.000000 0.233398 0.0
v 212.170105 -109.543404 160.542145
#joint 41
#vjoint 300
#vcolor 254.000000 254.000000 254.000000 255.000000
v 231.170105 -109.543404 160.542145
#joint 41
#vjoint 301
v 231.170105 -109.543404 269.542145
#joint 41
#vjoint 302
f 300/1258 301/1259 302/1260
#fvcolorindex 71 71 71 
vt 0.000000 0.000000 0.0
vt 1.000000 0.233398 0.0
vt 1.000000 0.000000 0.0
v 212.170105 -109.543404 269.542145
#joint 41
#vjoint 303
f 300/1261 302/1262 303/1263
#fvcolorindex 71 71 71 
vt 1.000000 0.000000 0.0
vt 0.000000 0.000000 0.0
vt 0.000000 3.001953 0.0
v 231.170105 23.456596 160.542145
#joint 41
#vjoint 304
f 302/1264 301/1265 304/1266
#fvcolorindex 71 71 71 
vt 1.000000 0.000000 0.0
vt 0.000000 3.001953 0.0
vt 1.000000 3.001953 0.0
v 231.170105 23.456596 269.542145
#joint 41
#vjoint 305
f 302/1267 304/1268 305/1269
#fvcolorindex 71 71 71 
vt 0.000000 0.000000 0.0
vt 1.000000 0.000000 0.0
vt 1.000000 2.991211 0.0
v 212.170105 23.456596 269.542145
#joint 41
#vjoint 306
f 300/1270 303/1271 306/1272
#fvcolorindex 71 71 71 
vt 0.000000 0.000000 0.0
vt 1.000000 2.991211 0.0
vt 0.000000 2.991211 0.0
v 212.170105 23.456596 160.542145
#joint 41
#vjoint 307
f 300/1273 306/1274 307/1275
#fvcolorindex 71 71 71 
usemtl m83
vt 1.000000 0.539062 0.0
vt 1.000000 0.360352 0.0
vt 0.000000 0.356445 0.0
f 306/1276 305/1277 304/1278
#fvcolorindex 71 71 71 
vt 1.000000 0.539062 0.0
vt 0.000000 0.356445 0.0
vt 0.000000 0.536133 0.0
f 306/1279 304/1280 307/1281
#fvcolorindex 71 71 71 
usemtl m57
vt 0.490234 0.000000 0.0
vt 0.000000 0.000000 0.0
vt -0.008789 1.001953 0.0
f 303/1282 302/1283 305/1284
#fvcolorindex 71 71 71 
vt 0.490234 0.000000 0.0
vt -0.008789 1.001953 0.0
vt 0.481445 1.001953 0.0
f 303/1285 305/1286 306/1287
#fvcolorindex 71 71 71 
vt -0.019531 1.000000 0.0
vt 0.479492 1.000000 0.0
vt 0.499023 0.000000 0.0
f 307/1288 304/1289 301/1290
#fvcolorindex 71 71 71 
vt -0.019531 1.000000 0.0
vt 0.499023 0.000000 0.0
vt 0.000000 0.000000 0.0
f 307/1291 301/1292 300/1293
#fvcolorindex 71 71 71 
