# Created by SubDrag and the GoldenEye Setup Editor V4.4
mtllib Gun0010.mtl
#joint 0
#jointposition 234.348785 -20.375601 -74.143898
#joint 1
#jointposition -0.126129 -34.500000 -403.726105
#joint 2
#jointposition 0.000001 -20.375574 -74.143860
#joint 3
#jointposition 28.404760 -54.346611 -32.664295
#joint 4
#jointposition 50.075203 -78.841194 -10.664248
#joint 5
#jointposition 28.643808 -16.714527 20.778549
#joint 6
#jointposition 26.518341 -24.155291 60.154758
#joint 7
#jointposition 24.862719 -25.637974 87.085503
#joint 8
#jointposition 8.820323 -11.296313 21.695198
#joint 9
#jointposition 8.668718 -23.348385 71.418152
#joint 10
#jointposition 7.570724 -26.182207 98.349426
#joint 11
#jointposition -7.449820 -15.536673 21.601517
#joint 12
#jointposition -6.777196 -21.532187 62.353848
#joint 13
#jointposition -6.290759 -23.494061 85.077034
#joint 14
#jointposition -23.590879 -23.057791 21.828247
#joint 15
#jointposition -21.894306 -25.130569 56.929543
#joint 16
#jointposition -20.740978 -24.727604 74.077179
#joint 17
#jointposition 234.474915 -34.500000 -403.725983
#joint 18
#jointposition 234.348785 -20.375599 -74.143890
#joint 19
#jointposition 205.943985 -54.346600 -32.664291
#joint 20
#jointposition 184.273590 -78.841202 -10.664192
#joint 21
#jointposition 205.704987 -16.714600 20.778511
#joint 22
#jointposition 207.830490 -24.155300 60.154812
#joint 23
#jointposition 209.561584 -25.811800 87.094810
#joint 24
#jointposition 225.528473 -11.296299 21.695213
#joint 25
#jointposition 225.680069 -23.348400 71.418114
#joint 26
#jointposition 226.778076 -26.182199 98.349411
#joint 27
#jointposition 241.798599 -15.536699 21.601509
#joint 28
#jointposition 241.125977 -21.532200 62.353809
#joint 29
#jointposition 240.639542 -23.494101 85.077011
#joint 30
#jointposition 257.939697 -23.057798 21.828209
#joint 31
#jointposition 256.243103 -25.130598 56.929508
#joint 32
#jointposition 255.089798 -24.727598 74.077209
#joint 33
#jointposition -0.480307 31.275736 10.133331
#joint 34
#jointposition 13.235352 63.476257 508.688049
#joint 35
#jointposition 13.235400 63.507454 522.535095
#joint 36
#jointposition 13.235400 63.472809 560.010376
#joint 37
#jointposition 11.289821 -1.871771 24.502022
#joint 38
#jointposition 34.615410 54.136559 -60.864853
#joint 39
#jointposition -0.480307 -28.763773 -156.427887
#joint 40
#jointposition -33.552429 -3.673389 265.174011
#connection 0 1
#connection 1 2
#connection 2 3
#connection 3 4
#connection 2 5
#connection 5 6
#connection 6 7
#connection 2 8
#connection 8 9
#connection 9 10
#connection 2 11
#connection 11 12
#connection 12 13
#connection 2 14
#connection 14 15
#connection 15 16
#connection 2 33
#connection 33 34
#connection 34 35
#connection 34 36
#connection 33 37
#connection 37 38
#connection 33 39
#connection 0 17
#connection 17 18
#connection 18 19
#connection 19 20
#connection 18 21
#connection 21 22
#connection 22 23
#connection 18 24
#connection 24 25
#connection 25 26
#connection 18 27
#connection 27 28
#connection 28 29
#connection 18 30
#connection 30 31
#connection 31 32
#connection 18 40
g Room2A
g Room2A_primary
usemtl m0
vt 1.000000 1.000000 0.0
vt 0.888672 1.000000 0.0
vt 0.888672 0.000000 0.0
v 13.519692 -27.763773 -194.427887
#joint 39
#vjoint 1
#vcolor 255.000000 255.000000 255.000000 255.000000
v 13.519692 -27.763773 -118.427887
#joint 39
#vjoint 2
v 29.519693 -27.763773 -118.427887
#joint 39
#vjoint 3
f 1/1 2/2 3/3
#fvcolorindex 1 1 1 
vt 1.000000 1.000000 0.0
vt 0.888672 0.000000 0.0
vt 1.000000 0.000000 0.0
v 29.519693 -27.763773 -194.427887
#joint 39
#vjoint 4
f 1/4 3/5 4/6
#fvcolorindex 1 1 1 
usemtl m1EnvMappingTexScaleS0.031250TexScaleT0.031250
vt 0.000000 0.000000 0.0
vt 0.000000 0.000000 0.0
vt 0.000000 0.000000 0.0
v 29.519693 -119.763771 -118.427887
#joint 39
#vjoint 5
#vcolor 120.000000 232.000000 30.000000 255.000000
v 29.519693 -139.763779 -194.427887
#joint 39
#vjoint 6
#vcolor 116.000000 217.000000 227.000000 255.000000
#vcolor 114.000000 46.000000 227.000000 255.000000
vn 0.944882 1.826772 0.236220
vn 0.913386 1.708661 1.787402
vn 0.897638 0.362205 1.787402
f 5/7/1 6/8/2 4/9/3
#fvcolorindex 2 3 4 
vt 0.000000 0.000000 0.0
vt 0.000000 0.000000 0.0
vt 0.000000 0.000000 0.0
#vcolor 114.000000 46.000000 29.000000 255.000000
vn 0.944882 1.826772 0.236220
vn 0.897638 0.362205 1.787402
vn 0.897638 0.362205 0.228346
f 5/10/4 4/11/5 3/12/6
#fvcolorindex 2 4 5 
usemtl m2EnvMappingTexScaleS0.031250TexScaleT0.031250
vt 0.000000 0.000000 0.0
vt 0.000000 0.000000 0.0
vt 0.000000 0.000000 0.0
#vcolor 142.000000 210.000000 227.000000 255.000000
#vcolor 142.000000 210.000000 29.000000 255.000000
v 13.519692 -139.763779 -194.427887
#joint 39
#vjoint 7
#vcolor 140.000000 39.000000 29.000000 255.000000
vn 1.118110 1.653543 1.787402
vn 1.118110 1.653543 0.228346
vn 1.102362 0.307087 0.228346
f 2/13/7 1/14/8 7/15/9
#fvcolorindex 6 7 8 
vt 0.000000 0.000000 0.0
vt 0.000000 0.000000 0.0
vt 0.000000 0.000000 0.0
v 13.519692 -119.763771 -118.427887
#joint 39
#vjoint 8
#vcolor 136.000000 24.000000 226.000000 255.000000
vn 1.118110 1.653543 1.787402
vn 1.102362 0.307087 0.228346
vn 1.070866 0.188976 1.779528
f 2/16/10 7/17/11 8/18/12
#fvcolorindex 6 8 9 
usemtl m3
vt -0.298828 1.120117 0.0
vt 0.634766 1.369141 0.0
vt 1.000000 0.000000 0.0
#vcolor 240.000000 240.000000 240.000000 255.000000
f 1/19 4/20 6/21
#fvcolorindex 10 10 10 
vt -0.298828 1.120117 0.0
vt 1.000000 0.000000 0.0
vt 0.000000 0.000000 0.0
f 1/22 6/23 7/24
#fvcolorindex 10 10 10 
vt 0.000000 0.000000 0.0
vt 1.000000 0.000000 0.0
vt 0.634766 1.369141 0.0
f 8/25 5/26 3/27
#fvcolorindex 10 10 10 
vt 0.000000 0.000000 0.0
vt 0.634766 1.369141 0.0
vt -0.298828 1.120117 0.0
f 8/28 3/29 2/30
#fvcolorindex 10 10 10 
usemtl m4TransparentClampSClampT
vt 0.000000 0.000000 0.0
vt 1.000000 0.000000 0.0
vt 1.000000 2.871094 0.0
#vcolor 240.000000 240.000000 240.000000 191.000000
f 5/31 6/32 4/33
#fvcolorindex 11 11 11 
vt 0.000000 0.000000 0.0
vt 1.000000 2.871094 0.0
vt 0.000000 2.349609 0.0
f 5/34 4/35 3/36
#fvcolorindex 11 11 11 
vt 0.000000 2.349609 0.0
vt 1.000000 2.871094 0.0
vt 1.000000 0.000000 0.0
f 2/37 1/38 7/39
#fvcolorindex 11 11 11 
vt 0.000000 2.349609 0.0
vt 1.000000 0.000000 0.0
vt 0.000000 0.000000 0.0
f 2/40 7/41 8/42
#fvcolorindex 11 11 11 
g Room2C
g Room2C_primary
usemtl m5TransparentCullBothClampSClampT
vt 0.968750 0.968750 0.0
vt 0.000000 0.968750 0.0
vt 0.000000 0.000000 0.0
v 13.235400 150.507446 522.535095
#joint 35
#vjoint 9
#vcolor 255.000000 255.000000 255.000000 204.000000
v 89.235397 150.507446 522.535095
#joint 35
#vjoint 10
v 89.235397 65.507454 522.535095
#joint 35
#vjoint 11
f 9/43 10/44 11/45
#fvcolorindex 12 12 12 
vt 0.968750 0.968750 0.0
vt 0.000000 0.000000 0.0
vt 0.968750 0.000000 0.0
v 13.235400 65.507454 522.535095
#joint 35
#vjoint 12
f 9/46 11/47 12/48
#fvcolorindex 12 12 12 
usemtl m6TransparentCullBothClampSClampT
vt 0.968750 0.968750 0.0
vt 0.000000 0.968750 0.0
vt 0.000000 0.000000 0.0
v -62.764599 150.507446 522.535095
#joint 35
#vjoint 13
f 13/49 9/50 12/51
#fvcolorindex 12 12 12 
vt 0.968750 0.968750 0.0
vt 0.000000 0.000000 0.0
vt 0.968750 0.000000 0.0
v -62.764599 65.507454 522.535095
#joint 35
#vjoint 14
f 13/52 12/53 14/54
#fvcolorindex 12 12 12 
usemtl m7TransparentCullBothClampSClampT
vt 0.968750 0.968750 0.0
vt 0.000000 0.968750 0.0
vt 0.000000 0.000000 0.0
v 89.235397 -19.492546 522.535095
#joint 35
#vjoint 15
f 12/55 11/56 15/57
#fvcolorindex 12 12 12 
vt 0.968750 0.968750 0.0
vt 0.000000 0.000000 0.0
vt 0.968750 0.000000 0.0
v 13.235400 -19.492546 522.535095
#joint 35
#vjoint 16
f 12/58 15/59 16/60
#fvcolorindex 12 12 12 
usemtl m8TransparentCullBothClampSClampT
vt 0.968750 0.968750 0.0
vt 0.000000 0.968750 0.0
vt 0.000000 0.000000 0.0
f 14/61 12/62 16/63
#fvcolorindex 12 12 12 
vt 0.968750 0.968750 0.0
vt 0.000000 0.000000 0.0
vt 0.968750 0.000000 0.0
v -62.764599 -19.492546 522.535095
#joint 35
#vjoint 17
f 14/64 16/65 17/66
#fvcolorindex 12 12 12 
g Room2D
usemtl m9TransparentCullBothClampSClampT
vt 1.000000 0.000000 0.0
vt 1.000000 1.000000 0.0
vt 0.000000 1.000000 0.0
v 250.235352 84.476257 508.688049
#joint 34
#vjoint 18
#vcolor 255.000000 255.000000 255.000000 229.000000
v 254.235352 45.476257 508.688049
#joint 34
#vjoint 19
v 34.235352 25.476257 508.688049
#joint 34
#vjoint 20
f 18/67 19/68 20/69
#fvcolorindex 13 13 13 
vt 1.000000 0.000000 0.0
vt 0.000000 1.000000 0.0
vt 0.000000 0.000000 0.0
v 26.235352 104.476257 508.688049
#joint 34
#vjoint 21
f 18/70 20/71 21/72
#fvcolorindex 13 13 13 
vt 1.000000 0.000000 0.0
vt 1.000000 1.000000 0.0
vt 0.000000 1.000000 0.0
v 28.235352 -172.523743 508.688049
#joint 34
#vjoint 22
v -10.764648 -166.523743 508.688049
#joint 34
#vjoint 23
v -22.764648 57.476257 508.688049
#joint 34
#vjoint 24
f 22/73 23/74 24/75
#fvcolorindex 13 13 13 
vt 1.000000 0.000000 0.0
vt 0.000000 1.000000 0.0
vt 0.000000 0.000000 0.0
v 55.235352 46.476257 508.688049
#joint 34
#vjoint 25
f 22/76 24/77 25/78
#fvcolorindex 13 13 13 
vt 0.000000 0.000000 0.0
vt 0.000000 1.000000 0.0
vt 1.000000 1.000000 0.0
v -3.764648 104.476257 508.688049
#joint 34
#vjoint 26
v 4.235352 25.476257 508.688049
#joint 34
#vjoint 27
v -219.764648 45.476257 508.688049
#joint 34
#vjoint 28
f 26/79 27/80 28/81
#fvcolorindex 13 13 13 
vt 0.000000 0.000000 0.0
vt 1.000000 1.000000 0.0
vt 1.000000 0.000000 0.0
v -223.764648 84.476257 508.688049
#joint 34
#vjoint 29
f 26/82 28/83 29/84
#fvcolorindex 13 13 13 
vt 0.000000 0.000000 0.0
vt 0.000000 1.000000 0.0
vt 1.000000 1.000000 0.0
v 56.235352 78.476257 508.688049
#joint 34
#vjoint 30
v -21.764648 85.476257 508.688049
#joint 34
#vjoint 31
v -6.764648 305.476257 508.688049
#joint 34
#vjoint 32
f 30/85 31/86 32/87
#fvcolorindex 13 13 13 
vt 0.000000 0.000000 0.0
vt 1.000000 1.000000 0.0
vt 1.000000 0.000000 0.0
v 32.235352 302.476257 508.688049
#joint 34
#vjoint 33
f 30/88 32/89 33/90
#fvcolorindex 13 13 13 
g Room2E
g Room2E_primary
usemtl m10
vt 0.160156 0.001953 0.0
vt 0.000000 0.182617 0.0
vt 1.000000 0.183594 0.0
v -8.480308 89.275734 274.133331
#joint 33
#vjoint 34
#vcolor 152.000000 152.000000 152.000000 255.000000
v -18.480307 79.275734 274.133331
#joint 33
#vjoint 35
v 44.519691 79.275734 274.133331
#joint 33
#vjoint 36
f 34/91 35/92 36/93
#fvcolorindex 14 14 14 
vt 0.160156 0.001953 0.0
vt 1.000000 0.183594 0.0
vt 0.839844 0.001953 0.0
v 34.519691 89.275734 274.133331
#joint 33
#vjoint 37
f 34/94 36/95 37/96
#fvcolorindex 14 14 14 
vt 2.046875 0.298828 0.0
vt 1.493164 0.298828 0.0
vt 1.493164 0.186523 0.0
v 9.519692 -27.724264 71.133331
#joint 33
#vjoint 38
v 9.519692 -27.724264 25.133331
#joint 33
#vjoint 39
#vcolor 103.000000 103.000000 103.000000 255.000000
v 16.519693 -27.724264 25.133331
#joint 33
#vjoint 40
f 38/97 39/98 40/99
#fvcolorindex 14 15 15 
vt 2.046875 0.298828 0.0
vt 1.493164 0.186523 0.0
vt 2.046875 0.186523 0.0
v 16.519693 -27.724264 71.133331
#joint 33
#vjoint 41
f 38/100 40/101 41/102
#fvcolorindex 14 15 14 
usemtl m11
vt 1.493164 0.298828 0.0
vt 1.000000 0.485352 0.0
vt 1.000000 0.000000 0.0
v -3.480307 -2.724264 -15.866669
#joint 33
#vjoint 42
v 29.519693 -2.724264 -15.866669
#joint 33
#vjoint 43
f 39/103 42/104 43/105
#fvcolorindex 15 15 15 
vt 1.493164 0.298828 0.0
vt 1.000000 0.000000 0.0
vt 1.493164 0.186523 0.0
f 39/106 43/107 40/108
#fvcolorindex 15 15 15 
usemtl m12
vt -1.514648 -0.086914 0.0
vt -1.513672 -0.194336 0.0
vt -1.843750 0.126953 0.0
v 9.519692 -22.724264 71.133331
#joint 33
#vjoint 44
#vcolor 202.000000 202.000000 202.000000 255.000000
#vcolor 221.000000 221.000000 221.000000 255.000000
v -3.480307 -12.724264 86.133331
#joint 33
#vjoint 45
f 44/109 38/110 45/111
#fvcolorindex 16 17 17 
usemtl m13
vt -1.514648 -0.086914 0.0
vt -0.527344 -0.084961 0.0
vt -1.513672 -0.194336 0.0
#vcolor 235.000000 235.000000 235.000000 255.000000
v 9.519692 -22.724264 25.133331
#joint 33
#vjoint 46
#vcolor 215.000000 215.000000 215.000000 255.000000
f 44/112 46/113 38/114
#fvcolorindex 18 19 17 
usemtl m12
vt -1.514648 -0.086914 0.0
vt -1.843750 0.126953 0.0
vt -1.624023 0.126953 0.0
v 9.519692 -12.724264 76.133331
#joint 33
#vjoint 47
f 44/115 45/116 47/117
#fvcolorindex 16 17 17 
usemtl m14
vt -1.624023 0.126953 0.0
vt -1.843750 0.126953 0.0
vt -1.405273 0.341797 0.0
#vcolor 120.000000 120.000000 120.000000 255.000000
v 4.519693 -2.724264 66.133331
#joint 33
#vjoint 48
f 47/118 45/119 48/120
#fvcolorindex 20 20 20 
usemtl m13
vt -1.405273 0.341797 0.0
vt -1.843750 0.126953 0.0
vt -0.967773 0.984375 0.0
v -3.480307 28.275736 45.133331
#joint 33
#vjoint 49
#vcolor 167.000000 167.000000 167.000000 255.000000
f 48/121 45/122 49/123
#fvcolorindex 18 17 21 
usemtl m15
vt -0.514648 -0.160156 0.0
vt -0.267578 -0.399414 0.0
vt -0.267578 -0.319336 0.0
v 29.519693 -12.724264 86.133331
#joint 33
#vjoint 50
v 16.519693 -22.724264 71.133331
#joint 33
#vjoint 51
f 50/124 41/125 51/126
#fvcolorindex 17 17 16 
vt -0.267578 -0.399414 0.0
vt 0.471680 -0.318359 0.0
vt -0.267578 -0.319336 0.0
v 16.519693 -22.724264 25.133331
#joint 33
#vjoint 52
f 41/127 52/128 51/129
#fvcolorindex 17 19 18 
vt -0.349609 -0.160156 0.0
vt -0.514648 -0.160156 0.0
vt -0.267578 -0.319336 0.0
v 16.519693 -12.724264 76.133331
#joint 33
#vjoint 53
f 53/130 50/131 51/132
#fvcolorindex 17 17 16 
usemtl m14
vt -0.186523 0.000000 0.0
vt -0.514648 -0.160156 0.0
vt -0.349609 -0.160156 0.0
v 21.519693 -2.724264 66.133331
#joint 33
#vjoint 54
f 54/133 50/134 53/135
#fvcolorindex 20 20 20 
usemtl m16
vt 0.141602 0.478516 0.0
vt -0.514648 -0.160156 0.0
vt -0.186523 0.000000 0.0
v 29.519693 28.275736 45.133331
#joint 33
#vjoint 55
f 55/136 50/137 54/138
#fvcolorindex 21 17 18 
usemtl m17
vt 0.470703 0.000977 0.0
vt 0.141602 0.478516 0.0
vt -0.186523 0.000000 0.0
v 21.519693 -2.724264 25.133331
#joint 33
#vjoint 56
#vcolor 197.000000 197.000000 197.000000 255.000000
f 56/139 55/140 54/141
#fvcolorindex 22 21 18 
usemtl m16
vt 0.469727 0.479492 0.0
vt 0.141602 0.478516 0.0
vt 0.470703 0.000977 0.0
v 29.519693 28.275736 25.133331
#joint 33
#vjoint 57
f 57/142 55/143 56/144
#fvcolorindex 21 21 22 
usemtl m18
vt 1.127930 0.000000 0.0
vt 1.125977 1.118164 0.0
vt 0.469727 0.479492 0.0
#vcolor 216.000000 216.000000 216.000000 255.000000
v 29.519693 68.275734 -15.866669
#joint 33
#vjoint 58
#vcolor 48.000000 48.000000 48.000000 255.000000
f 43/145 58/146 57/147
#fvcolorindex 23 24 21 
usemtl m19
vt 0.471680 -0.318359 0.0
vt 0.471680 -0.398438 0.0
vt 1.127930 0.000000 0.0
f 52/148 40/149 43/150
#fvcolorindex 19 18 23 
usemtl m18
vt 1.127930 0.000000 0.0
vt 0.470703 0.000977 0.0
vt 0.471680 -0.318359 0.0
f 43/151 56/152 52/153
#fvcolorindex 23 22 19 
usemtl m16
vt 0.469727 0.479492 0.0
vt 0.470703 0.000977 0.0
vt 1.127930 0.000000 0.0
f 57/154 56/155 43/156
#fvcolorindex 21 22 23 
usemtl m15
vt -0.267578 -0.399414 0.0
vt 0.471680 -0.398438 0.0
vt 0.471680 -0.318359 0.0
f 41/157 40/158 52/159
#fvcolorindex 17 18 19 
usemtl m18
vt 1.127930 0.000000 0.0
vt 2.198242 0.000000 0.0
vt 2.030273 0.163086 0.0
v 29.519693 -2.724264 -81.866669
#joint 33
#vjoint 59
v 29.519693 7.275736 -71.866669
#joint 33
#vjoint 60
#vcolor 136.000000 136.000000 136.000000 255.000000
f 43/160 59/161 60/162
#fvcolorindex 23 18 25 
vt 1.127930 0.000000 0.0
vt 2.030273 0.163086 0.0
vt 1.126953 0.161133 0.0
v 29.519693 7.275736 -15.866669
#joint 33
#vjoint 61
f 43/163 60/164 61/165
#fvcolorindex 23 25 14 
usemtl m20
vt 0.000000 0.000000 0.0
vt 0.526367 0.000000 0.0
vt 0.604492 0.254883 0.0
#vcolor 255.000000 255.000000 255.000000 255.000000
f 54/166 53/167 47/168
#fvcolorindex 26 26 26 
vt 0.000000 0.000000 0.0
vt 0.604492 0.254883 0.0
vt 0.170898 0.551758 0.0
f 54/169 47/170 48/171
#fvcolorindex 26 26 26 
vt 0.000000 0.000000 0.0
vt 0.000000 0.422852 0.0
vt -0.630859 0.422852 0.0
f 51/172 44/173 47/174
#fvcolorindex 26 26 26 
vt 0.000000 0.000000 0.0
vt -0.630859 0.422852 0.0
vt -0.630859 0.000000 0.0
f 51/175 47/176 53/177
#fvcolorindex 26 26 26 
vt 0.000000 0.000000 0.0
vt 1.000000 0.000000 0.0
vt 1.000000 0.406250 0.0
f 56/178 54/179 48/180
#fvcolorindex 26 26 26 
vt 0.000000 0.000000 0.0
vt 1.000000 0.406250 0.0
vt 0.000000 0.406250 0.0
v 4.519693 -2.724264 25.133331
#joint 33
#vjoint 62
f 56/181 48/182 62/183
#fvcolorindex 26 26 26 
vt 0.000000 0.000000 0.0
vt 0.000000 0.405273 0.0
vt -2.429688 0.405273 0.0
f 52/184 46/185 44/186
#fvcolorindex 26 26 26 
vt 0.000000 0.000000 0.0
vt -2.429688 0.405273 0.0
vt -2.429688 0.000000 0.0
f 52/187 44/188 51/189
#fvcolorindex 26 26 26 
vt -0.636719 0.210938 0.0
vt -0.589844 0.000000 0.0
vt 0.000000 0.000000 0.0
f 46/190 52/191 56/192
#fvcolorindex 26 26 26 
vt -0.636719 0.210938 0.0
vt 0.000000 0.000000 0.0
vt -0.100586 0.458008 0.0
f 46/193 56/194 62/195
#fvcolorindex 26 26 26 
usemtl m14
vt -0.129883 0.000000 0.0
vt 0.000000 0.000000 0.0
vt 0.000000 -0.496094 0.0
v 44.519691 79.275734 -15.866669
#joint 33
#vjoint 63
v 44.519691 68.275734 -15.866669
#joint 33
#vjoint 64
f 63/196 64/197 58/198
#fvcolorindex 20 20 20 
vt -0.129883 0.000000 0.0
vt 0.000000 -0.496094 0.0
vt -0.202148 -0.368164 0.0
v 24.519693 89.275734 -15.866669
#joint 33
#vjoint 65
f 63/199 58/200 65/201
#fvcolorindex 20 20 15 
vt -0.129883 0.000000 0.0
vt -0.202148 -0.368164 0.0
vt -0.260742 -0.331055 0.0
v 34.519691 89.275734 -15.866669
#joint 33
#vjoint 66
f 63/202 65/203 66/204
#fvcolorindex 20 15 20 
vt 0.000000 1.000000 0.0
vt 0.000000 0.000000 0.0
vt 1.000000 0.000000 0.0
v -18.480307 28.275736 45.133331
#joint 33
#vjoint 67
v 44.519691 28.275736 45.133331
#joint 33
#vjoint 68
v 44.519691 -17.724264 91.133331
#joint 33
#vjoint 69
f 67/205 68/206 69/207
#fvcolorindex 20 20 20 
vt 0.000000 1.000000 0.0
vt 1.000000 0.000000 0.0
vt 1.000000 1.000000 0.0
v -18.480307 -17.724264 91.133331
#joint 33
#vjoint 70
f 67/208 69/209 70/210
#fvcolorindex 20 20 20 
vt 1.041992 0.000000 0.0
vt 1.041992 -0.496094 0.0
vt 0.000000 -0.496094 0.0
v 44.519691 28.275736 25.133331
#joint 33
#vjoint 71
f 71/211 57/212 58/213
#fvcolorindex 20 20 20 
vt 1.041992 0.000000 0.0
vt 0.000000 -0.496094 0.0
vt 0.000000 0.000000 0.0
f 71/214 58/215 64/216
#fvcolorindex 20 20 20 
vt 1.301758 0.000000 0.0
vt 1.301758 -0.496094 0.0
vt 1.041992 -0.496094 0.0
f 68/217 55/218 57/219
#fvcolorindex 20 20 20 
vt 1.301758 0.000000 0.0
vt 1.041992 -0.496094 0.0
vt 1.041992 0.000000 0.0
f 68/220 57/221 71/222
#fvcolorindex 20 20 20 
vt -0.260742 -0.331055 0.0
vt -0.202148 -0.368164 0.0
vt 0.000000 -0.496094 0.0
v -8.480308 89.275734 -15.866669
#joint 33
#vjoint 72
v 1.519693 89.275734 -15.866669
#joint 33
#vjoint 73
v -3.480307 68.275734 -15.866669
#joint 33
#vjoint 74
f 72/223 73/224 74/225
#fvcolorindex 20 15 20 
vt -0.260742 -0.331055 0.0
vt 0.000000 -0.496094 0.0
vt 0.000000 0.000000 0.0
v -18.480307 68.275734 -15.866669
#joint 33
#vjoint 75
f 72/226 74/227 75/228
#fvcolorindex 20 20 20 
vt -0.260742 -0.331055 0.0
vt 0.000000 0.000000 0.0
vt -0.129883 0.000000 0.0
v -18.480307 79.275734 -15.866669
#joint 33
#vjoint 76
f 72/229 75/230 76/231
#fvcolorindex 20 20 20 
usemtl m13
vt -0.186523 0.000000 0.0
vt 0.141602 0.478516 0.0
vt 0.470703 0.000977 0.0
f 48/232 49/233 62/234
#fvcolorindex 18 21 22 
usemtl m17
vt 0.470703 0.000977 0.0
vt 0.141602 0.478516 0.0
vt 0.469727 0.479492 0.0
v -3.480307 28.275736 25.133331
#joint 33
#vjoint 77
f 62/235 49/236 77/237
#fvcolorindex 22 21 21 
usemtl m16
vt 0.469727 0.479492 0.0
vt 1.125977 1.118164 0.0
vt 1.127930 0.000000 0.0
f 77/238 74/239 42/240
#fvcolorindex 21 24 23 
usemtl m18
vt 1.127930 0.000000 0.0
vt 0.471680 -0.398438 0.0
vt 0.471680 -0.318359 0.0
f 42/241 39/242 46/243
#fvcolorindex 23 18 19 
usemtl m19
vt 0.471680 -0.318359 0.0
vt 0.470703 0.000977 0.0
vt 1.127930 0.000000 0.0
f 46/244 62/245 42/246
#fvcolorindex 19 22 23 
usemtl m18
vt 1.127930 0.000000 0.0
vt 0.470703 0.000977 0.0
vt 0.469727 0.479492 0.0
f 42/247 62/248 77/249
#fvcolorindex 23 22 21 
usemtl m19
vt 0.471680 -0.318359 0.0
vt 0.471680 -0.398438 0.0
vt -0.267578 -0.399414 0.0
f 46/250 39/251 38/252
#fvcolorindex 19 18 17 
usemtl m10
vt 1.126953 0.161133 0.0
vt 2.030273 0.163086 0.0
vt 2.198242 0.000000 0.0
v -3.480307 7.275736 -15.866669
#joint 33
#vjoint 78
v -3.480307 7.275736 -71.866669
#joint 33
#vjoint 79
v -3.480307 -2.724264 -81.866669
#joint 33
#vjoint 80
f 78/253 79/254 80/255
#fvcolorindex 14 25 18 
vt 1.126953 0.161133 0.0
vt 2.198242 0.000000 0.0
vt 1.127930 0.000000 0.0
f 78/256 80/257 42/258
#fvcolorindex 14 18 23 
usemtl m21
vt 0.160156 0.001953 0.0
vt 0.000000 0.182617 0.0
vt 1.000000 0.183594 0.0
#vcolor 0.000000 0.000000 0.000000 255.000000
v -18.480307 33.275734 274.133331
#joint 33
#vjoint 81
v 44.519691 33.275734 274.133331
#joint 33
#vjoint 82
f 35/259 81/260 82/261
#fvcolorindex 27 27 27 
vt 0.160156 0.001953 0.0
vt 1.000000 0.183594 0.0
vt 0.839844 0.001953 0.0
f 35/262 82/263 36/264
#fvcolorindex 27 27 27 
usemtl m14
vt 1.041992 0.000000 0.0
vt 1.041992 -0.496094 0.0
vt 1.301758 -0.496094 0.0
v -18.480307 28.275736 25.133331
#joint 33
#vjoint 83
f 83/265 77/266 49/267
#fvcolorindex 20 20 20 
vt 1.041992 0.000000 0.0
vt 1.301758 -0.496094 0.0
vt 1.301758 0.000000 0.0
f 83/268 49/269 67/270
#fvcolorindex 20 20 20 
vt 0.000000 0.000000 0.0
vt 0.000000 -0.496094 0.0
vt 1.041992 -0.496094 0.0
f 75/271 74/272 77/273
#fvcolorindex 20 20 20 
vt 0.000000 0.000000 0.0
vt 1.041992 -0.496094 0.0
vt 1.041992 0.000000 0.0
f 75/274 77/275 83/276
#fvcolorindex 20 20 20 
usemtl m18
vt 1.127930 0.000000 0.0
vt 2.198242 0.000000 0.0
vt 2.030273 0.163086 0.0
f 42/277 80/278 59/279
#fvcolorindex 23 18 25 
vt 1.127930 0.000000 0.0
vt 2.030273 0.163086 0.0
vt 1.126953 0.161133 0.0
f 42/280 59/281 43/282
#fvcolorindex 23 25 14 
usemtl m12
vt -1.514648 -0.086914 0.0
vt -1.513672 -0.194336 0.0
vt -1.843750 0.126953 0.0
f 38/283 41/284 50/285
#fvcolorindex 16 17 17 
vt -1.514648 -0.086914 0.0
vt -1.513672 -0.194336 0.0
vt -1.843750 0.126953 0.0
f 38/286 50/287 45/288
#fvcolorindex 16 17 17 
usemtl m21
vt 0.160156 0.001953 0.0
vt 0.000000 0.182617 0.0
vt 1.000000 0.183594 0.0
v -8.480308 79.275734 -15.866669
#joint 33
#vjoint 84
v -8.480308 7.275736 -15.866669
#joint 33
#vjoint 85
v 34.519691 7.275736 -15.866669
#joint 33
#vjoint 86
f 84/289 85/290 86/291
#fvcolorindex 27 27 27 
vt 0.160156 0.001953 0.0
vt 1.000000 0.183594 0.0
vt 0.839844 0.001953 0.0
v 34.519691 79.275734 -15.866669
#joint 33
#vjoint 87
f 84/292 86/293 87/294
#fvcolorindex 27 27 27 
usemtl m22
vt 1.000000 1.000000 0.0
vt 0.000000 1.000000 0.0
vt 0.000000 0.000000 0.0
v 29.519693 73.275734 -86.866669
#joint 33
#vjoint 88
v 29.519693 73.275734 -35.866669
#joint 33
#vjoint 89
v 29.519693 58.275734 -35.866669
#joint 33
#vjoint 90
#vcolor 138.000000 189.000000 238.000000 255.000000
f 88/295 89/296 90/297
#fvcolorindex 20 20 28 
vt 1.000000 1.000000 0.0
vt 0.000000 0.000000 0.0
vt 1.000000 0.000000 0.0
v 29.519693 58.275734 -86.866669
#joint 33
#vjoint 91
f 88/298 90/299 91/300
#fvcolorindex 20 28 28 
usemtl m23
vt 1.000000 0.000000 0.0
vt 0.000000 0.000000 0.0
vt 0.000000 1.000000 0.0
v -3.480307 58.275734 -86.866669
#joint 33
#vjoint 92
v -3.480307 58.275734 -35.866669
#joint 33
#vjoint 93
v -3.480307 73.275734 -35.866669
#joint 33
#vjoint 94
f 92/301 93/302 94/303
#fvcolorindex 28 28 20 
vt 1.000000 0.000000 0.0
vt 0.000000 1.000000 0.0
vt 1.000000 1.000000 0.0
v -3.480307 73.275734 -86.866669
#joint 33
#vjoint 95
f 92/304 94/305 95/306
#fvcolorindex 28 20 20 
usemtl m24ClampSClampT
vt 0.038086 0.227865 0.0
vt 0.165039 0.217448 0.0
vt 0.096680 0.961589 0.0
v 16.519693 -91.724266 9.133331
#joint 33
#vjoint 96
v 21.519693 -92.724266 3.133331
#joint 33
#vjoint 97
v 21.519693 -32.724266 17.133331
#joint 33
#vjoint 98
#vcolor 226.000000 226.000000 226.000000 255.000000
f 96/307 97/308 98/309
#fvcolorindex 24 26 29 
vt 0.038086 0.227865 0.0
vt 0.096680 0.961589 0.0
vt -0.057617 1.027344 0.0
f 96/310 98/311 40/312
#fvcolorindex 24 29 24 
vt 0.000000 0.000000 0.0
vt 0.172852 0.052734 0.0
vt 0.165039 0.217448 0.0
v 16.519693 -110.724266 7.133331
#joint 33
#vjoint 99
v 21.519693 -105.724266 0.133331
#joint 33
#vjoint 100
f 99/313 100/314 97/315
#fvcolorindex 24 15 26 
vt 0.000000 0.000000 0.0
vt 0.165039 0.217448 0.0
vt 0.038086 0.227865 0.0
f 99/316 97/317 96/318
#fvcolorindex 24 26 24 
vt 0.000000 0.000000 0.0
vt 1.000000 0.000000 0.0
vt 0.882812 0.054688 0.0
v 12.519692 -105.724266 -35.866669
#joint 33
#vjoint 101
v 21.519693 -101.724266 -29.866669
#joint 33
#vjoint 102
f 99/319 101/320 102/321
#fvcolorindex 24 20 15 
vt 0.000000 0.000000 0.0
vt 0.882812 0.054688 0.0
vt 0.172852 0.052734 0.0
f 99/322 102/323 100/324
#fvcolorindex 24 15 15 
usemtl m25ClampSClampT
vt 1.000000 0.000000 0.0
vt 1.061523 0.341146 0.0
vt 0.927734 0.291667 0.0
#vcolor 182.000000 182.000000 182.000000 255.000000
v 12.519692 -78.724266 -33.866669
#joint 33
#vjoint 103
v 21.519693 -82.724266 -28.866669
#joint 33
#vjoint 104
f 101/325 103/326 104/327
#fvcolorindex 30 16 26 
vt 1.000000 0.000000 0.0
vt 0.927734 0.291667 0.0
vt 0.882812 0.054688 0.0
f 101/328 104/329 102/330
#fvcolorindex 30 26 15 
usemtl m26ClampSClampT
vt 0.866211 0.974609 0.0
vt 0.731445 0.925781 0.0
vt 0.927734 0.291667 0.0
v 12.519692 -2.724264 -15.866669
#joint 33
#vjoint 105
v 21.519693 -15.724264 -13.866669
#joint 33
#vjoint 106
#vcolor 229.000000 229.000000 229.000000 255.000000
f 105/331 106/332 104/333
#fvcolorindex 23 31 26 
vt 0.866211 0.974609 0.0
vt 0.927734 0.291667 0.0
vt 1.061523 0.341146 0.0
f 105/334 104/335 103/336
#fvcolorindex 23 26 16 
usemtl m27ClampSClampT
vt 0.866211 0.974609 0.0
vt -0.057617 1.027344 0.0
vt 0.096680 0.961589 0.0
f 105/337 40/338 98/339
#fvcolorindex 26 24 26 
vt 0.866211 0.974609 0.0
vt 0.096680 0.961589 0.0
vt 0.731445 0.925781 0.0
f 105/340 98/341 106/342
#fvcolorindex 26 26 26 
vt 0.165039 0.217448 0.0
vt 0.927734 0.291667 0.0
vt 0.731445 0.925781 0.0
f 97/343 104/344 106/345
#fvcolorindex 26 26 31 
vt 0.165039 0.217448 0.0
vt 0.731445 0.925781 0.0
vt 0.096680 0.961589 0.0
f 97/346 106/347 98/348
#fvcolorindex 26 31 29 
usemtl m28ClampSClampT
vt 0.172852 0.052734 0.0
vt 0.882812 0.054688 0.0
vt 0.927734 0.291667 0.0
f 100/349 102/350 104/351
#fvcolorindex 15 15 26 
vt 0.172852 0.052734 0.0
vt 0.927734 0.291667 0.0
vt 0.165039 0.217448 0.0
f 100/352 104/353 97/354
#fvcolorindex 15 26 26 
usemtl m24ClampSClampT
vt -0.057617 1.027344 0.0
vt 0.096680 0.961589 0.0
vt 0.165039 0.217448 0.0
v 4.519693 -32.724266 17.133331
#joint 33
#vjoint 107
v 4.519693 -92.724266 3.133331
#joint 33
#vjoint 108
f 39/355 107/356 108/357
#fvcolorindex 24 29 23 
vt -0.057617 1.027344 0.0
vt 0.165039 0.217448 0.0
vt 0.038086 0.227865 0.0
v 9.519692 -91.724266 9.133331
#joint 33
#vjoint 109
f 39/358 108/359 109/360
#fvcolorindex 24 23 24 
vt 0.038086 0.227865 0.0
vt 0.165039 0.217448 0.0
vt 0.172852 0.052734 0.0
v 4.519693 -105.724266 0.133331
#joint 33
#vjoint 110
f 109/361 108/362 110/363
#fvcolorindex 24 23 24 
vt 0.038086 0.227865 0.0
vt 0.172852 0.052734 0.0
vt 0.000000 0.000000 0.0
v 9.519692 -110.724266 7.133331
#joint 33
#vjoint 111
f 109/364 110/365 111/366
#fvcolorindex 24 24 24 
vt 0.172852 0.052734 0.0
vt 0.882812 0.054688 0.0
vt 1.000000 0.000000 0.0
v 4.519693 -101.724266 -29.866669
#joint 33
#vjoint 112
f 110/367 112/368 101/369
#fvcolorindex 24 26 26 
vt 0.172852 0.052734 0.0
vt 1.000000 0.000000 0.0
vt 0.000000 0.000000 0.0
f 110/370 101/371 111/372
#fvcolorindex 24 26 24 
usemtl m29ClampSClampT
vt 0.882812 0.054688 0.0
vt 0.927734 0.291667 0.0
vt 1.061523 0.341146 0.0
v 4.519693 -82.724266 -28.866669
#joint 33
#vjoint 113
f 112/373 113/374 103/375
#fvcolorindex 31 26 26 
vt 0.882812 0.054688 0.0
vt 1.061523 0.341146 0.0
vt 1.000000 0.000000 0.0
f 112/376 103/377 101/378
#fvcolorindex 31 26 31 
usemtl m27ClampSClampT
vt 1.061523 0.341146 0.0
vt 0.927734 0.291667 0.0
vt 0.731445 0.925781 0.0
v 4.519693 -15.724264 -13.866669
#joint 33
#vjoint 114
#vcolor 223.000000 223.000000 223.000000 255.000000
f 103/379 113/380 114/381
#fvcolorindex 26 26 32 
vt 1.061523 0.341146 0.0
vt 0.731445 0.925781 0.0
vt 0.866211 0.974609 0.0
#vcolor 203.000000 203.000000 203.000000 255.000000
f 103/382 114/383 105/384
#fvcolorindex 26 32 33 
usemtl m30ClampSClampT
vt 0.731445 0.925781 0.0
vt 0.096680 0.961589 0.0
vt -0.057617 1.027344 0.0
f 114/385 107/386 39/387
#fvcolorindex 20 20 24 
vt 0.731445 0.925781 0.0
vt -0.057617 1.027344 0.0
vt 0.866211 0.974609 0.0
f 114/388 39/389 105/390
#fvcolorindex 20 24 20 
usemtl m31ClampSClampT
vt 0.096680 0.961589 0.0
vt 0.731445 0.925781 0.0
vt 0.927734 0.291667 0.0
f 107/391 114/392 113/393
#fvcolorindex 29 31 26 
vt 0.096680 0.961589 0.0
vt 0.927734 0.291667 0.0
vt 0.165039 0.217448 0.0
f 107/394 113/395 108/396
#fvcolorindex 29 26 26 
usemtl m27ClampSClampT
vt 0.165039 0.217448 0.0
vt 0.927734 0.291667 0.0
vt 0.882812 0.054688 0.0
f 108/397 113/398 112/399
#fvcolorindex 26 26 15 
vt 0.165039 0.217448 0.0
vt 0.882812 0.054688 0.0
vt 0.172852 0.052734 0.0
f 108/400 112/401 110/402
#fvcolorindex 26 15 15 
vt 0.165039 0.217448 0.0
vt 0.096680 0.961589 0.0
vt -0.057617 1.027344 0.0
v 12.519692 -91.724266 9.133331
#joint 33
#vjoint 115
f 115/403 40/404 39/405
#fvcolorindex 26 29 24 
usemtl m32
vt 1.000000 1.000000 0.0
vt 0.000000 1.000000 0.0
vt 0.000000 0.853516 0.0
v 12.519692 78.275734 442.133331
#joint 33
#vjoint 116
v 12.519692 78.275734 509.133331
#joint 33
#vjoint 117
v 22.519693 74.275734 509.133331
#joint 33
#vjoint 118
f 116/406 117/407 118/408
#fvcolorindex 22 22 26 
vt 1.000000 1.000000 0.0
vt 0.000000 0.853516 0.0
vt 1.000000 0.853516 0.0
v 22.519693 74.275734 442.133331
#joint 33
#vjoint 119
f 116/409 118/410 119/411
#fvcolorindex 22 26 26 
usemtl m33
vt 1.000000 0.853516 0.0
vt 0.000000 0.853516 0.0
vt 0.000000 1.000000 0.0
v 2.519693 74.275734 442.133331
#joint 33
#vjoint 120
v 2.519693 74.275734 509.133331
#joint 33
#vjoint 121
f 120/412 121/413 117/414
#fvcolorindex 25 26 22 
vt 1.000000 0.853516 0.0
vt 0.000000 1.000000 0.0
vt 1.000000 1.000000 0.0
f 120/415 117/416 116/417
#fvcolorindex 25 22 22 
usemtl m34
vt 1.000000 0.500000 0.0
vt 0.000000 0.500000 0.0
vt 0.000000 0.853516 0.0
v -1.480307 63.275734 442.133331
#joint 33
#vjoint 122
v -1.480307 63.275734 509.133331
#joint 33
#vjoint 123
f 122/418 123/419 121/420
#fvcolorindex 30 30 26 
vt 1.000000 0.500000 0.0
vt 0.000000 0.853516 0.0
vt 1.000000 0.853516 0.0
f 122/421 121/422 120/423
#fvcolorindex 30 26 25 
usemtl m35
vt 1.000000 0.146484 0.0
vt 0.000000 0.146484 0.0
vt 0.000000 0.000000 0.0
v 22.519693 53.275734 442.133331
#joint 33
#vjoint 124
#vcolor 86.000000 86.000000 86.000000 255.000000
v 22.519693 53.275734 509.133331
#joint 33
#vjoint 125
v 12.519692 49.275734 509.133331
#joint 33
#vjoint 126
f 124/424 125/425 126/426
#fvcolorindex 34 34 34 
vt 1.000000 0.146484 0.0
vt 0.000000 0.000000 0.0
vt 1.000000 0.000000 0.0
v 12.519692 49.275734 442.133331
#joint 33
#vjoint 127
f 124/427 126/428 127/429
#fvcolorindex 34 34 34 
usemtl m36
vt 1.000000 0.500000 0.0
vt 0.000000 0.500000 0.0
vt 0.000000 0.146484 0.0
v 26.519693 63.275734 442.133331
#joint 33
#vjoint 128
v 26.519693 63.275734 509.133331
#joint 33
#vjoint 129
f 128/430 129/431 125/432
#fvcolorindex 20 20 34 
vt 1.000000 0.500000 0.0
vt 0.000000 0.146484 0.0
vt 1.000000 0.146484 0.0
f 128/433 125/434 124/435
#fvcolorindex 20 34 34 
usemtl m37
vt 1.000000 0.853516 0.0
vt 0.000000 0.853516 0.0
vt 0.000000 0.500000 0.0
f 119/436 118/437 129/438
#fvcolorindex 26 26 20 
vt 1.000000 0.853516 0.0
vt 0.000000 0.500000 0.0
vt 1.000000 0.500000 0.0
f 119/439 129/440 128/441
#fvcolorindex 26 20 20 
usemtl m38EnvMappingTexScaleS0.031250TexScaleT0.031250
vt 0.000000 0.000000 0.0
vt 0.000000 0.000000 0.0
vt 0.000000 0.000000 0.0
v 34.519691 53.275734 -203.866669
#joint 33
#vjoint 130
#vcolor 14.000000 111.000000 197.000000 255.000000
v -8.480308 53.275734 -203.866669
#joint 33
#vjoint 131
#vcolor 242.000000 111.000000 197.000000 255.000000
v -8.480308 53.275734 -137.866669
#joint 33
#vjoint 132
#vcolor 241.000000 107.000000 191.000000 255.000000
vn 0.110236 0.874016 1.551181
vn 1.905512 0.874016 1.551181
vn 1.897638 0.842520 1.503937
f 130/442/13 131/443/14 132/444/15
#fvcolorindex 35 36 37 
vt 0.000000 0.000000 0.0
vt 0.000000 0.000000 0.0
vt 0.000000 0.000000 0.0
v 34.519691 53.275734 -137.866669
#joint 33
#vjoint 133
#vcolor 15.000000 107.000000 191.000000 255.000000
vn 0.110236 0.874016 1.551181
vn 1.897638 0.842520 1.503937
vn 0.118110 0.842520 1.503937
f 130/445/16 132/446/17 133/447/18
#fvcolorindex 35 37 38 
usemtl m39EnvMappingTexScaleS0.031250TexScaleT0.031250
vt 0.000000 0.000000 0.0
vt 0.000000 0.000000 0.0
vt 0.000000 0.000000 0.0
v -8.480308 79.275734 -112.866669
#joint 33
#vjoint 134
#vcolor 242.000000 110.000000 196.000000 255.000000
vn 0.118110 0.842520 1.503937
vn 1.897638 0.842520 1.503937
vn 1.905512 0.866142 1.543307
f 133/448/19 132/449/20 134/450/21
#fvcolorindex 38 37 39 
vt 0.000000 0.000000 0.0
vt 0.000000 0.000000 0.0
vt 0.000000 0.000000 0.0
v 1.519693 89.275734 -101.866669
#joint 33
#vjoint 135
#vcolor 249.000000 115.000000 204.000000 255.000000
vn 0.118110 0.842520 1.503937
vn 1.905512 0.866142 1.543307
vn 1.960630 0.905512 1.606299
f 133/451/22 134/452/23 135/453/24
#fvcolorindex 38 39 40 
vt 0.000000 0.000000 0.0
vt 0.000000 0.000000 0.0
vt 0.000000 0.000000 0.0
v 24.519693 89.275734 -101.866669
#joint 33
#vjoint 136
#vcolor 7.000000 115.000000 204.000000 255.000000
vn 0.118110 0.842520 1.503937
vn 1.960630 0.905512 1.606299
vn 0.055118 0.905512 1.606299
f 133/454/25 135/455/26 136/456/27
#fvcolorindex 38 40 41 
vt 0.000000 0.000000 0.0
vt 0.000000 0.000000 0.0
vt 0.000000 0.000000 0.0
v 34.519691 79.275734 -112.866669
#joint 33
#vjoint 137
#vcolor 14.000000 110.000000 196.000000 255.000000
vn 0.118110 0.842520 1.503937
vn 0.055118 0.905512 1.606299
vn 0.110236 0.866142 1.543307
f 133/457/28 136/458/29 137/459/30
#fvcolorindex 38 41 42 
usemtl m40EnvMappingTexScaleS0.031250TexScaleT0.031250
vt 0.000000 0.000000 0.0
vt 0.000000 0.000000 0.0
vt 0.000000 0.000000 0.0
#vcolor 250.000000 113.000000 56.000000 255.000000
vn 0.055118 0.905512 1.606299
vn 1.960630 0.905512 1.606299
vn 1.968504 0.889764 0.440945
f 136/460/31 135/461/32 73/462/33
#fvcolorindex 41 40 43 
vt 0.000000 0.000000 0.0
vt 0.000000 0.000000 0.0
vt 0.000000 0.000000 0.0
#vcolor 6.000000 113.000000 56.000000 255.000000
vn 0.055118 0.905512 1.606299
vn 1.968504 0.889764 0.440945
vn 0.047244 0.889764 0.440945
f 136/463/34 73/464/35 65/465/36
#fvcolorindex 41 43 44 
usemtl m41EnvMappingTexScaleS0.031250TexScaleT0.031250
vt 0.000000 0.000000 0.0
vt 0.000000 0.000000 0.0
vt 0.000000 0.000000 0.0
v 34.519691 73.275734 -86.866669
#joint 33
#vjoint 138
#vcolor 126.000000 8.000000 253.000000 255.000000
#vcolor 125.000000 10.000000 242.000000 255.000000
#vcolor 123.000000 10.000000 26.000000 255.000000
vn 0.992126 0.062992 1.992126
vn 0.984252 0.078740 1.905512
vn 0.968504 0.078740 0.204724
f 138/466/37 137/467/38 87/468/39
#fvcolorindex 45 46 47 
vt 0.000000 0.000000 0.0
vt 0.000000 0.000000 0.0
vt 0.000000 0.000000 0.0
#vcolor 124.000000 0.000000 232.000000 255.000000
vn 0.992126 0.062992 1.992126
vn 0.976378 0.000000 1.826772
vn 0.984252 0.078740 1.905512
f 138/469/40 133/470/41 137/471/42
#fvcolorindex 45 48 46 
usemtl m42EnvMappingTexScaleS0.031250TexScaleT0.031250
vt 0.000000 0.000000 0.0
vt 0.000000 0.000000 0.0
vt 0.000000 0.000000 0.0
v 34.519691 73.275734 -30.866669
#joint 33
#vjoint 139
#vcolor 125.000000 8.000000 20.000000 255.000000
vn 0.968504 0.078740 0.204724
vn 0.984252 0.062992 0.157480
vn 0.992126 0.062992 1.992126
f 87/472/43 139/473/44 138/474/45
#fvcolorindex 47 49 45 
vt 0.000000 0.000000 0.0
vt 0.000000 0.000000 0.0
vt 0.000000 0.000000 0.0
v 34.519691 53.275734 -30.866669
#joint 33
#vjoint 140
#vcolor 125.000000 0.000000 20.000000 255.000000
vn 0.968504 0.078740 0.204724
vn 0.984252 0.000000 0.157480
vn 0.984252 0.062992 0.157480
f 87/475/46 140/476/47 139/477/48
#fvcolorindex 47 50 49 
usemtl m43EnvMappingTexScaleS0.031250TexScaleT0.031250
vt 0.000000 0.000000 0.0
vt 0.000000 0.000000 0.0
vt 0.000000 0.000000 0.0
v 34.519691 -27.724264 -107.866669
#joint 33
#vjoint 141
#vcolor 121.000000 222.000000 245.000000 255.000000
v 34.519691 -27.724264 -203.866669
#joint 33
#vjoint 142
#vcolor 113.000000 225.000000 208.000000 255.000000
#vcolor 116.000000 0.000000 207.000000 255.000000
vn 0.952756 1.748031 1.929134
vn 0.889764 1.771654 1.637795
vn 0.913386 0.000000 1.629921
f 141/478/49 142/479/50 130/480/51
#fvcolorindex 51 52 53 
vt 0.000000 0.000000 0.0
vt 0.000000 0.000000 0.0
vt 0.000000 0.000000 0.0
vn 0.952756 1.748031 1.929134
vn 0.913386 0.000000 1.629921
vn 0.976378 0.000000 1.826772
f 141/481/52 130/482/53 133/483/54
#fvcolorindex 51 53 48 
usemtl m44EnvMappingTexScaleS0.031250TexScaleT0.031250
vt 0.000000 0.000000 0.0
vt 0.000000 0.000000 0.0
vt 0.000000 0.000000 0.0
v 34.519691 53.275734 -86.866669
#joint 33
#vjoint 143
#vcolor 126.000000 0.000000 253.000000 255.000000
v 34.519691 7.275736 -71.866669
#joint 33
#vjoint 144
#vcolor 125.000000 236.000000 3.000000 255.000000
vn 0.976378 0.000000 1.826772
vn 0.992126 0.000000 1.992126
vn 0.984252 1.858268 0.023622
f 133/484/55 143/485/56 144/486/57
#fvcolorindex 48 54 55 
vt 0.000000 0.000000 0.0
vt 0.000000 0.000000 0.0
vt 0.000000 0.000000 0.0
vn 0.976378 0.000000 1.826772
vn 0.984252 1.858268 0.023622
vn 0.952756 1.748031 1.929134
f 133/487/58 144/488/59 141/489/60
#fvcolorindex 48 55 51 
usemtl m45EnvMappingTexScaleS0.031250TexScaleT0.031250
vt 0.000000 0.000000 0.0
vt 0.000000 0.000000 0.0
vt 0.000000 0.000000 0.0
vn 0.992126 0.000000 1.992126
vn 0.976378 0.000000 1.826772
vn 0.992126 0.062992 1.992126
f 143/490/61 133/491/62 138/492/63
#fvcolorindex 54 48 45 
usemtl m42EnvMappingTexScaleS0.031250TexScaleT0.031250
vt 0.000000 0.000000 0.0
vt 0.000000 0.000000 0.0
vt 0.000000 0.000000 0.0
#vcolor 122.000000 237.000000 26.000000 255.000000
vn 0.968504 0.078740 0.204724
vn 0.960630 1.866142 0.204724
vn 0.984252 0.000000 0.157480
f 87/493/64 86/494/65 140/495/66
#fvcolorindex 47 56 50 
usemtl m46EnvMappingTexScaleS0.031250TexScaleT0.031250
vt 0.000000 0.000000 0.0
vt 0.000000 0.000000 0.0
vt 0.000000 0.000000 0.0
vn 0.960630 1.866142 0.204724
vn 0.984252 1.858268 0.023622
vn 0.992126 0.000000 1.992126
f 86/496/67 144/497/68 143/498/69
#fvcolorindex 56 55 54 
vt 0.000000 0.000000 0.0
vt 0.000000 0.000000 0.0
vt 0.000000 0.000000 0.0
vn 0.960630 1.866142 0.204724
vn 0.992126 0.000000 1.992126
vn 0.984252 0.000000 0.157480
f 86/499/70 143/500/71 140/501/72
#fvcolorindex 56 54 50 
usemtl m47EnvMappingTexScaleS0.031250TexScaleT0.031250
vt 0.000000 0.000000 0.0
vt 0.000000 0.000000 0.0
vt 0.000000 0.000000 0.0
#vcolor 91.000000 86.000000 18.000000 255.000000
#vcolor 93.000000 83.000000 21.000000 255.000000
#vcolor 94.000000 84.000000 253.000000 255.000000
vn 0.716535 0.677165 0.141732
vn 0.732283 0.653543 0.165354
vn 0.740157 0.661417 1.992126
f 90/502/73 140/503/74 143/504/75
#fvcolorindex 57 58 59 
vt 0.000000 0.000000 0.0
vt 0.000000 0.000000 0.0
vt 0.000000 0.000000 0.0
#vcolor 92.000000 87.000000 253.000000 255.000000
vn 0.716535 0.677165 0.141732
vn 0.740157 0.661417 1.992126
vn 0.724409 0.685039 1.992126
f 90/505/76 143/506/77 91/507/78
#fvcolorindex 57 59 60 
usemtl m48EnvMappingTexScaleS0.031250TexScaleT0.031250
vt 0.000000 0.000000 0.0
vt 0.000000 0.000000 0.0
vt 0.000000 0.000000 0.0
#vcolor 102.000000 9.000000 182.000000 255.000000
#vcolor 104.000000 9.000000 185.000000 255.000000
#vcolor 105.000000 0.000000 185.000000 255.000000
vn 0.803150 0.070866 1.433071
vn 0.818898 0.070866 1.456693
vn 0.826772 0.000000 1.456693
f 89/508/79 139/509/80 140/510/81
#fvcolorindex 61 62 63 
vt 0.000000 0.000000 0.0
vt 0.000000 0.000000 0.0
vt 0.000000 0.000000 0.0
#vcolor 103.000000 1.000000 182.000000 255.000000
vn 0.803150 0.070866 1.433071
vn 0.826772 0.000000 1.456693
vn 0.811024 0.007874 1.433071
f 89/511/82 140/512/83 90/513/84
#fvcolorindex 61 63 64 
usemtl m49EnvMappingTexScaleS0.031250TexScaleT0.031250
vt 0.000000 0.000000 0.0
vt 0.000000 0.000000 0.0
vt 0.000000 0.000000 0.0
#vcolor 84.000000 94.000000 247.000000 255.000000
#vcolor 82.000000 92.000000 25.000000 255.000000
#vcolor 87.000000 88.000000 25.000000 255.000000
vn 0.661417 0.740157 1.944882
vn 0.645669 0.724409 0.196850
vn 0.685039 0.692913 0.196850
f 136/514/85 65/515/86 87/516/87
#fvcolorindex 65 66 67 
vt 0.000000 0.000000 0.0
vt 0.000000 0.000000 0.0
vt 0.000000 0.000000 0.0
#vcolor 88.000000 90.000000 243.000000 255.000000
vn 0.661417 0.740157 1.944882
vn 0.685039 0.692913 0.196850
vn 0.692913 0.708661 1.913386
f 136/517/88 87/518/89 137/519/90
#fvcolorindex 65 67 68 
usemtl m50EnvMappingTexScaleS0.031250TexScaleT0.031250
vt 0.000000 0.000000 0.0
vt 0.000000 0.000000 0.0
vt 0.000000 0.000000 0.0
#vcolor 168.000000 90.000000 243.000000 255.000000
#vcolor 169.000000 88.000000 25.000000 255.000000
#vcolor 174.000000 92.000000 25.000000 255.000000
vn 1.322835 0.708661 1.913386
vn 1.330709 0.692913 0.196850
vn 1.370079 0.724409 0.196850
f 134/520/91 84/521/92 73/522/93
#fvcolorindex 69 70 71 
vt 0.000000 0.000000 0.0
vt 0.000000 0.000000 0.0
vt 0.000000 0.000000 0.0
#vcolor 172.000000 94.000000 247.000000 255.000000
vn 1.322835 0.708661 1.913386
vn 1.370079 0.724409 0.196850
vn 1.354331 0.740157 1.944882
f 134/523/94 73/524/95 135/525/96
#fvcolorindex 69 71 72 
usemtl m51EnvMappingTexScaleS0.031250TexScaleT0.031250
vt 0.000000 0.000000 0.0
vt 0.000000 0.000000 0.0
vt 0.000000 0.000000 0.0
#vcolor 168.000000 76.000000 207.000000 255.000000
#vcolor 170.000000 74.000000 55.000000 255.000000
#vcolor 174.000000 78.000000 55.000000 255.000000
vn 1.322835 0.598425 1.629921
vn 1.338583 0.582677 0.433071
vn 1.370079 0.614173 0.433071
f 76/526/97 35/527/98 34/528/99
#fvcolorindex 73 74 75 
vt 0.000000 0.000000 0.0
vt 0.000000 0.000000 0.0
vt 0.000000 0.000000 0.0
#vcolor 171.000000 80.000000 207.000000 255.000000
vn 1.322835 0.598425 1.629921
vn 1.370079 0.614173 0.433071
vn 1.346457 0.629921 1.629921
f 76/529/100 34/530/101 72/531/102
#fvcolorindex 73 75 76 
usemtl m52EnvMappingTexScaleS0.031250TexScaleT0.031250
vt 0.000000 0.000000 0.0
vt 0.000000 0.000000 0.0
vt 0.000000 0.000000 0.0
#vcolor 120.000000 237.000000 222.000000 255.000000
#vcolor 117.000000 253.000000 208.000000 255.000000
#vcolor 117.000000 0.000000 208.000000 255.000000
vn 0.944882 1.866142 1.748031
vn 0.921260 1.992126 1.637795
vn 0.921260 0.000000 1.637795
f 71/532/103 64/533/104 63/534/105
#fvcolorindex 77 78 79 
vt 0.000000 0.000000 0.0
vt 0.000000 0.000000 0.0
vt 0.000000 0.000000 0.0
v 44.519691 79.275734 167.133331
#joint 33
#vjoint 145
#vcolor 125.000000 0.000000 18.000000 255.000000
vn 0.944882 1.866142 1.748031
vn 0.921260 0.000000 1.637795
vn 0.984252 0.000000 0.141732
f 71/535/106 63/536/107 145/537/108
#fvcolorindex 77 79 80 
usemtl m53EnvMappingTexScaleS0.031250TexScaleT0.031250
vt 0.000000 0.000000 0.0
vt 0.000000 0.000000 0.0
vt 0.000000 0.000000 0.0
#vcolor 121.000000 221.000000 246.000000 255.000000
#vcolor 122.000000 237.000000 229.000000 255.000000
vn 0.984252 0.000000 0.141732
vn 0.952756 1.740157 1.937008
vn 0.960630 1.866142 1.803150
f 145/538/109 69/539/110 68/540/111
#fvcolorindex 80 81 82 
vt 0.000000 0.000000 0.0
vt 0.000000 0.000000 0.0
vt 0.000000 0.000000 0.0
vn 0.984252 0.000000 0.141732
vn 0.960630 1.866142 1.803150
vn 0.944882 1.866142 1.748031
f 145/541/112 68/542/113 71/543/114
#fvcolorindex 80 82 77 
vt 0.000000 0.000000 0.0
vt 0.000000 0.000000 0.0
vt 0.000000 0.000000 0.0
v 44.519691 33.275734 183.133331
#joint 33
#vjoint 146
#vcolor 123.000000 239.000000 23.000000 255.000000
v 44.519691 -17.724264 183.133331
#joint 33
#vjoint 147
#vcolor 119.000000 221.000000 23.000000 255.000000
vn 0.984252 0.000000 0.141732
vn 0.968504 1.881890 0.181102
vn 0.937008 1.740157 0.181102
f 145/544/115 146/545/116 147/546/117
#fvcolorindex 80 83 84 
vt 0.000000 0.000000 0.0
vt 0.000000 0.000000 0.0
vt 0.000000 0.000000 0.0
vn 0.984252 0.000000 0.141732
vn 0.937008 1.740157 0.181102
vn 0.952756 1.740157 1.937008
f 145/547/118 147/548/119 69/549/120
#fvcolorindex 80 84 81 
usemtl m54EnvMappingTexScaleS0.031250TexScaleT0.031250
vt 0.000000 0.000000 0.0
vt 0.000000 0.000000 0.0
vt 0.000000 0.000000 0.0
#vcolor 114.000000 0.000000 54.000000 255.000000
#vcolor 113.000000 240.000000 53.000000 255.000000
vn 0.897638 0.000000 0.425197
vn 0.889764 1.889764 0.417323
vn 0.968504 1.881890 0.181102
f 36/550/121 82/551/122 146/552/123
#fvcolorindex 85 86 83 
vt 0.000000 0.000000 0.0
vt 0.000000 0.000000 0.0
vt 0.000000 0.000000 0.0
vn 0.897638 0.000000 0.425197
vn 0.968504 1.881890 0.181102
vn 0.984252 0.000000 0.141732
f 36/553/124 146/554/125 145/555/126
#fvcolorindex 85 83 80 
usemtl m55EnvMappingTexScaleS0.031250TexScaleT0.031250
vt 0.000000 0.000000 0.0
vt 0.000000 0.000000 0.0
vt 0.000000 0.000000 0.0
#vcolor 85.000000 80.000000 207.000000 255.000000
#vcolor 82.000000 78.000000 55.000000 255.000000
#vcolor 86.000000 74.000000 55.000000 255.000000
vn 0.669291 0.629921 1.629921
vn 0.645669 0.614173 0.433071
vn 0.677165 0.582677 0.433071
f 66/556/127 37/557/128 36/558/129
#fvcolorindex 87 88 89 
vt 0.000000 0.000000 0.0
vt 0.000000 0.000000 0.0
vt 0.000000 0.000000 0.0
#vcolor 88.000000 76.000000 207.000000 255.000000
vn 0.669291 0.629921 1.629921
vn 0.677165 0.582677 0.433071
vn 0.692913 0.598425 1.629921
f 66/559/130 36/560/131 63/561/132
#fvcolorindex 87 89 90 
usemtl m56EnvMappingTexScaleS0.031250TexScaleT0.031250
vt 0.000000 0.000000 0.0
vt 0.000000 0.000000 0.0
vt 0.000000 0.000000 0.0
#vcolor 8.000000 116.000000 206.000000 255.000000
#vcolor 248.000000 116.000000 206.000000 255.000000
#vcolor 249.000000 113.000000 57.000000 255.000000
vn 0.062992 0.913386 1.622047
vn 1.952756 0.913386 1.622047
vn 1.960630 0.889764 0.448819
f 66/562/133 72/563/134 34/564/135
#fvcolorindex 91 92 93 
vt 0.000000 0.000000 0.0
vt 0.000000 0.000000 0.0
vt 0.000000 0.000000 0.0
#vcolor 7.000000 113.000000 57.000000 255.000000
vn 0.062992 0.913386 1.622047
vn 1.960630 0.889764 0.448819
vn 0.055118 0.889764 0.448819
f 66/565/136 34/566/137 37/567/138
#fvcolorindex 91 93 94 
usemtl m57EnvMappingTexScaleS0.031250TexScaleT0.031250
vt 0.000000 0.000000 0.0
vt 0.000000 0.000000 0.0
vt 0.000000 0.000000 0.0
v 6.519693 89.275734 -15.866669
#joint 33
#vjoint 148
#vcolor 116.000000 253.000000 51.000000 255.000000
v 6.519693 89.275734 -40.866669
#joint 33
#vjoint 149
#vcolor 112.000000 253.000000 59.000000 255.000000
v 6.519693 129.275742 -0.866669
#joint 33
#vjoint 150
#vcolor 116.000000 237.000000 45.000000 255.000000
vn 0.913386 1.992126 0.401575
vn 0.881890 1.992126 0.464567
vn 0.913386 1.866142 0.354331
f 148/568/139 149/569/140 150/570/141
#fvcolorindex 95 96 97 
vt 0.000000 0.000000 0.0
vt 0.000000 0.000000 0.0
vt 0.000000 0.000000 0.0
v 6.519693 119.275734 15.133331
#joint 33
#vjoint 151
#vcolor 119.000000 241.000000 40.000000 255.000000
vn 0.913386 1.992126 0.401575
vn 0.913386 1.866142 0.354331
vn 0.937008 1.897638 0.314961
f 148/571/142 150/572/143 151/573/144
#fvcolorindex 95 97 98 
usemtl m58EnvMappingTexScaleS0.031250TexScaleT0.031250
vt 0.000000 0.000000 0.0
vt 0.000000 0.000000 0.0
vt 0.000000 0.000000 0.0
v 6.519693 129.275742 234.133331
#joint 33
#vjoint 152
#vcolor 117.000000 237.000000 212.000000 255.000000
vn 0.937008 1.897638 0.314961
vn 0.913386 1.866142 0.354331
vn 0.921260 1.866142 1.669291
f 151/574/145 150/575/146 152/576/147
#fvcolorindex 98 97 99 
vt 0.000000 0.000000 0.0
vt 0.000000 0.000000 0.0
vt 0.000000 0.000000 0.0
v 6.519693 119.275734 198.133331
#joint 33
#vjoint 153
#vcolor 121.000000 241.000000 225.000000 255.000000
vn 0.937008 1.897638 0.314961
vn 0.921260 1.866142 1.669291
vn 0.952756 1.897638 1.771654
f 151/577/148 152/578/149 153/579/150
#fvcolorindex 98 99 100 
usemtl m59EnvMappingTexScaleS0.031250TexScaleT0.031250
vt 0.000000 0.000000 0.0
vt 0.000000 0.000000 0.0
vt 0.000000 0.000000 0.0
v 6.519693 89.275734 228.133331
#joint 33
#vjoint 154
#vcolor 119.000000 253.000000 214.000000 255.000000
vn 0.937008 1.992126 1.685039
vn 0.952756 1.897638 1.771654
vn 0.921260 1.866142 1.669291
f 154/580/151 153/581/152 152/582/153
#fvcolorindex 101 100 99 
vt 0.000000 0.000000 0.0
vt 0.000000 0.000000 0.0
vt 0.000000 0.000000 0.0
v 6.519693 89.275734 274.133331
#joint 33
#vjoint 155
#vcolor 113.000000 253.000000 199.000000 255.000000
vn 0.937008 1.992126 1.685039
vn 0.921260 1.866142 1.669291
vn 0.889764 1.992126 1.566929
f 154/583/154 152/584/155 155/585/156
#fvcolorindex 101 99 102 
usemtl m60EnvMappingTexScaleS0.031250TexScaleT0.031250
vt 0.000000 0.000000 0.0
vt 0.000000 0.000000 0.0
vt 0.000000 0.000000 0.0
v 19.519693 119.275734 198.133331
#joint 33
#vjoint 156
#vcolor 3.000000 156.000000 179.000000 255.000000
v 19.519693 89.275734 228.133331
#joint 33
#vjoint 157
#vcolor 3.000000 143.000000 199.000000 255.000000
#vcolor 253.000000 143.000000 199.000000 255.000000
vn 0.023622 1.228346 1.409449
vn 0.023622 1.125984 1.566929
vn 1.992126 1.125984 1.566929
f 156/586/157 157/587/158 154/588/159
#fvcolorindex 103 104 105 
vt 0.000000 0.000000 0.0
vt 0.000000 0.000000 0.0
vt 0.000000 0.000000 0.0
#vcolor 253.000000 156.000000 179.000000 255.000000
vn 0.023622 1.228346 1.409449
vn 1.992126 1.125984 1.566929
vn 1.992126 1.228346 1.409449
f 156/589/160 154/590/161 153/591/162
#fvcolorindex 103 105 106 
usemtl m61EnvMappingTexScaleS0.031250TexScaleT0.031250
vt 0.000000 0.000000 0.0
vt 0.000000 0.000000 0.0
vt 0.000000 0.000000 0.0
v 19.519693 89.275734 -15.866669
#joint 33
#vjoint 158
#vcolor 1.000000 68.000000 149.000000 255.000000
#vcolor 255.000000 68.000000 149.000000 255.000000
#vcolor 254.000000 79.000000 157.000000 255.000000
vn 0.007874 0.535433 1.173228
vn 2.007874 0.535433 1.173228
vn 2.000000 0.622047 1.236220
f 158/592/163 148/593/164 151/594/165
#fvcolorindex 107 108 109 
vt 0.000000 0.000000 0.0
vt 0.000000 0.000000 0.0
vt 0.000000 0.000000 0.0
v 19.519693 119.275734 15.133331
#joint 33
#vjoint 159
#vcolor 2.000000 79.000000 157.000000 255.000000
vn 0.007874 0.535433 1.173228
vn 2.000000 0.622047 1.236220
vn 0.015748 0.622047 1.236220
f 158/595/166 151/596/167 159/597/168
#fvcolorindex 107 109 110 
usemtl m62EnvMappingTexScaleS0.031250TexScaleT0.031250
vt 0.000000 0.000000 0.0
vt 0.000000 0.000000 0.0
vt 0.000000 0.000000 0.0
#vcolor 2.000000 121.000000 219.000000 255.000000
#vcolor 254.000000 121.000000 219.000000 255.000000
#vcolor 254.000000 123.000000 28.000000 255.000000
vn 0.015748 0.952756 1.724409
vn 2.000000 0.952756 1.724409
vn 2.000000 0.968504 0.220472
f 159/598/169 151/599/170 153/600/171
#fvcolorindex 111 112 113 
vt 0.000000 0.000000 0.0
vt 0.000000 0.000000 0.0
vt 0.000000 0.000000 0.0
#vcolor 2.000000 123.000000 28.000000 255.000000
vn 0.015748 0.952756 1.724409
vn 2.000000 0.968504 0.220472
vn 0.015748 0.968504 0.220472
f 159/601/172 153/602/173 156/603/174
#fvcolorindex 111 113 114 
usemtl m63EnvMappingTexScaleS0.031250TexScaleT0.031250
vt 0.000000 0.000000 0.0
vt 0.000000 0.000000 0.0
vt 0.000000 0.000000 0.0
#vcolor 116.000000 3.000000 205.000000 255.000000
v 19.519693 89.275734 -40.866669
#joint 33
#vjoint 160
#vcolor 112.000000 3.000000 197.000000 255.000000
v 19.519693 129.275742 -0.866669
#joint 33
#vjoint 161
#vcolor 116.000000 19.000000 211.000000 255.000000
vn 0.913386 0.023622 1.614173
vn 0.881890 0.023622 1.551181
vn 0.913386 0.149606 1.661417
f 158/604/175 160/605/176 161/606/177
#fvcolorindex 115 116 117 
vt 0.000000 0.000000 0.0
vt 0.000000 0.000000 0.0
vt 0.000000 0.000000 0.0
#vcolor 119.000000 15.000000 216.000000 255.000000
vn 0.913386 0.023622 1.614173
vn 0.913386 0.149606 1.661417
vn 0.937008 0.118110 1.700787
f 158/607/178 161/608/179 159/609/180
#fvcolorindex 115 117 118 
usemtl m64EnvMappingTexScaleS0.031250TexScaleT0.031250
vt 0.000000 0.000000 0.0
vt 0.000000 0.000000 0.0
vt 0.000000 0.000000 0.0
v 19.519693 129.275742 234.133331
#joint 33
#vjoint 162
#vcolor 117.000000 19.000000 44.000000 255.000000
vn 0.937008 0.118110 1.700787
vn 0.913386 0.149606 1.661417
vn 0.921260 0.149606 0.346457
f 159/610/181 161/611/182 162/612/183
#fvcolorindex 118 117 119 
vt 0.000000 0.000000 0.0
vt 0.000000 0.000000 0.0
vt 0.000000 0.000000 0.0
#vcolor 121.000000 15.000000 31.000000 255.000000
vn 0.937008 0.118110 1.700787
vn 0.921260 0.149606 0.346457
vn 0.952756 0.118110 0.244094
f 159/613/184 162/614/185 156/615/186
#fvcolorindex 118 119 120 
usemtl m65EnvMappingTexScaleS0.031250TexScaleT0.031250
vt 0.000000 0.000000 0.0
vt 0.000000 0.000000 0.0
vt 0.000000 0.000000 0.0
#vcolor 119.000000 3.000000 42.000000 255.000000
vn 0.937008 0.023622 0.330709
vn 0.952756 0.118110 0.244094
vn 0.921260 0.149606 0.346457
f 157/616/187 156/617/188 162/618/189
#fvcolorindex 121 120 119 
vt 0.000000 0.000000 0.0
vt 0.000000 0.000000 0.0
vt 0.000000 0.000000 0.0
v 19.519693 89.275734 274.133331
#joint 33
#vjoint 163
#vcolor 113.000000 3.000000 57.000000 255.000000
vn 0.937008 0.023622 0.330709
vn 0.921260 0.149606 0.346457
vn 0.889764 0.023622 0.448819
f 157/619/190 162/620/191 163/621/192
#fvcolorindex 121 119 122 
usemtl m53EnvMappingTexScaleS0.031250TexScaleT0.031250
vt 0.000000 0.000000 0.0
vt 0.000000 0.000000 0.0
vt 0.000000 0.000000 0.0
v -18.480307 -17.724264 183.133331
#joint 33
#vjoint 164
vn 0.984252 0.000000 0.141732
vn 0.968504 1.881890 0.181102
vn 0.937008 1.740157 0.181102
f 147/622/193 164/623/194 70/624/195
#fvcolorindex 80 83 84 
vt 0.000000 0.000000 0.0
vt 0.000000 0.000000 0.0
vt 0.000000 0.000000 0.0
vn 0.984252 0.000000 0.141732
vn 0.937008 1.740157 0.181102
vn 0.952756 1.740157 1.937008
f 147/625/196 70/626/197 69/627/198
#fvcolorindex 80 84 81 
usemtl m66EnvMappingTexScaleS0.031250TexScaleT0.031250
vt 0.000000 0.000000 0.0
vt 0.000000 0.000000 0.0
vt 0.000000 0.000000 0.0
v 34.519691 43.275734 274.133331
#joint 33
#vjoint 165
#vcolor 125.000000 246.000000 239.000000 255.000000
v 34.519691 43.275734 442.133331
#joint 33
#vjoint 166
#vcolor 114.000000 247.000000 53.000000 255.000000
v 29.519693 -12.724264 386.133331
#joint 33
#vjoint 167
#vcolor 118.000000 222.000000 31.000000 255.000000
vn 0.984252 1.937008 1.881890
vn 0.897638 1.944882 0.417323
vn 0.929134 1.748031 0.244094
f 165/628/199 166/629/200 167/630/201
#fvcolorindex 123 124 125 
vt 0.000000 0.000000 0.0
vt 0.000000 0.000000 0.0
vt 0.000000 0.000000 0.0
v 29.519693 -12.724264 183.133331
#joint 33
#vjoint 168
#vcolor 110.000000 224.000000 203.000000 255.000000
vn 0.984252 1.937008 1.881890
vn 0.929134 1.748031 0.244094
vn 0.866142 1.763780 1.598425
f 165/631/202 167/632/203 168/633/204
#fvcolorindex 123 125 126 
usemtl m67EnvMappingTexScaleS0.031250TexScaleT0.031250
vt 0.000000 0.000000 0.0
vt 0.000000 0.000000 0.0
vt 0.000000 0.000000 0.0
v 34.519691 43.275734 183.133331
#joint 33
#vjoint 169
#vcolor 114.000000 247.000000 203.000000 255.000000
vn 0.866142 1.763780 1.598425
vn 0.897638 1.944882 1.598425
vn 0.984252 1.937008 1.881890
f 168/634/205 169/635/206 165/636/207
#fvcolorindex 126 127 123 
usemtl m68EnvMappingTexScaleS0.031250TexScaleT0.031250
vt 0.000000 0.000000 0.0
vt 0.000000 0.000000 0.0
vt 0.000000 0.000000 0.0
v 34.519691 84.275734 274.133331
#joint 33
#vjoint 170
#vcolor 124.000000 18.000000 239.000000 255.000000
v 34.519691 84.275734 442.133331
#joint 33
#vjoint 171
#vcolor 114.000000 16.000000 52.000000 255.000000
#vcolor 115.000000 0.000000 53.000000 255.000000
vn 0.976378 0.141732 1.881890
vn 0.897638 0.125984 0.409449
vn 0.905512 0.000000 0.417323
f 170/637/208 171/638/209 166/639/210
#fvcolorindex 128 129 130 
vt 0.000000 0.000000 0.0
vt 0.000000 0.000000 0.0
vt 0.000000 0.000000 0.0
#vcolor 125.000000 0.000000 239.000000 255.000000
vn 0.976378 0.141732 1.881890
vn 0.905512 0.000000 0.417323
vn 0.984252 0.000000 1.881890
f 170/640/211 166/641/212 165/642/213
#fvcolorindex 128 130 131 
usemtl m69EnvMappingTexScaleS0.031250TexScaleT0.031250
vt 0.000000 0.000000 0.0
vt 0.000000 0.000000 0.0
vt 0.000000 0.000000 0.0
#vcolor 9.000000 125.000000 240.000000 255.000000
v -8.480308 84.275734 274.133331
#joint 33
#vjoint 172
#vcolor 247.000000 125.000000 240.000000 255.000000
v -8.480308 84.275734 442.133331
#joint 33
#vjoint 173
#vcolor 248.000000 116.000000 50.000000 255.000000
vn 0.070866 0.984252 1.889764
vn 1.944882 0.984252 1.889764
vn 1.952756 0.913386 0.393701
f 170/643/214 172/644/215 173/645/216
#fvcolorindex 132 133 134 
vt 0.000000 0.000000 0.0
vt 0.000000 0.000000 0.0
vt 0.000000 0.000000 0.0
#vcolor 8.000000 116.000000 50.000000 255.000000
vn 0.070866 0.984252 1.889764
vn 1.952756 0.913386 0.393701
vn 0.062992 0.913386 0.393701
f 170/646/217 173/647/218 171/648/219
#fvcolorindex 132 134 135 
usemtl m70EnvMappingTexScaleS0.031250TexScaleT0.031250
vt 0.000000 0.000000 0.0
vt 0.000000 0.000000 0.0
vt 0.000000 0.000000 0.0
#vcolor 137.000000 241.000000 40.000000 255.000000
#vcolor 140.000000 237.000000 45.000000 255.000000
#vcolor 144.000000 253.000000 59.000000 255.000000
vn 1.078740 1.897638 0.314961
vn 1.102362 1.866142 0.354331
vn 1.133858 1.992126 0.464567
f 159/649/220 161/650/221 160/651/222
#fvcolorindex 136 137 138 
vt 0.000000 0.000000 0.0
vt 0.000000 0.000000 0.0
vt 0.000000 0.000000 0.0
#vcolor 140.000000 253.000000 51.000000 255.000000
vn 1.078740 1.897638 0.314961
vn 1.133858 1.992126 0.464567
vn 1.102362 1.992126 0.401575
f 159/652/223 160/653/224 158/654/225
#fvcolorindex 136 138 139 
usemtl m71EnvMappingTexScaleS0.031250TexScaleT0.031250
vt 0.000000 0.000000 0.0
vt 0.000000 0.000000 0.0
vt 0.000000 0.000000 0.0
#vcolor 254.000000 177.000000 99.000000 255.000000
#vcolor 2.000000 177.000000 99.000000 255.000000
#vcolor 1.000000 188.000000 107.000000 255.000000
vn 2.000000 1.393701 0.779528
vn 0.015748 1.393701 0.779528
vn 0.007874 1.480315 0.842520
f 159/655/226 151/656/227 148/657/228
#fvcolorindex 140 141 142 
vt 0.000000 0.000000 0.0
vt 0.000000 0.000000 0.0
vt 0.000000 0.000000 0.0
#vcolor 255.000000 188.000000 107.000000 255.000000
vn 2.000000 1.393701 0.779528
vn 0.007874 1.480315 0.842520
vn 2.007874 1.480315 0.842520
f 159/658/229 148/659/230 158/660/231
#fvcolorindex 140 142 143 
usemtl m72EnvMappingTexScaleS0.031250TexScaleT0.031250
vt 0.000000 0.000000 0.0
vt 0.000000 0.000000 0.0
vt 0.000000 0.000000 0.0
#vcolor 137.000000 15.000000 216.000000 255.000000
#vcolor 140.000000 19.000000 211.000000 255.000000
#vcolor 144.000000 3.000000 197.000000 255.000000
vn 1.078740 0.118110 1.700787
vn 1.102362 0.149606 1.661417
vn 1.133858 0.023622 1.551181
f 151/661/232 150/662/233 149/663/234
#fvcolorindex 144 145 146 
vt 0.000000 0.000000 0.0
vt 0.000000 0.000000 0.0
vt 0.000000 0.000000 0.0
#vcolor 140.000000 3.000000 205.000000 255.000000
vn 1.078740 0.118110 1.700787
vn 1.133858 0.023622 1.551181
vn 1.102362 0.023622 1.614173
f 151/664/235 149/665/236 148/666/237
#fvcolorindex 144 146 147 
usemtl m73EnvMappingTexScaleS0.031250TexScaleT0.031250
vt 0.000000 0.000000 0.0
vt 0.000000 0.000000 0.0
vt 0.000000 0.000000 0.0
#vcolor 143.000000 253.000000 199.000000 255.000000
#vcolor 139.000000 237.000000 212.000000 255.000000
#vcolor 135.000000 241.000000 225.000000 255.000000
vn 1.125984 1.992126 1.566929
vn 1.094488 1.866142 1.669291
vn 1.062992 1.897638 1.771654
f 163/667/238 162/668/239 156/669/240
#fvcolorindex 148 149 150 
vt 0.000000 0.000000 0.0
vt 0.000000 0.000000 0.0
vt 0.000000 0.000000 0.0
#vcolor 137.000000 253.000000 214.000000 255.000000
vn 1.125984 1.992126 1.566929
vn 1.062992 1.897638 1.771654
vn 1.078740 1.992126 1.685039
f 163/670/241 156/671/242 157/672/243
#fvcolorindex 148 150 151 
usemtl m74EnvMappingTexScaleS0.031250TexScaleT0.031250
vt 0.000000 0.000000 0.0
vt 0.000000 0.000000 0.0
vt 0.000000 0.000000 0.0
#vcolor 3.000000 100.000000 77.000000 255.000000
#vcolor 3.000000 113.000000 57.000000 255.000000
#vcolor 253.000000 113.000000 57.000000 255.000000
vn 0.023622 0.787402 0.606299
vn 0.023622 0.889764 0.448819
vn 1.992126 0.889764 0.448819
f 153/673/244 154/674/245 157/675/246
#fvcolorindex 152 153 154 
vt 0.000000 0.000000 0.0
vt 0.000000 0.000000 0.0
vt 0.000000 0.000000 0.0
#vcolor 253.000000 100.000000 77.000000 255.000000
vn 0.023622 0.787402 0.606299
vn 1.992126 0.889764 0.448819
vn 1.992126 0.787402 0.606299
f 153/676/247 157/677/248 156/678/249
#fvcolorindex 152 154 155 
usemtl m75EnvMappingTexScaleS0.031250TexScaleT0.031250
vt 0.000000 0.000000 0.0
vt 0.000000 0.000000 0.0
vt 0.000000 0.000000 0.0
#vcolor 143.000000 3.000000 57.000000 255.000000
#vcolor 139.000000 19.000000 44.000000 255.000000
#vcolor 135.000000 15.000000 31.000000 255.000000
vn 1.125984 0.023622 0.448819
vn 1.094488 0.149606 0.346457
vn 1.062992 0.118110 0.244094
f 155/679/250 152/680/251 153/681/252
#fvcolorindex 156 157 158 
vt 0.000000 0.000000 0.0
vt 0.000000 0.000000 0.0
vt 0.000000 0.000000 0.0
#vcolor 137.000000 3.000000 42.000000 255.000000
vn 1.125984 0.023622 0.448819
vn 1.062992 0.118110 0.244094
vn 1.078740 0.023622 0.330709
f 155/682/253 153/683/254 154/684/255
#fvcolorindex 156 158 159 
usemtl m76EnvMappingTexScaleS0.031250TexScaleT0.031250
vt 0.000000 0.000000 0.0
vt 0.000000 0.000000 0.0
vt 0.000000 0.000000 0.0
vn 1.062992 1.897638 1.771654
vn 1.094488 1.866142 1.669291
vn 1.102362 1.866142 0.354331
f 156/685/256 162/686/257 161/687/258
#fvcolorindex 150 149 137 
vt 0.000000 0.000000 0.0
vt 0.000000 0.000000 0.0
vt 0.000000 0.000000 0.0
vn 1.062992 1.897638 1.771654
vn 1.102362 1.866142 0.354331
vn 1.078740 1.897638 0.314961
f 156/688/259 161/689/260 159/690/261
#fvcolorindex 150 137 136 
usemtl m77EnvMappingTexScaleS0.031250TexScaleT0.031250
vt 0.000000 0.000000 0.0
vt 0.000000 0.000000 0.0
vt 0.000000 0.000000 0.0
#vcolor 254.000000 133.000000 228.000000 255.000000
#vcolor 2.000000 133.000000 228.000000 255.000000
#vcolor 2.000000 135.000000 37.000000 255.000000
vn 2.000000 1.047244 1.795276
vn 0.015748 1.047244 1.795276
vn 0.015748 1.062992 0.291339
f 156/691/262 153/692/263 151/693/264
#fvcolorindex 160 161 162 
vt 0.000000 0.000000 0.0
vt 0.000000 0.000000 0.0
vt 0.000000 0.000000 0.0
#vcolor 254.000000 135.000000 37.000000 255.000000
vn 2.000000 1.047244 1.795276
vn 0.015748 1.062992 0.291339
vn 2.000000 1.062992 0.291339
f 156/694/265 151/695/266 159/696/267
#fvcolorindex 160 162 163 
usemtl m78EnvMappingTexScaleS0.031250TexScaleT0.031250
vt 0.000000 0.000000 0.0
vt 0.000000 0.000000 0.0
vt 0.000000 0.000000 0.0
vn 1.062992 0.118110 0.244094
vn 1.094488 0.149606 0.346457
vn 1.102362 0.149606 1.661417
f 153/697/268 152/698/269 150/699/270
#fvcolorindex 158 157 145 
vt 0.000000 0.000000 0.0
vt 0.000000 0.000000 0.0
vt 0.000000 0.000000 0.0
vn 1.062992 0.118110 0.244094
vn 1.102362 0.149606 1.661417
vn 1.078740 0.118110 1.700787
f 153/700/271 150/701/272 151/702/273
#fvcolorindex 158 145 144 
usemtl m69EnvMappingTexScaleS0.031250TexScaleT0.031250
vt 0.000000 0.000000 0.0
vt 0.000000 0.000000 0.0
vt 0.000000 0.000000 0.0
v -8.480308 43.275734 442.133331
#joint 33
#vjoint 174
v -3.480307 -12.724264 386.133331
#joint 33
#vjoint 175
vn 0.070866 0.984252 1.889764
vn 1.944882 0.984252 1.889764
vn 1.952756 0.913386 0.393701
f 166/703/274 174/704/275 175/705/276
#fvcolorindex 132 133 134 
vt 0.000000 0.000000 0.0
vt 0.000000 0.000000 0.0
vt 0.000000 0.000000 0.0
vn 0.070866 0.984252 1.889764
vn 1.952756 0.913386 0.393701
vn 0.062992 0.913386 0.393701
f 166/706/277 175/707/278 167/708/279
#fvcolorindex 132 134 135 
usemtl m79EnvMappingTexScaleS0.031250TexScaleT0.031250
vt 0.000000 0.000000 0.0
vt 0.000000 0.000000 0.0
vt 0.000000 0.000000 0.0
#vcolor 146.000000 224.000000 203.000000 255.000000
#vcolor 138.000000 222.000000 31.000000 255.000000
#vcolor 142.000000 247.000000 53.000000 255.000000
vn 1.149606 1.763780 1.598425
vn 1.086614 1.748031 0.244094
vn 1.118110 1.944882 0.417323
f 168/709/280 167/710/281 175/711/282
#fvcolorindex 164 165 166 
vt 0.000000 0.000000 0.0
vt 0.000000 0.000000 0.0
vt 0.000000 0.000000 0.0
v -3.480307 -12.724264 183.133331
#joint 33
#vjoint 176
#vcolor 131.000000 246.000000 239.000000 255.000000
vn 1.149606 1.763780 1.598425
vn 1.118110 1.944882 0.417323
vn 1.031496 1.937008 1.881890
f 168/712/283 175/713/284 176/714/285
#fvcolorindex 164 166 167 
usemtl m69EnvMappingTexScaleS0.031250TexScaleT0.031250
vt 0.000000 0.000000 0.0
vt 0.000000 0.000000 0.0
vt 0.000000 0.000000 0.0
vn 0.070866 0.984252 1.889764
vn 1.944882 0.984252 1.889764
vn 1.952756 0.913386 0.393701
f 171/715/286 173/716/287 174/717/288
#fvcolorindex 132 133 134 
vt 0.000000 0.000000 0.0
vt 0.000000 0.000000 0.0
vt 0.000000 0.000000 0.0
vn 0.070866 0.984252 1.889764
vn 1.952756 0.913386 0.393701
vn 0.062992 0.913386 0.393701
f 171/718/289 174/719/290 166/720/291
#fvcolorindex 132 134 135 
usemtl m79EnvMappingTexScaleS0.031250TexScaleT0.031250
vt 0.000000 0.000000 0.0
vt 0.000000 0.000000 0.0
vt 0.000000 0.000000 0.0
vn 1.149606 1.763780 1.598425
vn 1.086614 1.748031 0.244094
vn 1.118110 1.944882 0.417323
f 176/721/292 175/722/293 174/723/294
#fvcolorindex 164 165 166 
vt 0.000000 0.000000 0.0
vt 0.000000 0.000000 0.0
vt 0.000000 0.000000 0.0
v -8.480308 43.275734 274.133331
#joint 33
#vjoint 177
vn 1.149606 1.763780 1.598425
vn 1.118110 1.944882 0.417323
vn 1.031496 1.937008 1.881890
f 176/724/295 174/725/296 177/726/297
#fvcolorindex 164 166 167 
usemtl m80EnvMappingTexScaleS0.031250TexScaleT0.031250
vt 0.000000 0.000000 0.0
vt 0.000000 0.000000 0.0
vt 0.000000 0.000000 0.0
v -8.480308 43.275734 183.133331
#joint 33
#vjoint 178
#vcolor 142.000000 247.000000 203.000000 255.000000
vn 1.031496 1.937008 1.881890
vn 1.118110 1.944882 1.598425
vn 1.149606 1.763780 1.598425
f 177/727/298 178/728/299 176/729/300
#fvcolorindex 167 168 164 
usemtl m81EnvMappingTexScaleS0.031250TexScaleT0.031250
vt 0.000000 0.000000 0.0
vt 0.000000 0.000000 0.0
vt 0.000000 0.000000 0.0
#vcolor 131.000000 0.000000 239.000000 255.000000
#vcolor 141.000000 0.000000 53.000000 255.000000
#vcolor 142.000000 16.000000 52.000000 255.000000
vn 1.031496 0.000000 1.881890
vn 1.110236 0.000000 0.417323
vn 1.118110 0.125984 0.409449
f 177/730/301 174/731/302 173/732/303
#fvcolorindex 169 170 171 
vt 0.000000 0.000000 0.0
vt 0.000000 0.000000 0.0
vt 0.000000 0.000000 0.0
#vcolor 132.000000 18.000000 239.000000 255.000000
vn 1.031496 0.000000 1.881890
vn 1.118110 0.125984 0.409449
vn 1.039370 0.141732 1.881890
f 177/733/304 173/734/305 172/735/306
#fvcolorindex 169 171 172 
usemtl m53EnvMappingTexScaleS0.031250TexScaleT0.031250
vt 0.000000 0.000000 0.0
vt 0.000000 0.000000 0.0
vt 0.000000 0.000000 0.0
v -18.480307 33.275734 183.133331
#joint 33
#vjoint 179
vn 0.984252 0.000000 0.141732
vn 0.968504 1.881890 0.181102
vn 0.937008 1.740157 0.181102
f 146/736/307 179/737/308 164/738/309
#fvcolorindex 80 83 84 
vt 0.000000 0.000000 0.0
vt 0.000000 0.000000 0.0
vt 0.000000 0.000000 0.0
vn 0.984252 0.000000 0.141732
vn 0.937008 1.740157 0.181102
vn 0.952756 1.740157 1.937008
f 146/739/310 164/740/311 147/741/312
#fvcolorindex 80 84 81 
vt 0.000000 0.000000 0.0
vt 0.000000 0.000000 0.0
vt 0.000000 0.000000 0.0
vn 0.984252 0.000000 0.141732
vn 0.968504 1.881890 0.181102
vn 0.937008 1.740157 0.181102
f 82/742/313 81/743/314 179/744/315
#fvcolorindex 80 83 84 
vt 0.000000 0.000000 0.0
vt 0.000000 0.000000 0.0
vt 0.000000 0.000000 0.0
vn 0.984252 0.000000 0.141732
vn 0.937008 1.740157 0.181102
vn 0.952756 1.740157 1.937008
f 82/745/316 179/746/317 146/747/318
#fvcolorindex 80 84 81 
usemtl m82EnvMappingTexScaleS0.031250TexScaleT0.031250
vt 0.000000 0.000000 0.0
vt 0.000000 0.000000 0.0
vt 0.000000 0.000000 0.0
v -18.480307 79.275734 167.133331
#joint 33
#vjoint 180
#vcolor 131.000000 0.000000 18.000000 255.000000
#vcolor 139.000000 0.000000 208.000000 255.000000
#vcolor 139.000000 253.000000 208.000000 255.000000
vn 1.031496 0.000000 0.141732
vn 1.094488 0.000000 1.637795
vn 1.094488 1.992126 1.637795
f 180/748/319 76/749/320 75/750/321
#fvcolorindex 173 174 175 
vt 0.000000 0.000000 0.0
vt 0.000000 0.000000 0.0
vt 0.000000 0.000000 0.0
#vcolor 136.000000 237.000000 222.000000 255.000000
vn 1.031496 0.000000 0.141732
vn 1.094488 1.992126 1.637795
vn 1.070866 1.866142 1.748031
f 180/751/322 75/752/323 83/753/324
#fvcolorindex 173 175 176 
usemtl m83EnvMappingTexScaleS0.031250TexScaleT0.031250
vt 0.000000 0.000000 0.0
vt 0.000000 0.000000 0.0
vt 0.000000 0.000000 0.0
#vcolor 134.000000 237.000000 229.000000 255.000000
#vcolor 135.000000 221.000000 246.000000 255.000000
vn 1.070866 1.866142 1.748031
vn 1.055118 1.866142 1.803150
vn 1.062992 1.740157 1.937008
f 83/754/325 67/755/326 70/756/327
#fvcolorindex 176 177 178 
vt 0.000000 0.000000 0.0
vt 0.000000 0.000000 0.0
vt 0.000000 0.000000 0.0
vn 1.070866 1.866142 1.748031
vn 1.062992 1.740157 1.937008
vn 1.031496 0.000000 0.141732
f 83/757/328 70/758/329 180/759/330
#fvcolorindex 176 178 173 
usemtl m84EnvMappingTexScaleS0.031250TexScaleT0.031250
vt 0.000000 0.000000 0.0
vt 0.000000 0.000000 0.0
vt 0.000000 0.000000 0.0
#vcolor 137.000000 221.000000 23.000000 255.000000
#vcolor 133.000000 239.000000 23.000000 255.000000
vn 1.062992 1.740157 1.937008
vn 1.078740 1.740157 0.181102
vn 1.047244 1.881890 0.181102
f 70/760/331 164/761/332 179/762/333
#fvcolorindex 178 179 180 
vt 0.000000 0.000000 0.0
vt 0.000000 0.000000 0.0
vt 0.000000 0.000000 0.0
vn 1.062992 1.740157 1.937008
vn 1.047244 1.881890 0.181102
vn 1.031496 0.000000 0.141732
f 70/763/334 179/764/335 180/765/336
#fvcolorindex 178 180 173 
usemtl m82EnvMappingTexScaleS0.031250TexScaleT0.031250
vt 0.000000 0.000000 0.0
vt 0.000000 0.000000 0.0
vt 0.000000 0.000000 0.0
#vcolor 143.000000 240.000000 53.000000 255.000000
vn 1.031496 0.000000 0.141732
vn 1.047244 1.881890 0.181102
vn 1.125984 1.889764 0.417323
f 180/766/337 179/767/338 81/768/339
#fvcolorindex 173 180 181 
vt 0.000000 0.000000 0.0
vt 0.000000 0.000000 0.0
vt 0.000000 0.000000 0.0
#vcolor 142.000000 0.000000 54.000000 255.000000
vn 1.031496 0.000000 0.141732
vn 1.125984 1.889764 0.417323
vn 1.118110 0.000000 0.425197
f 180/769/340 81/770/341 35/771/342
#fvcolorindex 173 181 182 
usemtl m85EnvMappingTexScaleS0.031250TexScaleT0.031250
vt 0.000000 0.000000 0.0
vt 0.000000 0.000000 0.0
vt 0.000000 0.000000 0.0
#vcolor 91.000000 170.000000 238.000000 255.000000
v -8.480308 73.275734 -30.866669
#joint 33
#vjoint 181
#vcolor 93.000000 173.000000 235.000000 255.000000
v -8.480308 73.275734 -86.866669
#joint 33
#vjoint 182
#vcolor 94.000000 172.000000 3.000000 255.000000
vn 0.716535 1.338583 1.874016
vn 0.732283 1.362205 1.850394
vn 0.740157 1.354331 0.023622
f 94/772/343 181/773/344 182/774/345
#fvcolorindex 183 184 185 
vt 0.000000 0.000000 0.0
vt 0.000000 0.000000 0.0
vt 0.000000 0.000000 0.0
#vcolor 92.000000 169.000000 3.000000 255.000000
vn 0.716535 1.338583 1.874016
vn 0.740157 1.354331 0.023622
vn 0.724409 1.330709 0.023622
f 94/775/346 182/776/347 95/777/348
#fvcolorindex 183 185 186 
usemtl m86EnvMappingTexScaleS0.031250TexScaleT0.031250
vt 0.000000 0.000000 0.0
vt 0.000000 0.000000 0.0
vt 0.000000 0.000000 0.0
#vcolor 154.000000 9.000000 74.000000 255.000000
#vcolor 152.000000 9.000000 71.000000 255.000000
v -8.480308 53.275734 -86.866669
#joint 33
#vjoint 183
#vcolor 151.000000 0.000000 71.000000 255.000000
vn 1.212598 0.070866 0.582677
vn 1.196850 0.070866 0.559055
vn 1.188976 0.000000 0.559055
f 95/778/349 182/779/350 183/780/351
#fvcolorindex 187 188 189 
vt 0.000000 0.000000 0.0
vt 0.000000 0.000000 0.0
vt 0.000000 0.000000 0.0
#vcolor 153.000000 1.000000 74.000000 255.000000
vn 1.212598 0.070866 0.582677
vn 1.188976 0.000000 0.559055
vn 1.204724 0.007874 0.582677
f 95/781/352 183/782/353 92/783/354
#fvcolorindex 187 189 190 
usemtl m87EnvMappingTexScaleS0.031250TexScaleT0.031250
vt 0.000000 0.000000 0.0
vt 0.000000 0.000000 0.0
vt 0.000000 0.000000 0.0
#vcolor 92.000000 169.000000 253.000000 255.000000
#vcolor 94.000000 172.000000 253.000000 255.000000
#vcolor 93.000000 173.000000 21.000000 255.000000
vn 0.724409 1.330709 1.992126
vn 0.740157 1.354331 1.992126
vn 0.732283 1.362205 0.165354
f 88/784/355 138/785/356 139/786/357
#fvcolorindex 191 192 193 
vt 0.000000 0.000000 0.0
vt 0.000000 0.000000 0.0
vt 0.000000 0.000000 0.0
#vcolor 91.000000 170.000000 18.000000 255.000000
vn 0.724409 1.330709 1.992126
vn 0.732283 1.362205 0.165354
vn 0.716535 1.338583 0.141732
f 88/787/358 139/788/359 89/789/360
#fvcolorindex 191 193 194 
usemtl m88EnvMappingTexScaleS0.031250TexScaleT0.031250
vt 0.000000 0.000000 0.0
vt 0.000000 0.000000 0.0
vt 0.000000 0.000000 0.0
#vcolor 103.000000 1.000000 74.000000 255.000000
#vcolor 105.000000 0.000000 71.000000 255.000000
#vcolor 104.000000 9.000000 71.000000 255.000000
vn 0.811024 0.007874 0.582677
vn 0.826772 0.000000 0.559055
vn 0.818898 0.070866 0.559055
f 91/790/361 143/791/362 138/792/363
#fvcolorindex 195 196 197 
vt 0.000000 0.000000 0.0
vt 0.000000 0.000000 0.0
vt 0.000000 0.000000 0.0
#vcolor 102.000000 9.000000 74.000000 255.000000
vn 0.811024 0.007874 0.582677
vn 0.818898 0.070866 0.559055
vn 0.803150 0.070866 0.582677
f 91/793/364 138/794/365 88/795/366
#fvcolorindex 195 197 198 
usemtl m89EnvMappingTexScaleS0.031250TexScaleT0.031250
vt 0.000000 0.000000 0.0
vt 0.000000 0.000000 0.0
vt 0.000000 0.000000 0.0
#vcolor 241.000000 149.000000 65.000000 255.000000
v -8.480308 7.275736 -71.866669
#joint 33
#vjoint 184
#vcolor 15.000000 149.000000 65.000000 255.000000
v -8.480308 -27.724264 -107.866669
#joint 33
#vjoint 185
#vcolor 14.000000 145.000000 59.000000 255.000000
vn 1.897638 1.173228 0.511811
vn 0.118110 1.173228 0.511811
vn 0.110236 1.141732 0.464567
f 144/796/367 184/797/368 185/798/369
#fvcolorindex 199 200 201 
vt 0.000000 0.000000 0.0
vt 0.000000 0.000000 0.0
vt 0.000000 0.000000 0.0
#vcolor 242.000000 145.000000 59.000000 255.000000
vn 1.897638 1.173228 0.511811
vn 0.110236 1.141732 0.464567
vn 1.905512 1.141732 0.464567
f 144/799/370 185/800/371 141/801/372
#fvcolorindex 199 201 202 
vt 0.000000 0.000000 0.0
vt 0.000000 0.000000 0.0
vt 0.000000 0.000000 0.0
vn 1.897638 1.173228 0.511811
vn 0.118110 1.173228 0.511811
vn 0.110236 1.141732 0.464567
f 86/802/373 85/803/374 184/804/375
#fvcolorindex 199 200 201 
vt 0.000000 0.000000 0.0
vt 0.000000 0.000000 0.0
vt 0.000000 0.000000 0.0
vn 1.897638 1.173228 0.511811
vn 0.110236 1.141732 0.464567
vn 1.905512 1.141732 0.464567
f 86/805/376 184/806/377 144/807/378
#fvcolorindex 199 201 202 
vt 0.000000 0.000000 0.0
vt 0.000000 0.000000 0.0
vt 0.000000 0.000000 0.0
v -8.480308 -27.724264 -203.866669
#joint 33
#vjoint 186
vn 1.897638 1.173228 0.511811
vn 0.118110 1.173228 0.511811
vn 0.110236 1.141732 0.464567
f 141/808/379 185/809/380 186/810/381
#fvcolorindex 199 200 201 
vt 0.000000 0.000000 0.0
vt 0.000000 0.000000 0.0
vt 0.000000 0.000000 0.0
vn 1.897638 1.173228 0.511811
vn 0.110236 1.141732 0.464567
vn 1.905512 1.141732 0.464567
f 141/811/382 186/812/383 142/813/384
#fvcolorindex 199 201 202 
usemtl m38EnvMappingTexScaleS0.031250TexScaleT0.031250
vt 0.000000 0.000000 0.0
vt 0.000000 0.000000 0.0
vt 0.000000 0.000000 0.0
vn 0.110236 0.874016 1.551181
vn 1.905512 0.874016 1.551181
vn 1.897638 0.842520 1.503937
f 142/814/385 186/815/386 131/816/387
#fvcolorindex 35 36 37 
vt 0.000000 0.000000 0.0
vt 0.000000 0.000000 0.0
vt 0.000000 0.000000 0.0
vn 0.110236 0.874016 1.551181
vn 1.897638 0.842520 1.503937
vn 0.118110 0.842520 1.503937
f 142/817/388 131/818/389 130/819/390
#fvcolorindex 35 37 38 
usemtl m90EnvMappingTexScaleS0.031250TexScaleT0.031250
vt 0.000000 0.000000 0.0
vt 0.000000 0.000000 0.0
vt 0.000000 0.000000 0.0
#vcolor 133.000000 10.000000 26.000000 255.000000
#vcolor 131.000000 10.000000 242.000000 255.000000
#vcolor 130.000000 8.000000 253.000000 255.000000
vn 1.047244 0.078740 0.204724
vn 1.031496 0.078740 1.905512
vn 1.023622 0.062992 1.992126
f 84/820/391 134/821/392 182/822/393
#fvcolorindex 203 204 205 
usemtl m91EnvMappingTexScaleS0.031250TexScaleT0.031250
vt 0.000000 0.000000 0.0
vt 0.000000 0.000000 0.0
vt 0.000000 0.000000 0.0
#vcolor 132.000000 0.000000 232.000000 255.000000
vn 1.031496 0.078740 1.905512
vn 1.039370 0.000000 1.826772
vn 1.023622 0.062992 1.992126
f 134/823/394 132/824/395 182/825/396
#fvcolorindex 204 206 205 
usemtl m92EnvMappingTexScaleS0.031250TexScaleT0.031250
vt 0.000000 0.000000 0.0
vt 0.000000 0.000000 0.0
vt 0.000000 0.000000 0.0
#vcolor 131.000000 8.000000 20.000000 255.000000
vn 1.023622 0.062992 1.992126
vn 1.031496 0.062992 0.157480
vn 1.047244 0.078740 0.204724
f 182/826/397 181/827/398 84/828/399
#fvcolorindex 205 207 203 
usemtl m93EnvMappingTexScaleS0.031250TexScaleT0.031250
vt 0.000000 0.000000 0.0
vt 0.000000 0.000000 0.0
vt 0.000000 0.000000 0.0
v -8.480308 53.275734 -30.866669
#joint 33
#vjoint 187
#vcolor 131.000000 0.000000 20.000000 255.000000
vn 1.031496 0.062992 0.157480
vn 1.031496 0.000000 0.157480
vn 1.047244 0.078740 0.204724
f 181/829/400 187/830/401 84/831/402
#fvcolorindex 207 208 203 
usemtl m94EnvMappingTexScaleS0.031250TexScaleT0.031250
vt 0.000000 0.000000 0.0
vt 0.000000 0.000000 0.0
vt 0.000000 0.000000 0.0
#vcolor 140.000000 0.000000 207.000000 255.000000
#vcolor 143.000000 225.000000 208.000000 255.000000
vn 1.039370 0.000000 1.826772
vn 1.102362 0.000000 1.629921
vn 1.125984 1.771654 1.637795
f 132/832/403 131/833/404 186/834/405
#fvcolorindex 206 209 210 
vt 0.000000 0.000000 0.0
vt 0.000000 0.000000 0.0
vt 0.000000 0.000000 0.0
#vcolor 135.000000 222.000000 245.000000 255.000000
vn 1.039370 0.000000 1.826772
vn 1.125984 1.771654 1.637795
vn 1.062992 1.748031 1.929134
f 132/835/406 186/836/407 185/837/408
#fvcolorindex 206 210 211 
usemtl m95EnvMappingTexScaleS0.031250TexScaleT0.031250
vt 0.000000 0.000000 0.0
vt 0.000000 0.000000 0.0
vt 0.000000 0.000000 0.0
#vcolor 131.000000 236.000000 3.000000 255.000000
#vcolor 130.000000 0.000000 253.000000 255.000000
vn 1.062992 1.748031 1.929134
vn 1.031496 1.858268 0.023622
vn 1.023622 0.000000 1.992126
f 185/838/409 184/839/410 183/840/411
#fvcolorindex 211 212 213 
vt 0.000000 0.000000 0.0
vt 0.000000 0.000000 0.0
vt 0.000000 0.000000 0.0
vn 1.062992 1.748031 1.929134
vn 1.023622 0.000000 1.992126
vn 1.039370 0.000000 1.826772
f 185/841/412 183/842/413 132/843/414
#fvcolorindex 211 213 206 
usemtl m92EnvMappingTexScaleS0.031250TexScaleT0.031250
vt 0.000000 0.000000 0.0
vt 0.000000 0.000000 0.0
vt 0.000000 0.000000 0.0
vn 1.023622 0.062992 1.992126
vn 1.039370 0.000000 1.826772
vn 1.023622 0.000000 1.992126
f 182/844/415 132/845/416 183/846/417
#fvcolorindex 205 206 213 
usemtl m96EnvMappingTexScaleS0.031250TexScaleT0.031250
vt 0.000000 0.000000 0.0
vt 0.000000 0.000000 0.0
vt 0.000000 0.000000 0.0
#vcolor 134.000000 237.000000 26.000000 255.000000
vn 1.031496 0.000000 0.157480
vn 1.055118 1.866142 0.204724
vn 1.047244 0.078740 0.204724
f 187/847/418 85/848/419 84/849/420
#fvcolorindex 208 214 203 
vt 0.000000 0.000000 0.0
vt 0.000000 0.000000 0.0
vt 0.000000 0.000000 0.0
vn 1.031496 0.000000 0.157480
vn 1.023622 0.000000 1.992126
vn 1.031496 1.858268 0.023622
f 187/850/421 183/851/422 184/852/423
#fvcolorindex 208 213 212 
vt 0.000000 0.000000 0.0
vt 0.000000 0.000000 0.0
vt 0.000000 0.000000 0.0
vn 1.031496 0.000000 0.157480
vn 1.031496 1.858268 0.023622
vn 1.055118 1.866142 0.204724
f 187/853/424 184/854/425 85/855/426
#fvcolorindex 208 212 214 
usemtl m97EnvMappingTexScaleS0.031250TexScaleT0.031250
vt 0.000000 0.000000 0.0
vt 0.000000 0.000000 0.0
vt 0.000000 0.000000 0.0
#vcolor 164.000000 87.000000 253.000000 255.000000
#vcolor 162.000000 84.000000 253.000000 255.000000
#vcolor 163.000000 83.000000 21.000000 255.000000
vn 1.291339 0.685039 1.992126
vn 1.275591 0.661417 1.992126
vn 1.283465 0.653543 0.165354
f 92/856/427 183/857/428 187/858/429
#fvcolorindex 215 216 217 
vt 0.000000 0.000000 0.0
vt 0.000000 0.000000 0.0
vt 0.000000 0.000000 0.0
#vcolor 165.000000 86.000000 18.000000 255.000000
vn 1.291339 0.685039 1.992126
vn 1.283465 0.653543 0.165354
vn 1.299213 0.677165 0.141732
f 92/859/430 187/860/431 93/861/432
#fvcolorindex 215 217 218 
usemtl m98EnvMappingTexScaleS0.031250TexScaleT0.031250
vt 0.000000 0.000000 0.0
vt 0.000000 0.000000 0.0
vt 0.000000 0.000000 0.0
#vcolor 153.000000 1.000000 182.000000 255.000000
#vcolor 151.000000 0.000000 185.000000 255.000000
#vcolor 152.000000 9.000000 185.000000 255.000000
vn 1.204724 0.007874 1.433071
vn 1.188976 0.000000 1.456693
vn 1.196850 0.070866 1.456693
f 93/862/433 187/863/434 181/864/435
#fvcolorindex 219 220 221 
vt 0.000000 0.000000 0.0
vt 0.000000 0.000000 0.0
vt 0.000000 0.000000 0.0
#vcolor 154.000000 9.000000 182.000000 255.000000
vn 1.204724 0.007874 1.433071
vn 1.196850 0.070866 1.456693
vn 1.212598 0.070866 1.433071
f 93/865/436 181/866/437 94/867/438
#fvcolorindex 219 221 222 
usemtl m99TransparentClampSMirrorT
vt 0.833659 0.570312 0.0
vt -0.099284 0.570312 0.0
vt 0.049154 0.000000 0.0
#vcolor 216.000000 216.000000 216.000000 191.000000
f 165/868 166/869 167/870
#fvcolorindex 223 223 223 
vt 0.833659 0.570312 0.0
vt 0.049154 0.000000 0.0
vt 1.180339 0.000000 0.0
f 165/871 167/872 168/873
#fvcolorindex 223 223 223 
usemtl m100TransparentClampSMirrorT
vt 0.951823 0.985352 0.0
vt 0.018880 0.985352 0.0
vt -0.099284 0.570312 0.0
#vcolor 235.000000 235.000000 235.000000 191.000000
f 170/874 171/875 166/876
#fvcolorindex 224 224 224 
vt 0.951823 0.985352 0.0
vt -0.099284 0.570312 0.0
vt 0.833659 0.570312 0.0
f 170/877 166/878 165/879
#fvcolorindex 224 224 224 
usemtl m101TransparentClampSMirrorT
vt 1.438802 0.663574 0.0
vt 1.438802 1.303711 0.0
vt 0.000000 1.303711 0.0
#vcolor 255.000000 255.000000 255.000000 191.000000
f 170/880 172/881 173/882
#fvcolorindex 225 225 225 
vt 1.438802 0.663574 0.0
vt 0.000000 1.303711 0.0
vt 0.000000 0.663574 0.0
f 170/883 173/884 171/885
#fvcolorindex 225 225 225 
usemtl m99TransparentClampSMirrorT
vt 1.180339 0.000000 0.0
vt 0.049154 0.000000 0.0
vt -0.099284 0.570312 0.0
f 176/886 175/887 174/888
#fvcolorindex 223 223 223 
vt 1.180339 0.000000 0.0
vt -0.099284 0.570312 0.0
vt 0.833659 0.570312 0.0
f 176/889 174/890 177/891
#fvcolorindex 223 223 223 
usemtl m100TransparentClampSMirrorT
vt 0.833659 0.570312 0.0
vt -0.099284 0.570312 0.0
vt 0.018880 0.985352 0.0
f 177/892 174/893 173/894
#fvcolorindex 224 224 224 
vt 0.833659 0.570312 0.0
vt 0.018880 0.985352 0.0
vt 0.951823 0.985352 0.0
f 177/895 173/896 172/897
#fvcolorindex 224 224 224 
usemtl m102TransparentMirrorT
vt 1.947754 1.014648 0.0
vt -0.054199 1.014648 0.0
vt -0.054199 0.918457 0.0
f 66/898 37/899 36/900
#fvcolorindex 225 225 225 
vt 1.947754 1.014648 0.0
vt -0.054199 0.918457 0.0
vt 1.947754 0.918457 0.0
f 66/901 36/902 63/903
#fvcolorindex 225 225 225 
usemtl m103TransparentMirrorT
vt 0.683594 0.918457 0.0
vt 0.578125 0.483398 0.0
vt 0.578125 0.000000 0.0
f 145/904 146/905 147/906
#fvcolorindex 224 224 224 
vt 0.683594 0.918457 0.0
vt 0.578125 0.000000 0.0
vt 1.210449 0.000000 0.0
f 145/907 147/908 69/909
#fvcolorindex 224 224 224 
vt 0.683594 0.918457 0.0
vt 1.526367 0.435059 0.0
vt 1.666992 0.435059 0.0
f 145/910 68/911 71/912
#fvcolorindex 224 224 224 
vt 0.683594 0.918457 0.0
vt 1.210449 0.000000 0.0
vt 1.526367 0.435059 0.0
f 145/913 69/914 68/915
#fvcolorindex 224 224 224 
vt 1.666992 0.435059 0.0
vt 1.947754 0.821777 0.0
vt 1.947754 0.918457 0.0
f 71/916 64/917 63/918
#fvcolorindex 224 224 224 
vt 1.666992 0.435059 0.0
vt 1.947754 0.918457 0.0
vt 0.683594 0.918457 0.0
f 71/919 63/920 145/921
#fvcolorindex 224 224 224 
vt -0.054199 0.918457 0.0
vt -0.054199 0.483398 0.0
vt 0.578125 0.483398 0.0
f 36/922 82/923 146/924
#fvcolorindex 224 224 224 
vt -0.054199 0.918457 0.0
vt 0.578125 0.483398 0.0
vt 0.683594 0.918457 0.0
f 36/925 146/926 145/927
#fvcolorindex 224 224 224 
usemtl m102TransparentMirrorT
vt 1.947754 0.918457 0.0
vt -0.054199 0.918457 0.0
vt -0.054199 1.014648 0.0
f 76/928 35/929 34/930
#fvcolorindex 225 225 225 
vt 1.947754 0.918457 0.0
vt -0.054199 1.014648 0.0
vt 1.947754 1.014648 0.0
f 76/931 34/932 72/933
#fvcolorindex 225 225 225 
usemtl m103TransparentMirrorT
vt 1.210449 0.000000 0.0
vt 0.578125 0.000000 0.0
vt 0.578125 0.483398 0.0
f 70/934 164/935 179/936
#fvcolorindex 224 224 224 
vt 1.210449 0.000000 0.0
vt 0.578125 0.483398 0.0
vt 0.683594 0.918457 0.0
f 70/937 179/938 180/939
#fvcolorindex 224 224 224 
vt 1.666992 0.435059 0.0
vt 1.526367 0.435059 0.0
vt 0.683594 0.918457 0.0
f 83/940 67/941 180/942
#fvcolorindex 224 224 224 
vt 1.526367 0.435059 0.0
vt 1.210449 0.000000 0.0
vt 0.683594 0.918457 0.0
f 67/943 70/944 180/945
#fvcolorindex 224 224 224 
vt 0.683594 0.918457 0.0
vt 1.947754 0.918457 0.0
vt 1.947754 0.821777 0.0
f 180/946 76/947 75/948
#fvcolorindex 224 224 224 
vt 0.683594 0.918457 0.0
vt 1.947754 0.821777 0.0
vt 1.666992 0.435059 0.0
f 180/949 75/950 83/951
#fvcolorindex 224 224 224 
vt 0.683594 0.918457 0.0
vt 0.578125 0.483398 0.0
vt -0.054199 0.483398 0.0
f 180/952 179/953 81/954
#fvcolorindex 224 224 224 
vt 0.683594 0.918457 0.0
vt -0.054199 0.483398 0.0
vt -0.054199 0.918457 0.0
f 180/955 81/956 35/957
#fvcolorindex 224 224 224 
usemtl m104TransparentMirrorSMirrorT
vt 1.494141 0.087891 0.0
vt 1.494141 -1.058594 0.0
vt 6.507812 -1.058594 0.0
f 66/958 72/959 34/960
#fvcolorindex 225 225 225 
vt 1.494141 0.087891 0.0
vt 6.507812 -1.058594 0.0
vt 6.507812 0.087891 0.0
f 66/961 34/962 37/963
#fvcolorindex 225 225 225 
usemtl m105TransparentCullBothMirrorSMirrorT
vt 1.253906 0.000000 0.0
vt 1.775391 -0.513672 0.0
vt 0.103516 -0.513672 0.0
#vcolor 235.000000 235.000000 235.000000 127.000000
f 158/964 160/965 161/966
#fvcolorindex 226 226 226 
vt 1.253906 0.000000 0.0
vt 0.103516 -0.513672 0.0
vt 0.000000 0.000000 0.0
f 158/967 161/968 159/969
#fvcolorindex 226 226 226 
vt 0.000000 0.000000 0.0
vt -0.226562 -0.511719 0.0
vt 3.253906 -0.511719 0.0
f 159/970 161/971 162/972
#fvcolorindex 226 226 226 
vt 0.000000 0.000000 0.0
vt 3.253906 -0.511719 0.0
vt 2.722656 0.000000 0.0
f 159/973 162/974 156/975
#fvcolorindex 226 226 226 
vt 0.623047 0.105469 0.0
vt -0.048828 0.121094 0.0
vt 0.230469 -0.566406 0.0
f 157/976 156/977 162/978
#fvcolorindex 226 226 226 
vt 0.623047 0.105469 0.0
vt 0.230469 -0.566406 0.0
vt 1.126953 -0.589844 0.0
f 157/979 162/980 163/981
#fvcolorindex 226 226 226 
vt 1.253906 0.000000 0.0
vt 1.775391 -0.513672 0.0
vt 0.103516 -0.513672 0.0
f 148/982 149/983 150/984
#fvcolorindex 226 226 226 
vt 1.253906 0.000000 0.0
vt 0.103516 -0.513672 0.0
vt 0.000000 0.000000 0.0
f 148/985 150/986 151/987
#fvcolorindex 226 226 226 
vt 0.000000 0.000000 0.0
vt -0.226562 -0.511719 0.0
vt 3.253906 -0.511719 0.0
f 151/988 150/989 152/990
#fvcolorindex 226 226 226 
vt 0.000000 0.000000 0.0
vt 3.253906 -0.511719 0.0
vt 2.722656 0.000000 0.0
f 151/991 152/992 153/993
#fvcolorindex 226 226 226 
vt 0.623047 0.105469 0.0
vt -0.048828 0.121094 0.0
vt 0.230469 -0.566406 0.0
f 154/994 153/995 152/996
#fvcolorindex 226 226 226 
vt 0.623047 0.105469 0.0
vt 0.230469 -0.566406 0.0
vt 1.126953 -0.589844 0.0
f 154/997 152/998 155/999
#fvcolorindex 226 226 226 
usemtl m106TransparentMirrorT
vt -0.020508 0.000000 0.0
vt 1.000000 0.000000 0.0
vt 1.000000 0.793945 0.0
f 141/1000 142/1001 130/1002
#fvcolorindex 224 224 224 
vt -0.020508 0.000000 0.0
vt 1.000000 0.793945 0.0
vt 0.301758 0.793945 0.0
f 141/1003 130/1004 133/1005
#fvcolorindex 224 224 224 
vt -0.235352 0.793945 0.0
vt 0.301758 0.793945 0.0
vt -0.235352 0.992676 0.0
f 143/1006 133/1007 138/1008
#fvcolorindex 224 224 224 
vt 0.301758 0.793945 0.0
vt -0.235352 0.793945 0.0
vt -0.396484 0.347656 0.0
f 133/1009 143/1010 144/1011
#fvcolorindex 224 224 224 
vt 0.301758 0.793945 0.0
vt -0.396484 0.347656 0.0
vt -0.020508 0.000000 0.0
f 133/1012 144/1013 141/1014
#fvcolorindex 224 224 224 
vt -0.987305 0.347656 0.0
vt -0.396484 0.347656 0.0
vt -0.235352 0.793945 0.0
f 86/1015 144/1016 143/1017
#fvcolorindex 224 224 224 
vt -0.987305 0.347656 0.0
vt -0.235352 0.793945 0.0
vt -0.826172 0.793945 0.0
f 86/1018 143/1019 140/1020
#fvcolorindex 224 224 224 
vt -0.984375 1.042969 0.0
vt -0.984375 0.347656 0.0
vt -0.823730 0.794434 0.0
f 87/1021 86/1022 140/1023
#fvcolorindex 224 224 224 
vt -0.984375 1.042969 0.0
vt -0.823730 0.794434 0.0
vt -0.823730 0.993164 0.0
f 87/1024 140/1025 139/1026
#fvcolorindex 224 224 224 
usemtl m107TransparentMirrorT
vt 1.580566 0.169922 0.0
vt 1.587891 -0.170898 0.0
vt -0.385254 -0.170898 0.0
f 136/1027 135/1028 73/1029
#fvcolorindex 225 225 225 
vt 1.580566 0.169922 0.0
vt -0.385254 -0.170898 0.0
vt -0.393066 0.169922 0.0
f 136/1030 73/1031 65/1032
#fvcolorindex 225 225 225 
vt 1.580566 0.169922 0.0
vt -0.393066 0.169922 0.0
vt -0.395996 0.321777 0.0
f 136/1033 65/1034 87/1035
#fvcolorindex 225 225 225 
vt 1.580566 0.169922 0.0
vt -0.395996 0.321777 0.0
vt 1.809082 0.321777 0.0
f 136/1036 87/1037 137/1038
#fvcolorindex 225 225 225 
vt 1.809082 0.321777 0.0
vt -0.395996 0.321777 0.0
vt -0.393066 0.169922 0.0
f 134/1039 84/1040 73/1041
#fvcolorindex 225 225 225 
vt 1.809082 0.321777 0.0
vt -0.393066 0.169922 0.0
vt 1.580566 0.169922 0.0
f 134/1042 73/1043 135/1044
#fvcolorindex 225 225 225 
usemtl m106TransparentMirrorT
vt 0.301758 0.793945 0.0
vt 1.000000 0.793945 0.0
vt 1.000000 0.000000 0.0
f 132/1045 131/1046 186/1047
#fvcolorindex 224 224 224 
vt 0.301758 0.793945 0.0
vt 1.000000 0.000000 0.0
vt -0.020508 0.000000 0.0
f 132/1048 186/1049 185/1050
#fvcolorindex 224 224 224 
vt -0.235352 0.992676 0.0
vt 0.301758 0.793945 0.0
vt -0.235352 0.793945 0.0
f 182/1051 132/1052 183/1053
#fvcolorindex 224 224 224 
vt -0.020508 0.000000 0.0
vt -0.396484 0.347656 0.0
vt -0.235352 0.793945 0.0
f 185/1054 184/1055 183/1056
#fvcolorindex 224 224 224 
vt -0.020508 0.000000 0.0
vt -0.235352 0.793945 0.0
vt 0.301758 0.793945 0.0
f 185/1057 183/1058 132/1059
#fvcolorindex 224 224 224 
vt -0.826172 0.793945 0.0
vt -0.235352 0.793945 0.0
vt -0.396484 0.347656 0.0
f 187/1060 183/1061 184/1062
#fvcolorindex 224 224 224 
vt -0.826172 0.793945 0.0
vt -0.396484 0.347656 0.0
vt -0.987305 0.347656 0.0
f 187/1063 184/1064 85/1065
#fvcolorindex 224 224 224 
vt -0.823730 0.794434 0.0
vt -0.984375 0.347656 0.0
vt -0.984375 1.042969 0.0
f 187/1066 85/1067 84/1068
#fvcolorindex 224 224 224 
vt -0.823730 0.993164 0.0
vt -0.823730 0.794434 0.0
vt -0.984375 1.042969 0.0
f 181/1069 187/1070 84/1071
#fvcolorindex 224 224 224 
g Room30
g Room30_primary
usemtl m108EnvMappingTexScaleS0.031250TexScaleT0.031250
vt 0.000000 0.000000 0.0
vt 0.000000 0.000000 0.0
vt 0.000000 0.000000 0.0
v 13.519692 -139.763779 -194.427887
#joint 39
#vjoint 188
#vcolor 0.000000 0.000000 0.000000 255.000000
v 29.519693 -139.763779 -194.427887
#joint 39
#vjoint 189
v 29.519693 -119.763771 -118.427887
#joint 39
#vjoint 190
vn 0.000000 0.000000 0.000000
vn 0.000000 0.000000 0.000000
vn 0.000000 0.000000 0.000000
f 188/1072/439 189/1073/440 190/1074/441
#fvcolorindex 227 227 227 
vt 0.000000 0.000000 0.0
vt 0.000000 0.000000 0.0
vt 0.000000 0.000000 0.0
v 13.519692 -119.763771 -118.427887
#joint 39
#vjoint 191
vn 0.000000 0.000000 0.000000
vn 0.000000 0.000000 0.000000
vn 0.000000 0.000000 0.000000
f 188/1075/442 190/1076/443 191/1077/444
#fvcolorindex 227 227 227 
usemtl m24ClampSClampT
vt 0.000000 0.000000 0.0
vt 0.000000 0.000000 0.0
vt 0.038086 0.227865 0.0
v 9.519692 -110.724266 7.133331
#joint 33
#vjoint 192
#vcolor 48.000000 48.000000 48.000000 255.000000
v 16.519693 -110.724266 7.133331
#joint 33
#vjoint 193
v 16.519693 -91.724266 9.133331
#joint 33
#vjoint 194
f 192/1078 193/1079 194/1080
#fvcolorindex 228 228 228 
vt 0.000000 0.000000 0.0
vt 0.038086 0.227865 0.0
vt 0.038086 0.227865 0.0
v 9.519692 -91.724266 9.133331
#joint 33
#vjoint 195
f 192/1081 194/1082 195/1083
#fvcolorindex 228 228 228 
vt 0.038086 0.227865 0.0
vt -0.057617 1.027344 0.0
vt 0.165039 0.217448 0.0
v 16.519693 -27.724264 25.133331
#joint 33
#vjoint 196
v 12.519692 -91.724266 9.133331
#joint 33
#vjoint 197
#vcolor 255.000000 255.000000 255.000000 255.000000
f 194/1084 196/1085 197/1086
#fvcolorindex 228 228 229 
vt -0.057617 1.027344 0.0
vt 0.038086 0.227865 0.0
vt 0.165039 0.217448 0.0
v 9.519692 -27.724264 25.133331
#joint 33
#vjoint 198
f 198/1087 195/1088 197/1089
#fvcolorindex 228 228 229 
usemtl m109ClampSClampT
vt 1.000000 0.000000 0.0
vt 0.000000 0.000000 0.0
vt 0.000000 0.000000 0.0
v 12.519692 -105.724266 -35.866669
#joint 33
#vjoint 199
#vcolor 254.000000 254.000000 254.000000 255.000000
f 199/1090 193/1091 192/1092
#fvcolorindex 230 230 228 
usemtl m34
vt 1.000000 0.500000 0.0
vt 1.000000 0.853516 0.0
vt 0.000000 0.853516 0.0
v -1.480307 63.275734 442.133331
#joint 33
#vjoint 200
#vcolor 182.000000 182.000000 182.000000 255.000000
v 4.348785 52.624397 441.856110
#joint 0
#vjoint 201
v 4.348785 52.624397 508.856110
#joint 0
#vjoint 202
f 200/1093 201/1094 202/1095
#fvcolorindex 231 230 230 
vt 1.000000 0.500000 0.0
vt 0.000000 0.853516 0.0
vt 0.000000 0.500000 0.0
v -1.480307 63.275734 509.133331
#joint 33
#vjoint 203
f 200/1096 202/1097 203/1098
#fvcolorindex 231 230 231 
usemtl m110
vt 1.000000 0.853516 0.0
vt 1.000000 1.000000 0.0
vt 0.000000 1.000000 0.0
v 12.519692 49.275734 442.133331
#joint 33
#vjoint 204
#vcolor 86.000000 86.000000 86.000000 255.000000
v 12.519692 49.275734 509.133331
#joint 33
#vjoint 205
f 201/1099 204/1100 205/1101
#fvcolorindex 230 232 232 
vt 1.000000 0.853516 0.0
vt 0.000000 1.000000 0.0
vt 0.000000 0.853516 0.0
f 201/1102 205/1103 202/1104
#fvcolorindex 230 232 230 
usemtl m111
vt 0.667969 0.497070 0.0
vt 0.624023 0.612305 0.0
vt 0.517578 0.506836 0.0
v 26.519693 63.275734 509.133331
#joint 33
#vjoint 206
v 22.519693 74.275734 509.133331
#joint 33
#vjoint 207
v 13.348785 62.624397 506.856110
#joint 0
#vjoint 208
f 206/1105 207/1106 208/1107
#fvcolorindex 230 230 230 
vt 0.624023 0.387695 0.0
vt 0.667969 0.497070 0.0
vt 0.517578 0.506836 0.0
v 22.519693 53.275734 509.133331
#joint 33
#vjoint 209
f 209/1108 206/1109 208/1110
#fvcolorindex 230 230 230 
vt 0.518555 0.347656 0.0
vt 0.624023 0.387695 0.0
vt 0.517578 0.506836 0.0
f 205/1111 209/1112 208/1113
#fvcolorindex 230 230 230 
vt 0.425781 0.393555 0.0
vt 0.518555 0.347656 0.0
vt 0.517578 0.506836 0.0
f 202/1114 205/1115 208/1116
#fvcolorindex 230 230 230 
vt 0.367188 0.516602 0.0
vt 0.425781 0.393555 0.0
vt 0.517578 0.506836 0.0
f 203/1117 202/1118 208/1119
#fvcolorindex 230 230 230 
vt 0.411133 0.626953 0.0
vt 0.367188 0.516602 0.0
vt 0.517578 0.506836 0.0
v 2.519693 74.275734 509.133331
#joint 33
#vjoint 210
f 210/1120 203/1121 208/1122
#fvcolorindex 230 230 230 
vt 0.517578 0.666016 0.0
vt 0.411133 0.626953 0.0
vt 0.517578 0.506836 0.0
v 12.519692 78.275734 509.133331
#joint 33
#vjoint 211
f 211/1123 210/1124 208/1125
#fvcolorindex 230 230 230 
vt 0.624023 0.612305 0.0
vt 0.517578 0.666016 0.0
vt 0.517578 0.506836 0.0
f 207/1126 211/1127 208/1128
#fvcolorindex 230 230 230 
g Room32
g Room32_primary
usemtl m0
vt 1.000000 1.000000 0.0
vt 0.890625 1.000000 0.0
vt 0.890625 0.000000 0.0
v -62.552429 10.326611 243.174011
#joint 40
#vjoint 212
#vcolor 255.000000 255.000000 255.000000 255.000000
v -10.552429 -23.673389 286.174011
#joint 40
#vjoint 213
v -2.552429 -9.673389 287.174011
#joint 40
#vjoint 214
f 212/1129 213/1130 214/1131
#fvcolorindex 233 233 233 
vt 1.000000 1.000000 0.0
vt 0.890625 0.000000 0.0
vt 1.000000 0.000000 0.0
v -54.552429 24.326611 244.174011
#joint 40
#vjoint 215
f 212/1132 214/1133 215/1134
#fvcolorindex 233 233 233 
usemtl m112EnvMappingTexScaleS0.031250TexScaleT0.031250
vt 0.000000 0.000000 0.0
vt 0.000000 0.000000 0.0
vt 0.000000 0.000000 0.0
v 46.447571 -30.673389 212.174011
#joint 40
#vjoint 216
#vcolor 93.000000 85.000000 7.000000 255.000000
v 4.447571 -0.673389 152.174011
#joint 40
#vjoint 217
#vcolor 57.000000 105.000000 217.000000 255.000000
#vcolor 11.000000 122.000000 31.000000 255.000000
vn 0.732283 0.669291 0.055118
vn 0.448819 0.826772 1.708661
vn 0.086614 0.960630 0.244094
f 216/1135/445 217/1136/446 215/1137/447
#fvcolorindex 234 235 236 
vt 0.000000 0.000000 0.0
vt 0.000000 0.000000 0.0
vt 0.000000 0.000000 0.0
#vcolor 52.000000 96.000000 64.000000 255.000000
vn 0.732283 0.669291 0.055118
vn 0.086614 0.960630 0.244094
vn 0.409449 0.755906 0.503937
f 216/1138/448 215/1139/449 214/1140/450
#fvcolorindex 234 236 237 
usemtl m113EnvMappingTexScaleS0.031250TexScaleT0.031250
vt 0.000000 0.000000 0.0
vt 0.000000 0.000000 0.0
vt 0.000000 0.000000 0.0
#vcolor 204.000000 160.000000 192.000000 255.000000
#vcolor 245.000000 134.000000 225.000000 255.000000
v -3.552429 -14.673389 151.174011
#joint 40
#vjoint 218
#vcolor 199.000000 151.000000 39.000000 255.000000
vn 1.606299 1.259843 1.511811
vn 1.929134 1.055118 1.771654
vn 1.566929 1.188976 0.307087
f 213/1141/451 212/1142/452 218/1143/453
#fvcolorindex 238 239 240 
vt 0.000000 0.000000 0.0
vt 0.000000 0.000000 0.0
vt 0.000000 0.000000 0.0
v 38.447571 -44.673389 211.174011
#joint 40
#vjoint 219
#vcolor 163.000000 171.000000 249.000000 255.000000
vn 1.606299 1.259843 1.511811
vn 1.566929 1.188976 0.307087
vn 1.283465 1.346457 1.960630
f 213/1144/454 218/1145/455 219/1146/456
#fvcolorindex 238 240 241 
usemtl m114EnvMappingTexScaleS0.031250TexScaleT0.031250
vt 0.000000 0.000000 0.0
vt 0.000000 0.000000 0.0
vt 0.000000 0.000000 0.0
#vcolor 216.000000 66.000000 156.000000 255.000000
#vcolor 187.000000 15.000000 151.000000 255.000000
#vcolor 140.000000 35.000000 221.000000 255.000000
vn 1.700787 0.519685 1.228346
vn 1.472441 0.118110 1.188976
vn 1.102362 0.275591 1.740157
f 212/1147/457 215/1148/458 217/1149/459
#fvcolorindex 242 243 244 
vt 0.000000 0.000000 0.0
vt 0.000000 0.000000 0.0
vt 0.000000 0.000000 0.0
#vcolor 175.000000 86.000000 211.000000 255.000000
vn 1.700787 0.519685 1.228346
vn 1.102362 0.275591 1.740157
vn 1.377953 0.677165 1.661417
f 212/1150/460 217/1151/461 218/1152/462
#fvcolorindex 242 244 245 
usemtl m115EnvMappingTexScaleS0.031250TexScaleT0.031250
vt 0.000000 0.000000 0.0
vt 0.000000 0.000000 0.0
vt 0.000000 0.000000 0.0
#vcolor 81.000000 170.000000 45.000000 255.000000
#vcolor 116.000000 221.000000 35.000000 255.000000
#vcolor 69.000000 241.000000 105.000000 255.000000
vn 0.637795 1.338583 0.354331
vn 0.913386 1.740157 0.275591
vn 0.543307 1.897638 0.826772
f 219/1153/463 216/1154/464 214/1155/465
#fvcolorindex 246 247 248 
vt 0.000000 0.000000 0.0
vt 0.000000 0.000000 0.0
vt 0.000000 0.000000 0.0
#vcolor 40.000000 190.000000 100.000000 255.000000
vn 0.637795 1.338583 0.354331
vn 0.543307 1.897638 0.826772
vn 0.314961 1.496063 0.787402
f 219/1156/466 214/1157/467 213/1158/468
#fvcolorindex 246 248 249 
usemtl m4TransparentClampSClampT
vt 0.000000 0.000000 0.0
vt 1.000000 0.000000 0.0
vt 1.000000 2.871094 0.0
#vcolor 240.000000 240.000000 240.000000 191.000000
f 216/1159 217/1160 215/1161
#fvcolorindex 250 250 250 
vt 0.000000 0.000000 0.0
vt 1.000000 2.871094 0.0
vt 0.000000 2.349609 0.0
f 216/1162 215/1163 214/1164
#fvcolorindex 250 250 250 
vt 0.000000 2.349609 0.0
vt 1.000000 2.871094 0.0
vt 1.000000 0.000000 0.0
f 213/1165 212/1166 218/1167
#fvcolorindex 250 250 250 
vt 0.000000 2.349609 0.0
vt 1.000000 0.000000 0.0
vt 0.000000 0.000000 0.0
f 213/1168 218/1169 219/1170
#fvcolorindex 250 250 250 
