# Created by SubDrag and the GoldenEye Setup Editor V4.4
mtllib Gun001B.mtl
#joint 0
#jointposition -0.126130 -28.456270 -223.421524
#joint 1
#jointposition -0.126130 -34.500000 -403.726105
#joint 2
#jointposition 0.000000 -20.375574 -74.143860
#joint 3
#jointposition 28.404760 -54.346611 -32.664295
#joint 4
#jointposition 50.075203 -78.841194 -10.664248
#joint 5
#jointposition 28.643808 -16.714527 20.778549
#joint 6
#jointposition 26.518341 -24.155291 60.154758
#joint 7
#jointposition 24.862719 -25.637974 87.085503
#joint 8
#jointposition 8.820322 -11.296313 21.695198
#joint 9
#jointposition 8.668717 -23.348385 71.418152
#joint 10
#jointposition 7.570724 -26.182207 98.349426
#joint 11
#jointposition -7.449821 -15.536673 21.601517
#joint 12
#jointposition -6.777197 -21.532187 62.353848
#joint 13
#jointposition -6.290760 -23.494061 85.077034
#joint 14
#jointposition -23.590879 -23.057791 21.828247
#joint 15
#jointposition -21.894306 -25.130569 56.929543
#joint 16
#jointposition -20.740978 -24.727604 74.077179
#joint 17
#jointposition 234.474915 -34.500000 -403.726013
#joint 18
#jointposition 234.348785 -20.375599 -74.143921
#joint 19
#jointposition 205.943985 -54.346600 -32.664322
#joint 20
#jointposition 184.273590 -78.841202 -10.664223
#joint 21
#jointposition 205.704987 -16.714600 20.778481
#joint 22
#jointposition 207.830490 -24.155300 60.154781
#joint 23
#jointposition 209.561584 -25.811800 87.094780
#joint 24
#jointposition 225.528473 -11.296299 21.695183
#joint 25
#jointposition 225.680069 -23.348400 71.418083
#joint 26
#jointposition 226.778076 -26.182199 98.349380
#joint 27
#jointposition 241.798599 -15.536699 21.601479
#joint 28
#jointposition 241.125977 -21.532200 62.353779
#joint 29
#jointposition 240.639542 -23.494101 85.076981
#joint 30
#jointposition 257.939697 -23.057798 21.828178
#joint 31
#jointposition 256.243103 -25.130598 56.929478
#joint 32
#jointposition 255.089798 -24.727598 74.077179
#joint 33
#jointposition 0.170556 12.900150 -82.079071
#joint 34
#jointposition 43.356651 9.374041 -30.397488
#joint 35
#jointposition 80.367615 10.946056 -58.821548
#joint 36
#jointposition 138.982498 10.907081 -86.951935
#joint 37
#jointposition 161.851028 12.553761 -133.387695
#joint 38
#jointposition 12.910385 12.347922 -134.317871
#joint 39
#jointposition -43.735573 9.374041 -30.185856
#joint 40
#jointposition -80.730789 10.941979 -58.794449
#joint 41
#jointposition -139.615601 10.907081 -86.726028
#joint 42
#jointposition -162.221771 12.553761 -133.387527
#joint 43
#jointposition -13.328110 12.553761 -134.317841
#joint 44
#jointposition 0.000000 19.278147 -133.402771
#joint 45
#jointposition 335.034821 -49.244293 53.590118
#connection 0 1
#connection 1 33
#connection 33 34
#connection 34 35
#connection 35 36
#connection 36 37
#connection 37 38
#connection 33 39
#connection 39 40
#connection 40 41
#connection 41 42
#connection 42 43
#connection 33 44
#connection 1 2
#connection 2 3
#connection 3 4
#connection 2 5
#connection 5 6
#connection 6 7
#connection 2 8
#connection 8 9
#connection 9 10
#connection 2 11
#connection 11 12
#connection 12 13
#connection 2 14
#connection 14 15
#connection 15 16
#connection 0 17
#connection 17 18
#connection 18 19
#connection 19 20
#connection 18 21
#connection 21 22
#connection 22 23
#connection 18 24
#connection 24 25
#connection 25 26
#connection 18 27
#connection 27 28
#connection 28 29
#connection 18 30
#connection 30 31
#connection 31 32
#connection 18 45
g Room02
g Room02_primary
usemtl m0EnvMappingTexScaleS0.031250TexScaleT0.031250
vt 0.000000 0.000000 0.0
vt 0.000000 0.000000 0.0
vt 0.000000 0.000000 0.0
v 139.034821 -46.244293 57.590118
#joint 45
#vjoint 1
#vcolor 35.000000 2.000000 121.000000 255.000000
v 139.034821 -52.244293 57.590118
#joint 45
#vjoint 2
v 147.034821 -51.244293 55.590118
#joint 45
#vjoint 3
vn 0.275591 0.015748 0.952756
vn 0.275591 0.015748 0.952756
vn 0.275591 0.015748 0.952756
f 1/1/1 2/2/2 3/3/3
#fvcolorindex 1 1 1 
vt 0.000000 0.000000 0.0
vt 0.000000 0.000000 0.0
vt 0.000000 0.000000 0.0
v 147.034821 -48.244293 55.590118
#joint 45
#vjoint 4
vn 0.275591 0.015748 0.952756
vn 0.275591 0.015748 0.952756
vn 0.275591 0.015748 0.952756
f 1/4/4 3/5/5 4/6/6
#fvcolorindex 1 1 1 
usemtl m1EnvMappingTexScaleS0.031250TexScaleT0.031250
vt 0.000000 0.000000 0.0
vt 0.000000 0.000000 0.0
vt 0.000000 0.000000 0.0
v 139.034821 -44.244293 52.590118
#joint 45
#vjoint 5
#vcolor 35.000000 106.000000 59.000000 255.000000
vn 0.275591 0.834646 0.464567
vn 0.275591 0.834646 0.464567
vn 0.275591 0.834646 0.464567
f 5/7/7 1/8/8 4/9/9
#fvcolorindex 2 2 2 
vt 0.000000 0.000000 0.0
vt 0.000000 0.000000 0.0
vt 0.000000 0.000000 0.0
v 147.034821 -46.244293 53.590118
#joint 45
#vjoint 6
vn 0.275591 0.834646 0.464567
vn 0.275591 0.834646 0.464567
vn 0.275591 0.834646 0.464567
f 5/10/10 4/11/11 6/12/12
#fvcolorindex 2 2 2 
usemtl m2EnvMappingTexScaleS0.031250TexScaleT0.031250
vt 0.000000 0.000000 0.0
vt 0.000000 0.000000 0.0
vt 0.000000 0.000000 0.0
v 139.034821 -47.244293 48.590118
#joint 45
#vjoint 7
#vcolor 35.000000 104.000000 194.000000 255.000000
vn 0.275591 0.818898 1.527559
vn 0.275591 0.818898 1.527559
vn 0.275591 0.818898 1.527559
f 7/13/13 5/14/14 6/15/15
#fvcolorindex 3 3 3 
vt 0.000000 0.000000 0.0
vt 0.000000 0.000000 0.0
vt 0.000000 0.000000 0.0
v 147.034821 -48.244293 50.590118
#joint 45
#vjoint 8
vn 0.275591 0.818898 1.527559
vn 0.275591 0.818898 1.527559
vn 0.275591 0.818898 1.527559
f 7/16/16 6/17/17 8/18/18
#fvcolorindex 3 3 3 
usemtl m3EnvMappingTexScaleS0.031250TexScaleT0.031250
vt 0.000000 0.000000 0.0
vt 0.000000 0.000000 0.0
vt 0.000000 0.000000 0.0
v 147.034821 -52.244293 53.590118
#joint 45
#vjoint 9
#vcolor 35.000000 152.000000 62.000000 255.000000
vn 0.275591 1.196850 0.488189
vn 0.275591 1.196850 0.488189
vn 0.275591 1.196850 0.488189
f 9/19/19 3/20/20 2/21/21
#fvcolorindex 4 4 4 
vt 0.000000 0.000000 0.0
vt 0.000000 0.000000 0.0
vt 0.000000 0.000000 0.0
v 139.034821 -55.244293 53.590118
#joint 45
#vjoint 10
vn 0.275591 1.196850 0.488189
vn 0.275591 1.196850 0.488189
vn 0.275591 1.196850 0.488189
f 9/22/22 2/23/23 10/24/24
#fvcolorindex 4 4 4 
usemtl m4EnvMappingTexScaleS0.031250TexScaleT0.031250
vt 0.000000 0.000000 0.0
vt 0.000000 0.000000 0.0
vt 0.000000 0.000000 0.0
#vcolor 35.000000 254.000000 135.000000 255.000000
v 147.034821 -51.244293 50.590118
#joint 45
#vjoint 11
v 139.034821 -52.244293 48.590118
#joint 45
#vjoint 12
vn 0.275591 2.000000 1.062992
vn 0.275591 2.000000 1.062992
vn 0.275591 2.000000 1.062992
f 8/25/25 11/26/26 12/27/27
#fvcolorindex 5 5 5 
vt 0.000000 0.000000 0.0
vt 0.000000 0.000000 0.0
vt 0.000000 0.000000 0.0
vn 0.275591 2.000000 1.062992
vn 0.275591 2.000000 1.062992
vn 0.275591 2.000000 1.062992
f 8/28/28 12/29/29 7/30/30
#fvcolorindex 5 5 5 
usemtl m5EnvMappingTexScaleS0.031250TexScaleT0.031250
vt 0.000000 0.000000 0.0
vt 0.000000 0.000000 0.0
vt 0.000000 0.000000 0.0
#vcolor 0.000000 111.000000 61.000000 255.000000
v 282.034821 -48.244293 55.590118
#joint 45
#vjoint 13
vn 0.000000 0.874016 0.480315
vn 0.000000 0.874016 0.480315
vn 0.000000 0.874016 0.480315
f 6/31/31 4/32/32 13/33/33
#fvcolorindex 6 6 6 
vt 0.000000 0.000000 0.0
vt 0.000000 0.000000 0.0
vt 0.000000 0.000000 0.0
v 282.034821 -46.244293 53.590118
#joint 45
#vjoint 14
vn 0.000000 0.874016 0.480315
vn 0.000000 0.874016 0.480315
vn 0.000000 0.874016 0.480315
f 6/34/34 13/35/35 14/36/36
#fvcolorindex 6 6 6 
usemtl m6EnvMappingTexScaleS0.031250TexScaleT0.031250
vt 0.000000 0.000000 0.0
vt 0.000000 0.000000 0.0
vt 0.000000 0.000000 0.0
#vcolor 0.000000 108.000000 191.000000 255.000000
vn 0.000000 0.850394 1.503937
vn 0.000000 0.850394 1.503937
vn 0.000000 0.850394 1.503937
f 8/37/37 6/38/38 14/39/39
#fvcolorindex 7 7 7 
vt 0.000000 0.000000 0.0
vt 0.000000 0.000000 0.0
vt 0.000000 0.000000 0.0
v 282.034821 -48.244293 50.590118
#joint 45
#vjoint 15
vn 0.000000 0.850394 1.503937
vn 0.000000 0.850394 1.503937
vn 0.000000 0.850394 1.503937
f 8/40/40 14/41/41 15/42/42
#fvcolorindex 7 7 7 
usemtl m7EnvMappingTexScaleS0.031250TexScaleT0.031250
vt 0.000000 0.000000 0.0
vt 0.000000 0.000000 0.0
vt 0.000000 0.000000 0.0
#vcolor 0.000000 2.000000 126.000000 255.000000
vn 0.000000 0.015748 0.992126
vn 0.000000 0.015748 0.992126
vn 0.000000 0.015748 0.992126
f 13/43/43 4/44/44 3/45/45
#fvcolorindex 8 8 8 
vt 0.000000 0.000000 0.0
vt 0.000000 0.000000 0.0
vt 0.000000 0.000000 0.0
v 282.034821 -51.244293 55.590118
#joint 45
#vjoint 16
vn 0.000000 0.015748 0.992126
vn 0.000000 0.015748 0.992126
vn 0.000000 0.015748 0.992126
f 13/46/46 3/47/47 16/48/48
#fvcolorindex 8 8 8 
usemtl m8EnvMappingTexScaleS0.031250TexScaleT0.031250
vt 0.000000 0.000000 0.0
vt 0.000000 0.000000 0.0
vt 0.000000 0.000000 0.0
v 282.034821 -52.244293 53.590118
#joint 45
#vjoint 17
#vcolor 0.000000 145.000000 195.000000 255.000000
vn 0.000000 1.141732 1.535433
vn 0.000000 1.141732 1.535433
vn 0.000000 1.141732 1.535433
f 17/49/49 9/50/50 11/51/51
#fvcolorindex 9 9 9 
vt 0.000000 0.000000 0.0
vt 0.000000 0.000000 0.0
vt 0.000000 0.000000 0.0
v 282.034821 -51.244293 50.590118
#joint 45
#vjoint 18
vn 0.000000 1.141732 1.535433
vn 0.000000 1.141732 1.535433
vn 0.000000 1.141732 1.535433
f 17/52/52 11/53/53 18/54/54
#fvcolorindex 9 9 9 
usemtl m9EnvMappingTexScaleS0.031250TexScaleT0.031250
vt 0.000000 0.000000 0.0
vt 0.000000 0.000000 0.0
vt 0.000000 0.000000 0.0
#vcolor 0.000000 254.000000 130.000000 255.000000
vn 0.000000 2.000000 1.023622
vn 0.000000 2.000000 1.023622
vn 0.000000 2.000000 1.023622
f 18/55/55 11/56/56 8/57/57
#fvcolorindex 10 10 10 
vt 0.000000 0.000000 0.0
vt 0.000000 0.000000 0.0
vt 0.000000 0.000000 0.0
vn 0.000000 2.000000 1.023622
vn 0.000000 2.000000 1.023622
vn 0.000000 2.000000 1.023622
f 18/58/58 8/59/59 15/60/60
#fvcolorindex 10 10 10 
usemtl m10EnvMappingTexScaleS0.031250TexScaleT0.031250
vt 0.000000 0.000000 0.0
vt 0.000000 0.000000 0.0
vt 0.000000 0.000000 0.0
#vcolor 0.000000 148.000000 65.000000 255.000000
vn 0.000000 1.165354 0.511811
vn 0.000000 1.165354 0.511811
vn 0.000000 1.165354 0.511811
f 3/61/61 9/62/62 17/63/63
#fvcolorindex 11 11 11 
vt 0.000000 0.000000 0.0
vt 0.000000 0.000000 0.0
vt 0.000000 0.000000 0.0
vn 0.000000 1.165354 0.511811
vn 0.000000 1.165354 0.511811
vn 0.000000 1.165354 0.511811
f 3/64/64 17/65/65 16/66/66
#fvcolorindex 11 11 11 
usemtl m5EnvMappingTexScaleS0.031250TexScaleT0.031250
vt 0.000000 0.000000 0.0
vt 0.000000 0.000000 0.0
vt 0.000000 0.000000 0.0
v 335.034821 -48.244293 55.590118
#joint 45
#vjoint 19
v 335.034821 -46.244293 53.590118
#joint 45
#vjoint 20
vn 0.000000 0.874016 0.480315
vn 0.000000 0.874016 0.480315
vn 0.000000 0.874016 0.480315
f 13/67/67 19/68/68 20/69/69
#fvcolorindex 6 6 6 
vt 0.000000 0.000000 0.0
vt 0.000000 0.000000 0.0
vt 0.000000 0.000000 0.0
vn 0.000000 0.874016 0.480315
vn 0.000000 0.874016 0.480315
vn 0.000000 0.874016 0.480315
f 13/70/70 20/71/71 14/72/72
#fvcolorindex 6 6 6 
usemtl m9EnvMappingTexScaleS0.031250TexScaleT0.031250
vt 0.000000 0.000000 0.0
vt 0.000000 0.000000 0.0
vt 0.000000 0.000000 0.0
v 335.034821 -48.244293 50.590118
#joint 45
#vjoint 21
v 335.034821 -51.244293 50.590118
#joint 45
#vjoint 22
vn 0.000000 2.000000 1.023622
vn 0.000000 2.000000 1.023622
vn 0.000000 2.000000 1.023622
f 21/73/73 22/74/74 18/75/75
#fvcolorindex 10 10 10 
vt 0.000000 0.000000 0.0
vt 0.000000 0.000000 0.0
vt 0.000000 0.000000 0.0
vn 0.000000 2.000000 1.023622
vn 0.000000 2.000000 1.023622
vn 0.000000 2.000000 1.023622
f 21/76/76 18/77/77 15/78/78
#fvcolorindex 10 10 10 
usemtl m10EnvMappingTexScaleS0.031250TexScaleT0.031250
vt 0.000000 0.000000 0.0
vt 0.000000 0.000000 0.0
vt 0.000000 0.000000 0.0
v 335.034821 -52.244293 53.590118
#joint 45
#vjoint 23
v 335.034821 -51.244293 55.590118
#joint 45
#vjoint 24
vn 0.000000 1.165354 0.511811
vn 0.000000 1.165354 0.511811
vn 0.000000 1.165354 0.511811
f 17/79/79 23/80/80 24/81/81
#fvcolorindex 11 11 11 
vt 0.000000 0.000000 0.0
vt 0.000000 0.000000 0.0
vt 0.000000 0.000000 0.0
vn 0.000000 1.165354 0.511811
vn 0.000000 1.165354 0.511811
vn 0.000000 1.165354 0.511811
f 17/82/82 24/83/83 16/84/84
#fvcolorindex 11 11 11 
usemtl m11EnvMappingTexScaleS0.031250TexScaleT0.031250
vt 0.000000 0.000000 0.0
vt 0.000000 0.000000 0.0
vt 0.000000 0.000000 0.0
#vcolor 127.000000 0.000000 0.000000 255.000000
vn 1.000000 0.000000 0.000000
vn 1.000000 0.000000 0.000000
vn 1.000000 0.000000 0.000000
f 19/85/85 24/86/86 23/87/87
#fvcolorindex 12 12 12 
vt 0.000000 0.000000 0.0
vt 0.000000 0.000000 0.0
vt 0.000000 0.000000 0.0
vn 1.000000 0.000000 0.000000
vn 1.000000 0.000000 0.000000
vn 1.000000 0.000000 0.000000
f 19/88/88 23/89/89 22/90/90
#fvcolorindex 12 12 12 
vt 0.000000 0.000000 0.0
vt 0.000000 0.000000 0.0
vt 0.000000 0.000000 0.0
vn 1.000000 0.000000 0.000000
vn 1.000000 0.000000 0.000000
vn 1.000000 0.000000 0.000000
f 19/91/91 22/92/92 21/93/93
#fvcolorindex 12 12 12 
vt 0.000000 0.000000 0.0
vt 0.000000 0.000000 0.0
vt 0.000000 0.000000 0.0
vn 1.000000 0.000000 0.000000
vn 1.000000 0.000000 0.000000
vn 1.000000 0.000000 0.000000
f 19/94/94 21/95/95 20/96/96
#fvcolorindex 12 12 12 
usemtl m12EnvMappingTexScaleS0.031250TexScaleT0.031250
vt 0.000000 0.000000 0.0
vt 0.000000 0.000000 0.0
vt 0.000000 0.000000 0.0
v 120.034821 -49.244293 53.590118
#joint 45
#vjoint 25
#vcolor 226.000000 2.000000 123.000000 255.000000
vn 1.779528 0.015748 0.968504
vn 1.779528 0.015748 0.968504
vn 1.779528 0.015748 0.968504
f 25/97/97 2/98/98 1/99/99
#fvcolorindex 13 13 13 
usemtl m13EnvMappingTexScaleS0.031250TexScaleT0.031250
vt 0.000000 0.000000 0.0
vt 0.000000 0.000000 0.0
vt 0.000000 0.000000 0.0
#vcolor 226.000000 107.000000 59.000000 255.000000
vn 1.779528 0.842520 0.464567
vn 1.779528 0.842520 0.464567
vn 1.779528 0.842520 0.464567
f 25/100/100 1/101/101 5/102/102
#fvcolorindex 14 14 14 
usemtl m14EnvMappingTexScaleS0.031250TexScaleT0.031250
vt 0.000000 0.000000 0.0
vt 0.000000 0.000000 0.0
vt 0.000000 0.000000 0.0
#vcolor 226.000000 105.000000 193.000000 255.000000
vn 1.779528 0.826772 1.519685
vn 1.779528 0.826772 1.519685
vn 1.779528 0.826772 1.519685
f 25/103/103 5/104/104 7/105/105
#fvcolorindex 15 15 15 
usemtl m15EnvMappingTexScaleS0.031250TexScaleT0.031250
vt 0.000000 0.000000 0.0
vt 0.000000 0.000000 0.0
vt 0.000000 0.000000 0.0
#vcolor 226.000000 151.000000 63.000000 255.000000
vn 1.779528 1.188976 0.496063
vn 1.779528 1.188976 0.496063
vn 1.779528 1.188976 0.496063
f 10/106/106 2/107/107 25/108/108
#fvcolorindex 16 16 16 
usemtl m16EnvMappingTexScaleS0.031250TexScaleT0.031250
vt 0.000000 0.000000 0.0
vt 0.000000 0.000000 0.0
vt 0.000000 0.000000 0.0
#vcolor 226.000000 149.000000 197.000000 255.000000
vn 1.779528 1.173228 1.551181
vn 1.779528 1.173228 1.551181
vn 1.779528 1.173228 1.551181
f 12/109/109 10/110/110 25/111/111
#fvcolorindex 17 17 17 
usemtl m17EnvMappingTexScaleS0.031250TexScaleT0.031250
vt 0.000000 0.000000 0.0
vt 0.000000 0.000000 0.0
vt 0.000000 0.000000 0.0
#vcolor 226.000000 254.000000 133.000000 255.000000
vn 1.779528 2.000000 1.047244
vn 1.779528 2.000000 1.047244
vn 1.779528 2.000000 1.047244
f 7/112/112 12/113/113 25/114/114
#fvcolorindex 18 18 18 
usemtl m18
vt 15.289062 6.929688 0.0
vt 11.156250 -1.126953 0.0
vt 16.203125 0.300781 0.0
#vcolor 229.000000 0.000000 0.000000 255.000000
v 325.034821 -41.244293 48.590118
#joint 45
#vjoint 26
f 14/115 20/116 26/117
#fvcolorindex 19 19 19 
vt 11.156250 -1.126953 0.0
vt 11.984375 -1.136719 0.0
vt 16.203125 0.300781 0.0
f 20/118 21/119 26/120
#fvcolorindex 19 19 19 
vt 11.984375 -1.136719 0.0
vt 16.117188 6.919922 0.0
vt 16.203125 0.300781 0.0
f 21/121 15/122 26/123
#fvcolorindex 19 19 19 
vt 16.117188 6.919922 0.0
vt 15.289062 6.929688 0.0
vt 16.203125 0.300781 0.0
f 15/124 14/125 26/126
#fvcolorindex 19 19 19 
vt 11.156250 -1.093750 0.0
vt 9.500000 -1.041016 0.0
vt 11.132812 0.562500 0.0
v 325.034821 -58.244293 48.590118
#joint 45
#vjoint 27
f 22/127 23/128 27/129
#fvcolorindex 19 19 19 
vt 9.500000 -1.041016 0.0
vt 13.632812 7.015625 0.0
vt 11.132812 0.562500 0.0
f 23/130 17/131 27/132
#fvcolorindex 19 19 19 
vt 13.632812 7.015625 0.0
vt 15.289062 6.962891 0.0
vt 11.132812 0.562500 0.0
f 17/133 18/134 27/135
#fvcolorindex 19 19 19 
vt 15.289062 6.962891 0.0
vt 11.156250 -1.093750 0.0
vt 11.132812 0.562500 0.0
f 18/136 22/137 27/138
#fvcolorindex 19 19 19 
vt 8.671875 -1.031250 0.0
vt 9.500000 -1.074219 0.0
vt 6.070312 0.625000 0.0
v 325.034821 -49.244293 62.590118
#joint 45
#vjoint 28
f 24/139 19/140 28/141
#fvcolorindex 19 19 19 
vt 9.500000 -1.074219 0.0
vt 13.632812 6.982422 0.0
vt 6.070312 0.625000 0.0
f 19/142 13/143 28/144
#fvcolorindex 19 19 19 
vt 13.632812 6.982422 0.0
vt 12.804688 7.025391 0.0
vt 6.070312 0.625000 0.0
f 13/145 16/146 28/147
#fvcolorindex 19 19 19 
vt 12.804688 7.025391 0.0
vt 8.671875 -1.031250 0.0
vt 6.070312 0.625000 0.0
f 16/148 24/149 28/150
#fvcolorindex 19 19 19 
usemtl m19EnvMappingTexScaleS0.000977TexScaleT0.000977
vt 0.000000 0.000000 0.0
vt 0.000000 0.000000 0.0
vt 0.000000 0.000000 0.0
#vcolor 35.000000 150.000000 197.000000 255.000000
vn 0.275591 1.181102 1.551181
vn 0.275591 1.181102 1.551181
vn 0.275591 1.181102 1.551181
f 11/151/115 9/152/116 10/153/117
#fvcolorindex 20 20 20 
vt 0.000000 0.000000 0.0
vt 0.000000 0.000000 0.0
vt 0.000000 0.000000 0.0
vn 0.275591 1.181102 1.551181
vn 0.275591 1.181102 1.551181
vn 0.275591 1.181102 1.551181
f 11/154/118 10/155/119 12/156/120
#fvcolorindex 20 20 20 
g Room05
g Room05_primary
usemtl m20
vt -0.014648 0.386719 0.0
vt -0.227539 1.349609 0.0
vt 2.534180 0.404297 0.0
v 43.170555 11.900150 -54.079071
#joint 33
#vjoint 29
#vcolor 255.000000 255.000000 255.000000 255.000000
v 14.170556 22.900150 -78.079071
#joint 33
#vjoint 30
v 7.170556 19.900150 -9.079071
#joint 33
#vjoint 31
f 29/157 30/158 31/159
#fvcolorindex 21 21 21 
vt 4.367188 -2.312500 0.0
vt 4.379883 -1.966797 0.0
vt -0.400391 -1.984375 0.0
v 15.170556 21.900150 -185.079071
#joint 33
#vjoint 32
v 14.170556 29.900150 -185.079071
#joint 33
#vjoint 33
f 32/160 33/161 30/162
#fvcolorindex 21 21 21 
vt 4.379883 -1.269531 0.0
vt -0.695312 -1.455078 0.0
vt -0.400391 -1.984375 0.0
v 7.170556 33.900150 -185.079071
#joint 33
#vjoint 34
v 7.170556 21.900150 -71.079071
#joint 33
#vjoint 35
f 34/163 35/164 30/165
#fvcolorindex 21 21 21 
vt -0.695312 -1.455078 0.0
vt -3.500000 -1.378906 0.0
vt -0.400391 -1.984375 0.0
f 35/166 31/167 30/168
#fvcolorindex 21 21 21 
vt 4.379883 -1.269531 0.0
vt -0.400391 -1.984375 0.0
vt 4.379883 -1.966797 0.0
f 34/169 30/170 33/171
#fvcolorindex 21 21 21 
vt 0.191406 -2.449219 0.0
vt 0.042969 -1.414062 0.0
vt 2.463867 -1.414062 0.0
v 43.170555 12.900150 -27.079071
#joint 33
#vjoint 36
f 36/172 29/173 31/174
#fvcolorindex 21 21 21 
vt 0.561523 -0.445312 0.0
vt 1.384766 -0.445312 0.0
vt 0.597656 -1.707031 0.0
v 7.170556 11.900150 11.920929
#joint 33
#vjoint 37
f 31/175 37/176 36/177
#fvcolorindex 21 21 21 
vt -0.400391 -1.984375 0.0
vt -3.500000 -1.378906 0.0
vt -0.695312 -1.455078 0.0
v -13.829444 22.900150 -78.079071
#joint 33
#vjoint 38
v -7.829444 19.900150 -9.079071
#joint 33
#vjoint 39
v -7.829444 21.900150 -71.079071
#joint 33
#vjoint 40
f 38/178 39/179 40/180
#fvcolorindex 21 21 21 
vt -0.400391 -1.984375 0.0
vt -0.695312 -1.455078 0.0
vt 4.379883 -1.269531 0.0
v -7.829444 33.900150 -185.079071
#joint 33
#vjoint 41
f 38/181 40/182 41/183
#fvcolorindex 21 21 21 
vt 4.379883 -1.966797 0.0
vt -0.400391 -1.984375 0.0
vt 4.379883 -1.269531 0.0
v -14.829444 29.900150 -185.079071
#joint 33
#vjoint 42
f 42/184 38/185 41/186
#fvcolorindex 21 21 21 
vt -0.400391 -1.984375 0.0
vt 4.379883 -1.966797 0.0
vt 4.367188 -2.312500 0.0
v -14.829444 21.900150 -185.079071
#joint 33
#vjoint 43
f 38/187 42/188 43/189
#fvcolorindex 21 21 21 
vt 2.534180 0.404297 0.0
vt -0.227539 1.349609 0.0
vt -0.014648 0.386719 0.0
v -42.829445 11.900150 -54.079071
#joint 33
#vjoint 44
f 39/190 38/191 44/192
#fvcolorindex 21 21 21 
vt 0.597656 -1.707031 0.0
vt 1.384766 -0.445312 0.0
vt 0.561523 -0.445312 0.0
v -42.829445 12.900150 -27.079071
#joint 33
#vjoint 45
v -7.829444 11.900150 11.920929
#joint 33
#vjoint 46
f 45/193 46/194 39/195
#fvcolorindex 21 21 21 
vt 2.463867 -1.414062 0.0
vt 0.042969 -1.414062 0.0
vt 0.191406 -2.449219 0.0
f 39/196 44/197 45/198
#fvcolorindex 21 21 21 
usemtl m21
vt 0.603516 -0.691406 0.0
vt 0.577148 -0.878906 0.0
vt 0.694336 -0.732422 0.0
v -43.735573 4.374041 -30.185856
#joint 39
#vjoint 47
v -55.735573 5.374041 -66.185852
#joint 39
#vjoint 48
v -26.735573 4.374041 -42.185856
#joint 39
#vjoint 49
f 47/199 48/200 49/201
#fvcolorindex 21 21 21 
vt 0.603516 -0.691406 0.0
vt 0.533203 -0.856445 0.0
vt 0.577148 -0.878906 0.0
v -63.735573 5.374041 -60.185856
#joint 39
#vjoint 50
f 47/202 50/203 48/204
#fvcolorindex 21 21 21 
vt -0.041016 -0.142578 0.0
vt -0.282227 0.000000 0.0
vt 0.000000 0.000000 0.0
v -26.735573 11.374041 -42.185856
#joint 39
#vjoint 51
v -55.735573 12.374041 -66.185852
#joint 39
#vjoint 52
v -43.735573 11.374041 -30.185856
#joint 39
#vjoint 53
f 51/205 52/206 53/207
#fvcolorindex 21 21 21 
vt 0.577148 -0.878906 0.0
vt 0.577148 -0.878906 0.0
vt 0.694336 -0.732422 0.0
f 48/208 52/209 51/210
#fvcolorindex 21 21 21 
vt 0.577148 -0.878906 0.0
vt 0.694336 -0.732422 0.0
vt 0.694336 -0.732422 0.0
f 48/211 51/212 49/213
#fvcolorindex 21 21 21 
vt 0.533203 -0.856445 0.0
vt 0.533203 -0.856445 0.0
vt 0.577148 -0.878906 0.0
v -63.735573 12.374041 -60.185856
#joint 39
#vjoint 54
f 50/214 54/215 52/216
#fvcolorindex 21 21 21 
vt 0.533203 -0.856445 0.0
vt 0.577148 -0.878906 0.0
vt 0.577148 -0.878906 0.0
f 50/217 52/218 48/219
#fvcolorindex 21 21 21 
vt -0.272461 -0.073242 0.0
vt -0.266602 0.000000 0.0
vt 0.000000 0.000000 0.0
f 52/220 54/221 53/222
#fvcolorindex 21 21 21 
vt 0.462891 -0.890625 0.0
vt 0.533203 -0.856445 0.0
vt 0.603516 -0.691406 0.0
v -78.735573 4.374041 -64.185852
#joint 39
#vjoint 55
f 55/223 50/224 47/225
#fvcolorindex 21 21 21 
vt 0.462891 -0.890625 0.0
vt 0.603516 -0.691406 0.0
vt 0.592773 -0.660156 0.0
v -44.735573 3.374041 -24.185856
#joint 39
#vjoint 56
f 55/226 47/227 56/228
#fvcolorindex 21 21 21 
usemtl m22EnvMappingTexScaleS0.031250TexScaleT0.031250
vt 0.000000 0.000000 0.0
vt 0.000000 0.000000 0.0
vt 0.000000 0.000000 0.0
v -78.735573 19.374041 -64.185852
#joint 39
#vjoint 57
#vcolor 36.000000 103.000000 192.000000 255.000000
#vcolor 254.000000 196.000000 145.000000 255.000000
vn 0.283465 0.811024 1.511811
vn 2.000000 1.543307 1.141732
vn 2.000000 1.543307 1.141732
f 57/229/121 54/230/122 50/231/123
#fvcolorindex 22 23 23 
vt 0.000000 0.000000 0.0
vt 0.000000 0.000000 0.0
vt 0.000000 0.000000 0.0
#vcolor 16.000000 146.000000 196.000000 255.000000
vn 0.283465 0.811024 1.511811
vn 2.000000 1.543307 1.141732
vn 0.125984 1.149606 1.543307
f 57/232/124 50/233/125 55/234/126
#fvcolorindex 22 23 24 
usemtl m23EnvMappingTexScaleS0.031250TexScaleT0.031250
vt 0.000000 0.000000 0.0
vt 0.000000 0.000000 0.0
vt 0.000000 0.000000 0.0
v -43.735573 2.374041 -3.185856
#joint 39
#vjoint 58
#vcolor 252.000000 132.000000 22.000000 255.000000
#vcolor 23.000000 132.000000 10.000000 255.000000
vn 1.984252 1.039370 0.173228
vn 0.125984 1.149606 1.543307
vn 0.181102 1.039370 0.078740
f 58/235/127 55/236/128 56/237/129
#fvcolorindex 25 24 26 
usemtl m24EnvMappingTexScaleS0.031250TexScaleT0.031250
vt 0.000000 0.000000 0.0
vt 0.000000 0.000000 0.0
vt 0.000000 0.000000 0.0
#vcolor 45.000000 116.000000 21.000000 255.000000
vn 0.354331 0.913386 0.165354
vn 2.000000 1.543307 1.141732
vn 0.283465 0.811024 1.511811
f 53/238/130 54/239/131 57/240/132
#fvcolorindex 27 23 22 
usemtl m25EnvMappingTexScaleS0.031250TexScaleT0.031250
vt 0.000000 0.000000 0.0
vt 0.000000 0.000000 0.0
vt 0.000000 0.000000 0.0
v -43.735573 17.374041 -3.185856
#joint 39
#vjoint 59
#vcolor 27.000000 117.000000 40.000000 255.000000
vn 0.212598 0.921260 0.314961
vn 1.984252 1.039370 0.173228
vn 0.181102 1.039370 0.078740
f 59/241/133 58/242/134 56/243/135
#fvcolorindex 28 25 26 
vt 0.000000 0.000000 0.0
vt 0.000000 0.000000 0.0
vt 0.000000 0.000000 0.0
vn 0.212598 0.921260 0.314961
vn 0.181102 1.039370 0.078740
vn 0.181102 1.039370 0.078740
f 59/244/136 56/245/137 47/246/138
#fvcolorindex 28 26 26 
vt 0.000000 0.000000 0.0
vt 0.000000 0.000000 0.0
vt 0.000000 0.000000 0.0
vn 0.212598 0.921260 0.314961
vn 0.181102 1.039370 0.078740
vn 0.354331 0.913386 0.165354
f 59/247/139 47/248/140 53/249/141
#fvcolorindex 28 26 27 
usemtl m23EnvMappingTexScaleS0.031250TexScaleT0.031250
vt 0.000000 0.000000 0.0
vt 0.000000 0.000000 0.0
vt 0.000000 0.000000 0.0
v -81.735573 18.374041 -54.185856
#joint 39
#vjoint 60
#vcolor 208.000000 105.000000 51.000000 255.000000
vn 1.984252 1.039370 0.173228
vn 0.212598 0.921260 0.314961
vn 1.637795 0.826772 0.401575
f 58/250/142 59/251/143 60/252/144
#fvcolorindex 25 28 29 
vt 0.000000 0.000000 0.0
vt 0.000000 0.000000 0.0
vt 0.000000 0.000000 0.0
v -81.735573 4.374041 -54.185856
#joint 39
#vjoint 61
#vcolor 210.000000 146.000000 42.000000 255.000000
vn 1.984252 1.039370 0.173228
vn 1.637795 0.826772 0.401575
vn 1.653543 1.149606 0.330709
f 58/253/145 60/254/146 61/255/147
#fvcolorindex 25 29 30 
usemtl m26EnvMappingTexScaleS0.031250TexScaleT0.031250
vt 0.000000 0.000000 0.0
vt 0.000000 0.000000 0.0
vt 0.000000 0.000000 0.0
vn 1.653543 1.149606 0.330709
vn 0.125984 1.149606 1.543307
vn 1.984252 1.039370 0.173228
f 61/256/148 55/257/149 58/258/150
#fvcolorindex 30 24 25 
usemtl m27EnvMappingTexScaleS0.031250TexScaleT0.031250
vt 0.000000 0.000000 0.0
vt 0.000000 0.000000 0.0
vt 0.000000 0.000000 0.0
#vcolor 9.000000 130.000000 7.000000 255.000000
#vcolor 98.000000 80.000000 7.000000 255.000000
vn 0.070866 1.023622 0.055118
vn 0.771654 0.629921 0.055118
vn 0.354331 0.913386 0.165354
f 49/259/151 51/260/152 53/261/153
#fvcolorindex 31 32 27 
vt 0.000000 0.000000 0.0
vt 0.000000 0.000000 0.0
vt 0.000000 0.000000 0.0
vn 0.070866 1.023622 0.055118
vn 0.354331 0.913386 0.165354
vn 0.181102 1.039370 0.078740
f 49/262/154 53/263/155 47/264/156
#fvcolorindex 31 27 26 
usemtl m28EnvMappingTexScaleS0.031250TexScaleT0.031250
vt 0.000000 0.000000 0.0
vt 0.000000 0.000000 0.0
vt 0.000000 0.000000 0.0
v 79.356651 4.374041 -64.397491
#joint 34
#vjoint 62
#vcolor 240.000000 146.000000 196.000000 255.000000
v 63.356651 5.374041 -60.397488
#joint 34
#vjoint 63
#vcolor 2.000000 196.000000 145.000000 255.000000
v 63.356651 12.374041 -60.397488
#joint 34
#vjoint 64
vn 1.889764 1.149606 1.543307
vn 0.015748 1.543307 1.141732
vn 0.015748 1.543307 1.141732
f 62/265/157 63/266/158 64/267/159
#fvcolorindex 33 34 34 
vt 0.000000 0.000000 0.0
vt 0.000000 0.000000 0.0
vt 0.000000 0.000000 0.0
v 79.356651 19.374041 -64.397491
#joint 34
#vjoint 65
#vcolor 220.000000 103.000000 192.000000 255.000000
vn 1.889764 1.149606 1.543307
vn 0.015748 1.543307 1.141732
vn 1.732283 0.811024 1.511811
f 62/268/160 64/269/161 65/270/162
#fvcolorindex 33 34 35 
usemtl m29EnvMappingTexScaleS0.031250TexScaleT0.031250
vt 0.000000 0.000000 0.0
vt 0.000000 0.000000 0.0
vt 0.000000 0.000000 0.0
v 44.356651 3.374041 -24.397488
#joint 34
#vjoint 66
#vcolor 233.000000 132.000000 10.000000 255.000000
v 44.356651 2.374041 -3.397488
#joint 34
#vjoint 67
#vcolor 4.000000 132.000000 22.000000 255.000000
vn 1.834646 1.039370 0.078740
vn 1.889764 1.149606 1.543307
vn 0.031496 1.039370 0.173228
f 66/271/163 62/272/164 67/273/165
#fvcolorindex 36 33 37 
usemtl m30EnvMappingTexScaleS0.031250TexScaleT0.031250
vt 0.000000 0.000000 0.0
vt 0.000000 0.000000 0.0
vt 0.000000 0.000000 0.0
v 43.356651 11.374041 -30.397488
#joint 34
#vjoint 68
#vcolor 211.000000 116.000000 21.000000 255.000000
vn 1.732283 0.811024 1.511811
vn 0.015748 1.543307 1.141732
vn 1.661417 0.913386 0.165354
f 65/274/166 64/275/167 68/276/168
#fvcolorindex 35 34 38 
usemtl m31EnvMappingTexScaleS0.031250TexScaleT0.031250
vt 0.000000 0.000000 0.0
vt 0.000000 0.000000 0.0
vt 0.000000 0.000000 0.0
v 43.356651 4.374041 -30.397488
#joint 34
#vjoint 69
vn 1.661417 0.913386 0.165354
vn 1.834646 1.039370 0.078740
vn 1.834646 1.039370 0.078740
f 68/277/169 69/278/170 66/279/171
#fvcolorindex 38 36 36 
vt 0.000000 0.000000 0.0
vt 0.000000 0.000000 0.0
vt 0.000000 0.000000 0.0
vn 1.661417 0.913386 0.165354
vn 1.834646 1.039370 0.078740
vn 0.031496 1.039370 0.173228
f 68/280/172 66/281/173 67/282/174
#fvcolorindex 38 36 37 
vt 0.000000 0.000000 0.0
vt 0.000000 0.000000 0.0
vt 0.000000 0.000000 0.0
v 44.356651 17.374041 -3.397488
#joint 34
#vjoint 70
#vcolor 229.000000 117.000000 40.000000 255.000000
vn 1.661417 0.913386 0.165354
vn 0.031496 1.039370 0.173228
vn 1.803150 0.921260 0.314961
f 68/283/175 67/284/176 70/285/177
#fvcolorindex 38 37 39 
usemtl m32EnvMappingTexScaleS0.031250TexScaleT0.031250
vt 0.000000 0.000000 0.0
vt 0.000000 0.000000 0.0
vt 0.000000 0.000000 0.0
v 82.356651 4.374041 -54.397488
#joint 34
#vjoint 71
#vcolor 46.000000 146.000000 42.000000 255.000000
v 82.356651 18.374041 -54.397488
#joint 34
#vjoint 72
#vcolor 48.000000 105.000000 51.000000 255.000000
vn 0.362205 1.149606 0.330709
vn 0.377953 0.826772 0.401575
vn 1.803150 0.921260 0.314961
f 71/286/178 72/287/179 70/288/180
#fvcolorindex 40 41 39 
vt 0.000000 0.000000 0.0
vt 0.000000 0.000000 0.0
vt 0.000000 0.000000 0.0
vn 0.362205 1.149606 0.330709
vn 1.803150 0.921260 0.314961
vn 0.031496 1.039370 0.173228
f 71/289/181 70/290/182 67/291/183
#fvcolorindex 40 39 37 
usemtl m33EnvMappingTexScaleS0.031250TexScaleT0.031250
vt 0.000000 0.000000 0.0
vt 0.000000 0.000000 0.0
vt 0.000000 0.000000 0.0
vn 0.031496 1.039370 0.173228
vn 1.889764 1.149606 1.543307
vn 0.362205 1.149606 0.330709
f 67/292/184 62/293/185 71/294/186
#fvcolorindex 37 33 40 
usemtl m29EnvMappingTexScaleS0.031250TexScaleT0.031250
vt 0.000000 0.000000 0.0
vt 0.000000 0.000000 0.0
vt 0.000000 0.000000 0.0
v 27.356651 11.374041 -42.397488
#joint 34
#vjoint 73
#vcolor 158.000000 80.000000 7.000000 255.000000
vn 1.834646 1.039370 0.078740
vn 1.661417 0.913386 0.165354
vn 1.244094 0.629921 0.055118
f 69/295/187 68/296/188 73/297/189
#fvcolorindex 36 38 42 
vt 0.000000 0.000000 0.0
vt 0.000000 0.000000 0.0
vt 0.000000 0.000000 0.0
v 27.356651 4.374041 -42.397488
#joint 34
#vjoint 74
#vcolor 247.000000 130.000000 7.000000 255.000000
vn 1.834646 1.039370 0.078740
vn 1.244094 0.629921 0.055118
vn 1.944882 1.023622 0.055118
f 69/298/190 73/299/191 74/300/192
#fvcolorindex 36 42 43 
usemtl m21
vt 0.694336 -0.732422 0.0
vt 0.577148 -0.878906 0.0
vt 0.603516 -0.691406 0.0
v 56.356651 5.374041 -66.397491
#joint 34
#vjoint 75
f 74/301 75/302 69/303
#fvcolorindex 21 21 21 
vt 0.577148 -0.878906 0.0
vt 0.533203 -0.856445 0.0
vt 0.603516 -0.691406 0.0
f 75/304 63/305 69/306
#fvcolorindex 21 21 21 
vt 0.000000 0.000000 0.0
vt -0.282227 0.000000 0.0
vt -0.041016 -0.142578 0.0
v 56.356651 12.374041 -66.397491
#joint 34
#vjoint 76
f 68/307 76/308 73/309
#fvcolorindex 21 21 21 
vt 0.694336 -0.732422 0.0
vt 0.694336 -0.732422 0.0
vt 0.577148 -0.878906 0.0
f 74/310 73/311 76/312
#fvcolorindex 21 21 21 
vt 0.694336 -0.732422 0.0
vt 0.577148 -0.878906 0.0
vt 0.577148 -0.878906 0.0
f 74/313 76/314 75/315
#fvcolorindex 21 21 21 
vt 0.577148 -0.878906 0.0
vt 0.577148 -0.878906 0.0
vt 0.533203 -0.856445 0.0
f 75/316 76/317 64/318
#fvcolorindex 21 21 21 
vt 0.577148 -0.878906 0.0
vt 0.533203 -0.856445 0.0
vt 0.533203 -0.856445 0.0
f 75/319 64/320 63/321
#fvcolorindex 21 21 21 
vt 0.000000 0.000000 0.0
vt -0.266602 0.000000 0.0
vt -0.272461 -0.073242 0.0
f 68/322 64/323 76/324
#fvcolorindex 21 21 21 
vt 0.592773 -0.660156 0.0
vt 0.603516 -0.691406 0.0
vt 0.533203 -0.856445 0.0
f 66/325 69/326 63/327
#fvcolorindex 21 21 21 
vt 0.592773 -0.660156 0.0
vt 0.533203 -0.856445 0.0
vt 0.462891 -0.890625 0.0
f 66/328 63/329 62/330
#fvcolorindex 21 21 21 
usemtl m28EnvMappingTexScaleS0.031250TexScaleT0.031250
vt 0.000000 0.000000 0.0
vt 0.000000 0.000000 0.0
vt 0.000000 0.000000 0.0
v 106.367615 15.946056 -72.821548
#joint 35
#vjoint 77
#vcolor 215.000000 4.000000 137.000000 255.000000
vn 1.889764 1.149606 1.543307
vn 1.732283 0.811024 1.511811
vn 1.692913 0.031496 1.078740
f 62/331/193 65/332/194 77/333/195
#fvcolorindex 33 35 44 
vt 0.000000 0.000000 0.0
vt 0.000000 0.000000 0.0
vt 0.000000 0.000000 0.0
v 106.367615 6.946056 -73.821548
#joint 35
#vjoint 78
vn 1.889764 1.149606 1.543307
vn 1.692913 0.031496 1.078740
vn 1.692913 0.031496 1.078740
f 62/334/196 77/335/197 78/336/198
#fvcolorindex 33 44 44 
usemtl m34EnvMappingTexScaleS0.031250TexScaleT0.031250
vt 0.000000 0.000000 0.0
vt 0.000000 0.000000 0.0
vt 0.000000 0.000000 0.0
v 135.367615 13.946056 -89.821548
#joint 35
#vjoint 79
#vcolor 176.000000 35.000000 165.000000 255.000000
vn 1.692913 0.031496 1.078740
vn 1.692913 0.031496 1.078740
vn 1.385827 0.275591 1.299213
f 78/337/199 77/338/200 79/339/201
#fvcolorindex 44 44 45 
vt 0.000000 0.000000 0.0
vt 0.000000 0.000000 0.0
vt 0.000000 0.000000 0.0
v 135.367615 7.946056 -89.821548
#joint 35
#vjoint 80
vn 1.692913 0.031496 1.078740
vn 1.385827 0.275591 1.299213
vn 1.385827 0.275591 1.299213
f 78/340/202 79/341/203 80/342/204
#fvcolorindex 44 45 45 
usemtl m35EnvMappingTexScaleS0.031250TexScaleT0.031250
vt 0.000000 0.000000 0.0
vt 0.000000 0.000000 0.0
vt 0.000000 0.000000 0.0
v 144.367615 7.946056 -82.821548
#joint 35
#vjoint 81
#vcolor 88.000000 254.000000 91.000000 255.000000
vn 1.385827 0.275591 1.299213
vn 0.692913 2.000000 0.716535
vn 1.692913 0.031496 1.078740
f 80/343/205 81/344/206 78/345/207
#fvcolorindex 45 46 44 
usemtl m34EnvMappingTexScaleS0.031250TexScaleT0.031250
vt 0.000000 0.000000 0.0
vt 0.000000 0.000000 0.0
vt 0.000000 0.000000 0.0
vn 1.692913 0.031496 1.078740
vn 0.692913 2.000000 0.716535
vn 0.362205 1.149606 0.330709
f 78/346/208 81/347/209 71/348/210
#fvcolorindex 44 46 40 
usemtl m28EnvMappingTexScaleS0.031250TexScaleT0.031250
vt 0.000000 0.000000 0.0
vt 0.000000 0.000000 0.0
vt 0.000000 0.000000 0.0
vn 1.889764 1.149606 1.543307
vn 1.692913 0.031496 1.078740
vn 0.362205 1.149606 0.330709
f 62/349/211 78/350/212 71/351/213
#fvcolorindex 33 44 40 
usemtl m36EnvMappingTexScaleS0.031250TexScaleT0.031250
vt 0.000000 0.000000 0.0
vt 0.000000 0.000000 0.0
vt 0.000000 0.000000 0.0
vn 0.377953 0.826772 0.401575
vn 0.362205 1.149606 0.330709
vn 0.692913 2.000000 0.716535
f 72/352/214 71/353/215 81/354/216
#fvcolorindex 41 40 46 
vt 0.000000 0.000000 0.0
vt 0.000000 0.000000 0.0
vt 0.000000 0.000000 0.0
v 144.367615 13.946056 -82.821548
#joint 35
#vjoint 82
vn 0.377953 0.826772 0.401575
vn 0.692913 2.000000 0.716535
vn 0.692913 2.000000 0.716535
f 72/355/217 81/356/218 82/357/219
#fvcolorindex 41 46 46 
usemtl m37EnvMappingTexScaleS0.031250TexScaleT0.031250
vt 0.000000 0.000000 0.0
vt 0.000000 0.000000 0.0
vt 0.000000 0.000000 0.0
v -0.089615 13.347922 -134.317871
#joint 38
#vjoint 83
#vcolor 31.000000 176.000000 164.000000 255.000000
v 161.982498 13.907081 -132.951935
#joint 36
#vjoint 84
#vcolor 54.000000 3.000000 142.000000 255.000000
v 161.982498 10.907081 -132.951935
#joint 36
#vjoint 85
vn 0.244094 1.385827 1.291339
vn 0.425197 0.023622 1.118110
vn 0.425197 0.023622 1.118110
f 83/358/220 84/359/221 85/360/222
#fvcolorindex 47 48 48 
vt 0.000000 0.000000 0.0
vt 0.000000 0.000000 0.0
vt 0.000000 0.000000 0.0
v -0.089615 11.347922 -134.317871
#joint 38
#vjoint 86
vn 0.244094 1.385827 1.291339
vn 0.425197 0.023622 1.118110
vn 0.244094 1.385827 1.291339
f 83/361/223 85/362/224 86/363/225
#fvcolorindex 47 48 47 
vt 0.000000 0.000000 0.0
vt 0.000000 0.000000 0.0
vt 0.000000 0.000000 0.0
#vcolor 203.000000 253.000000 115.000000 255.000000
vn 0.244094 1.385827 1.291339
vn 0.244094 1.385827 1.291339
vn 1.598425 1.992126 0.905512
f 83/364/226 86/365/227 85/366/228
#fvcolorindex 47 47 49 
vt 0.000000 0.000000 0.0
vt 0.000000 0.000000 0.0
vt 0.000000 0.000000 0.0
vn 0.244094 1.385827 1.291339
vn 1.598425 1.992126 0.905512
vn 1.598425 1.992126 0.905512
f 83/367/229 85/368/230 84/369/231
#fvcolorindex 47 49 49 
usemtl m38EnvMappingTexScaleS0.031250TexScaleT0.031250
vt 0.000000 0.000000 0.0
vt 0.000000 0.000000 0.0
vt 0.000000 0.000000 0.0
v 158.982498 13.907081 -101.951935
#joint 36
#vjoint 87
#vcolor 114.000000 29.000000 45.000000 255.000000
vn 0.425197 0.023622 1.118110
vn 0.425197 0.023622 1.118110
vn 0.897638 0.228346 0.354331
f 85/370/232 84/371/233 87/372/234
#fvcolorindex 48 48 50 
vt 0.000000 0.000000 0.0
vt 0.000000 0.000000 0.0
vt 0.000000 0.000000 0.0
v 158.982498 10.907081 -101.951935
#joint 36
#vjoint 88
vn 0.425197 0.023622 1.118110
vn 0.897638 0.228346 0.354331
vn 0.897638 0.228346 0.354331
f 85/373/235 87/374/236 88/375/237
#fvcolorindex 48 50 50 
usemtl m39EnvMappingTexScaleS0.031250TexScaleT0.031250
vt 0.000000 0.000000 0.0
vt 0.000000 0.000000 0.0
vt 0.000000 0.000000 0.0
vn 0.897638 0.228346 0.354331
vn 0.692913 2.000000 0.716535
vn 0.692913 2.000000 0.716535
f 87/376/238 82/377/239 81/378/240
#fvcolorindex 50 46 46 
vt 0.000000 0.000000 0.0
vt 0.000000 0.000000 0.0
vt 0.000000 0.000000 0.0
vn 0.897638 0.228346 0.354331
vn 0.692913 2.000000 0.716535
vn 0.897638 0.228346 0.354331
f 87/379/241 81/380/242 88/381/243
#fvcolorindex 50 46 50 
usemtl m38EnvMappingTexScaleS0.031250TexScaleT0.031250
vt 0.000000 0.000000 0.0
vt 0.000000 0.000000 0.0
vt 0.000000 0.000000 0.0
vn 0.425197 0.023622 1.118110
vn 1.385827 0.275591 1.299213
vn 1.385827 0.275591 1.299213
f 85/382/244 80/383/245 79/384/246
#fvcolorindex 48 45 45 
vt 0.000000 0.000000 0.0
vt 0.000000 0.000000 0.0
vt 0.000000 0.000000 0.0
vn 0.425197 0.023622 1.118110
vn 1.385827 0.275591 1.299213
vn 0.425197 0.023622 1.118110
f 85/385/247 79/386/248 84/387/249
#fvcolorindex 48 45 48 
usemtl m39EnvMappingTexScaleS0.031250TexScaleT0.031250
vt 0.000000 0.000000 0.0
vt 0.000000 0.000000 0.0
vt 0.000000 0.000000 0.0
vn 0.897638 0.228346 0.354331
vn 0.692913 2.000000 0.716535
vn 1.385827 0.275591 1.299213
f 88/388/250 81/389/251 80/390/252
#fvcolorindex 50 46 45 
vt 0.000000 0.000000 0.0
vt 0.000000 0.000000 0.0
vt 0.000000 0.000000 0.0
vn 0.897638 0.228346 0.354331
vn 1.385827 0.275591 1.299213
vn 0.425197 0.023622 1.118110
f 88/391/253 80/392/254 85/393/255
#fvcolorindex 50 45 48 
usemtl m40EnvMappingTexScaleS0.031250TexScaleT0.031250
vt 0.000000 0.000000 0.0
vt 0.000000 0.000000 0.0
vt 0.000000 0.000000 0.0
#vcolor 6.000000 126.000000 12.000000 255.000000
#vcolor 250.000000 196.000000 111.000000 255.000000
v -7.829444 15.900150 -185.079071
#joint 33
#vjoint 89
#vcolor 89.000000 249.000000 89.000000 255.000000
vn 0.047244 0.992126 0.094488
vn 1.968504 1.543307 0.874016
vn 0.700787 1.960630 0.700787
f 39/394/256 46/395/257 89/396/258
#fvcolorindex 51 52 53 
vt 0.000000 0.000000 0.0
vt 0.000000 0.000000 0.0
vt 0.000000 0.000000 0.0
#vcolor 20.000000 124.000000 10.000000 255.000000
vn 0.047244 0.992126 0.094488
vn 0.700787 1.960630 0.700787
vn 0.157480 0.976378 0.078740
f 39/397/259 89/398/260 41/399/261
#fvcolorindex 51 53 54 
usemtl m41EnvMappingTexScaleS0.031250TexScaleT0.031250
vt 0.000000 0.000000 0.0
vt 0.000000 0.000000 0.0
vt 0.000000 0.000000 0.0
#vcolor 236.000000 124.000000 10.000000 255.000000
v 7.170556 15.900150 -185.079071
#joint 33
#vjoint 90
#vcolor 167.000000 249.000000 89.000000 255.000000
#vcolor 6.000000 196.000000 111.000000 255.000000
vn 1.858268 0.976378 0.078740
vn 1.314961 1.960630 0.700787
vn 0.047244 1.543307 0.874016
f 34/400/262 90/401/263 37/402/264
#fvcolorindex 55 56 57 
vt 0.000000 0.000000 0.0
vt 0.000000 0.000000 0.0
vt 0.000000 0.000000 0.0
#vcolor 250.000000 126.000000 12.000000 255.000000
vn 1.858268 0.976378 0.078740
vn 0.047244 1.543307 0.874016
vn 1.968504 0.992126 0.094488
f 34/403/265 37/404/266 31/405/267
#fvcolorindex 55 57 58 
usemtl m42EnvMappingTexScaleS0.031250TexScaleT0.031250
vt 0.000000 0.000000 0.0
vt 0.000000 0.000000 0.0
vt 0.000000 0.000000 0.0
#vcolor 84.000000 93.000000 242.000000 255.000000
v 6.170556 16.900150 -219.079071
#joint 33
#vjoint 91
#vcolor 69.000000 247.000000 150.000000 255.000000
v 6.170556 25.900150 -211.079071
#joint 33
#vjoint 92
#vcolor 36.000000 105.000000 195.000000 255.000000
vn 0.661417 0.732283 1.905512
vn 0.543307 1.944882 1.181102
vn 0.283465 0.826772 1.535433
f 32/406/268 91/407/269 92/408/270
#fvcolorindex 59 60 61 
vt 0.000000 0.000000 0.0
vt 0.000000 0.000000 0.0
vt 0.000000 0.000000 0.0
vn 0.661417 0.732283 1.905512
vn 0.283465 0.826772 1.535433
vn 0.661417 0.732283 1.905512
f 32/409/271 92/410/272 33/411/273
#fvcolorindex 59 61 59 
usemtl m43EnvMappingTexScaleS0.031250TexScaleT0.031250
vt 0.000000 0.000000 0.0
vt 0.000000 0.000000 0.0
vt 0.000000 0.000000 0.0
v 37.170555 11.900150 -160.079071
#joint 33
#vjoint 93
#vcolor 121.000000 23.000000 226.000000 255.000000
v 15.170556 12.900150 -185.079071
#joint 33
#vjoint 94
#vcolor 0.000000 126.000000 3.000000 255.000000
v 14.170556 8.900150 -79.079071
#joint 33
#vjoint 95
#vcolor 112.000000 24.000000 54.000000 255.000000
vn 0.952756 0.181102 1.779528
vn 0.000000 0.992126 0.023622
vn 0.881890 0.188976 0.425197
f 93/412/274 94/413/275 95/414/276
#fvcolorindex 62 63 64 
vt 0.000000 0.000000 0.0
vt 0.000000 0.000000 0.0
vt 0.000000 0.000000 0.0
v 33.170555 9.900150 -98.079071
#joint 33
#vjoint 96
#vcolor 122.000000 241.000000 29.000000 255.000000
vn 0.952756 0.181102 1.779528
vn 0.881890 0.188976 0.425197
vn 0.960630 1.897638 0.228346
f 93/415/277 95/416/278 96/417/279
#fvcolorindex 62 64 65 
usemtl m44EnvMappingTexScaleS0.031250TexScaleT0.031250
vt 0.000000 0.000000 0.0
vt 0.000000 0.000000 0.0
vt 0.000000 0.000000 0.0
v 7.170556 -6.099850 -37.079071
#joint 33
#vjoint 97
#vcolor 237.000000 131.000000 8.000000 255.000000
v 32.170555 -2.099850 -54.079071
#joint 33
#vjoint 98
#vcolor 43.000000 138.000000 248.000000 255.000000
v 32.170555 -1.099850 -41.079071
#joint 33
#vjoint 99
vn 1.866142 1.031496 0.062992
vn 0.338583 1.086614 1.952756
vn 1.944882 1.023622 0.055118
f 97/418/280 98/419/281 99/420/282
#fvcolorindex 66 67 43 
vt 0.000000 0.000000 0.0
vt 0.000000 0.000000 0.0
vt 0.000000 0.000000 0.0
v 7.170556 -5.099850 -79.079071
#joint 33
#vjoint 100
#vcolor 17.000000 131.000000 250.000000 255.000000
vn 1.866142 1.031496 0.062992
vn 0.133858 1.031496 1.968504
vn 0.338583 1.086614 1.952756
f 97/421/283 100/422/284 98/423/285
#fvcolorindex 66 68 67 
usemtl m43EnvMappingTexScaleS0.031250TexScaleT0.031250
vt 0.000000 0.000000 0.0
vt 0.000000 0.000000 0.0
vt 0.000000 0.000000 0.0
v 5.170556 13.900150 -219.079071
#joint 33
#vjoint 101
vn 0.952756 0.181102 1.779528
vn 0.244094 1.385827 1.291339
vn 0.000000 0.992126 0.023622
f 93/424/286 101/425/287 94/426/288
#fvcolorindex 62 47 63 
vt 0.000000 0.000000 0.0
vt 0.000000 0.000000 0.0
vt 0.000000 0.000000 0.0
v 37.170555 14.900150 -160.079071
#joint 33
#vjoint 102
vn 0.952756 0.181102 1.779528
vn 1.314961 1.960630 0.700787
vn 0.543307 1.944882 1.181102
f 102/427/289 90/428/290 91/429/291
#fvcolorindex 62 56 60 
usemtl m29EnvMappingTexScaleS0.031250TexScaleT0.031250
vt 0.000000 0.000000 0.0
vt 0.000000 0.000000 0.0
vt 0.000000 0.000000 0.0
v 43.170555 3.900150 -28.079071
#joint 33
#vjoint 103
vn 1.834646 1.039370 0.078740
vn 1.944882 1.023622 0.055118
vn 0.338583 1.086614 1.952756
f 103/430/292 99/431/293 98/432/294
#fvcolorindex 36 43 67 
vt 0.000000 0.000000 0.0
vt 0.000000 0.000000 0.0
vt 0.000000 0.000000 0.0
v 43.170555 4.900150 -54.079071
#joint 33
#vjoint 104
#vcolor 116.000000 15.000000 209.000000 255.000000
vn 1.834646 1.039370 0.078740
vn 0.338583 1.086614 1.952756
vn 0.913386 0.118110 1.645669
f 103/433/295 98/434/296 104/435/297
#fvcolorindex 36 67 69 
usemtl m45EnvMappingTexScaleS0.031250TexScaleT0.031250
vt 0.000000 0.000000 0.0
vt 0.000000 0.000000 0.0
vt 0.000000 0.000000 0.0
v 7.170556 2.900150 10.920929
#joint 33
#vjoint 105
vn 0.047244 1.543307 0.874016
vn 1.866142 1.031496 0.062992
vn 1.944882 1.023622 0.055118
f 105/436/298 97/437/299 99/438/300
#fvcolorindex 57 66 43 
vt 0.000000 0.000000 0.0
vt 0.000000 0.000000 0.0
vt 0.000000 0.000000 0.0
vn 0.047244 1.543307 0.874016
vn 1.944882 1.023622 0.055118
vn 1.834646 1.039370 0.078740
f 105/439/301 99/440/302 103/441/303
#fvcolorindex 57 43 36 
usemtl m29EnvMappingTexScaleS0.031250TexScaleT0.031250
vt 0.000000 0.000000 0.0
vt 0.000000 0.000000 0.0
vt 0.000000 0.000000 0.0
vn 1.834646 1.039370 0.078740
vn 0.913386 0.118110 1.645669
vn 0.047244 1.543307 0.874016
f 103/442/304 104/443/305 105/444/306
#fvcolorindex 36 69 57 
usemtl m46EnvMappingTexScaleS0.031250TexScaleT0.031250
vt 0.000000 0.000000 0.0
vt 0.000000 0.000000 0.0
vt 0.000000 0.000000 0.0
v 14.170556 4.900150 -79.079071
#joint 33
#vjoint 106
vn 0.913386 0.118110 1.645669
vn 0.881890 0.188976 0.425197
vn 0.047244 1.543307 0.874016
f 104/445/307 106/446/308 105/447/309
#fvcolorindex 69 64 57 
usemtl m47EnvMappingTexScaleS0.031250TexScaleT0.031250
vt 0.000000 0.000000 0.0
vt 0.000000 0.000000 0.0
vt 0.000000 0.000000 0.0
v 29.170555 5.900150 -83.079071
#joint 33
#vjoint 107
#vcolor 103.000000 6.000000 73.000000 255.000000
vn 0.811024 0.047244 0.574803
vn 0.881890 0.188976 0.425197
vn 0.913386 0.118110 1.645669
f 107/448/310 106/449/311 104/450/312
#fvcolorindex 70 64 69 
usemtl m48EnvMappingTexScaleS0.031250TexScaleT0.031250
vt 0.000000 0.000000 0.0
vt 0.000000 0.000000 0.0
vt 0.000000 0.000000 0.0
v 7.170556 -1.099850 -213.079071
#joint 33
#vjoint 108
#vcolor 31.000000 148.000000 199.000000 255.000000
v 37.170555 9.900150 -160.079071
#joint 33
#vjoint 109
v 33.170555 4.900150 -98.079071
#joint 33
#vjoint 110
vn 0.244094 1.165354 1.566929
vn 0.952756 0.181102 1.779528
vn 0.960630 1.897638 0.228346
f 108/451/313 109/452/314 110/453/315
#fvcolorindex 71 62 65 
vt 0.000000 0.000000 0.0
vt 0.000000 0.000000 0.0
vt 0.000000 0.000000 0.0
vn 0.244094 1.165354 1.566929
vn 0.960630 1.897638 0.228346
vn 0.133858 1.031496 1.968504
f 108/454/316 110/455/317 100/456/318
#fvcolorindex 71 65 68 
usemtl m49EnvMappingTexScaleS0.031250TexScaleT0.031250
vt 0.000000 0.000000 0.0
vt 0.000000 0.000000 0.0
vt 0.000000 0.000000 0.0
vn 0.960630 1.897638 0.228346
vn 0.811024 0.047244 0.574803
vn 0.133858 1.031496 1.968504
f 110/457/319 107/458/320 100/459/321
#fvcolorindex 65 70 68 
usemtl m48EnvMappingTexScaleS0.031250TexScaleT0.031250
vt 0.000000 0.000000 0.0
vt 0.000000 0.000000 0.0
vt 0.000000 0.000000 0.0
vn 0.244094 1.165354 1.566929
vn 0.244094 1.385827 1.291339
vn 0.952756 0.181102 1.779528
f 108/460/322 101/461/323 109/462/324
#fvcolorindex 71 47 62 
usemtl m45EnvMappingTexScaleS0.031250TexScaleT0.031250
vt 0.000000 0.000000 0.0
vt 0.000000 0.000000 0.0
vt 0.000000 0.000000 0.0
v 14.170556 12.900150 -78.079071
#joint 33
#vjoint 111
vn 0.047244 1.543307 0.874016
vn 0.881890 0.188976 0.425197
vn 0.913386 0.118110 1.645669
f 37/463/325 111/464/326 29/465/327
#fvcolorindex 57 64 69 
vt 0.000000 0.000000 0.0
vt 0.000000 0.000000 0.0
vt 0.000000 0.000000 0.0
vn 0.047244 1.543307 0.874016
vn 0.913386 0.118110 1.645669
vn 1.661417 0.913386 0.165354
f 37/466/328 29/467/329 36/468/330
#fvcolorindex 57 69 38 
usemtl m49EnvMappingTexScaleS0.031250TexScaleT0.031250
vt 0.000000 0.000000 0.0
vt 0.000000 0.000000 0.0
vt 0.000000 0.000000 0.0
v 33.170555 12.900150 -98.079071
#joint 33
#vjoint 112
v 23.170555 12.900150 -87.079071
#joint 33
#vjoint 113
#vcolor 79.000000 196.000000 78.000000 255.000000
vn 0.960630 1.897638 0.228346
vn 0.622047 1.543307 0.614173
vn 0.881890 0.188976 0.425197
f 112/469/331 113/470/332 111/471/333
#fvcolorindex 65 72 64 
vt 0.000000 0.000000 0.0
vt 0.000000 0.000000 0.0
vt 0.000000 0.000000 0.0
vn 0.960630 1.897638 0.228346
vn 0.881890 0.188976 0.425197
vn 1.314961 1.960630 0.700787
f 112/472/334 111/473/335 90/474/336
#fvcolorindex 65 64 56 
vt 0.000000 0.000000 0.0
vt 0.000000 0.000000 0.0
vt 0.000000 0.000000 0.0
vn 0.960630 1.897638 0.228346
vn 1.314961 1.960630 0.700787
vn 0.952756 0.181102 1.779528
f 112/475/337 90/476/338 102/477/339
#fvcolorindex 65 56 62 
usemtl m47EnvMappingTexScaleS0.031250TexScaleT0.031250
vt 0.000000 0.000000 0.0
vt 0.000000 0.000000 0.0
vt 0.000000 0.000000 0.0
vn 0.811024 0.047244 0.574803
vn 0.913386 0.118110 1.645669
vn 0.338583 1.086614 1.952756
f 107/478/340 104/479/341 98/480/342
#fvcolorindex 70 69 67 
vt 0.000000 0.000000 0.0
vt 0.000000 0.000000 0.0
vt 0.000000 0.000000 0.0
vn 0.811024 0.047244 0.574803
vn 0.338583 1.086614 1.952756
vn 0.133858 1.031496 1.968504
f 107/481/343 98/482/344 100/483/345
#fvcolorindex 70 67 68 
usemtl m50EnvMappingTexScaleS0.031250TexScaleT0.031250
vt 0.000000 0.000000 0.0
vt 0.000000 0.000000 0.0
vt 0.000000 0.000000 0.0
v 0.170556 16.900150 -225.079071
#joint 33
#vjoint 114
vn 0.543307 1.944882 1.181102
vn 0.543307 1.944882 1.181102
vn 0.244094 1.385827 1.291339
f 114/484/346 91/485/347 101/486/348
#fvcolorindex 60 60 47 
usemtl m37EnvMappingTexScaleS0.031250TexScaleT0.031250
vt 0.000000 0.000000 0.0
vt 0.000000 0.000000 0.0
vt 0.000000 0.000000 0.0
v 6.170556 9.900150 -217.079071
#joint 33
#vjoint 115
v 0.170556 9.900150 -217.079071
#joint 33
#vjoint 116
v 0.170556 13.900150 -219.079071
#joint 33
#vjoint 117
vn 0.244094 1.385827 1.291339
vn 0.244094 1.385827 1.291339
vn 0.244094 1.385827 1.291339
f 115/487/349 116/488/350 117/489/351
#fvcolorindex 47 47 47 
vt 0.000000 0.000000 0.0
vt 0.000000 0.000000 0.0
vt 0.000000 0.000000 0.0
vn 0.244094 1.385827 1.291339
vn 0.244094 1.385827 1.291339
vn 0.244094 1.385827 1.291339
f 115/490/352 117/491/353 101/492/354
#fvcolorindex 47 47 47 
vt 0.000000 0.000000 0.0
vt 0.000000 0.000000 0.0
vt 0.000000 0.000000 0.0
vn 0.244094 1.385827 1.291339
vn 0.244094 1.165354 1.566929
vn 0.133858 1.031496 1.968504
f 115/493/355 108/494/356 100/495/357
#fvcolorindex 47 71 68 
vt 0.000000 0.000000 0.0
vt 0.000000 0.000000 0.0
vt 0.000000 0.000000 0.0
vn 0.244094 1.385827 1.291339
vn 0.133858 1.031496 1.968504
vn 1.866142 1.031496 0.062992
f 115/496/358 100/497/359 97/498/360
#fvcolorindex 47 68 66 
vt 0.000000 0.000000 0.0
vt 0.000000 0.000000 0.0
vt 0.000000 0.000000 0.0
vn 0.244094 1.385827 1.291339
vn 1.866142 1.031496 0.062992
vn 0.047244 1.543307 0.874016
f 115/499/361 97/500/362 105/501/363
#fvcolorindex 47 66 57 
usemtl m45EnvMappingTexScaleS0.031250TexScaleT0.031250
vt 0.000000 0.000000 0.0
vt 0.000000 0.000000 0.0
vt 0.000000 0.000000 0.0
v 0.170556 2.900150 9.920929
#joint 33
#vjoint 118
#vcolor 241.000000 77.000000 99.000000 255.000000
v 0.170556 8.900150 -195.079071
#joint 33
#vjoint 119
#vcolor 0.000000 130.000000 253.000000 255.000000
vn 0.047244 1.543307 0.874016
vn 1.897638 0.606299 0.779528
vn 0.000000 1.023622 1.992126
f 105/502/364 118/503/365 119/504/366
#fvcolorindex 57 73 74 
vt 0.000000 0.000000 0.0
vt 0.000000 0.000000 0.0
vt 0.000000 0.000000 0.0
vn 0.047244 1.543307 0.874016
vn 0.000000 1.023622 1.992126
vn 0.244094 1.385827 1.291339
f 105/505/367 119/506/368 116/507/369
#fvcolorindex 57 74 47 
vt 0.000000 0.000000 0.0
vt 0.000000 0.000000 0.0
vt 0.000000 0.000000 0.0
vn 0.047244 1.543307 0.874016
vn 0.244094 1.385827 1.291339
vn 0.244094 1.385827 1.291339
f 105/508/370 116/509/371 115/510/372
#fvcolorindex 57 47 47 
usemtl m51EnvMappingTexScaleS0.031250TexScaleT0.031250
vt 0.000000 0.000000 0.0
vt 0.000000 0.000000 0.0
vt 0.000000 0.000000 0.0
#vcolor 172.000000 93.000000 242.000000 255.000000
v -5.829444 25.900150 -211.079071
#joint 33
#vjoint 120
#vcolor 220.000000 105.000000 195.000000 255.000000
v -5.829444 16.900150 -219.079071
#joint 33
#vjoint 121
#vcolor 187.000000 247.000000 150.000000 255.000000
vn 1.354331 0.732283 1.905512
vn 1.732283 0.826772 1.535433
vn 1.472441 1.944882 1.181102
f 42/511/373 120/512/374 121/513/375
#fvcolorindex 75 76 77 
vt 0.000000 0.000000 0.0
vt 0.000000 0.000000 0.0
vt 0.000000 0.000000 0.0
vn 1.354331 0.732283 1.905512
vn 1.472441 1.944882 1.181102
vn 1.354331 0.732283 1.905512
f 42/514/376 121/515/377 43/516/378
#fvcolorindex 75 77 75 
usemtl m52EnvMappingTexScaleS0.031250TexScaleT0.031250
vt 0.000000 0.000000 0.0
vt 0.000000 0.000000 0.0
vt 0.000000 0.000000 0.0
v -33.829445 9.900150 -98.079071
#joint 33
#vjoint 122
#vcolor 134.000000 241.000000 29.000000 255.000000
v -13.829444 8.900150 -79.079071
#joint 33
#vjoint 123
#vcolor 144.000000 24.000000 54.000000 255.000000
v -14.829444 12.900150 -185.079071
#joint 33
#vjoint 124
vn 1.055118 1.897638 0.228346
vn 1.133858 0.188976 0.425197
vn 0.000000 0.992126 0.023622
f 122/517/379 123/518/380 124/519/381
#fvcolorindex 78 79 63 
vt 0.000000 0.000000 0.0
vt 0.000000 0.000000 0.0
vt 0.000000 0.000000 0.0
v -37.829445 11.900150 -160.079071
#joint 33
#vjoint 125
#vcolor 135.000000 23.000000 226.000000 255.000000
vn 1.055118 1.897638 0.228346
vn 0.000000 0.992126 0.023622
vn 1.062992 0.181102 1.779528
f 122/520/382 124/521/383 125/522/384
#fvcolorindex 78 63 80 
usemtl m27EnvMappingTexScaleS0.031250TexScaleT0.031250
vt 0.000000 0.000000 0.0
vt 0.000000 0.000000 0.0
vt 0.000000 0.000000 0.0
v -31.829445 -1.099850 -41.079071
#joint 33
#vjoint 126
v -32.829445 -2.099850 -54.079071
#joint 33
#vjoint 127
#vcolor 213.000000 138.000000 248.000000 255.000000
v -7.829444 -6.099850 -37.079071
#joint 33
#vjoint 128
#vcolor 19.000000 131.000000 8.000000 255.000000
vn 0.070866 1.023622 0.055118
vn 1.677165 1.086614 1.952756
vn 0.149606 1.031496 0.062992
f 126/523/385 127/524/386 128/525/387
#fvcolorindex 31 81 82 
usemtl m53EnvMappingTexScaleS0.031250TexScaleT0.031250
vt 0.000000 0.000000 0.0
vt 0.000000 0.000000 0.0
vt 0.000000 0.000000 0.0
v -7.829444 -5.099850 -79.079071
#joint 33
#vjoint 129
#vcolor 239.000000 131.000000 250.000000 255.000000
vn 1.677165 1.086614 1.952756
vn 1.881890 1.031496 1.968504
vn 0.149606 1.031496 0.062992
f 127/526/388 129/527/389 128/528/390
#fvcolorindex 81 83 82 
usemtl m54EnvMappingTexScaleS0.031250TexScaleT0.031250
vt 0.000000 0.000000 0.0
vt 0.000000 0.000000 0.0
vt 0.000000 0.000000 0.0
v -5.829444 13.900150 -219.079071
#joint 33
#vjoint 130
#vcolor 225.000000 176.000000 164.000000 255.000000
vn 0.000000 0.992126 0.023622
vn 1.771654 1.385827 1.291339
vn 1.062992 0.181102 1.779528
f 124/529/391 130/530/392 125/531/393
#fvcolorindex 63 84 80 
usemtl m55EnvMappingTexScaleS0.031250TexScaleT0.031250
vt 0.000000 0.000000 0.0
vt 0.000000 0.000000 0.0
vt 0.000000 0.000000 0.0
v -37.829445 14.900150 -160.079071
#joint 33
#vjoint 131
vn 1.472441 1.944882 1.181102
vn 0.700787 1.960630 0.700787
vn 1.062992 0.181102 1.779528
f 121/532/394 89/533/395 131/534/396
#fvcolorindex 77 53 80 
usemtl m56EnvMappingTexScaleS0.031250TexScaleT0.031250
vt 0.000000 0.000000 0.0
vt 0.000000 0.000000 0.0
vt 0.000000 0.000000 0.0
v -42.829445 4.900150 -54.079071
#joint 33
#vjoint 132
#vcolor 140.000000 15.000000 209.000000 255.000000
vn 1.102362 0.118110 1.645669
vn 1.677165 1.086614 1.952756
vn 0.070866 1.023622 0.055118
f 132/535/397 127/536/398 126/537/399
#fvcolorindex 85 81 31 
vt 0.000000 0.000000 0.0
vt 0.000000 0.000000 0.0
vt 0.000000 0.000000 0.0
v -42.829445 3.900150 -28.079071
#joint 33
#vjoint 133
vn 1.102362 0.118110 1.645669
vn 0.070866 1.023622 0.055118
vn 0.181102 1.039370 0.078740
f 132/538/400 126/539/401 133/540/402
#fvcolorindex 85 31 26 
usemtl m57EnvMappingTexScaleS0.031250TexScaleT0.031250
vt 0.000000 0.000000 0.0
vt 0.000000 0.000000 0.0
vt 0.000000 0.000000 0.0
vn 0.181102 1.039370 0.078740
vn 0.070866 1.023622 0.055118
vn 0.149606 1.031496 0.062992
f 133/541/403 126/542/404 128/543/405
#fvcolorindex 26 31 82 
vt 0.000000 0.000000 0.0
vt 0.000000 0.000000 0.0
vt 0.000000 0.000000 0.0
v -7.829444 2.900150 10.920929
#joint 33
#vjoint 134
vn 0.181102 1.039370 0.078740
vn 0.149606 1.031496 0.062992
vn 1.968504 1.543307 0.874016
f 133/544/406 128/545/407 134/546/408
#fvcolorindex 26 82 52 
usemtl m58EnvMappingTexScaleS0.031250TexScaleT0.031250
vt 0.000000 0.000000 0.0
vt 0.000000 0.000000 0.0
vt 0.000000 0.000000 0.0
vn 1.968504 1.543307 0.874016
vn 1.102362 0.118110 1.645669
vn 0.181102 1.039370 0.078740
f 134/547/409 132/548/410 133/549/411
#fvcolorindex 52 85 26 
vt 0.000000 0.000000 0.0
vt 0.000000 0.000000 0.0
vt 0.000000 0.000000 0.0
v -13.829444 4.900150 -79.079071
#joint 33
#vjoint 135
vn 1.968504 1.543307 0.874016
vn 1.133858 0.188976 0.425197
vn 1.102362 0.118110 1.645669
f 134/550/412 135/551/413 132/552/414
#fvcolorindex 52 79 85 
usemtl m56EnvMappingTexScaleS0.031250TexScaleT0.031250
vt 0.000000 0.000000 0.0
vt 0.000000 0.000000 0.0
vt 0.000000 0.000000 0.0
v -29.829445 5.900150 -83.079071
#joint 33
#vjoint 136
#vcolor 153.000000 6.000000 73.000000 255.000000
vn 1.102362 0.118110 1.645669
vn 1.133858 0.188976 0.425197
vn 1.204724 0.047244 0.574803
f 132/553/415 135/554/416 136/555/417
#fvcolorindex 85 79 86 
usemtl m59EnvMappingTexScaleS0.031250TexScaleT0.031250
vt 0.000000 0.000000 0.0
vt 0.000000 0.000000 0.0
vt 0.000000 0.000000 0.0
v -33.829445 4.900150 -98.079071
#joint 33
#vjoint 137
v -37.829445 9.900150 -160.079071
#joint 33
#vjoint 138
vn 1.881890 1.031496 1.968504
vn 1.055118 1.897638 0.228346
vn 1.062992 0.181102 1.779528
f 129/556/418 137/557/419 138/558/420
#fvcolorindex 83 78 80 
vt 0.000000 0.000000 0.0
vt 0.000000 0.000000 0.0
vt 0.000000 0.000000 0.0
v -7.829444 -1.099850 -213.079071
#joint 33
#vjoint 139
#vcolor 225.000000 148.000000 199.000000 255.000000
vn 1.881890 1.031496 1.968504
vn 1.062992 0.181102 1.779528
vn 1.771654 1.165354 1.566929
f 129/559/421 138/560/422 139/561/423
#fvcolorindex 83 80 87 
vt 0.000000 0.000000 0.0
vt 0.000000 0.000000 0.0
vt 0.000000 0.000000 0.0
vn 1.881890 1.031496 1.968504
vn 1.204724 0.047244 0.574803
vn 1.055118 1.897638 0.228346
f 129/562/424 136/563/425 137/564/426
#fvcolorindex 83 86 78 
usemtl m60EnvMappingTexScaleS0.031250TexScaleT0.031250
vt 0.000000 0.000000 0.0
vt 0.000000 0.000000 0.0
vt 0.000000 0.000000 0.0
vn 1.062992 0.181102 1.779528
vn 1.771654 1.385827 1.291339
vn 1.771654 1.165354 1.566929
f 138/565/427 130/566/428 139/567/429
#fvcolorindex 80 84 87 
usemtl m56EnvMappingTexScaleS0.031250TexScaleT0.031250
vt 0.000000 0.000000 0.0
vt 0.000000 0.000000 0.0
vt 0.000000 0.000000 0.0
v -13.829444 12.900150 -78.079071
#joint 33
#vjoint 140
vn 1.102362 0.118110 1.645669
vn 1.133858 0.188976 0.425197
vn 1.968504 1.543307 0.874016
f 44/568/430 140/569/431 46/570/432
#fvcolorindex 85 79 52 
usemtl m24EnvMappingTexScaleS0.031250TexScaleT0.031250
vt 0.000000 0.000000 0.0
vt 0.000000 0.000000 0.0
vt 0.000000 0.000000 0.0
vn 0.354331 0.913386 0.165354
vn 1.102362 0.118110 1.645669
vn 1.968504 1.543307 0.874016
f 45/571/433 44/572/434 46/573/435
#fvcolorindex 27 85 52 
usemtl m60EnvMappingTexScaleS0.031250TexScaleT0.031250
vt 0.000000 0.000000 0.0
vt 0.000000 0.000000 0.0
vt 0.000000 0.000000 0.0
vn 1.062992 0.181102 1.779528
vn 0.700787 1.960630 0.700787
vn 1.133858 0.188976 0.425197
f 131/574/436 89/575/437 140/576/438
#fvcolorindex 80 53 79 
vt 0.000000 0.000000 0.0
vt 0.000000 0.000000 0.0
vt 0.000000 0.000000 0.0
v -22.829445 12.900150 -87.079071
#joint 33
#vjoint 141
#vcolor 177.000000 196.000000 78.000000 255.000000
vn 1.062992 0.181102 1.779528
vn 1.133858 0.188976 0.425197
vn 1.393701 1.543307 0.614173
f 131/577/439 140/578/440 141/579/441
#fvcolorindex 80 79 88 
vt 0.000000 0.000000 0.0
vt 0.000000 0.000000 0.0
vt 0.000000 0.000000 0.0
v -33.829445 12.900150 -98.079071
#joint 33
#vjoint 142
vn 1.062992 0.181102 1.779528
vn 1.393701 1.543307 0.614173
vn 1.055118 1.897638 0.228346
f 131/580/442 141/581/443 142/582/444
#fvcolorindex 80 88 78 
usemtl m59EnvMappingTexScaleS0.031250TexScaleT0.031250
vt 0.000000 0.000000 0.0
vt 0.000000 0.000000 0.0
vt 0.000000 0.000000 0.0
vn 1.881890 1.031496 1.968504
vn 1.677165 1.086614 1.952756
vn 1.102362 0.118110 1.645669
f 129/583/445 127/584/446 132/585/447
#fvcolorindex 83 81 85 
vt 0.000000 0.000000 0.0
vt 0.000000 0.000000 0.0
vt 0.000000 0.000000 0.0
vn 1.881890 1.031496 1.968504
vn 1.102362 0.118110 1.645669
vn 1.204724 0.047244 0.574803
f 129/586/448 132/587/449 136/588/450
#fvcolorindex 83 85 86 
usemtl m61EnvMappingTexScaleS0.031250TexScaleT0.031250
vt 0.000000 0.000000 0.0
vt 0.000000 0.000000 0.0
vt 0.000000 0.000000 0.0
vn 1.771654 1.385827 1.291339
vn 1.472441 1.944882 1.181102
vn 1.472441 1.944882 1.181102
f 130/589/451 121/590/452 114/591/453
#fvcolorindex 84 77 77 
vt 0.000000 0.000000 0.0
vt 0.000000 0.000000 0.0
vt 0.000000 0.000000 0.0
vn 1.771654 1.385827 1.291339
vn 1.771654 1.385827 1.291339
vn 1.771654 1.385827 1.291339
f 130/592/454 117/593/455 116/594/456
#fvcolorindex 84 84 84 
vt 0.000000 0.000000 0.0
vt 0.000000 0.000000 0.0
vt 0.000000 0.000000 0.0
v -5.829444 9.900150 -217.079071
#joint 33
#vjoint 143
vn 1.771654 1.385827 1.291339
vn 1.771654 1.385827 1.291339
vn 1.771654 1.385827 1.291339
f 130/595/457 116/596/458 143/597/459
#fvcolorindex 84 84 84 
usemtl m58EnvMappingTexScaleS0.031250TexScaleT0.031250
vt 0.000000 0.000000 0.0
vt 0.000000 0.000000 0.0
vt 0.000000 0.000000 0.0
vn 1.968504 1.543307 0.874016
vn 0.149606 1.031496 0.062992
vn 1.881890 1.031496 1.968504
f 134/598/460 128/599/461 129/600/462
#fvcolorindex 52 82 83 
vt 0.000000 0.000000 0.0
vt 0.000000 0.000000 0.0
vt 0.000000 0.000000 0.0
vn 1.968504 1.543307 0.874016
vn 1.881890 1.031496 1.968504
vn 1.771654 1.165354 1.566929
f 134/601/463 129/602/464 139/603/465
#fvcolorindex 52 83 87 
vt 0.000000 0.000000 0.0
vt 0.000000 0.000000 0.0
vt 0.000000 0.000000 0.0
vn 1.968504 1.543307 0.874016
vn 1.771654 1.165354 1.566929
vn 1.771654 1.385827 1.291339
f 134/604/466 139/605/467 143/606/468
#fvcolorindex 52 87 84 
usemtl m61EnvMappingTexScaleS0.031250TexScaleT0.031250
vt 0.000000 0.000000 0.0
vt 0.000000 0.000000 0.0
vt 0.000000 0.000000 0.0
vn 1.771654 1.385827 1.291339
vn 1.771654 1.385827 1.291339
vn 0.000000 1.023622 1.992126
f 143/607/469 116/608/470 119/609/471
#fvcolorindex 84 84 74 
vt 0.000000 0.000000 0.0
vt 0.000000 0.000000 0.0
vt 0.000000 0.000000 0.0
#vcolor 15.000000 77.000000 99.000000 255.000000
vn 1.771654 1.385827 1.291339
vn 0.000000 1.023622 1.992126
vn 0.118110 0.606299 0.779528
f 143/610/472 119/611/473 118/612/474
#fvcolorindex 84 74 89 
vt 0.000000 0.000000 0.0
vt 0.000000 0.000000 0.0
vt 0.000000 0.000000 0.0
vn 1.771654 1.385827 1.291339
vn 0.118110 0.606299 0.779528
vn 1.968504 1.543307 0.874016
f 143/613/475 118/614/476 134/615/477
#fvcolorindex 84 89 52 
usemtl m62EnvMappingTexScaleS0.031250TexScaleT0.031250
vt 0.000000 0.000000 0.0
vt 0.000000 0.000000 0.0
vt 0.000000 0.000000 0.0
v 0.170556 9.900150 -184.079071
#joint 33
#vjoint 144
#vcolor 255.000000 126.000000 4.000000 255.000000
v -4.829444 9.900150 -184.079071
#joint 33
#vjoint 145
v -5.829444 4.900150 -5.079071
#joint 33
#vjoint 146
#vcolor 76.000000 101.000000 3.000000 255.000000
vn 2.007874 0.992126 0.031496
vn 2.007874 0.992126 0.031496
vn 0.598425 0.795276 0.023622
f 144/616/478 145/617/479 146/618/480
#fvcolorindex 90 90 91 
usemtl m63EnvMappingTexScaleS0.031250TexScaleT0.031250
vt 0.000000 0.000000 0.0
vt 0.000000 0.000000 0.0
vt 0.000000 0.000000 0.0
#vcolor 213.000000 119.000000 4.000000 255.000000
vn 1.677165 0.937008 0.031496
vn 2.007874 0.992126 0.031496
vn 0.598425 0.795276 0.023622
f 118/619/481 144/620/482 146/621/483
#fvcolorindex 92 90 91 
usemtl m62EnvMappingTexScaleS0.031250TexScaleT0.031250
vt 0.000000 0.000000 0.0
vt 0.000000 0.000000 0.0
vt 0.000000 0.000000 0.0
v -5.829444 12.900150 -184.079071
#joint 33
#vjoint 147
v -6.829444 6.900150 11.920929
#joint 33
#vjoint 148
#vcolor 108.000000 66.000000 2.000000 255.000000
vn 2.007874 0.992126 0.031496
vn 2.007874 0.992126 0.031496
vn 0.850394 0.519685 0.015748
f 145/622/484 147/623/485 148/624/486
#fvcolorindex 90 90 93 
usemtl m64EnvMappingTexScaleS0.031250TexScaleT0.031250
vt 0.000000 0.000000 0.0
vt 0.000000 0.000000 0.0
vt 0.000000 0.000000 0.0
vn 0.598425 0.795276 0.023622
vn 2.007874 0.992126 0.031496
vn 0.850394 0.519685 0.015748
f 146/625/487 145/626/488 148/627/489
#fvcolorindex 91 90 93 
usemtl m65EnvMappingTexScaleS0.031250TexScaleT0.031250
vt 0.000000 0.000000 0.0
vt 0.000000 0.000000 0.0
vt 0.000000 0.000000 0.0
v 7.170556 6.900150 11.920929
#joint 33
#vjoint 149
#vcolor 148.000000 66.000000 2.000000 255.000000
v 5.170556 9.900150 -184.079071
#joint 33
#vjoint 150
#vcolor 1.000000 126.000000 4.000000 255.000000
v 6.170556 4.900150 -5.079071
#joint 33
#vjoint 151
#vcolor 180.000000 101.000000 3.000000 255.000000
vn 1.165354 0.519685 0.015748
vn 0.007874 0.992126 0.031496
vn 1.417323 0.795276 0.023622
f 149/628/490 150/629/491 151/630/492
#fvcolorindex 94 95 96 
vt 0.000000 0.000000 0.0
vt 0.000000 0.000000 0.0
vt 0.000000 0.000000 0.0
v 6.170556 12.900150 -184.079071
#joint 33
#vjoint 152
vn 1.165354 0.519685 0.015748
vn 0.007874 0.992126 0.031496
vn 0.007874 0.992126 0.031496
f 149/631/493 152/632/494 150/633/495
#fvcolorindex 94 95 95 
usemtl m66EnvMappingTexScaleS0.031250TexScaleT0.031250
vt 0.000000 0.000000 0.0
vt 0.000000 0.000000 0.0
vt 0.000000 0.000000 0.0
#vcolor 43.000000 119.000000 4.000000 255.000000
vn 1.417323 0.795276 0.023622
vn 0.007874 0.992126 0.031496
vn 0.338583 0.937008 0.031496
f 151/634/496 144/635/497 118/636/498
#fvcolorindex 96 95 97 
vt 0.000000 0.000000 0.0
vt 0.000000 0.000000 0.0
vt 0.000000 0.000000 0.0
vn 1.417323 0.795276 0.023622
vn 0.007874 0.992126 0.031496
vn 0.007874 0.992126 0.031496
f 151/637/499 150/638/500 144/639/501
#fvcolorindex 96 95 95 
usemtl m67EnvMappingTexScaleS0.031250TexScaleT0.031250
vt 0.000000 0.000000 0.0
vt 0.000000 0.000000 0.0
vt 0.000000 0.000000 0.0
v -105.730789 6.941979 -73.794449
#joint 40
#vjoint 153
#vcolor 41.000000 4.000000 137.000000 255.000000
v -105.730789 15.941979 -72.794449
#joint 40
#vjoint 154
vn 0.322835 0.031496 1.078740
vn 0.322835 0.031496 1.078740
vn 0.283465 0.811024 1.511811
f 153/640/502 154/641/503 57/642/504
#fvcolorindex 98 98 22 
vt 0.000000 0.000000 0.0
vt 0.000000 0.000000 0.0
vt 0.000000 0.000000 0.0
vn 0.322835 0.031496 1.078740
vn 0.283465 0.811024 1.511811
vn 0.125984 1.149606 1.543307
f 153/643/505 57/644/506 55/645/507
#fvcolorindex 98 22 24 
usemtl m68EnvMappingTexScaleS0.031250TexScaleT0.031250
vt 0.000000 0.000000 0.0
vt 0.000000 0.000000 0.0
vt 0.000000 0.000000 0.0
v -134.730789 7.941979 -89.794449
#joint 40
#vjoint 155
#vcolor 80.000000 35.000000 165.000000 255.000000
v -134.730789 13.941979 -89.794449
#joint 40
#vjoint 156
vn 0.629921 0.275591 1.299213
vn 0.629921 0.275591 1.299213
vn 0.322835 0.031496 1.078740
f 155/646/508 156/647/509 154/648/510
#fvcolorindex 99 99 98 
vt 0.000000 0.000000 0.0
vt 0.000000 0.000000 0.0
vt 0.000000 0.000000 0.0
vn 0.629921 0.275591 1.299213
vn 0.322835 0.031496 1.078740
vn 0.322835 0.031496 1.078740
f 155/649/511 154/650/512 153/651/513
#fvcolorindex 99 98 98 
usemtl m67EnvMappingTexScaleS0.031250TexScaleT0.031250
vt 0.000000 0.000000 0.0
vt 0.000000 0.000000 0.0
vt 0.000000 0.000000 0.0
v -143.730789 7.941979 -82.794449
#joint 40
#vjoint 157
#vcolor 168.000000 254.000000 91.000000 255.000000
vn 0.322835 0.031496 1.078740
vn 1.322835 2.000000 0.716535
vn 0.629921 0.275591 1.299213
f 153/652/514 157/653/515 155/654/516
#fvcolorindex 98 100 99 
usemtl m26EnvMappingTexScaleS0.031250TexScaleT0.031250
vt 0.000000 0.000000 0.0
vt 0.000000 0.000000 0.0
vt 0.000000 0.000000 0.0
vn 1.653543 1.149606 0.330709
vn 1.322835 2.000000 0.716535
vn 0.322835 0.031496 1.078740
f 61/655/517 157/656/518 153/657/519
#fvcolorindex 30 100 98 
vt 0.000000 0.000000 0.0
vt 0.000000 0.000000 0.0
vt 0.000000 0.000000 0.0
vn 1.653543 1.149606 0.330709
vn 0.322835 0.031496 1.078740
vn 0.125984 1.149606 1.543307
f 61/658/520 153/659/521 55/660/522
#fvcolorindex 30 98 24 
usemtl m69EnvMappingTexScaleS0.031250TexScaleT0.031250
vt 0.000000 0.000000 0.0
vt 0.000000 0.000000 0.0
vt 0.000000 0.000000 0.0
v -143.730789 13.941979 -82.794449
#joint 40
#vjoint 158
vn 1.322835 2.000000 0.716535
vn 1.322835 2.000000 0.716535
vn 1.653543 1.149606 0.330709
f 158/661/523 157/662/524 61/663/525
#fvcolorindex 100 100 30 
vt 0.000000 0.000000 0.0
vt 0.000000 0.000000 0.0
vt 0.000000 0.000000 0.0
vn 1.322835 2.000000 0.716535
vn 1.653543 1.149606 0.330709
vn 1.637795 0.826772 0.401575
f 158/664/526 61/665/527 60/666/528
#fvcolorindex 100 30 29 
usemtl m21
vt 0.106445 -1.152344 0.0
vt 0.106445 -1.152344 0.0
vt 0.120117 -1.307617 0.0
v -158.615601 10.907081 -101.726028
#joint 41
#vjoint 159
v -158.615601 13.907081 -101.726028
#joint 41
#vjoint 160
v -161.615601 13.907081 -132.726028
#joint 41
#vjoint 161
f 159/667 160/668 161/669
#fvcolorindex 21 21 21 
vt 0.106445 -1.152344 0.0
vt 0.120117 -1.307617 0.0
vt 0.120117 -1.307617 0.0
v -161.615601 10.907081 -132.726028
#joint 41
#vjoint 162
f 159/670 161/671 162/672
#fvcolorindex 21 21 21 
vt 0.106445 -1.152344 0.0
vt 0.162109 -1.045898 0.0
vt 0.162109 -1.045898 0.0
f 159/673 157/674 158/675
#fvcolorindex 21 21 21 
vt 0.106445 -1.152344 0.0
vt 0.162109 -1.045898 0.0
vt 0.106445 -1.152344 0.0
f 159/676 158/677 160/678
#fvcolorindex 21 21 21 
vt 0.120117 -1.307617 0.0
vt 0.211914 -1.070312 0.0
vt 0.211914 -1.070312 0.0
f 161/679 156/680 155/681
#fvcolorindex 21 21 21 
vt 0.120117 -1.307617 0.0
vt 0.211914 -1.070312 0.0
vt 0.120117 -1.307617 0.0
f 161/682 155/683 162/684
#fvcolorindex 21 21 21 
vt 1.047852 -2.820312 0.0
vt 1.281250 -0.739258 0.0
vt 0.830078 -0.640625 0.0
f 162/685 155/686 157/687
#fvcolorindex 21 21 21 
vt 1.047852 -2.820312 0.0
vt 0.830078 -0.640625 0.0
vt 0.614258 -1.600586 0.0
f 162/688 157/689 159/690
#fvcolorindex 21 21 21 
usemtl m61EnvMappingTexScaleS0.031250TexScaleT0.031250
vt 0.000000 0.000000 0.0
vt 0.000000 0.000000 0.0
vt 0.000000 0.000000 0.0
v -0.328110 10.553761 -134.317841
#joint 43
#vjoint 163
#vcolor 202.000000 3.000000 142.000000 255.000000
vn 1.771654 1.385827 1.291339
vn 1.590551 0.023622 1.118110
vn 1.590551 0.023622 1.118110
f 163/691/529 162/692/530 161/693/531
#fvcolorindex 84 101 101 
vt 0.000000 0.000000 0.0
vt 0.000000 0.000000 0.0
vt 0.000000 0.000000 0.0
v -0.328110 12.553761 -134.317841
#joint 43
#vjoint 164
vn 1.771654 1.385827 1.291339
vn 1.590551 0.023622 1.118110
vn 1.771654 1.385827 1.291339
f 163/694/532 161/695/533 164/696/534
#fvcolorindex 84 101 84 
usemtl m70EnvMappingTexScaleS0.031250TexScaleT0.031250
vt 0.000000 0.000000 0.0
vt 0.000000 0.000000 0.0
vt 0.000000 0.000000 0.0
#vcolor 53.000000 253.000000 115.000000 255.000000
vn 0.417323 1.992126 0.905512
vn 0.417323 1.992126 0.905512
vn 1.771654 1.385827 1.291339
f 161/697/535 162/698/536 163/699/537
#fvcolorindex 102 102 84 
vt 0.000000 0.000000 0.0
vt 0.000000 0.000000 0.0
vt 0.000000 0.000000 0.0
vn 0.417323 1.992126 0.905512
vn 1.771654 1.385827 1.291339
vn 1.771654 1.385827 1.291339
f 161/700/538 163/701/539 164/702/540
#fvcolorindex 102 84 84 
usemtl m71
vt -1.985352 -0.572266 0.0
vt -2.265625 -0.967773 0.0
vt -0.398438 -0.596680 0.0
v 0.170556 25.900150 -218.079071
#joint 33
#vjoint 165
v 0.170556 33.900150 -185.079071
#joint 33
#vjoint 166
f 92/703 165/704 166/705
#fvcolorindex 21 21 21 
vt -1.985352 -0.572266 0.0
vt -0.398438 -0.596680 0.0
vt -0.480469 -0.180664 0.0
f 92/706 166/707 34/708
#fvcolorindex 21 21 21 
vt 1.216797 0.750000 0.0
vt 1.136719 1.791992 0.0
vt -0.076172 1.041992 0.0
f 91/709 114/710 165/711
#fvcolorindex 21 21 21 
vt 1.216797 0.750000 0.0
vt -0.076172 1.041992 0.0
vt 0.000000 0.000000 0.0
f 91/712 165/713 92/714
#fvcolorindex 21 21 21 
vt -0.480469 -0.180664 0.0
vt -0.398438 -0.596680 0.0
vt -2.265625 -0.967773 0.0
f 41/715 166/716 165/717
#fvcolorindex 21 21 21 
vt -0.480469 -0.180664 0.0
vt -2.265625 -0.967773 0.0
vt -1.985352 -0.572266 0.0
f 41/718 165/719 120/720
#fvcolorindex 21 21 21 
vt 0.000000 0.000000 0.0
vt -0.076172 1.041992 0.0
vt 1.136719 1.791992 0.0
f 120/721 165/722 114/723
#fvcolorindex 21 21 21 
vt 0.000000 0.000000 0.0
vt 1.136719 1.791992 0.0
vt 1.216797 0.750000 0.0
f 120/724 114/725 121/726
#fvcolorindex 21 21 21 
vt 0.000000 0.000000 0.0
vt 0.000000 -0.682617 0.0
vt 8.909180 -0.682617 0.0
v 6.170556 9.900150 -231.079071
#joint 33
#vjoint 167
v -5.829444 9.900150 -231.079071
#joint 33
#vjoint 168
v -5.829444 4.900150 -70.079071
#joint 33
#vjoint 169
f 167/727 168/728 169/729
#fvcolorindex 21 21 21 
vt 0.000000 0.000000 0.0
vt 8.909180 -0.682617 0.0
vt 8.909180 0.000000 0.0
v 6.170556 4.900150 -70.079071
#joint 33
#vjoint 170
f 167/730 169/731 170/732
#fvcolorindex 21 21 21 
usemtl m72EnvMappingTexScaleS0.031250TexScaleT0.031250
vt 0.000000 0.000000 0.0
vt 0.000000 0.000000 0.0
vt 0.000000 0.000000 0.0
vn 0.283465 0.826772 1.535433
vn 1.858268 0.976378 0.078740
vn 0.661417 0.732283 1.905512
f 92/733/541 34/734/542 33/735/543
#fvcolorindex 61 55 59 
usemtl m73EnvMappingTexScaleS0.031250TexScaleT0.031250
vt 0.000000 0.000000 0.0
vt 0.000000 0.000000 0.0
vt 0.000000 0.000000 0.0
v 29.170555 9.900150 -82.079071
#joint 33
#vjoint 171
vn 0.960630 1.897638 0.228346
vn 0.960630 1.897638 0.228346
vn 0.811024 0.047244 0.574803
f 110/736/544 96/737/545 171/738/546
#fvcolorindex 65 65 70 
vt 0.000000 0.000000 0.0
vt 0.000000 0.000000 0.0
vt 0.000000 0.000000 0.0
vn 0.960630 1.897638 0.228346
vn 0.811024 0.047244 0.574803
vn 0.811024 0.047244 0.574803
f 110/739/547 171/740/548 107/741/549
#fvcolorindex 65 70 70 
usemtl m74EnvMappingTexScaleS0.031250TexScaleT0.031250
vt 0.000000 0.000000 0.0
vt 0.000000 0.000000 0.0
vt 0.000000 0.000000 0.0
vn 0.881890 0.188976 0.425197
vn 0.811024 0.047244 0.574803
vn 0.960630 1.897638 0.228346
f 95/742/550 171/743/551 96/744/552
#fvcolorindex 64 70 65 
usemtl m75EnvMappingTexScaleS0.031250TexScaleT0.031250
vt 0.000000 0.000000 0.0
vt 0.000000 0.000000 0.0
vt 0.000000 0.000000 0.0
vn 0.811024 0.047244 0.574803
vn 0.811024 0.047244 0.574803
vn 0.881890 0.188976 0.425197
f 107/745/553 171/746/554 95/747/555
#fvcolorindex 70 70 64 
vt 0.000000 0.000000 0.0
vt 0.000000 0.000000 0.0
vt 0.000000 0.000000 0.0
vn 0.811024 0.047244 0.574803
vn 0.881890 0.188976 0.425197
vn 0.881890 0.188976 0.425197
f 107/748/556 95/749/557 106/750/558
#fvcolorindex 70 64 64 
usemtl m74EnvMappingTexScaleS0.031250TexScaleT0.031250
vt 0.000000 0.000000 0.0
vt 0.000000 0.000000 0.0
vt 0.000000 0.000000 0.0
vn 0.881890 0.188976 0.425197
vn 0.881890 0.188976 0.425197
vn 0.047244 1.543307 0.874016
f 106/751/559 95/752/560 105/753/561
#fvcolorindex 64 64 57 
usemtl m76EnvMappingTexScaleS0.031250TexScaleT0.031250
vt 0.000000 0.000000 0.0
vt 0.000000 0.000000 0.0
vt 0.000000 0.000000 0.0
#vcolor 52.000000 115.000000 5.000000 255.000000
vn 0.409449 0.905512 0.039370
vn 0.881890 0.188976 0.425197
vn 0.622047 1.543307 0.614173
f 30/754/562 111/755/563 113/756/564
#fvcolorindex 103 64 72 
vt 0.000000 0.000000 0.0
vt 0.000000 0.000000 0.0
vt 0.000000 0.000000 0.0
v 33.170555 19.900150 -97.079071
#joint 33
#vjoint 172
#vcolor 77.000000 94.000000 35.000000 255.000000
vn 0.409449 0.905512 0.039370
vn 0.622047 1.543307 0.614173
vn 0.606299 0.740157 0.275591
f 30/757/565 113/758/566 172/759/567
#fvcolorindex 103 72 104 
usemtl m77EnvMappingTexScaleS0.031250TexScaleT0.031250
vt 0.000000 0.000000 0.0
vt 0.000000 0.000000 0.0
vt 0.000000 0.000000 0.0
vn 0.622047 1.543307 0.614173
vn 0.960630 1.897638 0.228346
vn 0.606299 0.740157 0.275591
f 113/760/568 112/761/569 172/762/570
#fvcolorindex 72 65 104 
usemtl m78EnvMappingTexScaleS0.031250TexScaleT0.031250
vt 0.000000 0.000000 0.0
vt 0.000000 0.000000 0.0
vt 0.000000 0.000000 0.0
v 37.170555 17.900150 -159.079071
#joint 33
#vjoint 173
vn 0.952756 0.181102 1.779528
vn 0.543307 1.944882 1.181102
vn 0.661417 0.732283 1.905512
f 173/763/571 91/764/572 32/765/573
#fvcolorindex 62 60 59 
vt 0.000000 0.000000 0.0
vt 0.000000 0.000000 0.0
vt 0.000000 0.000000 0.0
vn 0.952756 0.181102 1.779528
vn 0.960630 1.897638 0.228346
vn 0.960630 1.897638 0.228346
f 93/766/574 96/767/575 110/768/576
#fvcolorindex 62 65 65 
vt 0.000000 0.000000 0.0
vt 0.000000 0.000000 0.0
vt 0.000000 0.000000 0.0
vn 0.952756 0.181102 1.779528
vn 0.960630 1.897638 0.228346
vn 0.952756 0.181102 1.779528
f 93/769/577 110/770/578 109/771/579
#fvcolorindex 62 65 62 
vt 0.000000 0.000000 0.0
vt 0.000000 0.000000 0.0
vt 0.000000 0.000000 0.0
vn 0.952756 0.181102 1.779528
vn 0.952756 0.181102 1.779528
vn 0.244094 1.385827 1.291339
f 93/772/580 109/773/581 101/774/582
#fvcolorindex 62 62 47 
vt 0.000000 0.000000 0.0
vt 0.000000 0.000000 0.0
vt 0.000000 0.000000 0.0
vn 0.952756 0.181102 1.779528
vn 0.606299 0.740157 0.275591
vn 0.960630 1.897638 0.228346
f 173/775/583 172/776/584 112/777/585
#fvcolorindex 62 104 65 
vt 0.000000 0.000000 0.0
vt 0.000000 0.000000 0.0
vt 0.000000 0.000000 0.0
vn 0.952756 0.181102 1.779528
vn 0.960630 1.897638 0.228346
vn 0.952756 0.181102 1.779528
f 173/778/586 112/779/587 102/780/588
#fvcolorindex 62 65 62 
vt 0.000000 0.000000 0.0
vt 0.000000 0.000000 0.0
vt 0.000000 0.000000 0.0
vn 0.952756 0.181102 1.779528
vn 0.952756 0.181102 1.779528
vn 0.543307 1.944882 1.181102
f 173/781/589 102/782/590 91/783/591
#fvcolorindex 62 62 60 
usemtl m79EnvMappingTexScaleS0.031250TexScaleT0.031250
vt 0.000000 0.000000 0.0
vt 0.000000 0.000000 0.0
vt 0.000000 0.000000 0.0
#vcolor 179.000000 80.000000 59.000000 255.000000
vn 1.409449 0.629921 0.464567
vn 1.897638 0.606299 0.779528
vn 0.047244 1.543307 0.874016
f 151/784/592 118/785/593 105/786/594
#fvcolorindex 105 73 57 
vt 0.000000 0.000000 0.0
vt 0.000000 0.000000 0.0
vt 0.000000 0.000000 0.0
vn 1.409449 0.629921 0.464567
vn 0.047244 1.543307 0.874016
vn 0.047244 1.543307 0.874016
f 151/787/595 105/788/596 149/789/597
#fvcolorindex 105 57 57 
usemtl m74EnvMappingTexScaleS0.031250TexScaleT0.031250
vt 0.000000 0.000000 0.0
vt 0.000000 0.000000 0.0
vt 0.000000 0.000000 0.0
vn 0.881890 0.188976 0.425197
vn 0.047244 1.543307 0.874016
vn 0.047244 1.543307 0.874016
f 95/790/598 149/791/599 105/792/600
#fvcolorindex 64 57 57 
vt 0.000000 0.000000 0.0
vt 0.000000 0.000000 0.0
vt 0.000000 0.000000 0.0
vn 0.881890 0.188976 0.425197
vn 0.409449 0.905512 0.039370
vn 0.913386 0.118110 1.645669
f 111/793/601 30/794/602 29/795/603
#fvcolorindex 64 103 69 
usemtl m80EnvMappingTexScaleS0.031250TexScaleT0.031250
vt 0.000000 0.000000 0.0
vt 0.000000 0.000000 0.0
vt 0.000000 0.000000 0.0
vn 0.047244 1.543307 0.874016
vn 0.881890 0.188976 0.425197
vn 0.000000 0.992126 0.023622
f 149/796/604 95/797/605 94/798/606
#fvcolorindex 57 64 63 
vt 0.000000 0.000000 0.0
vt 0.000000 0.000000 0.0
vt 0.000000 0.000000 0.0
vn 0.047244 1.543307 0.874016
vn 0.000000 0.992126 0.023622
vn 0.244094 1.385827 1.291339
f 149/799/607 94/800/608 101/801/609
#fvcolorindex 57 63 47 
usemtl m81EnvMappingTexScaleS0.031250TexScaleT0.031250
vt 0.000000 0.000000 0.0
vt 0.000000 0.000000 0.0
vt 0.000000 0.000000 0.0
v 0.170556 15.900150 -185.079071
#joint 33
#vjoint 174
vn 1.858268 0.976378 0.078740
vn 1.858268 0.976378 0.078740
vn 1.314961 1.960630 0.700787
f 34/802/610 166/803/611 174/804/612
#fvcolorindex 55 55 56 
vt 0.000000 0.000000 0.0
vt 0.000000 0.000000 0.0
vt 0.000000 0.000000 0.0
vn 1.858268 0.976378 0.078740
vn 1.314961 1.960630 0.700787
vn 1.314961 1.960630 0.700787
f 34/805/613 174/806/614 90/807/615
#fvcolorindex 55 56 56 
usemtl m82EnvMappingTexScaleS0.031250TexScaleT0.031250
vt 0.000000 0.000000 0.0
vt 0.000000 0.000000 0.0
vt 0.000000 0.000000 0.0
vn 0.244094 1.385827 1.291339
vn 0.244094 1.385827 1.291339
vn 0.543307 1.944882 1.181102
f 101/808/616 117/809/617 114/810/618
#fvcolorindex 47 47 60 
usemtl m83EnvMappingTexScaleS0.031250TexScaleT0.031250
vt 0.000000 0.000000 0.0
vt 0.000000 0.000000 0.0
vt 0.000000 0.000000 0.0
vn 1.314961 1.960630 0.700787
vn 0.881890 0.188976 0.425197
vn 0.047244 1.543307 0.874016
f 90/811/619 111/812/620 37/813/621
#fvcolorindex 56 64 57 
usemtl m84EnvMappingTexScaleS0.031250TexScaleT0.031250
vt 0.000000 0.000000 0.0
vt 0.000000 0.000000 0.0
vt 0.000000 0.000000 0.0
vn 1.354331 0.732283 1.905512
vn 0.157480 0.976378 0.078740
vn 1.732283 0.826772 1.535433
f 42/814/622 41/815/623 120/816/624
#fvcolorindex 75 54 76 
usemtl m85EnvMappingTexScaleS0.031250TexScaleT0.031250
vt 0.000000 0.000000 0.0
vt 0.000000 0.000000 0.0
vt 0.000000 0.000000 0.0
v -29.829445 9.900150 -82.079071
#joint 33
#vjoint 175
vn 1.204724 0.047244 0.574803
vn 1.204724 0.047244 0.574803
vn 1.055118 1.897638 0.228346
f 136/817/625 175/818/626 122/819/627
#fvcolorindex 86 86 78 
vt 0.000000 0.000000 0.0
vt 0.000000 0.000000 0.0
vt 0.000000 0.000000 0.0
vn 1.204724 0.047244 0.574803
vn 1.055118 1.897638 0.228346
vn 1.055118 1.897638 0.228346
f 136/820/628 122/821/629 137/822/630
#fvcolorindex 86 78 78 
usemtl m86EnvMappingTexScaleS0.031250TexScaleT0.031250
vt 0.000000 0.000000 0.0
vt 0.000000 0.000000 0.0
vt 0.000000 0.000000 0.0
vn 1.055118 1.897638 0.228346
vn 1.204724 0.047244 0.574803
vn 1.133858 0.188976 0.425197
f 122/823/631 175/824/632 123/825/633
#fvcolorindex 78 86 79 
usemtl m87EnvMappingTexScaleS0.031250TexScaleT0.031250
vt 0.000000 0.000000 0.0
vt 0.000000 0.000000 0.0
vt 0.000000 0.000000 0.0
vn 1.133858 0.188976 0.425197
vn 1.133858 0.188976 0.425197
vn 1.204724 0.047244 0.574803
f 135/826/634 123/827/635 175/828/636
#fvcolorindex 79 79 86 
vt 0.000000 0.000000 0.0
vt 0.000000 0.000000 0.0
vt 0.000000 0.000000 0.0
vn 1.133858 0.188976 0.425197
vn 1.204724 0.047244 0.574803
vn 1.204724 0.047244 0.574803
f 135/829/637 175/830/638 136/831/639
#fvcolorindex 79 86 86 
usemtl m88EnvMappingTexScaleS0.031250TexScaleT0.031250
vt 0.000000 0.000000 0.0
vt 0.000000 0.000000 0.0
vt 0.000000 0.000000 0.0
vn 1.968504 1.543307 0.874016
vn 1.133858 0.188976 0.425197
vn 1.133858 0.188976 0.425197
f 134/832/640 123/833/641 135/834/642
#fvcolorindex 52 79 79 
usemtl m89EnvMappingTexScaleS0.031250TexScaleT0.031250
vt 0.000000 0.000000 0.0
vt 0.000000 0.000000 0.0
vt 0.000000 0.000000 0.0
v -33.829445 19.900150 -97.079071
#joint 33
#vjoint 176
#vcolor 179.000000 94.000000 35.000000 255.000000
vn 1.409449 0.740157 0.275591
vn 1.393701 1.543307 0.614173
vn 1.133858 0.188976 0.425197
f 176/835/643 141/836/644 140/837/645
#fvcolorindex 106 88 79 
vt 0.000000 0.000000 0.0
vt 0.000000 0.000000 0.0
vt 0.000000 0.000000 0.0
#vcolor 204.000000 115.000000 5.000000 255.000000
vn 1.409449 0.740157 0.275591
vn 1.133858 0.188976 0.425197
vn 1.606299 0.905512 0.039370
f 176/838/646 140/839/647 38/840/648
#fvcolorindex 106 79 107 
vt 0.000000 0.000000 0.0
vt 0.000000 0.000000 0.0
vt 0.000000 0.000000 0.0
vn 1.409449 0.740157 0.275591
vn 1.055118 1.897638 0.228346
vn 1.393701 1.543307 0.614173
f 176/841/649 142/842/650 141/843/651
#fvcolorindex 106 78 88 
usemtl m84EnvMappingTexScaleS0.031250TexScaleT0.031250
vt 0.000000 0.000000 0.0
vt 0.000000 0.000000 0.0
vt 0.000000 0.000000 0.0
v -37.829445 17.900150 -159.079071
#joint 33
#vjoint 177
vn 1.354331 0.732283 1.905512
vn 1.472441 1.944882 1.181102
vn 1.062992 0.181102 1.779528
f 43/844/652 121/845/653 177/846/654
#fvcolorindex 75 77 80 
usemtl m90EnvMappingTexScaleS0.031250TexScaleT0.031250
vt 0.000000 0.000000 0.0
vt 0.000000 0.000000 0.0
vt 0.000000 0.000000 0.0
vn 1.062992 0.181102 1.779528
vn 1.055118 1.897638 0.228346
vn 1.055118 1.897638 0.228346
f 138/847/655 137/848/656 122/849/657
#fvcolorindex 80 78 78 
vt 0.000000 0.000000 0.0
vt 0.000000 0.000000 0.0
vt 0.000000 0.000000 0.0
vn 1.062992 0.181102 1.779528
vn 1.055118 1.897638 0.228346
vn 1.062992 0.181102 1.779528
f 138/850/658 122/851/659 125/852/660
#fvcolorindex 80 78 80 
usemtl m91EnvMappingTexScaleS0.031250TexScaleT0.031250
vt 0.000000 0.000000 0.0
vt 0.000000 0.000000 0.0
vt 0.000000 0.000000 0.0
vn 1.771654 1.385827 1.291339
vn 1.062992 0.181102 1.779528
vn 1.062992 0.181102 1.779528
f 130/853/661 138/854/662 125/855/663
#fvcolorindex 84 80 80 
usemtl m90EnvMappingTexScaleS0.031250TexScaleT0.031250
vt 0.000000 0.000000 0.0
vt 0.000000 0.000000 0.0
vt 0.000000 0.000000 0.0
vn 1.062992 0.181102 1.779528
vn 1.055118 1.897638 0.228346
vn 1.409449 0.740157 0.275591
f 131/856/664 142/857/665 176/858/666
#fvcolorindex 80 78 106 
vt 0.000000 0.000000 0.0
vt 0.000000 0.000000 0.0
vt 0.000000 0.000000 0.0
vn 1.062992 0.181102 1.779528
vn 1.409449 0.740157 0.275591
vn 1.062992 0.181102 1.779528
f 131/859/667 176/860/668 177/861/669
#fvcolorindex 80 106 80 
usemtl m92EnvMappingTexScaleS0.031250TexScaleT0.031250
vt 0.000000 0.000000 0.0
vt 0.000000 0.000000 0.0
vt 0.000000 0.000000 0.0
vn 1.472441 1.944882 1.181102
vn 1.062992 0.181102 1.779528
vn 1.062992 0.181102 1.779528
f 121/862/670 131/863/671 177/864/672
#fvcolorindex 77 80 80 
usemtl m88EnvMappingTexScaleS0.031250TexScaleT0.031250
vt 0.000000 0.000000 0.0
vt 0.000000 0.000000 0.0
vt 0.000000 0.000000 0.0
vn 1.968504 1.543307 0.874016
vn 1.968504 1.543307 0.874016
vn 0.118110 0.606299 0.779528
f 148/865/673 134/866/674 118/867/675
#fvcolorindex 52 52 89 
vt 0.000000 0.000000 0.0
vt 0.000000 0.000000 0.0
vt 0.000000 0.000000 0.0
#vcolor 77.000000 80.000000 59.000000 255.000000
vn 1.968504 1.543307 0.874016
vn 0.118110 0.606299 0.779528
vn 0.606299 0.629921 0.464567
f 148/868/676 118/869/677 146/870/678
#fvcolorindex 52 89 108 
vt 0.000000 0.000000 0.0
vt 0.000000 0.000000 0.0
vt 0.000000 0.000000 0.0
vn 1.968504 1.543307 0.874016
vn 1.968504 1.543307 0.874016
vn 1.133858 0.188976 0.425197
f 134/871/679 148/872/680 123/873/681
#fvcolorindex 52 52 79 
usemtl m93EnvMappingTexScaleS0.031250TexScaleT0.031250
vt 0.000000 0.000000 0.0
vt 0.000000 0.000000 0.0
vt 0.000000 0.000000 0.0
vn 1.102362 0.118110 1.645669
vn 1.606299 0.905512 0.039370
vn 1.133858 0.188976 0.425197
f 44/874/682 38/875/683 140/876/684
#fvcolorindex 85 107 79 
usemtl m91EnvMappingTexScaleS0.031250TexScaleT0.031250
vt 0.000000 0.000000 0.0
vt 0.000000 0.000000 0.0
vt 0.000000 0.000000 0.0
vn 1.771654 1.385827 1.291339
vn 0.000000 0.992126 0.023622
vn 1.133858 0.188976 0.425197
f 130/877/685 124/878/686 123/879/687
#fvcolorindex 84 63 79 
vt 0.000000 0.000000 0.0
vt 0.000000 0.000000 0.0
vt 0.000000 0.000000 0.0
vn 1.771654 1.385827 1.291339
vn 1.133858 0.188976 0.425197
vn 1.968504 1.543307 0.874016
f 130/880/688 123/881/689 148/882/690
#fvcolorindex 84 79 52 
usemtl m94EnvMappingTexScaleS0.031250TexScaleT0.031250
vt 0.000000 0.000000 0.0
vt 0.000000 0.000000 0.0
vt 0.000000 0.000000 0.0
vn 0.700787 1.960630 0.700787
vn 0.700787 1.960630 0.700787
vn 0.157480 0.976378 0.078740
f 89/883/691 174/884/692 166/885/693
#fvcolorindex 53 53 54 
vt 0.000000 0.000000 0.0
vt 0.000000 0.000000 0.0
vt 0.000000 0.000000 0.0
vn 0.700787 1.960630 0.700787
vn 0.157480 0.976378 0.078740
vn 0.157480 0.976378 0.078740
f 89/886/694 166/887/695 41/888/696
#fvcolorindex 53 54 54 
usemtl m92EnvMappingTexScaleS0.031250TexScaleT0.031250
vt 0.000000 0.000000 0.0
vt 0.000000 0.000000 0.0
vt 0.000000 0.000000 0.0
vn 1.472441 1.944882 1.181102
vn 1.771654 1.385827 1.291339
vn 1.771654 1.385827 1.291339
f 114/889/697 117/890/698 130/891/699
#fvcolorindex 77 84 84 
usemtl m88EnvMappingTexScaleS0.031250TexScaleT0.031250
vt 0.000000 0.000000 0.0
vt 0.000000 0.000000 0.0
vt 0.000000 0.000000 0.0
vn 1.968504 1.543307 0.874016
vn 1.133858 0.188976 0.425197
vn 0.700787 1.960630 0.700787
f 46/892/700 140/893/701 89/894/702
#fvcolorindex 52 79 53 
usemtl m95
vt 5.195312 -0.517578 0.0
vt -1.656250 -0.638672 0.0
vt -0.992188 -0.427734 0.0
f 59/895 57/896 60/897
#fvcolorindex 21 21 21 
vt 5.195312 -0.517578 0.0
vt 2.992188 -0.896484 0.0
vt -1.656250 -0.638672 0.0
f 59/898 53/899 57/900
#fvcolorindex 21 21 21 
vt -0.992188 -0.427734 0.0
vt -1.656250 -0.638672 0.0
vt 5.195312 -0.517578 0.0
f 72/901 65/902 70/903
#fvcolorindex 21 21 21 
vt -1.656250 -0.638672 0.0
vt 2.992188 -0.896484 0.0
vt 5.195312 -0.517578 0.0
f 65/904 68/905 70/906
#fvcolorindex 21 21 21 
vt -2.039062 -0.414062 0.0
vt -1.343750 -0.748047 0.0
vt 3.148438 -0.646484 0.0
f 82/907 79/908 77/909
#fvcolorindex 21 21 21 
vt 7.187500 -0.382812 0.0
vt -2.039062 -0.414062 0.0
vt 3.148438 -0.646484 0.0
f 72/910 82/911 77/912
#fvcolorindex 21 21 21 
vt 7.015625 -0.750000 0.0
vt 7.187500 -0.382812 0.0
vt 3.148438 -0.646484 0.0
f 65/913 72/914 77/915
#fvcolorindex 21 21 21 
vt 1.023438 -0.718750 0.0
vt 1.000000 -0.421875 0.0
vt -1.562500 -0.423828 0.0
f 79/916 82/917 87/918
#fvcolorindex 21 21 21 
vt -2.976562 -0.281250 0.0
vt 1.804688 -0.908203 0.0
vt 0.343750 -0.302734 0.0
f 84/919 79/920 87/921
#fvcolorindex 21 21 21 
vt 3.554688 -1.183594 0.0
vt 0.210938 -0.351562 0.0
vt 18.609375 -0.351562 0.0
f 176/922 38/923 43/924
#fvcolorindex 21 21 21 
vt 18.609375 -0.351562 0.0
vt 0.210938 -0.351562 0.0
vt 3.554688 -1.183594 0.0
f 32/925 30/926 172/927
#fvcolorindex 21 21 21 
vt 3.148438 -0.646484 0.0
vt -1.343750 -0.748047 0.0
vt -2.039062 -0.414062 0.0
f 154/928 156/929 158/930
#fvcolorindex 21 21 21 
vt 3.148438 -0.646484 0.0
vt -2.039062 -0.414062 0.0
vt 7.187500 -0.382812 0.0
f 154/931 158/932 60/933
#fvcolorindex 21 21 21 
vt 3.148438 -0.646484 0.0
vt 7.187500 -0.382812 0.0
vt 7.015625 -0.750000 0.0
f 154/934 60/935 57/936
#fvcolorindex 21 21 21 
vt -1.562500 -0.423828 0.0
vt 1.000000 -0.421875 0.0
vt 1.023438 -0.718750 0.0
f 160/937 158/938 156/939
#fvcolorindex 21 21 21 
vt 0.343750 -0.302734 0.0
vt 1.804688 -0.908203 0.0
vt -2.976562 -0.281250 0.0
f 160/940 156/941 161/942
#fvcolorindex 21 21 21 
usemtl m96
vt 1.906250 0.054688 0.0
vt -3.041016 0.054688 0.0
vt -2.858398 0.478516 0.0
f 176/943 43/944 177/945
#fvcolorindex 21 21 21 
vt -2.858398 0.478516 0.0
vt -3.041016 0.054688 0.0
vt 1.906250 0.054688 0.0
f 173/946 32/947 172/948
#fvcolorindex 21 21 21 
vt 4.115234 0.000000 0.0
vt -2.414062 0.000000 0.0
vt -2.263672 0.556641 0.0
v 7.170556 -8.099850 -74.079071
#joint 33
#vjoint 178
f 167/949 170/950 178/951
#fvcolorindex 21 21 21 
vt 4.115234 0.000000 0.0
vt -2.263672 0.556641 0.0
vt 4.629883 0.556641 0.0
v 7.170556 -3.099850 -244.079071
#joint 33
#vjoint 179
f 167/952 178/953 179/954
#fvcolorindex 21 21 21 
vt 4.629883 0.556641 0.0
vt -2.263672 0.556641 0.0
vt -2.414062 0.000000 0.0
v -6.829444 -3.099850 -244.079071
#joint 33
#vjoint 180
v -6.829444 -8.099850 -74.079071
#joint 33
#vjoint 181
f 180/955 181/956 169/957
#fvcolorindex 21 21 21 
vt 4.629883 0.556641 0.0
vt -2.414062 0.000000 0.0
vt 4.115234 0.000000 0.0
f 180/958 169/959 168/960
#fvcolorindex 21 21 21 
vt 4.629883 0.556641 0.0
vt 4.115234 0.000000 0.0
vt 4.115234 0.000000 0.0
f 180/961 168/962 167/963
#fvcolorindex 21 21 21 
vt 4.629883 0.556641 0.0
vt 4.115234 0.000000 0.0
vt 4.629883 0.556641 0.0
f 180/964 167/965 179/966
#fvcolorindex 21 21 21 
usemtl m97EnvMappingTexScaleS0.000977TexScaleT0.000977
vt 0.000000 0.000000 0.0
vt 0.000000 0.000000 0.0
vt 0.000000 0.000000 0.0
v 0.170556 4.900150 -70.079071
#joint 33
#vjoint 182
#vcolor 0.000000 0.000000 0.000000 255.000000
v 0.170556 -2.099850 -73.079071
#joint 33
#vjoint 183
vn 0.000000 0.000000 0.000000
vn 0.000000 0.000000 0.000000
vn 0.000000 0.000000 0.000000
f 182/967/703 169/968/704 183/969/705
#fvcolorindex 109 109 109 
g Room07
g Room07_primary
usemtl m98
vt 0.000000 0.000000 0.0
vt 0.000000 1.000000 0.0
vt 1.000000 1.000000 0.0
v 63.170555 -50.099850 21.920929
#joint 33
#vjoint 184
#vcolor 255.000000 255.000000 255.000000 255.000000
v 63.170555 -60.099850 20.920929
#joint 33
#vjoint 185
v 63.170555 -60.099850 7.920929
#joint 33
#vjoint 186
f 184/970 185/971 186/972
#fvcolorindex 110 110 110 
vt 0.000000 0.000000 0.0
vt 1.000000 1.000000 0.0
vt 1.000000 0.000000 0.0
v 63.170555 -49.099850 7.920929
#joint 33
#vjoint 187
f 184/973 186/974 187/975
#fvcolorindex 110 110 110 
usemtl m20
vt 0.508789 0.000000 0.0
vt 0.401367 0.513672 0.0
vt 0.099609 0.513672 0.0
v 56.170555 -64.099854 25.920929
#joint 33
#vjoint 188
f 188/976 185/977 184/978
#fvcolorindex 110 110 110 
vt 0.508789 0.000000 0.0
vt 0.099609 0.513672 0.0
vt 0.000000 0.000000 0.0
v 56.170555 -47.099850 26.920929
#joint 33
#vjoint 189
f 188/979 184/980 189/981
#fvcolorindex 110 110 110 
vt 0.484375 -0.048828 0.0
vt 0.374023 0.527344 0.0
vt 0.036133 0.527344 0.0
v 56.170555 -63.099850 2.920929
#joint 33
#vjoint 190
f 190/982 186/983 185/984
#fvcolorindex 110 110 110 
vt 0.484375 -0.048828 0.0
vt 0.036133 0.527344 0.0
vt -0.084961 -0.048828 0.0
f 190/985 185/986 188/987
#fvcolorindex 110 110 110 
vt 0.510742 0.000000 0.0
vt 0.411133 0.501953 0.0
vt 0.108398 0.501953 0.0
v 56.170555 -46.099850 2.920929
#joint 33
#vjoint 191
f 191/988 187/989 186/990
#fvcolorindex 110 110 110 
vt 0.510742 0.000000 0.0
vt 0.108398 0.501953 0.0
vt 0.000000 0.000000 0.0
f 191/991 186/992 190/993
#fvcolorindex 110 110 110 
vt 0.503906 0.078125 0.0
vt 0.377930 0.488281 0.0
vt 0.024414 0.488281 0.0
f 189/994 184/995 187/996
#fvcolorindex 110 110 110 
vt 0.503906 0.078125 0.0
vt 0.024414 0.488281 0.0
vt -0.090820 0.078125 0.0
f 189/997 187/998 191/999
#fvcolorindex 110 110 110 
usemtl m71
vt 8.524414 3.334961 0.0
vt 8.524414 -0.024414 0.0
vt 5.683594 -0.038086 0.0
v -28.829445 -64.099854 25.920929
#joint 33
#vjoint 192
f 192/1000 188/1001 189/1002
#fvcolorindex 110 110 110 
vt 8.524414 3.334961 0.0
vt 5.683594 -0.038086 0.0
vt 5.683594 3.322266 0.0
v -28.829445 -47.099850 26.920929
#joint 33
#vjoint 193
f 192/1003 189/1004 193/1005
#fvcolorindex 110 110 110 
vt 1.446289 3.334961 0.0
vt 1.506836 -0.024414 0.0
vt 2.841797 -0.024414 0.0
v -28.829445 -63.099850 2.920929
#joint 33
#vjoint 194
f 194/1006 190/1007 188/1008
#fvcolorindex 110 110 110 
vt 1.446289 3.334961 0.0
vt 2.841797 -0.024414 0.0
vt 2.841797 3.334961 0.0
f 194/1009 188/1010 192/1011
#fvcolorindex 110 110 110 
vt 0.856445 3.322266 0.0
vt 0.897461 -0.038086 0.0
vt 1.506836 -0.024414 0.0
v -28.829445 -46.099850 2.920929
#joint 33
#vjoint 195
f 195/1012 191/1013 190/1014
#fvcolorindex 110 110 110 
vt 0.856445 3.322266 0.0
vt 1.506836 -0.024414 0.0
vt 1.446289 3.334961 0.0
f 195/1015 190/1016 194/1017
#fvcolorindex 110 110 110 
vt 5.683594 3.322266 0.0
vt 5.683594 -0.038086 0.0
vt 6.581055 -0.038086 0.0
f 193/1018 189/1019 191/1020
#fvcolorindex 110 110 110 
vt 5.683594 3.322266 0.0
vt 6.581055 -0.038086 0.0
vt 6.539062 3.322266 0.0
f 193/1021 191/1022 195/1023
#fvcolorindex 110 110 110 
usemtl m99
vt 0.000000 0.000000 0.0
vt 0.000000 0.000000 0.0
vt 0.000000 0.000000 0.0
v -2.829444 -46.099850 2.920929
#joint 33
#vjoint 196
v -2.829444 -63.099850 2.920929
#joint 33
#vjoint 197
v -2.829444 -64.099854 25.920929
#joint 33
#vjoint 198
f 196/1024 197/1025 198/1026
#fvcolorindex 110 110 110 
vt 0.000000 0.000000 0.0
vt 0.000000 0.000000 0.0
vt 0.000000 0.000000 0.0
v -2.829444 -47.099850 26.920929
#joint 33
#vjoint 199
f 196/1027 198/1028 199/1029
#fvcolorindex 110 110 110 
