# Created by SubDrag and the GoldenEye Setup Editor V4.4
mtllib Gun0019.mtl
#joint 0
#jointposition 0.000000 -20.375574 -74.143860
#joint 1
#jointposition -0.126130 -34.500000 -403.726105
#joint 2
#jointposition 0.000000 -20.375574 -74.143860
#joint 3
#jointposition 28.404760 -54.346611 -32.664295
#joint 4
#jointposition 50.075203 -78.841194 -10.664248
#joint 5
#jointposition 28.643808 -16.714527 20.778549
#joint 6
#jointposition 26.518341 -24.155291 60.154758
#joint 7
#jointposition 24.862719 -25.637974 87.085503
#joint 8
#jointposition 8.820322 -11.296313 21.695198
#joint 9
#jointposition 8.668717 -23.348385 71.418152
#joint 10
#jointposition 7.570724 -26.182207 98.349426
#joint 11
#jointposition -7.449821 -15.536673 21.601517
#joint 12
#jointposition -6.777197 -21.532187 62.353848
#joint 13
#jointposition -6.290760 -23.494061 85.077034
#joint 14
#jointposition -23.590879 -23.057791 21.828247
#joint 15
#jointposition -21.894306 -25.130569 56.929543
#joint 16
#jointposition -20.740978 -24.727604 74.077179
#joint 17
#jointposition 234.474915 -34.500000 -403.725983
#joint 18
#jointposition 234.348785 -20.375599 -74.143890
#joint 19
#jointposition 205.943985 -54.346600 -32.664291
#joint 20
#jointposition 184.273590 -78.841202 -10.664192
#joint 21
#jointposition 205.704987 -16.714600 20.778511
#joint 22
#jointposition 207.830490 -24.155300 60.154812
#joint 23
#jointposition 209.561584 -25.811800 87.094810
#joint 24
#jointposition 225.528473 -11.296299 21.695213
#joint 25
#jointposition 225.680069 -23.348400 71.418114
#joint 26
#jointposition 226.778076 -26.182199 98.349411
#joint 27
#jointposition 241.798599 -15.536699 21.601509
#joint 28
#jointposition 241.125977 -21.532200 62.353809
#joint 29
#jointposition 240.639542 -23.494101 85.077011
#joint 30
#jointposition 257.939697 -23.057798 21.828209
#joint 31
#jointposition 256.243103 -25.130598 56.929508
#joint 32
#jointposition 255.089798 -24.727598 74.077209
#joint 33
#jointposition 0.000000 -90.739983 28.239822
#joint 34
#jointposition 0.000000 0.000000 0.000000
#joint 35
#jointposition 0.000000 0.000000 -103.169266
#joint 36
#jointposition 300.614838 0.000002 -99.999985
#connection 0 1
#connection 1 2
#connection 2 3
#connection 3 4
#connection 2 5
#connection 5 6
#connection 6 7
#connection 2 8
#connection 8 9
#connection 9 10
#connection 2 11
#connection 11 12
#connection 12 13
#connection 2 14
#connection 14 15
#connection 15 16
#connection 2 33
#connection 33 34
#connection 33 35
#connection 0 17
#connection 17 18
#connection 18 19
#connection 19 20
#connection 18 21
#connection 21 22
#connection 22 23
#connection 18 24
#connection 24 25
#connection 25 26
#connection 18 27
#connection 27 28
#connection 28 29
#connection 18 30
#connection 30 31
#connection 31 32
#connection 18 36
g Room01
g Room01_primary
usemtl m0
vt 0.000000 0.000000 0.0
vt -1.058594 0.000000 0.0
vt -1.058594 0.945312 0.0
v 13.000000 -99.739983 0.239822
#joint 33
#vjoint 1
#vcolor 53.000000 53.000000 114.000000 255.000000
v 13.000000 -99.739983 -99.760178
#joint 33
#vjoint 2
#vcolor 211.000000 203.000000 164.000000 255.000000
v 38.000000 -36.739983 -99.760178
#joint 33
#vjoint 3
f 1/1 2/2 3/3
#fvcolorindex 1 2 2 
usemtl m1
vt 6.015625 0.000000 0.0
vt 2.164062 0.000000 0.0
vt 1.009766 -0.997070 0.0
v 13.000000 88.260017 438.239807
#joint 33
#vjoint 4
#vcolor 100.000000 129.000000 184.000000 255.000000
v 25.000000 75.260017 300.239807
#joint 33
#vjoint 5
#vcolor 213.000000 205.000000 165.000000 255.000000
v 0.000000 88.260017 263.239807
#joint 33
#vjoint 6
f 4/4 5/5 6/6
#fvcolorindex 3 4 4 
usemtl m2
vt 0.585938 0.539062 0.0
vt 2.061523 0.000000 0.0
vt 0.000000 0.000000 0.0
v 50.000000 25.260017 150.239822
#joint 33
#vjoint 7
v 38.000000 100.260017 75.239822
#joint 33
#vjoint 8
v 38.000000 63.260017 200.239822
#joint 33
#vjoint 9
f 7/7 8/8 9/9
#fvcolorindex 4 4 1 
usemtl m1
vt -3.834961 0.000000 0.0
vt -0.025391 -1.305664 0.0
vt 0.000000 0.000000 0.0
v 25.000000 38.260017 300.239807
#joint 33
#vjoint 10
f 4/10 10/11 5/12
#fvcolorindex 3 1 3 
usemtl m0
vt 2.795898 -0.118164 0.0
vt 0.000000 0.000000 0.0
vt -0.025391 -1.305664 0.0
f 9/13 5/14 10/15
#fvcolorindex 1 3 1 
vt 1.520508 0.275391 0.0
vt 0.000000 -0.084961 0.0
vt 0.581055 -1.443359 0.0
v 0.000000 0.260017 200.239822
#joint 33
#vjoint 11
f 11/16 9/17 10/18
#fvcolorindex 1 1 1 
vt 1.000000 0.000000 0.0
vt 0.000000 0.000000 0.0
vt 0.369141 0.419922 0.0
f 7/19 9/20 11/21
#fvcolorindex 1 1 1 
vt 0.581055 -1.443359 0.0
vt 0.581055 -1.443359 0.0
vt 1.520508 0.275391 0.0
v -25.000000 38.260017 300.239807
#joint 33
#vjoint 12
f 10/22 12/23 11/24
#fvcolorindex 1 1 1 
vt 1.000000 0.000000 0.0
vt 0.369141 0.419922 0.0
vt 1.000000 0.526367 0.0
v 0.000000 -36.739983 175.239822
#joint 33
#vjoint 13
#vcolor 119.000000 166.000000 255.000000 255.000000
f 7/25 11/26 13/27
#fvcolorindex 1 1 5 
vt 2.002930 0.000000 0.0
vt 2.014648 0.487305 0.0
vt 0.943359 0.487305 0.0
v -12.000000 -99.739983 0.239822
#joint 33
#vjoint 14
v -12.000000 -99.739983 -99.760178
#joint 33
#vjoint 15
f 1/28 14/29 15/30
#fvcolorindex 1 1 1 
vt 2.002930 0.000000 0.0
vt 0.943359 0.487305 0.0
vt 0.931641 0.000000 0.0
f 1/31 15/32 2/33
#fvcolorindex 1 1 1 
usemtl m3
vt -1.058594 0.945312 0.0
vt -1.058594 0.000000 0.0
vt 0.000000 0.000000 0.0
v -37.000000 -36.739983 -99.760178
#joint 33
#vjoint 16
#vcolor 27.000000 27.000000 27.000000 255.000000
f 16/34 15/35 14/36
#fvcolorindex 6 1 1 
usemtl m4
vt 1.000000 0.526367 0.0
vt 0.369141 0.419922 0.0
vt 1.000000 0.000000 0.0
v -50.000000 25.260017 150.239822
#joint 33
#vjoint 17
f 13/37 11/38 17/39
#fvcolorindex 5 1 1 
usemtl m0
vt 0.369141 0.419922 0.0
vt 0.000000 0.000000 0.0
vt 1.000000 0.000000 0.0
v -37.000000 63.260017 200.239822
#joint 33
#vjoint 18
f 11/40 18/41 17/42
#fvcolorindex 1 1 1 
vt -0.025391 -1.305664 0.0
vt 0.000000 0.000000 0.0
vt 2.795898 -0.118164 0.0
v -25.000000 75.260017 300.239807
#joint 33
#vjoint 19
f 12/43 19/44 18/45
#fvcolorindex 1 3 1 
vt 0.581055 -1.443359 0.0
vt 0.000000 -0.084961 0.0
vt 1.520508 0.275391 0.0
f 12/46 18/47 11/48
#fvcolorindex 1 1 1 
vt 0.000000 0.000000 0.0
vt 2.061523 0.000000 0.0
vt 0.585938 0.539062 0.0
v -37.000000 100.260017 75.239822
#joint 33
#vjoint 20
f 18/49 20/50 17/51
#fvcolorindex 1 4 4 
usemtl m1
vt 0.000000 0.000000 0.0
vt -0.025391 -1.305664 0.0
vt -3.834961 0.000000 0.0
v -12.000000 88.260017 438.239807
#joint 33
#vjoint 21
f 19/52 12/53 21/54
#fvcolorindex 3 1 3 
usemtl m2
vt 1.009766 -0.997070 0.0
vt 2.164062 0.000000 0.0
vt 6.015625 0.000000 0.0
f 6/55 19/56 21/57
#fvcolorindex 4 4 3 
usemtl m1
vt -0.855469 0.990234 0.0
vt 0.000000 0.000000 0.0
vt 4.162109 0.000000 0.0
v 0.000000 125.260017 413.239807
#joint 33
#vjoint 22
f 21/58 22/59 6/60
#fvcolorindex 3 4 4 
vt 1.102539 0.989258 0.0
vt 0.000000 0.000000 0.0
vt 2.068359 0.000000 0.0
v 0.000000 88.260017 488.239807
#joint 33
#vjoint 23
f 21/61 23/62 22/63
#fvcolorindex 3 4 4 
vt 0.417969 0.973633 0.0
vt 1.363281 0.951172 0.0
vt 0.906250 0.672852 0.0
v -12.000000 63.260017 433.239807
#joint 33
#vjoint 24
v -9.000000 71.260017 449.239807
#joint 33
#vjoint 25
f 21/64 24/65 25/66
#fvcolorindex 3 1 4 
vt 0.417969 0.973633 0.0
vt 0.906250 0.672852 0.0
vt 0.477539 0.000000 0.0
v 0.000000 75.260017 485.239807
#joint 33
#vjoint 26
f 21/67 25/68 26/69
#fvcolorindex 3 4 4 
vt 0.417969 0.973633 0.0
vt 0.477539 0.000000 0.0
vt 0.000000 0.000000 0.0
f 21/70 26/71 23/72
#fvcolorindex 3 4 4 
usemtl m2
vt 0.000000 0.000000 0.0
vt 0.477539 0.000000 0.0
vt 0.906250 0.672852 0.0
v 9.000000 71.260017 449.239807
#joint 33
#vjoint 27
f 23/73 26/74 27/75
#fvcolorindex 4 4 4 
vt 0.000000 0.000000 0.0
vt 0.906250 0.672852 0.0
vt 1.363281 0.951172 0.0
v 13.000000 63.260017 433.239807
#joint 33
#vjoint 28
f 23/76 27/77 28/78
#fvcolorindex 4 4 1 
vt 0.000000 0.000000 0.0
vt 1.363281 0.951172 0.0
vt 0.417969 0.973633 0.0
f 23/79 28/80 4/81
#fvcolorindex 4 1 3 
vt 2.068359 0.000000 0.0
vt 0.000000 0.000000 0.0
vt 1.102539 0.989258 0.0
f 22/82 23/83 4/84
#fvcolorindex 4 4 3 
vt 4.162109 0.000000 0.0
vt 0.000000 0.000000 0.0
vt -0.855469 0.990234 0.0
f 6/85 22/86 4/87
#fvcolorindex 4 4 3 
usemtl m0
vt 0.143555 0.958984 0.0
vt 0.246094 1.636719 0.0
vt 1.916016 1.636719 0.0
v -12.000000 63.260017 400.239807
#joint 33
#vjoint 29
v -9.000000 71.260017 400.239807
#joint 33
#vjoint 30
v -9.000000 71.260017 448.239807
#joint 33
#vjoint 31
f 29/88 30/89 31/90
#fvcolorindex 1 1 4 
vt 0.143555 0.958984 0.0
vt 1.916016 1.636719 0.0
vt 1.277344 0.958984 0.0
f 29/91 31/92 24/93
#fvcolorindex 1 4 1 
vt 0.143555 0.958984 0.0
vt 1.277344 0.958984 0.0
vt 1.558594 0.000000 0.0
v -9.000000 54.260017 445.239807
#joint 33
#vjoint 32
#vcolor 254.000000 254.000000 254.000000 255.000000
f 29/94 24/95 32/96
#fvcolorindex 1 1 7 
vt 0.143555 0.958984 0.0
vt 1.558594 0.000000 0.0
vt 0.000000 0.000000 0.0
v -9.000000 54.260017 400.239807
#joint 33
#vjoint 33
f 29/97 32/98 33/99
#fvcolorindex 1 7 1 
vt 0.000000 0.000000 0.0
vt 1.558594 0.000000 0.0
vt 2.625000 -0.677734 0.0
v 0.000000 50.260017 479.239807
#joint 33
#vjoint 34
f 33/100 32/101 34/102
#fvcolorindex 1 7 4 
vt 0.000000 0.000000 0.0
vt 2.625000 -0.677734 0.0
vt -0.101562 -0.677734 0.0
v 0.000000 50.260017 400.239807
#joint 33
#vjoint 35
f 33/103 34/104 35/105
#fvcolorindex 1 4 1 
vt -0.000977 -0.707031 0.0
vt 5.237305 -0.707031 0.0
vt 2.995117 0.000000 0.0
v 9.000000 54.260017 445.239807
#joint 33
#vjoint 36
f 35/106 34/107 36/108
#fvcolorindex 1 4 4 
vt -0.000977 -0.707031 0.0
vt 2.995117 0.000000 0.0
vt 0.000000 0.000000 0.0
v 9.000000 54.260017 400.239807
#joint 33
#vjoint 37
f 35/109 36/110 37/111
#fvcolorindex 1 4 1 
vt 0.000000 0.000000 0.0
vt 2.995117 0.000000 0.0
vt 2.179688 1.000000 0.0
f 37/112 36/113 28/114
#fvcolorindex 1 4 1 
vt 0.000000 0.000000 0.0
vt 2.179688 1.000000 0.0
vt 0.001953 1.000000 0.0
v 13.000000 63.260017 400.239807
#joint 33
#vjoint 38
f 37/115 28/116 38/117
#fvcolorindex 1 1 1 
vt 0.001953 1.000000 0.0
vt 2.179688 1.000000 0.0
vt 3.269531 1.707031 0.0
f 38/118 28/119 27/120
#fvcolorindex 1 1 4 
vt 0.001953 1.000000 0.0
vt 3.269531 1.707031 0.0
vt 0.002930 1.707031 0.0
v 9.000000 71.260017 400.239807
#joint 33
#vjoint 39
f 38/121 27/122 39/123
#fvcolorindex 1 4 1 
vt 0.000000 0.000000 0.0
vt 1.564453 0.000000 0.0
vt 2.692383 1.137695 0.0
f 39/124 27/125 26/126
#fvcolorindex 1 4 4 
vt 0.000000 0.000000 0.0
vt 2.692383 1.137695 0.0
vt 0.000000 1.137695 0.0
v 0.000000 75.260017 400.239807
#joint 33
#vjoint 40
f 39/127 26/128 40/129
#fvcolorindex 1 4 1 
vt 0.000000 1.137695 0.0
vt 2.692383 1.137695 0.0
vt 1.537109 1.942383 0.0
f 40/130 26/131 31/132
#fvcolorindex 1 4 4 
vt 0.000000 1.137695 0.0
vt 1.537109 1.942383 0.0
vt 0.000000 1.942383 0.0
f 40/133 31/134 30/135
#fvcolorindex 1 4 1 
usemtl m5
vt 0.000000 0.000000 0.0
vt 0.000000 1.000977 0.0
vt 4.027344 1.000977 0.0
v -12.000000 63.260017 -99.760178
#joint 33
#vjoint 41
#vcolor 165.000000 181.000000 213.000000 255.000000
v -9.000000 71.260017 -99.760178
#joint 33
#vjoint 42
v -9.000000 71.260017 -39.760178
#joint 33
#vjoint 43
#vcolor 0.000000 0.000000 0.000000 255.000000
f 41/136 42/137 43/138
#fvcolorindex 8 8 9 
vt 0.000000 0.000000 0.0
vt 4.027344 1.000977 0.0
vt 4.027344 0.000000 0.0
v -12.000000 63.260017 -39.760178
#joint 33
#vjoint 44
f 41/139 43/140 44/141
#fvcolorindex 8 9 9 
vt 0.000000 1.686523 0.0
vt 3.982422 1.686523 0.0
vt 3.982422 0.988281 0.0
v -9.000000 54.260017 -39.760178
#joint 33
#vjoint 45
f 41/142 44/143 45/144
#fvcolorindex 8 9 9 
vt 0.000000 1.686523 0.0
vt 3.982422 0.988281 0.0
vt 0.000000 0.988281 0.0
v -9.000000 54.260017 -99.760178
#joint 33
#vjoint 46
f 41/145 45/146 46/147
#fvcolorindex 8 9 8 
vt 0.000000 0.988281 0.0
vt 3.982422 0.988281 0.0
vt 3.982422 0.000000 0.0
v 0.000000 50.260017 -39.760178
#joint 33
#vjoint 47
f 46/148 45/149 47/150
#fvcolorindex 8 9 9 
vt 0.000000 0.988281 0.0
vt 3.982422 0.000000 0.0
vt 0.000000 0.000000 0.0
v 0.000000 50.260017 -99.760178
#joint 33
#vjoint 48
f 46/151 47/152 48/153
#fvcolorindex 8 9 8 
vt 0.000000 0.000000 0.0
vt 3.982422 0.000000 0.0
vt 3.982422 -0.698242 0.0
v 9.000000 54.260017 -39.760178
#joint 33
#vjoint 49
f 48/154 47/155 49/156
#fvcolorindex 8 9 9 
vt 0.000000 0.000000 0.0
vt 3.982422 -0.698242 0.0
vt 0.000000 -0.698242 0.0
v 9.000000 54.260017 -99.760178
#joint 33
#vjoint 50
f 48/157 49/158 50/159
#fvcolorindex 8 9 8 
vt 0.000000 0.000000 0.0
vt 4.230469 0.000000 0.0
vt 4.241211 0.998047 0.0
v 13.000000 63.260017 -39.760178
#joint 33
#vjoint 51
f 50/160 49/161 51/162
#fvcolorindex 8 9 9 
vt 0.000000 0.000000 0.0
vt 4.241211 0.998047 0.0
vt 0.011719 0.998047 0.0
v 13.000000 63.260017 -99.760178
#joint 33
#vjoint 52
f 50/163 51/164 52/165
#fvcolorindex 8 9 8 
vt 0.011719 0.998047 0.0
vt 4.241211 0.998047 0.0
vt 4.249023 1.704102 0.0
v 9.000000 71.260017 -39.760178
#joint 33
#vjoint 53
f 52/166 51/167 53/168
#fvcolorindex 8 9 9 
vt 0.011719 0.998047 0.0
vt 4.249023 1.704102 0.0
vt 0.019531 1.704102 0.0
v 9.000000 71.260017 -99.760178
#joint 33
#vjoint 54
f 52/169 53/170 54/171
#fvcolorindex 8 9 8 
vt 0.000000 0.000000 0.0
vt 4.052734 0.000000 0.0
vt 4.041992 1.170898 0.0
v 0.000000 75.260017 -39.760178
#joint 33
#vjoint 55
f 54/172 53/173 55/174
#fvcolorindex 8 9 9 
vt 0.000000 0.000000 0.0
vt 4.041992 1.170898 0.0
vt -0.011719 1.170898 0.0
v 0.000000 75.260017 -99.760178
#joint 33
#vjoint 56
f 54/175 55/176 56/177
#fvcolorindex 8 9 8 
vt -0.011719 1.170898 0.0
vt 4.041992 1.170898 0.0
vt 4.034180 2.000000 0.0
f 56/178 55/179 43/180
#fvcolorindex 8 9 9 
vt -0.011719 1.170898 0.0
vt 4.034180 2.000000 0.0
vt -0.019531 2.000000 0.0
f 56/181 43/182 42/183
#fvcolorindex 8 9 8 
usemtl m6
vt -3.636719 -0.310547 0.0
vt 0.000000 0.000000 0.0
vt 0.033203 1.000000 0.0
v 63.000000 25.260017 0.239822
#joint 33
#vjoint 57
v 38.000000 38.260017 -99.760178
#joint 33
#vjoint 58
v 13.000000 100.260017 -99.760178
#joint 33
#vjoint 59
#vcolor 238.000000 222.000000 138.000000 255.000000
f 57/184 58/185 59/186
#fvcolorindex 1 1 10 
usemtl m7
vt -0.023438 -0.689453 0.0
vt 0.000000 0.000000 0.0
vt -3.636719 -0.310547 0.0
v 100.000000 13.260017 -99.760178
#joint 33
#vjoint 60
f 60/187 58/188 57/189
#fvcolorindex 4 1 1 
usemtl m6
vt 1.601562 0.000000 0.0
vt 4.162109 0.602539 0.0
vt 1.601562 0.748047 0.0
v 63.000000 -36.739983 0.239822
#joint 33
#vjoint 61
f 1/190 3/191 61/192
#fvcolorindex 1 2 1 
usemtl m7
vt 4.298828 0.000000 0.0
vt 0.498047 -1.040039 0.0
vt 5.171875 -0.719727 0.0
v 13.000000 -49.739983 413.239807
#joint 33
#vjoint 62
f 62/193 10/194 4/195
#fvcolorindex 4 1 3 
vt 4.298828 0.000000 0.0
vt 5.171875 -0.719727 0.0
vt 5.013672 -0.588867 0.0
f 62/196 4/197 28/198
#fvcolorindex 4 3 1 
usemtl m6
vt 0.457031 0.000000 0.0
vt 0.498047 -1.040039 0.0
vt 4.298828 0.000000 0.0
v 14.000000 -134.739990 300.239807
#joint 33
#vjoint 63
f 63/199 10/200 62/201
#fvcolorindex 1 1 4 
usemtl m7
vt 0.000000 0.000000 0.0
vt 1.601562 0.748047 0.0
vt -2.242188 1.131836 0.0
v 13.000000 -99.739983 63.239822
#joint 33
#vjoint 64
f 64/202 61/203 7/204
#fvcolorindex 4 1 4 
vt 0.000000 0.000000 0.0
vt 1.601562 0.000000 0.0
vt 1.601562 0.748047 0.0
f 64/205 1/206 61/207
#fvcolorindex 4 1 1 
usemtl m6
vt 1.263672 0.984375 0.0
vt 1.611328 0.000000 0.0
vt 0.000000 0.000000 0.0
v -14.000000 -134.739990 300.239807
#joint 33
#vjoint 65
f 65/208 12/209 10/210
#fvcolorindex 1 1 1 
vt 1.263672 0.984375 0.0
vt 0.000000 0.000000 0.0
vt 0.347656 0.984375 0.0
f 65/211 10/212 63/213
#fvcolorindex 1 1 1 
vt -2.242188 1.131836 0.0
vt -2.242188 0.547852 0.0
vt 0.000000 -0.146484 0.0
v -12.000000 -99.739983 63.239822
#joint 33
#vjoint 66
f 7/214 17/215 66/216
#fvcolorindex 1 1 1 
vt -2.242188 1.131836 0.0
vt 0.000000 -0.146484 0.0
vt 0.000000 0.000000 0.0
f 7/217 66/218 64/219
#fvcolorindex 1 1 1 
vt 1.601562 0.748047 0.0
vt 4.162109 0.602539 0.0
vt 1.601562 0.000000 0.0
v -62.000000 -36.739983 0.239822
#joint 33
#vjoint 67
f 67/220 16/221 14/222
#fvcolorindex 1 6 1 
vt 1.601562 0.748047 0.0
vt 1.601562 0.000000 0.0
vt 0.000000 0.000000 0.0
f 67/223 14/224 66/225
#fvcolorindex 1 1 4 
vt -3.636719 -0.310547 0.0
vt 0.000000 0.000000 0.0
vt -0.023438 -0.689453 0.0
v -62.000000 25.260017 0.239822
#joint 33
#vjoint 68
v -37.000000 38.260017 -99.760178
#joint 33
#vjoint 69
v -100.000000 13.260017 -99.760178
#joint 33
#vjoint 70
f 68/226 69/227 70/228
#fvcolorindex 1 1 4 
usemtl m8
vt 0.033203 1.000000 0.0
vt 0.000000 0.000000 0.0
vt -3.636719 -0.310547 0.0
v -12.000000 100.260017 -99.760178
#joint 33
#vjoint 71
f 71/229 69/230 68/231
#fvcolorindex 10 1 1 
usemtl m7
vt -2.242188 1.131836 0.0
vt 1.601562 0.748047 0.0
vt 0.000000 0.000000 0.0
f 17/232 67/233 66/234
#fvcolorindex 4 1 4 
usemtl m6
vt 5.013672 -0.588867 0.0
vt 5.171875 -0.719727 0.0
vt 0.498047 -1.040039 0.0
f 24/235 21/236 12/237
#fvcolorindex 1 3 1 
vt 5.013672 -0.588867 0.0
vt 0.498047 -1.040039 0.0
vt 4.298828 0.000000 0.0
v -12.000000 -49.739983 413.239807
#joint 33
#vjoint 72
f 24/238 12/239 72/240
#fvcolorindex 1 1 4 
usemtl m7
vt 4.298828 0.000000 0.0
vt 0.498047 -1.040039 0.0
vt 0.457031 0.000000 0.0
f 72/241 12/242 65/243
#fvcolorindex 4 1 1 
usemtl m9MirrorS
vt 0.000000 0.000000 0.0
vt 0.599609 0.996094 0.0
vt 1.000000 0.996094 0.0
v 100.000000 -11.739983 -99.760178
#joint 33
#vjoint 73
f 61/244 73/245 60/246
#fvcolorindex 1 4 4 
vt 0.000000 0.000000 0.0
vt 1.000000 0.996094 0.0
vt 1.000000 0.000000 0.0
f 61/247 60/248 57/249
#fvcolorindex 1 4 1 
vt 0.000000 0.000000 0.0
vt 1.000000 0.000000 0.0
vt 0.625000 1.000000 0.0
f 61/250 3/251 73/252
#fvcolorindex 1 6 2 
vt 0.625000 1.000000 0.0
vt 1.000000 0.000000 0.0
vt 0.000000 0.000000 0.0
v -100.000000 -11.739983 -99.760178
#joint 33
#vjoint 74
f 74/253 16/254 67/255
#fvcolorindex 1 6 1 
vt 1.000000 0.000000 0.0
vt 1.000000 0.996094 0.0
vt 0.599609 0.996094 0.0
f 68/256 70/257 74/258
#fvcolorindex 1 4 4 
vt 1.000000 0.000000 0.0
vt 0.599609 0.996094 0.0
vt 0.000000 0.000000 0.0
f 68/259 74/260 67/261
#fvcolorindex 1 4 1 
usemtl m10
vt 0.000000 1.630859 0.0
vt 0.000000 0.000000 0.0
vt 1.542969 -0.527344 0.0
v 0.000000 100.260017 138.239822
#joint 33
#vjoint 75
v 0.000000 138.260010 25.239822
#joint 33
#vjoint 76
f 75/262 8/263 76/264
#fvcolorindex 3 7 4 
usemtl m11
vt 0.799805 0.852539 0.0
vt 1.380859 0.000000 0.0
vt 1.044922 0.319336 0.0
v 38.000000 113.260017 200.239822
#joint 33
#vjoint 77
#vcolor 119.000000 212.000000 255.000000 255.000000
f 77/265 8/266 75/267
#fvcolorindex 11 7 3 
vt 0.799805 0.852539 0.0
vt 1.044922 0.319336 0.0
vt 0.282227 0.746094 0.0
f 77/268 75/269 6/270
#fvcolorindex 11 3 4 
usemtl m10
vt 0.436523 0.000000 0.0
vt 1.380859 0.000000 0.0
vt 0.799805 0.852539 0.0
f 9/271 8/272 77/273
#fvcolorindex 3 7 11 
usemtl m11
vt 0.799805 0.852539 0.0
vt 0.282227 0.746094 0.0
vt -0.010742 0.724609 0.0
f 77/274 6/275 5/276
#fvcolorindex 11 4 4 
usemtl m10
vt 0.436523 0.000000 0.0
vt 0.799805 0.852539 0.0
vt -0.010742 0.724609 0.0
f 9/277 77/278 5/279
#fvcolorindex 3 11 4 
usemtl m12
vt 1.542969 -0.527344 0.0
vt 0.000000 0.000000 0.0
vt 0.000000 1.630859 0.0
f 76/280 20/281 75/282
#fvcolorindex 4 7 3 
usemtl m11
vt 0.799805 0.852539 0.0
vt 1.380859 0.000000 0.0
vt 0.436523 0.000000 0.0
v -37.000000 113.260017 200.239822
#joint 33
#vjoint 78
f 78/283 20/284 18/285
#fvcolorindex 11 7 3 
usemtl m10
vt 1.044922 0.319336 0.0
vt 1.380859 0.000000 0.0
vt 0.799805 0.852539 0.0
f 75/286 20/287 78/288
#fvcolorindex 3 7 11 
usemtl m12
vt 0.282227 0.746094 0.0
vt 1.044922 0.319336 0.0
vt 0.799805 0.852539 0.0
f 6/289 75/290 78/291
#fvcolorindex 4 3 11 
vt -0.010742 0.724609 0.0
vt 0.799805 0.852539 0.0
vt 0.436523 0.000000 0.0
f 19/292 78/293 18/294
#fvcolorindex 4 11 3 
vt -0.010742 0.724609 0.0
vt 0.282227 0.746094 0.0
vt 0.799805 0.852539 0.0
f 19/295 6/296 78/297
#fvcolorindex 4 4 11 
usemtl m13
vt 2.798828 0.000000 0.0
vt 2.798828 -0.925781 0.0
vt 1.399414 -0.741211 0.0
v 13.000000 -149.739990 50.239822
#joint 33
#vjoint 79
f 1/298 64/299 79/300
#fvcolorindex 1 4 4 
vt 2.798828 0.000000 0.0
vt 1.399414 -0.741211 0.0
vt 1.399414 0.000000 0.0
v 13.000000 -149.739990 0.239822
#joint 33
#vjoint 80
f 1/301 79/302 80/303
#fvcolorindex 1 4 4 
usemtl m14
vt 1.399414 0.000000 0.0
vt 1.399414 -0.741211 0.0
vt 0.000000 -0.741211 0.0
v 13.000000 -199.739990 50.239822
#joint 33
#vjoint 81
f 80/304 79/305 81/306
#fvcolorindex 4 4 4 
vt 1.399414 0.000000 0.0
vt 0.000000 -0.741211 0.0
vt 0.000000 0.000000 0.0
v 13.000000 -199.739990 0.239822
#joint 33
#vjoint 82
f 80/307 81/308 82/309
#fvcolorindex 4 4 4 
usemtl m13
vt 2.798828 -0.925781 0.0
vt 1.399414 -0.741211 0.0
vt 1.399414 -0.741211 0.0
v -12.000000 -149.739990 50.239822
#joint 33
#vjoint 83
f 66/310 83/311 79/312
#fvcolorindex 1 1 1 
vt 2.798828 -0.925781 0.0
vt 1.399414 -0.741211 0.0
vt 2.798828 -0.925781 0.0
f 66/313 79/314 64/315
#fvcolorindex 1 1 1 
vt 0.000000 -0.741211 0.0
vt 0.000000 -0.741211 0.0
vt 1.399414 -0.741211 0.0
v -12.000000 -199.739990 50.239822
#joint 33
#vjoint 84
f 84/316 81/317 79/318
#fvcolorindex 1 1 1 
vt 0.000000 -0.741211 0.0
vt 1.399414 -0.741211 0.0
vt 1.399414 -0.741211 0.0
f 84/319 79/320 83/321
#fvcolorindex 1 1 1 
vt 2.628906 0.000000 0.0
vt 1.314453 0.000000 0.0
vt 1.314453 -0.243164 0.0
v -12.000000 -149.739990 0.239822
#joint 33
#vjoint 85
f 1/322 80/323 85/324
#fvcolorindex 1 1 1 
vt 2.628906 0.000000 0.0
vt 1.314453 -0.243164 0.0
vt 2.628906 -0.243164 0.0
f 1/325 85/326 14/327
#fvcolorindex 1 1 1 
vt 1.314453 -0.243164 0.0
vt 1.314453 0.000000 0.0
vt 0.000000 0.000000 0.0
f 85/328 80/329 82/330
#fvcolorindex 1 1 1 
vt 1.314453 -0.243164 0.0
vt 0.000000 0.000000 0.0
vt 0.000000 -0.243164 0.0
v -12.000000 -199.739990 0.239822
#joint 33
#vjoint 86
f 85/331 82/332 86/333
#fvcolorindex 1 1 1 
vt 0.000000 -0.741211 0.0
vt 1.399414 -0.741211 0.0
vt 1.399414 0.000000 0.0
f 84/334 83/335 85/336
#fvcolorindex 1 1 4 
vt 0.000000 -0.741211 0.0
vt 1.399414 0.000000 0.0
vt 0.000000 0.000000 0.0
f 84/337 85/338 86/339
#fvcolorindex 1 4 4 
vt 2.798828 -0.925781 0.0
vt 2.798828 0.000000 0.0
vt 1.399414 0.000000 0.0
f 66/340 14/341 85/342
#fvcolorindex 1 1 4 
vt 2.798828 -0.925781 0.0
vt 1.399414 0.000000 0.0
vt 1.399414 -0.741211 0.0
f 66/343 85/344 83/345
#fvcolorindex 1 4 1 
vt 0.000000 0.000000 0.0
vt 1.543945 0.713867 0.0
vt 3.087891 0.000000 0.0
f 7/346 13/347 17/348
#fvcolorindex 1 5 1 
usemtl m15
vt -0.958008 -0.926758 0.0
vt 0.000000 0.000000 0.0
vt -0.105469 -1.671875 0.0
f 57/349 59/350 8/351
#fvcolorindex 1 10 4 
usemtl m16
vt -0.958008 -2.387695 0.0
vt -0.958008 -0.926758 0.0
vt -0.105469 -1.671875 0.0
f 7/352 57/353 8/354
#fvcolorindex 4 1 4 
vt 0.407227 -1.218750 0.0
vt -0.105469 -1.671875 0.0
vt 0.000000 0.000000 0.0
f 76/355 8/356 59/357
#fvcolorindex 4 4 10 
vt 0.407227 -1.218750 0.0
vt 0.000000 0.000000 0.0
vt 0.066406 -0.020508 0.0
f 76/358 59/359 71/360
#fvcolorindex 4 10 10 
usemtl m15
vt 0.989258 0.000000 0.0
vt 0.000000 0.000000 0.0
vt -0.001953 -1.171875 0.0
f 61/361 57/362 7/363
#fvcolorindex 1 1 4 
usemtl m16
vt -0.001953 -1.171875 0.0
vt 0.000000 0.000000 0.0
vt 0.989258 0.000000 0.0
f 17/364 68/365 67/366
#fvcolorindex 4 1 1 
vt -0.105469 -1.671875 0.0
vt -0.958008 -0.926758 0.0
vt -0.958008 -2.387695 0.0
f 20/367 68/368 17/369
#fvcolorindex 4 1 4 
vt -0.105469 -1.671875 0.0
vt 0.000000 0.000000 0.0
vt -0.958008 -0.926758 0.0
f 20/370 71/371 68/372
#fvcolorindex 4 10 1 
usemtl m17
vt 0.000000 0.000000 0.0
vt -0.105469 -1.671875 0.0
vt 0.407227 -1.218750 0.0
f 71/373 20/374 76/375
#fvcolorindex 10 4 4 
usemtl m18
vt -0.139648 0.473633 0.0
vt -0.624023 0.473633 0.0
vt 0.000000 0.000000 0.0
v 0.000000 -199.739990 300.239807
#joint 33
#vjoint 87
f 65/376 63/377 87/378
#fvcolorindex 1 1 1 
usemtl m19
vt -0.003906 0.041016 0.0
vt -0.040039 0.398438 0.0
vt 1.369141 0.450195 0.0
v 0.000000 -74.739983 450.239807
#joint 33
#vjoint 88
f 88/379 72/380 65/381
#fvcolorindex 11 4 1 
vt -0.003906 0.041016 0.0
vt 1.369141 0.450195 0.0
vt 1.987305 0.034180 0.0
f 88/382 65/383 87/384
#fvcolorindex 11 1 11 
usemtl m20
vt 1.715820 0.330078 0.0
vt 1.802734 0.452148 0.0
vt 0.264648 0.403320 0.0
f 32/385 24/386 72/387
#fvcolorindex 4 1 4 
vt 1.715820 0.330078 0.0
vt 0.264648 0.403320 0.0
vt 0.024414 0.037109 0.0
f 32/388 72/389 88/390
#fvcolorindex 4 4 11 
vt 1.715820 0.330078 0.0
vt 0.024414 0.037109 0.0
vt 1.748047 0.036133 0.0
f 32/391 88/392 34/393
#fvcolorindex 4 11 4 
vt 1.748047 0.036133 0.0
vt 0.024414 0.037109 0.0
vt 0.264648 0.403320 0.0
f 34/394 88/395 62/396
#fvcolorindex 4 11 4 
vt 1.748047 0.036133 0.0
vt 0.264648 0.403320 0.0
vt 1.802734 0.452148 0.0
f 34/397 62/398 28/399
#fvcolorindex 4 4 1 
vt 1.748047 0.036133 0.0
vt 1.802734 0.452148 0.0
vt 1.715820 0.330078 0.0
f 34/400 28/401 36/402
#fvcolorindex 4 1 4 
usemtl m19
vt 1.987305 0.034180 0.0
vt 1.369141 0.450195 0.0
vt -0.040039 0.398438 0.0
f 87/403 63/404 62/405
#fvcolorindex 11 1 4 
vt 1.987305 0.034180 0.0
vt -0.040039 0.398438 0.0
vt -0.003906 0.041016 0.0
f 87/406 62/407 88/408
#fvcolorindex 11 4 11 
usemtl m18
vt 0.000000 0.658203 0.0
vt 2.000000 0.658203 0.0
vt 1.000000 0.000000 0.0
v 40.000000 5.260017 -99.760178
#joint 33
#vjoint 89
v 40.000000 0.260017 -179.760178
#joint 33
#vjoint 90
v 15.000000 15.260017 -139.760178
#joint 33
#vjoint 91
f 89/409 90/410 91/411
#fvcolorindex 1 4 3 
vt 0.000000 0.000000 0.0
vt 0.000000 0.658203 0.0
vt 1.000000 0.000000 0.0
v 15.000000 15.260017 -99.760178
#joint 33
#vjoint 92
f 92/412 89/413 91/414
#fvcolorindex 1 1 3 
vt 0.000000 0.000000 0.0
vt 0.945312 0.000000 0.0
vt 0.000000 0.730469 0.0
v 5.000000 40.260017 -99.760178
#joint 33
#vjoint 93
f 92/415 91/416 93/417
#fvcolorindex 1 3 5 
usemtl m21
vt 0.000000 0.730469 0.0
vt 0.945312 0.000000 0.0
vt 1.891602 0.791016 0.0
v 0.000000 40.260017 -179.760178
#joint 33
#vjoint 94
f 93/418 91/419 94/420
#fvcolorindex 5 3 4 
vt 0.000000 0.000000 0.0
vt 0.000000 -0.490234 0.0
vt 1.824219 -0.245117 0.0
v -5.000000 40.260017 -99.760178
#joint 33
#vjoint 95
f 95/421 93/422 94/423
#fvcolorindex 5 5 4 
usemtl m18
vt -0.016602 0.339844 0.0
vt 2.147461 0.339844 0.0
vt 0.000000 0.000000 0.0
v 40.000000 -4.739983 -99.760178
#joint 33
#vjoint 96
f 96/424 90/425 89/426
#fvcolorindex 1 4 1 
usemtl m22
vt 1.891602 -0.182617 0.0
vt 1.891602 0.791016 0.0
vt 0.945312 0.000000 0.0
v 0.000000 0.260017 -179.760178
#joint 33
#vjoint 97
#vcolor 120.000000 120.000000 120.000000 255.000000
f 97/427 94/428 91/429
#fvcolorindex 12 4 3 
vt 2.000000 -0.394531 0.0
vt 1.000000 0.000000 0.0
vt 2.000000 0.658203 0.0
f 97/430 91/431 90/432
#fvcolorindex 12 3 4 
usemtl m23
vt 1.000000 0.000000 0.0
vt 0.042969 0.697266 0.0
vt 2.045898 0.754883 0.0
v -15.000000 15.260017 -139.760178
#joint 33
#vjoint 98
f 98/433 95/434 94/435
#fvcolorindex 3 5 4 
usemtl m24
vt 1.000000 0.000000 0.0
vt 2.000000 0.722656 0.0
vt 0.000000 0.675781 0.0
v 15.000000 -14.739983 -139.760178
#joint 33
#vjoint 99
f 99/436 90/437 96/438
#fvcolorindex 6 1 6 
vt 1.000000 0.000000 0.0
vt 0.000000 0.675781 0.0
vt 0.000000 0.000000 0.0
v 15.000000 -14.739983 -99.760178
#joint 33
#vjoint 100
#vcolor 48.000000 48.000000 48.000000 255.000000
f 99/439 96/440 100/441
#fvcolorindex 6 6 13 
usemtl m18
vt 2.000000 -0.209961 0.0
vt 2.000000 0.722656 0.0
vt 1.000000 0.000000 0.0
f 97/442 90/443 99/444
#fvcolorindex 1 1 6 
usemtl m25
vt 2.000000 0.843750 0.0
vt 2.000000 -0.505859 0.0
vt 1.000000 0.000000 0.0
v 0.000000 -39.739983 -179.760178
#joint 33
#vjoint 101
#vcolor 161.000000 161.000000 161.000000 255.000000
f 101/445 97/446 99/447
#fvcolorindex 14 1 6 
vt 2.000000 0.843750 0.0
vt 1.000000 0.000000 0.0
vt 0.000000 0.843750 0.0
v 5.000000 -39.739983 -99.760178
#joint 33
#vjoint 102
f 101/448 99/449 102/450
#fvcolorindex 14 6 13 
usemtl m26
vt 0.000000 0.843750 0.0
vt 1.000000 0.000000 0.0
vt 0.000000 0.000000 0.0
f 102/451 99/452 100/453
#fvcolorindex 13 6 13 
usemtl m23
vt 1.000000 0.000000 0.0
vt 2.045898 0.754883 0.0
vt 1.989258 -0.175781 0.0
f 98/454 94/455 97/456
#fvcolorindex 3 4 12 
usemtl m18
vt 2.000000 -0.420898 0.0
vt 2.000000 0.702148 0.0
vt 1.000000 0.000000 0.0
#vcolor 67.000000 67.000000 67.000000 255.000000
v -15.000000 -14.739983 -139.760178
#joint 33
#vjoint 103
f 97/457 101/458 103/459
#fvcolorindex 1 15 6 
vt 2.000000 0.643555 0.0
vt 2.000000 -0.385742 0.0
vt 1.000000 0.000000 0.0
v -40.000000 0.260017 -179.760178
#joint 33
#vjoint 104
f 104/460 97/461 103/462
#fvcolorindex 1 1 6 
usemtl m23
vt 1.000000 0.000000 0.0
vt 2.000000 -0.406250 0.0
vt 2.000000 0.677734 0.0
f 98/463 97/464 104/465
#fvcolorindex 3 12 4 
usemtl m26
vt -0.015625 0.383789 0.0
vt 2.007812 0.383789 0.0
vt 0.000000 0.000000 0.0
v -5.000000 -39.739983 -99.760178
#joint 33
#vjoint 105
f 105/466 101/467 102/468
#fvcolorindex 13 15 13 
usemtl m24
vt 1.000000 0.000000 0.0
vt 2.000000 0.702148 0.0
vt 0.000000 0.702148 0.0
f 103/469 101/470 105/471
#fvcolorindex 6 15 13 
vt 1.000000 0.000000 0.0
vt 0.000000 0.702148 0.0
vt 0.000000 0.000000 0.0
v -15.000000 -14.739983 -99.760178
#joint 33
#vjoint 106
f 103/472 105/473 106/474
#fvcolorindex 6 13 13 
usemtl m18
vt 2.000000 0.643555 0.0
vt 1.000000 0.000000 0.0
vt 0.000000 0.643555 0.0
v -40.000000 -4.739983 -99.760178
#joint 33
#vjoint 107
f 104/475 103/476 107/477
#fvcolorindex 1 6 1 
vt 0.000000 0.643555 0.0
vt 1.000000 0.000000 0.0
vt 0.000000 0.000000 0.0
f 107/478 103/479 106/480
#fvcolorindex 1 6 13 
vt -0.015625 0.344727 0.0
vt 2.048828 0.344727 0.0
vt 0.000000 0.000000 0.0
v -40.000000 5.260017 -99.760178
#joint 33
#vjoint 108
f 108/481 104/482 107/483
#fvcolorindex 1 1 1 
usemtl m23
vt 1.000000 0.000000 0.0
vt 2.000000 0.677734 0.0
vt 0.000000 0.677734 0.0
f 98/484 104/485 108/486
#fvcolorindex 3 4 1 
usemtl m18
vt 0.000000 0.000000 0.0
vt 1.000000 0.000000 0.0
vt 0.000000 0.677734 0.0
v -15.000000 15.260017 -99.760178
#joint 33
#vjoint 109
f 109/487 98/488 108/489
#fvcolorindex 1 3 1 
usemtl m21
vt 0.042969 0.697266 0.0
vt 1.000000 0.000000 0.0
vt 0.000000 0.000000 0.0
f 95/490 98/491 109/492
#fvcolorindex 5 3 1 
usemtl m20
vt -0.512695 0.741211 0.0
vt -0.512695 0.669922 0.0
vt -0.161133 0.690430 0.0
f 60/493 73/494 96/495
#fvcolorindex 4 7 1 
vt -0.512695 0.741211 0.0
vt -0.161133 0.690430 0.0
vt -0.161133 0.718750 0.0
f 60/496 96/497 89/498
#fvcolorindex 4 1 1 
usemtl m27
vt -0.512695 0.669922 0.0
vt -0.146484 0.597656 0.0
vt -0.014648 0.661133 0.0
f 73/499 3/500 100/501
#fvcolorindex 7 6 13 
vt -0.512695 0.669922 0.0
vt -0.014648 0.661133 0.0
vt -0.161133 0.690430 0.0
f 73/502 100/503 96/504
#fvcolorindex 7 13 1 
usemtl m24
vt -0.146484 0.597656 0.0
vt 0.043945 0.589844 0.0
vt -0.014648 0.661133 0.0
f 3/505 102/506 100/507
#fvcolorindex 6 13 13 
usemtl m18
vt -0.146484 0.811523 0.0
vt -0.512695 0.741211 0.0
vt -0.161133 0.718750 0.0
f 58/508 60/509 89/510
#fvcolorindex 1 4 1 
vt -0.146484 0.811523 0.0
vt -0.161133 0.718750 0.0
vt -0.014648 0.747070 0.0
f 58/511 89/512 92/513
#fvcolorindex 1 1 1 
vt -0.146484 0.811523 0.0
vt -0.014648 0.747070 0.0
vt 0.043945 0.817383 0.0
f 58/514 92/515 93/516
#fvcolorindex 1 1 5 
usemtl m26
vt 0.043945 0.589844 0.0
vt -0.146484 0.597656 0.0
vt 0.000000 0.419922 0.0
f 102/517 3/518 2/519
#fvcolorindex 13 6 1 
usemtl m18
vt 0.146484 0.418945 0.0
vt 0.102539 0.589844 0.0
vt 0.043945 0.589844 0.0
f 15/520 105/521 102/522
#fvcolorindex 1 13 13 
vt 0.146484 0.418945 0.0
vt 0.043945 0.589844 0.0
vt 0.000000 0.419922 0.0
f 15/523 102/524 2/525
#fvcolorindex 1 13 1 
vt 0.146484 0.418945 0.0
vt 0.292969 0.596680 0.0
vt 0.102539 0.589844 0.0
f 15/526 16/527 105/528
#fvcolorindex 1 13 13 
usemtl m26
vt 0.292969 0.596680 0.0
vt 0.161133 0.661133 0.0
vt 0.102539 0.589844 0.0
f 16/529 106/530 105/531
#fvcolorindex 13 13 13 
vt 0.161133 0.661133 0.0
vt 0.292969 0.596680 0.0
vt 0.659180 0.666016 0.0
f 106/532 16/533 74/534
#fvcolorindex 13 13 1 
vt 0.161133 0.661133 0.0
vt 0.659180 0.666016 0.0
vt 0.307617 0.688477 0.0
f 106/535 74/536 107/537
#fvcolorindex 13 1 1 
usemtl m18
vt 0.307617 0.688477 0.0
vt 0.659180 0.666016 0.0
vt 0.659180 0.737305 0.0
f 107/538 74/539 70/540
#fvcolorindex 1 1 4 
vt 0.307617 0.688477 0.0
vt 0.659180 0.737305 0.0
vt 0.307617 0.717773 0.0
f 107/541 70/542 108/543
#fvcolorindex 1 4 1 
vt 0.307617 0.717773 0.0
vt 0.659180 0.737305 0.0
vt 0.292969 0.809570 0.0
f 108/544 70/545 69/546
#fvcolorindex 1 4 1 
vt 0.307617 0.717773 0.0
vt 0.292969 0.809570 0.0
vt 0.161133 0.746094 0.0
f 108/547 69/548 109/549
#fvcolorindex 1 1 1 
vt 0.161133 0.746094 0.0
vt 0.292969 0.809570 0.0
vt 0.102539 0.817383 0.0
f 109/550 69/551 95/552
#fvcolorindex 1 1 5 
usemtl m21
vt 0.043945 0.817383 0.0
vt 0.102539 0.817383 0.0
vt 0.073242 0.845703 0.0
f 93/553 95/554 48/555
#fvcolorindex 5 5 8 
usemtl m28
vt 0.073242 0.845703 0.0
vt 0.102539 0.817383 0.0
vt 0.125000 0.856445 0.0
f 48/556 95/557 46/558
#fvcolorindex 8 5 8 
usemtl m21
vt 0.102539 0.817383 0.0
vt 0.292969 0.809570 0.0
vt 0.125000 0.856445 0.0
f 95/559 69/560 46/561
#fvcolorindex 5 1 8 
vt 0.043945 0.817383 0.0
vt 0.073242 0.845703 0.0
vt 0.021484 0.856445 0.0
f 93/562 48/563 50/564
#fvcolorindex 5 8 8 
usemtl m18
vt -0.146484 0.811523 0.0
vt 0.043945 0.817383 0.0
vt 0.021484 0.856445 0.0
f 58/565 93/566 50/567
#fvcolorindex 1 5 8 
vt -0.146484 0.811523 0.0
vt 0.021484 0.856445 0.0
vt 0.000000 0.881836 0.0
f 58/568 50/569 52/570
#fvcolorindex 1 8 8 
usemtl m28
vt 0.021484 0.907227 0.0
vt 0.000000 0.988281 0.0
vt -0.146484 0.811523 0.0
f 54/571 59/572 58/573
#fvcolorindex 8 4 1 
vt 0.021484 0.907227 0.0
vt -0.146484 0.811523 0.0
vt 0.000000 0.881836 0.0
f 54/574 58/575 52/576
#fvcolorindex 8 1 8 
vt 0.021484 0.907227 0.0
vt 0.073242 0.916992 0.0
vt 0.000000 0.988281 0.0
f 54/577 56/578 59/579
#fvcolorindex 8 8 4 
usemtl m20
vt 0.146484 0.988281 0.0
vt 0.000000 0.988281 0.0
vt 0.073242 0.916992 0.0
f 71/580 59/581 56/582
#fvcolorindex 4 4 8 
usemtl m28
vt 0.125000 0.906250 0.0
vt 0.146484 0.988281 0.0
vt 0.073242 0.916992 0.0
f 42/583 71/584 56/585
#fvcolorindex 8 4 8 
vt 0.146484 0.881836 0.0
vt 0.292969 0.809570 0.0
vt 0.146484 0.988281 0.0
f 41/586 69/587 71/588
#fvcolorindex 8 1 4 
vt 0.146484 0.881836 0.0
vt 0.146484 0.988281 0.0
vt 0.125000 0.906250 0.0
f 41/589 71/590 42/591
#fvcolorindex 8 4 8 
vt 0.125000 0.856445 0.0
vt 0.292969 0.809570 0.0
vt 0.146484 0.881836 0.0
f 46/592 69/593 41/594
#fvcolorindex 8 1 8 
usemtl m29
vt 0.000000 0.000000 0.0
vt 0.000000 0.000000 0.0
vt 0.000000 0.000000 0.0
f 39/595 40/596 30/597
#fvcolorindex 9 9 9 
vt 0.000000 0.000000 0.0
vt 0.000000 0.000000 0.0
vt 0.000000 0.000000 0.0
f 38/598 39/599 30/600
#fvcolorindex 9 9 9 
vt 0.000000 0.000000 0.0
vt 0.000000 0.000000 0.0
vt 0.000000 0.000000 0.0
f 38/601 30/602 29/603
#fvcolorindex 9 9 9 
vt 0.000000 0.000000 0.0
vt 0.000000 0.000000 0.0
vt 0.000000 0.000000 0.0
f 37/604 38/605 29/606
#fvcolorindex 9 9 9 
vt 0.000000 0.000000 0.0
vt 0.000000 0.000000 0.0
vt 0.000000 0.000000 0.0
f 37/607 29/608 33/609
#fvcolorindex 9 9 9 
vt 0.000000 0.000000 0.0
vt 0.000000 0.000000 0.0
vt 0.000000 0.000000 0.0
f 35/610 37/611 33/612
#fvcolorindex 9 9 9 
vt 0.000000 0.000000 0.0
vt 0.000000 0.000000 0.0
vt 0.000000 0.000000 0.0
f 53/613 43/614 55/615
#fvcolorindex 9 9 9 
vt 0.000000 0.000000 0.0
vt 0.000000 0.000000 0.0
vt 0.000000 0.000000 0.0
f 44/616 43/617 53/618
#fvcolorindex 9 9 9 
vt 0.000000 0.000000 0.0
vt 0.000000 0.000000 0.0
vt 0.000000 0.000000 0.0
f 44/619 53/620 51/621
#fvcolorindex 9 9 9 
vt 0.000000 0.000000 0.0
vt 0.000000 0.000000 0.0
vt 0.000000 0.000000 0.0
f 49/622 45/623 44/624
#fvcolorindex 9 9 9 
vt 0.000000 0.000000 0.0
vt 0.000000 0.000000 0.0
vt 0.000000 0.000000 0.0
f 49/625 44/626 51/627
#fvcolorindex 9 9 9 
vt 0.000000 0.000000 0.0
vt 0.000000 0.000000 0.0
vt 0.000000 0.000000 0.0
f 47/628 45/629 49/630
#fvcolorindex 9 9 9 
g Room03
g Room03_primary
usemtl m30
vt 1.013672 1.002930 0.0
vt 0.012695 1.001953 0.0
vt 0.002930 0.264648 0.0
v -12.000000 -199.739990 0.239822
#joint 33
#vjoint 110
#vcolor 254.000000 254.000000 254.000000 255.000000
v 13.000000 -199.739990 0.239822
#joint 33
#vjoint 111
v 13.000000 -199.739990 50.239822
#joint 33
#vjoint 112
f 110/631 111/632 112/633
#fvcolorindex 16 16 16 
vt 1.013672 1.002930 0.0
vt 0.002930 0.264648 0.0
vt 1.003906 0.265625 0.0
v -12.000000 -199.739990 50.239822
#joint 33
#vjoint 113
f 110/634 112/635 113/636
#fvcolorindex 16 16 16 
g Room04
g Room04_primary
usemtl m31
vt 0.000000 0.516602 0.0
vt 0.000000 0.000000 0.0
vt 2.132812 0.258789 0.0
v -12.000000 100.000000 -103.169266
#joint 35
#vjoint 114
#vcolor 238.000000 222.000000 138.000000 255.000000
v 13.000000 100.000000 -103.169266
#joint 35
#vjoint 115
v 0.000000 100.000000 -303.169250
#joint 35
#vjoint 116
f 114/637 115/638 116/639
#fvcolorindex 17 17 17 
usemtl m0
vt -3.174805 -0.065430 0.0
vt -2.116211 0.945312 0.0
vt -1.058594 0.000000 0.0
v 0.000000 -100.000000 -303.169250
#joint 35
#vjoint 117
#vcolor 53.000000 53.000000 114.000000 255.000000
v 38.000000 -37.000000 -203.169266
#joint 35
#vjoint 118
v 13.000000 -100.000000 -103.169266
#joint 35
#vjoint 119
#vcolor 213.000000 205.000000 165.000000 255.000000
f 117/640 118/641 119/642
#fvcolorindex 18 18 19 
usemtl m2
vt -1.058594 0.000000 0.0
vt -2.116211 0.945312 0.0
vt -1.058594 0.945312 0.0
v 38.000000 -37.000000 -103.169266
#joint 35
#vjoint 120
#vcolor 211.000000 203.000000 164.000000 255.000000
f 119/643 118/644 120/645
#fvcolorindex 19 18 20 
usemtl m0
vt 0.943359 0.487305 0.0
vt -1.204102 0.243164 0.0
vt 0.931641 0.000000 0.0
v -12.000000 -100.000000 -103.169266
#joint 35
#vjoint 121
f 121/646 117/647 119/648
#fvcolorindex 18 18 19 
usemtl m3
vt -1.058594 0.945312 0.0
vt -2.116211 0.945312 0.0
vt -1.058594 0.000000 0.0
v -37.000000 -37.000000 -103.169266
#joint 35
#vjoint 122
#vcolor 27.000000 27.000000 27.000000 255.000000
v -37.000000 -37.000000 -203.169266
#joint 35
#vjoint 123
f 122/649 123/650 121/651
#fvcolorindex 21 21 18 
usemtl m0
vt -1.058594 0.000000 0.0
vt -2.116211 0.945312 0.0
vt -3.174805 -0.065430 0.0
f 121/652 123/653 117/654
#fvcolorindex 18 21 18 
usemtl m1
vt 1.200195 0.873047 0.0
vt 1.746094 0.000000 0.0
vt 1.746094 1.746094 0.0
v 15.000000 15.000000 -143.169266
#joint 35
#vjoint 124
#vcolor 100.000000 129.000000 184.000000 255.000000
v 40.000000 0.000000 -183.169266
#joint 35
#vjoint 125
v 40.000000 5.000000 -103.169266
#joint 35
#vjoint 126
#vcolor 67.000000 67.000000 67.000000 255.000000
f 124/655 125/656 126/657
#fvcolorindex 22 18 23 
vt 1.200195 0.873047 0.0
vt 1.746094 1.746094 0.0
vt 1.200195 1.746094 0.0
v 15.000000 15.000000 -103.169266
#joint 35
#vjoint 127
f 124/658 126/659 127/660
#fvcolorindex 22 23 18 
usemtl m0
vt 0.982422 1.746094 0.0
vt 1.200195 0.873047 0.0
vt 1.200195 1.746094 0.0
v 5.000000 40.000000 -103.169266
#joint 35
#vjoint 128
f 128/661 124/662 127/663
#fvcolorindex 18 22 18 
vt 0.873047 0.000000 0.0
vt 1.200195 0.873047 0.0
vt 0.982422 1.746094 0.0
v 0.000000 40.000000 -183.169266
#joint 35
#vjoint 129
f 129/664 124/665 128/666
#fvcolorindex 18 22 18 
vt 0.873047 0.000000 0.0
vt 0.982422 1.746094 0.0
vt 0.763672 1.746094 0.0
v -5.000000 40.000000 -103.169266
#joint 35
#vjoint 130
f 129/667 128/668 130/669
#fvcolorindex 18 18 18 
usemtl m32
vt 1.746094 1.746094 0.0
vt 1.746094 0.000000 0.0
vt 1.746094 1.746094 0.0
v 40.000000 -5.000000 -103.169266
#joint 35
#vjoint 131
f 126/670 125/671 131/672
#fvcolorindex 23 18 18 
usemtl m1
vt 1.200195 0.873047 0.0
vt 0.873047 0.000000 0.0
vt 0.873047 0.000000 0.0
v 0.000000 0.000000 -183.169266
#joint 35
#vjoint 132
#vcolor 165.000000 181.000000 213.000000 255.000000
f 124/673 129/674 132/675
#fvcolorindex 22 18 24 
usemtl m0
vt 1.746094 0.000000 0.0
vt 1.200195 0.873047 0.0
vt 0.873047 0.000000 0.0
f 125/676 124/677 132/678
#fvcolorindex 18 22 24 
vt 0.873047 0.000000 0.0
vt 0.763672 1.746094 0.0
vt 0.545898 0.873047 0.0
v -15.000000 15.000000 -143.169266
#joint 35
#vjoint 133
f 129/679 130/680 133/681
#fvcolorindex 18 18 22 
vt 1.746094 1.746094 0.0
vt 1.746094 0.000000 0.0
vt 1.200195 0.873047 0.0
v 15.000000 -15.000000 -143.169266
#joint 35
#vjoint 134
f 131/682 125/683 134/684
#fvcolorindex 18 18 22 
usemtl m2
vt 1.200195 1.746094 0.0
vt 1.746094 1.746094 0.0
vt 1.200195 0.873047 0.0
v 15.000000 -15.000000 -103.169266
#joint 35
#vjoint 135
f 135/685 131/686 134/687
#fvcolorindex 19 18 22 
usemtl m1
vt 1.200195 0.873047 0.0
vt 1.746094 0.000000 0.0
vt 0.873047 0.000000 0.0
f 134/688 125/689 132/690
#fvcolorindex 22 18 24 
vt 1.200195 0.873047 0.0
vt 0.873047 0.000000 0.0
vt 0.873047 0.000000 0.0
v 0.000000 -40.000000 -183.169266
#joint 35
#vjoint 136
f 134/691 132/692 136/693
#fvcolorindex 22 24 18 
usemtl m0
vt 0.982422 1.746094 0.0
vt 1.200195 0.873047 0.0
vt 0.873047 0.000000 0.0
v 5.000000 -40.000000 -103.169266
#joint 35
#vjoint 137
f 137/694 134/695 136/696
#fvcolorindex 18 22 18 
usemtl m2
vt 1.200195 1.746094 0.0
vt 1.200195 0.873047 0.0
vt 0.982422 1.746094 0.0
f 135/697 134/698 137/699
#fvcolorindex 19 22 18 
usemtl m5
vt 0.873047 0.000000 0.0
vt 0.873047 0.000000 0.0
vt 0.545898 0.873047 0.0
f 132/700 129/701 133/702
#fvcolorindex 24 18 22 
usemtl m1
vt 0.545898 0.873047 0.0
vt 0.873047 0.000000 0.0
vt 0.873047 0.000000 0.0
v -15.000000 -15.000000 -143.169266
#joint 35
#vjoint 138
f 138/703 136/704 132/705
#fvcolorindex 22 18 24 
vt 0.545898 0.873047 0.0
vt 0.873047 0.000000 0.0
vt 0.000000 0.000000 0.0
v -40.000000 0.000000 -183.169266
#joint 35
#vjoint 139
f 138/706 132/707 139/708
#fvcolorindex 22 24 18 
usemtl m0
vt 0.000000 0.000000 0.0
vt 0.873047 0.000000 0.0
vt 0.545898 0.873047 0.0
f 139/709 132/710 133/711
#fvcolorindex 18 24 22 
vt 0.982422 1.746094 0.0
vt 0.873047 0.000000 0.0
vt 0.763672 1.746094 0.0
v -5.000000 -40.000000 -103.169266
#joint 35
#vjoint 140
f 137/712 136/713 140/714
#fvcolorindex 18 18 18 
vt 0.763672 1.746094 0.0
vt 0.873047 0.000000 0.0
vt 0.545898 0.873047 0.0
f 140/715 136/716 138/717
#fvcolorindex 18 18 22 
usemtl m2
vt 0.545898 1.746094 0.0
vt 0.763672 1.746094 0.0
vt 0.545898 0.873047 0.0
v -15.000000 -15.000000 -103.169266
#joint 35
#vjoint 141
f 141/718 140/719 138/720
#fvcolorindex 19 18 22 
usemtl m0
vt 0.000000 1.746094 0.0
vt 0.545898 0.873047 0.0
vt 0.000000 0.000000 0.0
v -40.000000 -5.000000 -103.169266
#joint 35
#vjoint 142
f 142/721 138/722 139/723
#fvcolorindex 18 22 18 
usemtl m2
vt 0.545898 1.746094 0.0
vt 0.545898 0.873047 0.0
vt 0.000000 1.746094 0.0
f 141/724 138/725 142/726
#fvcolorindex 19 22 18 
usemtl m0
vt 0.000000 1.746094 0.0
vt 0.000000 0.000000 0.0
vt 0.000000 1.746094 0.0
v -40.000000 5.000000 -103.169266
#joint 35
#vjoint 143
f 142/727 139/728 143/729
#fvcolorindex 18 18 18 
vt 0.000000 1.746094 0.0
vt 0.000000 0.000000 0.0
vt 0.545898 0.873047 0.0
f 143/730 139/731 133/732
#fvcolorindex 18 18 22 
vt 0.000000 1.746094 0.0
vt 0.545898 0.873047 0.0
vt 0.545898 1.746094 0.0
v -15.000000 15.000000 -103.169266
#joint 35
#vjoint 144
f 143/733 133/734 144/735
#fvcolorindex 18 22 18 
vt 0.545898 1.746094 0.0
vt 0.545898 0.873047 0.0
vt 0.763672 1.746094 0.0
f 144/736 133/737 130/738
#fvcolorindex 18 22 18 
usemtl m33
vt 4.108398 1.583008 0.0
vt 0.006836 1.583008 0.0
vt 0.000000 0.000000 0.0
v -12.000000 63.000000 -163.169266
#joint 35
#vjoint 145
#vcolor 48.000000 48.000000 48.000000 255.000000
v -12.000000 63.000000 -103.169266
#joint 35
#vjoint 146
v -9.000000 54.000000 -103.169266
#joint 35
#vjoint 147
f 145/739 146/740 147/741
#fvcolorindex 25 24 24 
vt 4.108398 1.583008 0.0
vt 0.000000 0.000000 0.0
vt 4.101562 0.000000 0.0
v -9.000000 54.000000 -163.169266
#joint 35
#vjoint 148
f 145/742 147/743 148/744
#fvcolorindex 25 24 25 
vt 4.113281 2.703125 0.0
vt 0.012695 2.703125 0.0
vt 0.006836 1.583008 0.0
v -9.000000 71.000000 -163.169266
#joint 35
#vjoint 149
v -9.000000 71.000000 -103.169266
#joint 35
#vjoint 150
f 149/745 150/746 146/747
#fvcolorindex 25 24 24 
vt 4.113281 2.703125 0.0
vt 0.006836 1.583008 0.0
vt 4.108398 1.583008 0.0
f 149/748 146/749 145/750
#fvcolorindex 25 24 25 
vt 4.144531 1.495117 0.0
vt 0.014648 1.495117 0.0
vt 0.024414 2.552734 0.0
v 0.000000 75.000000 -163.169266
#joint 35
#vjoint 151
v 0.000000 75.000000 -103.169266
#joint 35
#vjoint 152
f 151/751 152/752 150/753
#fvcolorindex 25 24 24 
vt 4.144531 1.495117 0.0
vt 0.024414 2.552734 0.0
vt 4.155273 2.552734 0.0
f 151/754 150/755 149/756
#fvcolorindex 25 24 25 
vt 4.130859 0.000000 0.0
vt 0.000000 0.000000 0.0
vt 0.014648 1.495117 0.0
v 9.000000 71.000000 -163.169266
#joint 35
#vjoint 153
v 9.000000 71.000000 -103.169266
#joint 35
#vjoint 154
f 153/757 154/758 152/759
#fvcolorindex 25 24 24 
vt 4.130859 0.000000 0.0
vt 0.014648 1.495117 0.0
vt 4.144531 1.495117 0.0
f 153/760 152/761 151/762
#fvcolorindex 25 24 25 
vt 3.925781 1.458008 0.0
vt -0.028320 1.458008 0.0
vt -0.048828 2.489258 0.0
v 13.000000 63.000000 -163.169266
#joint 35
#vjoint 155
v 13.000000 63.000000 -103.169266
#joint 35
#vjoint 156
f 155/763 156/764 154/765
#fvcolorindex 25 24 24 
vt 3.925781 1.458008 0.0
vt -0.048828 2.489258 0.0
vt 3.905273 2.489258 0.0
f 155/766 154/767 153/768
#fvcolorindex 25 24 25 
vt 3.954102 0.000000 0.0
vt 0.000000 0.000000 0.0
vt -0.028320 1.458008 0.0
v 9.000000 54.000000 -163.169266
#joint 35
#vjoint 157
v 9.000000 54.000000 -103.169266
#joint 35
#vjoint 158
f 157/769 158/770 156/771
#fvcolorindex 25 24 24 
vt 3.954102 0.000000 0.0
vt -0.028320 1.458008 0.0
vt 3.925781 1.458008 0.0
f 157/772 156/773 155/774
#fvcolorindex 25 24 25 
vt 4.219727 1.565430 0.0
vt -0.019531 1.565430 0.0
vt -0.032227 2.671875 0.0
v 0.000000 50.000000 -163.169266
#joint 35
#vjoint 159
v 0.000000 50.000000 -103.169266
#joint 35
#vjoint 160
f 159/775 160/776 158/777
#fvcolorindex 25 24 24 
vt 4.219727 1.565430 0.0
vt -0.032227 2.671875 0.0
vt 4.207031 2.671875 0.0
f 159/778 158/779 157/780
#fvcolorindex 25 24 25 
vt 4.219727 1.565430 0.0
vt 4.239258 0.000000 0.0
vt 0.000000 0.000000 0.0
f 159/781 148/782 147/783
#fvcolorindex 25 25 24 
vt 4.219727 1.565430 0.0
vt 0.000000 0.000000 0.0
vt -0.019531 1.565430 0.0
f 159/784 147/785 160/786
#fvcolorindex 25 24 24 
vt 4.108398 1.583008 0.0
vt 0.006836 1.583008 0.0
vt 0.000000 0.000000 0.0
v 50.000000 0.000000 -163.169266
#joint 35
#vjoint 161
v 50.000000 0.000000 -103.169266
#joint 35
#vjoint 162
v 54.000000 -9.000000 -103.169266
#joint 35
#vjoint 163
f 161/787 162/788 163/789
#fvcolorindex 25 24 24 
vt 4.108398 1.583008 0.0
vt 0.000000 0.000000 0.0
vt 4.101562 0.000000 0.0
v 54.000000 -9.000000 -163.169266
#joint 35
#vjoint 164
f 161/790 163/791 164/792
#fvcolorindex 25 24 25 
vt 4.113281 2.703125 0.0
vt 0.012695 2.703125 0.0
vt 0.006836 1.583008 0.0
v 54.000000 9.000000 -163.169266
#joint 35
#vjoint 165
v 54.000000 9.000000 -103.169266
#joint 35
#vjoint 166
f 165/793 166/794 162/795
#fvcolorindex 25 24 24 
vt 4.113281 2.703125 0.0
vt 0.006836 1.583008 0.0
vt 4.108398 1.583008 0.0
f 165/796 162/797 161/798
#fvcolorindex 25 24 25 
vt 4.144531 1.495117 0.0
vt 0.014648 1.495117 0.0
vt 0.024414 2.552734 0.0
v 63.000000 13.000000 -163.169266
#joint 35
#vjoint 167
v 63.000000 13.000000 -103.169266
#joint 35
#vjoint 168
f 167/799 168/800 166/801
#fvcolorindex 25 24 24 
vt 4.144531 1.495117 0.0
vt 0.024414 2.552734 0.0
vt 4.155273 2.552734 0.0
f 167/802 166/803 165/804
#fvcolorindex 25 24 25 
vt 4.130859 0.000000 0.0
vt 0.000000 0.000000 0.0
vt 0.014648 1.495117 0.0
v 71.000000 9.000000 -163.169266
#joint 35
#vjoint 169
v 71.000000 9.000000 -103.169266
#joint 35
#vjoint 170
f 169/805 170/806 168/807
#fvcolorindex 25 24 24 
vt 4.130859 0.000000 0.0
vt 0.014648 1.495117 0.0
vt 4.144531 1.495117 0.0
f 169/808 168/809 167/810
#fvcolorindex 25 24 25 
vt 3.925781 1.458008 0.0
vt -0.028320 1.458008 0.0
vt -0.048828 2.489258 0.0
v 75.000000 0.000000 -163.169266
#joint 35
#vjoint 171
v 75.000000 0.000000 -103.169266
#joint 35
#vjoint 172
f 171/811 172/812 170/813
#fvcolorindex 25 24 24 
vt 3.925781 1.458008 0.0
vt -0.048828 2.489258 0.0
vt 3.905273 2.489258 0.0
f 171/814 170/815 169/816
#fvcolorindex 25 24 25 
vt 3.954102 0.000000 0.0
vt 0.000000 0.000000 0.0
vt -0.028320 1.458008 0.0
v 71.000000 -9.000000 -163.169266
#joint 35
#vjoint 173
v 71.000000 -9.000000 -103.169266
#joint 35
#vjoint 174
f 173/817 174/818 172/819
#fvcolorindex 25 24 24 
vt 3.954102 0.000000 0.0
vt -0.028320 1.458008 0.0
vt 3.925781 1.458008 0.0
f 173/820 172/821 171/822
#fvcolorindex 25 24 25 
vt 4.219727 1.565430 0.0
vt -0.019531 1.565430 0.0
vt -0.032227 2.671875 0.0
v 63.000000 -12.000000 -163.169266
#joint 35
#vjoint 175
v 63.000000 -12.000000 -103.169266
#joint 35
#vjoint 176
f 175/823 176/824 174/825
#fvcolorindex 25 24 24 
vt 4.219727 1.565430 0.0
vt -0.032227 2.671875 0.0
vt 4.207031 2.671875 0.0
f 175/826 174/827 173/828
#fvcolorindex 25 24 25 
vt 4.219727 1.565430 0.0
vt 4.239258 0.000000 0.0
vt 0.000000 0.000000 0.0
f 175/829 164/830 163/831
#fvcolorindex 25 25 24 
vt 4.219727 1.565430 0.0
vt 0.000000 0.000000 0.0
vt -0.019531 1.565430 0.0
f 175/832 163/833 176/834
#fvcolorindex 25 24 24 
vt 4.108398 1.583008 0.0
vt 0.006836 1.583008 0.0
vt 0.000000 0.000000 0.0
v -12.000000 -62.000000 -163.169266
#joint 35
#vjoint 177
v -12.000000 -62.000000 -103.169266
#joint 35
#vjoint 178
v -9.000000 -71.000000 -103.169266
#joint 35
#vjoint 179
f 177/835 178/836 179/837
#fvcolorindex 25 24 24 
vt 4.108398 1.583008 0.0
vt 0.000000 0.000000 0.0
vt 4.101562 0.000000 0.0
v -9.000000 -71.000000 -163.169266
#joint 35
#vjoint 180
f 177/838 179/839 180/840
#fvcolorindex 25 24 25 
vt 4.113281 2.703125 0.0
vt 0.012695 2.703125 0.0
vt 0.006836 1.583008 0.0
v -9.000000 -54.000000 -163.169266
#joint 35
#vjoint 181
v -9.000000 -54.000000 -103.169266
#joint 35
#vjoint 182
f 181/841 182/842 178/843
#fvcolorindex 25 24 24 
vt 4.113281 2.703125 0.0
vt 0.006836 1.583008 0.0
vt 4.108398 1.583008 0.0
f 181/844 178/845 177/846
#fvcolorindex 25 24 25 
vt 4.144531 1.495117 0.0
vt 0.014648 1.495117 0.0
vt 0.024414 2.552734 0.0
v 0.000000 -50.000000 -163.169266
#joint 35
#vjoint 183
v 0.000000 -50.000000 -103.169266
#joint 35
#vjoint 184
f 183/847 184/848 182/849
#fvcolorindex 25 24 24 
vt 4.144531 1.495117 0.0
vt 0.024414 2.552734 0.0
vt 4.155273 2.552734 0.0
f 183/850 182/851 181/852
#fvcolorindex 25 24 25 
vt 4.130859 0.000000 0.0
vt 0.000000 0.000000 0.0
vt 0.014648 1.495117 0.0
v 9.000000 -54.000000 -163.169266
#joint 35
#vjoint 185
v 9.000000 -54.000000 -103.169266
#joint 35
#vjoint 186
f 185/853 186/854 184/855
#fvcolorindex 25 24 24 
vt 4.130859 0.000000 0.0
vt 0.014648 1.495117 0.0
vt 4.144531 1.495117 0.0
f 185/856 184/857 183/858
#fvcolorindex 25 24 25 
vt 3.925781 1.458008 0.0
vt -0.028320 1.458008 0.0
vt -0.048828 2.489258 0.0
v 13.000000 -62.000000 -163.169266
#joint 35
#vjoint 187
v 13.000000 -62.000000 -103.169266
#joint 35
#vjoint 188
f 187/859 188/860 186/861
#fvcolorindex 25 24 24 
vt 3.925781 1.458008 0.0
vt -0.048828 2.489258 0.0
vt 3.905273 2.489258 0.0
f 187/862 186/863 185/864
#fvcolorindex 25 24 25 
vt 3.954102 0.000000 0.0
vt 0.000000 0.000000 0.0
vt -0.028320 1.458008 0.0
v 9.000000 -71.000000 -163.169266
#joint 35
#vjoint 189
v 9.000000 -71.000000 -103.169266
#joint 35
#vjoint 190
f 189/865 190/866 188/867
#fvcolorindex 25 24 24 
vt 3.954102 0.000000 0.0
vt -0.028320 1.458008 0.0
vt 3.925781 1.458008 0.0
f 189/868 188/869 187/870
#fvcolorindex 25 24 25 
vt 4.219727 1.565430 0.0
vt -0.019531 1.565430 0.0
vt -0.032227 2.671875 0.0
v 0.000000 -75.000000 -163.169266
#joint 35
#vjoint 191
v 0.000000 -75.000000 -103.169266
#joint 35
#vjoint 192
f 191/871 192/872 190/873
#fvcolorindex 25 24 24 
vt 4.219727 1.565430 0.0
vt -0.032227 2.671875 0.0
vt 4.207031 2.671875 0.0
f 191/874 190/875 189/876
#fvcolorindex 25 24 25 
vt 4.219727 1.565430 0.0
vt 4.239258 0.000000 0.0
vt 0.000000 0.000000 0.0
f 191/877 180/878 179/879
#fvcolorindex 25 25 24 
vt 4.219727 1.565430 0.0
vt 0.000000 0.000000 0.0
vt -0.019531 1.565430 0.0
f 191/880 179/881 192/882
#fvcolorindex 25 24 24 
vt 4.219727 1.565430 0.0
vt 4.239258 0.000000 0.0
vt 0.000000 0.000000 0.0
v -62.000000 -12.000000 -163.169266
#joint 35
#vjoint 193
v -71.000000 -9.000000 -163.169266
#joint 35
#vjoint 194
v -71.000000 -9.000000 -103.169266
#joint 35
#vjoint 195
f 193/883 194/884 195/885
#fvcolorindex 25 25 24 
vt 4.219727 1.565430 0.0
vt 0.000000 0.000000 0.0
vt -0.019531 1.565430 0.0
v -62.000000 -12.000000 -103.169266
#joint 35
#vjoint 196
f 193/886 195/887 196/888
#fvcolorindex 25 24 24 
vt 4.219727 1.565430 0.0
vt -0.019531 1.565430 0.0
vt -0.032227 2.671875 0.0
v -54.000000 -9.000000 -103.169266
#joint 35
#vjoint 197
f 193/889 196/890 197/891
#fvcolorindex 25 24 24 
vt 4.219727 1.565430 0.0
vt -0.032227 2.671875 0.0
vt 4.207031 2.671875 0.0
v -54.000000 -9.000000 -163.169266
#joint 35
#vjoint 198
f 193/892 197/893 198/894
#fvcolorindex 25 24 25 
vt 3.954102 0.000000 0.0
vt 0.000000 0.000000 0.0
vt -0.028320 1.458008 0.0
v -50.000000 0.000000 -103.169266
#joint 35
#vjoint 199
f 198/895 197/896 199/897
#fvcolorindex 25 24 24 
vt 3.954102 0.000000 0.0
vt -0.028320 1.458008 0.0
vt 3.925781 1.458008 0.0
v -50.000000 0.000000 -163.169266
#joint 35
#vjoint 200
f 198/898 199/899 200/900
#fvcolorindex 25 24 25 
vt 3.925781 1.458008 0.0
vt -0.028320 1.458008 0.0
vt -0.048828 2.489258 0.0
v -54.000000 9.000000 -103.169266
#joint 35
#vjoint 201
f 200/901 199/902 201/903
#fvcolorindex 25 24 24 
vt 3.925781 1.458008 0.0
vt -0.048828 2.489258 0.0
vt 3.905273 2.489258 0.0
v -54.000000 9.000000 -163.169266
#joint 35
#vjoint 202
f 200/904 201/905 202/906
#fvcolorindex 25 24 25 
vt 4.130859 0.000000 0.0
vt 0.000000 0.000000 0.0
vt 0.014648 1.495117 0.0
v -62.000000 13.000000 -103.169266
#joint 35
#vjoint 203
f 202/907 201/908 203/909
#fvcolorindex 25 24 24 
vt 4.130859 0.000000 0.0
vt 0.014648 1.495117 0.0
vt 4.144531 1.495117 0.0
v -62.000000 12.000000 -163.169266
#joint 35
#vjoint 204
f 202/910 203/911 204/912
#fvcolorindex 25 24 25 
vt 4.144531 1.495117 0.0
vt 0.014648 1.495117 0.0
vt 0.024414 2.552734 0.0
v -71.000000 9.000000 -103.169266
#joint 35
#vjoint 205
f 204/913 203/914 205/915
#fvcolorindex 25 24 24 
vt 4.144531 1.495117 0.0
vt 0.024414 2.552734 0.0
vt 4.155273 2.552734 0.0
v -71.000000 9.000000 -163.169266
#joint 35
#vjoint 206
f 204/916 205/917 206/918
#fvcolorindex 25 24 25 
vt 4.113281 2.703125 0.0
vt 0.012695 2.703125 0.0
vt 0.006836 1.583008 0.0
v -75.000000 0.000000 -103.169266
#joint 35
#vjoint 207
f 206/919 205/920 207/921
#fvcolorindex 25 24 24 
vt 4.113281 2.703125 0.0
vt 0.006836 1.583008 0.0
vt 4.108398 1.583008 0.0
v -75.000000 0.000000 -163.169266
#joint 35
#vjoint 208
f 206/922 207/923 208/924
#fvcolorindex 25 24 25 
vt 4.108398 1.583008 0.0
vt 0.006836 1.583008 0.0
vt 0.000000 0.000000 0.0
f 208/925 207/926 195/927
#fvcolorindex 25 24 24 
vt 4.108398 1.583008 0.0
vt 0.000000 0.000000 0.0
vt 4.101562 0.000000 0.0
f 208/928 195/929 194/930
#fvcolorindex 25 24 25 
usemtl m6
vt 0.000000 0.000000 0.0
vt 0.000000 -0.688477 0.0
vt 4.007812 0.000000 0.0
v 38.000000 38.000000 -103.169266
#joint 35
#vjoint 209
v 100.000000 13.000000 -103.169266
#joint 35
#vjoint 210
v 38.000000 38.000000 -203.169266
#joint 35
#vjoint 211
f 209/931 210/932 211/933
#fvcolorindex 18 19 18 
vt 0.000000 0.000000 0.0
vt 4.007812 0.000000 0.0
vt 0.000000 0.998047 0.0
f 209/934 211/935 115/936
#fvcolorindex 18 18 17 
vt 0.000000 0.000000 0.0
vt 0.091797 -1.889648 0.0
vt 4.533203 0.000000 0.0
v 0.000000 0.000000 -303.169250
#joint 35
#vjoint 212
f 212/937 116/938 211/939
#fvcolorindex 18 17 18 
vt 0.000000 0.000000 0.0
vt 4.533203 0.000000 0.0
vt 1.478516 0.233398 0.0
v 100.000000 0.000000 -303.169250
#joint 35
#vjoint 213
f 212/940 211/941 213/942
#fvcolorindex 18 18 19 
vt 0.000000 0.000000 0.0
vt 0.000000 -0.328125 0.0
vt 1.552734 -0.999023 0.0
f 212/943 213/944 118/945
#fvcolorindex 18 17 18 
vt 4.140625 0.000000 0.0
vt 0.000000 0.000000 0.0
vt 1.552734 -0.999023 0.0
f 117/946 212/947 118/948
#fvcolorindex 18 18 18 
usemtl m34
vt 1.552734 -0.999023 0.0
vt 0.000000 0.000000 0.0
vt 4.140625 0.000000 0.0
f 123/949 212/950 117/951
#fvcolorindex 21 18 18 
vt 1.552734 -0.999023 0.0
vt 0.000000 -0.328125 0.0
vt 0.000000 0.000000 0.0
v -100.000000 0.000000 -303.169250
#joint 35
#vjoint 214
f 123/952 214/953 212/954
#fvcolorindex 21 18 18 
usemtl m8
vt 0.000000 0.998047 0.0
vt 4.007812 0.000000 0.0
vt 0.000000 0.000000 0.0
v -37.000000 38.000000 -203.169266
#joint 35
#vjoint 215
v -37.000000 38.000000 -103.169266
#joint 35
#vjoint 216
f 114/955 215/956 216/957
#fvcolorindex 17 18 18 
usemtl m6
vt 4.007812 0.000000 0.0
vt 0.000000 -0.688477 0.0
vt 0.000000 0.000000 0.0
v -100.000000 13.000000 -103.169266
#joint 35
#vjoint 217
f 215/958 217/959 216/960
#fvcolorindex 18 19 18 
vt 4.533203 0.000000 0.0
vt 0.091797 -1.889648 0.0
vt 0.000000 0.000000 0.0
f 215/961 116/962 212/963
#fvcolorindex 18 17 18 
usemtl m7
vt 1.478516 0.233398 0.0
vt 4.533203 0.000000 0.0
vt 0.000000 0.000000 0.0
f 214/964 215/965 212/966
#fvcolorindex 19 18 18 
usemtl m35MirrorS
vt 0.000000 0.000000 0.0
vt 2.988770 0.000000 0.0
vt 1.465332 -1.910156 0.0
f 210/967 213/968 211/969
#fvcolorindex 19 19 18 
usemtl m36MirrorS
vt 0.000000 0.000000 0.0
vt 1.447754 2.023438 0.0
vt 3.007812 0.000000 0.0
f 115/970 211/971 116/972
#fvcolorindex 17 18 17 
usemtl m35MirrorS
vt 0.000000 0.000000 0.0
vt 2.991211 0.000000 0.0
vt 0.023438 -0.921875 0.0
v 100.000000 -12.000000 -103.169266
#joint 35
#vjoint 218
f 218/973 213/974 210/975
#fvcolorindex 19 17 19 
usemtl m37MirrorS
vt 1.467773 -1.919922 0.0
vt 2.993652 0.000000 0.0
vt 0.000000 0.000000 0.0
f 118/976 213/977 218/978
#fvcolorindex 18 17 17 
vt 1.467773 -1.919922 0.0
vt 0.000000 0.000000 0.0
vt -0.023438 -1.843750 0.0
f 118/979 218/980 120/981
#fvcolorindex 18 17 19 
usemtl m38MirrorS
vt -0.023438 -1.843750 0.0
vt 0.000000 0.000000 0.0
vt 1.467773 -1.919922 0.0
v -100.000000 -12.000000 -103.169266
#joint 35
#vjoint 219
f 122/982 219/983 123/984
#fvcolorindex 21 18 21 
usemtl m37MirrorS
vt 0.000000 0.000000 0.0
vt 2.993652 0.000000 0.0
vt 1.467773 -1.919922 0.0
f 219/985 214/986 123/987
#fvcolorindex 18 18 21 
usemtl m35MirrorS
vt 0.023438 -0.921875 0.0
vt 2.991211 0.000000 0.0
vt 0.000000 0.000000 0.0
f 217/988 214/989 219/990
#fvcolorindex 19 18 19 
usemtl m37MirrorS
vt 1.465332 -1.910156 0.0
vt 2.988770 0.000000 0.0
vt 0.000000 0.000000 0.0
f 215/991 214/992 217/993
#fvcolorindex 18 19 19 
usemtl m36MirrorS
vt 3.007812 0.000000 0.0
vt 1.447754 2.023438 0.0
vt 0.000000 0.000000 0.0
f 116/994 215/995 114/996
#fvcolorindex 17 18 17 
usemtl m39
vt -0.228516 3.229492 0.0
vt 0.375977 0.117188 0.0
vt 0.750977 3.239258 0.0
v 0.000000 63.000000 -103.169266
#joint 35
#vjoint 220
f 149/997 220/998 151/999
#fvcolorindex 25 24 25 
vt 1.509766 3.178711 0.0
vt 0.750977 3.239258 0.0
vt 0.375977 0.117188 0.0
f 153/1000 151/1001 220/1002
#fvcolorindex 25 25 24 
vt 1.604492 3.084961 0.0
vt 1.509766 3.178711 0.0
vt 0.375977 0.117188 0.0
f 155/1003 153/1004 220/1005
#fvcolorindex 25 25 24 
vt 0.979492 3.012695 0.0
vt 1.604492 3.084961 0.0
vt 0.375977 0.117188 0.0
f 157/1006 155/1007 220/1008
#fvcolorindex 25 25 24 
vt 0.000000 3.003906 0.0
vt 0.979492 3.012695 0.0
vt 0.375977 0.117188 0.0
f 159/1009 157/1010 220/1011
#fvcolorindex 25 25 24 
vt 0.000000 3.003906 0.0
vt 0.375977 0.117188 0.0
vt -0.758789 3.063477 0.0
f 159/1012 220/1013 148/1014
#fvcolorindex 25 24 25 
vt -0.758789 3.063477 0.0
vt 0.375977 0.117188 0.0
vt -0.853516 3.157227 0.0
f 148/1015 220/1016 145/1017
#fvcolorindex 25 24 25 
vt -0.853516 3.157227 0.0
vt 0.375977 0.117188 0.0
vt -0.228516 3.229492 0.0
f 145/1018 220/1019 149/1020
#fvcolorindex 25 24 25 
vt -0.228516 3.229492 0.0
vt 0.375977 0.117188 0.0
vt 0.750977 3.239258 0.0
v 63.000000 0.000000 -103.169266
#joint 35
#vjoint 221
f 165/1021 221/1022 167/1023
#fvcolorindex 25 24 25 
vt 1.509766 3.178711 0.0
vt 0.750977 3.239258 0.0
vt 0.375977 0.117188 0.0
f 169/1024 167/1025 221/1026
#fvcolorindex 25 25 24 
vt 1.604492 3.084961 0.0
vt 1.509766 3.178711 0.0
vt 0.375977 0.117188 0.0
f 171/1027 169/1028 221/1029
#fvcolorindex 25 25 24 
vt 0.979492 3.012695 0.0
vt 1.604492 3.084961 0.0
vt 0.375977 0.117188 0.0
f 173/1030 171/1031 221/1032
#fvcolorindex 25 25 24 
vt 0.000000 3.003906 0.0
vt 0.979492 3.012695 0.0
vt 0.375977 0.117188 0.0
f 175/1033 173/1034 221/1035
#fvcolorindex 25 25 24 
vt 0.000000 3.003906 0.0
vt 0.375977 0.117188 0.0
vt -0.758789 3.063477 0.0
f 175/1036 221/1037 164/1038
#fvcolorindex 25 24 25 
vt -0.758789 3.063477 0.0
vt 0.375977 0.117188 0.0
vt -0.853516 3.157227 0.0
f 164/1039 221/1040 161/1041
#fvcolorindex 25 24 25 
vt -0.853516 3.157227 0.0
vt 0.375977 0.117188 0.0
vt -0.228516 3.229492 0.0
f 161/1042 221/1043 165/1044
#fvcolorindex 25 24 25 
vt -0.228516 3.229492 0.0
vt 0.375977 0.117188 0.0
vt 0.750977 3.239258 0.0
v 0.000000 -62.000000 -103.169266
#joint 35
#vjoint 222
f 181/1045 222/1046 183/1047
#fvcolorindex 25 24 25 
vt 1.509766 3.178711 0.0
vt 0.750977 3.239258 0.0
vt 0.375977 0.117188 0.0
f 185/1048 183/1049 222/1050
#fvcolorindex 25 25 24 
vt 1.604492 3.084961 0.0
vt 1.509766 3.178711 0.0
vt 0.375977 0.117188 0.0
f 187/1051 185/1052 222/1053
#fvcolorindex 25 25 24 
vt 0.979492 3.012695 0.0
vt 1.604492 3.084961 0.0
vt 0.375977 0.117188 0.0
f 189/1054 187/1055 222/1056
#fvcolorindex 25 25 24 
vt 0.000000 3.003906 0.0
vt 0.979492 3.012695 0.0
vt 0.375977 0.117188 0.0
f 191/1057 189/1058 222/1059
#fvcolorindex 25 25 24 
vt 0.000000 3.003906 0.0
vt 0.375977 0.117188 0.0
vt -0.758789 3.063477 0.0
f 191/1060 222/1061 180/1062
#fvcolorindex 25 24 25 
vt -0.758789 3.063477 0.0
vt 0.375977 0.117188 0.0
vt -0.853516 3.157227 0.0
f 180/1063 222/1064 177/1065
#fvcolorindex 25 24 25 
vt -0.853516 3.157227 0.0
vt 0.375977 0.117188 0.0
vt -0.228516 3.229492 0.0
f 177/1066 222/1067 181/1068
#fvcolorindex 25 24 25 
vt -0.853516 3.157227 0.0
vt 0.375977 0.117188 0.0
vt -0.228516 3.229492 0.0
v -62.000000 0.000000 -103.169266
#joint 35
#vjoint 223
f 208/1069 223/1070 206/1071
#fvcolorindex 25 24 25 
vt -0.758789 3.063477 0.0
vt 0.375977 0.117188 0.0
vt -0.853516 3.157227 0.0
f 194/1072 223/1073 208/1074
#fvcolorindex 25 24 25 
vt 0.000000 3.003906 0.0
vt 0.375977 0.117188 0.0
vt -0.758789 3.063477 0.0
f 193/1075 223/1076 194/1077
#fvcolorindex 25 24 25 
vt 0.000000 3.003906 0.0
vt 0.979492 3.012695 0.0
vt 0.375977 0.117188 0.0
f 193/1078 198/1079 223/1080
#fvcolorindex 25 25 24 
vt 0.979492 3.012695 0.0
vt 1.604492 3.084961 0.0
vt 0.375977 0.117188 0.0
f 198/1081 200/1082 223/1083
#fvcolorindex 25 25 24 
vt 1.604492 3.084961 0.0
vt 1.509766 3.178711 0.0
vt 0.375977 0.117188 0.0
f 200/1084 202/1085 223/1086
#fvcolorindex 25 25 24 
vt 1.509766 3.178711 0.0
vt 0.750977 3.239258 0.0
vt 0.375977 0.117188 0.0
f 202/1087 204/1088 223/1089
#fvcolorindex 25 25 24 
vt -0.228516 3.229492 0.0
vt 0.375977 0.117188 0.0
vt 0.750977 3.239258 0.0
f 206/1090 223/1091 204/1092
#fvcolorindex 25 24 25 
usemtl m28
vt -0.340820 0.736328 0.0
vt -0.574219 0.799805 0.0
vt -0.592773 0.714844 0.0
#vcolor 106.000000 106.000000 106.000000 255.000000
f 207/1093 217/1094 219/1095
#fvcolorindex 24 19 26 
usemtl m40
vt -0.592773 0.714844 0.0
vt -0.311523 0.703125 0.0
vt -0.340820 0.736328 0.0
f 219/1096 195/1097 207/1098
#fvcolorindex 26 24 24 
usemtl m28
vt -0.311523 0.703125 0.0
vt -0.592773 0.714844 0.0
vt -0.003906 0.578125 0.0
f 195/1099 219/1100 122/1101
#fvcolorindex 24 26 22 
vt -0.311523 0.703125 0.0
vt -0.003906 0.578125 0.0
vt -0.228516 0.683594 0.0
f 195/1102 122/1103 196/1104
#fvcolorindex 24 22 24 
usemtl m23
vt -0.003906 0.578125 0.0
vt -0.139648 0.688477 0.0
vt -0.228516 0.683594 0.0
f 122/1105 197/1106 196/1107
#fvcolorindex 22 24 24 
usemtl m28
vt -0.139648 0.688477 0.0
vt -0.003906 0.578125 0.0
vt -0.003906 0.690430 0.0
f 197/1108 122/1109 142/1110
#fvcolorindex 24 22 18 
usemtl m18
vt -0.003906 0.690430 0.0
vt -0.003906 0.578125 0.0
vt 0.232422 0.635742 0.0
f 142/1111 122/1112 141/1113
#fvcolorindex 18 22 18 
usemtl m28
vt -0.097656 0.715820 0.0
vt -0.139648 0.688477 0.0
vt -0.003906 0.690430 0.0
f 199/1114 197/1115 142/1116
#fvcolorindex 24 24 18 
vt -0.097656 0.715820 0.0
vt -0.003906 0.690430 0.0
vt 0.003906 0.724609 0.0
f 199/1117 142/1118 143/1119
#fvcolorindex 24 18 18 
usemtl m20
vt 0.254883 0.738281 0.0
vt 0.052734 0.833008 0.0
vt 0.003906 0.724609 0.0
f 144/1120 216/1121 143/1122
#fvcolorindex 19 19 18 
usemtl m28
vt -0.125977 0.749023 0.0
vt -0.097656 0.715820 0.0
vt 0.003906 0.724609 0.0
f 201/1123 199/1124 143/1125
#fvcolorindex 24 24 18 
vt -0.125977 0.749023 0.0
vt 0.003906 0.724609 0.0
vt 0.052734 0.833008 0.0
f 201/1126 143/1127 216/1128
#fvcolorindex 24 18 19 
vt -0.125977 0.749023 0.0
vt 0.052734 0.833008 0.0
vt -0.209961 0.768555 0.0
f 201/1129 216/1130 203/1131
#fvcolorindex 24 19 24 
vt -0.209961 0.768555 0.0
vt 0.052734 0.833008 0.0
vt -0.574219 0.799805 0.0
f 203/1132 216/1133 217/1134
#fvcolorindex 24 19 19 
vt -0.209961 0.768555 0.0
vt -0.574219 0.799805 0.0
vt -0.297852 0.763672 0.0
f 203/1135 217/1136 205/1137
#fvcolorindex 24 19 24 
usemtl m20
vt -0.574219 0.799805 0.0
vt -0.340820 0.736328 0.0
vt -0.297852 0.763672 0.0
f 217/1138 207/1139 205/1140
#fvcolorindex 19 24 24 
usemtl m23
vt 0.192383 0.344727 0.0
vt 0.333008 0.418945 0.0
vt 0.250000 0.439453 0.0
f 121/1141 192/1142 179/1143
#fvcolorindex 22 19 19 
usemtl m20
vt 0.220703 0.472656 0.0
vt -0.003906 0.578125 0.0
vt 0.192383 0.344727 0.0
f 178/1144 122/1145 121/1146
#fvcolorindex 19 22 22 
vt 0.220703 0.472656 0.0
vt 0.192383 0.344727 0.0
vt 0.250000 0.439453 0.0
f 178/1147 121/1148 179/1149
#fvcolorindex 19 22 19 
vt 0.262695 0.499023 0.0
vt -0.003906 0.578125 0.0
vt 0.220703 0.472656 0.0
f 182/1150 122/1151 178/1152
#fvcolorindex 19 22 19 
vt 0.262695 0.499023 0.0
vt 0.310547 0.542969 0.0
vt -0.003906 0.578125 0.0
f 182/1153 140/1154 122/1155
#fvcolorindex 19 18 22 
vt 0.262695 0.499023 0.0
vt 0.351562 0.504883 0.0
vt 0.310547 0.542969 0.0
f 182/1156 184/1157 140/1158
#fvcolorindex 19 19 18 
usemtl m18
vt 0.232422 0.635742 0.0
vt -0.003906 0.578125 0.0
vt 0.310547 0.542969 0.0
f 141/1159 122/1160 140/1161
#fvcolorindex 18 22 18 
usemtl m20
vt 0.351562 0.504883 0.0
vt 0.408203 0.534180 0.0
vt 0.310547 0.542969 0.0
f 184/1162 137/1163 140/1164
#fvcolorindex 19 18 18 
vt 0.351562 0.504883 0.0
vt 0.435547 0.484375 0.0
vt 0.408203 0.534180 0.0
f 184/1165 186/1166 137/1167
#fvcolorindex 19 19 18 
usemtl m18
vt 0.408203 0.534180 0.0
vt 0.726562 0.516602 0.0
vt 0.524414 0.611328 0.0
f 137/1168 120/1169 135/1170
#fvcolorindex 18 22 18 
usemtl m20
vt 0.435547 0.484375 0.0
vt 0.726562 0.516602 0.0
vt 0.408203 0.534180 0.0
f 186/1171 120/1172 137/1173
#fvcolorindex 19 22 18 
usemtl m23
vt 0.726562 0.516602 0.0
vt 0.435547 0.484375 0.0
vt 0.463867 0.452148 0.0
f 120/1174 186/1175 188/1176
#fvcolorindex 22 19 19 
usemtl m20
vt 0.421875 0.424805 0.0
vt 0.436523 0.324219 0.0
vt 0.726562 0.516602 0.0
f 190/1177 119/1178 120/1179
#fvcolorindex 19 22 22 
vt 0.421875 0.424805 0.0
vt 0.726562 0.516602 0.0
vt 0.463867 0.452148 0.0
f 190/1180 120/1181 188/1182
#fvcolorindex 19 22 19 
usemtl m23
vt 0.436523 0.324219 0.0
vt 0.421875 0.424805 0.0
vt 0.333008 0.418945 0.0
f 119/1183 190/1184 192/1185
#fvcolorindex 22 19 19 
usemtl m20
vt 0.333008 0.418945 0.0
vt 0.192383 0.344727 0.0
vt 0.436523 0.324219 0.0
f 192/1186 121/1187 119/1188
#fvcolorindex 19 17 19 
vt 0.445312 0.930664 0.0
vt 0.585938 1.004883 0.0
vt 0.342773 1.025391 0.0
f 152/1189 115/1190 114/1191
#fvcolorindex 19 19 19 
vt 0.342773 1.025391 0.0
vt 0.356445 0.924805 0.0
vt 0.445312 0.930664 0.0
f 114/1192 150/1193 152/1194
#fvcolorindex 19 19 19 
vt 0.356445 0.924805 0.0
vt 0.342773 1.025391 0.0
vt 0.052734 0.833008 0.0
f 150/1195 114/1196 216/1197
#fvcolorindex 19 19 19 
vt 0.356445 0.924805 0.0
vt 0.052734 0.833008 0.0
vt 0.314453 0.898438 0.0
f 150/1198 216/1199 146/1200
#fvcolorindex 19 19 19 
vt 0.052734 0.833008 0.0
vt 0.343750 0.865234 0.0
vt 0.314453 0.898438 0.0
f 216/1201 147/1202 146/1203
#fvcolorindex 19 19 19 
vt 0.343750 0.865234 0.0
vt 0.052734 0.833008 0.0
vt 0.371094 0.815430 0.0
f 147/1204 216/1205 130/1206
#fvcolorindex 19 19 19 
vt 0.371094 0.815430 0.0
vt 0.052734 0.833008 0.0
vt 0.254883 0.738281 0.0
f 130/1207 216/1208 144/1209
#fvcolorindex 19 19 19 
vt 0.426758 0.844727 0.0
vt 0.343750 0.865234 0.0
vt 0.371094 0.815430 0.0
f 160/1210 147/1211 130/1212
#fvcolorindex 19 19 19 
vt 0.426758 0.844727 0.0
vt 0.371094 0.815430 0.0
vt 0.467773 0.806641 0.0
f 160/1213 130/1214 128/1215
#fvcolorindex 19 19 19 
vt 0.546875 0.713867 0.0
vt 0.782227 0.771484 0.0
vt 0.467773 0.806641 0.0
f 127/1216 209/1217 128/1218
#fvcolorindex 19 19 19 
vt 0.515625 0.850586 0.0
vt 0.426758 0.844727 0.0
vt 0.467773 0.806641 0.0
f 158/1219 160/1220 128/1221
#fvcolorindex 19 19 19 
vt 0.515625 0.850586 0.0
vt 0.467773 0.806641 0.0
vt 0.782227 0.771484 0.0
f 158/1222 128/1223 209/1224
#fvcolorindex 19 19 19 
vt 0.515625 0.850586 0.0
vt 0.782227 0.771484 0.0
vt 0.557617 0.876953 0.0
f 158/1225 209/1226 156/1227
#fvcolorindex 19 19 19 
vt 0.557617 0.876953 0.0
vt 0.782227 0.771484 0.0
vt 0.585938 1.004883 0.0
f 156/1228 209/1229 115/1230
#fvcolorindex 19 19 19 
vt 0.557617 0.876953 0.0
vt 0.585938 1.004883 0.0
vt 0.528320 0.910156 0.0
f 156/1231 115/1232 154/1233
#fvcolorindex 19 19 19 
vt 0.585938 1.004883 0.0
vt 0.445312 0.930664 0.0
vt 0.528320 0.910156 0.0
f 115/1234 152/1235 154/1236
#fvcolorindex 19 19 19 
usemtl m40
vt 1.353516 0.549805 0.0
vt 1.119141 0.613281 0.0
vt 1.077148 0.585938 0.0
f 218/1237 172/1238 174/1239
#fvcolorindex 26 24 24 
usemtl m28
vt 0.988281 0.581055 0.0
vt 0.726562 0.516602 0.0
vt 1.353516 0.549805 0.0
f 176/1240 120/1241 218/1242
#fvcolorindex 24 22 26 
vt 0.988281 0.581055 0.0
vt 1.353516 0.549805 0.0
vt 1.077148 0.585938 0.0
f 176/1243 218/1244 174/1245
#fvcolorindex 24 26 24 
vt 0.905273 0.600586 0.0
vt 0.726562 0.516602 0.0
vt 0.988281 0.581055 0.0
f 163/1246 120/1247 176/1248
#fvcolorindex 24 22 24 
vt 0.905273 0.600586 0.0
vt 0.775391 0.625000 0.0
vt 0.726562 0.516602 0.0
f 163/1249 131/1250 120/1251
#fvcolorindex 24 18 22 
vt 0.905273 0.600586 0.0
vt 0.875977 0.633789 0.0
vt 0.775391 0.625000 0.0
f 163/1252 162/1253 131/1254
#fvcolorindex 24 24 18 
usemtl m18
vt 0.524414 0.611328 0.0
vt 0.726562 0.516602 0.0
vt 0.775391 0.625000 0.0
f 135/1255 120/1256 131/1257
#fvcolorindex 18 19 18 
usemtl m28
vt 0.875977 0.633789 0.0
vt 0.782227 0.659180 0.0
vt 0.775391 0.625000 0.0
f 162/1258 126/1259 131/1260
#fvcolorindex 24 23 18 
vt 0.875977 0.633789 0.0
vt 0.917969 0.661133 0.0
vt 0.782227 0.659180 0.0
f 162/1261 166/1262 126/1263
#fvcolorindex 24 24 23 
usemtl m41
vt 0.782227 0.659180 0.0
vt 0.782227 0.771484 0.0
vt 0.546875 0.713867 0.0
f 126/1264 209/1265 127/1266
#fvcolorindex 23 19 19 
usemtl m28
vt 0.917969 0.661133 0.0
vt 0.782227 0.771484 0.0
vt 0.782227 0.659180 0.0
f 166/1267 209/1268 126/1269
#fvcolorindex 24 19 23 
usemtl m20
vt 0.782227 0.771484 0.0
vt 0.917969 0.661133 0.0
vt 1.006836 0.666016 0.0
f 209/1270 166/1271 168/1272
#fvcolorindex 19 24 24 
usemtl m28
vt 1.089844 0.646484 0.0
vt 1.372070 0.634766 0.0
vt 0.782227 0.771484 0.0
f 170/1273 210/1274 209/1275
#fvcolorindex 24 19 19 
vt 1.089844 0.646484 0.0
vt 0.782227 0.771484 0.0
vt 1.006836 0.666016 0.0
f 170/1276 209/1277 168/1278
#fvcolorindex 24 19 24 
usemtl m20
vt 1.372070 0.634766 0.0
vt 1.089844 0.646484 0.0
vt 1.119141 0.613281 0.0
f 210/1279 170/1280 172/1281
#fvcolorindex 19 24 24 
usemtl m28
vt 1.119141 0.613281 0.0
vt 1.353516 0.549805 0.0
vt 1.372070 0.634766 0.0
f 172/1282 218/1283 210/1284
#fvcolorindex 24 19 19 
