# Created by SubDrag and the GoldenEye Setup Editor V4.4
mtllib Gun000D.mtl
#joint 0
#jointposition 0.000000 -20.375574 35.330997
#joint 1
#jointposition -0.126130 -34.500000 -403.726105
#joint 2
#jointposition 0.000000 -20.375574 -74.143860
#joint 3
#jointposition 28.404760 -54.346611 -32.664295
#joint 4
#jointposition 50.075203 -78.841194 -10.664248
#joint 5
#jointposition 28.643808 -16.714527 20.778549
#joint 6
#jointposition 26.518341 -24.155291 60.154758
#joint 7
#jointposition 24.862719 -25.637974 87.085503
#joint 8
#jointposition 8.820322 -11.296313 21.695198
#joint 9
#jointposition 8.668717 -23.348385 71.418152
#joint 10
#jointposition 7.570724 -26.182207 98.349426
#joint 11
#jointposition -7.449821 -15.536673 21.601517
#joint 12
#jointposition -6.777197 -21.532187 62.353848
#joint 13
#jointposition -6.290760 -23.494061 85.077034
#joint 14
#jointposition -23.590879 -23.057791 21.828247
#joint 15
#jointposition -21.894306 -25.130569 56.929543
#joint 16
#jointposition -20.740978 -24.727604 74.077179
#joint 17
#jointposition 234.474915 -34.500000 -403.726013
#joint 18
#jointposition 234.348785 -20.375599 -74.143921
#joint 19
#jointposition 205.943985 -54.346600 -32.664322
#joint 20
#jointposition 184.273590 -78.841202 -10.664223
#joint 21
#jointposition 205.704987 -16.714600 20.778481
#joint 22
#jointposition 207.830490 -24.155300 60.154781
#joint 23
#jointposition 209.561584 -25.811800 87.094780
#joint 24
#jointposition 225.528473 -11.296299 21.695183
#joint 25
#jointposition 225.680069 -23.348400 71.418083
#joint 26
#jointposition 226.778076 -26.182199 98.349380
#joint 27
#jointposition 241.798599 -15.536699 21.601479
#joint 28
#jointposition 241.125977 -21.532200 62.353779
#joint 29
#jointposition 240.639542 -23.494101 85.076981
#joint 30
#jointposition 257.939697 -23.057798 21.828178
#joint 31
#jointposition 256.243103 -25.130598 56.929478
#joint 32
#jointposition 255.089798 -24.727598 74.077179
#joint 33
#jointposition 0.000000 -4.551114 -30.830456
#joint 34
#jointposition 0.000000 58.739994 117.249207
#joint 35
#jointposition 0.000000 35.614014 264.375031
#joint 36
#jointposition 0.000000 35.614014 299.674622
#joint 37
#jointposition 0.000000 35.614014 332.242340
#joint 38
#jointposition 29.680286 52.830105 -35.195690
#joint 39
#jointposition 0.000000 36.871830 -217.591782
#joint 40
#jointposition 204.400208 36.871830 -217.591812
#connection 0 1
#connection 1 2
#connection 2 3
#connection 3 4
#connection 2 5
#connection 5 6
#connection 6 7
#connection 2 8
#connection 8 9
#connection 9 10
#connection 2 11
#connection 11 12
#connection 12 13
#connection 2 14
#connection 14 15
#connection 15 16
#connection 2 33
#connection 33 34
#connection 33 35
#connection 35 36
#connection 35 37
#connection 33 38
#connection 33 39
#connection 0 17
#connection 17 18
#connection 18 19
#connection 19 20
#connection 18 21
#connection 21 22
#connection 22 23
#connection 18 24
#connection 24 25
#connection 25 26
#connection 18 27
#connection 27 28
#connection 28 29
#connection 18 30
#connection 30 31
#connection 31 32
#connection 18 40
g Room01
g Room01_primary
usemtl m0CullBoth
vt 0.803711 -0.746582 0.0
vt 0.276367 -0.746582 0.0
vt 0.364258 -0.922363 0.0
v 18.000000 59.448887 -257.830444
#joint 33
#vjoint 1
#vcolor 226.000000 226.000000 226.000000 255.000000
v -18.000000 59.448887 -257.830444
#joint 33
#vjoint 2
v -12.000000 82.448883 -257.830444
#joint 33
#vjoint 3
f 1/1 2/2 3/3
#fvcolorindex 1 1 1 
vt 0.803711 -0.746582 0.0
vt 0.364258 -0.922363 0.0
vt 0.715820 -0.922363 0.0
v 12.000000 82.448883 -257.830444
#joint 33
#vjoint 4
f 1/4 3/5 4/6
#fvcolorindex 1 1 1 
vt 0.100586 -0.658691 0.0
vt 0.276367 -0.746582 0.0
vt 0.803711 -0.746582 0.0
v -29.000000 47.448887 -257.830444
#joint 33
#vjoint 5
f 5/7 2/8 1/9
#fvcolorindex 1 1 1 
vt 0.100586 -0.658691 0.0
vt 0.803711 -0.746582 0.0
vt 0.979492 -0.658691 0.0
v 29.000000 47.448887 -257.830444
#joint 33
#vjoint 6
f 5/10 1/11 6/12
#fvcolorindex 1 1 1 
vt 0.979492 -0.483398 0.0
vt 0.100586 -0.483398 0.0
vt 0.100586 -0.658691 0.0
v 29.000000 23.448887 -257.830444
#joint 33
#vjoint 7
v -29.000000 23.448887 -257.830444
#joint 33
#vjoint 8
f 7/13 8/14 5/15
#fvcolorindex 1 1 1 
vt 0.979492 -0.483398 0.0
vt 0.100586 -0.658691 0.0
vt 0.979492 -0.658691 0.0
f 7/16 5/17 6/18
#fvcolorindex 1 1 1 
vt 0.891602 -0.395508 0.0
vt 0.188477 -0.395508 0.0
vt 0.100586 -0.483398 0.0
v 23.000000 12.448886 -257.830444
#joint 33
#vjoint 9
v -23.000000 12.448886 -257.830444
#joint 33
#vjoint 10
f 9/19 10/20 8/21
#fvcolorindex 1 1 1 
vt 0.891602 -0.395508 0.0
vt 0.100586 -0.483398 0.0
vt 0.979492 -0.483398 0.0
f 9/22 8/23 7/24
#fvcolorindex 1 1 1 
vt 0.891602 -0.219727 0.0
vt 0.188477 -0.219727 0.0
vt 0.188477 -0.395508 0.0
v 23.000000 -11.551114 -257.830444
#joint 33
#vjoint 11
v -23.000000 -11.551114 -257.830444
#joint 33
#vjoint 12
f 11/25 12/26 10/27
#fvcolorindex 1 1 1 
vt 0.891602 -0.219727 0.0
vt 0.188477 -0.395508 0.0
vt 0.891602 -0.395508 0.0
f 11/28 10/29 9/30
#fvcolorindex 1 1 1 
vt 0.803711 0.000000 0.0
vt 0.276367 0.000000 0.0
vt 0.188477 -0.219727 0.0
v 18.000000 -40.551113 -257.830444
#joint 33
#vjoint 13
v -18.000000 -40.551113 -257.830444
#joint 33
#vjoint 14
f 13/31 14/32 12/33
#fvcolorindex 1 1 1 
vt 0.803711 0.000000 0.0
vt 0.188477 -0.219727 0.0
vt 0.891602 -0.219727 0.0
f 13/34 12/35 11/36
#fvcolorindex 1 1 1 
usemtl m1CullBoth
vt 0.834961 0.920410 0.0
vt 0.916016 0.003906 0.0
vt 0.972656 0.008789 0.0
v 30.000000 -16.551113 206.169540
#joint 33
#vjoint 15
#vcolor 254.000000 254.000000 254.000000 255.000000
v 30.000000 -16.551113 41.169544
#joint 33
#vjoint 16
v 23.000000 -11.551114 37.169544
#joint 33
#vjoint 17
#vcolor 0.000000 0.000000 0.000000 255.000000
f 15/37 16/38 17/39
#fvcolorindex 2 2 3 
vt 0.834961 0.920410 0.0
vt 0.972656 0.008789 0.0
vt 0.892578 0.924805 0.0
v 25.000000 -11.551114 206.169540
#joint 33
#vjoint 18
f 15/40 17/41 18/42
#fvcolorindex 2 3 3 
vt 1.014648 1.021973 0.0
vt 1.016602 0.005859 0.0
vt 0.964844 -0.001465 0.0
v -25.000000 -11.551114 206.169540
#joint 33
#vjoint 19
v -23.000000 -11.551114 37.169544
#joint 33
#vjoint 20
v -30.000000 -16.551113 41.169544
#joint 33
#vjoint 21
f 19/43 20/44 21/45
#fvcolorindex 2 2 2 
vt 1.014648 1.021973 0.0
vt 0.964844 -0.001465 0.0
vt 0.963867 1.014648 0.0
v -30.000000 -16.551113 206.169540
#joint 33
#vjoint 22
f 19/46 21/47 22/48
#fvcolorindex 2 2 2 
vt 0.916016 0.003906 0.0
vt 0.834961 0.920410 0.0
vt 0.672852 0.791016 0.0
v 30.000000 -27.551113 184.169540
#joint 33
#vjoint 23
f 16/49 15/50 23/51
#fvcolorindex 2 2 2 
vt 0.916016 0.003906 0.0
vt 0.672852 0.791016 0.0
vt 0.614258 0.460449 0.0
v 30.000000 -32.551113 126.169540
#joint 33
#vjoint 24
f 16/52 23/53 24/54
#fvcolorindex 2 2 2 
vt 0.381836 0.803223 0.0
vt 0.672852 0.791016 0.0
vt 0.834961 0.920410 0.0
v 25.000000 -43.551113 190.169540
#joint 33
#vjoint 25
f 25/55 23/56 15/57
#fvcolorindex 2 2 2 
vt 0.381836 0.803223 0.0
vt 0.834961 0.920410 0.0
vt 0.229492 0.881836 0.0
v 30.000000 -53.551113 206.169540
#joint 33
#vjoint 26
f 25/58 15/59 26/60
#fvcolorindex 2 2 2 
vt 0.352539 0.147949 0.0
vt 0.916016 0.003906 0.0
vt 0.614258 0.460449 0.0
v 25.000000 -48.551113 73.169540
#joint 33
#vjoint 27
f 27/61 16/62 24/63
#fvcolorindex 2 2 2 
vt 0.352539 0.147949 0.0
vt 0.614258 0.460449 0.0
vt 0.324219 0.472656 0.0
v 25.000000 -48.551113 131.169540
#joint 33
#vjoint 28
f 27/64 24/65 28/66
#fvcolorindex 2 2 2 
vt 0.419922 0.947266 0.0
vt 0.550781 0.866211 0.0
vt 0.318359 0.846191 0.0
v -30.000000 -53.551113 206.169540
#joint 33
#vjoint 29
v -25.000000 -43.551113 190.169540
#joint 33
#vjoint 30
f 29/67 30/68 25/69
#fvcolorindex 2 2 2 
vt 0.419922 0.947266 0.0
vt 0.318359 0.846191 0.0
vt 0.137695 0.923340 0.0
f 29/70 25/71 26/72
#fvcolorindex 2 2 2 
vt 0.241211 0.476074 0.0
vt 0.473633 0.495605 0.0
vt 0.473633 0.135254 0.0
v -25.000000 -48.551113 131.169540
#joint 33
#vjoint 31
v -25.000000 -48.551113 73.169540
#joint 33
#vjoint 32
f 28/73 31/74 32/75
#fvcolorindex 2 2 2 
vt 0.241211 0.476074 0.0
vt 0.473633 0.135254 0.0
vt 0.241211 0.115234 0.0
f 28/76 32/77 27/78
#fvcolorindex 2 2 2 
vt 0.137695 0.923340 0.0
vt 0.681641 0.990723 0.0
vt 0.963867 1.014648 0.0
f 26/79 15/80 22/81
#fvcolorindex 2 2 2 
vt 0.137695 0.923340 0.0
vt 0.963867 1.014648 0.0
vt 0.419922 0.947266 0.0
f 26/82 22/83 29/84
#fvcolorindex 2 2 2 
vt 0.672852 0.791016 0.0
vt 0.381836 0.803223 0.0
vt 0.324219 0.472656 0.0
f 23/85 25/86 28/87
#fvcolorindex 2 3 3 
vt 0.672852 0.791016 0.0
vt 0.324219 0.472656 0.0
vt 0.614258 0.460449 0.0
f 23/88 28/89 24/90
#fvcolorindex 2 3 2 
vt 0.318359 0.846191 0.0
vt 0.550781 0.866211 0.0
vt 0.473633 0.495605 0.0
f 25/91 30/92 31/93
#fvcolorindex 2 2 2 
vt 0.318359 0.846191 0.0
vt 0.473633 0.495605 0.0
vt 0.241211 0.476074 0.0
f 25/94 31/95 28/96
#fvcolorindex 2 2 2 
vt 0.419922 0.947266 0.0
vt 0.963867 1.014648 0.0
vt 0.808594 0.864258 0.0
v -30.000000 -27.551113 184.169540
#joint 33
#vjoint 33
f 29/97 22/98 33/99
#fvcolorindex 2 2 2 
vt 0.419922 0.947266 0.0
vt 0.808594 0.864258 0.0
vt 0.550781 0.866211 0.0
f 29/100 33/101 30/102
#fvcolorindex 2 2 2 
vt 0.731445 0.494141 0.0
vt 0.473633 0.495605 0.0
vt 0.550781 0.866211 0.0
v -30.000000 -32.551113 126.169540
#joint 33
#vjoint 34
f 34/103 31/104 30/105
#fvcolorindex 2 3 3 
vt 0.731445 0.494141 0.0
vt 0.550781 0.866211 0.0
vt 0.808594 0.864258 0.0
f 34/106 30/107 33/108
#fvcolorindex 2 3 2 
vt 0.731445 0.494141 0.0
vt 0.808594 0.864258 0.0
vt 0.963867 1.014648 0.0
f 34/109 33/110 22/111
#fvcolorindex 2 2 2 
vt 0.731445 0.494141 0.0
vt 0.963867 1.014648 0.0
vt 0.964844 -0.001465 0.0
f 34/112 22/113 21/114
#fvcolorindex 2 2 2 
vt 0.473633 0.495605 0.0
vt 0.731445 0.494141 0.0
vt 0.964844 -0.001465 0.0
f 31/115 34/116 21/117
#fvcolorindex 2 2 2 
vt 0.473633 0.495605 0.0
vt 0.964844 -0.001465 0.0
vt 0.473633 0.135254 0.0
f 31/118 21/119 32/120
#fvcolorindex 2 2 2 
vt 0.473633 0.135254 0.0
vt 0.964844 -0.001465 0.0
vt 0.682617 -0.025879 0.0
f 32/121 21/122 16/123
#fvcolorindex 2 2 2 
vt 0.473633 0.135254 0.0
vt 0.682617 -0.025879 0.0
vt 0.241211 0.115234 0.0
f 32/124 16/125 27/126
#fvcolorindex 2 2 2 
vt 0.964844 -0.001465 0.0
vt 1.016602 0.005859 0.0
vt 0.784180 -0.014160 0.0
f 21/127 20/128 17/129
#fvcolorindex 2 2 2 
vt 0.964844 -0.001465 0.0
vt 0.784180 -0.014160 0.0
vt 0.682617 -0.025879 0.0
f 21/130 17/131 16/132
#fvcolorindex 2 2 2 
usemtl m2CullBoth
vt 0.931641 0.971680 0.0
vt 1.000000 1.000000 0.0
vt 0.640625 0.792969 0.0
v -12.000000 -11.551114 -81.830460
#joint 33
#vjoint 35
#vcolor 67.000000 67.000000 67.000000 255.000000
v 12.000000 -11.551114 -81.830460
#joint 33
#vjoint 36
v 6.000000 -28.551113 -70.830460
#joint 33
#vjoint 37
f 35/133 36/134 37/135
#fvcolorindex 4 4 1 
vt 0.931641 0.971680 0.0
vt 0.640625 0.792969 0.0
vt 0.606445 0.779297 0.0
v -6.000000 -28.551113 -70.830460
#joint 33
#vjoint 38
f 35/136 37/137 38/138
#fvcolorindex 4 1 1 
usemtl m0CullBoth
vt 1.000000 0.794434 0.0
vt 0.859375 0.794434 0.0
vt 0.859375 0.637207 0.0
v 6.000000 -46.551113 -70.830460
#joint 33
#vjoint 39
f 38/139 37/140 39/141
#fvcolorindex 1 1 1 
vt 1.000000 0.794434 0.0
vt 0.859375 0.637207 0.0
vt 1.000000 0.637207 0.0
v -6.000000 -46.551113 -70.830460
#joint 33
#vjoint 40
f 38/142 39/143 40/144
#fvcolorindex 1 1 1 
vt 1.000000 0.637207 0.0
vt 0.859375 0.637207 0.0
vt 0.859375 0.000000 0.0
v 6.000000 -87.551117 -105.830460
#joint 33
#vjoint 41
#vcolor 186.000000 186.000000 186.000000 255.000000
f 40/145 39/146 41/147
#fvcolorindex 1 1 5 
vt 1.000000 0.637207 0.0
vt 0.859375 0.000000 0.0
vt 1.000000 0.000000 0.0
v -6.000000 -87.551117 -105.830460
#joint 33
#vjoint 42
f 40/148 41/149 42/150
#fvcolorindex 1 5 2 
vt 0.153320 1.063477 0.0
vt 0.640625 0.792969 0.0
vt 1.000000 1.000000 0.0
v 6.000000 -11.551114 -40.830456
#joint 33
#vjoint 43
f 43/151 37/152 36/153
#fvcolorindex 1 1 1 
vt 0.153320 1.063477 0.0
vt -0.202148 1.093262 0.0
vt -0.087891 0.787109 0.0
v 6.000000 -11.551114 -22.830456
#joint 33
#vjoint 44
v 12.000000 -34.551113 -34.830456
#joint 33
#vjoint 45
f 43/154 44/155 45/156
#fvcolorindex 1 1 1 
vt 0.640625 0.792969 0.0
vt 0.153320 1.063477 0.0
vt -0.087891 0.787109 0.0
f 37/157 43/158 45/159
#fvcolorindex 1 1 1 
vt 0.794922 0.722168 0.0
vt 1.000000 1.000000 0.0
vt 0.264648 0.985840 0.0
f 39/160 37/161 45/162
#fvcolorindex 1 1 1 
vt 0.794922 0.722168 0.0
vt 0.264648 0.985840 0.0
vt 0.000000 0.000000 0.0
v 0.000000 -93.551117 -58.830456
#joint 33
#vjoint 46
f 39/163 45/164 46/165
#fvcolorindex 1 1 1 
vt 0.000000 0.000000 0.0
vt 1.000000 0.000000 0.0
vt 0.794922 0.722168 0.0
f 46/166 41/167 39/168
#fvcolorindex 1 1 1 
vt -0.171875 -0.129395 0.0
vt 1.000000 0.000000 0.0
vt 0.000000 0.000000 0.0
v 6.000000 -105.551117 -52.830456
#joint 33
#vjoint 47
f 47/169 41/170 46/171
#fvcolorindex 1 1 1 
vt 1.000000 0.000000 0.0
vt 0.666992 0.992676 0.0
vt 0.000000 0.000000 0.0
v 0.000000 -40.551113 -22.830456
#joint 33
#vjoint 48
f 48/172 46/173 45/174
#fvcolorindex 1 1 1 
vt 0.000000 0.000000 0.0
vt 0.666992 0.764160 0.0
vt 1.000000 0.000000 0.0
v -12.000000 -34.551113 -34.830456
#joint 33
#vjoint 49
f 49/175 46/176 48/177
#fvcolorindex 1 1 1 
usemtl m1CullBoth
vt 0.965820 -0.014160 0.0
vt -0.206055 -0.143555 0.0
vt 0.000000 0.000000 0.0
v -6.000000 -105.551117 -52.830456
#joint 33
#vjoint 50
f 42/178 50/179 46/180
#fvcolorindex 2 1 1 
usemtl m0CullBoth
vt 0.794922 0.722168 0.0
vt 0.000000 0.000000 0.0
vt 0.264648 0.985840 0.0
f 40/181 46/182 49/183
#fvcolorindex 1 1 1 
usemtl m3CullBoth
vt 1.000000 0.000000 0.0
vt 0.000000 0.000000 0.0
vt 0.794922 0.722168 0.0
#vcolor 152.000000 152.000000 152.000000 255.000000
f 42/184 46/185 40/186
#fvcolorindex 6 1 1 
usemtl m0CullBoth
vt 0.794922 0.722168 0.0
vt 0.264648 0.985840 0.0
vt 1.000000 1.000000 0.0
f 40/187 49/188 38/189
#fvcolorindex 1 1 1 
vt 1.000000 0.342773 0.0
vt 0.233398 0.403809 0.0
vt 0.000000 0.000000 0.0
v -6.000000 -11.551114 -40.830456
#joint 33
#vjoint 51
#vcolor 195.000000 195.000000 195.000000 255.000000
f 38/190 49/191 51/192
#fvcolorindex 1 1 7 
usemtl m4CullBoth
vt 1.000000 0.000000 0.0
vt 1.000000 0.342773 0.0
vt 0.000000 0.000000 0.0
#vcolor 124.000000 124.000000 124.000000 255.000000
f 35/193 38/194 51/195
#fvcolorindex 8 1 7 
usemtl m5CullBoth
vt 0.000000 0.000000 0.0
vt 0.915039 0.573730 0.0
vt 1.000000 0.000000 0.0
v -6.000000 -11.551114 -22.830456
#joint 33
#vjoint 52
#vcolor 221.000000 221.000000 221.000000 255.000000
f 51/196 49/197 52/198
#fvcolorindex 7 1 9 
usemtl m0CullBoth
vt -0.171875 -0.129395 0.0
vt 0.000000 0.000000 0.0
vt -0.206055 -0.143555 0.0
f 47/199 46/200 50/201
#fvcolorindex 1 1 1 
usemtl m6CullBoth
vt 0.500000 1.000000 0.0
vt 0.000000 0.000000 0.0
vt 1.000000 0.000000 0.0
#vcolor 118.000000 118.000000 118.000000 255.000000
#vcolor 229.000000 229.000000 229.000000 255.000000
f 52/202 49/203 45/204
#fvcolorindex 10 11 11 
vt 0.500000 1.000000 0.0
vt 1.000000 0.000000 0.0
vt 1.000000 1.000000 0.0
f 52/205 45/206 44/207
#fvcolorindex 10 11 10 
usemtl m7CullBoth
vt 0.000000 1.200195 0.0
vt -0.299805 0.900391 0.0
vt -0.299805 0.299805 0.0
v 35.000000 47.448887 206.169540
#joint 33
#vjoint 53
v 18.000000 65.448883 206.169540
#joint 33
#vjoint 54
v -18.000000 65.448883 206.169540
#joint 33
#vjoint 55
f 53/208 54/209 55/210
#fvcolorindex 1 1 1 
vt 0.000000 1.200195 0.0
vt -0.299805 0.299805 0.0
vt 0.000000 0.000000 0.0
v -35.000000 47.448887 206.169540
#joint 33
#vjoint 56
f 53/211 55/212 56/213
#fvcolorindex 1 1 1 
vt 1.000000 0.000000 0.0
vt 1.000000 1.200195 0.0
vt 0.000000 1.200195 0.0
v -35.000000 -11.551114 206.169540
#joint 33
#vjoint 57
v 35.000000 -11.551114 206.169540
#joint 33
#vjoint 58
f 57/214 58/215 53/216
#fvcolorindex 1 1 1 
vt 1.000000 0.000000 0.0
vt 0.000000 1.200195 0.0
vt 0.000000 0.000000 0.0
f 57/217 53/218 56/219
#fvcolorindex 1 1 1 
vt 1.000000 0.181641 0.0
vt 1.088867 0.090820 0.0
vt 1.088867 1.109375 0.0
f 19/220 22/221 15/222
#fvcolorindex 1 1 1 
vt 1.000000 0.181641 0.0
vt 1.088867 1.109375 0.0
vt 1.000000 1.018555 0.0
f 19/223 15/224 18/225
#fvcolorindex 1 1 1 
usemtl m8CullBoth
vt 0.000000 0.000000 0.0
vt 0.000000 2.640625 0.0
vt 1.000000 2.640625 0.0
v 23.000000 -11.551114 -40.830456
#joint 33
#vjoint 59
v -23.000000 -11.551114 -40.830456
#joint 33
#vjoint 60
f 11/226 59/227 60/228
#fvcolorindex 4 4 4 
vt 0.000000 0.000000 0.0
vt 1.000000 2.640625 0.0
vt 1.000000 0.000000 0.0
f 11/229 60/230 12/231
#fvcolorindex 4 4 4 
vt 0.000000 2.640625 0.0
vt 0.000000 3.583008 0.0
vt 1.000000 3.583008 0.0
f 59/232 17/233 20/234
#fvcolorindex 4 4 4 
vt 0.000000 2.640625 0.0
vt 1.000000 3.583008 0.0
vt 1.000000 2.640625 0.0
f 59/235 20/236 60/237
#fvcolorindex 4 4 4 
usemtl m7CullBoth
vt 0.000000 2.640625 0.0
vt -0.125000 2.640625 0.0
vt -0.125000 3.353516 0.0
v 29.000000 -11.551114 -40.830456
#joint 33
#vjoint 61
v 29.000000 -11.551114 18.169544
#joint 33
#vjoint 62
f 59/238 61/239 62/240
#fvcolorindex 1 1 1 
vt 0.000000 2.640625 0.0
vt -0.125000 3.353516 0.0
vt 0.000000 3.583008 0.0
f 59/241 62/242 17/243
#fvcolorindex 1 1 1 
vt 0.000000 3.583008 0.0
vt -0.125000 3.353516 0.0
vt -0.250000 3.425781 0.0
v 35.000000 -11.551114 23.169544
#joint 33
#vjoint 63
f 17/244 62/245 63/246
#fvcolorindex 1 1 1 
vt -0.023438 5.637695 0.0
vt 0.000000 3.583008 0.0
vt -0.250000 3.425781 0.0
f 18/247 17/248 63/249
#fvcolorindex 1 1 1 
vt -0.023438 5.637695 0.0
vt -0.250000 3.425781 0.0
vt -0.250000 5.637695 0.0
f 18/250 63/251 58/252
#fvcolorindex 1 1 1 
vt 1.000000 3.583008 0.0
vt 1.125000 3.353516 0.0
vt 1.125000 2.640625 0.0
v -29.000000 -11.551114 18.169544
#joint 33
#vjoint 64
v -29.000000 -11.551114 -40.830456
#joint 33
#vjoint 65
f 20/253 64/254 65/255
#fvcolorindex 1 1 1 
vt 1.000000 3.583008 0.0
vt 1.125000 2.640625 0.0
vt 1.000000 2.640625 0.0
f 20/256 65/257 60/258
#fvcolorindex 1 1 1 
vt 1.000000 3.583008 0.0
vt 1.250000 3.425781 0.0
vt 1.125000 3.353516 0.0
v -35.000000 -11.551114 23.169544
#joint 33
#vjoint 66
f 20/259 66/260 64/261
#fvcolorindex 1 1 1 
vt 1.250000 3.425781 0.0
vt 1.000000 3.583008 0.0
vt 1.023438 5.637695 0.0
f 66/262 20/263 19/264
#fvcolorindex 1 1 1 
vt 1.250000 3.425781 0.0
vt 1.023438 5.637695 0.0
vt 1.250000 5.637695 0.0
f 66/265 19/266 57/267
#fvcolorindex 1 1 1 
usemtl m9CullBoth
vt -1.137695 0.000000 0.0
vt -0.948242 0.000000 0.0
vt -0.948242 2.001953 0.0
#vcolor 242.000000 242.000000 242.000000 255.000000
v -29.000000 47.448887 -70.830460
#joint 33
#vjoint 67
f 2/268 5/269 67/270
#fvcolorindex 2 12 12 
vt -1.137695 0.000000 0.0
vt -0.948242 2.001953 0.0
vt -1.137695 2.001953 0.0
v -18.000000 59.448887 -70.830460
#joint 33
#vjoint 68
f 2/271 67/272 68/273
#fvcolorindex 2 12 2 
usemtl m10CullBoth
vt -0.569336 0.000000 0.0
vt -0.569336 2.001953 0.0
vt -0.948242 2.001953 0.0
v -29.000000 23.448887 -70.830460
#joint 33
#vjoint 69
f 8/274 69/275 67/276
#fvcolorindex 8 8 12 
vt -0.569336 0.000000 0.0
vt -0.948242 2.001953 0.0
vt -0.948242 0.000000 0.0
f 8/277 67/278 5/279
#fvcolorindex 8 12 12 
vt -0.378906 0.000000 0.0
vt -0.378906 2.440430 0.0
vt -0.569336 2.001953 0.0
v -23.000000 12.448886 -28.830456
#joint 33
#vjoint 70
#vcolor 104.000000 104.000000 104.000000 255.000000
f 10/280 70/281 69/282
#fvcolorindex 8 13 8 
vt -0.378906 0.000000 0.0
vt -0.569336 2.001953 0.0
vt -0.569336 0.000000 0.0
f 10/283 69/284 8/285
#fvcolorindex 8 8 8 
usemtl m11CullBoth
vt 0.000000 0.000000 0.0
vt 0.000000 2.315430 0.0
vt -0.378906 2.440430 0.0
#vcolor 155.000000 155.000000 155.000000 255.000000
#vcolor 174.000000 174.000000 174.000000 255.000000
f 12/286 60/287 70/288
#fvcolorindex 14 15 13 
vt 0.000000 0.000000 0.0
vt -0.378906 2.440430 0.0
vt -0.378906 0.000000 0.0
f 12/289 70/290 10/291
#fvcolorindex 14 13 8 
usemtl m10CullBoth
vt -0.569336 2.001953 0.0
vt -0.378906 2.440430 0.0
vt -0.569336 2.502930 0.0
v -29.000000 23.448887 -22.830456
#joint 33
#vjoint 71
#vcolor 141.000000 141.000000 141.000000 255.000000
f 69/292 70/293 71/294
#fvcolorindex 8 13 16 
usemtl m12CullBoth
vt 0.823242 -2.719727 0.0
vt 1.023438 -2.874023 0.0
vt 1.024414 0.224609 0.0
v 7.000000 94.448883 65.169540
#joint 33
#vjoint 72
v 5.000000 102.448883 59.169544
#joint 33
#vjoint 73
v 4.000000 102.448883 173.169540
#joint 33
#vjoint 74
f 72/295 73/296 74/297
#fvcolorindex 9 2 2 
vt 0.823242 -2.719727 0.0
vt 1.024414 0.224609 0.0
vt 0.824219 0.000000 0.0
v 7.000000 94.448883 165.169540
#joint 33
#vjoint 75
f 72/298 74/299 75/300
#fvcolorindex 9 2 9 
usemtl m9CullBoth
vt 0.677734 3.043945 0.0
vt 0.417969 3.204102 0.0
vt 0.416992 0.000000 0.0
v 5.000000 123.448883 49.169544
#joint 33
#vjoint 76
v 3.000000 129.448883 41.169544
#joint 33
#vjoint 77
v 3.000000 129.448883 206.169540
#joint 33
#vjoint 78
f 76/301 77/302 78/303
#fvcolorindex 2 9 9 
vt 0.677734 3.043945 0.0
vt 0.416992 0.000000 0.0
vt 0.676758 0.160156 0.0
v 4.000000 123.448883 197.169540
#joint 33
#vjoint 79
f 76/304 78/305 79/306
#fvcolorindex 2 9 2 
vt 0.843750 -1.530273 0.0
vt 1.054688 -1.700195 0.0
vt 1.054688 0.000000 0.0
f 79/307 78/308 54/309
#fvcolorindex 2 9 2 
vt 0.843750 -1.530273 0.0
vt 1.054688 0.000000 0.0
vt 0.843750 0.000000 0.0
v 18.000000 65.448883 197.169540
#joint 33
#vjoint 80
f 79/310 54/311 80/312
#fvcolorindex 2 2 2 
vt 1.046875 1.016602 0.0
vt 0.827148 1.307617 0.0
vt 0.827148 0.000000 0.0
v 18.000000 65.448883 173.169540
#joint 33
#vjoint 81
f 75/313 74/314 81/315
#fvcolorindex 2 9 2 
vt 1.046875 1.016602 0.0
vt 0.827148 0.000000 0.0
vt 1.046875 0.000000 0.0
v 18.000000 65.448883 165.169540
#joint 33
#vjoint 82
f 75/316 81/317 82/318
#fvcolorindex 2 2 2 
vt 0.841797 0.000000 0.0
vt 1.000000 0.000000 0.0
vt 0.986328 0.790039 0.0
v 18.000000 59.448887 47.169544
#joint 33
#vjoint 83
v 18.000000 59.448887 38.169544
#joint 33
#vjoint 84
f 83/319 84/320 73/321
#fvcolorindex 2 2 9 
vt 0.841797 0.000000 0.0
vt 0.986328 0.790039 0.0
vt 0.819336 0.635742 0.0
f 83/322 73/323 72/324
#fvcolorindex 2 9 2 
vt 0.554688 0.000000 0.0
vt 0.746094 0.000000 0.0
vt 0.749023 1.744141 0.0
v 18.000000 59.448887 14.169544
#joint 33
#vjoint 85
v 18.000000 59.448887 6.169544
#joint 33
#vjoint 86
f 85/325 86/326 77/327
#fvcolorindex 2 2 9 
vt 0.554688 0.000000 0.0
vt 0.749023 1.744141 0.0
vt 0.480469 1.582031 0.0
f 85/328 77/329 76/330
#fvcolorindex 2 9 2 
vt -1.137695 2.001953 0.0
vt -0.948242 2.001953 0.0
vt -0.948242 0.000000 0.0
v 18.000000 59.448887 -70.830460
#joint 33
#vjoint 87
v 29.000000 47.448887 -70.830460
#joint 33
#vjoint 88
f 87/331 88/332 6/333
#fvcolorindex 2 12 12 
vt -1.137695 2.001953 0.0
vt -0.948242 0.000000 0.0
vt -1.137695 0.000000 0.0
f 87/334 6/335 1/336
#fvcolorindex 2 12 2 
usemtl m13CullBoth
vt -0.948242 0.000000 0.0
vt -0.948242 2.001953 0.0
vt -0.569336 2.001953 0.0
v 29.000000 23.448887 -70.830460
#joint 33
#vjoint 89
f 6/337 88/338 89/339
#fvcolorindex 12 12 8 
vt -0.948242 0.000000 0.0
vt -0.569336 2.001953 0.0
vt -0.569336 0.000000 0.0
f 6/340 89/341 7/342
#fvcolorindex 12 8 8 
usemtl m10CullBoth
vt -0.569336 0.000000 0.0
vt -0.569336 2.001953 0.0
vt -0.378906 2.440430 0.0
v 23.000000 12.448886 -28.830456
#joint 33
#vjoint 90
f 7/343 89/344 90/345
#fvcolorindex 8 8 13 
vt -0.569336 0.000000 0.0
vt -0.378906 2.440430 0.0
vt -0.378906 0.000000 0.0
f 7/346 90/347 9/348
#fvcolorindex 8 13 8 
vt -0.378906 0.000000 0.0
vt -0.378906 2.440430 0.0
vt 0.000000 2.315430 0.0
f 9/349 90/350 59/351
#fvcolorindex 8 13 15 
vt -0.378906 0.000000 0.0
vt 0.000000 2.315430 0.0
vt 0.000000 0.000000 0.0
f 9/352 59/353 11/354
#fvcolorindex 8 15 14 
usemtl m14CullBoth
vt -0.569336 2.502930 0.0
vt -0.378906 2.440430 0.0
vt -0.569336 2.001953 0.0
v 29.000000 23.448887 -22.830456
#joint 33
#vjoint 91
f 91/355 90/356 89/357
#fvcolorindex 16 13 8 
usemtl m9CullBoth
vt 1.001953 1.998047 0.0
vt 0.196289 1.971680 0.0
vt 1.000000 -0.442383 0.0
v 0.000000 59.448887 -164.830460
#joint 33
#vjoint 92
#vcolor 208.000000 208.000000 208.000000 255.000000
f 1/358 4/359 92/360
#fvcolorindex 2 2 17 
vt 0.465820 0.000000 0.0
vt 0.465820 2.008789 0.0
vt 0.593750 1.004883 0.0
#vcolor 203.000000 203.000000 203.000000 255.000000
f 87/361 1/362 92/363
#fvcolorindex 2 2 18 
vt 0.465820 0.000000 0.0
vt 0.593750 1.004883 0.0
vt 0.721680 0.000000 0.0
#vcolor 235.000000 235.000000 235.000000 255.000000
f 87/364 92/365 68/366
#fvcolorindex 2 18 19 
usemtl m15CullBoth
vt 0.721680 0.000000 0.0
vt 0.593750 1.004883 0.0
vt 0.721680 2.008789 0.0
#vcolor 168.000000 168.000000 168.000000 255.000000
f 68/367 92/368 2/369
#fvcolorindex 19 18 20 
usemtl m16CullBoth
vt 0.187500 1.995117 0.0
vt 1.000000 2.018555 0.0
vt 1.000000 -0.451172 0.0
#vcolor 111.000000 111.000000 111.000000 255.000000
f 3/370 2/371 92/372
#fvcolorindex 21 20 18 
usemtl m9CullBoth
vt 0.206055 0.000000 0.0
vt 1.000000 -0.442383 0.0
vt 0.196289 1.971680 0.0
v 0.000000 82.448883 -181.830460
#joint 33
#vjoint 93
f 93/373 92/374 4/375
#fvcolorindex 2 17 2 
usemtl m8CullBoth
vt 0.199219 0.000000 0.0
vt 0.187500 1.995117 0.0
vt 1.000000 -0.451172 0.0
f 93/376 3/377 92/378
#fvcolorindex 4 21 18 
usemtl m9CullBoth
vt 0.401367 0.000000 0.0
vt 0.771484 0.000000 0.0
vt 0.585938 1.201172 0.0
f 4/379 3/380 93/381
#fvcolorindex 2 21 2 
usemtl m8CullBoth
vt 0.005859 0.000000 0.0
vt 0.423828 -0.001953 0.0
vt 0.007812 1.205078 0.0
v -12.000000 -11.551114 -140.830460
#joint 33
#vjoint 94
f 12/382 14/383 94/384
#fvcolorindex 4 4 4 
vt 0.007812 1.205078 0.0
vt 0.423828 -0.001953 0.0
vt 0.756836 0.838867 0.0
v -6.000000 -64.551117 -175.830460
#joint 33
#vjoint 95
f 94/385 14/386 95/387
#fvcolorindex 4 4 4 
usemtl m17CullBoth
vt 0.419922 1.646484 0.0
vt 0.000000 0.000000 0.0
vt 0.752930 0.483398 0.0
#vcolor 135.000000 135.000000 135.000000 255.000000
v 12.000000 -11.551114 -140.830460
#joint 33
#vjoint 96
#vcolor 73.000000 73.000000 73.000000 255.000000
v 6.000000 -64.551117 -175.830460
#joint 33
#vjoint 97
f 13/388 96/389 97/390
#fvcolorindex 22 23 4 
usemtl m11CullBoth
vt 0.000000 1.655273 0.0
vt 0.000000 0.000000 0.0
vt 0.419922 1.646484 0.0
f 11/391 96/392 13/393
#fvcolorindex 14 23 22 
usemtl m8CullBoth
vt 0.758789 -0.088867 0.0
vt 0.758789 0.085938 0.0
vt 0.000000 0.173828 0.0
f 95/394 97/395 96/396
#fvcolorindex 4 4 23 
vt 0.758789 -0.088867 0.0
vt 0.000000 0.173828 0.0
vt 0.000000 -0.176758 0.0
f 95/397 96/398 94/399
#fvcolorindex 4 23 4 
usemtl m18CullBoth
vt 0.599609 0.167969 0.0
vt 1.000000 0.167969 0.0
vt 1.000000 0.167969 0.0
#vcolor 75.000000 75.000000 75.000000 255.000000
f 70/400 60/401 65/402
#fvcolorindex 24 24 24 
vt 0.599609 0.167969 0.0
vt 1.000000 0.167969 0.0
vt 0.400391 0.167969 0.0
f 70/403 65/404 71/405
#fvcolorindex 24 24 24 
vt 0.400391 0.165039 0.0
vt 1.000000 0.165039 0.0
vt 1.000000 0.165039 0.0
f 91/406 61/407 59/408
#fvcolorindex 24 24 24 
vt 0.400391 0.165039 0.0
vt 1.000000 0.165039 0.0
vt 0.599609 0.165039 0.0
f 91/409 59/410 90/411
#fvcolorindex 24 24 24 
usemtl m19CullBoth
vt 0.400391 0.165039 0.0
vt 0.000000 0.000000 0.0
vt 1.000000 0.000000 0.0
#vcolor 156.000000 156.000000 156.000000 255.000000
v 29.000000 47.448887 0.169544
#joint 33
#vjoint 98
#vcolor 184.000000 184.000000 184.000000 255.000000
v 29.000000 -11.551114 -28.830456
#joint 33
#vjoint 99
f 91/412 98/413 99/414
#fvcolorindex 25 26 25 
vt 0.400391 0.165039 0.0
vt 1.000000 0.000000 0.0
vt 1.000000 0.165039 0.0
f 91/415 99/416 61/417
#fvcolorindex 25 25 25 
usemtl m20CullBoth
vt 1.000000 0.167969 0.0
vt 1.000000 0.000000 0.0
vt 0.000000 0.000000 0.0
v -29.000000 -11.551114 -28.830456
#joint 33
#vjoint 100
v -29.000000 47.448887 0.169544
#joint 33
#vjoint 101
f 65/418 100/419 101/420
#fvcolorindex 4 4 4 
vt 1.000000 0.167969 0.0
vt 0.000000 0.000000 0.0
vt 0.400391 0.167969 0.0
f 65/421 101/422 71/423
#fvcolorindex 4 4 4 
vt 0.400391 0.837891 0.0
vt 0.400391 0.167969 0.0
vt 0.000000 0.000000 0.0
f 69/424 71/425 101/426
#fvcolorindex 4 4 4 
vt 0.400391 0.837891 0.0
vt 0.000000 0.000000 0.0
vt 0.000000 1.004883 0.0
f 69/427 101/428 67/429
#fvcolorindex 4 4 4 
usemtl m21CullBoth
vt 0.752930 0.733398 0.0
vt 0.414062 0.733398 0.0
vt 0.414062 0.621094 0.0
v -18.000000 59.448887 6.169544
#joint 33
#vjoint 102
#vcolor 240.000000 240.000000 240.000000 255.000000
v 18.000000 59.448887 -5.830456
#joint 33
#vjoint 103
f 102/430 86/431 103/432
#fvcolorindex 27 2 2 
vt 0.752930 0.000000 0.0
vt 0.752930 0.733398 0.0
vt 0.414062 0.621094 0.0
f 68/433 102/434 103/435
#fvcolorindex 27 27 2 
vt 0.752930 0.000000 0.0
vt 0.414062 0.621094 0.0
vt 0.414062 0.056641 0.0
v 18.000000 59.448887 -64.830460
#joint 33
#vjoint 104
f 68/436 103/437 104/438
#fvcolorindex 27 2 2 
vt 0.752930 0.000000 0.0
vt 0.414062 0.056641 0.0
vt 0.414062 0.000000 0.0
f 68/439 104/440 87/441
#fvcolorindex 27 2 2 
usemtl m19CullBoth
vt 0.400391 0.165039 0.0
vt 0.400391 0.827148 0.0
vt 0.000000 0.992188 0.0
#vcolor 191.000000 191.000000 191.000000 255.000000
f 91/442 89/443 88/444
#fvcolorindex 25 25 28 
vt 0.400391 0.165039 0.0
vt 0.000000 0.992188 0.0
vt 0.000000 0.000000 0.0
f 91/445 88/446 98/447
#fvcolorindex 25 28 26 
usemtl m22CullBoth
vt 0.414062 0.621094 0.0
vt 0.414062 0.733398 0.0
vt 0.301758 0.677734 0.0
f 103/448 86/449 98/450
#fvcolorindex 2 2 26 
vt 0.414062 0.000000 0.0
vt 0.414062 0.056641 0.0
vt 0.301758 0.000000 0.0
f 87/451 104/452 88/453
#fvcolorindex 2 2 28 
usemtl m20CullBoth
vt 0.000000 1.004883 0.0
vt 0.000000 0.000000 0.0
vt -0.166016 0.000000 0.0
f 67/454 101/455 102/456
#fvcolorindex 4 4 27 
vt 0.000000 1.004883 0.0
vt -0.166016 0.000000 0.0
vt -0.166016 1.088867 0.0
f 67/457 102/458 68/459
#fvcolorindex 4 27 27 
usemtl m23CullBoth
vt 0.420898 0.000000 0.0
vt 0.746094 0.000000 0.0
vt 0.611328 0.804688 0.0
v -3.000000 129.448883 41.169544
#joint 33
#vjoint 105
f 86/460 102/461 105/462
#fvcolorindex 1 1 1 
vt 0.420898 0.000000 0.0
vt 0.611328 0.804688 0.0
vt 0.556641 0.804688 0.0
f 86/463 105/464 77/465
#fvcolorindex 1 1 1 
usemtl m24CullBoth
vt 0.000000 0.000000 0.0
vt 0.000000 0.125000 0.0
vt -0.125000 0.125000 0.0
v -23.000000 23.448887 -11.830456
#joint 33
#vjoint 106
v -29.000000 23.448887 -11.830456
#joint 33
#vjoint 107
v -29.000000 12.448886 -17.830456
#joint 33
#vjoint 108
f 106/466 107/467 108/468
#fvcolorindex 1 1 1 
vt 1.125000 0.125000 0.0
vt 1.000000 0.125000 0.0
vt 1.000000 0.000000 0.0
v 29.000000 12.448886 -17.830456
#joint 33
#vjoint 109
v 29.000000 23.448887 -11.830456
#joint 33
#vjoint 110
v 23.000000 23.448887 -11.830456
#joint 33
#vjoint 111
f 109/469 110/470 111/471
#fvcolorindex 1 1 1 
usemtl m25CullBoth
vt 0.875000 1.007812 0.0
vt 1.000000 0.340820 0.0
vt 1.000000 0.340820 0.0
f 13/472 97/473 95/474
#fvcolorindex 10 11 11 
vt 0.875000 1.007812 0.0
vt 1.000000 0.340820 0.0
vt 0.875000 1.007812 0.0
f 13/475 95/476 14/477
#fvcolorindex 10 11 10 
usemtl m24CullBoth
vt 1.000000 0.000000 0.0
vt 1.000000 0.125000 0.0
vt 0.000000 0.125000 0.0
v -23.000000 23.448887 35.169544
#joint 33
#vjoint 112
v -29.000000 23.448887 35.169544
#joint 33
#vjoint 113
f 112/478 113/479 107/480
#fvcolorindex 1 1 1 
vt 1.000000 0.000000 0.0
vt 0.000000 0.125000 0.0
vt 0.000000 0.000000 0.0
f 112/481 107/482 106/483
#fvcolorindex 1 1 1 
vt 1.000000 0.000000 0.0
vt 1.000000 0.125000 0.0
vt 0.000000 0.125000 0.0
v 29.000000 23.448887 35.169544
#joint 33
#vjoint 114
f 111/484 110/485 114/486
#fvcolorindex 1 1 1 
vt 1.000000 0.000000 0.0
vt 0.000000 0.125000 0.0
vt 0.000000 0.000000 0.0
v 23.000000 23.448887 35.169544
#joint 33
#vjoint 115
f 111/487 114/488 115/489
#fvcolorindex 1 1 1 
usemtl m26CullBoth
vt 0.945312 0.177734 0.0
vt 0.000000 0.177734 0.0
vt 0.000000 0.083008 0.0
v -6.000000 59.448887 47.169544
#joint 33
#vjoint 116
v -6.000000 59.448887 165.169540
#joint 33
#vjoint 117
v 6.000000 59.448887 165.169540
#joint 33
#vjoint 118
f 116/490 117/491 118/492
#fvcolorindex 2 2 3 
vt 0.945312 0.177734 0.0
vt 0.000000 0.083008 0.0
vt 0.945312 0.083008 0.0
v 6.000000 59.448887 47.169544
#joint 33
#vjoint 119
f 116/493 118/494 119/495
#fvcolorindex 2 3 3 
usemtl m27CullBoth
vt 0.000000 0.000000 0.0
vt 0.000000 0.125000 0.0
vt 0.125000 0.125000 0.0
v 29.000000 12.448886 29.169544
#joint 33
#vjoint 120
#vcolor 164.000000 164.000000 164.000000 255.000000
f 115/496 114/497 120/498
#fvcolorindex 3 12 29 
usemtl m28CullBoth
vt 1.000000 0.000000 0.0
vt 0.875000 0.125000 0.0
vt 1.000000 0.125000 0.0
#vcolor 133.000000 133.000000 133.000000 255.000000
v -29.000000 12.448886 29.169544
#joint 33
#vjoint 121
#vcolor 193.000000 193.000000 193.000000 255.000000
f 112/499 121/500 113/501
#fvcolorindex 30 29 31 
usemtl m29CullBoth
vt 1.258789 0.529297 0.0
vt 1.258789 0.835938 0.0
vt 0.033203 0.835938 0.0
v 18.000000 36.448887 206.169540
#joint 33
#vjoint 122
v 12.000000 48.448887 206.169540
#joint 33
#vjoint 123
v 12.000000 48.448887 264.169556
#joint 33
#vjoint 124
f 122/502 123/503 124/504
#fvcolorindex 15 2 2 
vt 1.258789 0.529297 0.0
vt 0.033203 0.835938 0.0
vt 0.033203 0.529297 0.0
v 18.000000 36.448887 264.169556
#joint 33
#vjoint 125
#vcolor 165.000000 181.000000 213.000000 255.000000
f 122/505 124/506 125/507
#fvcolorindex 15 2 32 
vt 1.258789 0.529297 0.0
vt 0.033203 0.529297 0.0
vt 0.033203 0.221680 0.0
v 12.000000 23.448887 264.169556
#joint 33
#vjoint 126
#vcolor 27.000000 27.000000 27.000000 255.000000
f 122/508 125/509 126/510
#fvcolorindex 15 32 33 
vt 1.258789 0.529297 0.0
vt 0.033203 0.221680 0.0
vt 1.258789 0.221680 0.0
v 12.000000 23.448887 206.169540
#joint 33
#vjoint 127
f 122/511 126/512 127/513
#fvcolorindex 15 33 4 
usemtl m30CullBoth
vt 1.258789 0.221680 0.0
vt 0.033203 0.221680 0.0
vt 0.033203 0.094727 0.0
v 0.000000 18.448887 264.169556
#joint 33
#vjoint 128
f 127/514 126/515 128/516
#fvcolorindex 4 33 33 
vt 1.258789 0.221680 0.0
vt 0.033203 0.094727 0.0
vt 1.258789 0.094727 0.0
v 0.000000 18.448887 206.169540
#joint 33
#vjoint 129
f 127/517 128/518 129/519
#fvcolorindex 4 33 4 
vt 1.258789 0.094727 0.0
vt 0.033203 0.094727 0.0
vt 0.033203 0.221680 0.0
v -12.000000 23.448887 264.169556
#joint 33
#vjoint 130
f 129/520 128/521 130/522
#fvcolorindex 4 33 33 
vt 1.258789 0.094727 0.0
vt 0.033203 0.221680 0.0
vt 1.258789 0.221680 0.0
v -12.000000 23.448887 206.169540
#joint 33
#vjoint 131
f 129/523 130/524 131/525
#fvcolorindex 4 33 4 
vt 1.258789 0.221680 0.0
vt 0.033203 0.221680 0.0
vt 0.033203 0.529297 0.0
v -18.000000 36.448887 264.169556
#joint 33
#vjoint 132
f 131/526 130/527 132/528
#fvcolorindex 4 33 32 
vt 1.258789 0.221680 0.0
vt 0.033203 0.529297 0.0
vt 1.258789 0.529297 0.0
v -18.000000 36.448887 206.169540
#joint 33
#vjoint 133
f 131/529 132/530 133/531
#fvcolorindex 4 32 4 
vt 1.258789 0.529297 0.0
vt 0.033203 0.529297 0.0
vt 0.033203 0.835938 0.0
v -12.000000 48.448887 264.169556
#joint 33
#vjoint 134
#vcolor 150.000000 150.000000 150.000000 255.000000
f 133/532 132/533 134/534
#fvcolorindex 4 32 34 
vt 1.258789 0.529297 0.0
vt 0.033203 0.835938 0.0
vt 1.258789 0.835938 0.0
v -12.000000 48.448887 206.169540
#joint 33
#vjoint 135
f 133/535 134/536 135/537
#fvcolorindex 4 34 34 
usemtl m31CullBoth
vt 1.258789 0.835938 0.0
vt 0.033203 0.835938 0.0
vt 0.033203 0.962891 0.0
v 0.000000 53.448887 264.169556
#joint 33
#vjoint 136
f 135/538 134/539 136/540
#fvcolorindex 34 34 2 
vt 1.258789 0.835938 0.0
vt 0.033203 0.962891 0.0
vt 1.258789 0.962891 0.0
v 0.000000 53.448887 206.169540
#joint 33
#vjoint 137
f 135/541 136/542 137/543
#fvcolorindex 34 2 2 
usemtl m26CullBoth
vt 1.258789 0.962891 0.0
vt 0.033203 0.962891 0.0
vt 0.033203 0.835938 0.0
f 137/544 136/545 124/546
#fvcolorindex 2 2 2 
vt 1.258789 0.962891 0.0
vt 0.033203 0.835938 0.0
vt 1.258789 0.835938 0.0
f 137/547 124/548 123/549
#fvcolorindex 2 2 2 
usemtl m24CullBoth
vt 0.437500 0.212891 0.0
vt 0.125000 0.398438 0.0
vt 1.000000 0.340820 0.0
v 12.000000 -34.551113 6.169544
#joint 33
#vjoint 138
f 48/550 45/551 138/552
#fvcolorindex 1 1 4 
vt 0.437500 0.212891 0.0
vt 1.000000 0.340820 0.0
vt 1.187500 0.164062 0.0
v 0.000000 -40.551113 12.169544
#joint 33
#vjoint 139
f 48/553 138/554 139/555
#fvcolorindex 1 4 4 
usemtl m30CullBoth
vt 1.187500 0.164062 0.0
vt 1.000000 0.340820 0.0
vt 0.875000 1.007812 0.0
v 12.000000 -11.551114 12.169544
#joint 33
#vjoint 140
f 139/556 138/557 140/558
#fvcolorindex 4 4 4 
vt 1.187500 0.164062 0.0
vt 0.875000 1.007812 0.0
vt 1.125000 0.992188 0.0
v 0.000000 -11.551114 23.169544
#joint 33
#vjoint 141
f 139/559 140/560 141/561
#fvcolorindex 4 4 4 
usemtl m25CullBoth
vt 0.875000 1.007812 0.0
vt 1.000000 0.340820 0.0
vt 1.000000 0.340820 0.0
v -12.000000 -34.551113 6.169544
#joint 33
#vjoint 142
f 140/562 138/563 142/564
#fvcolorindex 10 11 11 
vt 0.875000 1.007812 0.0
vt 1.000000 0.340820 0.0
vt 0.875000 1.007812 0.0
v -12.000000 -11.551114 12.169544
#joint 33
#vjoint 143
f 140/565 142/566 143/567
#fvcolorindex 10 11 10 
usemtl m32CullBoth
vt 1.000000 0.340820 0.0
vt 1.000000 0.340820 0.0
vt 0.125000 0.398438 0.0
f 142/568 138/569 45/570
#fvcolorindex 11 11 1 
vt 1.000000 0.340820 0.0
vt 0.125000 0.398438 0.0
vt 0.125000 0.398438 0.0
f 142/571 45/572 49/573
#fvcolorindex 11 1 1 
usemtl m30CullBoth
vt 1.125000 0.992188 0.0
vt 0.875000 1.007812 0.0
vt 1.000000 0.340820 0.0
f 141/574 143/575 142/576
#fvcolorindex 4 4 4 
vt 1.125000 0.992188 0.0
vt 1.000000 0.340820 0.0
vt 1.187500 0.164062 0.0
f 141/577 142/578 139/579
#fvcolorindex 4 4 4 
vt 1.187500 0.164062 0.0
vt 1.000000 0.340820 0.0
vt 0.125000 0.398438 0.0
f 139/580 142/581 49/582
#fvcolorindex 4 4 1 
vt 1.187500 0.164062 0.0
vt 0.125000 0.398438 0.0
vt 0.437500 0.212891 0.0
f 139/583 49/584 48/585
#fvcolorindex 4 1 1 
usemtl m33CullBoth
vt 0.939453 0.191406 0.0
vt 0.112305 0.191406 0.0
vt 0.112305 0.762695 0.0
v 3.000000 102.448883 173.169540
#joint 33
#vjoint 144
v 3.000000 65.448883 173.169540
#joint 33
#vjoint 145
v 3.000000 65.448883 197.169540
#joint 33
#vjoint 146
f 144/586 145/587 146/588
#fvcolorindex 3 3 3 
vt 0.939453 0.191406 0.0
vt 0.112305 0.762695 0.0
vt 1.385742 0.762695 0.0
v 3.000000 123.448883 197.169540
#joint 33
#vjoint 147
f 144/589 146/590 147/591
#fvcolorindex 3 3 3 
vt 2.045898 0.951172 0.0
vt 1.671875 0.176758 0.0
vt -0.083008 0.176758 0.0
v 3.000000 59.448887 14.169544
#joint 33
#vjoint 148
v 3.000000 59.448887 38.169544
#joint 33
#vjoint 149
v 3.000000 102.448883 59.169544
#joint 33
#vjoint 150
f 148/592 149/593 150/594
#fvcolorindex 3 3 3 
vt 2.045898 0.951172 0.0
vt -0.083008 0.176758 0.0
vt -0.594727 0.810547 0.0
v 3.000000 123.448883 49.169544
#joint 33
#vjoint 151
f 148/595 150/596 151/597
#fvcolorindex 3 3 3 
vt -0.594727 0.810547 0.0
vt -0.083008 0.176758 0.0
vt 1.671875 0.176758 0.0
v -3.000000 123.448883 49.169544
#joint 33
#vjoint 152
v -3.000000 102.448883 59.169544
#joint 33
#vjoint 153
v -3.000000 59.448887 38.169544
#joint 33
#vjoint 154
f 152/598 153/599 154/600
#fvcolorindex 3 3 3 
vt -0.594727 0.810547 0.0
vt 1.671875 0.176758 0.0
vt 2.045898 0.951172 0.0
v -3.000000 59.448887 14.169544
#joint 33
#vjoint 155
f 152/601 154/602 155/603
#fvcolorindex 3 3 3 
vt 1.385742 0.762695 0.0
vt 0.112305 0.762695 0.0
vt 0.112305 0.191406 0.0
v -3.000000 123.448883 197.169540
#joint 33
#vjoint 156
v -3.000000 65.448883 197.169540
#joint 33
#vjoint 157
v -3.000000 65.448883 173.169540
#joint 33
#vjoint 158
f 156/604 157/605 158/606
#fvcolorindex 3 3 3 
vt 1.385742 0.762695 0.0
vt 0.112305 0.191406 0.0
vt 0.939453 0.191406 0.0
v -3.000000 102.448883 173.169540
#joint 33
#vjoint 159
f 156/607 158/608 159/609
#fvcolorindex 3 3 3 
usemtl m34CullBoth
vt -0.594727 0.810547 0.0
vt -0.083008 0.176758 0.0
vt 1.671875 0.176758 0.0
f 151/610 150/611 149/612
#fvcolorindex 1 1 1 
vt -0.594727 0.810547 0.0
vt 1.671875 0.176758 0.0
vt 2.045898 0.951172 0.0
f 151/613 149/614 148/615
#fvcolorindex 1 1 1 
vt 1.385742 0.762695 0.0
vt 0.112305 0.762695 0.0
vt 0.112305 0.191406 0.0
f 147/616 146/617 145/618
#fvcolorindex 1 1 1 
vt 1.385742 0.762695 0.0
vt 0.112305 0.191406 0.0
vt 0.939453 0.191406 0.0
f 147/619 145/620 144/621
#fvcolorindex 1 1 1 
vt 0.939453 0.191406 0.0
vt 0.112305 0.191406 0.0
vt 0.112305 0.762695 0.0
f 159/622 158/623 157/624
#fvcolorindex 1 1 1 
vt 0.939453 0.191406 0.0
vt 0.112305 0.762695 0.0
vt 1.385742 0.762695 0.0
f 159/625 157/626 156/627
#fvcolorindex 1 1 1 
vt 2.045898 0.951172 0.0
vt 1.671875 0.176758 0.0
vt -0.083008 0.176758 0.0
f 155/628 154/629 153/630
#fvcolorindex 1 1 1 
vt 2.045898 0.951172 0.0
vt -0.083008 0.176758 0.0
vt -0.594727 0.810547 0.0
f 155/631 153/632 152/633
#fvcolorindex 1 1 1 
usemtl m35CullBoth
vt 1.000000 0.000000 0.0
vt 0.000000 0.000000 0.0
vt 0.333008 0.359375 0.0
v -18.000000 65.448883 197.169540
#joint 33
#vjoint 160
#vcolor 190.000000 190.000000 190.000000 255.000000
v -4.000000 123.448883 197.169540
#joint 33
#vjoint 161
f 80/634 160/635 161/636
#fvcolorindex 2 35 2 
vt 1.000000 0.000000 0.0
vt 0.333008 0.359375 0.0
vt 0.666992 0.359375 0.0
f 80/637 161/638 79/639
#fvcolorindex 2 2 4 
usemtl m36CullBoth
vt 1.000000 0.060547 0.0
vt 1.000000 0.363281 0.0
vt 0.000000 0.363281 0.0
v -18.000000 65.448883 165.169540
#joint 33
#vjoint 162
v -7.000000 94.448883 165.169540
#joint 33
#vjoint 163
f 162/640 163/641 75/642
#fvcolorindex 10 10 10 
vt 1.000000 0.060547 0.0
vt 0.000000 0.363281 0.0
vt 0.000000 0.060547 0.0
f 162/643 75/644 82/645
#fvcolorindex 10 10 10 
usemtl m37CullBoth
vt 1.018555 0.000000 0.0
vt 1.018555 0.359375 0.0
vt 0.000000 0.359375 0.0
v -7.000000 94.448883 65.169540
#joint 33
#vjoint 164
f 164/646 72/647 75/648
#fvcolorindex 4 4 4 
vt 1.018555 0.000000 0.0
vt 0.000000 0.359375 0.0
vt 0.000000 0.000000 0.0
f 164/649 75/650 163/651
#fvcolorindex 4 4 4 
usemtl m35CullBoth
vt 0.000000 0.977539 0.0
vt 0.000000 0.000000 0.0
vt -0.529297 0.000000 0.0
v 35.000000 47.448887 165.169540
#joint 33
#vjoint 165
f 53/652 165/653 82/654
#fvcolorindex 2 2 2 
vt 0.000000 0.977539 0.0
vt -0.529297 0.000000 0.0
vt -0.529297 0.781250 0.0
f 53/655 82/656 80/657
#fvcolorindex 2 2 2 
vt 0.000000 0.977539 0.0
vt -0.529297 0.781250 0.0
vt -0.529297 0.977539 0.0
f 53/658 80/659 54/660
#fvcolorindex 2 2 2 
usemtl m38CullBoth
vt 2.352539 0.977539 0.0
vt 0.941406 0.000000 0.0
vt 0.000000 0.000000 0.0
v 35.000000 23.448887 165.169540
#joint 33
#vjoint 166
f 58/661 166/662 165/663
#fvcolorindex 9 9 2 
vt 2.352539 0.977539 0.0
vt 0.000000 0.000000 0.0
vt 0.000000 0.977539 0.0
f 58/664 165/665 53/666
#fvcolorindex 9 2 2 
usemtl m39CullBoth
vt 3.669922 -0.916992 0.0
vt 3.210938 0.000000 0.0
vt 0.000000 0.000000 0.0
#vcolor 249.000000 249.000000 249.000000 255.000000
v 35.000000 23.448887 41.169544
#joint 33
#vjoint 167
f 63/667 167/668 166/669
#fvcolorindex 36 2 9 
vt 3.669922 -0.916992 0.0
vt 0.000000 0.000000 0.0
vt -1.070312 -0.916992 0.0
f 63/670 166/671 58/672
#fvcolorindex 36 9 9 
usemtl m35CullBoth
vt 1.376953 0.981445 0.0
vt 0.327148 0.981445 0.0
vt 0.256836 0.771484 0.0
f 167/673 63/674 62/675
#fvcolorindex 2 36 2 
vt 1.376953 0.981445 0.0
vt 0.256836 0.771484 0.0
vt 1.307617 0.771484 0.0
f 167/676 62/677 114/678
#fvcolorindex 2 2 2 
vt 4.015625 0.000000 0.0
vt 4.207031 -0.232422 0.0
vt 0.000000 -0.232422 0.0
v 29.000000 23.448887 165.169540
#joint 33
#vjoint 168
f 167/679 114/680 168/681
#fvcolorindex 2 2 12 
vt 4.015625 0.000000 0.0
vt 0.000000 -0.232422 0.0
vt 0.000000 0.000000 0.0
f 167/682 168/683 166/684
#fvcolorindex 2 12 12 
usemtl m36CullBoth
vt 1.000000 0.000000 0.0
vt 1.000000 0.250000 0.0
vt 0.000000 0.250000 0.0
v 29.000000 47.448887 165.169540
#joint 33
#vjoint 169
f 166/685 168/686 169/687
#fvcolorindex 10 10 10 
vt 1.000000 0.000000 0.0
vt 0.000000 0.250000 0.0
vt 0.000000 0.000000 0.0
f 166/688 169/689 165/690
#fvcolorindex 10 10 10 
vt 1.000000 0.000000 0.0
vt 0.833008 0.166992 0.0
vt 0.166992 0.166992 0.0
v 18.000000 59.448887 165.169540
#joint 33
#vjoint 170
f 165/691 169/692 170/693
#fvcolorindex 10 10 10 
vt 1.000000 0.000000 0.0
vt 0.166992 0.166992 0.0
vt 0.000000 0.000000 0.0
f 165/694 170/695 82/696
#fvcolorindex 10 10 10 
vt 0.000000 0.060547 0.0
vt 0.000000 0.000000 0.0
vt 1.000000 0.000000 0.0
v -18.000000 59.448887 165.169540
#joint 33
#vjoint 171
f 82/697 170/698 171/699
#fvcolorindex 10 10 10 
vt 0.000000 0.060547 0.0
vt 1.000000 0.000000 0.0
vt 1.000000 0.060547 0.0
f 82/700 171/701 162/702
#fvcolorindex 10 10 10 
usemtl m37CullBoth
vt 0.666992 0.359375 0.0
vt 0.333008 0.359375 0.0
vt 0.000000 0.000000 0.0
v -3.000000 129.448883 206.169540
#joint 33
#vjoint 172
f 78/703 172/704 55/705
#fvcolorindex 4 2 35 
vt 0.666992 0.359375 0.0
vt 0.000000 0.000000 0.0
vt 1.000000 0.000000 0.0
f 78/706 55/707 54/708
#fvcolorindex 4 35 2 
usemtl m40CullBoth
vt 5.087891 0.594727 0.0
vt 5.087891 0.997070 0.0
vt 0.000000 0.997070 0.0
#vcolor 122.000000 122.000000 122.000000 255.000000
f 77/709 105/710 172/711
#fvcolorindex 37 2 2 
vt 5.087891 0.594727 0.0
vt 0.000000 0.997070 0.0
vt 0.000000 0.594727 0.0
f 77/712 172/713 78/714
#fvcolorindex 37 2 12 
usemtl m36CullBoth
vt 0.000000 0.000000 0.0
vt 0.166992 0.166992 0.0
vt 0.833008 0.166992 0.0
v -29.000000 47.448887 165.169540
#joint 33
#vjoint 173
f 162/715 171/716 173/717
#fvcolorindex 10 10 10 
vt 0.000000 0.000000 0.0
vt 0.833008 0.166992 0.0
vt 1.000000 0.000000 0.0
v -35.000000 47.448887 165.169540
#joint 33
#vjoint 174
f 162/718 173/719 174/720
#fvcolorindex 10 10 10 
vt 0.000000 0.000000 0.0
vt 0.000000 0.250000 0.0
vt 1.000000 0.250000 0.0
v -29.000000 23.448887 165.169540
#joint 33
#vjoint 175
f 174/721 173/722 175/723
#fvcolorindex 10 10 10 
vt 0.000000 0.000000 0.0
vt 1.000000 0.250000 0.0
vt 1.000000 0.000000 0.0
v -35.000000 23.448887 165.169540
#joint 33
#vjoint 176
f 174/724 175/725 176/726
#fvcolorindex 10 10 10 
usemtl m41CullBoth
vt 0.000000 0.000000 0.0
vt 0.000000 -0.232422 0.0
vt 4.207031 -0.232422 0.0
f 176/727 175/728 113/729
#fvcolorindex 12 12 15 
vt 0.000000 0.000000 0.0
vt 4.207031 -0.232422 0.0
vt 4.015625 0.000000 0.0
v -35.000000 23.448887 41.169544
#joint 33
#vjoint 177
f 176/730 113/731 177/732
#fvcolorindex 12 15 15 
usemtl m42CullBoth
vt 1.307617 0.771484 0.0
vt 0.256836 0.771484 0.0
vt 0.327148 0.981445 0.0
f 113/733 64/734 66/735
#fvcolorindex 15 4 4 
vt 1.307617 0.771484 0.0
vt 0.327148 0.981445 0.0
vt 1.376953 0.981445 0.0
f 113/736 66/737 177/738
#fvcolorindex 15 4 15 
usemtl m37CullBoth
vt 0.000000 0.000000 0.0
vt 1.147461 0.983398 0.0
vt 4.591797 0.983398 0.0
f 57/739 176/740 177/741
#fvcolorindex 4 4 4 
vt 0.000000 0.000000 0.0
vt 4.591797 0.983398 0.0
vt 5.083008 0.000000 0.0
f 57/742 177/743 66/744
#fvcolorindex 4 4 4 
vt 0.000000 0.979492 0.0
vt 0.000000 0.000000 0.0
vt 0.583984 0.000000 0.0
f 56/745 174/746 176/747
#fvcolorindex 4 4 4 
vt 0.000000 0.979492 0.0
vt 0.583984 0.000000 0.0
vt 1.460938 0.979492 0.0
f 56/748 176/749 57/750
#fvcolorindex 4 4 4 
vt 0.000000 0.992188 0.0
vt 0.000000 0.000000 0.0
vt 0.622070 0.000000 0.0
f 55/751 162/752 174/753
#fvcolorindex 4 4 4 
vt 0.000000 0.992188 0.0
vt 0.622070 0.000000 0.0
vt 0.622070 0.992188 0.0
f 55/754 174/755 56/756
#fvcolorindex 4 4 4 
usemtl m35CullBoth
vt 0.000000 0.788086 0.0
vt 0.000000 0.986328 0.0
vt 2.200195 0.986328 0.0
f 160/757 55/758 172/759
#fvcolorindex 2 2 9 
vt 0.000000 0.788086 0.0
vt 2.200195 0.986328 0.0
vt 1.958008 0.800781 0.0
f 160/760 172/761 161/762
#fvcolorindex 2 9 2 
usemtl m37CullBoth
vt 0.666992 0.359375 0.0
vt 0.333008 0.359375 0.0
vt 0.000000 0.000000 0.0
v -4.000000 102.448883 173.169540
#joint 33
#vjoint 178
v -18.000000 65.448883 173.169540
#joint 33
#vjoint 179
f 74/763 178/764 179/765
#fvcolorindex 4 2 35 
vt 0.666992 0.359375 0.0
vt 0.000000 0.000000 0.0
vt 1.000000 0.000000 0.0
f 74/766 179/767 81/768
#fvcolorindex 4 35 2 
usemtl m35CullBoth
vt 1.000000 0.000000 0.0
vt 0.000000 0.000000 0.0
vt 0.333008 0.359375 0.0
v -18.000000 59.448887 38.169544
#joint 33
#vjoint 180
v -5.000000 102.448883 59.169544
#joint 33
#vjoint 181
f 84/769 180/770 181/771
#fvcolorindex 2 35 2 
vt 1.000000 0.000000 0.0
vt 0.333008 0.359375 0.0
vt 0.666992 0.359375 0.0
f 84/772 181/773 73/774
#fvcolorindex 2 2 4 
usemtl m36CullBoth
vt 0.000000 0.060547 0.0
vt 0.000000 0.363281 0.0
vt 1.000000 0.363281 0.0
f 83/775 72/776 164/777
#fvcolorindex 10 10 10 
vt 0.000000 0.060547 0.0
vt 1.000000 0.363281 0.0
vt 1.000000 0.060547 0.0
v -18.000000 59.448887 47.169544
#joint 33
#vjoint 182
f 83/778 164/779 182/780
#fvcolorindex 10 10 10 
usemtl m37CullBoth
vt 0.666992 0.359375 0.0
vt 0.333008 0.359375 0.0
vt 0.000000 0.000000 0.0
v -4.000000 123.448883 49.169544
#joint 33
#vjoint 183
v -18.000000 59.448887 14.169544
#joint 33
#vjoint 184
f 76/781 183/782 184/783
#fvcolorindex 4 2 35 
vt 0.666992 0.359375 0.0
vt 0.000000 0.000000 0.0
vt 1.000000 0.000000 0.0
f 76/784 184/785 85/786
#fvcolorindex 4 35 2 
usemtl m35CullBoth
vt -0.927734 0.811523 0.0
vt -1.161133 0.995117 0.0
vt 3.482422 0.995117 0.0
f 161/787 172/788 105/789
#fvcolorindex 2 9 9 
vt -0.927734 0.811523 0.0
vt 3.482422 0.995117 0.0
vt 3.250000 0.811523 0.0
f 161/790 105/791 183/792
#fvcolorindex 2 9 2 
vt 1.958008 0.800781 0.0
vt 2.200195 0.986328 0.0
vt 0.000000 0.986328 0.0
f 183/793 105/794 102/795
#fvcolorindex 2 9 2 
vt 1.958008 0.800781 0.0
vt 0.000000 0.986328 0.0
vt 0.000000 0.788086 0.0
f 183/796 102/797 184/798
#fvcolorindex 2 2 2 
vt 1.958008 0.800781 0.0
vt 2.200195 0.986328 0.0
vt 0.000000 0.986328 0.0
f 164/799 181/800 180/801
#fvcolorindex 2 9 2 
vt 1.958008 0.800781 0.0
vt 0.000000 0.986328 0.0
vt 0.000000 0.788086 0.0
f 164/802 180/803 182/804
#fvcolorindex 2 2 2 
usemtl m38CullBoth
vt 0.000000 0.000000 0.0
vt -0.232422 0.237305 0.0
vt 2.978516 0.244141 0.0
f 163/805 178/806 181/807
#fvcolorindex 9 2 2 
vt 0.000000 0.000000 0.0
vt 2.978516 0.244141 0.0
vt 2.819336 0.000000 0.0
f 163/808 181/809 164/810
#fvcolorindex 9 2 9 
usemtl m35CullBoth
vt 0.000000 0.788086 0.0
vt 0.000000 0.986328 0.0
vt 2.200195 0.986328 0.0
f 162/811 179/812 178/813
#fvcolorindex 2 2 9 
vt 0.000000 0.788086 0.0
vt 2.200195 0.986328 0.0
vt 1.958008 0.800781 0.0
f 162/814 178/815 163/816
#fvcolorindex 2 9 2 
vt 0.000000 0.788086 0.0
vt 0.000000 0.986328 0.0
vt 2.200195 0.986328 0.0
f 160/817 55/818 172/819
#fvcolorindex 2 2 9 
vt 0.000000 0.788086 0.0
vt 2.200195 0.986328 0.0
vt 1.958008 0.800781 0.0
f 160/820 172/821 161/822
#fvcolorindex 2 9 2 
usemtl m41CullBoth
vt 0.000000 0.594727 0.0
vt 0.000000 0.997070 0.0
vt 5.087891 0.997070 0.0
f 79/823 161/824 183/825
#fvcolorindex 12 2 2 
vt 0.000000 0.594727 0.0
vt 5.087891 0.997070 0.0
vt 5.087891 0.594727 0.0
f 79/826 183/827 76/828
#fvcolorindex 12 2 37 
usemtl m40CullBoth
vt 5.087891 0.594727 0.0
vt 5.087891 0.997070 0.0
vt 0.000000 0.997070 0.0
f 73/829 181/830 178/831
#fvcolorindex 37 2 2 
vt 5.087891 0.594727 0.0
vt 0.000000 0.997070 0.0
vt 0.000000 0.594727 0.0
f 73/832 178/833 74/834
#fvcolorindex 37 2 12 
usemtl m34CullBoth
vt -0.529297 0.781250 0.0
vt -0.529297 0.195312 0.0
vt -0.176758 0.195312 0.0
f 80/835 81/836 179/837
#fvcolorindex 1 1 1 
vt -0.529297 0.781250 0.0
vt -0.176758 0.195312 0.0
vt -0.176758 0.781250 0.0
f 80/838 179/839 160/840
#fvcolorindex 1 1 1 
vt 0.000000 0.180664 0.0
vt 0.000000 0.936523 0.0
vt -1.122070 0.936523 0.0
f 84/841 85/842 184/843
#fvcolorindex 1 1 1 
vt 0.000000 0.180664 0.0
vt -1.122070 0.936523 0.0
vt -1.122070 0.180664 0.0
f 84/844 184/845 180/846
#fvcolorindex 1 1 1 
usemtl m43CullBothEnvMappingTexScaleS0.031250TexScaleT0.031250
vt 0.000000 0.000000 0.0
vt 0.000000 0.000000 0.0
vt 0.000000 0.000000 0.0
v 0.000000 81.739990 123.249207
#joint 34
#vjoint 185
#vcolor 0.000000 200.000000 113.000000 255.000000
v 0.000000 70.739990 118.249207
#joint 34
#vjoint 186
#vcolor 217.000000 237.000000 119.000000 255.000000
v 6.000000 70.739990 112.249207
#joint 34
#vjoint 187
#vcolor 99.000000 0.000000 79.000000 255.000000
vn 0.000000 1.574803 0.889764
vn 1.708661 1.866142 0.937008
vn 0.779528 0.000000 0.622047
f 185/847/1 186/848/2 187/849/3
#fvcolorindex 38 39 40 
usemtl m44CullBothEnvMappingTexScaleS0.031250TexScaleT0.031250
vt 0.000000 0.000000 0.0
vt 0.000000 0.000000 0.0
vt 0.000000 0.000000 0.0
#vcolor 84.000000 42.000000 84.000000 255.000000
v 0.000000 58.739994 123.249207
#joint 34
#vjoint 188
#vcolor 101.000000 21.000000 72.000000 255.000000
vn 0.779528 0.000000 0.622047
vn 0.661417 0.330709 0.661417
vn 0.795276 0.165354 0.566929
f 187/850/4 186/851/5 188/852/6
#fvcolorindex 40 41 42 
usemtl m45CullBothEnvMappingTexScaleS0.031250TexScaleT0.031250
vt 0.000000 0.000000 0.0
vt 0.000000 0.000000 0.0
vt 0.000000 0.000000 0.0
v 6.000000 58.739994 112.249207
#joint 34
#vjoint 189
#vcolor 113.000000 0.000000 56.000000 255.000000
vn 0.889764 0.000000 0.440945
vn 0.779528 0.000000 0.622047
vn 0.795276 0.165354 0.566929
f 189/853/7 187/854/8 188/855/9
#fvcolorindex 43 40 42 
usemtl m46CullBothEnvMappingTexScaleS0.031250TexScaleT0.031250
vt 0.000000 0.000000 0.0
vt 0.000000 0.000000 0.0
vt 0.000000 0.000000 0.0
#vcolor 0.000000 89.000000 167.000000 255.000000
#vcolor 0.000000 32.000000 134.000000 255.000000
v -6.000000 70.739990 112.249207
#joint 34
#vjoint 190
#vcolor 0.000000 48.000000 139.000000 255.000000
vn 0.000000 0.700787 1.314961
vn 0.000000 0.251969 1.055118
vn 0.000000 0.377953 1.094488
f 185/856/10 187/857/11 190/858/12
#fvcolorindex 44 45 46 
usemtl m47CullBothEnvMappingTexScaleS0.031250TexScaleT0.031250
vt 0.000000 0.000000 0.0
vt 0.000000 0.000000 0.0
vt 0.000000 0.000000 0.0
#vcolor 157.000000 0.000000 79.000000 255.000000
vn 1.236220 0.000000 0.622047
vn 1.708661 1.866142 0.937008
vn 0.000000 1.574803 0.889764
f 190/859/13 186/860/14 185/861/15
#fvcolorindex 47 39 38 
usemtl m48CullBothEnvMappingTexScaleS0.031250TexScaleT0.031250
vt 0.000000 0.000000 0.0
vt 0.000000 0.000000 0.0
vt 0.000000 0.000000 0.0
#vcolor 155.000000 21.000000 72.000000 255.000000
vn 1.220472 0.165354 0.566929
vn 1.708661 1.866142 0.937008
vn 1.236220 0.000000 0.622047
f 188/862/16 186/863/17 190/864/18
#fvcolorindex 48 39 47 
vt 0.000000 0.000000 0.0
vt 0.000000 0.000000 0.0
vt 0.000000 0.000000 0.0
v -6.000000 58.739994 112.249207
#joint 34
#vjoint 191
#vcolor 143.000000 0.000000 56.000000 255.000000
vn 1.220472 0.165354 0.566929
vn 1.236220 0.000000 0.622047
vn 1.125984 0.000000 0.440945
f 188/865/19 190/866/20 191/867/21
#fvcolorindex 48 47 49 
usemtl m49CullBothEnvMappingTexScaleS0.031250TexScaleT0.031250
vt 0.000000 0.000000 0.0
vt 0.000000 0.000000 0.0
vt 0.000000 0.000000 0.0
#vcolor 0.000000 0.000000 129.000000 255.000000
vn 0.000000 0.000000 1.015748
vn 0.000000 0.377953 1.094488
vn 0.000000 0.251969 1.055118
f 191/868/22 190/869/23 187/870/24
#fvcolorindex 50 46 45 
vt 0.000000 0.000000 0.0
vt 0.000000 0.000000 0.0
vt 0.000000 0.000000 0.0
vn 0.000000 0.000000 1.015748
vn 0.000000 0.251969 1.055118
vn 0.000000 0.000000 1.015748
f 191/871/25 187/872/26 189/873/27
#fvcolorindex 50 45 50 
usemtl m50CullBoth
vt 0.467285 1.567383 0.0
vt 0.416504 1.997070 0.0
vt -0.391113 1.997070 0.0
v 29.000000 49.448887 -66.830460
#joint 33
#vjoint 192
v 29.000000 56.448887 -62.830456
#joint 33
#vjoint 193
v 29.000000 56.448887 -6.830456
#joint 33
#vjoint 194
f 192/874 193/875 194/876
#fvcolorindex 2 2 2 
vt 0.467285 1.567383 0.0
vt -0.391113 1.997070 0.0
vt -0.442383 1.568359 0.0
v 29.000000 49.448887 -3.830456
#joint 33
#vjoint 195
f 192/877 194/878 195/879
#fvcolorindex 2 2 2 
usemtl m51CullBoth
vt 0.979980 0.599609 0.0
vt 0.905273 0.898438 0.0
vt 0.306152 0.898438 0.0
#vcolor 216.000000 216.000000 216.000000 255.000000
f 109/880 111/881 115/882
#fvcolorindex 51 3 3 
vt 0.979980 0.599609 0.0
vt 0.306152 0.898438 0.0
vt 0.380859 0.599609 0.0
f 109/883 115/884 120/885
#fvcolorindex 51 3 51 
vt 0.979980 0.599609 0.0
vt 0.380859 0.599609 0.0
vt 0.530762 0.000000 0.0
#vcolor 202.000000 202.000000 202.000000 255.000000
f 109/886 120/887 62/888
#fvcolorindex 51 51 52 
vt 0.979980 0.599609 0.0
vt 0.530762 0.000000 0.0
vt 1.129883 0.000000 0.0
f 109/889 62/890 99/891
#fvcolorindex 51 52 15 
usemtl m52CullBoth
vt 0.688477 0.000000 0.0
vt 0.843750 0.622070 0.0
vt 0.221680 0.622070 0.0
f 64/892 121/893 108/894
#fvcolorindex 4 4 4 
vt 0.688477 0.000000 0.0
vt 0.221680 0.622070 0.0
vt 0.066406 0.000000 0.0
f 64/895 108/896 100/897
#fvcolorindex 4 4 4 
usemtl m53CullBoth
vt 0.921387 0.932617 0.0
vt 0.299316 0.932617 0.0
vt 0.221680 0.622070 0.0
#vcolor 71.000000 71.000000 71.000000 255.000000
f 112/898 106/899 108/900
#fvcolorindex 30 53 4 
vt 0.921387 0.932617 0.0
vt 0.221680 0.622070 0.0
vt 0.843750 0.622070 0.0
f 112/901 108/902 121/903
#fvcolorindex 30 4 4 
usemtl m54CullBothEnvMappingTexScaleS0.031250TexScaleT0.031250
vt 0.000000 0.000000 0.0
vt 0.000000 0.000000 0.0
vt 0.000000 0.000000 0.0
#vcolor 0.000000 56.000000 143.000000 255.000000
#vcolor 20.000000 122.000000 230.000000 255.000000
v 29.000000 59.448887 -64.830460
#joint 33
#vjoint 196
#vcolor 0.000000 108.000000 190.000000 255.000000
vn 0.000000 0.440945 1.125984
vn 0.157480 0.960630 1.811024
vn 0.000000 0.850394 1.496063
f 88/904/28 104/905/29 196/906/30
#fvcolorindex 54 55 56 
usemtl m55CullBothEnvMappingTexScaleS0.031250TexScaleT0.031250
vt 0.000000 0.000000 0.0
vt 0.000000 0.000000 0.0
vt 0.000000 0.000000 0.0
v 29.000000 59.448887 -5.830456
#joint 33
#vjoint 197
#vcolor 0.000000 108.000000 66.000000 255.000000
#vcolor 20.000000 122.000000 26.000000 255.000000
#vcolor 0.000000 56.000000 113.000000 255.000000
vn 0.000000 0.850394 0.519685
vn 0.157480 0.960630 0.204724
vn 0.000000 0.440945 0.889764
f 197/907/31 103/908/32 98/909/33
#fvcolorindex 57 58 59 
usemtl m56CullBothEnvMappingTexScaleS0.031250TexScaleT0.031250
vt 0.000000 0.000000 0.0
vt 0.000000 0.000000 0.0
vt 0.000000 0.000000 0.0
#vcolor 127.000000 0.000000 0.000000 255.000000
vn 1.000000 0.000000 0.000000
vn 1.000000 0.000000 0.000000
vn 1.000000 0.000000 0.000000
f 195/910/34 194/911/35 197/912/36
#fvcolorindex 60 60 60 
vt 0.000000 0.000000 0.0
vt 0.000000 0.000000 0.0
vt 0.000000 0.000000 0.0
#vcolor 125.000000 18.000000 0.000000 255.000000
vn 1.000000 0.000000 0.000000
vn 1.000000 0.000000 0.000000
vn 0.984252 0.141732 0.000000
f 195/913/37 197/914/38 98/915/39
#fvcolorindex 60 60 61 
vt 0.000000 0.000000 0.0
vt 0.000000 0.000000 0.0
vt 0.000000 0.000000 0.0
vn 1.000000 0.000000 0.000000
vn 1.000000 0.000000 0.000000
vn 1.000000 0.000000 0.000000
f 196/916/40 197/917/41 194/918/42
#fvcolorindex 60 60 60 
vt 0.000000 0.000000 0.0
vt 0.000000 0.000000 0.0
vt 0.000000 0.000000 0.0
vn 1.000000 0.000000 0.000000
vn 1.000000 0.000000 0.000000
vn 1.000000 0.000000 0.000000
f 196/919/43 194/920/44 193/921/45
#fvcolorindex 60 60 60 
usemtl m57CullBothEnvMappingTexScaleS0.031250TexScaleT0.031250
vt 0.000000 0.000000 0.0
vt 0.000000 0.000000 0.0
vt 0.000000 0.000000 0.0
vn 0.157480 0.960630 1.811024
vn 0.157480 0.960630 0.204724
vn 0.000000 0.850394 0.519685
f 104/922/46 103/923/47 197/924/48
#fvcolorindex 55 58 57 
vt 0.000000 0.000000 0.0
vt 0.000000 0.000000 0.0
vt 0.000000 0.000000 0.0
vn 0.157480 0.960630 1.811024
vn 0.000000 0.850394 0.519685
vn 0.000000 0.850394 1.496063
f 104/925/49 197/926/50 196/927/51
#fvcolorindex 55 57 56 
usemtl m58CullBothEnvMappingTexScaleS0.031250TexScaleT0.031250
vt 0.000000 0.000000 0.0
vt 0.000000 0.000000 0.0
vt 0.000000 0.000000 0.0
#vcolor 124.000000 23.000000 0.000000 255.000000
vn 0.976378 0.181102 0.000000
vn 1.000000 0.000000 0.000000
vn 1.000000 0.000000 0.000000
f 88/928/52 196/929/53 193/930/54
#fvcolorindex 62 60 60 
vt 0.000000 0.000000 0.0
vt 0.000000 0.000000 0.0
vt 0.000000 0.000000 0.0
vn 0.976378 0.181102 0.000000
vn 1.000000 0.000000 0.000000
vn 1.000000 0.000000 0.000000
f 88/931/55 193/932/56 192/933/57
#fvcolorindex 62 60 60 
usemtl m56CullBothEnvMappingTexScaleS0.031250TexScaleT0.031250
vt 0.000000 0.000000 0.0
vt 0.000000 0.000000 0.0
vt 0.000000 0.000000 0.0
vn 1.000000 0.000000 0.000000
vn 1.000000 0.000000 0.000000
vn 0.984252 0.141732 0.000000
f 192/934/58 195/935/59 98/936/60
#fvcolorindex 60 60 61 
vt 0.000000 0.000000 0.0
vt 0.000000 0.000000 0.0
vt 0.000000 0.000000 0.0
vn 1.000000 0.000000 0.000000
vn 0.984252 0.141732 0.000000
vn 0.976378 0.181102 0.000000
f 192/937/61 98/938/62 88/939/63
#fvcolorindex 60 61 62 
usemtl m59CullBoth
vt 1.000000 1.000000 0.0
vt 0.740723 0.000000 0.0
vt 0.000000 0.000000 0.0
f 98/940 83/941 170/942
#fvcolorindex 11 2 2 
vt 1.000000 1.000000 0.0
vt 0.000000 0.000000 0.0
vt -0.037109 1.000000 0.0
#vcolor 212.000000 212.000000 212.000000 255.000000
f 98/943 170/944 169/945
#fvcolorindex 11 2 63 
vt 1.000000 1.000000 0.0
vt 1.000000 0.000000 0.0
vt 0.740723 0.000000 0.0
f 98/946 86/947 83/948
#fvcolorindex 11 2 2 
usemtl m60CullBoth
vt 0.000000 0.000000 0.0
vt 1.000000 0.000000 0.0
vt 0.934570 1.000000 0.0
#vcolor 137.000000 137.000000 137.000000 255.000000
f 168/949 110/950 98/951
#fvcolorindex 64 64 11 
vt 0.000000 0.000000 0.0
vt 0.934570 1.000000 0.0
vt 0.001465 1.000000 0.0
f 168/952 98/953 169/954
#fvcolorindex 64 11 63 
usemtl m61CullBoth
vt 1.025879 0.214844 0.0
vt 0.025879 0.214844 0.0
vt 0.000000 0.000000 0.0
f 119/955 118/956 170/957
#fvcolorindex 2 2 2 
vt 1.025879 0.214844 0.0
vt 0.000000 0.000000 0.0
vt 1.000000 0.000000 0.0
f 119/958 170/959 83/960
#fvcolorindex 2 2 2 
usemtl m62CullBoth
vt 1.000000 0.000000 0.0
vt 0.000000 0.000000 0.0
vt 0.000000 0.154297 0.0
#vcolor 223.000000 223.000000 223.000000 255.000000
f 182/961 171/962 117/963
#fvcolorindex 65 12 2 
vt 1.000000 0.000000 0.0
vt 0.000000 0.154297 0.0
vt 1.000000 0.154297 0.0
f 182/964 117/965 116/966
#fvcolorindex 65 2 2 
usemtl m63CullBoth
vt 0.000000 0.000000 0.0
vt 0.285645 1.000000 0.0
vt 0.035645 1.000000 0.0
#vcolor 127.000000 127.000000 127.000000 255.000000
f 101/967 182/968 102/969
#fvcolorindex 66 65 12 
vt 0.000000 0.000000 0.0
vt 1.000000 0.000000 0.0
vt 1.000000 1.000000 0.0
#vcolor 94.000000 94.000000 94.000000 255.000000
f 101/970 173/971 171/972
#fvcolorindex 66 67 12 
vt 0.000000 0.000000 0.0
vt 1.000000 1.000000 0.0
vt 0.285645 1.000000 0.0
f 101/973 171/974 182/975
#fvcolorindex 66 12 65 
usemtl m64CullBoth
vt 1.000000 0.000000 0.0
vt 0.000000 0.000000 0.0
vt 0.066895 1.000000 0.0
f 107/976 175/977 173/978
#fvcolorindex 4 4 67 
vt 1.000000 0.000000 0.0
vt 0.066895 1.000000 0.0
vt 1.000000 1.000000 0.0
f 107/979 173/980 101/981
#fvcolorindex 4 67 66 
usemtl m65CullBoth
vt 0.236328 0.510742 0.0
vt 0.236328 0.236328 0.0
vt 0.429688 0.429688 0.0
v 0.000000 36.448887 264.169556
#joint 33
#vjoint 198
f 136/982 198/983 124/984
#fvcolorindex 1 3 1 
vt 0.236328 0.510742 0.0
vt 0.041992 0.429688 0.0
vt 0.236328 0.236328 0.0
f 136/985 134/986 198/987
#fvcolorindex 1 1 3 
vt 0.041992 0.429688 0.0
vt -0.038086 0.236328 0.0
vt 0.236328 0.236328 0.0
f 134/988 132/989 198/990
#fvcolorindex 1 32 3 
usemtl m66CullBoth
vt -0.038086 0.236328 0.0
vt 0.041992 0.041992 0.0
vt 0.236328 0.236328 0.0
f 132/991 130/992 198/993
#fvcolorindex 32 33 3 
usemtl m67CullBoth
vt 0.041992 0.041992 0.0
vt 0.236328 -0.038086 0.0
vt 0.236328 0.236328 0.0
f 130/994 128/995 198/996
#fvcolorindex 33 33 3 
vt 0.236328 -0.038086 0.0
vt 0.429688 0.041992 0.0
vt 0.236328 0.236328 0.0
f 128/997 126/998 198/999
#fvcolorindex 33 33 3 
vt 0.429688 0.041992 0.0
vt 0.510742 0.236328 0.0
vt 0.236328 0.236328 0.0
f 126/1000 125/1001 198/1002
#fvcolorindex 33 32 3 
usemtl m66CullBoth
vt 0.510742 0.236328 0.0
vt 0.429688 0.429688 0.0
vt 0.236328 0.236328 0.0
f 125/1003 124/1004 198/1005
#fvcolorindex 32 1 3 
g secondary_Part01_Room01
usemtl m68CullBoth
vt -0.374023 0.937500 0.0
vt 4.057617 0.937500 0.0
vt 3.770508 0.084961 0.0
f 147/1006 151/1007 150/1008
#fvcolorindex 3 3 3 
vt -0.374023 0.937500 0.0
vt 3.770508 0.084961 0.0
vt 0.364258 0.084961 0.0
f 147/1009 150/1010 144/1011
#fvcolorindex 3 3 3 
vt 0.364258 0.084961 0.0
vt 3.770508 0.084961 0.0
vt 4.057617 0.937500 0.0
f 159/1012 153/1013 152/1014
#fvcolorindex 3 3 3 
vt 0.364258 0.084961 0.0
vt 4.057617 0.937500 0.0
vt -0.374023 0.937500 0.0
f 159/1015 152/1016 156/1017
#fvcolorindex 3 3 3 
usemtl m69CullBoth
vt 0.364258 0.084961 0.0
vt 3.770508 0.084961 0.0
vt 4.057617 0.937500 0.0
f 144/1018 150/1019 151/1020
#fvcolorindex 1 1 1 
vt 0.364258 0.084961 0.0
vt 4.057617 0.937500 0.0
vt -0.374023 0.937500 0.0
f 144/1021 151/1022 147/1023
#fvcolorindex 1 1 1 
vt -0.374023 0.937500 0.0
vt 4.057617 0.937500 0.0
vt 3.770508 0.084961 0.0
f 156/1024 152/1025 153/1026
#fvcolorindex 1 1 1 
vt -0.374023 0.937500 0.0
vt 3.770508 0.084961 0.0
vt 0.364258 0.084961 0.0
f 156/1027 153/1028 159/1029
#fvcolorindex 1 1 1 
g Room03
g Room03_primary
usemtl m70TransparentCullBothClampSClampT
vt 0.000000 0.000000 0.0
vt 0.968750 0.000000 0.0
vt 0.968750 0.968750 0.0
v -71.000000 -36.385986 332.242340
#joint 37
#vjoint 199
#vcolor 254.000000 254.000000 254.000000 255.000000
v -71.000000 35.614014 332.242340
#joint 37
#vjoint 200
v 0.000000 35.614014 332.242340
#joint 37
#vjoint 201
f 199/1030 200/1031 201/1032
#fvcolorindex 68 68 68 
vt 0.000000 0.000000 0.0
vt 0.968750 0.968750 0.0
vt 0.000000 0.968750 0.0
v 0.000000 -36.385986 332.242340
#joint 37
#vjoint 202
f 199/1033 201/1034 202/1035
#fvcolorindex 68 68 68 
usemtl m71TransparentCullBothClampSClampT
vt 0.000000 0.000000 0.0
vt 0.000000 0.968750 0.0
vt 0.968750 0.968750 0.0
v -71.000000 106.614014 332.242340
#joint 37
#vjoint 203
v 0.000000 106.614014 332.242340
#joint 37
#vjoint 204
f 200/1036 203/1037 204/1038
#fvcolorindex 68 68 68 
vt 0.000000 0.000000 0.0
vt 0.968750 0.968750 0.0
vt 0.968750 0.000000 0.0
f 200/1039 204/1040 201/1041
#fvcolorindex 68 68 68 
usemtl m72TransparentCullBothClampSClampT
vt 0.000000 0.000000 0.0
vt 0.000000 0.968750 0.0
vt 0.968750 0.968750 0.0
v 71.000000 35.614014 332.242340
#joint 37
#vjoint 205
f 202/1042 201/1043 205/1044
#fvcolorindex 68 68 68 
vt 0.000000 0.000000 0.0
vt 0.968750 0.968750 0.0
vt 0.968750 0.000000 0.0
v 71.000000 -36.385986 332.242340
#joint 37
#vjoint 206
f 202/1045 205/1046 206/1047
#fvcolorindex 68 68 68 
usemtl m73TransparentCullBothClampSClampT
vt 0.000000 0.000000 0.0
vt 0.000000 0.968750 0.0
vt 0.968750 0.968750 0.0
v 71.000000 106.614014 332.242340
#joint 37
#vjoint 207
f 201/1048 204/1049 207/1050
#fvcolorindex 68 68 68 
vt 0.000000 0.000000 0.0
vt 0.968750 0.968750 0.0
vt 0.968750 0.000000 0.0
f 201/1051 207/1052 205/1053
#fvcolorindex 68 68 68 
usemtl m74TransparentCullBothClampSClampT
vt 0.000000 0.000000 0.0
vt 0.968750 0.000000 0.0
vt 0.968750 0.968750 0.0
v -71.000000 -36.385986 283.674622
#joint 36
#vjoint 208
v -71.000000 35.614014 283.674622
#joint 36
#vjoint 209
v 0.000000 35.614014 283.674622
#joint 36
#vjoint 210
f 208/1054 209/1055 210/1056
#fvcolorindex 68 68 68 
vt 0.000000 0.000000 0.0
vt 0.968750 0.968750 0.0
vt 0.000000 0.968750 0.0
v 0.000000 -36.385986 283.674622
#joint 36
#vjoint 211
f 208/1057 210/1058 211/1059
#fvcolorindex 68 68 68 
vt 0.000000 0.000000 0.0
vt 0.000000 0.968750 0.0
vt 0.968750 0.968750 0.0
v -64.000000 -29.385986 267.674622
#joint 36
#vjoint 212
v -64.000000 35.614014 267.674622
#joint 36
#vjoint 213
v 0.000000 35.614014 267.674622
#joint 36
#vjoint 214
f 212/1060 213/1061 214/1062
#fvcolorindex 68 68 68 
vt 0.000000 0.000000 0.0
vt 0.968750 0.968750 0.0
vt 0.968750 0.000000 0.0
v 0.000000 -29.385986 267.674622
#joint 36
#vjoint 215
f 212/1063 214/1064 215/1065
#fvcolorindex 68 68 68 
usemtl m75TransparentCullBothClampSClampT
vt 0.000000 0.000000 0.0
vt 0.000000 0.968750 0.0
vt 0.968750 0.968750 0.0
v -71.000000 106.614014 283.674622
#joint 36
#vjoint 216
v 0.000000 106.614014 283.674622
#joint 36
#vjoint 217
f 209/1066 216/1067 217/1068
#fvcolorindex 68 68 68 
vt 0.000000 0.000000 0.0
vt 0.968750 0.968750 0.0
vt 0.968750 0.000000 0.0
f 209/1069 217/1070 210/1071
#fvcolorindex 68 68 68 
vt 0.000000 0.000000 0.0
vt 0.000000 0.968750 0.0
vt 0.968750 0.968750 0.0
v -64.000000 99.614014 267.674622
#joint 36
#vjoint 218
v 0.000000 99.614014 267.674622
#joint 36
#vjoint 219
f 213/1072 218/1073 219/1074
#fvcolorindex 68 68 68 
vt 0.000000 0.000000 0.0
vt 0.968750 0.968750 0.0
vt 0.968750 0.000000 0.0
f 213/1075 219/1076 214/1077
#fvcolorindex 68 68 68 
usemtl m76TransparentCullBothClampSClampT
vt 0.000000 0.000000 0.0
vt 0.000000 0.968750 0.0
vt 0.968750 0.968750 0.0
v 71.000000 35.614014 283.674622
#joint 36
#vjoint 220
f 211/1078 210/1079 220/1080
#fvcolorindex 68 68 68 
vt 0.000000 0.000000 0.0
vt 0.968750 0.968750 0.0
vt 0.968750 0.000000 0.0
v 71.000000 -36.385986 283.674622
#joint 36
#vjoint 221
f 211/1081 220/1082 221/1083
#fvcolorindex 68 68 68 
vt 0.000000 0.000000 0.0
vt 0.000000 0.968750 0.0
vt 0.968750 0.968750 0.0
v 64.000000 35.614014 267.674622
#joint 36
#vjoint 222
f 215/1084 214/1085 222/1086
#fvcolorindex 68 68 68 
vt 0.000000 0.000000 0.0
vt 0.968750 0.968750 0.0
vt 0.968750 0.000000 0.0
v 64.000000 -29.385986 267.674622
#joint 36
#vjoint 223
f 215/1087 222/1088 223/1089
#fvcolorindex 68 68 68 
usemtl m77TransparentCullBothClampSClampT
vt 0.000000 0.000000 0.0
vt 0.000000 0.968750 0.0
vt 0.968750 0.968750 0.0
v 71.000000 106.614014 283.674622
#joint 36
#vjoint 224
f 210/1090 217/1091 224/1092
#fvcolorindex 68 68 68 
vt 0.000000 0.000000 0.0
vt 0.968750 0.968750 0.0
vt 0.968750 0.000000 0.0
f 210/1093 224/1094 220/1095
#fvcolorindex 68 68 68 
vt 0.000000 0.000000 0.0
vt 0.000000 0.968750 0.0
vt 0.968750 0.968750 0.0
v 64.000000 99.614014 267.674622
#joint 36
#vjoint 225
f 214/1096 219/1097 225/1098
#fvcolorindex 68 68 68 
vt 0.000000 0.000000 0.0
vt 0.968750 0.968750 0.0
vt 0.968750 0.000000 0.0
f 214/1099 225/1100 222/1101
#fvcolorindex 68 68 68 
g Room05
g Room05_primary
usemtl m0CullBoth
vt -0.206055 -0.143555 0.0
vt 0.965820 -0.014160 0.0
vt 1.000000 0.000000 0.0
v -6.000000 -105.551117 -52.830456
#joint 33
#vjoint 226
#vcolor 226.000000 226.000000 226.000000 255.000000
v -6.000000 -87.551117 -105.830460
#joint 33
#vjoint 227
#vcolor 254.000000 254.000000 254.000000 255.000000
v 6.000000 -87.551117 -105.830460
#joint 33
#vjoint 228
f 226/1102 227/1103 228/1104
#fvcolorindex 69 70 69 
vt -0.206055 -0.143555 0.0
vt 1.000000 0.000000 0.0
vt -0.171875 -0.129395 0.0
v 6.000000 -105.551117 -52.830456
#joint 33
#vjoint 229
f 226/1105 228/1106 229/1107
#fvcolorindex 69 69 69 
g Room07
g Room07_primary
usemtl m78CullBoth
vt 1.000000 -0.239258 0.0
vt 0.049805 0.000000 0.0
vt 0.049805 0.497070 0.0
v -6.000000 -90.128174 -249.591782
#joint 39
#vjoint 230
#vcolor 254.000000 254.000000 254.000000 255.000000
v -6.000000 -81.128174 -183.591782
#joint 39
#vjoint 231
v -6.000000 36.871830 -183.591782
#joint 39
#vjoint 232
f 230/1108 231/1109 232/1110
#fvcolorindex 71 71 71 
vt 1.000000 -0.239258 0.0
vt 0.049805 0.497070 0.0
vt 1.000000 1.002930 0.0
v -6.000000 36.871830 -249.591782
#joint 39
#vjoint 233
f 230/1111 232/1112 233/1113
#fvcolorindex 71 71 71 
vt 0.200195 0.420898 0.0
vt 0.200195 0.000000 0.0
vt 0.023438 0.000000 0.0
v 6.000000 -81.128174 -183.591782
#joint 39
#vjoint 234
f 232/1114 231/1115 234/1116
#fvcolorindex 71 71 71 
vt 0.200195 0.420898 0.0
vt 0.023438 0.000000 0.0
vt 0.023438 0.420898 0.0
v 6.000000 36.871830 -183.591782
#joint 39
#vjoint 235
f 232/1117 234/1118 235/1119
#fvcolorindex 71 71 71 
vt 0.817383 0.000000 0.0
vt 0.817383 1.000000 0.0
vt 1.000000 1.000000 0.0
v 6.000000 -90.128174 -249.591782
#joint 39
#vjoint 236
f 236/1120 234/1121 231/1122
#fvcolorindex 71 71 71 
vt 0.817383 0.000000 0.0
vt 1.000000 1.000000 0.0
vt 1.000000 0.000000 0.0
f 236/1123 231/1124 230/1125
#fvcolorindex 71 71 71 
vt 0.050781 0.453125 0.0
vt 0.050781 0.000000 0.0
vt 1.017578 -0.226562 0.0
f 235/1126 234/1127 236/1128
#fvcolorindex 71 71 71 
vt 0.050781 0.453125 0.0
vt 1.017578 -0.226562 0.0
vt 1.017578 0.907227 0.0
v 6.000000 36.871830 -249.591782
#joint 39
#vjoint 237
f 235/1129 236/1130 237/1131
#fvcolorindex 71 71 71 
vt 0.817383 0.000000 0.0
vt 1.000000 0.000000 0.0
vt 1.000000 1.000000 0.0
f 236/1132 230/1133 233/1134
#fvcolorindex 71 71 71 
vt 0.817383 0.000000 0.0
vt 1.000000 1.000000 0.0
vt 0.817383 1.000000 0.0
f 236/1135 233/1136 237/1137
#fvcolorindex 71 71 71 
g Room09
g Room09_primary
vt 1.000000 -0.239258 0.0
vt 0.049805 0.000000 0.0
vt 0.049805 0.497070 0.0
v 199.400208 -90.128174 -249.591812
#joint 40
#vjoint 238
#vcolor 254.000000 254.000000 254.000000 255.000000
v 199.400208 -81.128174 -183.591812
#joint 40
#vjoint 239
v 199.400208 36.871830 -183.591812
#joint 40
#vjoint 240
f 238/1138 239/1139 240/1140
#fvcolorindex 72 72 72 
vt 1.000000 -0.239258 0.0
vt 0.049805 0.497070 0.0
vt 1.000000 1.002930 0.0
v 199.400208 36.871830 -249.591812
#joint 40
#vjoint 241
f 238/1141 240/1142 241/1143
#fvcolorindex 72 72 72 
vt 0.200195 0.420898 0.0
vt 0.200195 0.000000 0.0
vt 0.023438 0.000000 0.0
v 210.400208 -81.128174 -183.591812
#joint 40
#vjoint 242
f 240/1144 239/1145 242/1146
#fvcolorindex 72 72 72 
vt 0.200195 0.420898 0.0
vt 0.023438 0.000000 0.0
vt 0.023438 0.420898 0.0
v 210.400208 36.871830 -183.591812
#joint 40
#vjoint 243
f 240/1147 242/1148 243/1149
#fvcolorindex 72 72 72 
vt 0.050781 0.453125 0.0
vt 0.050781 0.000000 0.0
vt 1.017578 -0.226562 0.0
v 210.400208 -90.128174 -249.591812
#joint 40
#vjoint 244
f 243/1150 242/1151 244/1152
#fvcolorindex 72 72 72 
vt 0.050781 0.453125 0.0
vt 1.017578 -0.226562 0.0
vt 1.017578 0.907227 0.0
v 210.400208 36.871830 -249.591812
#joint 40
#vjoint 245
f 243/1153 244/1154 245/1155
#fvcolorindex 72 72 72 
vt 0.817383 0.000000 0.0
vt 1.000000 0.000000 0.0
vt 1.000000 1.000000 0.0
f 244/1156 238/1157 241/1158
#fvcolorindex 72 72 72 
vt 0.817383 0.000000 0.0
vt 1.000000 1.000000 0.0
vt 0.817383 1.000000 0.0
f 244/1159 241/1160 245/1161
#fvcolorindex 72 72 72 
usemtl m79CullBoth
vt 0.000000 0.000000 0.0
vt 0.000000 0.000000 0.0
vt 0.000000 0.000000 0.0
f 244/1162 242/1163 239/1164
#fvcolorindex 72 72 72 
vt 0.000000 0.000000 0.0
vt 0.000000 0.000000 0.0
vt 0.000000 0.000000 0.0
f 244/1165 239/1166 238/1167
#fvcolorindex 72 72 72 
