# Created by SubDrag and the GoldenEye Setup Editor V4.4
mtllib Gun0017.mtl
#joint 0
#jointposition 0.000000 -20.375574 -15.413641
#joint 1
#jointposition -0.126130 -34.500000 -403.726105
#joint 2
#jointposition 0.000000 -20.375574 -74.143860
#joint 3
#jointposition 28.404760 -54.346611 -32.664295
#joint 4
#jointposition 50.075203 -78.841194 -10.664248
#joint 5
#jointposition 28.643808 -16.714527 20.778549
#joint 6
#jointposition 26.518341 -24.155291 60.154758
#joint 7
#jointposition 24.862719 -25.637974 87.085503
#joint 8
#jointposition 8.820322 -11.296313 21.695198
#joint 9
#jointposition 8.668717 -23.348385 71.418152
#joint 10
#jointposition 7.570724 -26.182207 98.349426
#joint 11
#jointposition -7.449821 -15.536673 21.601517
#joint 12
#jointposition -6.777197 -21.532187 62.353848
#joint 13
#jointposition -6.290760 -23.494061 85.077034
#joint 14
#jointposition -23.590879 -23.057791 21.828247
#joint 15
#jointposition -21.894306 -25.130569 56.929543
#joint 16
#jointposition -20.740978 -24.727604 74.077179
#joint 17
#jointposition 234.474915 -34.500000 -403.725983
#joint 18
#jointposition 234.348785 -20.375599 -74.143890
#joint 19
#jointposition 205.943985 -54.346600 -32.664291
#joint 20
#jointposition 184.273590 -78.841202 -10.664192
#joint 21
#jointposition 205.704987 -16.714600 20.778511
#joint 22
#jointposition 207.830490 -24.155300 60.154812
#joint 23
#jointposition 209.561584 -25.811800 87.094810
#joint 24
#jointposition 225.528473 -11.296299 21.695213
#joint 25
#jointposition 225.680069 -23.348400 71.418114
#joint 26
#jointposition 226.778076 -26.182199 98.349411
#joint 27
#jointposition 241.798599 -15.536699 21.601509
#joint 28
#jointposition 241.125977 -21.532200 62.353809
#joint 29
#jointposition 240.639542 -23.494101 85.077011
#joint 30
#jointposition 257.939697 -23.057798 21.828209
#joint 31
#jointposition 256.243103 -25.130598 56.929508
#joint 32
#jointposition 255.089798 -24.727598 74.077209
#joint 33
#jointposition 281.343018 0.000002 -26.240334
#joint 34
#jointposition 51.491776 0.000000 -26.244484
#joint 35
#jointposition 0.000000 -40.207458 -169.794708
#joint 36
#jointposition 18.558649 5.559719 -151.444489
#joint 37
#jointposition 0.000000 58.417618 44.859848
#joint 38
#jointposition 0.000000 6.728527 278.229492
#joint 39
#jointposition 37.876530 0.000000 -26.240341
#connection 0 1
#connection 1 2
#connection 2 35
#connection 35 36
#connection 35 37
#connection 35 38
#connection 35 39
#connection 39 34
#connection 2 3
#connection 3 4
#connection 2 5
#connection 5 6
#connection 6 7
#connection 2 8
#connection 8 9
#connection 9 10
#connection 2 11
#connection 11 12
#connection 12 13
#connection 2 14
#connection 14 15
#connection 15 16
#connection 0 17
#connection 17 18
#connection 18 19
#connection 19 20
#connection 18 21
#connection 21 22
#connection 22 23
#connection 18 24
#connection 24 25
#connection 25 26
#connection 18 27
#connection 27 28
#connection 28 29
#connection 18 30
#connection 30 31
#connection 31 32
#connection 18 33
g Room02
g Room02_primary
usemtl m0EnvMappingTexScaleS0.031250TexScaleT0.031250
vt 0.000000 0.000000 0.0
vt 0.000000 0.000000 0.0
vt 0.000000 0.000000 0.0
v 295.343018 2.000002 -11.240334
#joint 33
#vjoint 1
#vcolor 153.000000 42.000000 60.000000 255.000000
v 295.343018 2.000002 -55.240334
#joint 33
#vjoint 2
#vcolor 153.000000 42.000000 196.000000 255.000000
v 295.343018 -2.999998 -55.240334
#joint 33
#vjoint 3
#vcolor 179.000000 179.000000 192.000000 255.000000
vn 1.204724 0.330709 0.472441
vn 1.204724 0.330709 1.543307
vn 1.409449 1.409449 1.511811
f 1/1/1 2/2/2 3/3/3
#fvcolorindex 1 2 3 
vt 0.000000 0.000000 0.0
vt 0.000000 0.000000 0.0
vt 0.000000 0.000000 0.0
v 295.343018 -2.999998 -11.240334
#joint 33
#vjoint 4
#vcolor 179.000000 179.000000 64.000000 255.000000
vn 1.204724 0.330709 0.472441
vn 1.409449 1.409449 1.511811
vn 1.409449 1.409449 0.503937
f 1/4/4 3/5/5 4/6/6
#fvcolorindex 1 3 4 
usemtl m1EnvMappingTexScaleS0.031250TexScaleT0.031250
vt 0.000000 0.000000 0.0
vt 0.000000 0.000000 0.0
vt 0.000000 0.000000 0.0
v 300.343018 8.000002 -11.240334
#joint 33
#vjoint 5
#vcolor 0.000000 109.000000 64.000000 255.000000
v 300.343018 8.000002 -55.240334
#joint 33
#vjoint 6
#vcolor 0.000000 109.000000 192.000000 255.000000
vn 0.000000 0.858268 0.503937
vn 0.000000 0.858268 1.511811
vn 1.204724 0.330709 1.543307
f 5/7/7 6/8/8 2/9/9
#fvcolorindex 5 6 2 
vt 0.000000 0.000000 0.0
vt 0.000000 0.000000 0.0
vt 0.000000 0.000000 0.0
vn 0.000000 0.858268 0.503937
vn 1.204724 0.330709 1.543307
vn 1.204724 0.330709 0.472441
f 5/10/10 2/11/11 1/12/12
#fvcolorindex 5 2 1 
vt 0.000000 0.000000 0.0
vt 0.000000 0.000000 0.0
vt 0.000000 0.000000 0.0
v 306.343018 8.000002 -11.240334
#joint 33
#vjoint 7
v 306.343018 8.000002 -55.240334
#joint 33
#vjoint 8
vn 0.000000 0.858268 0.503937
vn 0.000000 0.858268 1.511811
vn 0.000000 0.858268 1.511811
f 7/13/13 8/14/14 6/15/15
#fvcolorindex 5 6 6 
vt 0.000000 0.000000 0.0
vt 0.000000 0.000000 0.0
vt 0.000000 0.000000 0.0
vn 0.000000 0.858268 0.503937
vn 0.000000 0.858268 1.511811
vn 0.000000 0.858268 0.503937
f 7/16/16 6/17/17 5/18/18
#fvcolorindex 5 6 5 
usemtl m2EnvMappingTexScaleS0.031250TexScaleT0.031250
vt 0.000000 0.000000 0.0
vt 0.000000 0.000000 0.0
vt 0.000000 0.000000 0.0
v 311.343018 2.000002 -11.240334
#joint 33
#vjoint 9
#vcolor 97.000000 216.000000 70.000000 255.000000
v 311.343018 2.000002 -55.240334
#joint 33
#vjoint 10
#vcolor 97.000000 216.000000 186.000000 255.000000
vn 0.763780 1.700787 0.551181
vn 0.763780 1.700787 1.464567
vn 0.000000 0.858268 1.511811
f 9/19/19 10/20/20 8/21/21
#fvcolorindex 7 8 6 
vt 0.000000 0.000000 0.0
vt 0.000000 0.000000 0.0
vt 0.000000 0.000000 0.0
vn 0.763780 1.700787 0.551181
vn 0.000000 0.858268 1.511811
vn 0.000000 0.858268 0.503937
f 9/22/22 8/23/23 7/24/24
#fvcolorindex 7 6 5 
usemtl m1EnvMappingTexScaleS0.031250TexScaleT0.031250
vt 0.000000 0.000000 0.0
vt 0.000000 0.000000 0.0
vt 0.000000 0.000000 0.0
v 317.343018 8.000002 -11.240334
#joint 33
#vjoint 11
v 317.343018 8.000002 -55.240334
#joint 33
#vjoint 12
vn 0.000000 0.858268 0.503937
vn 0.000000 0.858268 1.511811
vn 1.204724 0.330709 1.543307
f 11/25/25 12/26/26 10/27/27
#fvcolorindex 5 6 2 
vt 0.000000 0.000000 0.0
vt 0.000000 0.000000 0.0
vt 0.000000 0.000000 0.0
vn 0.000000 0.858268 0.503937
vn 1.204724 0.330709 1.543307
vn 1.204724 0.330709 0.472441
f 11/28/28 10/29/29 9/30/30
#fvcolorindex 5 2 1 
vt 0.000000 0.000000 0.0
vt 0.000000 0.000000 0.0
vt 0.000000 0.000000 0.0
v 322.343018 8.000002 -11.240334
#joint 33
#vjoint 13
v 322.343018 8.000002 -55.240334
#joint 33
#vjoint 14
vn 0.000000 0.858268 0.503937
vn 0.000000 0.858268 1.511811
vn 0.000000 0.858268 1.511811
f 13/31/31 14/32/32 12/33/33
#fvcolorindex 5 6 6 
vt 0.000000 0.000000 0.0
vt 0.000000 0.000000 0.0
vt 0.000000 0.000000 0.0
vn 0.000000 0.858268 0.503937
vn 0.000000 0.858268 1.511811
vn 0.000000 0.858268 0.503937
f 13/34/34 12/35/35 11/36/36
#fvcolorindex 5 6 5 
usemtl m2EnvMappingTexScaleS0.031250TexScaleT0.031250
vt 0.000000 0.000000 0.0
vt 0.000000 0.000000 0.0
vt 0.000000 0.000000 0.0
v 327.343018 3.000002 -11.240334
#joint 33
#vjoint 15
v 328.343018 3.000002 -55.240334
#joint 33
#vjoint 16
vn 0.763780 1.700787 0.551181
vn 0.763780 1.700787 1.464567
vn 0.000000 0.858268 1.511811
f 15/37/37 16/38/38 14/39/39
#fvcolorindex 7 8 6 
vt 0.000000 0.000000 0.0
vt 0.000000 0.000000 0.0
vt 0.000000 0.000000 0.0
vn 0.763780 1.700787 0.551181
vn 0.000000 0.858268 1.511811
vn 0.000000 0.858268 0.503937
f 15/40/40 14/41/41 13/42/42
#fvcolorindex 7 6 5 
usemtl m1EnvMappingTexScaleS0.031250TexScaleT0.031250
vt 0.000000 0.000000 0.0
vt 0.000000 0.000000 0.0
vt 0.000000 0.000000 0.0
v 333.343018 8.000002 -11.240334
#joint 33
#vjoint 17
v 333.343018 8.000002 -55.240334
#joint 33
#vjoint 18
vn 0.000000 0.858268 0.503937
vn 0.000000 0.858268 1.511811
vn 1.204724 0.330709 1.543307
f 17/43/43 18/44/44 16/45/45
#fvcolorindex 5 6 2 
vt 0.000000 0.000000 0.0
vt 0.000000 0.000000 0.0
vt 0.000000 0.000000 0.0
vn 0.000000 0.858268 0.503937
vn 1.204724 0.330709 1.543307
vn 1.204724 0.330709 0.472441
f 17/46/46 16/47/47 15/48/48
#fvcolorindex 5 2 1 
vt 0.000000 0.000000 0.0
vt 0.000000 0.000000 0.0
vt 0.000000 0.000000 0.0
v 338.343018 8.000002 -11.240334
#joint 33
#vjoint 19
v 338.343018 8.000002 -55.240334
#joint 33
#vjoint 20
vn 0.000000 0.858268 0.503937
vn 0.000000 0.858268 1.511811
vn 0.000000 0.858268 1.511811
f 19/49/49 20/50/50 18/51/51
#fvcolorindex 5 6 6 
vt 0.000000 0.000000 0.0
vt 0.000000 0.000000 0.0
vt 0.000000 0.000000 0.0
vn 0.000000 0.858268 0.503937
vn 0.000000 0.858268 1.511811
vn 0.000000 0.858268 0.503937
f 19/52/52 18/53/53 17/54/54
#fvcolorindex 5 6 5 
usemtl m2EnvMappingTexScaleS0.031250TexScaleT0.031250
vt 0.000000 0.000000 0.0
vt 0.000000 0.000000 0.0
vt 0.000000 0.000000 0.0
v 344.343018 3.000002 -11.240334
#joint 33
#vjoint 21
v 344.343018 3.000002 -55.240334
#joint 33
#vjoint 22
vn 0.763780 1.700787 0.551181
vn 0.763780 1.700787 1.464567
vn 0.000000 0.858268 1.511811
f 21/55/55 22/56/56 20/57/57
#fvcolorindex 7 8 6 
vt 0.000000 0.000000 0.0
vt 0.000000 0.000000 0.0
vt 0.000000 0.000000 0.0
vn 0.763780 1.700787 0.551181
vn 0.000000 0.858268 1.511811
vn 0.000000 0.858268 0.503937
f 21/58/58 20/59/59 19/60/60
#fvcolorindex 7 6 5 
usemtl m1EnvMappingTexScaleS0.031250TexScaleT0.031250
vt 0.000000 0.000000 0.0
vt 0.000000 0.000000 0.0
vt 0.000000 0.000000 0.0
v 349.343018 8.000002 -11.240334
#joint 33
#vjoint 23
v 349.343018 8.000002 -55.240334
#joint 33
#vjoint 24
vn 0.000000 0.858268 0.503937
vn 0.000000 0.858268 1.511811
vn 1.204724 0.330709 1.543307
f 23/61/61 24/62/62 22/63/63
#fvcolorindex 5 6 2 
vt 0.000000 0.000000 0.0
vt 0.000000 0.000000 0.0
vt 0.000000 0.000000 0.0
vn 0.000000 0.858268 0.503937
vn 1.204724 0.330709 1.543307
vn 1.204724 0.330709 0.472441
f 23/64/64 22/65/65 21/66/66
#fvcolorindex 5 2 1 
vt 0.000000 0.000000 0.0
vt 0.000000 0.000000 0.0
vt 0.000000 0.000000 0.0
v 355.343018 8.000002 -11.240334
#joint 33
#vjoint 25
v 355.343018 8.000002 -55.240334
#joint 33
#vjoint 26
vn 0.000000 0.858268 0.503937
vn 0.000000 0.858268 1.511811
vn 0.000000 0.858268 1.511811
f 25/67/67 26/68/68 24/69/69
#fvcolorindex 5 6 6 
vt 0.000000 0.000000 0.0
vt 0.000000 0.000000 0.0
vt 0.000000 0.000000 0.0
vn 0.000000 0.858268 0.503937
vn 0.000000 0.858268 1.511811
vn 0.000000 0.858268 0.503937
f 25/70/70 24/71/71 23/72/72
#fvcolorindex 5 6 5 
usemtl m2EnvMappingTexScaleS0.031250TexScaleT0.031250
vt 0.000000 0.000000 0.0
vt 0.000000 0.000000 0.0
vt 0.000000 0.000000 0.0
v 360.343018 3.000002 -11.240334
#joint 33
#vjoint 27
v 360.343018 3.000002 -55.240334
#joint 33
#vjoint 28
vn 0.763780 1.700787 0.551181
vn 0.763780 1.700787 1.464567
vn 0.000000 0.858268 1.511811
f 27/73/73 28/74/74 26/75/75
#fvcolorindex 7 8 6 
vt 0.000000 0.000000 0.0
vt 0.000000 0.000000 0.0
vt 0.000000 0.000000 0.0
vn 0.763780 1.700787 0.551181
vn 0.000000 0.858268 1.511811
vn 0.000000 0.858268 0.503937
f 27/76/76 26/77/77 25/78/78
#fvcolorindex 7 6 5 
usemtl m1EnvMappingTexScaleS0.031250TexScaleT0.031250
vt 0.000000 0.000000 0.0
vt 0.000000 0.000000 0.0
vt 0.000000 0.000000 0.0
v 365.343018 8.000002 -11.240334
#joint 33
#vjoint 29
v 365.343018 8.000002 -55.240334
#joint 33
#vjoint 30
vn 0.000000 0.858268 0.503937
vn 0.000000 0.858268 1.511811
vn 1.204724 0.330709 1.543307
f 29/79/79 30/80/80 28/81/81
#fvcolorindex 5 6 2 
vt 0.000000 0.000000 0.0
vt 0.000000 0.000000 0.0
vt 0.000000 0.000000 0.0
vn 0.000000 0.858268 0.503937
vn 1.204724 0.330709 1.543307
vn 1.204724 0.330709 0.472441
f 29/82/82 28/83/83 27/84/84
#fvcolorindex 5 2 1 
vt 0.000000 0.000000 0.0
vt 0.000000 0.000000 0.0
vt 0.000000 0.000000 0.0
v 371.343018 8.000002 -11.240334
#joint 33
#vjoint 31
v 371.343018 8.000002 -55.240334
#joint 33
#vjoint 32
vn 0.000000 0.858268 0.503937
vn 0.000000 0.858268 1.511811
vn 0.000000 0.858268 1.511811
f 31/85/85 32/86/86 30/87/87
#fvcolorindex 5 6 6 
vt 0.000000 0.000000 0.0
vt 0.000000 0.000000 0.0
vt 0.000000 0.000000 0.0
vn 0.000000 0.858268 0.503937
vn 0.000000 0.858268 1.511811
vn 0.000000 0.858268 0.503937
f 31/88/88 30/89/89 29/90/90
#fvcolorindex 5 6 5 
usemtl m2EnvMappingTexScaleS0.031250TexScaleT0.031250
vt 0.000000 0.000000 0.0
vt 0.000000 0.000000 0.0
vt 0.000000 0.000000 0.0
v 376.343018 3.000002 -11.240334
#joint 33
#vjoint 33
v 376.343018 3.000002 -55.240334
#joint 33
#vjoint 34
vn 0.763780 1.700787 0.551181
vn 0.763780 1.700787 1.464567
vn 0.000000 0.858268 1.511811
f 33/91/91 34/92/92 32/93/93
#fvcolorindex 7 8 6 
vt 0.000000 0.000000 0.0
vt 0.000000 0.000000 0.0
vt 0.000000 0.000000 0.0
vn 0.763780 1.700787 0.551181
vn 0.000000 0.858268 1.511811
vn 0.000000 0.858268 0.503937
f 33/94/94 32/95/95 31/96/96
#fvcolorindex 7 6 5 
usemtl m1EnvMappingTexScaleS0.031250TexScaleT0.031250
vt 0.000000 0.000000 0.0
vt 0.000000 0.000000 0.0
vt 0.000000 0.000000 0.0
v 382.343018 8.000002 -11.240334
#joint 33
#vjoint 35
v 382.343018 8.000002 -55.240334
#joint 33
#vjoint 36
vn 0.000000 0.858268 0.503937
vn 0.000000 0.858268 1.511811
vn 1.204724 0.330709 1.543307
f 35/97/97 36/98/98 34/99/99
#fvcolorindex 5 6 2 
vt 0.000000 0.000000 0.0
vt 0.000000 0.000000 0.0
vt 0.000000 0.000000 0.0
vn 0.000000 0.858268 0.503937
vn 1.204724 0.330709 1.543307
vn 1.204724 0.330709 0.472441
f 35/100/100 34/101/101 33/102/102
#fvcolorindex 5 2 1 
vt 0.000000 0.000000 0.0
vt 0.000000 0.000000 0.0
vt 0.000000 0.000000 0.0
v 387.343018 8.000002 -11.240334
#joint 33
#vjoint 37
v 387.343018 8.000002 -55.240334
#joint 33
#vjoint 38
vn 0.000000 0.858268 0.503937
vn 0.000000 0.858268 1.511811
vn 0.000000 0.858268 1.511811
f 37/103/103 38/104/104 36/105/105
#fvcolorindex 5 6 6 
vt 0.000000 0.000000 0.0
vt 0.000000 0.000000 0.0
vt 0.000000 0.000000 0.0
vn 0.000000 0.858268 0.503937
vn 0.000000 0.858268 1.511811
vn 0.000000 0.858268 0.503937
f 37/106/106 36/107/107 35/108/108
#fvcolorindex 5 6 5 
usemtl m2EnvMappingTexScaleS0.031250TexScaleT0.031250
vt 0.000000 0.000000 0.0
vt 0.000000 0.000000 0.0
vt 0.000000 0.000000 0.0
v 393.343018 3.000002 -11.240334
#joint 33
#vjoint 39
v 393.343018 3.000002 -55.240334
#joint 33
#vjoint 40
vn 0.763780 1.700787 0.551181
vn 0.763780 1.700787 1.464567
vn 0.000000 0.858268 1.511811
f 39/109/109 40/110/110 38/111/111
#fvcolorindex 7 8 6 
vt 0.000000 0.000000 0.0
vt 0.000000 0.000000 0.0
vt 0.000000 0.000000 0.0
vn 0.763780 1.700787 0.551181
vn 0.000000 0.858268 1.511811
vn 0.000000 0.858268 0.503937
f 39/112/112 38/113/113 37/114/114
#fvcolorindex 7 6 5 
usemtl m1EnvMappingTexScaleS0.031250TexScaleT0.031250
vt 0.000000 0.000000 0.0
vt 0.000000 0.000000 0.0
vt 0.000000 0.000000 0.0
v 398.343018 8.000002 -11.240334
#joint 33
#vjoint 41
v 398.343018 8.000002 -55.240334
#joint 33
#vjoint 42
vn 0.000000 0.858268 0.503937
vn 0.000000 0.858268 1.511811
vn 1.204724 0.330709 1.543307
f 41/115/115 42/116/116 40/117/117
#fvcolorindex 5 6 2 
vt 0.000000 0.000000 0.0
vt 0.000000 0.000000 0.0
vt 0.000000 0.000000 0.0
vn 0.000000 0.858268 0.503937
vn 1.204724 0.330709 1.543307
vn 1.204724 0.330709 0.472441
f 41/118/118 40/119/119 39/120/120
#fvcolorindex 5 2 1 
vt 0.000000 0.000000 0.0
vt 0.000000 0.000000 0.0
vt 0.000000 0.000000 0.0
v 403.343018 8.000002 -11.240334
#joint 33
#vjoint 43
v 403.343018 8.000002 -55.240334
#joint 33
#vjoint 44
vn 0.000000 0.858268 0.503937
vn 0.000000 0.858268 1.511811
vn 0.000000 0.858268 1.511811
f 43/121/121 44/122/122 42/123/123
#fvcolorindex 5 6 6 
vt 0.000000 0.000000 0.0
vt 0.000000 0.000000 0.0
vt 0.000000 0.000000 0.0
vn 0.000000 0.858268 0.503937
vn 0.000000 0.858268 1.511811
vn 0.000000 0.858268 0.503937
f 43/124/124 42/125/125 41/126/126
#fvcolorindex 5 6 5 
usemtl m2EnvMappingTexScaleS0.031250TexScaleT0.031250
vt 0.000000 0.000000 0.0
vt 0.000000 0.000000 0.0
vt 0.000000 0.000000 0.0
v 409.343018 3.000002 -11.240334
#joint 33
#vjoint 45
v 409.343018 3.000002 -55.240334
#joint 33
#vjoint 46
vn 0.763780 1.700787 0.551181
vn 0.763780 1.700787 1.464567
vn 0.000000 0.858268 1.511811
f 45/127/127 46/128/128 44/129/129
#fvcolorindex 7 8 6 
vt 0.000000 0.000000 0.0
vt 0.000000 0.000000 0.0
vt 0.000000 0.000000 0.0
vn 0.763780 1.700787 0.551181
vn 0.000000 0.858268 1.511811
vn 0.000000 0.858268 0.503937
f 45/130/130 44/131/131 43/132/132
#fvcolorindex 7 6 5 
usemtl m1EnvMappingTexScaleS0.031250TexScaleT0.031250
vt 0.000000 0.000000 0.0
vt 0.000000 0.000000 0.0
vt 0.000000 0.000000 0.0
v 414.343018 8.000002 -11.240334
#joint 33
#vjoint 47
v 414.343018 8.000002 -55.240334
#joint 33
#vjoint 48
vn 0.000000 0.858268 0.503937
vn 0.000000 0.858268 1.511811
vn 1.204724 0.330709 1.543307
f 47/133/133 48/134/134 46/135/135
#fvcolorindex 5 6 2 
vt 0.000000 0.000000 0.0
vt 0.000000 0.000000 0.0
vt 0.000000 0.000000 0.0
vn 0.000000 0.858268 0.503937
vn 1.204724 0.330709 1.543307
vn 1.204724 0.330709 0.472441
f 47/136/136 46/137/137 45/138/138
#fvcolorindex 5 2 1 
vt 0.000000 0.000000 0.0
vt 0.000000 0.000000 0.0
vt 0.000000 0.000000 0.0
v 420.343018 8.000002 -11.240334
#joint 33
#vjoint 49
v 420.343018 8.000002 -55.240334
#joint 33
#vjoint 50
vn 0.000000 0.858268 0.503937
vn 0.000000 0.858268 1.511811
vn 0.000000 0.858268 1.511811
f 49/139/139 50/140/140 48/141/141
#fvcolorindex 5 6 6 
vt 0.000000 0.000000 0.0
vt 0.000000 0.000000 0.0
vt 0.000000 0.000000 0.0
vn 0.000000 0.858268 0.503937
vn 0.000000 0.858268 1.511811
vn 0.000000 0.858268 0.503937
f 49/142/142 48/143/143 47/144/144
#fvcolorindex 5 6 5 
usemtl m2EnvMappingTexScaleS0.031250TexScaleT0.031250
vt 0.000000 0.000000 0.0
vt 0.000000 0.000000 0.0
vt 0.000000 0.000000 0.0
v 425.343018 3.000002 -11.240334
#joint 33
#vjoint 51
v 425.343018 3.000002 -55.240334
#joint 33
#vjoint 52
vn 0.763780 1.700787 0.551181
vn 0.763780 1.700787 1.464567
vn 0.000000 0.858268 1.511811
f 51/145/145 52/146/146 50/147/147
#fvcolorindex 7 8 6 
vt 0.000000 0.000000 0.0
vt 0.000000 0.000000 0.0
vt 0.000000 0.000000 0.0
vn 0.763780 1.700787 0.551181
vn 0.000000 0.858268 1.511811
vn 0.000000 0.858268 0.503937
f 51/148/148 50/149/149 49/150/150
#fvcolorindex 7 6 5 
usemtl m3
vt 0.000000 0.000000 0.0
vt 0.000000 -0.731445 0.0
vt 0.996094 -0.723633 0.0
v 297.343018 -10.999998 -66.240334
#joint 33
#vjoint 53
#vcolor 31.000000 31.000000 31.000000 255.000000
v 281.343018 -10.999998 -57.240334
#joint 33
#vjoint 54
v 281.343018 13.000002 -57.240334
#joint 33
#vjoint 55
#vcolor 169.000000 169.000000 169.000000 255.000000
f 53/151 54/152 55/153
#fvcolorindex 9 9 10 
vt 0.000000 0.000000 0.0
vt 0.996094 -0.723633 0.0
vt 0.997070 0.012695 0.0
v 296.343018 13.000002 -66.240334
#joint 33
#vjoint 56
f 53/154 55/155 56/156
#fvcolorindex 9 10 10 
vt -4.001953 0.000000 0.0
vt -3.564453 -0.750977 0.0
vt -0.444336 -0.766602 0.0
v 296.343018 -8.999998 13.759666
#joint 33
#vjoint 57
v 282.343018 -8.999998 4.759666
#joint 33
#vjoint 58
f 57/157 58/158 54/159
#fvcolorindex 9 9 9 
vt -4.001953 0.000000 0.0
vt -0.444336 -0.766602 0.0
vt 0.000000 0.000000 0.0
f 57/160 54/161 53/162
#fvcolorindex 9 9 9 
usemtl m4
vt 0.024414 0.019531 0.0
vt -0.078125 -0.674805 0.0
vt 0.997070 -0.777344 0.0
v 296.343018 13.000002 1.759666
#joint 33
#vjoint 59
#vcolor 254.000000 254.000000 254.000000 255.000000
v 281.343018 13.000002 -2.240334
#joint 33
#vjoint 60
#vcolor 46.000000 46.000000 46.000000 255.000000
f 59/163 60/164 58/165
#fvcolorindex 11 10 12 
vt 0.024414 0.019531 0.0
vt 0.997070 -0.777344 0.0
vt 1.197266 -0.003906 0.0
f 59/166 58/167 57/168
#fvcolorindex 11 12 12 
usemtl m5
vt 0.000000 0.000000 0.0
vt 0.397461 -0.669922 0.0
vt 2.814453 -0.656250 0.0
f 56/169 55/170 60/171
#fvcolorindex 10 10 10 
vt 0.000000 0.000000 0.0
vt 2.814453 -0.656250 0.0
vt 3.010742 0.000000 0.0
f 56/172 60/173 59/174
#fvcolorindex 10 10 11 
usemtl m6
vt 3.601562 0.016602 0.0
vt 0.000000 0.016602 0.0
vt 0.000000 2.167969 0.0
v 430.343018 -9.999998 -66.240334
#joint 33
#vjoint 61
v 430.343018 -8.999998 13.759666
#joint 33
#vjoint 62
f 53/175 61/176 62/177
#fvcolorindex 9 9 9 
vt 3.601562 0.016602 0.0
vt 0.000000 2.167969 0.0
vt 3.601562 2.167969 0.0
f 53/178 62/179 57/180
#fvcolorindex 9 9 9 
usemtl m7
vt 0.000000 1.852539 0.0
vt 0.165039 1.486328 0.0
vt 3.423828 1.486328 0.0
v 430.343018 14.000002 1.759666
#joint 33
#vjoint 63
v 424.343018 14.000002 -11.240334
#joint 33
#vjoint 64
v 303.343018 13.000002 -11.240334
#joint 33
#vjoint 65
f 63/181 64/182 65/183
#fvcolorindex 11 11 11 
vt 0.000000 1.852539 0.0
vt 3.423828 1.486328 0.0
vt 3.601562 1.852539 0.0
#vcolor 0.000000 0.000000 0.000000 255.000000
f 63/184 65/185 59/186
#fvcolorindex 11 11 13 
vt 0.000000 0.000000 0.0
vt 0.164062 0.308594 0.0
vt 0.165039 1.486328 0.0
v 430.343018 14.000002 -66.240334
#joint 33
#vjoint 66
v 424.343018 14.000002 -55.240334
#joint 33
#vjoint 67
f 66/187 67/188 64/189
#fvcolorindex 11 11 11 
vt 0.000000 0.000000 0.0
vt 0.165039 1.486328 0.0
vt 0.000000 1.852539 0.0
f 66/190 64/191 63/192
#fvcolorindex 11 11 11 
usemtl m8
vt 3.601562 0.000000 0.0
vt 3.423828 0.309570 0.0
vt 0.164062 0.308594 0.0
v 303.343018 13.000002 -55.240334
#joint 33
#vjoint 68
f 56/193 68/194 67/195
#fvcolorindex 13 11 11 
vt 3.601562 0.000000 0.0
vt 0.164062 0.308594 0.0
vt 0.000000 0.000000 0.0
f 56/196 67/197 66/198
#fvcolorindex 13 11 11 
vt 3.601562 1.852539 0.0
vt 3.423828 1.486328 0.0
vt 3.423828 0.309570 0.0
f 59/199 65/200 68/201
#fvcolorindex 13 11 11 
vt 3.601562 1.852539 0.0
vt 3.423828 0.309570 0.0
vt 3.601562 0.000000 0.0
f 59/202 68/203 56/204
#fvcolorindex 13 11 13 
usemtl m7
vt -0.133789 0.459961 0.0
vt -0.133789 0.000000 0.0
vt 0.833008 0.000000 0.0
v 424.343018 -6.999998 -55.240334
#joint 33
#vjoint 69
#vcolor 92.000000 92.000000 92.000000 255.000000
v 424.343018 -6.999998 -11.240334
#joint 33
#vjoint 70
f 67/205 69/206 70/207
#fvcolorindex 11 14 14 
vt -0.133789 0.459961 0.0
vt 0.833008 0.000000 0.0
vt 0.833008 0.459961 0.0
f 67/208 70/209 64/210
#fvcolorindex 11 14 11 
vt -0.412109 0.498047 0.0
vt -0.412109 0.000000 0.0
vt 2.487305 0.000000 0.0
v 303.343018 -6.999998 -55.240334
#joint 33
#vjoint 71
f 68/211 71/212 69/213
#fvcolorindex 11 14 14 
vt -0.412109 0.498047 0.0
vt 2.487305 0.000000 0.0
vt 2.487305 0.498047 0.0
f 68/214 69/215 67/216
#fvcolorindex 11 14 11 
vt 0.000000 0.531250 0.0
vt 0.000000 0.000000 0.0
vt 1.116211 0.000000 0.0
v 303.343018 -6.999998 -11.240334
#joint 33
#vjoint 72
f 65/217 72/218 71/219
#fvcolorindex 11 14 14 
vt 0.000000 0.531250 0.0
vt 1.116211 0.000000 0.0
vt 1.116211 0.531250 0.0
f 65/220 71/221 68/222
#fvcolorindex 11 14 11 
vt -1.001953 0.532227 0.0
vt -1.001953 0.000000 0.0
vt 2.091797 0.000000 0.0
f 64/223 70/224 72/225
#fvcolorindex 11 14 14 
vt -1.001953 0.532227 0.0
vt 2.091797 0.000000 0.0
vt 2.091797 0.532227 0.0
f 64/226 72/227 65/228
#fvcolorindex 11 14 11 
usemtl m9
vt 0.000000 0.000000 0.0
vt 2.015625 0.000000 0.0
vt 2.015625 0.986328 0.0
#vcolor 84.000000 84.000000 84.000000 255.000000
f 57/229 62/230 63/231
#fvcolorindex 15 15 11 
vt 0.000000 0.000000 0.0
vt 2.015625 0.986328 0.0
vt 0.000000 0.986328 0.0
f 57/232 63/233 59/234
#fvcolorindex 15 11 11 
usemtl m10
vt 2.013672 0.974609 0.0
vt 0.000000 0.974609 0.0
vt 0.000000 0.000000 0.0
#vcolor 73.000000 73.000000 73.000000 255.000000
f 56/235 66/236 61/237
#fvcolorindex 10 11 16 
vt 2.013672 0.974609 0.0
vt 0.000000 0.000000 0.0
vt 2.013672 0.000000 0.0
f 56/238 61/239 53/240
#fvcolorindex 10 16 16 
usemtl m11
vt -0.056152 -0.031250 0.0
vt -0.056152 -3.203125 0.0
vt 2.139160 -3.199219 0.0
#vcolor 203.000000 203.000000 203.000000 255.000000
f 70/241 69/242 71/243
#fvcolorindex 11 17 17 
vt -0.056152 -0.031250 0.0
vt 2.139160 -3.199219 0.0
vt 2.139160 -0.027344 0.0
f 70/244 71/245 72/246
#fvcolorindex 11 17 17 
usemtl m12
vt 1.879883 -0.626953 0.0
vt 2.189453 0.000000 0.0
vt 0.000000 0.000000 0.0
#vcolor 122.000000 122.000000 122.000000 255.000000
f 63/247 62/248 61/249
#fvcolorindex 11 18 18 
vt 1.879883 -0.626953 0.0
vt 0.000000 0.000000 0.0
vt -0.004883 -0.660156 0.0
f 63/250 61/251 66/252
#fvcolorindex 11 18 11 
usemtl m13
vt 0.000000 0.000000 0.0
vt 0.000000 0.000000 0.0
vt 0.000000 0.000000 0.0
f 55/253 54/254 58/255
#fvcolorindex 10 9 9 
vt 0.000000 0.000000 0.0
vt 0.000000 0.000000 0.0
vt 0.000000 0.000000 0.0
f 55/256 58/257 60/258
#fvcolorindex 10 9 10 
g Room04
g Room04_primary
usemtl m3
vt 0.000000 0.000000 0.0
vt 0.000000 -0.731445 0.0
vt 0.996094 -0.723633 0.0
v 52.876530 -11.000000 -66.240341
#joint 39
#vjoint 73
#vcolor 31.000000 31.000000 31.000000 255.000000
v 36.876530 -11.000000 -57.240341
#joint 39
#vjoint 74
v 36.876530 13.000000 -57.240341
#joint 39
#vjoint 75
#vcolor 169.000000 169.000000 169.000000 255.000000
f 73/259 74/260 75/261
#fvcolorindex 19 19 20 
vt 0.000000 0.000000 0.0
vt 0.996094 -0.723633 0.0
vt 0.997070 0.012695 0.0
v 52.876530 13.000000 -66.240341
#joint 39
#vjoint 76
f 73/262 75/263 76/264
#fvcolorindex 19 20 20 
vt -4.001953 0.000000 0.0
vt -3.564453 -0.750977 0.0
vt -0.444336 -0.766602 0.0
v 52.876530 -9.000000 13.759659
#joint 39
#vjoint 77
v 37.876530 -9.000000 4.759659
#joint 39
#vjoint 78
f 77/265 78/266 74/267
#fvcolorindex 19 19 19 
vt -4.001953 0.000000 0.0
vt -0.444336 -0.766602 0.0
vt 0.000000 0.000000 0.0
f 77/268 74/269 73/270
#fvcolorindex 19 19 19 
usemtl m4
vt 0.024414 0.019531 0.0
vt -0.078125 -0.674805 0.0
vt 0.997070 -0.777344 0.0
v 52.876530 13.000000 1.759659
#joint 39
#vjoint 79
#vcolor 254.000000 254.000000 254.000000 255.000000
v 37.876530 13.000000 -2.240341
#joint 39
#vjoint 80
#vcolor 46.000000 46.000000 46.000000 255.000000
f 79/271 80/272 78/273
#fvcolorindex 21 20 22 
vt 0.024414 0.019531 0.0
vt 0.997070 -0.777344 0.0
vt 1.197266 -0.003906 0.0
f 79/274 78/275 77/276
#fvcolorindex 21 22 22 
usemtl m5
vt 0.000000 0.000000 0.0
vt 0.397461 -0.669922 0.0
vt 2.814453 -0.656250 0.0
f 76/277 75/278 80/279
#fvcolorindex 20 20 20 
vt 0.000000 0.000000 0.0
vt 2.814453 -0.656250 0.0
vt 3.010742 0.000000 0.0
f 76/280 80/281 79/282
#fvcolorindex 20 20 21 
usemtl m6
vt 3.601562 0.016602 0.0
vt 0.000000 0.016602 0.0
vt 0.000000 2.167969 0.0
v 185.876526 -10.000000 -66.240341
#joint 39
#vjoint 81
v 185.876526 -9.000000 13.759659
#joint 39
#vjoint 82
f 73/283 81/284 82/285
#fvcolorindex 19 19 19 
vt 3.601562 0.016602 0.0
vt 0.000000 2.167969 0.0
vt 3.601562 2.167969 0.0
f 73/286 82/287 77/288
#fvcolorindex 19 19 19 
usemtl m7
vt 0.000000 1.852539 0.0
vt 0.165039 1.486328 0.0
vt 3.423828 1.486328 0.0
v 185.876526 14.000000 1.759659
#joint 39
#vjoint 83
v 179.876526 14.000000 -11.240341
#joint 39
#vjoint 84
v 58.876530 13.000000 -11.240341
#joint 39
#vjoint 85
f 83/289 84/290 85/291
#fvcolorindex 21 21 21 
vt 0.000000 1.852539 0.0
vt 3.423828 1.486328 0.0
vt 3.601562 1.852539 0.0
#vcolor 0.000000 0.000000 0.000000 255.000000
f 83/292 85/293 79/294
#fvcolorindex 21 21 23 
vt 0.000000 0.000000 0.0
vt 0.164062 0.308594 0.0
vt 0.165039 1.486328 0.0
v 185.876526 14.000000 -66.240341
#joint 39
#vjoint 86
v 179.876526 14.000000 -55.240341
#joint 39
#vjoint 87
f 86/295 87/296 84/297
#fvcolorindex 21 21 21 
vt 0.000000 0.000000 0.0
vt 0.165039 1.486328 0.0
vt 0.000000 1.852539 0.0
f 86/298 84/299 83/300
#fvcolorindex 21 21 21 
usemtl m8
vt 3.601562 0.000000 0.0
vt 3.423828 0.309570 0.0
vt 0.164062 0.308594 0.0
v 58.876530 13.000000 -55.240341
#joint 39
#vjoint 88
f 76/301 88/302 87/303
#fvcolorindex 23 21 21 
vt 3.601562 0.000000 0.0
vt 0.164062 0.308594 0.0
vt 0.000000 0.000000 0.0
f 76/304 87/305 86/306
#fvcolorindex 23 21 21 
vt 3.601562 1.852539 0.0
vt 3.423828 1.486328 0.0
vt 3.423828 0.309570 0.0
f 79/307 85/308 88/309
#fvcolorindex 23 21 21 
vt 3.601562 1.852539 0.0
vt 3.423828 0.309570 0.0
vt 3.601562 0.000000 0.0
f 79/310 88/311 76/312
#fvcolorindex 23 21 23 
usemtl m7
vt -0.133789 0.459961 0.0
vt -0.133789 0.000000 0.0
vt 0.833008 0.000000 0.0
v 179.876526 -7.000000 -55.240341
#joint 39
#vjoint 89
#vcolor 92.000000 92.000000 92.000000 255.000000
v 179.876526 -7.000000 -11.240341
#joint 39
#vjoint 90
f 87/313 89/314 90/315
#fvcolorindex 21 24 24 
vt -0.133789 0.459961 0.0
vt 0.833008 0.000000 0.0
vt 0.833008 0.459961 0.0
f 87/316 90/317 84/318
#fvcolorindex 21 24 21 
vt -0.412109 0.498047 0.0
vt -0.412109 0.000000 0.0
vt 2.487305 0.000000 0.0
v 58.876530 -7.000000 -55.240341
#joint 39
#vjoint 91
f 88/319 91/320 89/321
#fvcolorindex 21 24 24 
vt -0.412109 0.498047 0.0
vt 2.487305 0.000000 0.0
vt 2.487305 0.498047 0.0
f 88/322 89/323 87/324
#fvcolorindex 21 24 21 
vt 0.000000 0.531250 0.0
vt 0.000000 0.000000 0.0
vt 1.116211 0.000000 0.0
v 58.876530 -7.000000 -11.240341
#joint 39
#vjoint 92
f 85/325 92/326 91/327
#fvcolorindex 21 24 24 
vt 0.000000 0.531250 0.0
vt 1.116211 0.000000 0.0
vt 1.116211 0.531250 0.0
f 85/328 91/329 88/330
#fvcolorindex 21 24 21 
vt -1.001953 0.532227 0.0
vt -1.001953 0.000000 0.0
vt 2.091797 0.000000 0.0
f 84/331 90/332 92/333
#fvcolorindex 21 24 24 
vt -1.001953 0.532227 0.0
vt 2.091797 0.000000 0.0
vt 2.091797 0.532227 0.0
f 84/334 92/335 85/336
#fvcolorindex 21 24 21 
usemtl m9
vt 0.000000 0.000000 0.0
vt 2.015625 0.000000 0.0
vt 2.015625 0.986328 0.0
#vcolor 84.000000 84.000000 84.000000 255.000000
f 77/337 82/338 83/339
#fvcolorindex 25 25 21 
vt 0.000000 0.000000 0.0
vt 2.015625 0.986328 0.0
vt 0.000000 0.986328 0.0
f 77/340 83/341 79/342
#fvcolorindex 25 21 21 
usemtl m10
vt 2.013672 0.974609 0.0
vt 0.000000 0.974609 0.0
vt 0.000000 0.000000 0.0
#vcolor 73.000000 73.000000 73.000000 255.000000
f 76/343 86/344 81/345
#fvcolorindex 20 21 26 
vt 2.013672 0.974609 0.0
vt 0.000000 0.000000 0.0
vt 2.013672 0.000000 0.0
f 76/346 81/347 73/348
#fvcolorindex 20 26 26 
usemtl m11
vt -0.056152 -0.031250 0.0
vt -0.056152 -3.203125 0.0
vt 2.139160 -3.199219 0.0
#vcolor 203.000000 203.000000 203.000000 255.000000
f 90/349 89/350 91/351
#fvcolorindex 21 27 27 
vt -0.056152 -0.031250 0.0
vt 2.139160 -3.199219 0.0
vt 2.139160 -0.027344 0.0
f 90/352 91/353 92/354
#fvcolorindex 21 27 27 
usemtl m12
vt 1.879883 -0.626953 0.0
vt 2.189453 0.000000 0.0
vt 0.000000 0.000000 0.0
#vcolor 122.000000 122.000000 122.000000 255.000000
f 83/355 82/356 81/357
#fvcolorindex 21 28 28 
vt 1.879883 -0.626953 0.0
vt 0.000000 0.000000 0.0
vt -0.004883 -0.660156 0.0
f 83/358 81/359 86/360
#fvcolorindex 21 28 21 
usemtl m13
vt 0.000000 0.000000 0.0
vt 0.000000 0.000000 0.0
vt 0.000000 0.000000 0.0
f 75/361 74/362 78/363
#fvcolorindex 20 19 19 
vt 0.000000 0.000000 0.0
vt 0.000000 0.000000 0.0
vt 0.000000 0.000000 0.0
f 75/364 78/365 80/366
#fvcolorindex 20 19 20 
g Room06
g Room06_primary
usemtl m0EnvMappingTexScaleS0.031250TexScaleT0.031250
vt 0.000000 0.000000 0.0
vt 0.000000 0.000000 0.0
vt 0.000000 0.000000 0.0
v 51.491776 2.000000 -11.244484
#joint 34
#vjoint 93
#vcolor 153.000000 42.000000 60.000000 255.000000
v 51.491776 2.000000 -55.244484
#joint 34
#vjoint 94
#vcolor 153.000000 42.000000 196.000000 255.000000
v 51.491776 -3.000000 -55.244484
#joint 34
#vjoint 95
#vcolor 179.000000 179.000000 192.000000 255.000000
vn 1.204724 0.330709 0.472441
vn 1.204724 0.330709 1.543307
vn 1.409449 1.409449 1.511811
f 93/367/151 94/368/152 95/369/153
#fvcolorindex 29 30 31 
vt 0.000000 0.000000 0.0
vt 0.000000 0.000000 0.0
vt 0.000000 0.000000 0.0
v 51.491776 -3.000000 -11.244484
#joint 34
#vjoint 96
#vcolor 179.000000 179.000000 64.000000 255.000000
vn 1.204724 0.330709 0.472441
vn 1.409449 1.409449 1.511811
vn 1.409449 1.409449 0.503937
f 93/370/154 95/371/155 96/372/156
#fvcolorindex 29 31 32 
usemtl m1EnvMappingTexScaleS0.031250TexScaleT0.031250
vt 0.000000 0.000000 0.0
vt 0.000000 0.000000 0.0
vt 0.000000 0.000000 0.0
v 57.491776 8.000000 -11.244484
#joint 34
#vjoint 97
#vcolor 0.000000 109.000000 64.000000 255.000000
v 57.491776 8.000000 -55.244484
#joint 34
#vjoint 98
#vcolor 0.000000 109.000000 192.000000 255.000000
vn 0.000000 0.858268 0.503937
vn 0.000000 0.858268 1.511811
vn 1.204724 0.330709 1.543307
f 97/373/157 98/374/158 94/375/159
#fvcolorindex 33 34 30 
vt 0.000000 0.000000 0.0
vt 0.000000 0.000000 0.0
vt 0.000000 0.000000 0.0
vn 0.000000 0.858268 0.503937
vn 1.204724 0.330709 1.543307
vn 1.204724 0.330709 0.472441
f 97/376/160 94/377/161 93/378/162
#fvcolorindex 33 30 29 
vt 0.000000 0.000000 0.0
vt 0.000000 0.000000 0.0
vt 0.000000 0.000000 0.0
v 62.491776 8.000000 -11.244484
#joint 34
#vjoint 99
v 62.491776 8.000000 -55.244484
#joint 34
#vjoint 100
vn 0.000000 0.858268 0.503937
vn 0.000000 0.858268 1.511811
vn 0.000000 0.858268 1.511811
f 99/379/163 100/380/164 98/381/165
#fvcolorindex 33 34 34 
vt 0.000000 0.000000 0.0
vt 0.000000 0.000000 0.0
vt 0.000000 0.000000 0.0
vn 0.000000 0.858268 0.503937
vn 0.000000 0.858268 1.511811
vn 0.000000 0.858268 0.503937
f 99/382/166 98/383/167 97/384/168
#fvcolorindex 33 34 33 
usemtl m2EnvMappingTexScaleS0.031250TexScaleT0.031250
vt 0.000000 0.000000 0.0
vt 0.000000 0.000000 0.0
vt 0.000000 0.000000 0.0
v 67.491776 2.000000 -11.244484
#joint 34
#vjoint 101
#vcolor 97.000000 216.000000 70.000000 255.000000
v 67.491776 2.000000 -55.244484
#joint 34
#vjoint 102
#vcolor 97.000000 216.000000 186.000000 255.000000
vn 0.763780 1.700787 0.551181
vn 0.763780 1.700787 1.464567
vn 0.000000 0.858268 1.511811
f 101/385/169 102/386/170 100/387/171
#fvcolorindex 35 36 34 
vt 0.000000 0.000000 0.0
vt 0.000000 0.000000 0.0
vt 0.000000 0.000000 0.0
vn 0.763780 1.700787 0.551181
vn 0.000000 0.858268 1.511811
vn 0.000000 0.858268 0.503937
f 101/388/172 100/389/173 99/390/174
#fvcolorindex 35 34 33 
g Room08
g Room08_primary
usemtl m1EnvMappingTexScaleS0.031250TexScaleT0.031250
vt 0.000000 0.000000 0.0
vt 0.000000 0.000000 0.0
vt 0.000000 0.000000 0.0
v 73.491776 8.000000 -11.244484
#joint 34
#vjoint 103
#vcolor 0.000000 109.000000 64.000000 255.000000
v 73.491776 8.000000 -55.244484
#joint 34
#vjoint 104
#vcolor 0.000000 109.000000 192.000000 255.000000
v 67.491776 2.000000 -55.244484
#joint 34
#vjoint 105
#vcolor 153.000000 42.000000 196.000000 255.000000
vn 0.000000 0.858268 0.503937
vn 0.000000 0.858268 1.511811
vn 1.204724 0.330709 1.543307
f 103/391/175 104/392/176 105/393/177
#fvcolorindex 37 38 39 
vt 0.000000 0.000000 0.0
vt 0.000000 0.000000 0.0
vt 0.000000 0.000000 0.0
v 67.491776 2.000000 -11.244484
#joint 34
#vjoint 106
#vcolor 153.000000 42.000000 60.000000 255.000000
vn 0.000000 0.858268 0.503937
vn 1.204724 0.330709 1.543307
vn 1.204724 0.330709 0.472441
f 103/394/178 105/395/179 106/396/180
#fvcolorindex 37 39 40 
vt 0.000000 0.000000 0.0
vt 0.000000 0.000000 0.0
vt 0.000000 0.000000 0.0
v 78.491776 8.000000 -11.244484
#joint 34
#vjoint 107
v 78.491776 8.000000 -55.244484
#joint 34
#vjoint 108
vn 0.000000 0.858268 0.503937
vn 0.000000 0.858268 1.511811
vn 0.000000 0.858268 1.511811
f 107/397/181 108/398/182 104/399/183
#fvcolorindex 37 38 38 
vt 0.000000 0.000000 0.0
vt 0.000000 0.000000 0.0
vt 0.000000 0.000000 0.0
vn 0.000000 0.858268 0.503937
vn 0.000000 0.858268 1.511811
vn 0.000000 0.858268 0.503937
f 107/400/184 104/401/185 103/402/186
#fvcolorindex 37 38 37 
usemtl m2EnvMappingTexScaleS0.031250TexScaleT0.031250
vt 0.000000 0.000000 0.0
vt 0.000000 0.000000 0.0
vt 0.000000 0.000000 0.0
v 84.491776 3.000000 -11.244484
#joint 34
#vjoint 109
#vcolor 97.000000 216.000000 70.000000 255.000000
v 84.491776 3.000000 -55.244484
#joint 34
#vjoint 110
#vcolor 97.000000 216.000000 186.000000 255.000000
vn 0.763780 1.700787 0.551181
vn 0.763780 1.700787 1.464567
vn 0.000000 0.858268 1.511811
f 109/403/187 110/404/188 108/405/189
#fvcolorindex 41 42 38 
vt 0.000000 0.000000 0.0
vt 0.000000 0.000000 0.0
vt 0.000000 0.000000 0.0
vn 0.763780 1.700787 0.551181
vn 0.000000 0.858268 1.511811
vn 0.000000 0.858268 0.503937
f 109/406/190 108/407/191 107/408/192
#fvcolorindex 41 38 37 
g Room0A
g Room0A_primary
usemtl m1EnvMappingTexScaleS0.031250TexScaleT0.031250
vt 0.000000 0.000000 0.0
vt 0.000000 0.000000 0.0
vt 0.000000 0.000000 0.0
v 89.491776 8.000000 -11.244484
#joint 34
#vjoint 111
#vcolor 0.000000 109.000000 64.000000 255.000000
v 89.491776 8.000000 -55.244484
#joint 34
#vjoint 112
#vcolor 0.000000 109.000000 192.000000 255.000000
v 84.491776 3.000000 -55.244484
#joint 34
#vjoint 113
#vcolor 153.000000 42.000000 196.000000 255.000000
vn 0.000000 0.858268 0.503937
vn 0.000000 0.858268 1.511811
vn 1.204724 0.330709 1.543307
f 111/409/193 112/410/194 113/411/195
#fvcolorindex 43 44 45 
vt 0.000000 0.000000 0.0
vt 0.000000 0.000000 0.0
vt 0.000000 0.000000 0.0
v 84.491776 3.000000 -11.244484
#joint 34
#vjoint 114
#vcolor 153.000000 42.000000 60.000000 255.000000
vn 0.000000 0.858268 0.503937
vn 1.204724 0.330709 1.543307
vn 1.204724 0.330709 0.472441
f 111/412/196 113/413/197 114/414/198
#fvcolorindex 43 45 46 
vt 0.000000 0.000000 0.0
vt 0.000000 0.000000 0.0
vt 0.000000 0.000000 0.0
v 94.491776 8.000000 -11.244484
#joint 34
#vjoint 115
v 94.491776 8.000000 -55.244484
#joint 34
#vjoint 116
vn 0.000000 0.858268 0.503937
vn 0.000000 0.858268 1.511811
vn 0.000000 0.858268 1.511811
f 115/415/199 116/416/200 112/417/201
#fvcolorindex 43 44 44 
vt 0.000000 0.000000 0.0
vt 0.000000 0.000000 0.0
vt 0.000000 0.000000 0.0
vn 0.000000 0.858268 0.503937
vn 0.000000 0.858268 1.511811
vn 0.000000 0.858268 0.503937
f 115/418/202 112/419/203 111/420/204
#fvcolorindex 43 44 43 
usemtl m2EnvMappingTexScaleS0.031250TexScaleT0.031250
vt 0.000000 0.000000 0.0
vt 0.000000 0.000000 0.0
vt 0.000000 0.000000 0.0
v 100.491776 3.000000 -11.244484
#joint 34
#vjoint 117
#vcolor 97.000000 216.000000 70.000000 255.000000
v 100.491776 3.000000 -55.244484
#joint 34
#vjoint 118
#vcolor 97.000000 216.000000 186.000000 255.000000
vn 0.763780 1.700787 0.551181
vn 0.763780 1.700787 1.464567
vn 0.000000 0.858268 1.511811
f 117/421/205 118/422/206 116/423/207
#fvcolorindex 47 48 44 
vt 0.000000 0.000000 0.0
vt 0.000000 0.000000 0.0
vt 0.000000 0.000000 0.0
vn 0.763780 1.700787 0.551181
vn 0.000000 0.858268 1.511811
vn 0.000000 0.858268 0.503937
f 117/424/208 116/425/209 115/426/210
#fvcolorindex 47 44 43 
g Room0C
g Room0C_primary
usemtl m1EnvMappingTexScaleS0.031250TexScaleT0.031250
vt 0.000000 0.000000 0.0
vt 0.000000 0.000000 0.0
vt 0.000000 0.000000 0.0
v 105.491776 8.000000 -11.244484
#joint 34
#vjoint 119
#vcolor 0.000000 109.000000 64.000000 255.000000
v 105.491776 8.000000 -55.244484
#joint 34
#vjoint 120
#vcolor 0.000000 109.000000 192.000000 255.000000
v 100.491776 3.000000 -55.244484
#joint 34
#vjoint 121
#vcolor 153.000000 42.000000 196.000000 255.000000
vn 0.000000 0.858268 0.503937
vn 0.000000 0.858268 1.511811
vn 1.204724 0.330709 1.543307
f 119/427/211 120/428/212 121/429/213
#fvcolorindex 49 50 51 
vt 0.000000 0.000000 0.0
vt 0.000000 0.000000 0.0
vt 0.000000 0.000000 0.0
v 100.491776 3.000000 -11.244484
#joint 34
#vjoint 122
#vcolor 153.000000 42.000000 60.000000 255.000000
vn 0.000000 0.858268 0.503937
vn 1.204724 0.330709 1.543307
vn 1.204724 0.330709 0.472441
f 119/430/214 121/431/215 122/432/216
#fvcolorindex 49 51 52 
vt 0.000000 0.000000 0.0
vt 0.000000 0.000000 0.0
vt 0.000000 0.000000 0.0
v 111.491776 8.000000 -11.244484
#joint 34
#vjoint 123
v 111.491776 8.000000 -55.244484
#joint 34
#vjoint 124
vn 0.000000 0.858268 0.503937
vn 0.000000 0.858268 1.511811
vn 0.000000 0.858268 1.511811
f 123/433/217 124/434/218 120/435/219
#fvcolorindex 49 50 50 
vt 0.000000 0.000000 0.0
vt 0.000000 0.000000 0.0
vt 0.000000 0.000000 0.0
vn 0.000000 0.858268 0.503937
vn 0.000000 0.858268 1.511811
vn 0.000000 0.858268 0.503937
f 123/436/220 120/437/221 119/438/222
#fvcolorindex 49 50 49 
usemtl m2EnvMappingTexScaleS0.031250TexScaleT0.031250
vt 0.000000 0.000000 0.0
vt 0.000000 0.000000 0.0
vt 0.000000 0.000000 0.0
v 116.491776 3.000000 -11.244484
#joint 34
#vjoint 125
#vcolor 97.000000 216.000000 70.000000 255.000000
v 116.491776 3.000000 -55.244484
#joint 34
#vjoint 126
#vcolor 97.000000 216.000000 186.000000 255.000000
vn 0.763780 1.700787 0.551181
vn 0.763780 1.700787 1.464567
vn 0.000000 0.858268 1.511811
f 125/439/223 126/440/224 124/441/225
#fvcolorindex 53 54 50 
vt 0.000000 0.000000 0.0
vt 0.000000 0.000000 0.0
vt 0.000000 0.000000 0.0
vn 0.763780 1.700787 0.551181
vn 0.000000 0.858268 1.511811
vn 0.000000 0.858268 0.503937
f 125/442/226 124/443/227 123/444/228
#fvcolorindex 53 50 49 
g Room0E
g Room0E_primary
usemtl m1EnvMappingTexScaleS0.031250TexScaleT0.031250
vt 0.000000 0.000000 0.0
vt 0.000000 0.000000 0.0
vt 0.000000 0.000000 0.0
v 122.491776 8.000000 -11.244484
#joint 34
#vjoint 127
#vcolor 0.000000 109.000000 64.000000 255.000000
v 122.491776 8.000000 -55.244484
#joint 34
#vjoint 128
#vcolor 0.000000 109.000000 192.000000 255.000000
v 116.491776 3.000000 -55.244484
#joint 34
#vjoint 129
#vcolor 153.000000 42.000000 196.000000 255.000000
vn 0.000000 0.858268 0.503937
vn 0.000000 0.858268 1.511811
vn 1.204724 0.330709 1.543307
f 127/445/229 128/446/230 129/447/231
#fvcolorindex 55 56 57 
vt 0.000000 0.000000 0.0
vt 0.000000 0.000000 0.0
vt 0.000000 0.000000 0.0
v 116.491776 3.000000 -11.244484
#joint 34
#vjoint 130
#vcolor 153.000000 42.000000 60.000000 255.000000
vn 0.000000 0.858268 0.503937
vn 1.204724 0.330709 1.543307
vn 1.204724 0.330709 0.472441
f 127/448/232 129/449/233 130/450/234
#fvcolorindex 55 57 58 
vt 0.000000 0.000000 0.0
vt 0.000000 0.000000 0.0
vt 0.000000 0.000000 0.0
v 127.491776 8.000000 -11.244484
#joint 34
#vjoint 131
v 127.491776 8.000000 -55.244484
#joint 34
#vjoint 132
vn 0.000000 0.858268 0.503937
vn 0.000000 0.858268 1.511811
vn 0.000000 0.858268 1.511811
f 131/451/235 132/452/236 128/453/237
#fvcolorindex 55 56 56 
vt 0.000000 0.000000 0.0
vt 0.000000 0.000000 0.0
vt 0.000000 0.000000 0.0
vn 0.000000 0.858268 0.503937
vn 0.000000 0.858268 1.511811
vn 0.000000 0.858268 0.503937
f 131/454/238 128/455/239 127/456/240
#fvcolorindex 55 56 55 
usemtl m2EnvMappingTexScaleS0.031250TexScaleT0.031250
vt 0.000000 0.000000 0.0
vt 0.000000 0.000000 0.0
vt 0.000000 0.000000 0.0
v 132.491776 3.000000 -11.244484
#joint 34
#vjoint 133
#vcolor 97.000000 216.000000 70.000000 255.000000
v 132.491776 3.000000 -55.244484
#joint 34
#vjoint 134
#vcolor 97.000000 216.000000 186.000000 255.000000
vn 0.763780 1.700787 0.551181
vn 0.763780 1.700787 1.464567
vn 0.000000 0.858268 1.511811
f 133/457/241 134/458/242 132/459/243
#fvcolorindex 59 60 56 
vt 0.000000 0.000000 0.0
vt 0.000000 0.000000 0.0
vt 0.000000 0.000000 0.0
vn 0.763780 1.700787 0.551181
vn 0.000000 0.858268 1.511811
vn 0.000000 0.858268 0.503937
f 133/460/244 132/461/245 131/462/246
#fvcolorindex 59 56 55 
g Room10
g Room10_primary
usemtl m1EnvMappingTexScaleS0.031250TexScaleT0.031250
vt 0.000000 0.000000 0.0
vt 0.000000 0.000000 0.0
vt 0.000000 0.000000 0.0
v 138.491776 8.000000 -11.244484
#joint 34
#vjoint 135
#vcolor 0.000000 109.000000 64.000000 255.000000
v 138.491776 8.000000 -55.244484
#joint 34
#vjoint 136
#vcolor 0.000000 109.000000 192.000000 255.000000
v 132.491776 3.000000 -55.244484
#joint 34
#vjoint 137
#vcolor 153.000000 42.000000 196.000000 255.000000
vn 0.000000 0.858268 0.503937
vn 0.000000 0.858268 1.511811
vn 1.204724 0.330709 1.543307
f 135/463/247 136/464/248 137/465/249
#fvcolorindex 61 62 63 
vt 0.000000 0.000000 0.0
vt 0.000000 0.000000 0.0
vt 0.000000 0.000000 0.0
v 132.491776 3.000000 -11.244484
#joint 34
#vjoint 138
#vcolor 153.000000 42.000000 60.000000 255.000000
vn 0.000000 0.858268 0.503937
vn 1.204724 0.330709 1.543307
vn 1.204724 0.330709 0.472441
f 135/466/250 137/467/251 138/468/252
#fvcolorindex 61 63 64 
vt 0.000000 0.000000 0.0
vt 0.000000 0.000000 0.0
vt 0.000000 0.000000 0.0
v 143.491776 8.000000 -11.244484
#joint 34
#vjoint 139
v 143.491776 8.000000 -55.244484
#joint 34
#vjoint 140
vn 0.000000 0.858268 0.503937
vn 0.000000 0.858268 1.511811
vn 0.000000 0.858268 1.511811
f 139/469/253 140/470/254 136/471/255
#fvcolorindex 61 62 62 
vt 0.000000 0.000000 0.0
vt 0.000000 0.000000 0.0
vt 0.000000 0.000000 0.0
vn 0.000000 0.858268 0.503937
vn 0.000000 0.858268 1.511811
vn 0.000000 0.858268 0.503937
f 139/472/256 136/473/257 135/474/258
#fvcolorindex 61 62 61 
usemtl m2EnvMappingTexScaleS0.031250TexScaleT0.031250
vt 0.000000 0.000000 0.0
vt 0.000000 0.000000 0.0
vt 0.000000 0.000000 0.0
v 149.491776 3.000000 -11.244484
#joint 34
#vjoint 141
#vcolor 97.000000 216.000000 70.000000 255.000000
v 149.491776 3.000000 -55.244484
#joint 34
#vjoint 142
#vcolor 97.000000 216.000000 186.000000 255.000000
vn 0.763780 1.700787 0.551181
vn 0.763780 1.700787 1.464567
vn 0.000000 0.858268 1.511811
f 141/475/259 142/476/260 140/477/261
#fvcolorindex 65 66 62 
vt 0.000000 0.000000 0.0
vt 0.000000 0.000000 0.0
vt 0.000000 0.000000 0.0
vn 0.763780 1.700787 0.551181
vn 0.000000 0.858268 1.511811
vn 0.000000 0.858268 0.503937
f 141/478/262 140/479/263 139/480/264
#fvcolorindex 65 62 61 
g Room12
g Room12_primary
usemtl m1EnvMappingTexScaleS0.031250TexScaleT0.031250
vt 0.000000 0.000000 0.0
vt 0.000000 0.000000 0.0
vt 0.000000 0.000000 0.0
v 154.491776 8.000000 -11.244484
#joint 34
#vjoint 143
#vcolor 0.000000 109.000000 64.000000 255.000000
v 154.491776 8.000000 -55.244484
#joint 34
#vjoint 144
#vcolor 0.000000 109.000000 192.000000 255.000000
v 149.491776 3.000000 -55.244484
#joint 34
#vjoint 145
#vcolor 153.000000 42.000000 196.000000 255.000000
vn 0.000000 0.858268 0.503937
vn 0.000000 0.858268 1.511811
vn 1.204724 0.330709 1.543307
f 143/481/265 144/482/266 145/483/267
#fvcolorindex 67 68 69 
vt 0.000000 0.000000 0.0
vt 0.000000 0.000000 0.0
vt 0.000000 0.000000 0.0
v 149.491776 3.000000 -11.244484
#joint 34
#vjoint 146
#vcolor 153.000000 42.000000 60.000000 255.000000
vn 0.000000 0.858268 0.503937
vn 1.204724 0.330709 1.543307
vn 1.204724 0.330709 0.472441
f 143/484/268 145/485/269 146/486/270
#fvcolorindex 67 69 70 
vt 0.000000 0.000000 0.0
vt 0.000000 0.000000 0.0
vt 0.000000 0.000000 0.0
v 160.491776 8.000000 -11.244484
#joint 34
#vjoint 147
v 160.491776 8.000000 -55.244484
#joint 34
#vjoint 148
vn 0.000000 0.858268 0.503937
vn 0.000000 0.858268 1.511811
vn 0.000000 0.858268 1.511811
f 147/487/271 148/488/272 144/489/273
#fvcolorindex 67 68 68 
vt 0.000000 0.000000 0.0
vt 0.000000 0.000000 0.0
vt 0.000000 0.000000 0.0
vn 0.000000 0.858268 0.503937
vn 0.000000 0.858268 1.511811
vn 0.000000 0.858268 0.503937
f 147/490/274 144/491/275 143/492/276
#fvcolorindex 67 68 67 
usemtl m2EnvMappingTexScaleS0.031250TexScaleT0.031250
vt 0.000000 0.000000 0.0
vt 0.000000 0.000000 0.0
vt 0.000000 0.000000 0.0
v 165.491776 3.000000 -11.244484
#joint 34
#vjoint 149
#vcolor 97.000000 216.000000 70.000000 255.000000
v 165.491776 3.000000 -55.244484
#joint 34
#vjoint 150
#vcolor 97.000000 216.000000 186.000000 255.000000
vn 0.763780 1.700787 0.551181
vn 0.763780 1.700787 1.464567
vn 0.000000 0.858268 1.511811
f 149/493/277 150/494/278 148/495/279
#fvcolorindex 71 72 68 
vt 0.000000 0.000000 0.0
vt 0.000000 0.000000 0.0
vt 0.000000 0.000000 0.0
vn 0.763780 1.700787 0.551181
vn 0.000000 0.858268 1.511811
vn 0.000000 0.858268 0.503937
f 149/496/280 148/497/281 147/498/282
#fvcolorindex 71 68 67 
g Room14
g Room14_primary
usemtl m1EnvMappingTexScaleS0.031250TexScaleT0.031250
vt 0.000000 0.000000 0.0
vt 0.000000 0.000000 0.0
vt 0.000000 0.000000 0.0
v 170.491776 8.000000 -11.244484
#joint 34
#vjoint 151
#vcolor 0.000000 109.000000 64.000000 255.000000
v 170.491776 8.000000 -55.244484
#joint 34
#vjoint 152
#vcolor 0.000000 109.000000 192.000000 255.000000
v 165.491776 3.000000 -55.244484
#joint 34
#vjoint 153
#vcolor 153.000000 42.000000 196.000000 255.000000
vn 0.000000 0.858268 0.503937
vn 0.000000 0.858268 1.511811
vn 1.204724 0.330709 1.543307
f 151/499/283 152/500/284 153/501/285
#fvcolorindex 73 74 75 
vt 0.000000 0.000000 0.0
vt 0.000000 0.000000 0.0
vt 0.000000 0.000000 0.0
v 165.491776 3.000000 -11.244484
#joint 34
#vjoint 154
#vcolor 153.000000 42.000000 60.000000 255.000000
vn 0.000000 0.858268 0.503937
vn 1.204724 0.330709 1.543307
vn 1.204724 0.330709 0.472441
f 151/502/286 153/503/287 154/504/288
#fvcolorindex 73 75 76 
vt 0.000000 0.000000 0.0
vt 0.000000 0.000000 0.0
vt 0.000000 0.000000 0.0
v 176.491776 8.000000 -11.244484
#joint 34
#vjoint 155
v 176.491776 8.000000 -55.244484
#joint 34
#vjoint 156
vn 0.000000 0.858268 0.503937
vn 0.000000 0.858268 1.511811
vn 0.000000 0.858268 1.511811
f 155/505/289 156/506/290 152/507/291
#fvcolorindex 73 74 74 
vt 0.000000 0.000000 0.0
vt 0.000000 0.000000 0.0
vt 0.000000 0.000000 0.0
vn 0.000000 0.858268 0.503937
vn 0.000000 0.858268 1.511811
vn 0.000000 0.858268 0.503937
f 155/508/292 152/509/293 151/510/294
#fvcolorindex 73 74 73 
usemtl m2EnvMappingTexScaleS0.031250TexScaleT0.031250
vt 0.000000 0.000000 0.0
vt 0.000000 0.000000 0.0
vt 0.000000 0.000000 0.0
v 181.491776 3.000000 -11.244484
#joint 34
#vjoint 157
#vcolor 97.000000 216.000000 70.000000 255.000000
v 181.491776 3.000000 -55.244484
#joint 34
#vjoint 158
#vcolor 97.000000 216.000000 186.000000 255.000000
vn 0.763780 1.700787 0.551181
vn 0.763780 1.700787 1.464567
vn 0.000000 0.858268 1.511811
f 157/511/295 158/512/296 156/513/297
#fvcolorindex 77 78 74 
vt 0.000000 0.000000 0.0
vt 0.000000 0.000000 0.0
vt 0.000000 0.000000 0.0
vn 0.763780 1.700787 0.551181
vn 0.000000 0.858268 1.511811
vn 0.000000 0.858268 0.503937
f 157/514/298 156/515/299 155/516/300
#fvcolorindex 77 74 73 
g Room15
g Room15_primary
usemtl m14
vt -0.000977 0.848633 0.0
vt 0.000000 0.000000 0.0
vt 3.785156 0.000000 0.0
v 12.000000 18.792542 -99.794708
#joint 35
#vjoint 159
#vcolor 146.000000 146.000000 146.000000 255.000000
v 33.000000 -9.207458 -101.794708
#joint 35
#vjoint 160
#vcolor 254.000000 254.000000 254.000000 255.000000
v 22.000000 -9.207458 -226.794708
#joint 35
#vjoint 161
f 159/517 160/518 161/519
#fvcolorindex 79 80 80 
vt -0.000977 0.848633 0.0
vt 3.785156 0.000000 0.0
vt 3.761719 0.848633 0.0
v 2.000000 18.792542 -224.794708
#joint 35
#vjoint 162
f 159/520 161/521 162/522
#fvcolorindex 79 80 79 
usemtl m15MirrorS
vt 2.030273 0.273438 0.0
vt 2.030273 0.273438 0.0
vt -0.611328 0.202148 0.0
v -18.000000 31.792542 162.205292
#joint 35
#vjoint 163
#vcolor 39.000000 39.000000 39.000000 255.000000
v 15.000000 31.792542 162.205292
#joint 35
#vjoint 164
v 15.000000 32.417618 263.859863
#joint 37
#vjoint 165
f 163/523 164/524 165/525
#fvcolorindex 81 81 81 
vt 2.030273 0.273438 0.0
vt -0.611328 0.202148 0.0
vt -0.611328 0.202148 0.0
v -18.000000 32.417618 263.859863
#joint 37
#vjoint 166
f 163/526 165/527 166/528
#fvcolorindex 81 81 81 
vt -1.032227 0.937500 0.0
vt -1.032227 0.937500 0.0
vt -1.035156 0.937500 0.0
v -2.000000 32.417618 263.859863
#joint 37
#vjoint 167
f 166/529 165/530 167/531
#fvcolorindex 81 81 81 
vt 2.856445 1.824219 0.0
vt 2.949219 1.917969 0.0
vt 3.361328 1.919922 0.0
v 8.000000 -70.207458 -86.794708
#joint 35
#vjoint 168
v 8.000000 -81.207458 -97.794708
#joint 35
#vjoint 169
v 8.000000 -80.207458 -146.794708
#joint 35
#vjoint 170
f 168/532 169/533 170/534
#fvcolorindex 81 81 81 
vt 2.856445 1.824219 0.0
vt 3.361328 1.919922 0.0
vt 3.313477 1.823242 0.0
v 8.000000 -69.207458 -140.794708
#joint 35
#vjoint 171
f 168/535 170/536 171/537
#fvcolorindex 81 81 81 
vt 2.945312 1.917969 0.0
vt 2.945312 1.917969 0.0
vt 3.361328 1.919922 0.0
v -11.000000 -81.207458 -97.794708
#joint 35
#vjoint 172
v -11.000000 -80.207458 -146.794708
#joint 35
#vjoint 173
f 169/538 172/539 173/540
#fvcolorindex 81 81 81 
vt 2.945312 1.917969 0.0
vt 3.361328 1.919922 0.0
vt 3.361328 1.919922 0.0
f 169/541 173/542 170/543
#fvcolorindex 81 81 81 
usemtl m16MirrorS
vt 2.856445 1.824219 0.0
vt 3.313477 1.823242 0.0
vt 3.313477 1.823242 0.0
#vcolor 229.000000 229.000000 229.000000 255.000000
v -11.000000 -69.207458 -140.794708
#joint 35
#vjoint 174
f 168/544 171/545 174/546
#fvcolorindex 82 82 82 
vt 2.856445 1.824219 0.0
vt 3.313477 1.823242 0.0
vt 2.856445 1.824219 0.0
v -11.000000 -70.207458 -86.794708
#joint 35
#vjoint 175
f 168/547 174/548 175/549
#fvcolorindex 82 82 82 
usemtl m15MirrorS
vt 3.495117 2.477539 0.0
vt 3.361328 1.919922 0.0
vt 3.361328 1.919922 0.0
v 8.000000 -146.207458 -162.794708
#joint 35
#vjoint 176
f 176/550 170/551 173/552
#fvcolorindex 81 81 81 
vt 3.495117 2.477539 0.0
vt 3.361328 1.919922 0.0
vt 3.495117 2.477539 0.0
v -11.000000 -146.207458 -162.794708
#joint 35
#vjoint 177
f 176/553 173/554 177/555
#fvcolorindex 81 81 81 
vt 4.055664 2.388672 0.0
vt 3.495117 2.477539 0.0
vt 3.495117 2.477539 0.0
v 8.000000 -135.207458 -228.794708
#joint 35
#vjoint 178
f 178/556 176/557 177/558
#fvcolorindex 81 81 81 
vt 4.055664 2.388672 0.0
vt 3.495117 2.477539 0.0
vt 4.055664 2.388672 0.0
v -11.000000 -135.207458 -228.794708
#joint 35
#vjoint 179
f 178/559 177/560 179/561
#fvcolorindex 81 81 81 
usemtl m17MirrorS
vt 3.779297 1.827148 0.0
vt 4.055664 2.388672 0.0
vt 4.055664 2.388672 0.0
v 8.000000 -69.207458 -195.794708
#joint 35
#vjoint 180
#vcolor 104.000000 104.000000 104.000000 255.000000
f 180/562 178/563 179/564
#fvcolorindex 83 83 83 
vt 3.779297 1.827148 0.0
vt 4.055664 2.388672 0.0
vt 3.779297 1.827148 0.0
v -11.000000 -69.207458 -195.794708
#joint 35
#vjoint 181
f 180/565 179/566 181/567
#fvcolorindex 83 83 83 
usemtl m15MirrorS
vt 3.780273 1.716797 0.0
vt 3.779297 1.827148 0.0
vt 3.779297 1.827148 0.0
v 10.000000 -56.207458 -195.794708
#joint 35
#vjoint 182
f 182/568 180/569 181/570
#fvcolorindex 81 81 81 
vt 3.780273 1.716797 0.0
vt 3.779297 1.827148 0.0
vt 3.780273 1.716797 0.0
v -13.000000 -56.207458 -195.794708
#joint 35
#vjoint 183
f 182/571 181/572 183/573
#fvcolorindex 81 81 81 
usemtl m18MirrorS
vt 3.280273 1.613281 0.0
vt 3.780273 1.716797 0.0
vt 3.807617 1.573242 0.0
v 8.000000 -44.207458 -136.794708
#joint 35
#vjoint 184
#vcolor 255.000000 255.000000 255.000000 255.000000
v -2.000000 -39.207458 -198.794708
#joint 35
#vjoint 185
f 184/574 182/575 185/576
#fvcolorindex 84 84 84 
usemtl m15MirrorS
vt 3.313477 1.823242 0.0
vt 3.361328 1.919922 0.0
vt 2.949219 1.917969 0.0
f 174/577 173/578 172/579
#fvcolorindex 81 81 81 
vt 3.313477 1.823242 0.0
vt 2.945312 1.917969 0.0
vt 2.856445 1.824219 0.0
f 174/580 172/581 175/582
#fvcolorindex 81 81 81 
vt 0.166016 0.189453 0.0
vt 0.000000 0.000000 0.0
vt 0.310547 0.189453 0.0
v -14.000000 56.792542 -239.794708
#joint 35
#vjoint 186
v -23.000000 31.792542 -262.794708
#joint 35
#vjoint 187
v -14.000000 56.792542 -216.794708
#joint 35
#vjoint 188
f 186/583 187/584 188/585
#fvcolorindex 81 81 84 
vt 0.000000 0.000000 0.0
vt 1.707031 0.338867 0.0
vt 0.310547 0.189453 0.0
v -14.000000 79.792542 8.205292
#joint 35
#vjoint 189
f 187/586 189/587 188/588
#fvcolorindex 81 81 84 
vt 0.000000 0.000000 0.0
vt 2.146484 0.000000 0.0
vt 1.707031 0.338867 0.0
v -23.000000 31.792542 89.205292
#joint 35
#vjoint 190
f 187/589 190/590 189/591
#fvcolorindex 81 81 81 
vt 1.707031 0.338867 0.0
vt 1.278320 0.338867 0.0
vt 0.310547 0.189453 0.0
v -14.000000 79.792542 -61.794708
#joint 35
#vjoint 191
f 189/592 191/593 188/594
#fvcolorindex 81 84 84 
vt 3.807617 1.573242 0.0
vt 3.780273 1.716797 0.0
vt 3.280273 1.613281 0.0
v -11.000000 -44.207458 -136.794708
#joint 35
#vjoint 192
f 185/595 183/596 192/597
#fvcolorindex 81 81 81 
vt 1.111328 1.360352 0.0
vt 2.032227 1.583984 0.0
vt 1.859375 1.675781 0.0
v -23.000000 -16.207458 119.205292
#joint 35
#vjoint 193
v -23.000000 -42.207458 10.205292
#joint 35
#vjoint 194
v -18.000000 -52.207458 102.205292
#joint 35
#vjoint 195
f 193/598 194/599 195/600
#fvcolorindex 81 81 81 
vt -1.226562 1.262695 0.0
vt -1.226562 1.263672 0.0
vt -1.225586 1.150391 0.0
v -2.000000 -6.207458 278.205292
#joint 35
#vjoint 196
v 6.000000 -7.207458 278.205292
#joint 35
#vjoint 197
v 14.000000 6.792542 278.205292
#joint 35
#vjoint 198
#vcolor 216.000000 216.000000 216.000000 255.000000
f 196/601 197/602 198/603
#fvcolorindex 81 81 85 
vt -1.226562 1.262695 0.0
vt -1.225586 1.150391 0.0
vt -1.224609 1.034180 0.0
v 7.000000 19.792542 278.205292
#joint 35
#vjoint 199
#vcolor 202.000000 202.000000 202.000000 255.000000
f 196/604 198/605 199/606
#fvcolorindex 81 85 86 
vt -1.226562 1.262695 0.0
vt -1.224609 1.034180 0.0
vt -1.224609 1.033203 0.0
v -2.000000 20.792542 278.205292
#joint 35
#vjoint 200
f 196/607 199/608 200/609
#fvcolorindex 81 86 86 
vt -1.226562 1.262695 0.0
vt -1.224609 1.033203 0.0
vt -1.224609 1.034180 0.0
v -11.000000 19.792542 278.205292
#joint 35
#vjoint 201
#vcolor 82.000000 82.000000 82.000000 255.000000
f 196/610 200/611 201/612
#fvcolorindex 81 86 87 
vt -1.226562 1.262695 0.0
vt -1.224609 1.034180 0.0
vt -1.225586 1.150391 0.0
v -18.000000 6.792542 278.205292
#joint 35
#vjoint 202
f 196/613 201/614 202/615
#fvcolorindex 81 87 81 
vt -1.226562 1.262695 0.0
vt -1.225586 1.150391 0.0
vt -1.226562 1.263672 0.0
v -10.000000 -7.207458 278.205292
#joint 35
#vjoint 203
f 196/616 202/617 203/618
#fvcolorindex 81 81 81 
usemtl m19MirrorS
vt 1.111328 1.360352 0.0
vt 1.111328 1.360352 0.0
vt 1.368164 0.953125 0.0
#vcolor 174.000000 174.000000 174.000000 255.000000
v 19.000000 -16.207458 119.205292
#joint 35
#vjoint 204
v 19.000000 31.792542 89.205292
#joint 35
#vjoint 205
f 193/619 204/620 205/621
#fvcolorindex 88 88 88 
vt 1.111328 1.360352 0.0
vt 1.368164 0.953125 0.0
vt 1.368164 0.953125 0.0
f 193/622 205/623 190/624
#fvcolorindex 88 88 88 
usemtl m16MirrorS
vt 2.875977 0.962891 0.0
vt 1.368164 0.953125 0.0
vt 4.352539 0.972656 0.0
v -37.000000 31.792542 -88.794708
#joint 35
#vjoint 206
f 206/625 190/626 187/627
#fvcolorindex 82 82 82 
usemtl m15MirrorS
vt 4.349609 1.412109 0.0
vt 3.807617 1.573242 0.0
vt 3.280273 1.613281 0.0
v -23.000000 -20.207458 -262.794708
#joint 35
#vjoint 207
f 207/628 185/629 192/630
#fvcolorindex 81 81 81 
vt 2.862305 1.402344 0.0
vt 4.349609 1.412109 0.0
vt 3.280273 1.613281 0.0
v -35.000000 -20.207458 -61.794708
#joint 35
#vjoint 208
f 208/631 207/632 192/633
#fvcolorindex 81 81 81 
vt 2.848633 1.588867 0.0
vt 2.862305 1.402344 0.0
vt 3.280273 1.613281 0.0
v -23.000000 -42.207458 -85.794708
#joint 35
#vjoint 209
f 209/634 208/635 192/636
#fvcolorindex 81 81 81 
vt 4.352539 0.972656 0.0
vt 4.349609 1.412109 0.0
vt 2.862305 1.402344 0.0
f 187/637 207/638 208/639
#fvcolorindex 81 81 81 
vt 4.352539 0.972656 0.0
vt 2.862305 1.402344 0.0
vt 2.875977 0.962891 0.0
f 187/640 208/641 206/642
#fvcolorindex 81 81 81 
vt 2.032227 1.583984 0.0
vt 1.111328 1.360352 0.0
vt 2.862305 1.402344 0.0
f 194/643 193/644 208/645
#fvcolorindex 81 81 81 
vt 2.032227 1.583984 0.0
vt 2.862305 1.402344 0.0
vt 2.848633 1.588867 0.0
f 194/646 208/647 209/648
#fvcolorindex 81 81 81 
vt 2.875977 0.962891 0.0
vt 2.862305 1.402344 0.0
vt 1.111328 1.360352 0.0
f 206/649 208/650 193/651
#fvcolorindex 81 81 81 
vt 2.875977 0.962891 0.0
vt 1.111328 1.360352 0.0
vt 1.368164 0.953125 0.0
f 206/652 193/653 190/654
#fvcolorindex 81 81 81 
usemtl m19MirrorS
vt 1.111328 1.360352 0.0
vt 1.111328 1.360352 0.0
vt 1.368164 0.953125 0.0
f 193/655 204/656 205/657
#fvcolorindex 88 88 88 
vt 1.111328 1.360352 0.0
vt 1.368164 0.953125 0.0
vt 1.368164 0.953125 0.0
f 193/658 205/659 190/660
#fvcolorindex 88 88 88 
usemtl m15MirrorS
vt 3.807617 1.573242 0.0
vt 4.349609 1.412109 0.0
vt 4.349609 1.412109 0.0
v 19.000000 -20.207458 -262.794708
#joint 35
#vjoint 210
#vcolor 129.000000 129.000000 129.000000 255.000000
f 185/661 207/662 210/663
#fvcolorindex 81 81 89 
vt 3.780273 1.716797 0.0
vt 3.807617 1.573242 0.0
vt 3.780273 1.716797 0.0
f 183/664 185/665 182/666
#fvcolorindex 81 81 81 
vt 2.848633 1.588867 0.0
vt 2.848633 1.588867 0.0
vt 3.280273 1.613281 0.0
v 19.000000 -42.207458 -85.794708
#joint 35
#vjoint 211
f 211/667 209/668 192/669
#fvcolorindex 81 81 81 
vt 2.848633 1.588867 0.0
vt 3.280273 1.613281 0.0
vt 3.280273 1.613281 0.0
f 211/670 192/671 184/672
#fvcolorindex 81 81 81 
vt 3.313477 1.823242 0.0
vt 3.280273 1.613281 0.0
vt 3.280273 1.613281 0.0
f 171/673 184/674 192/675
#fvcolorindex 81 81 81 
vt 3.313477 1.823242 0.0
vt 3.280273 1.613281 0.0
vt 3.313477 1.823242 0.0
f 171/676 192/677 174/678
#fvcolorindex 81 81 81 
vt 2.945312 1.917969 0.0
vt 2.945312 1.917969 0.0
vt 2.856445 1.824219 0.0
f 172/679 169/680 168/681
#fvcolorindex 81 81 81 
vt 2.945312 1.917969 0.0
vt 2.856445 1.824219 0.0
vt 2.856445 1.824219 0.0
f 172/682 168/683 175/684
#fvcolorindex 81 81 81 
vt 2.856445 1.824219 0.0
vt 2.856445 1.824219 0.0
vt 2.848633 1.588867 0.0
f 168/685 175/686 209/687
#fvcolorindex 81 81 81 
vt 2.856445 1.824219 0.0
vt 2.848633 1.588867 0.0
vt 2.848633 1.588867 0.0
f 168/688 209/689 211/690
#fvcolorindex 81 81 81 
usemtl m20MirrorS
vt 3.343750 -0.284180 0.0
vt 3.795898 -0.284180 0.0
vt 3.648438 2.019531 0.0
v -10.000000 -7.207458 113.205292
#joint 35
#vjoint 212
f 196/691 203/692 212/693
#fvcolorindex 81 81 81 
vt 3.343750 -0.284180 0.0
vt 3.648438 2.019531 0.0
vt 3.343750 2.020508 0.0
v -2.000000 -7.207458 113.205292
#joint 35
#vjoint 213
f 196/694 212/695 213/696
#fvcolorindex 81 81 81 
vt 3.343750 -0.284180 0.0
vt 3.343750 2.020508 0.0
vt 3.038086 2.019531 0.0
v 6.000000 -7.207458 113.205292
#joint 35
#vjoint 214
f 196/697 213/698 214/699
#fvcolorindex 81 81 81 
vt 3.343750 -0.284180 0.0
vt 3.038086 2.019531 0.0
vt 2.891602 -0.284180 0.0
f 196/700 214/701 197/702
#fvcolorindex 81 81 81 
usemtl m21MirrorS
vt 1.671875 -0.272461 0.0
vt 1.889648 -0.272461 0.0
vt 1.966797 2.266602 0.0
v 7.000000 19.792542 96.205292
#joint 35
#vjoint 215
f 200/703 199/704 215/705
#fvcolorindex 86 86 84 
vt 1.671875 -0.272461 0.0
vt 1.966797 2.266602 0.0
vt 1.671875 2.268555 0.0
v -2.000000 19.792542 96.205292
#joint 35
#vjoint 216
f 200/706 215/707 216/708
#fvcolorindex 86 84 84 
vt 1.671875 -0.272461 0.0
vt 1.671875 2.268555 0.0
vt 1.376953 2.266602 0.0
v -11.000000 19.792542 96.205292
#joint 35
#vjoint 217
#vcolor 51.000000 51.000000 51.000000 255.000000
f 200/709 216/710 217/711
#fvcolorindex 86 84 90 
vt 1.671875 -0.272461 0.0
vt 1.376953 2.266602 0.0
vt 1.454102 -0.272461 0.0
f 200/712 217/713 201/714
#fvcolorindex 86 90 87 
usemtl m20MirrorS
vt 2.891602 -0.284180 0.0
vt 3.039062 2.019531 0.0
vt 2.490234 2.141602 0.0
v 14.000000 5.792542 105.205292
#joint 35
#vjoint 218
#vcolor 181.000000 181.000000 181.000000 255.000000
f 197/715 214/716 218/717
#fvcolorindex 81 81 91 
vt 2.891602 -0.284180 0.0
vt 2.490234 2.141602 0.0
vt 2.311523 -0.278320 0.0
f 197/718 218/719 198/720
#fvcolorindex 81 91 85 
usemtl m22MirrorS
vt 2.311523 -0.278320 0.0
vt 2.490234 2.141602 0.0
vt 1.966797 2.266602 0.0
f 198/721 218/722 215/723
#fvcolorindex 85 91 84 
vt 2.311523 -0.278320 0.0
vt 1.966797 2.266602 0.0
vt 1.889648 -0.272461 0.0
f 198/724 215/725 199/726
#fvcolorindex 85 84 86 
usemtl m23MirrorS
vt 1.454102 -0.272461 0.0
vt 1.376953 2.266602 0.0
vt 1.032227 -0.278320 0.0
f 201/727 217/728 202/729
#fvcolorindex 87 90 81 
usemtl m24MirrorS
vt 1.376953 2.266602 0.0
vt 0.852539 2.141602 0.0
vt 1.032227 -0.278320 0.0
v -18.000000 5.792542 105.205292
#joint 35
#vjoint 219
f 217/730 219/731 202/732
#fvcolorindex 90 81 81 
usemtl m20MirrorS
vt 1.032227 -0.278320 0.0
vt 0.853516 2.141602 0.0
vt 0.452148 -0.284180 0.0
f 202/733 219/734 203/735
#fvcolorindex 81 81 81 
vt 0.853516 2.141602 0.0
vt 0.304688 2.019531 0.0
vt 0.452148 -0.284180 0.0
f 219/736 212/737 203/738
#fvcolorindex 81 81 81 
usemtl m25
vt -0.182617 -0.067383 0.0
vt 0.328125 -0.062500 0.0
vt 0.084961 1.000000 0.0
#vcolor 215.000000 215.000000 215.000000 255.000000
v -2.000000 69.417618 252.859848
#joint 37
#vjoint 220
f 166/739 165/740 220/741
#fvcolorindex 92 92 92 
usemtl m26
vt -4.840820 -0.890625 0.0
vt -0.119141 -2.175781 0.0
vt 2.958984 -2.070312 0.0
v -2.000000 79.792542 8.205292
#joint 35
#vjoint 221
#vcolor 48.000000 48.000000 48.000000 255.000000
f 221/742 163/743 166/744
#fvcolorindex 89 89 93 
vt -4.840820 -0.890625 0.0
vt 2.958984 -2.070312 0.0
vt 2.599609 -0.965820 0.0
f 221/745 166/746 220/747
#fvcolorindex 89 93 93 
usemtl m27
vt 2.599609 -0.965820 0.0
vt 2.958984 -2.070312 0.0
vt -0.119141 -2.175781 0.0
f 220/748 165/749 164/750
#fvcolorindex 84 84 89 
vt 2.599609 -0.965820 0.0
vt -0.119141 -2.175781 0.0
vt -4.840820 -0.890625 0.0
f 220/751 164/752 221/753
#fvcolorindex 84 89 89 
usemtl m28
vt 3.616211 0.000000 0.0
vt 0.000000 0.000000 0.0
vt 0.000000 1.063477 0.0
v -41.000000 -13.582382 192.859848
#joint 37
#vjoint 222
#vcolor 144.000000 144.000000 144.000000 255.000000
v -41.000000 -13.582382 221.859848
#joint 37
#vjoint 223
v -18.000000 -13.582382 221.859848
#joint 37
#vjoint 224
f 222/754 223/755 224/756
#fvcolorindex 94 94 94 
vt 3.616211 0.000000 0.0
vt 0.000000 1.063477 0.0
vt 3.616211 1.063477 0.0
v -18.000000 -13.582382 192.859848
#joint 37
#vjoint 225
f 222/757 224/758 225/759
#fvcolorindex 94 94 94 
vt 3.616211 1.063477 0.0
vt 0.000000 1.063477 0.0
vt 0.000000 0.000000 0.0
v 15.000000 -13.582382 192.859848
#joint 37
#vjoint 226
v 15.000000 -13.582382 221.859848
#joint 37
#vjoint 227
v 37.000000 -13.582382 221.859848
#joint 37
#vjoint 228
f 226/760 227/761 228/762
#fvcolorindex 94 94 94 
vt 3.616211 1.063477 0.0
vt 0.000000 0.000000 0.0
vt 3.616211 0.000000 0.0
v 37.000000 -13.582382 192.859848
#joint 37
#vjoint 229
f 226/763 228/764 229/765
#fvcolorindex 94 94 94 
usemtl m29
vt -8.716797 -0.847656 0.0
vt -15.484375 0.041992 0.0
vt -15.484375 0.041992 0.0
v 10.000000 79.792542 8.205292
#joint 35
#vjoint 230
f 164/766 230/767 221/768
#fvcolorindex 82 82 82 
vt -15.484375 0.041992 0.0
vt -15.484375 0.041992 0.0
vt -8.716797 -0.847656 0.0
f 221/769 189/770 163/771
#fvcolorindex 82 82 82 
usemtl m30
vt -15.484375 0.041992 0.0
vt -11.876953 -0.939453 0.0
vt -8.716797 -0.847656 0.0
f 189/772 190/773 163/774
#fvcolorindex 81 81 81 
vt -11.876953 -0.939453 0.0
vt -11.876953 -0.939453 0.0
vt -8.716797 -0.847656 0.0
f 190/775 205/776 164/777
#fvcolorindex 81 81 81 
vt -11.876953 -0.939453 0.0
vt -8.716797 -0.847656 0.0
vt -8.716797 -0.847656 0.0
f 190/778 164/779 163/780
#fvcolorindex 81 81 81 
usemtl m31
vt 0.346680 -1.419922 0.0
vt 0.559570 -1.000977 0.0
vt -3.295898 -1.478516 0.0
v -2.000000 -37.582382 242.859848
#joint 37
#vjoint 231
v -14.000000 -15.582382 249.859848
#joint 37
#vjoint 232
v -2.000000 -43.207458 148.205292
#joint 35
#vjoint 233
f 231/781 232/782 233/783
#fvcolorindex 81 81 81 
vt 0.559570 -1.000977 0.0
vt -3.847656 -0.965820 0.0
vt -3.295898 -1.478516 0.0
v -14.000000 -16.207458 119.205292
#joint 35
#vjoint 234
f 232/784 234/785 233/786
#fvcolorindex 81 81 81 
usemtl m32
vt 0.559570 -1.000977 0.0
vt -3.847656 -0.965820 0.0
vt -3.847656 -0.965820 0.0
v 10.000000 -15.582382 249.859848
#joint 37
#vjoint 235
v 10.000000 -16.207458 119.205292
#joint 35
#vjoint 236
f 235/787 236/788 234/789
#fvcolorindex 82 82 82 
vt 0.559570 -1.000977 0.0
vt -3.847656 -0.965820 0.0
vt 0.559570 -1.000977 0.0
f 235/790 234/791 232/792
#fvcolorindex 82 82 82 
usemtl m33
vt -3.295898 -1.478516 0.0
vt 0.559570 -1.000977 0.0
vt 0.346680 -1.419922 0.0
f 233/793 235/794 231/795
#fvcolorindex 87 87 87 
usemtl m34
vt -3.295898 -1.478516 0.0
vt -3.847656 -0.965820 0.0
vt 0.559570 -1.000977 0.0
#vcolor 103.000000 103.000000 103.000000 255.000000
f 233/796 236/797 235/798
#fvcolorindex 95 95 95 
usemtl m33
vt 1.422852 0.022461 0.0
vt -0.034180 0.022461 0.0
vt -1.977539 0.994141 0.0
v -18.000000 -57.582382 242.859848
#joint 37
#vjoint 237
v -18.000000 -57.582382 220.859848
#joint 37
#vjoint 238
f 237/799 238/800 225/801
#fvcolorindex 87 87 94 
vt 1.422852 0.022461 0.0
vt -1.977539 0.994141 0.0
vt 2.151367 0.994141 0.0
v -18.000000 -13.582382 263.859863
#joint 37
#vjoint 239
f 237/802 225/803 239/804
#fvcolorindex 87 94 94 
usemtl m35
vt -0.066406 0.000000 0.0
vt 4.308594 0.000000 0.0
vt 2.250000 -1.159180 0.0
v -41.000000 -13.582382 263.859863
#joint 37
#vjoint 240
f 240/805 222/806 238/807
#fvcolorindex 94 94 87 
vt -0.066406 0.000000 0.0
vt 2.250000 -1.159180 0.0
vt 0.706055 -1.159180 0.0
f 240/808 238/809 237/810
#fvcolorindex 94 87 87 
usemtl m33
vt 0.264648 -1.143555 0.0
vt 0.000000 0.000000 0.0
vt 0.264648 0.000000 0.0
f 238/811 222/812 225/813
#fvcolorindex 87 94 94 
usemtl m35
vt 0.000000 0.000000 0.0
vt 0.478516 0.000000 0.0
vt 0.000000 -1.157227 0.0
f 239/814 240/815 237/816
#fvcolorindex 94 94 87 
vt 2.151367 0.994141 0.0
vt -1.977539 0.994141 0.0
vt -0.034180 0.022461 0.0
v 15.000000 -13.582382 263.859863
#joint 37
#vjoint 241
v 15.000000 -57.582382 220.859848
#joint 37
#vjoint 242
f 241/817 226/818 242/819
#fvcolorindex 94 94 87 
vt 2.151367 0.994141 0.0
vt -0.034180 0.022461 0.0
vt 1.422852 0.022461 0.0
v 15.000000 -57.582382 242.859848
#joint 37
#vjoint 243
f 241/820 242/821 243/822
#fvcolorindex 94 87 87 
usemtl m33
vt 0.706055 -1.159180 0.0
vt 2.250000 -1.159180 0.0
vt 4.308594 0.000000 0.0
f 243/823 242/824 229/825
#fvcolorindex 87 87 94 
vt 0.706055 -1.159180 0.0
vt 4.308594 0.000000 0.0
vt -0.066406 0.000000 0.0
v 37.000000 -13.582382 263.859863
#joint 37
#vjoint 244
f 243/826 229/827 244/828
#fvcolorindex 87 94 94 
usemtl m35
vt 0.264648 0.000000 0.0
vt 0.000000 0.000000 0.0
vt 0.264648 -1.143555 0.0
f 226/829 229/830 242/831
#fvcolorindex 94 94 87 
usemtl m33
vt 0.000000 -1.157227 0.0
vt 0.478516 0.000000 0.0
vt 0.000000 0.000000 0.0
f 243/832 244/833 241/834
#fvcolorindex 87 94 94 
usemtl m36
vt -0.170898 -1.017578 0.0
vt 0.386719 -1.829102 0.0
vt -0.638672 -1.821289 0.0
v 4.000000 111.792542 -32.794708
#joint 35
#vjoint 245
v 10.000000 79.792542 -61.794708
#joint 35
#vjoint 246
f 245/835 230/836 246/837
#fvcolorindex 85 85 85 
vt -0.170898 -1.017578 0.0
vt -0.638672 -1.821289 0.0
vt -1.054688 -1.011719 0.0
v 4.000000 111.792542 -92.794708
#joint 35
#vjoint 247
f 245/838 246/839 247/840
#fvcolorindex 85 85 85 
usemtl m37
vt -4.044922 -0.321289 0.0
vt -4.062500 -0.022461 0.0
vt -1.259766 -0.009766 0.0
#vcolor 62.000000 62.000000 62.000000 255.000000
v 34.000000 -20.207458 -86.794708
#joint 35
#vjoint 248
f 211/841 248/842 204/843
#fvcolorindex 96 89 89 
vt -4.044922 -0.321289 0.0
vt -1.259766 -0.009766 0.0
vt -2.739258 -0.338867 0.0
v 19.000000 -42.207458 10.205292
#joint 35
#vjoint 249
f 211/844 204/845 249/846
#fvcolorindex 96 89 96 
usemtl m38
vt -1.259766 -0.009766 0.0
vt -0.868164 -0.375977 0.0
vt -1.499023 -0.489258 0.0
#vcolor 157.000000 157.000000 157.000000 255.000000
v 14.000000 -52.207458 102.205292
#joint 35
#vjoint 250
f 204/847 233/848 250/849
#fvcolorindex 97 97 97 
usemtl m36
vt -3.208008 -1.802734 0.0
vt -2.678711 -0.999023 0.0
vt -2.492188 -1.000000 0.0
v 10.000000 56.792542 -239.794708
#joint 35
#vjoint 251
v 4.000000 111.792542 -204.794708
#joint 35
#vjoint 252
v 4.000000 111.792542 -191.794708
#joint 35
#vjoint 253
f 251/850 252/851 253/852
#fvcolorindex 85 85 85 
vt -3.208008 -1.802734 0.0
vt -2.492188 -1.000000 0.0
vt -2.862305 -1.804688 0.0
v 10.000000 56.792542 -216.794708
#joint 35
#vjoint 254
f 251/853 253/854 254/855
#fvcolorindex 85 85 85 
usemtl m39
vt -1.259766 -0.009766 0.0
vt -0.868164 -0.375977 0.0
vt -1.259766 -0.009766 0.0
#vcolor 203.000000 203.000000 203.000000 255.000000
f 236/856 233/857 204/858
#fvcolorindex 98 98 98 
usemtl m40
vt -2.678711 -0.999023 0.0
vt -2.678711 -0.999023 0.0
vt -3.208008 -1.802734 0.0
v -7.000000 111.792542 -204.794708
#joint 35
#vjoint 255
#vcolor 152.000000 152.000000 152.000000 255.000000
f 255/859 252/860 251/861
#fvcolorindex 99 99 99 
vt -2.678711 -0.999023 0.0
vt -3.208008 -1.802734 0.0
vt -3.208008 -1.802734 0.0
f 255/862 251/863 186/864
#fvcolorindex 99 99 99 
usemtl m41
vt -4.737305 -0.346680 0.0
vt -4.062500 -0.022461 0.0
vt -4.044922 -0.321289 0.0
f 184/865 248/866 211/867
#fvcolorindex 93 89 93 
usemtl m31
vt -4.737305 -0.346680 0.0
vt -6.441406 0.008789 0.0
vt -4.062500 -0.022461 0.0
f 184/868 210/869 248/870
#fvcolorindex 81 89 89 
vt -0.638672 -1.821289 0.0
vt -1.054688 -1.011719 0.0
vt -0.822266 -1.443359 0.0
v -7.000000 111.792542 -92.794708
#joint 35
#vjoint 256
v -2.000000 82.792542 -76.794708
#joint 35
#vjoint 257
#vcolor 44.000000 44.000000 44.000000 255.000000
f 191/871 256/872 257/873
#fvcolorindex 81 81 100 
vt -0.638672 -1.821289 0.0
vt -0.822266 -1.443359 0.0
vt -1.054688 -1.011719 0.0
f 191/874 257/875 247/876
#fvcolorindex 81 100 81 
vt -0.638672 -1.821289 0.0
vt -1.054688 -1.011719 0.0
vt -0.638672 -1.821289 0.0
f 191/877 247/878 246/879
#fvcolorindex 81 81 81 
vt -2.862305 -1.804688 0.0
vt -2.492188 -1.000000 0.0
vt -2.667969 -1.429688 0.0
v -2.000000 82.792542 -203.794708
#joint 35
#vjoint 258
f 254/880 253/881 258/882
#fvcolorindex 81 81 100 
vt -2.862305 -1.804688 0.0
vt -2.667969 -1.429688 0.0
vt -2.492188 -1.000000 0.0
v -7.000000 111.792542 -191.794708
#joint 35
#vjoint 259
f 254/883 258/884 259/885
#fvcolorindex 81 100 81 
vt -2.862305 -1.804688 0.0
vt -2.492188 -1.000000 0.0
vt -2.862305 -1.804688 0.0
f 254/886 259/887 188/888
#fvcolorindex 81 81 81 
usemtl m42
vt -0.094727 -0.967773 0.0
vt 3.860352 -0.967773 0.0
vt 3.860352 -0.344727 0.0
f 246/889 254/890 188/891
#fvcolorindex 100 82 82 
vt -0.094727 -0.967773 0.0
vt 3.860352 -0.344727 0.0
vt -0.094727 -0.344727 0.0
f 246/892 188/893 191/894
#fvcolorindex 100 82 100 
usemtl m43
vt -0.170898 -1.017578 0.0
vt -2.678711 -0.999023 0.0
vt -2.678711 -0.999023 0.0
f 245/895 252/896 255/897
#fvcolorindex 84 84 84 
vt -0.170898 -1.017578 0.0
vt -2.678711 -0.999023 0.0
vt -0.170898 -1.017578 0.0
v -7.000000 111.792542 -32.794708
#joint 35
#vjoint 260
f 245/898 255/899 260/900
#fvcolorindex 84 84 84 
vt -2.492188 -1.000000 0.0
vt -1.054688 -1.011719 0.0
vt -0.822266 -1.443359 0.0
f 253/901 247/902 257/903
#fvcolorindex 84 84 100 
vt -2.492188 -1.000000 0.0
vt -0.822266 -1.443359 0.0
vt -2.667969 -1.429688 0.0
f 253/904 257/905 258/906
#fvcolorindex 84 100 100 
usemtl m31
vt -4.737305 -0.346680 0.0
vt -5.580078 -0.265625 0.0
vt -6.441406 0.008789 0.0
f 184/907 185/908 210/909
#fvcolorindex 81 81 81 
usemtl m44
vt -1.499023 -0.489258 0.0
vt -2.739258 -0.338867 0.0
vt -1.259766 -0.009766 0.0
#vcolor 132.000000 132.000000 132.000000 255.000000
f 250/910 249/911 204/912
#fvcolorindex 101 101 101 
usemtl m31
vt -0.638672 -1.821289 0.0
vt 0.386719 -1.829102 0.0
vt -0.170898 -1.017578 0.0
f 191/913 189/914 260/915
#fvcolorindex 81 81 81 
vt -0.638672 -1.821289 0.0
vt -0.170898 -1.017578 0.0
vt -1.054688 -1.011719 0.0
f 191/916 260/917 256/918
#fvcolorindex 81 81 81 
vt -2.862305 -1.804688 0.0
vt -2.492188 -1.000000 0.0
vt -2.678711 -0.999023 0.0
f 188/919 259/920 255/921
#fvcolorindex 81 81 81 
vt -2.862305 -1.804688 0.0
vt -2.678711 -0.999023 0.0
vt -3.208008 -1.802734 0.0
f 188/922 255/923 186/924
#fvcolorindex 81 81 81 
usemtl m42
vt -2.667969 -1.429688 0.0
vt -0.822266 -1.443359 0.0
vt -1.054688 -1.011719 0.0
f 258/925 257/926 256/927
#fvcolorindex 100 100 84 
vt -2.667969 -1.429688 0.0
vt -1.054688 -1.011719 0.0
vt -2.492188 -1.000000 0.0
f 258/928 256/929 259/930
#fvcolorindex 100 84 84 
usemtl m39
vt 1.341797 -0.046875 0.0
vt 1.758789 -0.438477 0.0
vt 1.341797 -0.046875 0.0
f 193/931 233/932 234/933
#fvcolorindex 98 98 98 
usemtl m38
vt 1.083984 -0.558594 0.0
vt 1.758789 -0.438477 0.0
vt 1.341797 -0.046875 0.0
f 195/934 233/935 193/936
#fvcolorindex 97 97 97 
usemtl m43
vt 0.498047 0.915039 0.0
vt 0.450195 0.437500 0.0
vt -0.129883 0.151367 0.0
v 14.000000 -85.207458 89.205292
#joint 35
#vjoint 261
f 261/937 250/938 233/939
#fvcolorindex 84 84 84 
vt -0.129883 0.151367 0.0
vt 0.450195 0.437500 0.0
vt 0.498047 0.915039 0.0
v -18.000000 -85.207458 89.205292
#joint 35
#vjoint 262
f 233/940 195/941 262/942
#fvcolorindex 84 84 84 
vt 0.498047 0.915039 0.0
vt 0.498047 0.915039 0.0
vt -0.129883 0.151367 0.0
f 262/943 261/944 233/945
#fvcolorindex 84 84 84 
usemtl m45
vt 0.386719 -1.829102 0.0
vt 0.386719 -1.829102 0.0
vt -0.170898 -1.017578 0.0
#vcolor 208.000000 208.000000 208.000000 255.000000
f 221/946 230/947 245/948
#fvcolorindex 102 102 102 
vt 0.386719 -1.829102 0.0
vt -0.170898 -1.017578 0.0
vt -0.170898 -1.017578 0.0
v -2.000000 111.792542 -32.794708
#joint 35
#vjoint 263
f 221/949 245/950 263/951
#fvcolorindex 102 102 102 
vt 0.386719 -1.829102 0.0
vt 0.386719 -1.829102 0.0
vt -0.170898 -1.017578 0.0
f 189/952 221/953 263/954
#fvcolorindex 102 102 102 
vt 0.386719 -1.829102 0.0
vt -0.170898 -1.017578 0.0
vt -0.170898 -1.017578 0.0
f 189/955 263/956 260/957
#fvcolorindex 102 102 102 
usemtl m43
vt 0.000000 0.000000 0.0
vt 1.407227 0.000000 0.0
vt 1.407227 0.978516 0.0
v 52.000000 -9.207458 14.205292
#joint 35
#vjoint 264
v 16.000000 -10.207458 14.205292
#joint 35
#vjoint 265
#vcolor 0.000000 0.000000 0.000000 255.000000
v 16.000000 12.792542 2.205292
#joint 35
#vjoint 266
f 264/958 265/959 266/960
#fvcolorindex 84 103 103 
vt 0.000000 0.000000 0.0
vt 1.407227 0.978516 0.0
vt 0.000000 0.978516 0.0
v 52.000000 12.792542 2.205292
#joint 35
#vjoint 267
f 264/961 266/962 267/963
#fvcolorindex 84 103 84 
vt 1.543945 1.013672 0.0
vt 0.000000 1.013672 0.0
vt 0.000000 0.000000 0.0
v 52.000000 12.792542 -65.794708
#joint 35
#vjoint 268
v 16.000000 12.792542 -65.794708
#joint 35
#vjoint 269
v 16.000000 -11.207458 -65.794708
#joint 35
#vjoint 270
f 268/964 269/965 270/966
#fvcolorindex 84 103 103 
vt 1.543945 1.013672 0.0
vt 0.000000 0.000000 0.0
vt 1.543945 0.000000 0.0
v 52.000000 -11.207458 -65.794708
#joint 35
#vjoint 271
f 268/967 270/968 271/969
#fvcolorindex 84 103 84 
usemtl m5
vt 0.104492 -2.036133 0.0
vt 0.118164 -0.791992 0.0
vt -0.120117 -0.791992 0.0
v 71.558647 0.559719 -139.444489
#joint 36
#vjoint 272
#vcolor 169.000000 169.000000 169.000000 255.000000
v 64.558647 0.559719 -169.444489
#joint 36
#vjoint 273
v 64.558647 9.559719 -169.444489
#joint 36
#vjoint 274
f 272/970 273/971 274/972
#fvcolorindex 104 104 84 
vt 0.104492 -2.036133 0.0
vt -0.120117 -0.791992 0.0
vt -0.106445 -2.036133 0.0
v 71.558647 9.559719 -139.444489
#joint 36
#vjoint 275
f 272/973 274/974 275/975
#fvcolorindex 104 84 84 
usemtl m46
vt -0.572266 -1.231445 0.0
vt -2.281250 -1.211914 0.0
vt -2.529297 -0.041016 0.0
v 20.558649 -1.440281 -168.444489
#joint 36
#vjoint 276
f 276/976 273/977 272/978
#fvcolorindex 103 104 104 
vt -0.572266 -1.231445 0.0
vt -2.529297 -0.041016 0.0
vt -0.628906 -0.061523 0.0
v 23.558649 -1.440281 -138.444489
#joint 36
#vjoint 277
f 276/979 272/980 277/981
#fvcolorindex 103 104 104 
vt -0.248047 -0.061523 0.0
vt -2.513672 -0.038086 0.0
vt -2.266602 -1.209961 0.0
v 13.558649 11.559719 -138.444489
#joint 36
#vjoint 278
f 278/982 275/983 274/984
#fvcolorindex 103 84 84 
vt -0.248047 -0.061523 0.0
vt -2.266602 -1.209961 0.0
vt -0.201172 -1.231445 0.0
v 11.558649 11.559719 -167.444489
#joint 36
#vjoint 279
f 278/985 274/986 279/987
#fvcolorindex 103 84 103 
usemtl m5
vt 0.556641 -2.057617 0.0
vt 0.104492 -2.036133 0.0
vt -0.106445 -2.036133 0.0
f 277/988 272/989 275/990
#fvcolorindex 104 104 84 
vt 0.556641 -2.057617 0.0
vt -0.106445 -2.036133 0.0
vt -1.158203 -2.060547 0.0
f 277/991 275/992 278/993
#fvcolorindex 104 84 103 
usemtl m47MirrorS
vt 1.268555 0.993164 0.0
vt 1.268555 0.000000 0.0
vt 0.000000 0.000000 0.0
v -18.000000 32.417618 221.859848
#joint 37
#vjoint 280
f 280/994 223/995 240/996
#fvcolorindex 84 94 94 
vt 1.268555 0.993164 0.0
vt 0.000000 0.000000 0.0
vt 0.000000 0.993164 0.0
f 280/997 240/998 166/999
#fvcolorindex 84 94 84 
usemtl m48MirrorS
vt 0.526367 0.000977 0.0
vt 1.019531 1.000977 0.0
vt 1.019531 0.000977 0.0
f 223/1000 280/1001 224/1002
#fvcolorindex 94 84 94 
vt 0.000000 0.000000 0.0
vt 0.000000 0.974609 0.0
vt 0.480469 0.000000 0.0
f 239/1003 166/1004 240/1005
#fvcolorindex 94 84 94 
usemtl m47MirrorS
vt 0.000000 0.993164 0.0
vt 0.000000 0.000000 0.0
vt 1.268555 0.000000 0.0
f 165/1006 244/1007 228/1008
#fvcolorindex 84 94 94 
vt 0.000000 0.993164 0.0
vt 1.268555 0.000000 0.0
vt 1.268555 0.993164 0.0
v 15.000000 32.417618 221.859848
#joint 37
#vjoint 281
f 165/1009 228/1010 281/1011
#fvcolorindex 84 94 84 
usemtl m48MirrorS
vt 1.019531 0.000977 0.0
vt 1.019531 1.000977 0.0
vt 0.526367 0.000977 0.0
f 227/1012 281/1013 228/1014
#fvcolorindex 94 84 94 
vt 0.480469 0.000000 0.0
vt 0.000000 0.974609 0.0
vt 0.000000 0.000000 0.0
f 244/1015 165/1016 241/1017
#fvcolorindex 94 84 94 
usemtl m49
vt 0.505859 -0.850586 0.0
vt 1.029297 -1.940430 0.0
vt 1.552734 -0.850586 0.0
f 232/1018 231/1019 235/1020
#fvcolorindex 81 81 81 
usemtl m50
vt 1.394531 0.979492 0.0
vt 1.394531 0.000000 0.0
vt 0.000000 0.000000 0.0
f 166/1021 239/1022 224/1023
#fvcolorindex 84 94 94 
vt 1.394531 0.979492 0.0
vt 0.000000 0.000000 0.0
vt 0.000000 0.979492 0.0
f 166/1024 224/1025 280/1026
#fvcolorindex 84 94 84 
vt 0.000000 0.979492 0.0
vt 0.000000 0.000000 0.0
vt 1.394531 0.000000 0.0
f 281/1027 227/1028 241/1029
#fvcolorindex 84 94 94 
vt 0.000000 0.979492 0.0
vt 1.394531 0.000000 0.0
vt 1.394531 0.979492 0.0
f 281/1030 241/1031 165/1032
#fvcolorindex 84 94 84 
usemtl m51
vt 4.479492 -0.478516 0.0
vt -3.025391 -0.478516 0.0
vt 0.767578 -0.784180 0.0
v 19.000000 31.792542 -262.794708
#joint 35
#vjoint 282
v 34.000000 31.792542 -88.794708
#joint 35
#vjoint 283
f 282/1033 205/1034 283/1035
#fvcolorindex 100 100 82 
usemtl m50
vt 0.000000 0.000000 0.0
vt 0.298828 0.230469 0.0
vt 0.298828 0.829102 0.0
v 33.000000 18.792542 -101.794708
#joint 35
#vjoint 284
f 248/1036 160/1037 284/1038
#fvcolorindex 84 84 84 
vt 0.000000 0.000000 0.0
vt 0.298828 0.829102 0.0
vt 0.027344 1.096680 0.0
f 248/1039 284/1040 283/1041
#fvcolorindex 84 84 84 
vt 3.721680 0.000000 0.0
vt 2.967773 0.231445 0.0
vt 0.298828 0.230469 0.0
f 210/1042 161/1043 160/1044
#fvcolorindex 84 84 84 
vt 3.721680 0.000000 0.0
vt 0.298828 0.230469 0.0
vt 0.000000 0.000000 0.0
f 210/1045 160/1046 248/1047
#fvcolorindex 84 84 84 
vt 3.721680 1.096680 0.0
vt 2.951172 0.829102 0.0
vt 2.967773 0.231445 0.0
v 22.000000 18.792542 -225.794708
#joint 35
#vjoint 285
f 282/1048 285/1049 161/1050
#fvcolorindex 84 84 84 
vt 3.721680 1.096680 0.0
vt 2.967773 0.231445 0.0
vt 3.721680 0.000000 0.0
f 282/1051 161/1052 210/1053
#fvcolorindex 84 84 84 
vt 0.027344 1.096680 0.0
vt 0.298828 0.829102 0.0
vt 2.951172 0.829102 0.0
f 283/1054 284/1055 285/1056
#fvcolorindex 84 84 84 
vt 0.027344 1.096680 0.0
vt 2.951172 0.829102 0.0
vt 3.721680 1.096680 0.0
f 283/1057 285/1058 282/1059
#fvcolorindex 84 84 84 
usemtl m52
vt 3.563477 1.089844 0.0
vt 3.557617 0.000000 0.0
vt 0.000000 0.000000 0.0
#vcolor 191.000000 191.000000 191.000000 255.000000
f 269/1060 270/1061 265/1062
#fvcolorindex 105 105 105 
vt 3.563477 1.089844 0.0
vt 0.000000 0.000000 0.0
vt 0.500000 1.023438 0.0
f 269/1063 265/1064 266/1065
#fvcolorindex 105 105 105 
usemtl m50
vt -1.171875 -1.365234 0.0
vt 0.493164 -1.436523 0.0
vt 0.828125 -2.122070 0.0
v 52.000000 -15.207458 37.205292
#joint 35
#vjoint 286
v 52.000000 18.792542 20.205292
#joint 35
#vjoint 287
f 204/1066 286/1067 287/1068
#fvcolorindex 84 84 84 
vt -1.171875 -1.365234 0.0
vt 0.828125 -2.122070 0.0
vt -0.581055 -2.362305 0.0
f 204/1069 287/1070 205/1071
#fvcolorindex 84 84 84 
vt 4.767578 0.721680 0.0
vt 4.559570 1.318359 0.0
vt 0.962891 1.563477 0.0
v 52.000000 -17.207458 -78.794708
#joint 35
#vjoint 288
f 248/1072 288/1073 286/1074
#fvcolorindex 84 84 84 
vt 4.767578 0.721680 0.0
vt 0.962891 1.563477 0.0
vt -1.614258 0.721680 0.0
f 248/1075 286/1076 204/1077
#fvcolorindex 84 84 84 
vt 0.828125 -2.122070 0.0
vt 2.884766 -2.168945 0.0
vt 3.050781 -2.446289 0.0
v 52.000000 18.792542 -79.794708
#joint 35
#vjoint 289
f 287/1078 289/1079 283/1080
#fvcolorindex 84 84 84 
vt -0.581055 -2.362305 0.0
vt 0.828125 -2.122070 0.0
vt 3.050781 -2.446289 0.0
f 205/1081 287/1082 283/1083
#fvcolorindex 84 84 84 
vt -0.751953 0.000000 0.0
vt -0.072266 0.161133 0.0
vt 0.251953 0.818359 0.0
f 286/1084 264/1085 267/1086
#fvcolorindex 84 84 84 
vt -0.751953 0.000000 0.0
vt 0.251953 0.818359 0.0
vt -0.274414 0.964844 0.0
f 286/1087 267/1088 287/1089
#fvcolorindex 84 84 84 
vt 2.621094 0.000000 0.0
vt 2.223633 0.161133 0.0
vt -0.072266 0.161133 0.0
f 288/1090 271/1091 264/1092
#fvcolorindex 84 84 84 
vt 2.621094 0.000000 0.0
vt -0.072266 0.161133 0.0
vt -0.751953 0.000000 0.0
f 288/1093 264/1094 286/1095
#fvcolorindex 84 84 84 
vt 2.627930 1.016602 0.0
vt 2.228516 0.853516 0.0
vt 2.223633 0.161133 0.0
f 289/1096 268/1097 271/1098
#fvcolorindex 84 84 84 
vt 2.627930 1.016602 0.0
vt 2.223633 0.161133 0.0
vt 2.621094 0.000000 0.0
f 289/1099 271/1100 288/1101
#fvcolorindex 84 84 84 
vt -0.274414 0.964844 0.0
vt 0.251953 0.818359 0.0
vt 2.228516 0.853516 0.0
f 287/1102 267/1103 268/1104
#fvcolorindex 84 84 84 
vt -0.274414 0.964844 0.0
vt 2.228516 0.853516 0.0
vt 2.627930 1.016602 0.0
f 287/1105 268/1106 289/1107
#fvcolorindex 84 84 84 
vt -1.430664 0.000000 0.0
vt -1.430664 -1.057617 0.0
vt 0.874023 -1.057617 0.0
f 271/1108 270/1109 265/1110
#fvcolorindex 84 103 103 
vt -1.430664 0.000000 0.0
vt 0.874023 -1.057617 0.0
vt 0.874023 0.000000 0.0
f 271/1111 265/1112 264/1113
#fvcolorindex 84 103 84 
vt -0.035156 1.002930 0.0
vt -0.035156 0.000000 0.0
vt 1.845703 0.000000 0.0
f 267/1114 266/1115 269/1116
#fvcolorindex 84 103 103 
vt -0.035156 1.002930 0.0
vt 1.845703 0.000000 0.0
vt 1.845703 1.002930 0.0
f 267/1117 269/1118 268/1119
#fvcolorindex 84 103 84 
usemtl m53
vt 0.368164 -0.096680 0.0
vt -0.173828 -0.096680 0.0
vt -0.173828 -0.834961 0.0
#vcolor 90.000000 90.000000 90.000000 255.000000
f 159/1120 284/1121 160/1122
#fvcolorindex 106 80 106 
usemtl m7
vt 0.448242 -0.067383 0.0
vt -0.126953 -0.067383 0.0
vt 0.448242 -0.851562 0.0
f 285/1123 162/1124 161/1125
#fvcolorindex 80 106 106 
vt 0.000000 0.503906 0.0
vt 0.000000 0.000000 0.0
vt 3.043945 0.000000 0.0
f 284/1126 159/1127 162/1128
#fvcolorindex 80 106 106 
vt 0.000000 0.503906 0.0
vt 3.043945 0.000000 0.0
vt 3.043945 0.503906 0.0
f 284/1129 162/1130 285/1131
#fvcolorindex 80 106 80 
usemtl m54
vt 3.661621 -0.005859 0.0
vt 3.232910 0.484375 0.0
vt 0.633789 -0.021484 0.0
#vcolor 240.000000 240.000000 240.000000 255.000000
f 282/1132 254/1133 205/1134
#fvcolorindex 107 84 107 
usemtl m55
vt 3.232910 0.484375 0.0
vt 1.875000 0.875000 0.0
vt 0.633789 -0.021484 0.0
f 254/1135 246/1136 205/1137
#fvcolorindex 84 84 107 
vt 1.875000 0.875000 0.0
vt 1.270020 0.871094 0.0
vt 0.633789 -0.021484 0.0
f 246/1138 230/1139 205/1140
#fvcolorindex 84 107 107 
usemtl m54
vt 3.661621 -0.005859 0.0
vt 3.437012 0.486328 0.0
vt 3.232910 0.484375 0.0
f 282/1141 251/1142 254/1143
#fvcolorindex 107 107 84 
usemtl m56
vt 3.426270 0.615234 0.0
vt 3.437012 0.486328 0.0
vt 3.661621 -0.005859 0.0
#vcolor 150.000000 150.000000 150.000000 255.000000
f 186/1144 251/1145 282/1146
#fvcolorindex 108 108 108 
vt 3.426270 0.615234 0.0
vt 3.661621 -0.005859 0.0
vt 3.642090 0.222656 0.0
f 186/1147 282/1148 187/1149
#fvcolorindex 108 108 108 
usemtl m55
vt 0.000000 0.000000 0.0
vt 0.633789 -0.021484 0.0
vt 1.270020 0.871094 0.0
f 164/1150 205/1151 230/1152
#fvcolorindex 84 84 84 
usemtl m57
vt 0.334961 1.454102 0.0
vt -0.994141 1.070312 0.0
vt -0.952148 0.125977 0.0
#vcolor 190.000000 190.000000 190.000000 255.000000
f 178/1153 180/1154 170/1155
#fvcolorindex 109 109 109 
vt 0.334961 1.454102 0.0
vt -0.952148 0.125977 0.0
vt 0.315430 0.203125 0.0
f 178/1156 170/1157 176/1158
#fvcolorindex 109 109 109 
usemtl m58
vt -0.952148 0.125977 0.0
vt -0.994141 1.070312 0.0
vt -1.233398 1.111328 0.0
f 170/1159 180/1160 182/1161
#fvcolorindex 97 97 97 
usemtl m59
vt 0.320312 0.231445 0.0
vt -0.947266 0.154297 0.0
vt -0.989258 1.098633 0.0
f 177/1162 173/1163 181/1164
#fvcolorindex 81 81 81 
vt 0.320312 0.231445 0.0
vt -0.989258 1.098633 0.0
vt 0.339844 1.483398 0.0
f 177/1165 181/1166 179/1167
#fvcolorindex 81 81 81 
vt -1.227539 1.146484 0.0
vt -0.989258 1.098633 0.0
vt -0.947266 0.154297 0.0
f 183/1168 181/1169 173/1170
#fvcolorindex 81 81 81 
vt -1.644531 -0.017578 0.0
vt -1.644531 -1.687500 0.0
vt 0.395508 -1.687500 0.0
f 210/1171 207/1172 187/1173
#fvcolorindex 81 81 81 
vt -1.644531 -0.017578 0.0
vt 0.395508 -1.687500 0.0
vt 0.395508 -0.017578 0.0
f 210/1174 187/1175 282/1176
#fvcolorindex 81 81 81 
usemtl m60
vt -1.233398 1.111328 0.0
vt -1.651367 0.069336 0.0
vt -1.179688 0.058594 0.0
#vcolor 188.000000 188.000000 188.000000 255.000000
f 182/1177 184/1178 171/1179
#fvcolorindex 110 110 110 
vt -1.233398 1.111328 0.0
vt -1.179688 0.058594 0.0
vt -0.952148 0.125977 0.0
f 182/1180 171/1181 170/1182
#fvcolorindex 110 110 110 
usemtl m59
vt -0.947266 0.154297 0.0
vt -1.174805 0.087891 0.0
vt -1.646484 0.098633 0.0
f 173/1183 174/1184 192/1185
#fvcolorindex 81 81 81 
vt -0.947266 0.154297 0.0
vt -1.646484 0.098633 0.0
vt -1.227539 1.146484 0.0
f 173/1186 192/1187 183/1188
#fvcolorindex 81 81 81 
usemtl m61
vt -0.461914 2.167969 0.0
vt -0.002930 1.479492 0.0
vt 1.190430 1.476562 0.0
f 283/1189 289/1190 288/1191
#fvcolorindex 84 84 84 
vt -0.461914 2.167969 0.0
vt 1.190430 1.476562 0.0
vt 1.291992 2.163086 0.0
f 283/1192 288/1193 248/1194
#fvcolorindex 84 84 84 
usemtl m62
vt 3.701172 -0.315430 0.0
vt -0.335938 -0.354492 0.0
vt -0.359375 -1.043945 0.0
f 279/1195 274/1196 273/1197
#fvcolorindex 103 84 104 
vt 3.701172 -0.315430 0.0
vt -0.359375 -1.043945 0.0
vt 2.985352 -1.240234 0.0
f 279/1198 273/1199 276/1200
#fvcolorindex 103 104 103 
usemtl m63
vt 1.662109 -7.685547 0.0
vt 1.662109 -7.685547 0.0
vt 1.532227 1.576172 0.0
f 175/1201 168/1202 261/1203
#fvcolorindex 81 81 89 
vt 1.662109 -7.685547 0.0
vt 1.532227 1.576172 0.0
vt 1.532227 1.576172 0.0
f 175/1204 261/1205 262/1206
#fvcolorindex 81 89 81 
usemtl m64
vt 1.532227 1.576172 0.0
vt 1.662109 -7.685547 0.0
vt 0.936523 -7.789062 0.0
#vcolor 178.000000 178.000000 178.000000 255.000000
f 261/1207 168/1208 211/1209
#fvcolorindex 89 81 111 
usemtl m65
vt 0.653320 -2.779297 0.0
vt 1.532227 1.576172 0.0
vt 0.936523 -7.789062 0.0
f 249/1210 261/1211 211/1212
#fvcolorindex 102 89 111 
usemtl m66
vt 0.642578 2.039062 0.0
vt 1.532227 1.576172 0.0
vt 0.653320 -2.779297 0.0
#vcolor 212.000000 212.000000 212.000000 255.000000
f 250/1213 261/1214 249/1215
#fvcolorindex 112 89 102 
usemtl m63
vt 0.936523 -7.789062 0.0
vt 1.662109 -7.685547 0.0
vt 1.532227 1.576172 0.0
f 209/1216 175/1217 262/1218
#fvcolorindex 81 81 81 
vt 0.936523 -7.789062 0.0
vt 1.532227 1.576172 0.0
vt 0.653320 -2.779297 0.0
f 209/1219 262/1220 194/1221
#fvcolorindex 81 81 81 
vt 0.653320 -2.779297 0.0
vt 1.532227 1.576172 0.0
vt 0.642578 2.039062 0.0
f 194/1222 262/1223 195/1224
#fvcolorindex 81 81 81 
