# Created by SubDrag and the GoldenEye Setup Editor V4.4
mtllib Gun000A.mtl
#joint 0
#jointposition 0.000000 -20.375574 -74.143860
#joint 1
#jointposition -0.126130 -34.500000 -403.726105
#joint 2
#jointposition 0.000000 -20.375574 -74.143860
#joint 3
#jointposition 28.404760 -54.346611 -32.664295
#joint 4
#jointposition 50.075203 -78.841194 -10.664248
#joint 5
#jointposition 28.643808 -16.714527 20.778549
#joint 6
#jointposition 26.518341 -24.155291 60.154758
#joint 7
#jointposition 24.787155 -25.811726 87.094780
#joint 8
#jointposition 8.820322 -11.296313 21.695198
#joint 9
#jointposition 8.668717 -23.348385 71.418152
#joint 10
#jointposition 7.570724 -26.182207 98.349426
#joint 11
#jointposition -7.449821 -15.536673 21.601517
#joint 12
#jointposition -6.777197 -21.532187 62.353848
#joint 13
#jointposition -6.290760 -23.494061 85.077034
#joint 14
#jointposition -23.590879 -23.057791 21.828247
#joint 15
#jointposition -21.894306 -25.130569 56.929543
#joint 16
#jointposition -20.740978 -24.727604 74.077179
#joint 17
#jointposition 234.474915 -34.500000 -403.725983
#joint 18
#jointposition 234.348785 -20.375599 -74.143890
#joint 19
#jointposition 205.943985 -54.346600 -32.664291
#joint 20
#jointposition 184.273590 -78.841202 -10.664192
#joint 21
#jointposition 205.704987 -16.714600 20.778511
#joint 22
#jointposition 207.830490 -24.155300 60.154812
#joint 23
#jointposition 209.561584 -25.811800 87.094810
#joint 24
#jointposition 225.528473 -11.296299 21.695213
#joint 25
#jointposition 225.680069 -23.348400 71.418114
#joint 26
#jointposition 226.778076 -26.182199 98.349411
#joint 27
#jointposition 241.798599 -15.536699 21.601509
#joint 28
#jointposition 241.125977 -21.532200 62.353809
#joint 29
#jointposition 240.639542 -23.494101 85.077011
#joint 30
#jointposition 257.939697 -23.057798 21.828209
#joint 31
#jointposition 256.243103 -25.130598 56.929508
#joint 32
#jointposition 255.089798 -24.727598 74.077209
#joint 33
#jointposition 0.000000 -23.425575 244.206848
#joint 34
#jointposition 0.000000 1.802465 445.231262
#joint 35
#jointposition 0.000000 0.000000 480.539520
#joint 36
#jointposition 0.000000 0.000005 513.106995
#joint 37
#jointposition 12.071665 7.418474 240.027817
#joint 38
#jointposition 0.000000 0.545053 235.337708
#joint 39
#jointposition 244.250153 0.648785 235.353302
#connection 0 1
#connection 1 2
#connection 2 3
#connection 3 4
#connection 2 5
#connection 5 6
#connection 6 7
#connection 2 8
#connection 8 9
#connection 9 10
#connection 2 11
#connection 11 12
#connection 12 13
#connection 2 14
#connection 14 15
#connection 15 16
#connection 2 33
#connection 33 34
#connection 34 35
#connection 34 36
#connection 33 37
#connection 33 38
#connection 0 17
#connection 17 18
#connection 18 19
#connection 19 20
#connection 18 21
#connection 21 22
#connection 22 23
#connection 18 24
#connection 24 25
#connection 25 26
#connection 18 27
#connection 27 28
#connection 28 29
#connection 18 30
#connection 30 31
#connection 31 32
#connection 18 39
g Room02
g Room02_primary
usemtl m0TransparentCullBothClampSClampT
vt 0.000000 0.000000 0.0
vt 0.968750 0.000000 0.0
vt 0.968750 0.968750 0.0
v -71.000000 -70.999992 513.106995
#joint 36
#vjoint 1
#vcolor 177.000000 177.000000 177.000000 255.000000
v -71.000000 0.000005 513.106995
#joint 36
#vjoint 2
#vcolor 191.000000 191.000000 191.000000 255.000000
v 0.000000 0.000005 513.106995
#joint 36
#vjoint 3
f 1/1 2/2 3/3
#fvcolorindex 1 2 1 
vt 0.000000 0.000000 0.0
vt 0.968750 0.968750 0.0
vt 0.000000 0.968750 0.0
v 0.000000 -70.999992 513.106995
#joint 36
#vjoint 4
f 1/4 3/5 4/6
#fvcolorindex 1 1 1 
usemtl m1TransparentCullBothClampSClampT
vt 0.000000 0.000000 0.0
vt 0.000000 0.968750 0.0
vt 0.968750 0.968750 0.0
v -71.000000 71.000008 513.106995
#joint 36
#vjoint 5
#vcolor 240.000000 240.000000 240.000000 255.000000
v 0.000000 71.000008 513.106995
#joint 36
#vjoint 6
#vcolor 180.000000 180.000000 180.000000 255.000000
f 2/7 5/8 6/9
#fvcolorindex 2 3 4 
vt 0.000000 0.000000 0.0
vt 0.968750 0.968750 0.0
vt 0.968750 0.000000 0.0
f 2/10 6/11 3/12
#fvcolorindex 2 4 1 
usemtl m2TransparentCullBothClampSClampT
vt 0.000000 0.000000 0.0
vt 0.000000 0.968750 0.0
vt 0.968750 0.968750 0.0
v 71.000000 0.000005 513.106995
#joint 36
#vjoint 7
f 4/13 3/14 7/15
#fvcolorindex 1 1 1 
vt 0.000000 0.000000 0.0
vt 0.968750 0.968750 0.0
vt 0.968750 0.000000 0.0
v 71.000000 -70.999992 513.106995
#joint 36
#vjoint 8
f 4/16 7/17 8/18
#fvcolorindex 1 1 1 
usemtl m3TransparentCullBothClampSClampT
vt 0.000000 0.000000 0.0
vt 0.000000 0.968750 0.0
vt 0.968750 0.968750 0.0
v 71.000000 71.000008 513.106995
#joint 36
#vjoint 9
f 3/19 6/20 9/21
#fvcolorindex 1 4 1 
vt 0.000000 0.000000 0.0
vt 0.968750 0.968750 0.0
vt 0.968750 0.000000 0.0
f 3/22 9/23 7/24
#fvcolorindex 1 1 1 
usemtl m4TransparentCullBothClampSClampT
vt 0.000000 0.000000 0.0
vt 0.968750 0.000000 0.0
vt 0.968750 0.968750 0.0
v -71.000000 -71.000000 464.539520
#joint 35
#vjoint 10
v -71.000000 0.000000 464.539520
#joint 35
#vjoint 11
v 0.000000 0.000000 464.539520
#joint 35
#vjoint 12
f 10/25 11/26 12/27
#fvcolorindex 1 2 1 
vt 0.000000 0.000000 0.0
vt 0.968750 0.968750 0.0
vt 0.000000 0.968750 0.0
v 0.000000 -71.000000 464.539520
#joint 35
#vjoint 13
f 10/28 12/29 13/30
#fvcolorindex 1 1 1 
vt 0.000000 0.000000 0.0
vt 0.000000 0.968750 0.0
vt 0.968750 0.968750 0.0
v -64.000000 -64.000000 448.539520
#joint 35
#vjoint 14
v -64.000000 0.000000 448.539520
#joint 35
#vjoint 15
v 0.000000 0.000000 448.539520
#joint 35
#vjoint 16
f 14/31 15/32 16/33
#fvcolorindex 1 2 1 
vt 0.000000 0.000000 0.0
vt 0.968750 0.968750 0.0
vt 0.968750 0.000000 0.0
v 0.000000 -64.000000 448.539520
#joint 35
#vjoint 17
f 14/34 16/35 17/36
#fvcolorindex 1 1 1 
usemtl m5TransparentCullBothClampSClampT
vt 0.000000 0.000000 0.0
vt 0.000000 0.968750 0.0
vt 0.968750 0.968750 0.0
v -71.000000 71.000000 464.539520
#joint 35
#vjoint 18
v 0.000000 71.000000 464.539520
#joint 35
#vjoint 19
f 11/37 18/38 19/39
#fvcolorindex 2 3 4 
vt 0.000000 0.000000 0.0
vt 0.968750 0.968750 0.0
vt 0.968750 0.000000 0.0
f 11/40 19/41 12/42
#fvcolorindex 2 4 1 
vt 0.000000 0.000000 0.0
vt 0.000000 0.968750 0.0
vt 0.968750 0.968750 0.0
v -64.000000 64.000000 448.539520
#joint 35
#vjoint 20
v 0.000000 64.000000 448.539520
#joint 35
#vjoint 21
f 15/43 20/44 21/45
#fvcolorindex 2 3 4 
vt 0.000000 0.000000 0.0
vt 0.968750 0.968750 0.0
vt 0.968750 0.000000 0.0
f 15/46 21/47 16/48
#fvcolorindex 2 4 1 
usemtl m6TransparentCullBothClampSClampT
vt 0.000000 0.000000 0.0
vt 0.000000 0.968750 0.0
vt 0.968750 0.968750 0.0
v 71.000000 0.000000 464.539520
#joint 35
#vjoint 22
f 13/49 12/50 22/51
#fvcolorindex 1 1 1 
vt 0.000000 0.000000 0.0
vt 0.968750 0.968750 0.0
vt 0.968750 0.000000 0.0
v 71.000000 -71.000000 464.539520
#joint 35
#vjoint 23
f 13/52 22/53 23/54
#fvcolorindex 1 1 1 
vt 0.000000 0.000000 0.0
vt 0.000000 0.968750 0.0
vt 0.968750 0.968750 0.0
v 64.000000 0.000000 448.539520
#joint 35
#vjoint 24
f 17/55 16/56 24/57
#fvcolorindex 1 1 1 
vt 0.000000 0.000000 0.0
vt 0.968750 0.968750 0.0
vt 0.968750 0.000000 0.0
v 64.000000 -64.000000 448.539520
#joint 35
#vjoint 25
f 17/58 24/59 25/60
#fvcolorindex 1 1 1 
usemtl m7TransparentCullBothClampSClampT
vt 0.000000 0.000000 0.0
vt 0.000000 0.968750 0.0
vt 0.968750 0.968750 0.0
v 71.000000 71.000000 464.539520
#joint 35
#vjoint 26
f 12/61 19/62 26/63
#fvcolorindex 1 4 1 
vt 0.000000 0.000000 0.0
vt 0.968750 0.968750 0.0
vt 0.968750 0.000000 0.0
f 12/64 26/65 22/66
#fvcolorindex 1 1 1 
vt 0.000000 0.000000 0.0
vt 0.000000 0.968750 0.0
vt 0.968750 0.968750 0.0
v 64.000000 64.000000 448.539520
#joint 35
#vjoint 27
f 16/67 21/68 27/69
#fvcolorindex 1 4 1 
vt 0.000000 0.000000 0.0
vt 0.968750 0.968750 0.0
vt 0.968750 0.000000 0.0
f 16/70 27/71 24/72
#fvcolorindex 1 1 1 
g Room03
g Room03_primary
usemtl m8CullBothEnvMappingTexScaleS0.031250TexScaleT0.031250
vt 0.000000 0.000000 0.0
vt 0.000000 0.000000 0.0
vt 0.000000 0.000000 0.0
v -15.000000 1.574425 409.206848
#joint 33
#vjoint 28
#vcolor 190.000000 26.000000 104.000000 255.000000
v -15.000000 1.574425 445.206848
#joint 33
#vjoint 29
#vcolor 129.000000 0.000000 0.000000 255.000000
v -11.000000 11.574425 445.206848
#joint 33
#vjoint 30
#vcolor 167.000000 89.000000 0.000000 255.000000
vn 1.496063 0.204724 0.818898
vn 1.015748 0.000000 0.000000
vn 1.314961 0.700787 0.000000
f 28/73/1 29/74/2 30/75/3
#fvcolorindex 5 6 7 
vt 0.000000 0.000000 0.0
vt 0.000000 0.000000 0.0
vt 0.000000 0.000000 0.0
v -11.000000 11.574425 406.206848
#joint 33
#vjoint 31
#vcolor 200.000000 77.000000 83.000000 255.000000
vn 1.496063 0.204724 0.818898
vn 1.314961 0.700787 0.000000
vn 1.574803 0.606299 0.653543
f 28/76/4 30/77/5 31/78/6
#fvcolorindex 5 7 8 
usemtl m9CullBothEnvMappingTexScaleS0.031250TexScaleT0.031250
vt 0.000000 0.000000 0.0
vt 0.000000 0.000000 0.0
vt 0.000000 0.000000 0.0
v 0.000000 16.574425 445.206848
#joint 33
#vjoint 32
#vcolor 0.000000 127.000000 0.000000 255.000000
vn 1.574803 0.606299 0.653543
vn 1.314961 0.700787 0.000000
vn 0.000000 1.000000 0.000000
f 31/79/7 30/80/8 32/81/9
#fvcolorindex 8 7 9 
vt 0.000000 0.000000 0.0
vt 0.000000 0.000000 0.0
vt 0.000000 0.000000 0.0
v 0.000000 16.574425 405.206848
#joint 33
#vjoint 33
#vcolor 0.000000 93.000000 85.000000 255.000000
vn 1.574803 0.606299 0.653543
vn 0.000000 1.000000 0.000000
vn 0.000000 0.732283 0.669291
f 31/82/10 32/83/11 33/84/12
#fvcolorindex 8 9 10 
usemtl m10CullBothEnvMappingTexScaleS0.031250TexScaleT0.031250
vt 0.000000 0.000000 0.0
vt 0.000000 0.000000 0.0
vt 0.000000 0.000000 0.0
v 10.000000 11.574425 445.206848
#joint 33
#vjoint 34
#vcolor 89.000000 89.000000 0.000000 255.000000
vn 0.000000 0.732283 0.669291
vn 0.000000 1.000000 0.000000
vn 0.700787 0.700787 0.000000
f 33/85/13 32/86/14 34/87/15
#fvcolorindex 10 9 11 
vt 0.000000 0.000000 0.0
vt 0.000000 0.000000 0.0
vt 0.000000 0.000000 0.0
v 10.000000 11.574425 406.206848
#joint 33
#vjoint 35
#vcolor 56.000000 77.000000 83.000000 255.000000
vn 0.000000 0.732283 0.669291
vn 0.700787 0.700787 0.000000
vn 0.440945 0.606299 0.653543
f 33/88/16 34/89/17 35/90/18
#fvcolorindex 10 11 12 
usemtl m11CullBothEnvMappingTexScaleS0.031250TexScaleT0.031250
vt 0.000000 0.000000 0.0
vt 0.000000 0.000000 0.0
vt 0.000000 0.000000 0.0
v 15.000000 1.574425 445.206848
#joint 33
#vjoint 36
#vcolor 127.000000 0.000000 0.000000 255.000000
vn 0.440945 0.606299 0.653543
vn 0.700787 0.700787 0.000000
vn 1.000000 0.000000 0.000000
f 35/91/19 34/92/20 36/93/21
#fvcolorindex 12 11 13 
vt 0.000000 0.000000 0.0
vt 0.000000 0.000000 0.0
vt 0.000000 0.000000 0.0
v 15.000000 1.574425 409.206848
#joint 33
#vjoint 37
#vcolor 36.000000 43.000000 113.000000 255.000000
vn 0.440945 0.606299 0.653543
vn 1.000000 0.000000 0.000000
vn 0.283465 0.338583 0.889764
f 35/94/22 36/95/23 37/96/24
#fvcolorindex 12 13 14 
usemtl m12CullBothEnvMappingTexScaleS0.031250TexScaleT0.031250
vt 0.000000 0.000000 0.0
vt 0.000000 0.000000 0.0
vt 0.000000 0.000000 0.0
#vcolor 117.000000 208.000000 0.000000 255.000000
v 10.000000 -9.425575 445.206848
#joint 33
#vjoint 38
#vcolor 89.000000 167.000000 0.000000 255.000000
vn 0.921260 1.637795 0.000000
vn 1.000000 0.000000 0.000000
vn 0.700787 1.314961 0.000000
f 37/97/25 36/98/26 38/99/27
#fvcolorindex 15 13 16 
vt 0.000000 0.000000 0.0
vt 0.000000 0.000000 0.0
vt 0.000000 0.000000 0.0
v 10.000000 -9.425575 412.206848
#joint 33
#vjoint 39
vn 0.921260 1.637795 0.000000
vn 0.700787 1.314961 0.000000
vn 0.700787 1.314961 0.000000
f 37/100/28 38/101/29 39/102/30
#fvcolorindex 15 16 16 
usemtl m13CullBothEnvMappingTexScaleS0.031250TexScaleT0.031250
vt 0.000000 0.000000 0.0
vt 0.000000 0.000000 0.0
vt 0.000000 0.000000 0.0
v 0.000000 -13.425575 445.206848
#joint 33
#vjoint 40
#vcolor 0.000000 129.000000 0.000000 255.000000
vn 0.700787 1.314961 0.000000
vn 0.700787 1.314961 0.000000
vn 0.000000 1.015748 0.000000
f 39/103/31 38/104/32 40/105/33
#fvcolorindex 16 16 17 
vt 0.000000 0.000000 0.0
vt 0.000000 0.000000 0.0
vt 0.000000 0.000000 0.0
v 0.000000 -13.425575 413.206848
#joint 33
#vjoint 41
vn 0.700787 1.314961 0.000000
vn 0.000000 1.015748 0.000000
vn 0.000000 1.015748 0.000000
f 39/106/34 40/107/35 41/108/36
#fvcolorindex 16 17 17 
usemtl m14CullBothEnvMappingTexScaleS0.031250TexScaleT0.031250
vt 0.000000 0.000000 0.0
vt 0.000000 0.000000 0.0
vt 0.000000 0.000000 0.0
v -11.000000 -9.425575 445.206848
#joint 33
#vjoint 42
#vcolor 167.000000 167.000000 0.000000 255.000000
vn 0.000000 1.015748 0.000000
vn 0.000000 1.015748 0.000000
vn 1.314961 1.314961 0.000000
f 41/109/37 40/110/38 42/111/39
#fvcolorindex 17 17 18 
vt 0.000000 0.000000 0.0
vt 0.000000 0.000000 0.0
vt 0.000000 0.000000 0.0
v -11.000000 -9.425575 412.206848
#joint 33
#vjoint 43
vn 0.000000 1.015748 0.000000
vn 1.314961 1.314961 0.000000
vn 1.314961 1.314961 0.000000
f 41/112/40 42/113/41 43/114/42
#fvcolorindex 17 18 18 
usemtl m15CullBothEnvMappingTexScaleS0.031250TexScaleT0.031250
vt 0.000000 0.000000 0.0
vt 0.000000 0.000000 0.0
vt 0.000000 0.000000 0.0
vn 1.314961 1.314961 0.000000
vn 1.314961 1.314961 0.000000
vn 1.015748 0.000000 0.000000
f 43/115/43 42/116/44 29/117/45
#fvcolorindex 18 18 6 
vt 0.000000 0.000000 0.0
vt 0.000000 0.000000 0.0
vt 0.000000 0.000000 0.0
vn 1.314961 1.314961 0.000000
vn 1.015748 0.000000 0.000000
vn 1.496063 0.204724 0.818898
f 43/118/46 29/119/47 28/120/48
#fvcolorindex 18 6 5 
usemtl m16CullBothEnvMappingTexScaleS0.031250TexScaleT0.031250
vt 0.000000 0.000000 0.0
vt 0.000000 0.000000 0.0
vt 0.000000 0.000000 0.0
v 10.000000 -39.425575 332.206848
#joint 33
#vjoint 44
#vcolor 0.000000 167.000000 167.000000 255.000000
v 0.000000 -34.425575 326.206848
#joint 33
#vjoint 45
v 0.000000 -23.425575 315.206848
#joint 33
#vjoint 46
vn 0.000000 1.314961 1.314961
vn 0.000000 1.314961 1.314961
vn 0.000000 1.314961 1.314961
f 44/121/49 45/122/50 46/123/51
#fvcolorindex 19 19 19 
vt 0.000000 0.000000 0.0
vt 0.000000 0.000000 0.0
vt 0.000000 0.000000 0.0
v 20.000000 -23.425575 315.206848
#joint 33
#vjoint 47
vn 0.000000 1.314961 1.314961
vn 0.000000 1.314961 1.314961
vn 0.000000 1.314961 1.314961
f 44/124/52 46/125/53 47/126/54
#fvcolorindex 19 19 19 
vt 0.000000 0.000000 0.0
vt 0.000000 0.000000 0.0
vt 0.000000 0.000000 0.0
v -20.000000 -23.425575 315.206848
#joint 33
#vjoint 48
vn 0.000000 1.314961 1.314961
vn 0.000000 1.314961 1.314961
vn 0.000000 1.314961 1.314961
f 48/127/55 46/128/56 45/129/57
#fvcolorindex 19 19 19 
vt 0.000000 0.000000 0.0
vt 0.000000 0.000000 0.0
vt 0.000000 0.000000 0.0
v -10.000000 -39.425575 332.206848
#joint 33
#vjoint 49
vn 0.000000 1.314961 1.314961
vn 0.000000 1.314961 1.314961
vn 0.000000 1.314961 1.314961
f 48/130/58 45/131/59 49/132/60
#fvcolorindex 19 19 19 
usemtl m17CullBothEnvMappingTexScaleS0.031250TexScaleT0.031250
vt 0.000000 0.000000 0.0
vt 0.000000 0.000000 0.0
vt 0.000000 0.000000 0.0
v 20.000000 -23.425575 265.206848
#joint 33
#vjoint 50
#vcolor 126.000000 9.000000 255.000000 255.000000
v 20.000000 -33.425575 225.206848
#joint 33
#vjoint 51
#vcolor 121.000000 235.000000 228.000000 255.000000
v 18.000000 0.574425 265.206848
#joint 33
#vjoint 52
#vcolor 126.000000 5.000000 254.000000 255.000000
vn 0.992126 0.070866 2.007874
vn 0.952756 1.850394 1.795276
vn 0.992126 0.039370 2.000000
f 50/133/61 51/134/62 52/135/63
#fvcolorindex 20 21 22 
usemtl m18CullBothEnvMappingTexScaleS0.031250TexScaleT0.031250
vt 0.000000 0.000000 0.0
vt 0.000000 0.000000 0.0
vt 0.000000 0.000000 0.0
v 18.000000 0.574425 215.206848
#joint 33
#vjoint 53
#vcolor 126.000000 2.000000 2.000000 255.000000
vn 0.992126 0.039370 2.000000
vn 0.952756 1.850394 1.795276
vn 0.992126 0.015748 0.015748
f 52/136/64 51/137/65 53/138/66
#fvcolorindex 22 21 23 
usemtl m19CullBothEnvMappingTexScaleS0.031250TexScaleT0.031250
vt 0.000000 0.000000 0.0
vt 0.000000 0.000000 0.0
vt 0.000000 0.000000 0.0
#vcolor 126.000000 9.000000 9.000000 255.000000
v 20.000000 -23.425575 215.206848
#joint 33
#vjoint 54
#vcolor 118.000000 215.000000 238.000000 255.000000
vn 0.992126 0.015748 0.015748
vn 0.992126 0.070866 0.070866
vn 0.929134 1.692913 1.874016
f 53/139/67 51/140/68 54/141/69
#fvcolorindex 23 24 25 
vt 0.000000 0.000000 0.0
vt 0.000000 0.000000 0.0
vt 0.000000 0.000000 0.0
v 20.000000 -23.425575 145.206848
#joint 33
#vjoint 55
#vcolor 117.000000 239.000000 211.000000 255.000000
vn 0.992126 0.015748 0.015748
vn 0.929134 1.692913 1.874016
vn 0.921260 1.881890 1.661417
f 53/142/70 54/143/71 55/144/72
#fvcolorindex 23 25 26 
vt 0.000000 0.000000 0.0
vt 0.000000 0.000000 0.0
vt 0.000000 0.000000 0.0
v 20.000000 16.574425 145.206848
#joint 33
#vjoint 56
#vcolor 123.000000 251.000000 225.000000 255.000000
vn 0.992126 0.015748 0.015748
vn 0.921260 1.881890 1.661417
vn 0.968504 1.976378 1.771654
f 53/145/73 55/146/74 56/147/75
#fvcolorindex 23 26 27 
usemtl m20CullBothEnvMappingTexScaleS0.031250TexScaleT0.031250
vt 0.000000 0.000000 0.0
vt 0.000000 0.000000 0.0
vt 0.000000 0.000000 0.0
v 20.000000 16.574425 195.206848
#joint 33
#vjoint 57
#vcolor 119.000000 42.000000 0.000000 255.000000
vn 0.937008 0.330709 0.000000
vn 0.992126 0.015748 0.015748
vn 0.968504 1.976378 1.771654
f 57/148/76 53/149/77 56/150/78
#fvcolorindex 28 23 27 
usemtl m21CullBothEnvMappingTexScaleS0.031250TexScaleT0.031250
vt 0.000000 0.000000 0.0
vt 0.000000 0.000000 0.0
vt 0.000000 0.000000 0.0
#vcolor 125.000000 235.000000 254.000000 255.000000
vn 0.984252 1.850394 2.000000
vn 0.992126 0.070866 2.007874
vn 0.992126 0.039370 2.000000
f 47/151/79 50/152/80 52/153/81
#fvcolorindex 29 20 22 
usemtl m22CullBothEnvMappingTexScaleS0.031250TexScaleT0.031250
vt 0.000000 0.000000 0.0
vt 0.000000 0.000000 0.0
vt 0.000000 0.000000 0.0
v 20.000000 16.574425 285.206848
#joint 33
#vjoint 58
#vcolor 118.000000 46.000000 253.000000 255.000000
vn 0.929134 0.362205 1.992126
vn 0.984252 1.850394 2.000000
vn 0.992126 0.039370 2.000000
f 58/154/82 47/155/83 52/156/84
#fvcolorindex 30 29 22 
usemtl m23CullBothEnvMappingTexScaleS0.031250TexScaleT0.031250
vt 0.000000 0.000000 0.0
vt 0.000000 0.000000 0.0
vt 0.000000 0.000000 0.0
v 20.000000 -23.425575 415.206848
#joint 33
#vjoint 59
#vcolor 108.000000 191.000000 0.000000 255.000000
vn 0.850394 1.503937 0.000000
vn 0.850394 1.503937 0.000000
vn 0.984252 1.850394 2.000000
f 59/157/85 44/158/86 47/159/87
#fvcolorindex 31 31 29 
usemtl m24CullBothEnvMappingTexScaleS0.031250TexScaleT0.031250
vt 0.000000 0.000000 0.0
vt 0.000000 0.000000 0.0
vt 0.000000 0.000000 0.0
v 10.000000 -33.425575 215.206848
#joint 33
#vjoint 60
#vcolor 87.000000 169.000000 231.000000 255.000000
vn 0.929134 1.692913 1.874016
vn 0.952756 1.850394 1.795276
vn 0.685039 1.330709 1.818898
f 54/160/88 51/161/89 60/162/90
#fvcolorindex 25 21 32 
vt 0.000000 0.000000 0.0
vt 0.000000 0.000000 0.0
vt 0.000000 0.000000 0.0
vn 0.929134 1.692913 1.874016
vn 0.685039 1.330709 1.818898
vn 0.700787 1.314961 0.000000
f 54/163/91 60/164/92 55/165/93
#fvcolorindex 25 32 16 
usemtl m25CullBothEnvMappingTexScaleS0.031250TexScaleT0.031250
vt 0.000000 0.000000 0.0
vt 0.000000 0.000000 0.0
vt 0.000000 0.000000 0.0
v 10.000000 -33.425575 145.206848
#joint 33
#vjoint 61
#vcolor 60.000000 163.000000 196.000000 255.000000
vn 0.700787 1.314961 0.000000
vn 0.685039 1.330709 1.818898
vn 0.472441 1.283465 1.543307
f 55/166/94 60/167/95 61/168/96
#fvcolorindex 16 32 33 
usemtl m26CullBothEnvMappingTexScaleS0.031250TexScaleT0.031250
vt 0.000000 0.000000 0.0
vt 0.000000 0.000000 0.0
vt 0.000000 0.000000 0.0
v 10.000000 26.574425 135.206848
#joint 33
#vjoint 62
#vcolor 48.000000 0.000000 139.000000 255.000000
vn 0.377953 0.000000 1.094488
vn 0.968504 1.976378 1.771654
vn 0.921260 1.881890 1.661417
f 62/169/97 56/170/98 55/171/99
#fvcolorindex 34 27 26 
vt 0.000000 0.000000 0.0
vt 0.000000 0.000000 0.0
vt 0.000000 0.000000 0.0
v 10.000000 -23.425575 135.206848
#joint 33
#vjoint 63
#vcolor 46.000000 210.000000 148.000000 255.000000
vn 0.377953 0.000000 1.094488
vn 0.921260 1.881890 1.661417
vn 0.362205 1.653543 1.165354
f 62/172/100 55/173/101 63/174/102
#fvcolorindex 34 26 35 
usemtl m27CullBothEnvMappingTexScaleS0.031250TexScaleT0.031250
vt 0.000000 0.000000 0.0
vt 0.000000 0.000000 0.0
vt 0.000000 0.000000 0.0
v 10.000000 26.574425 195.206848
#joint 33
#vjoint 64
#vcolor 64.000000 109.000000 0.000000 255.000000
vn 0.503937 0.858268 0.000000
vn 0.937008 0.330709 0.000000
vn 0.700787 0.700787 0.000000
f 64/175/103 57/176/104 56/177/105
#fvcolorindex 36 28 11 
vt 0.000000 0.000000 0.0
vt 0.000000 0.000000 0.0
vt 0.000000 0.000000 0.0
#vcolor 49.000000 115.000000 239.000000 255.000000
vn 0.503937 0.858268 0.000000
vn 0.700787 0.700787 0.000000
vn 0.385827 0.905512 1.881890
f 64/178/106 56/179/107 62/180/108
#fvcolorindex 36 11 37 
vt 0.000000 0.000000 0.0
vt 0.000000 0.000000 0.0
vt 0.000000 0.000000 0.0
v 10.000000 26.574425 285.206848
#joint 33
#vjoint 65
v 10.000000 26.574425 395.206848
#joint 33
#vjoint 66
#vcolor 80.000000 95.000000 235.000000 255.000000
v 20.000000 16.574425 405.206848
#joint 33
#vjoint 67
vn 0.503937 0.858268 0.000000
vn 0.629921 0.748031 1.850394
vn 0.700787 0.700787 0.000000
f 65/181/109 66/182/110 67/183/111
#fvcolorindex 36 38 11 
vt 0.000000 0.000000 0.0
vt 0.000000 0.000000 0.0
vt 0.000000 0.000000 0.0
vn 0.503937 0.858268 0.000000
vn 0.700787 0.700787 0.000000
vn 0.929134 0.362205 1.992126
f 65/184/112 67/185/113 58/186/114
#fvcolorindex 36 11 30 
usemtl m28CullBothEnvMappingTexScaleS0.031250TexScaleT0.031250
vt 0.000000 0.000000 0.0
vt 0.000000 0.000000 0.0
vt 0.000000 0.000000 0.0
v 0.000000 30.574425 245.206848
#joint 33
#vjoint 68
#vcolor 10.000000 126.000000 0.000000 255.000000
v 0.000000 30.574425 385.206848
#joint 33
#vjoint 69
#vcolor 221.000000 119.000000 232.000000 255.000000
vn 0.078740 0.992126 0.000000
vn 1.740157 0.937008 1.826772
vn 0.629921 0.748031 1.850394
f 68/187/115 69/188/116 66/189/117
#fvcolorindex 39 40 38 
vt 0.000000 0.000000 0.0
vt 0.000000 0.000000 0.0
vt 0.000000 0.000000 0.0
vn 0.078740 0.992126 0.000000
vn 0.629921 0.748031 1.850394
vn 0.503937 0.858268 0.000000
f 68/190/118 66/191/119 65/192/120
#fvcolorindex 39 38 36 
usemtl m27CullBothEnvMappingTexScaleS0.031250TexScaleT0.031250
vt 0.000000 0.000000 0.0
vt 0.000000 0.000000 0.0
vt 0.000000 0.000000 0.0
v 0.000000 30.574425 145.206848
#joint 33
#vjoint 70
#vcolor 0.000000 125.000000 239.000000 255.000000
vn 0.503937 0.858268 0.000000
vn 0.385827 0.905512 1.881890
vn 0.000000 0.984252 1.881890
f 64/193/121 62/194/122 70/195/123
#fvcolorindex 36 37 41 
vt 0.000000 0.000000 0.0
vt 0.000000 0.000000 0.0
vt 0.000000 0.000000 0.0
vn 0.503937 0.858268 0.000000
vn 0.000000 0.984252 1.881890
vn 0.078740 0.992126 0.000000
f 64/196/124 70/197/125 68/198/126
#fvcolorindex 36 41 39 
vt 0.000000 0.000000 0.0
vt 0.000000 0.000000 0.0
vt 0.000000 0.000000 0.0
vn 0.503937 0.858268 0.000000
vn 0.078740 0.992126 0.000000
vn 0.503937 0.858268 0.000000
f 64/199/127 68/200/128 65/201/129
#fvcolorindex 36 39 36 
usemtl m26CullBothEnvMappingTexScaleS0.031250TexScaleT0.031250
vt 0.000000 0.000000 0.0
vt 0.000000 0.000000 0.0
vt 0.000000 0.000000 0.0
v -10.000000 -23.425575 135.206848
#joint 33
#vjoint 71
#vcolor 210.000000 210.000000 148.000000 255.000000
vn 0.377953 0.000000 1.094488
vn 0.362205 1.653543 1.165354
vn 1.653543 1.653543 1.165354
f 62/202/130 63/203/131 71/204/132
#fvcolorindex 34 35 42 
vt 0.000000 0.000000 0.0
vt 0.000000 0.000000 0.0
vt 0.000000 0.000000 0.0
v -10.000000 26.574425 135.206848
#joint 33
#vjoint 72
#vcolor 208.000000 0.000000 139.000000 255.000000
vn 0.377953 0.000000 1.094488
vn 1.653543 1.653543 1.165354
vn 1.637795 0.000000 1.094488
f 62/205/133 71/206/134 72/207/135
#fvcolorindex 34 42 43 
usemtl m29CullBothEnvMappingTexScaleS0.031250TexScaleT0.031250
vt 0.000000 0.000000 0.0
vt 0.000000 0.000000 0.0
vt 0.000000 0.000000 0.0
v -20.000000 -23.425575 145.206848
#joint 33
#vjoint 73
#vcolor 167.000000 0.000000 167.000000 255.000000
vn 1.637795 0.000000 1.094488
vn 1.653543 1.653543 1.165354
vn 1.314961 0.000000 1.314961
f 72/208/136 71/209/137 73/210/138
#fvcolorindex 43 42 44 
vt 0.000000 0.000000 0.0
vt 0.000000 0.000000 0.0
vt 0.000000 0.000000 0.0
v -20.000000 16.574425 145.206848
#joint 33
#vjoint 74
#vcolor 135.000000 25.000000 231.000000 255.000000
vn 1.637795 0.000000 1.094488
vn 1.314961 0.000000 1.314961
vn 1.062992 0.196850 1.818898
f 72/211/139 73/212/140 74/213/141
#fvcolorindex 43 44 45 
usemtl m30CullBothEnvMappingTexScaleS0.031250TexScaleT0.031250
vt 0.000000 0.000000 0.0
vt 0.000000 0.000000 0.0
vt 0.000000 0.000000 0.0
#vcolor 207.000000 115.000000 239.000000 255.000000
vn 0.000000 0.984252 1.881890
vn 0.385827 0.905512 1.881890
vn 1.629921 0.905512 1.881890
f 70/214/142 62/215/143 72/216/144
#fvcolorindex 41 37 46 
usemtl m31CullBothEnvMappingTexScaleS0.031250TexScaleT0.031250
vt 0.000000 0.000000 0.0
vt 0.000000 0.000000 0.0
vt 0.000000 0.000000 0.0
v -10.000000 26.574425 245.206848
#joint 33
#vjoint 75
#vcolor 185.000000 105.000000 0.000000 255.000000
vn 1.456693 0.826772 0.000000
vn 0.078740 0.992126 0.000000
vn 0.000000 0.984252 1.881890
f 75/217/145 68/218/146 70/219/147
#fvcolorindex 47 39 41 
vt 0.000000 0.000000 0.0
vt 0.000000 0.000000 0.0
vt 0.000000 0.000000 0.0
vn 1.456693 0.826772 0.000000
vn 0.000000 0.984252 1.881890
vn 1.629921 0.905512 1.881890
f 75/220/148 70/221/149 72/222/150
#fvcolorindex 47 41 46 
vt 0.000000 0.000000 0.0
vt 0.000000 0.000000 0.0
vt 0.000000 0.000000 0.0
v -10.000000 26.574425 395.206848
#joint 33
#vjoint 76
#vcolor 176.000000 95.000000 235.000000 255.000000
vn 1.456693 0.826772 0.000000
vn 1.385827 0.748031 1.850394
vn 1.740157 0.937008 1.826772
f 75/223/151 76/224/152 69/225/153
#fvcolorindex 47 48 40 
vt 0.000000 0.000000 0.0
vt 0.000000 0.000000 0.0
vt 0.000000 0.000000 0.0
vn 1.456693 0.826772 0.000000
vn 1.740157 0.937008 1.826772
vn 0.078740 0.992126 0.000000
f 75/226/154 69/227/155 68/228/156
#fvcolorindex 47 40 39 
usemtl m32CullBothEnvMappingTexScaleS0.031250TexScaleT0.031250
vt 0.000000 0.000000 0.0
vt 0.000000 0.000000 0.0
vt 0.000000 0.000000 0.0
v -10.000000 -33.425575 145.206848
#joint 33
#vjoint 77
#vcolor 196.000000 163.000000 196.000000 255.000000
v -10.000000 -33.425575 215.206848
#joint 33
#vjoint 78
#vcolor 169.000000 169.000000 231.000000 255.000000
#vcolor 152.000000 187.000000 236.000000 255.000000
vn 1.543307 1.283465 1.543307
vn 1.330709 1.330709 1.818898
vn 1.196850 1.472441 1.858268
f 77/229/157 78/230/158 73/231/159
#fvcolorindex 49 50 51 
usemtl m33CullBothEnvMappingTexScaleS0.031250TexScaleT0.031250
vt 0.000000 0.000000 0.0
vt 0.000000 0.000000 0.0
vt 0.000000 0.000000 0.0
v -20.000000 -23.425575 215.206848
#joint 33
#vjoint 79
#vcolor 136.000000 220.000000 240.000000 255.000000
vn 1.196850 1.472441 1.858268
vn 1.330709 1.330709 1.818898
vn 1.070866 1.732283 1.889764
f 73/232/160 78/233/161 79/234/162
#fvcolorindex 51 50 52 
usemtl m34CullBothEnvMappingTexScaleS0.031250TexScaleT0.031250
vt 0.000000 0.000000 0.0
vt 0.000000 0.000000 0.0
vt 0.000000 0.000000 0.0
v -20.000000 -33.425575 225.206848
#joint 33
#vjoint 80
#vcolor 135.000000 229.000000 229.000000 255.000000
vn 1.070866 1.732283 1.889764
vn 1.330709 1.330709 1.818898
vn 1.062992 1.803150 1.803150
f 79/235/163 78/236/164 80/237/165
#fvcolorindex 52 50 53 
usemtl m35CullBothEnvMappingTexScaleS0.031250TexScaleT0.031250
vt 0.000000 0.000000 0.0
vt 0.000000 0.000000 0.0
vt 0.000000 0.000000 0.0
vn 1.062992 0.196850 1.818898
vn 1.196850 1.472441 1.858268
vn 1.070866 1.732283 1.889764
f 74/238/166 73/239/167 79/240/168
#fvcolorindex 45 51 52 
vt 0.000000 0.000000 0.0
vt 0.000000 0.000000 0.0
vt 0.000000 0.000000 0.0
v -20.000000 16.574425 285.206848
#joint 33
#vjoint 81
#vcolor 134.000000 32.000000 0.000000 255.000000
vn 1.062992 0.196850 1.818898
vn 1.070866 1.732283 1.889764
vn 1.055118 0.251969 0.000000
f 74/241/169 79/242/170 81/243/171
#fvcolorindex 45 52 54 
usemtl m34CullBothEnvMappingTexScaleS0.031250TexScaleT0.031250
vt 0.000000 0.000000 0.0
vt 0.000000 0.000000 0.0
vt 0.000000 0.000000 0.0
vn 1.070866 1.732283 1.889764
vn 1.062992 1.803150 1.803150
vn 1.055118 0.251969 0.000000
f 79/244/172 80/245/173 81/246/174
#fvcolorindex 52 53 54 
usemtl m36CullBothEnvMappingTexScaleS0.031250TexScaleT0.031250
vt 0.000000 0.000000 0.0
vt 0.000000 0.000000 0.0
vt 0.000000 0.000000 0.0
v -20.000000 -23.425575 265.206848
#joint 33
#vjoint 82
vn 1.055118 0.251969 0.000000
vn 1.062992 1.803150 1.803150
vn 1.015748 0.000000 0.000000
f 81/247/175 80/248/176 82/249/177
#fvcolorindex 54 53 6 
vt 0.000000 0.000000 0.0
vt 0.000000 0.000000 0.0
vt 0.000000 0.000000 0.0
#vcolor 134.000000 222.000000 0.000000 255.000000
vn 1.055118 0.251969 0.000000
vn 1.015748 0.000000 0.000000
vn 1.055118 1.748031 0.000000
f 81/250/178 82/251/179 48/252/180
#fvcolorindex 54 6 55 
usemtl m37CullBothEnvMappingTexScaleS0.031250TexScaleT0.031250
vt 0.000000 0.000000 0.0
vt 0.000000 0.000000 0.0
vt 0.000000 0.000000 0.0
v -20.000000 -23.425575 415.206848
#joint 33
#vjoint 83
#vcolor 148.000000 191.000000 0.000000 255.000000
vn 1.165354 1.503937 0.000000
vn 1.055118 1.748031 0.000000
vn 1.165354 1.503937 0.000000
f 83/253/181 48/254/182 49/255/183
#fvcolorindex 56 55 56 
usemtl m36CullBothEnvMappingTexScaleS0.031250TexScaleT0.031250
vt 0.000000 0.000000 0.0
vt 0.000000 0.000000 0.0
vt 0.000000 0.000000 0.0
vn 1.055118 0.251969 0.000000
vn 1.456693 0.826772 0.000000
vn 1.629921 0.905512 1.881890
f 81/256/184 75/257/185 72/258/186
#fvcolorindex 54 47 46 
vt 0.000000 0.000000 0.0
vt 0.000000 0.000000 0.0
vt 0.000000 0.000000 0.0
vn 1.055118 0.251969 0.000000
vn 1.629921 0.905512 1.881890
vn 1.062992 0.196850 1.818898
f 81/259/187 72/260/188 74/261/189
#fvcolorindex 54 46 45 
usemtl m38CullBothEnvMappingTexScaleS0.031250TexScaleT0.031250
vt 0.000000 0.000000 0.0
vt 0.000000 0.000000 0.0
vt 0.000000 0.000000 0.0
v -20.000000 16.574425 405.206848
#joint 33
#vjoint 84
vn 1.314961 0.700787 0.000000
vn 1.385827 0.748031 1.850394
vn 1.456693 0.826772 0.000000
f 84/262/190 76/263/191 75/264/192
#fvcolorindex 7 48 47 
vt 0.000000 0.000000 0.0
vt 0.000000 0.000000 0.0
vt 0.000000 0.000000 0.0
vn 1.314961 0.700787 0.000000
vn 1.456693 0.826772 0.000000
vn 1.055118 0.251969 0.000000
f 84/265/193 75/266/194 81/267/195
#fvcolorindex 7 47 54 
usemtl m39CullBothEnvMappingTexScaleS0.031250TexScaleT0.031250
vt 0.000000 0.000000 0.0
vt 0.000000 0.000000 0.0
vt 0.000000 0.000000 0.0
vn 0.362205 1.653543 1.165354
vn 0.472441 1.283465 1.543307
vn 1.543307 1.283465 1.543307
f 63/268/196 61/269/197 77/270/198
#fvcolorindex 35 33 49 
vt 0.000000 0.000000 0.0
vt 0.000000 0.000000 0.0
vt 0.000000 0.000000 0.0
vn 0.362205 1.653543 1.165354
vn 1.543307 1.283465 1.543307
vn 1.653543 1.653543 1.165354
f 63/271/199 77/272/200 71/273/201
#fvcolorindex 35 49 42 
usemtl m40CullBothEnvMappingTexScaleS0.031250TexScaleT0.031250
vt 0.000000 0.000000 0.0
vt 0.000000 0.000000 0.0
vt 0.000000 0.000000 0.0
vn 1.653543 1.653543 1.165354
vn 1.543307 1.283465 1.543307
vn 1.196850 1.472441 1.858268
f 71/274/202 77/275/203 73/276/204
#fvcolorindex 42 49 51 
usemtl m41CullBothEnvMappingTexScaleS0.031250TexScaleT0.031250
vt 0.000000 0.000000 0.0
vt 0.000000 0.000000 0.0
vt 0.000000 0.000000 0.0
vn 0.921260 1.881890 1.661417
vn 0.472441 1.283465 1.543307
vn 0.362205 1.653543 1.165354
f 55/277/205 61/278/206 63/279/207
#fvcolorindex 26 33 35 
usemtl m42CullBothEnvMappingTexScaleS0.031250TexScaleT0.031250
vt 0.000000 0.000000 0.0
vt 0.000000 0.000000 0.0
vt 0.000000 0.000000 0.0
v 0.000000 39.574425 395.206848
#joint 33
#vjoint 85
#vcolor 167.000000 67.000000 196.000000 255.000000
vn 1.314961 0.527559 1.543307
vn 1.740157 0.937008 1.826772
vn 1.385827 0.748031 1.850394
f 85/280/208 69/281/209 76/282/210
#fvcolorindex 57 40 48 
usemtl m43CullBothEnvMappingTexScaleS0.031250TexScaleT0.031250
vt 0.000000 0.000000 0.0
vt 0.000000 0.000000 0.0
vt 0.000000 0.000000 0.0
#vcolor 89.000000 67.000000 196.000000 255.000000
vn 0.629921 0.748031 1.850394
vn 0.700787 0.527559 1.543307
vn 0.700787 0.527559 1.543307
f 66/283/211 69/284/212 85/285/213
#fvcolorindex 38 58 58 
usemtl m44CullBothEnvMappingTexScaleS0.031250TexScaleT0.031250
vt 0.000000 0.000000 0.0
vt 0.000000 0.000000 0.0
vt 0.000000 0.000000 0.0
#vcolor 108.000000 60.000000 25.000000 255.000000
v 9.000000 12.574425 215.206848
#joint 33
#vjoint 86
#vcolor 113.000000 51.000000 24.000000 255.000000
v 15.000000 6.574425 215.206848
#joint 33
#vjoint 87
#vcolor 0.000000 0.000000 0.000000 255.000000
vn 0.850394 0.472441 0.196850
vn 0.889764 0.401575 0.188976
vn 0.000000 0.000000 0.000000
f 57/286/214 86/287/215 87/288/216
#fvcolorindex 59 60 61 
usemtl m45CullBothEnvMappingTexScaleS0.031250TexScaleT0.031250
vt 0.000000 0.000000 0.0
vt 0.000000 0.000000 0.0
vt 0.000000 0.000000 0.0
#vcolor 125.000000 16.000000 7.000000 255.000000
vn 0.984252 0.125984 0.055118
vn 0.850394 0.472441 0.196850
vn 0.000000 0.000000 0.000000
f 53/289/217 57/290/218 87/291/219
#fvcolorindex 62 59 61 
usemtl m46CullBothEnvMappingTexScaleS0.031250TexScaleT0.031250
vt 0.000000 0.000000 0.0
vt 0.000000 0.000000 0.0
vt 0.000000 0.000000 0.0
#vcolor 88.000000 90.000000 9.000000 255.000000
vn 0.889764 0.401575 0.188976
vn 0.850394 0.472441 0.196850
vn 0.692913 0.708661 0.070866
f 86/292/220 57/293/221 64/294/222
#fvcolorindex 60 59 63 
usemtl m47CullBothEnvMappingTexScaleS0.031250TexScaleT0.031250
vt 0.000000 0.000000 0.0
vt 0.000000 0.000000 0.0
vt 0.000000 0.000000 0.0
v 9.000000 12.574425 265.206848
#joint 33
#vjoint 88
#vcolor 113.000000 51.000000 232.000000 255.000000
#vcolor 115.000000 49.000000 236.000000 255.000000
v 15.000000 6.574425 265.206848
#joint 33
#vjoint 89
vn 0.889764 0.401575 1.826772
vn 0.905512 0.385827 1.858268
vn 0.000000 0.000000 0.000000
f 88/295/223 58/296/224 89/297/225
#fvcolorindex 64 65 61 
usemtl m48CullBothEnvMappingTexScaleS0.031250TexScaleT0.031250
vt 0.000000 0.000000 0.0
vt 0.000000 0.000000 0.0
vt 0.000000 0.000000 0.0
#vcolor 125.000000 18.000000 248.000000 255.000000
vn 0.905512 0.385827 1.858268
vn 0.984252 0.141732 1.952756
vn 0.000000 0.000000 0.000000
f 58/298/226 52/299/227 89/300/228
#fvcolorindex 65 66 61 
usemtl m49CullBothEnvMappingTexScaleS0.031250TexScaleT0.031250
vt 0.000000 0.000000 0.0
vt 0.000000 0.000000 0.0
vt 0.000000 0.000000 0.0
#vcolor 88.000000 90.000000 247.000000 255.000000
vn 0.692913 0.708661 1.944882
vn 0.905512 0.385827 1.858268
vn 0.889764 0.401575 1.826772
f 65/301/229 58/302/230 88/303/231
#fvcolorindex 67 65 64 
usemtl m50CullBothEnvMappingTexScaleS0.031250TexScaleT0.031250
vt 0.000000 0.000000 0.0
vt 0.000000 0.000000 0.0
vt 0.000000 0.000000 0.0
vn 0.692913 0.708661 0.070866
vn 0.692913 0.708661 1.944882
vn 0.889764 0.401575 1.826772
f 64/304/232 65/305/233 88/306/234
#fvcolorindex 63 67 64 
vt 0.000000 0.000000 0.0
vt 0.000000 0.000000 0.0
vt 0.000000 0.000000 0.0
vn 0.692913 0.708661 0.070866
vn 0.889764 0.401575 1.826772
vn 0.889764 0.401575 0.188976
f 64/307/235 88/308/236 86/309/237
#fvcolorindex 63 64 60 
usemtl m51CullBothEnvMappingTexScaleS0.031250TexScaleT0.031250
vt 0.000000 0.000000 0.0
vt 0.000000 0.000000 0.0
vt 0.000000 0.000000 0.0
#vcolor 70.000000 46.000000 162.000000 255.000000
v 10.000000 -63.425575 320.206848
#joint 33
#vjoint 90
#vcolor 75.000000 87.000000 203.000000 255.000000
v 0.000000 -57.425575 315.206848
#joint 33
#vjoint 91
#vcolor 0.000000 108.000000 191.000000 255.000000
vn 0.551181 0.362205 1.275591
vn 0.590551 0.685039 1.598425
vn 0.000000 0.850394 1.503937
f 44/310/238 90/311/239 91/312/240
#fvcolorindex 68 69 70 
vt 0.000000 0.000000 0.0
vt 0.000000 0.000000 0.0
vt 0.000000 0.000000 0.0
#vcolor 0.000000 228.000000 133.000000 255.000000
vn 0.551181 0.362205 1.275591
vn 0.000000 0.850394 1.503937
vn 0.000000 1.795276 1.047244
f 44/313/241 91/314/242 45/315/243
#fvcolorindex 68 70 71 
usemtl m52CullBothEnvMappingTexScaleS0.031250TexScaleT0.031250
vt 0.000000 0.000000 0.0
vt 0.000000 0.000000 0.0
vt 0.000000 0.000000 0.0
#vcolor 191.000000 149.000000 241.000000 255.000000
vn 1.503937 1.173228 1.897638
vn 0.000000 1.795276 1.047244
vn 0.000000 0.850394 1.503937
f 49/316/244 45/317/245 91/318/246
#fvcolorindex 72 71 70 
vt 0.000000 0.000000 0.0
vt 0.000000 0.000000 0.0
vt 0.000000 0.000000 0.0
v -10.000000 -63.425575 320.206848
#joint 33
#vjoint 92
#vcolor 181.000000 87.000000 203.000000 255.000000
vn 1.503937 1.173228 1.897638
vn 0.000000 0.850394 1.503937
vn 1.425197 0.685039 1.598425
f 49/319/247 91/320/248 92/321/249
#fvcolorindex 72 70 73 
usemtl m53CullBothEnvMappingTexScaleS0.031250TexScaleT0.031250
vt 0.000000 0.000000 0.0
vt 0.000000 0.000000 0.0
vt 0.000000 0.000000 0.0
v 0.000000 -57.425575 275.206848
#joint 33
#vjoint 93
#vcolor 237.000000 116.000000 45.000000 255.000000
v -10.000000 -63.425575 275.206848
#joint 33
#vjoint 94
#vcolor 173.000000 77.000000 56.000000 255.000000
vn 0.000000 0.850394 1.503937
vn 1.866142 0.913386 0.354331
vn 1.362205 0.606299 0.440945
f 91/322/250 93/323/251 94/324/252
#fvcolorindex 70 74 75 
vt 0.000000 0.000000 0.0
vt 0.000000 0.000000 0.0
vt 0.000000 0.000000 0.0
vn 0.000000 0.850394 1.503937
vn 1.362205 0.606299 0.440945
vn 1.425197 0.685039 1.598425
f 91/325/253 94/326/254 92/327/255
#fvcolorindex 70 75 73 
usemtl m54CullBothEnvMappingTexScaleS0.031250TexScaleT0.031250
vt 0.000000 0.000000 0.0
vt 0.000000 0.000000 0.0
vt 0.000000 0.000000 0.0
v 10.000000 -63.425575 275.206848
#joint 33
#vjoint 95
#vcolor 63.000000 108.000000 16.000000 255.000000
vn 0.496063 0.850394 0.125984
vn 1.866142 0.913386 0.354331
vn 0.000000 0.850394 1.503937
f 95/328/256 93/329/257 91/330/258
#fvcolorindex 76 74 70 
vt 0.000000 0.000000 0.0
vt 0.000000 0.000000 0.0
vt 0.000000 0.000000 0.0
vn 0.496063 0.850394 0.125984
vn 0.000000 0.850394 1.503937
vn 0.590551 0.685039 1.598425
f 95/331/259 91/332/260 90/333/261
#fvcolorindex 76 70 69 
usemtl m55CullBothEnvMappingTexScaleS0.031250TexScaleT0.031250
vt 0.000000 0.000000 0.0
vt 0.000000 0.000000 0.0
vt 0.000000 0.000000 0.0
v -15.000000 -63.425575 265.206848
#joint 33
#vjoint 96
#vcolor 145.000000 17.000000 58.000000 255.000000
vn 1.866142 0.913386 0.354331
vn 1.141732 0.133858 0.456693
vn 1.362205 0.606299 0.440945
f 93/334/262 96/335/263 94/336/264
#fvcolorindex 74 77 75 
usemtl m56CullBothEnvMappingTexScaleS0.031250TexScaleT0.031250
vt 0.000000 0.000000 0.0
vt 0.000000 0.000000 0.0
vt 0.000000 0.000000 0.0
v 15.000000 -63.425575 265.206848
#joint 33
#vjoint 97
#vcolor 110.000000 17.000000 59.000000 255.000000
vn 0.866142 0.133858 0.464567
vn 1.866142 0.913386 0.354331
vn 0.496063 0.850394 0.125984
f 97/337/265 93/338/266 95/339/267
#fvcolorindex 78 74 76 
usemtl m57CullBothEnvMappingTexScaleS0.031250TexScaleT0.031250
vt 0.000000 0.000000 0.0
vt 0.000000 0.000000 0.0
vt 0.000000 0.000000 0.0
v 0.000000 -23.425575 275.206848
#joint 33
#vjoint 98
#vcolor 0.000000 241.000000 126.000000 255.000000
#vcolor 69.000000 0.000000 106.000000 255.000000
vn 0.000000 1.897638 0.992126
vn 0.543307 0.000000 0.834646
vn 0.866142 0.133858 0.464567
f 98/340/268 93/341/269 97/342/270
#fvcolorindex 79 80 78 
vt 0.000000 0.000000 0.0
vt 0.000000 0.000000 0.0
vt 0.000000 0.000000 0.0
v 15.000000 -33.425575 265.206848
#joint 33
#vjoint 99
#vcolor 105.000000 233.000000 66.000000 255.000000
vn 0.000000 1.897638 0.992126
vn 0.866142 0.133858 0.464567
vn 0.826772 1.834646 0.519685
f 98/343/271 97/344/272 99/345/273
#fvcolorindex 79 78 81 
usemtl m58CullBothEnvMappingTexScaleS0.031250TexScaleT0.031250
vt 0.000000 0.000000 0.0
vt 0.000000 0.000000 0.0
vt 0.000000 0.000000 0.0
v -15.000000 -33.425575 265.206848
#joint 33
#vjoint 100
#vcolor 151.000000 232.000000 66.000000 255.000000
v -15.000000 -43.425575 225.206848
#joint 33
#vjoint 101
#vcolor 137.000000 229.000000 222.000000 255.000000
vn 1.141732 0.133858 0.456693
vn 1.188976 1.826772 0.519685
vn 1.078740 1.803150 1.748031
f 96/346/274 100/347/275 101/348/276
#fvcolorindex 77 82 83 
vt 0.000000 0.000000 0.0
vt 0.000000 0.000000 0.0
vt 0.000000 0.000000 0.0
v -15.000000 -53.425575 225.206848
#joint 33
#vjoint 102
#vcolor 131.000000 1.000000 235.000000 255.000000
vn 1.141732 0.133858 0.456693
vn 1.078740 1.803150 1.748031
vn 1.031496 0.007874 1.850394
f 96/349/277 101/350/278 102/351/279
#fvcolorindex 77 83 84 
usemtl m59CullBothEnvMappingTexScaleS0.031250TexScaleT0.031250
vt 0.000000 0.000000 0.0
vt 0.000000 0.000000 0.0
vt 0.000000 0.000000 0.0
v 15.000000 -53.425575 225.206848
#joint 33
#vjoint 103
#vcolor 124.000000 2.000000 233.000000 255.000000
vn 0.826772 1.834646 0.519685
vn 0.866142 0.133858 0.464567
vn 0.976378 0.015748 1.834646
f 99/352/280 97/353/281 103/354/282
#fvcolorindex 81 78 85 
vt 0.000000 0.000000 0.0
vt 0.000000 0.000000 0.0
vt 0.000000 0.000000 0.0
v 15.000000 -43.425575 225.206848
#joint 33
#vjoint 104
#vcolor 119.000000 231.000000 221.000000 255.000000
vn 0.826772 1.834646 0.519685
vn 0.976378 0.015748 1.834646
vn 0.937008 1.818898 1.740157
f 99/355/283 103/356/284 104/357/285
#fvcolorindex 81 85 86 
usemtl m60CullBothEnvMappingTexScaleS0.031250TexScaleT0.031250
vt 0.000000 0.000000 0.0
vt 0.000000 0.000000 0.0
vt 0.000000 0.000000 0.0
v -15.000000 -93.425575 255.206848
#joint 33
#vjoint 105
#vcolor 144.000000 247.000000 58.000000 255.000000
vn 1.362205 0.606299 0.440945
vn 1.141732 0.133858 0.456693
vn 1.133858 1.944882 0.456693
f 94/358/286 96/359/287 105/360/288
#fvcolorindex 75 77 87 
vt 0.000000 0.000000 0.0
vt 0.000000 0.000000 0.0
vt 0.000000 0.000000 0.0
v 0.000000 -93.425575 265.206848
#joint 33
#vjoint 106
#vcolor 0.000000 231.000000 124.000000 255.000000
vn 1.362205 0.606299 0.440945
vn 1.133858 1.944882 0.456693
vn 0.000000 1.818898 0.976378
f 94/361/289 105/362/290 106/363/291
#fvcolorindex 75 87 88 
usemtl m61CullBothEnvMappingTexScaleS0.031250TexScaleT0.031250
vt 0.000000 0.000000 0.0
vt 0.000000 0.000000 0.0
vt 0.000000 0.000000 0.0
v 0.000000 -133.425568 265.206848
#joint 33
#vjoint 107
#vcolor 0.000000 0.000000 126.000000 255.000000
vn 0.000000 0.000000 0.992126
vn 0.000000 1.818898 0.976378
vn 1.133858 1.944882 0.456693
f 107/364/292 106/365/293 105/366/294
#fvcolorindex 89 88 87 
vt 0.000000 0.000000 0.0
vt 0.000000 0.000000 0.0
vt 0.000000 0.000000 0.0
v -15.000000 -133.425568 255.206848
#joint 33
#vjoint 108
#vcolor 144.000000 0.000000 59.000000 255.000000
vn 0.000000 0.000000 0.992126
vn 1.133858 1.944882 0.456693
vn 1.133858 0.000000 0.464567
f 107/367/295 105/368/296 108/369/297
#fvcolorindex 89 87 90 
usemtl m58CullBothEnvMappingTexScaleS0.031250TexScaleT0.031250
vt 0.000000 0.000000 0.0
vt 0.000000 0.000000 0.0
vt 0.000000 0.000000 0.0
v -15.000000 -93.425575 225.206848
#joint 33
#vjoint 109
#vcolor 130.000000 1.000000 241.000000 255.000000
vn 1.141732 0.133858 0.456693
vn 1.031496 0.007874 1.850394
vn 1.023622 0.007874 1.897638
f 96/370/298 102/371/299 109/372/300
#fvcolorindex 77 84 91 
vt 0.000000 0.000000 0.0
vt 0.000000 0.000000 0.0
vt 0.000000 0.000000 0.0
vn 1.141732 0.133858 0.456693
vn 1.023622 0.007874 1.897638
vn 1.133858 1.944882 0.456693
f 96/373/301 109/374/302 105/375/303
#fvcolorindex 77 91 87 
usemtl m62CullBothEnvMappingTexScaleS0.031250TexScaleT0.031250
vt 0.000000 0.000000 0.0
vt 0.000000 0.000000 0.0
vt 0.000000 0.000000 0.0
v -15.000000 -133.425568 225.206848
#joint 33
#vjoint 110
#vcolor 130.000000 0.000000 241.000000 255.000000
vn 1.023622 0.007874 1.897638
vn 1.023622 0.000000 1.897638
vn 1.133858 0.000000 0.464567
f 109/376/304 110/377/305 108/378/306
#fvcolorindex 91 92 90 
vt 0.000000 0.000000 0.0
vt 0.000000 0.000000 0.0
vt 0.000000 0.000000 0.0
vn 1.023622 0.007874 1.897638
vn 1.133858 0.000000 0.464567
vn 1.133858 1.944882 0.456693
f 109/379/307 108/380/308 105/381/309
#fvcolorindex 91 90 87 
usemtl m63CullBothEnvMappingTexScaleS0.031250TexScaleT0.031250
vt 0.000000 0.000000 0.0
vt 0.000000 0.000000 0.0
vt 0.000000 0.000000 0.0
#vcolor 175.000000 180.000000 195.000000 255.000000
v -10.000000 -53.425575 215.206848
#joint 33
#vjoint 111
#vcolor 183.000000 11.000000 153.000000 255.000000
vn 1.377953 1.417323 1.535433
vn 1.440945 0.086614 1.204724
vn 1.031496 0.007874 1.850394
f 78/382/310 111/383/311 102/384/312
#fvcolorindex 93 94 84 
vt 0.000000 0.000000 0.0
vt 0.000000 0.000000 0.0
vt 0.000000 0.000000 0.0
vn 1.377953 1.417323 1.535433
vn 1.031496 0.007874 1.850394
vn 1.078740 1.803150 1.748031
f 78/385/313 102/386/314 101/387/315
#fvcolorindex 93 84 83 
usemtl m64CullBothEnvMappingTexScaleS0.031250TexScaleT0.031250
vt 0.000000 0.000000 0.0
vt 0.000000 0.000000 0.0
vt 0.000000 0.000000 0.0
v -10.000000 -93.425575 205.206848
#joint 33
#vjoint 112
#vcolor 178.000000 12.000000 158.000000 255.000000
vn 1.031496 0.007874 1.850394
vn 1.440945 0.086614 1.204724
vn 1.401575 0.094488 1.244094
f 102/388/316 111/389/317 112/390/318
#fvcolorindex 84 94 95 
vt 0.000000 0.000000 0.0
vt 0.000000 0.000000 0.0
vt 0.000000 0.000000 0.0
vn 1.031496 0.007874 1.850394
vn 1.401575 0.094488 1.244094
vn 1.023622 0.007874 1.897638
f 102/391/319 112/392/320 109/393/321
#fvcolorindex 84 95 91 
usemtl m65CullBothEnvMappingTexScaleS0.031250TexScaleT0.031250
vt 0.000000 0.000000 0.0
vt 0.000000 0.000000 0.0
vt 0.000000 0.000000 0.0
vn 1.023622 0.000000 1.897638
vn 1.023622 0.007874 1.897638
vn 1.401575 0.094488 1.244094
f 110/394/322 109/395/323 112/396/324
#fvcolorindex 92 91 95 
vt 0.000000 0.000000 0.0
vt 0.000000 0.000000 0.0
vt 0.000000 0.000000 0.0
v -10.000000 -133.425568 205.206848
#joint 33
#vjoint 113
#vcolor 178.000000 0.000000 157.000000 255.000000
vn 1.023622 0.000000 1.897638
vn 1.401575 0.094488 1.244094
vn 1.401575 0.000000 1.236220
f 110/397/325 112/398/326 113/399/327
#fvcolorindex 92 95 96 
usemtl m63CullBothEnvMappingTexScaleS0.031250TexScaleT0.031250
vt 0.000000 0.000000 0.0
vt 0.000000 0.000000 0.0
vt 0.000000 0.000000 0.0
#vcolor 81.000000 181.000000 194.000000 255.000000
v 10.000000 -53.425575 215.206848
#joint 33
#vjoint 114
#vcolor 71.000000 11.000000 152.000000 255.000000
vn 1.377953 1.417323 1.535433
vn 0.637795 1.425197 1.527559
vn 0.559055 0.086614 1.196850
f 78/400/328 60/401/329 114/402/330
#fvcolorindex 93 97 98 
vt 0.000000 0.000000 0.0
vt 0.000000 0.000000 0.0
vt 0.000000 0.000000 0.0
vn 1.377953 1.417323 1.535433
vn 0.559055 0.086614 1.196850
vn 1.440945 0.086614 1.204724
f 78/403/331 114/404/332 111/405/333
#fvcolorindex 93 98 94 
usemtl m66CullBothEnvMappingTexScaleS0.031250TexScaleT0.031250
vt 0.000000 0.000000 0.0
vt 0.000000 0.000000 0.0
vt 0.000000 0.000000 0.0
v 10.000000 -93.425575 205.206848
#joint 33
#vjoint 115
#vcolor 77.000000 12.000000 157.000000 255.000000
vn 1.440945 0.086614 1.204724
vn 0.559055 0.086614 1.196850
vn 0.606299 0.094488 1.236220
f 111/406/334 114/407/335 115/408/336
#fvcolorindex 94 98 99 
vt 0.000000 0.000000 0.0
vt 0.000000 0.000000 0.0
vt 0.000000 0.000000 0.0
vn 1.440945 0.086614 1.204724
vn 0.606299 0.094488 1.236220
vn 1.401575 0.094488 1.244094
f 111/409/337 115/410/338 112/411/339
#fvcolorindex 94 99 95 
usemtl m67CullBothEnvMappingTexScaleS0.031250TexScaleT0.031250
vt 0.000000 0.000000 0.0
vt 0.000000 0.000000 0.0
vt 0.000000 0.000000 0.0
v 10.000000 -133.425568 205.206848
#joint 33
#vjoint 116
#vcolor 77.000000 0.000000 156.000000 255.000000
vn 0.606299 0.094488 1.236220
vn 0.606299 0.000000 1.228346
vn 1.401575 0.000000 1.236220
f 115/412/340 116/413/341 113/414/342
#fvcolorindex 99 100 96 
vt 0.000000 0.000000 0.0
vt 0.000000 0.000000 0.0
vt 0.000000 0.000000 0.0
vn 0.606299 0.094488 1.236220
vn 1.401575 0.000000 1.236220
vn 1.401575 0.094488 1.244094
f 115/415/343 113/416/344 112/417/345
#fvcolorindex 99 96 95 
usemtl m68CullBothEnvMappingTexScaleS0.031250TexScaleT0.031250
vt 0.000000 0.000000 0.0
vt 0.000000 0.000000 0.0
vt 0.000000 0.000000 0.0
#vcolor 27.000000 173.000000 91.000000 255.000000
v 15.000000 -93.425575 255.206848
#joint 33
#vjoint 117
#vcolor 111.000000 247.000000 59.000000 255.000000
vn 0.212598 1.362205 0.716535
vn 0.000000 1.818898 0.976378
vn 0.874016 1.944882 0.464567
f 95/418/346 106/419/347 117/420/348
#fvcolorindex 101 88 102 
vt 0.000000 0.000000 0.0
vt 0.000000 0.000000 0.0
vt 0.000000 0.000000 0.0
vn 0.212598 1.362205 0.716535
vn 0.874016 1.944882 0.464567
vn 0.866142 0.133858 0.464567
f 95/421/349 117/422/350 97/423/351
#fvcolorindex 101 102 78 
usemtl m69CullBothEnvMappingTexScaleS0.031250TexScaleT0.031250
vt 0.000000 0.000000 0.0
vt 0.000000 0.000000 0.0
vt 0.000000 0.000000 0.0
v 15.000000 -93.425575 225.206848
#joint 33
#vjoint 118
#vcolor 125.000000 2.000000 240.000000 255.000000
vn 0.874016 1.944882 0.464567
vn 0.984252 0.015748 1.889764
vn 0.976378 0.015748 1.834646
f 117/424/352 118/425/353 103/426/354
#fvcolorindex 102 103 85 
vt 0.000000 0.000000 0.0
vt 0.000000 0.000000 0.0
vt 0.000000 0.000000 0.0
vn 0.874016 1.944882 0.464567
vn 0.976378 0.015748 1.834646
vn 0.866142 0.133858 0.464567
f 117/427/355 103/428/356 97/429/357
#fvcolorindex 102 85 78 
usemtl m70CullBothEnvMappingTexScaleS0.031250TexScaleT0.031250
vt 0.000000 0.000000 0.0
vt 0.000000 0.000000 0.0
vt 0.000000 0.000000 0.0
v 15.000000 -133.425568 255.206848
#joint 33
#vjoint 119
#vcolor 111.000000 0.000000 60.000000 255.000000
vn 0.874016 0.000000 0.472441
vn 0.874016 1.944882 0.464567
vn 0.000000 1.818898 0.976378
f 119/430/358 117/431/359 106/432/360
#fvcolorindex 104 102 88 
vt 0.000000 0.000000 0.0
vt 0.000000 0.000000 0.0
vt 0.000000 0.000000 0.0
vn 0.874016 0.000000 0.472441
vn 0.000000 1.818898 0.976378
vn 0.000000 0.000000 0.992126
f 119/433/361 106/434/362 107/435/363
#fvcolorindex 104 88 89 
usemtl m71CullBothEnvMappingTexScaleS0.031250TexScaleT0.031250
vt 0.000000 0.000000 0.0
vt 0.000000 0.000000 0.0
vt 0.000000 0.000000 0.0
v 15.000000 -133.425568 225.206848
#joint 33
#vjoint 120
#vcolor 125.000000 0.000000 240.000000 255.000000
vn 0.984252 0.000000 1.889764
vn 0.984252 0.015748 1.889764
vn 0.874016 1.944882 0.464567
f 120/436/364 118/437/365 117/438/366
#fvcolorindex 105 103 102 
vt 0.000000 0.000000 0.0
vt 0.000000 0.000000 0.0
vt 0.000000 0.000000 0.0
vn 0.984252 0.000000 1.889764
vn 0.874016 1.944882 0.464567
vn 0.874016 0.000000 0.472441
f 120/439/367 117/440/368 119/441/369
#fvcolorindex 105 102 104 
usemtl m72CullBothEnvMappingTexScaleS0.031250TexScaleT0.031250
vt 0.000000 0.000000 0.0
vt 0.000000 0.000000 0.0
vt 0.000000 0.000000 0.0
vn 0.637795 1.425197 1.527559
vn 0.937008 1.818898 1.740157
vn 0.976378 0.015748 1.834646
f 60/442/370 104/443/371 103/444/372
#fvcolorindex 97 86 85 
vt 0.000000 0.000000 0.0
vt 0.000000 0.000000 0.0
vt 0.000000 0.000000 0.0
vn 0.637795 1.425197 1.527559
vn 0.976378 0.015748 1.834646
vn 0.559055 0.086614 1.196850
f 60/445/373 103/446/374 114/447/375
#fvcolorindex 97 85 98 
usemtl m73CullBothEnvMappingTexScaleS0.031250TexScaleT0.031250
vt 0.000000 0.000000 0.0
vt 0.000000 0.000000 0.0
vt 0.000000 0.000000 0.0
vn 0.559055 0.086614 1.196850
vn 0.976378 0.015748 1.834646
vn 0.984252 0.015748 1.889764
f 114/448/376 103/449/377 118/450/378
#fvcolorindex 98 85 103 
vt 0.000000 0.000000 0.0
vt 0.000000 0.000000 0.0
vt 0.000000 0.000000 0.0
vn 0.559055 0.086614 1.196850
vn 0.984252 0.015748 1.889764
vn 0.606299 0.094488 1.236220
f 114/451/379 118/452/380 115/453/381
#fvcolorindex 98 103 99 
usemtl m67CullBothEnvMappingTexScaleS0.031250TexScaleT0.031250
vt 0.000000 0.000000 0.0
vt 0.000000 0.000000 0.0
vt 0.000000 0.000000 0.0
vn 0.606299 0.094488 1.236220
vn 0.984252 0.015748 1.889764
vn 0.984252 0.000000 1.889764
f 115/454/382 118/455/383 120/456/384
#fvcolorindex 99 103 105 
vt 0.000000 0.000000 0.0
vt 0.000000 0.000000 0.0
vt 0.000000 0.000000 0.0
vn 0.606299 0.094488 1.236220
vn 0.984252 0.000000 1.889764
vn 0.606299 0.000000 1.228346
f 115/457/385 120/458/386 116/459/387
#fvcolorindex 99 105 100 
usemtl m74CullBothEnvMappingTexScaleS0.031250TexScaleT0.031250
vt 0.000000 0.000000 0.0
vt 0.000000 0.000000 0.0
vt 0.000000 0.000000 0.0
vn 1.188976 1.826772 0.519685
vn 1.141732 0.133858 0.456693
vn 1.866142 0.913386 0.354331
f 100/460/388 96/461/389 93/462/390
#fvcolorindex 82 77 74 
vt 0.000000 0.000000 0.0
vt 0.000000 0.000000 0.0
vt 0.000000 0.000000 0.0
vn 1.188976 1.826772 0.519685
vn 1.866142 0.913386 0.354331
vn 0.000000 1.897638 0.992126
f 100/463/391 93/464/392 98/465/393
#fvcolorindex 82 74 79 
usemtl m75CullBothEnvMappingTexScaleS0.031250TexScaleT0.031250
vt 0.000000 0.000000 0.0
vt 0.000000 0.000000 0.0
vt 0.000000 0.000000 0.0
#vcolor 140.000000 218.000000 225.000000 255.000000
vn 1.102362 1.716535 1.771654
vn 1.078740 1.803150 1.748031
vn 1.188976 1.826772 0.519685
f 80/466/394 101/467/395 100/468/396
#fvcolorindex 106 83 82 
vt 0.000000 0.000000 0.0
vt 0.000000 0.000000 0.0
vt 0.000000 0.000000 0.0
#vcolor 134.000000 237.000000 27.000000 255.000000
vn 1.102362 1.716535 1.771654
vn 1.188976 1.826772 0.519685
vn 1.055118 1.866142 0.212598
f 80/469/397 100/470/398 82/471/399
#fvcolorindex 106 82 107 
usemtl m74CullBothEnvMappingTexScaleS0.031250TexScaleT0.031250
vt 0.000000 0.000000 0.0
vt 0.000000 0.000000 0.0
vt 0.000000 0.000000 0.0
vn 1.188976 1.826772 0.519685
vn 0.000000 1.897638 0.992126
vn 1.055118 1.866142 0.212598
f 100/472/400 98/473/401 82/474/402
#fvcolorindex 82 79 107 
usemtl m59CullBothEnvMappingTexScaleS0.031250TexScaleT0.031250
vt 0.000000 0.000000 0.0
vt 0.000000 0.000000 0.0
vt 0.000000 0.000000 0.0
#vcolor 110.000000 203.000000 32.000000 255.000000
vn 0.826772 1.834646 0.519685
vn 0.866142 1.598425 0.251969
vn 0.000000 1.897638 0.992126
f 99/475/403 50/476/404 98/477/405
#fvcolorindex 81 108 79 
usemtl m76CullBothEnvMappingTexScaleS0.031250TexScaleT0.031250
vt 0.000000 0.000000 0.0
vt 0.000000 0.000000 0.0
vt 0.000000 0.000000 0.0
#vcolor 120.000000 226.000000 230.000000 255.000000
vn 0.937008 1.818898 1.740157
vn 0.944882 1.779528 1.811024
vn 0.866142 1.598425 0.251969
f 104/478/406 51/479/407 50/480/408
#fvcolorindex 86 109 108 
vt 0.000000 0.000000 0.0
vt 0.000000 0.000000 0.0
vt 0.000000 0.000000 0.0
vn 0.937008 1.818898 1.740157
vn 0.866142 1.598425 0.251969
vn 0.826772 1.834646 0.519685
f 104/481/409 50/482/410 99/483/411
#fvcolorindex 86 108 81 
usemtl m77CullBothEnvMappingTexScaleS0.031250TexScaleT0.031250
vt 0.000000 0.000000 0.0
vt 0.000000 0.000000 0.0
vt 0.000000 0.000000 0.0
vn 1.078740 1.803150 1.748031
vn 1.102362 1.716535 1.771654
vn 1.377953 1.417323 1.535433
f 101/484/412 80/485/413 78/486/414
#fvcolorindex 83 106 93 
usemtl m76CullBothEnvMappingTexScaleS0.031250TexScaleT0.031250
vt 0.000000 0.000000 0.0
vt 0.000000 0.000000 0.0
vt 0.000000 0.000000 0.0
vn 0.937008 1.818898 1.740157
vn 0.637795 1.425197 1.527559
vn 0.944882 1.779528 1.811024
f 104/487/415 60/488/416 51/489/417
#fvcolorindex 86 97 109 
usemtl m78CullBothEnvMappingTexScaleS0.031250TexScaleT0.031250
vt 0.000000 0.000000 0.0
vt 0.000000 0.000000 0.0
vt 0.000000 0.000000 0.0
#vcolor 0.000000 139.000000 208.000000 255.000000
vn 0.000000 1.015748 0.000000
vn 0.866142 1.598425 0.251969
vn 0.000000 1.094488 1.637795
f 98/490/418 50/491/419 47/492/420
#fvcolorindex 17 108 110 
vt 0.000000 0.000000 0.0
vt 0.000000 0.000000 0.0
vt 0.000000 0.000000 0.0
vn 0.000000 1.015748 0.000000
vn 0.000000 1.094488 1.637795
vn 0.000000 1.094488 1.637795
f 98/493/421 47/494/422 46/495/423
#fvcolorindex 17 110 110 
usemtl m79CullBothEnvMappingTexScaleS0.031250TexScaleT0.031250
vt 0.000000 0.000000 0.0
vt 0.000000 0.000000 0.0
vt 0.000000 0.000000 0.0
vn 0.000000 1.094488 1.637795
vn 0.000000 1.015748 0.000000
vn 0.000000 1.015748 0.000000
f 48/496/424 82/497/425 98/498/426
#fvcolorindex 110 17 17 
vt 0.000000 0.000000 0.0
vt 0.000000 0.000000 0.0
vt 0.000000 0.000000 0.0
vn 0.000000 1.094488 1.637795
vn 0.000000 1.015748 0.000000
vn 0.000000 1.094488 1.637795
f 48/499/427 98/500/428 46/501/429
#fvcolorindex 110 17 110 
usemtl m80CullBothEnvMappingTexScaleS0.031250TexScaleT0.031250
vt 0.000000 0.000000 0.0
vt 0.000000 0.000000 0.0
vt 0.000000 0.000000 0.0
#vcolor 210.000000 148.000000 210.000000 255.000000
#vcolor 46.000000 148.000000 210.000000 255.000000
vn 1.653543 1.165354 1.653543
vn 0.362205 1.165354 1.653543
vn 0.637795 1.425197 1.527559
f 77/502/430 61/503/431 60/504/432
#fvcolorindex 111 112 97 
vt 0.000000 0.000000 0.0
vt 0.000000 0.000000 0.0
vt 0.000000 0.000000 0.0
vn 1.653543 1.165354 1.653543
vn 0.637795 1.425197 1.527559
vn 1.377953 1.417323 1.535433
f 77/505/433 60/506/434 78/507/435
#fvcolorindex 111 97 93 
usemtl m68CullBothEnvMappingTexScaleS0.031250TexScaleT0.031250
vt 0.000000 0.000000 0.0
vt 0.000000 0.000000 0.0
vt 0.000000 0.000000 0.0
#vcolor 0.000000 153.000000 74.000000 255.000000
vn 0.212598 1.362205 0.716535
vn 0.000000 1.204724 0.582677
vn 0.000000 1.818898 0.976378
f 95/508/436 94/509/437 106/510/438
#fvcolorindex 101 113 88 
usemtl m81CullBothEnvMappingTexScaleS0.031250TexScaleT0.031250
vt 0.000000 0.000000 0.0
vt 0.000000 0.000000 0.0
vt 0.000000 0.000000 0.0
v 0.000000 -40.425575 367.206848
#joint 33
#vjoint 121
#vcolor 0.000000 145.000000 197.000000 255.000000
#vcolor 49.000000 140.000000 5.000000 255.000000
v 9.000000 -39.425575 372.206848
#joint 33
#vjoint 122
#vcolor 95.000000 175.000000 235.000000 255.000000
vn 0.000000 1.141732 1.551181
vn 0.385827 1.102362 0.039370
vn 0.748031 1.377953 1.850394
f 121/511/439 44/512/440 122/513/441
#fvcolorindex 114 115 116 
usemtl m82CullBothEnvMappingTexScaleS0.031250TexScaleT0.031250
vt 0.000000 0.000000 0.0
vt 0.000000 0.000000 0.0
vt 0.000000 0.000000 0.0
#vcolor 106.000000 188.000000 8.000000 255.000000
vn 0.748031 1.377953 1.850394
vn 0.385827 1.102362 0.039370
vn 0.834646 1.480315 0.062992
f 122/514/442 44/515/443 59/516/444
#fvcolorindex 116 115 117 
usemtl m83CullBothEnvMappingTexScaleS0.031250TexScaleT0.031250
vt 0.000000 0.000000 0.0
vt 0.000000 0.000000 0.0
vt 0.000000 0.000000 0.0
v 9.000000 -36.425575 383.206848
#joint 33
#vjoint 123
#vcolor 110.000000 230.000000 57.000000 255.000000
vn 0.866142 1.811024 0.448819
vn 0.748031 1.377953 1.850394
vn 0.834646 1.480315 0.062992
f 123/517/445 122/518/446 59/519/447
#fvcolorindex 118 116 117 
usemtl m84CullBothEnvMappingTexScaleS0.031250TexScaleT0.031250
vt 0.000000 0.000000 0.0
vt 0.000000 0.000000 0.0
vt 0.000000 0.000000 0.0
#vcolor 8.000000 138.000000 45.000000 255.000000
#vcolor 1.000000 242.000000 126.000000 255.000000
v 0.000000 -35.425575 389.206848
#joint 33
#vjoint 124
#vcolor 3.000000 199.000000 112.000000 255.000000
vn 0.062992 1.086614 0.354331
vn 0.007874 1.905512 0.992126
vn 0.023622 1.566929 0.881890
f 123/520/448 59/521/449 124/522/450
#fvcolorindex 119 120 121 
usemtl m85CullBothEnvMappingTexScaleS0.031250TexScaleT0.031250
vt 0.000000 0.000000 0.0
vt 0.000000 0.000000 0.0
vt 0.000000 0.000000 0.0
#vcolor 255.000000 242.000000 126.000000 255.000000
vn 2.007874 1.905512 0.992126
vn 0.023622 1.566929 0.881890
vn 0.007874 1.905512 0.992126
f 83/523/451 124/524/452 59/525/453
#fvcolorindex 122 121 120 
usemtl m86CullBothEnvMappingTexScaleS0.031250TexScaleT0.031250
vt 0.000000 0.000000 0.0
vt 0.000000 0.000000 0.0
vt 0.000000 0.000000 0.0
#vcolor 248.000000 138.000000 45.000000 255.000000
v -10.000000 -36.425575 383.206848
#joint 33
#vjoint 125
#vcolor 165.000000 193.000000 61.000000 255.000000
vn 1.952756 1.086614 0.354331
vn 2.007874 1.905512 0.992126
vn 1.299213 1.519685 0.480315
f 124/526/454 83/527/455 125/528/456
#fvcolorindex 123 122 124 
usemtl m87CullBothEnvMappingTexScaleS0.031250TexScaleT0.031250
vt 0.000000 0.000000 0.0
vt 0.000000 0.000000 0.0
vt 0.000000 0.000000 0.0
#vcolor 149.000000 189.000000 7.000000 255.000000
v -10.000000 -39.425575 372.206848
#joint 33
#vjoint 126
#vcolor 161.000000 176.000000 235.000000 255.000000
vn 1.173228 1.488189 0.055118
vn 1.267717 1.385827 1.850394
vn 1.299213 1.519685 0.480315
f 83/529/457 126/530/458 125/531/459
#fvcolorindex 125 126 124 
vt 0.000000 0.000000 0.0
vt 0.000000 0.000000 0.0
vt 0.000000 0.000000 0.0
vn 1.173228 1.488189 0.055118
vn 1.503937 1.173228 1.897638
vn 1.267717 1.385827 1.850394
f 83/532/460 49/533/461 126/534/462
#fvcolorindex 125 72 126 
usemtl m52CullBothEnvMappingTexScaleS0.031250TexScaleT0.031250
vt 0.000000 0.000000 0.0
vt 0.000000 0.000000 0.0
vt 0.000000 0.000000 0.0
vn 1.503937 1.173228 1.897638
vn 0.000000 1.141732 1.551181
vn 1.267717 1.385827 1.850394
f 49/535/463 121/536/464 126/537/465
#fvcolorindex 72 114 126 
usemtl m81CullBothEnvMappingTexScaleS0.031250TexScaleT0.031250
vt 0.000000 0.000000 0.0
vt 0.000000 0.000000 0.0
vt 0.000000 0.000000 0.0
vn 0.000000 1.141732 1.551181
vn 1.503937 1.173228 1.897638
vn 0.385827 1.102362 0.039370
f 121/538/466 49/539/467 44/540/468
#fvcolorindex 114 72 115 
usemtl m52CullBothEnvMappingTexScaleS0.031250TexScaleT0.031250
vt 0.000000 0.000000 0.0
vt 0.000000 0.000000 0.0
vt 0.000000 0.000000 0.0
#vcolor 0.000000 148.000000 66.000000 255.000000
vn 1.503937 1.173228 1.897638
vn 0.000000 1.165354 0.519685
vn 0.000000 1.165354 0.519685
f 49/541/469 92/542/470 90/543/471
#fvcolorindex 72 127 127 
vt 0.000000 0.000000 0.0
vt 0.000000 0.000000 0.0
vt 0.000000 0.000000 0.0
vn 1.503937 1.173228 1.897638
vn 0.000000 1.165354 0.519685
vn 0.385827 1.102362 0.039370
f 49/544/472 90/545/473 44/546/474
#fvcolorindex 72 127 115 
usemtl m88CullBothEnvMappingTexScaleS0.031250TexScaleT0.031250
vt 0.000000 0.000000 0.0
vt 0.000000 0.000000 0.0
vt 0.000000 0.000000 0.0
vn 0.000000 1.165354 0.519685
vn 0.000000 1.165354 0.519685
vn 0.000000 1.204724 0.582677
f 90/547/475 92/548/476 94/549/477
#fvcolorindex 127 127 113 
vt 0.000000 0.000000 0.0
vt 0.000000 0.000000 0.0
vt 0.000000 0.000000 0.0
vn 0.000000 1.165354 0.519685
vn 0.000000 1.204724 0.582677
vn 0.212598 1.362205 0.716535
f 90/550/478 94/551/479 95/552/480
#fvcolorindex 127 113 101 
usemtl m89CullBoth
vt 0.331055 0.255859 0.0
vt 0.803711 0.257812 0.0
vt 0.797852 -0.000977 0.0
v -14.000000 -104.425575 225.206848
#joint 33
#vjoint 127
#vcolor 254.000000 254.000000 254.000000 255.000000
v -14.000000 -95.425575 254.206848
#joint 33
#vjoint 128
f 127/553 128/554 108/555
#fvcolorindex 128 128 128 
vt 0.331055 0.255859 0.0
vt 0.797852 -0.000977 0.0
vt 0.311523 -0.000977 0.0
f 127/556 108/557 110/558
#fvcolorindex 128 128 128 
vt 0.036133 0.252930 0.0
vt 0.331055 0.255859 0.0
vt 0.311523 -0.000977 0.0
v -10.000000 -111.425575 207.206848
#joint 33
#vjoint 129
f 129/559 127/560 110/561
#fvcolorindex 128 128 128 
vt 0.036133 0.252930 0.0
vt 0.311523 -0.000977 0.0
vt 0.000000 0.000000 0.0
f 129/562 110/563 113/564
#fvcolorindex 128 128 128 
vt 0.892578 0.250000 0.0
vt 0.406250 0.252930 0.0
vt 0.392578 0.001953 0.0
v 13.000000 -112.425575 255.206848
#joint 33
#vjoint 130
v 13.000000 -112.425575 225.206848
#joint 33
#vjoint 131
f 130/565 131/566 120/567
#fvcolorindex 128 128 128 
vt 0.892578 0.250000 0.0
vt 0.392578 0.001953 0.0
vt 0.878906 0.000977 0.0
f 130/568 120/569 119/570
#fvcolorindex 128 128 128 
vt 0.085938 0.264648 0.0
vt 0.053711 0.001953 0.0
vt 0.392578 0.001953 0.0
v 8.000000 -111.425575 207.206848
#joint 33
#vjoint 132
f 132/571 116/572 120/573
#fvcolorindex 128 128 128 
vt 0.085938 0.264648 0.0
vt 0.392578 0.001953 0.0
vt 0.406250 0.252930 0.0
f 132/574 120/575 131/576
#fvcolorindex 128 128 128 
vt 0.085938 0.264648 0.0
vt 0.036133 0.252930 0.0
vt 0.000000 0.000000 0.0
f 132/577 129/578 113/579
#fvcolorindex 128 128 128 
vt 0.085938 0.264648 0.0
vt 0.000000 0.000000 0.0
vt 0.053711 0.001953 0.0
f 132/580 113/581 116/582
#fvcolorindex 128 128 128 
vt 1.000000 0.244141 0.0
vt 1.000000 0.000000 0.0
vt 0.797852 -0.000977 0.0
v 0.000000 -98.425575 264.206848
#joint 33
#vjoint 133
f 133/583 107/584 108/585
#fvcolorindex 128 128 128 
vt 1.000000 0.244141 0.0
vt 0.797852 -0.000977 0.0
vt 0.803711 0.257812 0.0
f 133/586 108/587 128/588
#fvcolorindex 128 128 128 
vt 1.000000 0.244141 0.0
vt 0.892578 0.250000 0.0
vt 0.878906 0.000977 0.0
f 133/589 130/590 119/591
#fvcolorindex 128 128 128 
vt 1.000000 0.244141 0.0
vt 0.878906 0.000977 0.0
vt 1.000000 0.000000 0.0
f 133/592 119/593 107/594
#fvcolorindex 128 128 128 
usemtl m90CullBothClampS
vt 0.000000 0.000000 0.0
vt 2.383789 1.315430 0.0
vt 1.996094 0.000000 0.0
#vcolor 173.000000 173.000000 173.000000 255.000000
#vcolor 103.000000 103.000000 103.000000 255.000000
#vcolor 71.000000 71.000000 71.000000 255.000000
f 47/595 67/596 59/597
#fvcolorindex 129 130 131 
usemtl m91CullBothClampS
vt 2.383789 1.315430 0.0
vt 0.000000 0.000000 0.0
vt -0.010742 1.315430 0.0
f 67/598 47/599 58/600
#fvcolorindex 130 129 128 
usemtl m92CullBothClampS
vt 2.404297 1.322266 0.0
vt 0.000000 0.000000 0.0
vt 2.002930 0.000000 0.0
#vcolor 67.000000 67.000000 67.000000 255.000000
f 84/601 48/602 83/603
#fvcolorindex 132 132 132 
vt 2.404297 1.322266 0.0
vt 0.001953 1.322266 0.0
vt 0.000000 0.000000 0.0
f 84/604 81/605 48/606
#fvcolorindex 132 132 132 
vt 0.999023 0.000000 0.0
vt 0.999023 1.420898 0.0
vt 0.556641 1.420898 0.0
v 0.000000 -107.425575 410.206848
#joint 33
#vjoint 134
v 0.000000 -63.425575 400.206848
#joint 33
#vjoint 135
v -13.000000 -65.425575 392.206848
#joint 33
#vjoint 136
f 134/607 135/608 136/609
#fvcolorindex 132 132 132 
vt 0.999023 0.000000 0.0
vt 0.556641 1.420898 0.0
vt 0.556641 0.000000 0.0
v -13.000000 -108.425575 403.206848
#joint 33
#vjoint 137
f 134/610 136/611 137/612
#fvcolorindex 132 132 132 
vt 0.996094 0.000000 0.0
vt 0.996094 1.419922 0.0
vt 0.522461 1.419922 0.0
v -13.000000 -68.425575 378.206848
#joint 33
#vjoint 138
f 137/613 136/614 138/615
#fvcolorindex 132 132 132 
vt 0.996094 0.000000 0.0
vt 0.522461 1.419922 0.0
vt 0.522461 0.000000 0.0
v -13.000000 -112.425575 389.206848
#joint 33
#vjoint 139
f 137/616 138/617 139/618
#fvcolorindex 132 132 132 
vt 1.000000 0.000000 0.0
vt 1.000000 1.407227 0.0
vt 0.518555 1.407227 0.0
v 0.000000 -70.425575 370.206848
#joint 33
#vjoint 140
#vcolor 159.000000 159.000000 159.000000 255.000000
f 139/619 138/620 140/621
#fvcolorindex 132 132 133 
vt 1.000000 0.000000 0.0
vt 0.518555 1.407227 0.0
vt 0.518555 0.000000 0.0
v 0.000000 -114.425575 381.206848
#joint 33
#vjoint 141
f 139/622 140/623 141/624
#fvcolorindex 132 133 132 
vt 0.997070 0.000000 0.0
vt 0.997070 1.407227 0.0
vt 0.579102 1.407227 0.0
v 13.000000 -68.425575 378.206848
#joint 33
#vjoint 142
#vcolor 221.000000 221.000000 221.000000 255.000000
f 141/625 140/626 142/627
#fvcolorindex 132 133 134 
vt 0.997070 0.000000 0.0
vt 0.579102 1.407227 0.0
vt 0.579102 0.000000 0.0
v 13.000000 -112.425575 389.206848
#joint 33
#vjoint 143
#vcolor 79.000000 79.000000 79.000000 255.000000
f 141/628 142/629 143/630
#fvcolorindex 132 134 135 
usemtl m93CullBothClampS
vt 1.000977 0.000000 0.0
vt 1.000977 1.401367 0.0
vt 0.534180 1.401367 0.0
v 13.000000 -65.425575 392.206848
#joint 33
#vjoint 144
#vcolor 150.000000 150.000000 150.000000 255.000000
f 143/631 142/632 144/633
#fvcolorindex 135 134 136 
vt 1.000977 0.000000 0.0
vt 0.534180 1.401367 0.0
vt 0.534180 0.000000 0.0
v 13.000000 -108.425575 403.206848
#joint 33
#vjoint 145
f 143/634 144/635 145/636
#fvcolorindex 135 136 132 
usemtl m92CullBothClampS
vt 0.868164 0.000000 0.0
vt 0.868164 1.419922 0.0
vt 0.395508 1.419922 0.0
f 145/637 144/638 135/639
#fvcolorindex 132 136 132 
vt 0.868164 0.000000 0.0
vt 0.395508 1.419922 0.0
vt 0.395508 0.000000 0.0
f 145/640 135/641 134/642
#fvcolorindex 132 132 132 
vt 0.999023 1.420898 0.0
vt 0.944336 2.368164 0.0
vt 0.612305 2.368164 0.0
f 135/643 124/644 125/645
#fvcolorindex 132 132 132 
vt 0.999023 1.420898 0.0
vt 0.612305 2.368164 0.0
vt 0.556641 1.420898 0.0
f 135/646 125/647 136/648
#fvcolorindex 132 132 132 
vt 0.996094 1.419922 0.0
vt 0.936523 2.366211 0.0
vt 0.581055 2.366211 0.0
f 136/649 125/650 126/651
#fvcolorindex 132 132 132 
vt 0.996094 1.419922 0.0
vt 0.581055 2.366211 0.0
vt 0.522461 1.419922 0.0
f 136/652 126/653 138/654
#fvcolorindex 132 132 132 
vt 1.000000 1.407227 0.0
vt 0.940430 2.345703 0.0
vt 0.579102 2.345703 0.0
f 138/655 126/656 121/657
#fvcolorindex 132 132 132 
vt 1.000000 1.407227 0.0
vt 0.579102 2.345703 0.0
vt 0.518555 1.407227 0.0
f 138/658 121/659 140/660
#fvcolorindex 132 132 133 
usemtl m94CullBothClampS
vt 0.997070 1.407227 0.0
vt 0.944336 2.344727 0.0
vt 0.630859 2.344727 0.0
#vcolor 69.000000 69.000000 69.000000 255.000000
f 140/661 121/662 122/663
#fvcolorindex 133 132 137 
vt 0.997070 1.407227 0.0
vt 0.630859 2.344727 0.0
vt 0.579102 1.407227 0.0
f 140/664 122/665 142/666
#fvcolorindex 133 137 134 
usemtl m95CullBothClampS
vt 1.000977 1.401367 0.0
vt 0.942383 2.334961 0.0
vt 0.592773 2.334961 0.0
#vcolor 84.000000 84.000000 84.000000 255.000000
f 142/667 122/668 123/669
#fvcolorindex 134 137 138 
vt 1.000977 1.401367 0.0
vt 0.592773 2.334961 0.0
vt 0.534180 1.401367 0.0
f 142/670 123/671 144/672
#fvcolorindex 134 138 136 
usemtl m96CullBothClampS
vt 0.868164 1.419922 0.0
vt 0.809570 2.366211 0.0
vt 0.454102 2.366211 0.0
f 144/673 123/674 124/675
#fvcolorindex 136 138 132 
vt 0.868164 1.419922 0.0
vt 0.454102 2.366211 0.0
vt 0.395508 1.419922 0.0
f 144/676 124/677 135/678
#fvcolorindex 136 132 132 
usemtl m92CullBothClampS
vt 0.999023 0.000000 0.0
vt 0.556641 0.000000 0.0
vt 0.778320 -0.237305 0.0
v 0.000000 -118.425575 398.206848
#joint 33
#vjoint 146
f 134/679 137/680 146/681
#fvcolorindex 132 132 132 
vt 0.868164 0.000000 0.0
vt 0.395508 0.000000 0.0
vt 0.631836 -0.236328 0.0
f 145/682 134/683 146/684
#fvcolorindex 132 132 132 
usemtl m93CullBothClampS
vt 1.000977 0.000000 0.0
vt 0.534180 0.000000 0.0
vt 0.767578 -0.233398 0.0
f 143/685 145/686 146/687
#fvcolorindex 135 132 132 
usemtl m92CullBothClampS
vt 0.997070 0.000000 0.0
vt 0.579102 0.000000 0.0
vt 0.788086 -0.234375 0.0
f 141/688 143/689 146/690
#fvcolorindex 132 135 132 
vt 1.000000 0.000000 0.0
vt 0.518555 0.000000 0.0
vt 0.759766 -0.234375 0.0
f 139/691 141/692 146/693
#fvcolorindex 132 132 132 
vt 0.996094 0.000000 0.0
vt 0.522461 0.000000 0.0
vt 0.758789 -0.236328 0.0
f 137/694 139/695 146/696
#fvcolorindex 132 132 132 
g Room05
g Room05_primary
usemtl m97CullBoth
vt -2.174805 1.096680 0.0
vt -2.174805 1.096680 0.0
vt -2.174805 1.096680 0.0
v -10.000000 -223.454941 219.337708
#joint 38
#vjoint 147
#vcolor 254.000000 254.000000 254.000000 255.000000
v 10.000000 -223.454941 219.337708
#joint 38
#vjoint 148
v 10.000000 -223.454941 255.337708
#joint 38
#vjoint 149
f 147/697 148/698 149/699
#fvcolorindex 139 139 139 
vt -2.174805 1.096680 0.0
vt -2.174805 1.096680 0.0
vt -2.174805 1.096680 0.0
v -10.000000 -223.454941 255.337708
#joint 38
#vjoint 150
f 147/700 149/701 150/702
#fvcolorindex 139 139 139 
usemtl m98CullBothEnvMappingTexScaleS0.031250TexScaleT0.031250
vt 0.000000 0.000000 0.0
vt 0.000000 0.000000 0.0
vt 0.000000 0.000000 0.0
v 0.000000 16.574425 405.206848
#joint 33
#vjoint 151
#vcolor 0.000000 93.000000 85.000000 255.000000
v 10.000000 11.574425 406.206848
#joint 33
#vjoint 152
#vcolor 56.000000 77.000000 83.000000 255.000000
v 20.000000 16.574425 405.206848
#joint 33
#vjoint 153
#vcolor 58.000000 51.000000 99.000000 255.000000
vn 0.000000 0.732283 0.669291
vn 0.440945 0.606299 0.653543
vn 0.456693 0.401575 0.779528
f 151/703/481 152/704/482 153/705/483
#fvcolorindex 140 141 142 
usemtl m99CullBothEnvMappingTexScaleS0.031250TexScaleT0.031250
vt 0.000000 0.000000 0.0
vt 0.000000 0.000000 0.0
vt 0.000000 0.000000 0.0
v 15.000000 1.574425 409.206848
#joint 33
#vjoint 154
#vcolor 36.000000 43.000000 113.000000 255.000000
vn 0.440945 0.606299 0.653543
vn 0.283465 0.338583 0.889764
vn 0.456693 0.401575 0.779528
f 152/706/484 154/707/485 153/708/486
#fvcolorindex 141 143 142 
usemtl m100CullBothEnvMappingTexScaleS0.031250TexScaleT0.031250
vt 0.000000 0.000000 0.0
vt 0.000000 0.000000 0.0
vt 0.000000 0.000000 0.0
v 20.000000 -23.425575 415.206848
#joint 33
#vjoint 155
#vcolor 1.000000 242.000000 126.000000 255.000000
vn 0.283465 0.338583 0.889764
vn 0.007874 1.905512 0.992126
vn 0.456693 0.401575 0.779528
f 154/709/487 155/710/488 153/711/489
#fvcolorindex 143 144 142 
usemtl m101CullBothEnvMappingTexScaleS0.031250TexScaleT0.031250
vt 0.000000 0.000000 0.0
vt 0.000000 0.000000 0.0
vt 0.000000 0.000000 0.0
v 10.000000 -9.425575 412.206848
#joint 33
#vjoint 156
#vcolor 0.000000 30.000000 123.000000 255.000000
vn 0.000000 0.236220 0.968504
vn 0.007874 1.905512 0.992126
vn 0.283465 0.338583 0.889764
f 156/712/490 155/713/491 154/714/492
#fvcolorindex 145 144 143 
vt 0.000000 0.000000 0.0
vt 0.000000 0.000000 0.0
vt 0.000000 0.000000 0.0
v 0.000000 -13.425575 413.206848
#joint 33
#vjoint 157
vn 0.000000 0.236220 0.968504
vn 0.000000 0.236220 0.968504
vn 0.007874 1.905512 0.992126
f 156/715/493 157/716/494 155/717/495
#fvcolorindex 145 145 144 
vt 0.000000 0.000000 0.0
vt 0.000000 0.000000 0.0
vt 0.000000 0.000000 0.0
v -20.000000 -23.425575 415.206848
#joint 33
#vjoint 158
#vcolor 255.000000 242.000000 126.000000 255.000000
vn 0.000000 0.236220 0.968504
vn 2.007874 1.905512 0.992126
vn 0.007874 1.905512 0.992126
f 157/718/496 158/719/497 155/720/498
#fvcolorindex 145 146 144 
vt 0.000000 0.000000 0.0
vt 0.000000 0.000000 0.0
vt 0.000000 0.000000 0.0
v -11.000000 -9.425575 412.206848
#joint 33
#vjoint 159
vn 0.000000 0.236220 0.968504
vn 0.000000 0.236220 0.968504
vn 2.007874 1.905512 0.992126
f 157/721/499 159/722/500 158/723/501
#fvcolorindex 145 145 146 
usemtl m102CullBothEnvMappingTexScaleS0.031250TexScaleT0.031250
vt 0.000000 0.000000 0.0
vt 0.000000 0.000000 0.0
vt 0.000000 0.000000 0.0
v -15.000000 1.574425 409.206848
#joint 33
#vjoint 160
#vcolor 190.000000 26.000000 104.000000 255.000000
vn 1.496063 0.204724 0.818898
vn 2.007874 1.905512 0.992126
vn 0.000000 0.236220 0.968504
f 160/724/502 158/725/503 159/726/504
#fvcolorindex 147 146 145 
vt 0.000000 0.000000 0.0
vt 0.000000 0.000000 0.0
vt 0.000000 0.000000 0.0
v -20.000000 16.574425 405.206848
#joint 33
#vjoint 161
#vcolor 0.000000 43.000000 119.000000 255.000000
vn 1.496063 0.204724 0.818898
vn 0.000000 0.338583 0.937008
vn 2.007874 1.905512 0.992126
f 160/727/505 161/728/506 158/729/507
#fvcolorindex 147 148 146 
vt 0.000000 0.000000 0.0
vt 0.000000 0.000000 0.0
vt 0.000000 0.000000 0.0
v -11.000000 11.574425 406.206848
#joint 33
#vjoint 162
#vcolor 200.000000 77.000000 83.000000 255.000000
vn 1.496063 0.204724 0.818898
vn 1.574803 0.606299 0.653543
vn 0.000000 0.338583 0.937008
f 160/730/508 162/731/509 161/732/510
#fvcolorindex 147 149 148 
usemtl m98CullBothEnvMappingTexScaleS0.031250TexScaleT0.031250
vt 0.000000 0.000000 0.0
vt 0.000000 0.000000 0.0
vt 0.000000 0.000000 0.0
vn 0.000000 0.732283 0.669291
vn 0.000000 0.338583 0.937008
vn 1.574803 0.606299 0.653543
f 151/733/511 161/734/512 162/735/513
#fvcolorindex 140 148 149 
usemtl m103CullBothEnvMappingTexScaleS0.031250TexScaleT0.031250
vt 0.000000 0.000000 0.0
vt 0.000000 0.000000 0.0
vt 0.000000 0.000000 0.0
v -10.000000 26.574425 395.206848
#joint 33
#vjoint 163
#vcolor 225.000000 104.000000 64.000000 255.000000
vn 0.000000 0.338583 0.937008
vn 0.000000 0.732283 0.669291
vn 1.771654 0.818898 0.503937
f 161/736/514 151/737/515 163/738/516
#fvcolorindex 148 140 150 
usemtl m98CullBothEnvMappingTexScaleS0.031250TexScaleT0.031250
vt 0.000000 0.000000 0.0
vt 0.000000 0.000000 0.0
vt 0.000000 0.000000 0.0
v 10.000000 26.574425 395.206848
#joint 33
#vjoint 164
#vcolor 31.000000 104.000000 64.000000 255.000000
vn 0.000000 0.732283 0.669291
vn 0.456693 0.401575 0.779528
vn 0.244094 0.818898 0.503937
f 151/739/517 153/740/518 164/741/519
#fvcolorindex 140 142 151 
vt 0.000000 0.000000 0.0
vt 0.000000 0.000000 0.0
vt 0.000000 0.000000 0.0
vn 0.000000 0.732283 0.669291
vn 0.244094 0.818898 0.503937
vn 1.771654 0.818898 0.503937
f 151/742/520 164/743/521 163/744/522
#fvcolorindex 140 151 150 
usemtl m104CullBothEnvMappingTexScaleS0.031250TexScaleT0.031250
vt 0.000000 0.000000 0.0
vt 0.000000 0.000000 0.0
vt 0.000000 0.000000 0.0
v 0.000000 39.574425 395.206848
#joint 33
#vjoint 165
#vcolor 0.000000 76.000000 101.000000 255.000000
vn 0.000000 0.598425 0.795276
vn 1.771654 0.818898 0.503937
vn 0.244094 0.818898 0.503937
f 165/745/523 163/746/524 164/747/525
#fvcolorindex 152 150 151 
usemtl m105CullBoth
vt 0.423828 0.390625 0.0
vt 0.517578 0.338867 0.0
vt 0.618164 0.384766 0.0
v -11.000000 -9.425575 445.206848
#joint 33
#vjoint 166
#vcolor 0.000000 0.000000 0.000000 255.000000
v 0.000000 -13.425575 445.206848
#joint 33
#vjoint 167
v 10.000000 -9.425575 445.206848
#joint 33
#vjoint 168
f 166/748 167/749 168/750
#fvcolorindex 153 153 153 
vt 0.423828 0.390625 0.0
vt 0.618164 0.384766 0.0
vt 0.390625 0.508789 0.0
v -15.000000 1.574425 445.206848
#joint 33
#vjoint 169
f 166/751 168/752 169/753
#fvcolorindex 153 153 153 
vt 0.390625 0.508789 0.0
vt 0.618164 0.384766 0.0
vt 0.666016 0.500977 0.0
v 15.000000 1.574425 445.206848
#joint 33
#vjoint 170
f 169/754 168/755 170/756
#fvcolorindex 153 153 153 
vt 0.390625 0.508789 0.0
vt 0.666016 0.500977 0.0
vt 0.438477 0.625000 0.0
v -11.000000 11.574425 445.206848
#joint 33
#vjoint 171
f 169/757 170/758 171/759
#fvcolorindex 153 153 153 
vt 0.632812 0.619141 0.0
vt 0.539062 0.670898 0.0
vt 0.438477 0.625000 0.0
v 10.000000 11.574425 445.206848
#joint 33
#vjoint 172
v 0.000000 16.574425 445.206848
#joint 33
#vjoint 173
f 172/760 173/761 171/762
#fvcolorindex 153 153 153 
vt 0.632812 0.619141 0.0
vt 0.438477 0.625000 0.0
vt 0.666016 0.500977 0.0
f 172/763 171/764 170/765
#fvcolorindex 153 153 153 
g Room07
g Room07_primary
usemtl m106CullBothEnvMappingClampSTexScaleS0.031250TexScaleT0.031250
vt 0.000000 0.000000 0.0
vt 0.000000 0.000000 0.0
vt 0.000000 0.000000 0.0
v 15.000000 6.574425 265.206848
#joint 33
#vjoint 174
#vcolor 106.000000 69.000000 0.000000 255.000000
v 18.000000 0.574425 265.206848
#joint 33
#vjoint 175
v 18.000000 0.574425 215.206848
#joint 33
#vjoint 176
vn 0.834646 0.543307 0.000000
vn 0.834646 0.543307 0.000000
vn 0.834646 0.543307 0.000000
f 174/766/526 175/767/527 176/768/528
#fvcolorindex 154 154 154 
vt 0.000000 0.000000 0.0
vt 0.000000 0.000000 0.0
vt 0.000000 0.000000 0.0
v 15.000000 6.574425 215.206848
#joint 33
#vjoint 177
vn 0.834646 0.543307 0.000000
vn 0.834646 0.543307 0.000000
vn 0.834646 0.543307 0.000000
f 174/769/529 176/770/530 177/771/531
#fvcolorindex 154 154 154 
usemtl m107CullBothEnvMappingClampSTexScaleS0.031250TexScaleT0.031250
vt 0.000000 0.000000 0.0
vt 0.000000 0.000000 0.0
vt 0.000000 0.000000 0.0
v 9.000000 12.574425 265.206848
#joint 33
#vjoint 178
#vcolor 88.000000 91.000000 0.000000 255.000000
vn 0.692913 0.716535 0.000000
vn 0.834646 0.543307 0.000000
vn 0.834646 0.543307 0.000000
f 178/772/532 174/773/533 177/774/534
#fvcolorindex 155 154 154 
vt 0.000000 0.000000 0.0
vt 0.000000 0.000000 0.0
vt 0.000000 0.000000 0.0
v 9.000000 12.574425 215.206848
#joint 33
#vjoint 179
vn 0.692913 0.716535 0.000000
vn 0.834646 0.543307 0.000000
vn 0.692913 0.716535 0.000000
f 178/775/535 177/776/536 179/777/537
#fvcolorindex 155 154 155 
g Room09
g Room09_primary
usemtl m108CullBothEnvMappingTexScaleS0.031250TexScaleT0.031250
vt 0.000000 0.000000 0.0
vt 0.000000 0.000000 0.0
vt 0.000000 0.000000 0.0
v 15.000000 6.574425 265.206848
#joint 33
#vjoint 180
#vcolor 0.000000 0.000000 0.000000 255.000000
v 18.000000 0.574425 265.206848
#joint 33
#vjoint 181
#vcolor 125.000000 18.000000 248.000000 255.000000
v 18.000000 0.574425 215.206848
#joint 33
#vjoint 182
#vcolor 125.000000 16.000000 7.000000 255.000000
vn 0.000000 0.000000 0.000000
vn 0.984252 0.141732 1.952756
vn 0.984252 0.125984 0.055118
f 180/778/538 181/779/539 182/780/540
#fvcolorindex 156 157 158 
vt 0.000000 0.000000 0.0
vt 0.000000 0.000000 0.0
vt 0.000000 0.000000 0.0
v 15.000000 6.574425 215.206848
#joint 33
#vjoint 183
vn 0.000000 0.000000 0.000000
vn 0.984252 0.125984 0.055118
vn 0.000000 0.000000 0.000000
f 180/781/541 182/782/542 183/783/543
#fvcolorindex 156 158 156 
usemtl m109CullBothEnvMappingTexScaleS0.031250TexScaleT0.031250
vt 0.000000 0.000000 0.0
vt 0.000000 0.000000 0.0
vt 0.000000 0.000000 0.0
v 9.000000 12.574425 265.206848
#joint 33
#vjoint 184
#vcolor 113.000000 51.000000 232.000000 255.000000
vn 0.889764 0.401575 1.826772
vn 0.000000 0.000000 0.000000
vn 0.000000 0.000000 0.000000
f 184/784/544 180/785/545 183/786/546
#fvcolorindex 159 156 156 
vt 0.000000 0.000000 0.0
vt 0.000000 0.000000 0.0
vt 0.000000 0.000000 0.0
v 9.000000 12.574425 215.206848
#joint 33
#vjoint 185
#vcolor 113.000000 51.000000 24.000000 255.000000
vn 0.889764 0.401575 1.826772
vn 0.000000 0.000000 0.000000
vn 0.889764 0.401575 0.188976
f 184/787/547 183/788/548 185/789/549
#fvcolorindex 159 156 160 
g Room0B
g Room0B_primary
usemtl m97CullBoth
vt -2.174805 3.096680 0.0
vt -2.174805 3.096680 0.0
vt -1.174805 3.096680 0.0
v 10.000000 0.545053 219.337708
#joint 38
#vjoint 186
#vcolor 254.000000 254.000000 254.000000 255.000000
v 10.000000 -223.454941 219.337708
#joint 38
#vjoint 187
v -10.000000 -223.454941 219.337708
#joint 38
#vjoint 188
f 186/790 187/791 188/792
#fvcolorindex 161 161 161 
vt -2.174805 3.096680 0.0
vt -1.174805 3.096680 0.0
vt -1.174805 3.096680 0.0
v -10.000000 0.545053 219.337708
#joint 38
#vjoint 189
f 186/793 188/794 189/795
#fvcolorindex 161 161 161 
vt -2.174805 1.096680 0.0
vt -2.174805 1.096680 0.0
vt -2.174805 3.096680 0.0
v 10.000000 0.545053 255.337708
#joint 38
#vjoint 190
v 10.000000 -223.454941 255.337708
#joint 38
#vjoint 191
f 190/796 191/797 187/798
#fvcolorindex 161 161 161 
vt -2.174805 1.096680 0.0
vt -2.174805 3.096680 0.0
vt -2.174805 3.096680 0.0
f 190/799 187/800 186/801
#fvcolorindex 161 161 161 
vt -1.174805 1.096680 0.0
vt -1.174805 1.096680 0.0
vt -2.174805 1.096680 0.0
v -10.000000 0.545053 255.337708
#joint 38
#vjoint 192
v -10.000000 -223.454941 255.337708
#joint 38
#vjoint 193
f 192/802 193/803 191/804
#fvcolorindex 161 161 161 
vt -1.174805 1.096680 0.0
vt -2.174805 1.096680 0.0
vt -2.174805 1.096680 0.0
f 192/805 191/806 190/807
#fvcolorindex 161 161 161 
vt -1.174805 3.096680 0.0
vt -1.174805 1.096680 0.0
vt -1.174805 1.096680 0.0
f 188/808 193/809 192/810
#fvcolorindex 161 161 161 
vt -1.174805 3.096680 0.0
vt -1.174805 1.096680 0.0
vt -1.174805 3.096680 0.0
f 188/811 192/812 189/813
#fvcolorindex 161 161 161 
g Room0D
g Room0D_primary
vt -2.174805 3.096680 0.0
vt -2.174805 3.096680 0.0
vt -1.174805 3.096680 0.0
v 254.250153 0.648785 219.353302
#joint 39
#vjoint 194
#vcolor 254.000000 254.000000 254.000000 255.000000
v 254.250153 -223.351212 219.353302
#joint 39
#vjoint 195
v 234.250153 -223.351212 219.353302
#joint 39
#vjoint 196
f 194/814 195/815 196/816
#fvcolorindex 162 162 162 
vt -2.174805 3.096680 0.0
vt -1.174805 3.096680 0.0
vt -1.174805 3.096680 0.0
v 234.250153 0.648785 219.353302
#joint 39
#vjoint 197
f 194/817 196/818 197/819
#fvcolorindex 162 162 162 
vt -2.174805 1.096680 0.0
vt -2.174805 1.096680 0.0
vt -2.174805 3.096680 0.0
v 254.250153 0.648785 255.353302
#joint 39
#vjoint 198
v 254.250153 -223.351212 255.353302
#joint 39
#vjoint 199
f 198/820 199/821 195/822
#fvcolorindex 162 162 162 
vt -2.174805 1.096680 0.0
vt -2.174805 3.096680 0.0
vt -2.174805 3.096680 0.0
f 198/823 195/824 194/825
#fvcolorindex 162 162 162 
vt -1.174805 1.096680 0.0
vt -1.174805 1.096680 0.0
vt -2.174805 1.096680 0.0
v 234.250153 0.648785 255.353302
#joint 39
#vjoint 200
v 234.250153 -223.351212 255.353302
#joint 39
#vjoint 201
f 200/826 201/827 199/828
#fvcolorindex 162 162 162 
vt -1.174805 1.096680 0.0
vt -2.174805 1.096680 0.0
vt -2.174805 1.096680 0.0
f 200/829 199/830 198/831
#fvcolorindex 162 162 162 
vt -1.174805 3.096680 0.0
vt -1.174805 1.096680 0.0
vt -1.174805 1.096680 0.0
f 196/832 201/833 200/834
#fvcolorindex 162 162 162 
vt -1.174805 3.096680 0.0
vt -1.174805 1.096680 0.0
vt -1.174805 3.096680 0.0
f 196/835 200/836 197/837
#fvcolorindex 162 162 162 
