# Created by SubDrag and the GoldenEye Setup Editor V4.4
mtllib Gun001D.mtl
#joint 0
#jointposition 234.348785 -30.545591 -182.879608
#joint 1
#jointposition -0.126129 -34.500000 -403.726074
#joint 2
#jointposition 0.000001 -20.375574 -74.143829
#joint 3
#jointposition 28.404760 -54.346611 -32.664265
#joint 4
#jointposition 50.075203 -78.841194 -10.664217
#joint 5
#jointposition 28.643808 -16.714527 20.778580
#joint 6
#jointposition 26.518341 -24.155291 60.154789
#joint 7
#jointposition 24.862719 -25.637974 87.085533
#joint 8
#jointposition 8.820323 -11.296313 21.695229
#joint 9
#jointposition 8.668718 -23.348385 71.418182
#joint 10
#jointposition 7.570724 -26.182207 98.349457
#joint 11
#jointposition -7.449820 -15.536673 21.601547
#joint 12
#jointposition -6.777196 -21.532187 62.353878
#joint 13
#jointposition -6.290759 -23.494061 85.077065
#joint 14
#jointposition -23.590879 -23.057791 21.828278
#joint 15
#jointposition -21.894306 -25.130569 56.929573
#joint 16
#jointposition -20.740978 -24.727604 74.077209
#joint 17
#jointposition 234.474915 -34.500000 -403.726013
#joint 18
#jointposition 234.348785 -20.375599 -74.143921
#joint 19
#jointposition 205.943985 -54.346600 -32.664322
#joint 20
#jointposition 184.273590 -78.841202 -10.664223
#joint 21
#jointposition 205.704987 -16.714600 20.778481
#joint 22
#jointposition 207.830490 -24.155300 60.154781
#joint 23
#jointposition 209.561584 -25.811800 87.094780
#joint 24
#jointposition 225.528473 -11.296299 21.695183
#joint 25
#jointposition 225.680069 -23.348400 71.418083
#joint 26
#jointposition 226.778076 -26.182199 98.349380
#joint 27
#jointposition 241.798599 -15.536699 21.601479
#joint 28
#jointposition 241.125977 -21.532200 62.353779
#joint 29
#jointposition 240.639542 -23.494101 85.076981
#joint 30
#jointposition 257.939697 -23.057798 21.828178
#joint 31
#jointposition 256.243103 -25.130598 56.929478
#joint 32
#jointposition 255.089798 -24.727598 74.077179
#joint 33
#jointposition 233.337463 3.141769 -157.737717
#joint 34
#jointposition 233.337463 1.328490 -55.150703
#connection 0 1
#connection 1 2
#connection 2 3
#connection 3 4
#connection 2 5
#connection 5 6
#connection 6 7
#connection 2 8
#connection 8 9
#connection 9 10
#connection 2 11
#connection 11 12
#connection 12 13
#connection 2 14
#connection 14 15
#connection 15 16
#connection 0 17
#connection 17 18
#connection 18 19
#connection 19 20
#connection 18 21
#connection 21 22
#connection 22 23
#connection 18 24
#connection 24 25
#connection 25 26
#connection 18 27
#connection 27 28
#connection 28 29
#connection 18 30
#connection 30 31
#connection 31 32
#connection 17 33
#connection 33 34
g Room23
g Room23_primary
usemtl m0CullBoth
vt 0.000000 0.000000 0.0
vt 1.000000 0.000000 0.0
vt 0.710938 1.011719 0.0
v 239.337463 1.141769 -244.737717
#joint 33
#vjoint 1
#vcolor 136.000000 136.000000 136.000000 255.000000
v 227.337463 1.141769 -244.737717
#joint 33
#vjoint 2
v 230.337463 13.141769 -233.737717
#joint 33
#vjoint 3
#vcolor 213.000000 181.000000 165.000000 255.000000
f 1/1 2/2 3/3
#fvcolorindex 1 1 2 
vt 0.000000 0.000000 0.0
vt 0.710938 1.011719 0.0
vt 0.233398 1.011719 0.0
v 236.337463 13.141769 -233.737717
#joint 33
#vjoint 4
f 1/4 3/5 4/6
#fvcolorindex 1 2 2 
usemtl m1CullBoth
vt 0.000977 -0.403320 0.0
vt -0.000977 0.991211 0.0
vt 1.000000 1.000000 0.0
v 239.337463 1.141769 -228.737717
#joint 33
#vjoint 5
#vcolor 255.000000 255.000000 255.000000 255.000000
f 5/7 1/8 4/9
#fvcolorindex 1 3 3 
vt 0.000977 -0.403320 0.0
vt 1.000000 1.000000 0.0
vt 1.000000 -0.026367 0.0
v 236.337463 12.141769 -221.737717
#joint 33
#vjoint 6
f 5/10 4/11 6/12
#fvcolorindex 1 3 3 
usemtl m2CullBoth
vt -0.008789 1.007812 0.0
vt -0.006836 -0.351562 0.0
vt 1.000000 0.000000 0.0
v 227.337463 1.141769 -228.737717
#joint 33
#vjoint 7
v 230.337463 12.141769 -221.737717
#joint 33
#vjoint 8
#vcolor 226.000000 226.000000 226.000000 255.000000
f 2/13 7/14 8/15
#fvcolorindex 3 1 4 
vt -0.008789 1.007812 0.0
vt 1.000000 0.000000 0.0
vt 1.000000 1.000000 0.0
f 2/16 8/17 3/18
#fvcolorindex 3 4 3 
vt 0.023438 1.000000 0.0
vt 1.000000 1.000000 0.0
vt 1.000000 0.000000 0.0
f 4/19 3/20 8/21
#fvcolorindex 3 3 4 
vt 0.023438 1.000000 0.0
vt 1.000000 0.000000 0.0
vt 0.000000 0.000000 0.0
f 4/22 8/23 6/24
#fvcolorindex 3 4 3 
usemtl m3CullBoth
vt 2.343750 0.162109 0.0
vt 2.345703 0.898438 0.0
vt -3.022461 1.098633 0.0
v 237.337463 13.141769 -166.737717
#joint 33
#vjoint 9
v 230.337463 13.141769 -166.737717
#joint 33
#vjoint 10
v 228.337463 11.141769 -127.737717
#joint 33
#vjoint 11
f 9/25 10/26 11/27
#fvcolorindex 3 2 3 
vt 2.343750 0.162109 0.0
vt -3.022461 1.098633 0.0
vt -3.044922 -0.110352 0.0
v 239.337463 11.141769 -127.737717
#joint 33
#vjoint 12
#vcolor 182.000000 182.000000 182.000000 255.000000
f 9/28 11/29 12/30
#fvcolorindex 3 3 5 
usemtl m4CullBoth
vt 0.277344 4.103516 0.0
vt 0.292969 4.103516 0.0
vt 0.380859 4.147461 0.0
v 235.337463 1.141769 -55.737717
#joint 33
#vjoint 13
v 235.337463 2.141769 -55.737717
#joint 33
#vjoint 14
v 234.337463 2.141769 -54.737717
#joint 33
#vjoint 15
f 13/31 14/32 15/33
#fvcolorindex 3 3 3 
vt 0.277344 4.103516 0.0
vt 0.380859 4.147461 0.0
vt 0.371094 4.147461 0.0
v 234.337463 1.141769 -54.737717
#joint 33
#vjoint 16
f 13/34 15/35 16/36
#fvcolorindex 3 3 3 
vt 0.292969 4.103516 0.0
vt 0.341797 4.103027 0.0
vt 0.380859 4.147461 0.0
v 234.337463 3.141769 -55.737717
#joint 33
#vjoint 17
f 14/37 17/38 15/39
#fvcolorindex 3 3 3 
vt 0.414062 4.102051 0.0
vt 0.498047 4.101074 0.0
vt 0.498047 4.145996 0.0
v 233.337463 4.141769 -55.737717
#joint 33
#vjoint 18
v 233.337463 3.141769 -54.737717
#joint 33
#vjoint 19
f 17/40 18/41 19/42
#fvcolorindex 3 3 3 
vt 0.414062 4.102051 0.0
vt 0.498047 4.145996 0.0
vt 0.449219 4.146484 0.0
f 17/43 19/44 15/45
#fvcolorindex 3 3 3 
vt 0.498047 4.101074 0.0
vt 0.583984 4.100586 0.0
vt 0.546875 4.145508 0.0
v 233.337463 3.141769 -55.737717
#joint 33
#vjoint 20
v 233.337463 2.141769 -54.737717
#joint 33
#vjoint 21
f 18/46 20/47 21/48
#fvcolorindex 3 3 3 
vt 0.498047 4.101074 0.0
vt 0.546875 4.145508 0.0
vt 0.498047 4.145996 0.0
f 18/49 21/50 19/51
#fvcolorindex 3 3 3 
vt 0.583984 4.100586 0.0
vt 0.654297 4.099609 0.0
vt 0.546875 4.145508 0.0
v 232.337463 3.141769 -55.737717
#joint 33
#vjoint 22
f 20/52 22/53 21/54
#fvcolorindex 3 3 3 
vt 0.654297 4.099609 0.0
vt 0.703125 4.099121 0.0
vt 0.587891 4.145020 0.0
v 232.337463 2.141769 -55.737717
#joint 33
#vjoint 23
f 22/55 23/56 21/57
#fvcolorindex 3 3 3 
vt 0.703125 4.099121 0.0
vt 0.720703 4.099121 0.0
vt 0.626953 4.144531 0.0
v 232.337463 1.141769 -55.737717
#joint 33
#vjoint 24
v 232.337463 1.141769 -54.737717
#joint 33
#vjoint 25
f 23/58 24/59 25/60
#fvcolorindex 3 3 3 
vt 0.703125 4.099121 0.0
vt 0.626953 4.144531 0.0
vt 0.617188 4.145020 0.0
f 23/61 25/62 21/63
#fvcolorindex 3 3 3 
vt 0.720703 4.099121 0.0
vt 0.617188 4.145020 0.0
vt 0.626953 4.144531 0.0
v 233.337463 1.141769 -55.737717
#joint 33
#vjoint 26
f 24/64 26/65 25/66
#fvcolorindex 3 3 3 
vt 0.703125 4.099121 0.0
vt 0.654297 4.099609 0.0
vt 0.587891 4.145020 0.0
v 232.337463 0.141769 -55.737717
#joint 33
#vjoint 27
v 233.337463 0.141769 -55.737717
#joint 33
#vjoint 28
f 24/67 27/68 28/69
#fvcolorindex 3 3 3 
vt 0.703125 4.099121 0.0
vt 0.587891 4.145020 0.0
vt 0.617188 4.145020 0.0
f 24/70 28/71 26/72
#fvcolorindex 3 3 3 
vt 0.654297 4.099609 0.0
vt 0.583984 4.100586 0.0
vt 0.546875 4.145508 0.0
v 233.337463 -0.858231 -55.737717
#joint 33
#vjoint 29
f 27/73 29/74 28/75
#fvcolorindex 3 3 3 
vt 0.498047 4.101074 0.0
vt 0.414062 4.102051 0.0
vt 0.449219 4.146484 0.0
v 234.337463 -0.858231 -55.737717
#joint 33
#vjoint 30
v 234.337463 0.141769 -55.737717
#joint 33
#vjoint 31
f 29/76 30/77 31/78
#fvcolorindex 3 3 3 
vt 0.498047 4.101074 0.0
vt 0.449219 4.146484 0.0
vt 0.498047 4.145996 0.0
f 29/79 31/80 28/81
#fvcolorindex 3 3 3 
vt 0.341797 4.103027 0.0
vt 0.292969 4.103516 0.0
vt 0.380859 4.147461 0.0
v 234.337463 1.141769 -55.737717
#joint 33
#vjoint 32
f 31/82 13/83 32/84
#fvcolorindex 3 3 3 
vt 0.292969 4.103516 0.0
vt 0.371094 4.147461 0.0
vt 0.380859 4.147461 0.0
f 13/85 16/86 32/87
#fvcolorindex 3 3 3 
vt 0.626953 4.144531 0.0
vt 0.617188 4.145020 0.0
vt 0.498047 4.162598 0.0
v 233.337463 1.141769 -54.737717
#joint 33
#vjoint 33
f 25/88 26/89 33/90
#fvcolorindex 3 3 3 
vt 0.498047 4.145996 0.0
vt 0.449219 4.146484 0.0
vt 0.498047 4.162598 0.0
f 28/91 31/92 33/93
#fvcolorindex 3 3 3 
vt 0.371094 4.147461 0.0
vt 0.380859 4.147461 0.0
vt 0.498047 4.162598 0.0
f 16/94 15/95 33/96
#fvcolorindex 3 3 3 
vt 0.408203 4.146973 0.0
vt 0.380859 4.147461 0.0
vt 0.498047 4.162598 0.0
f 31/97 32/98 33/99
#fvcolorindex 3 3 3 
vt 0.380859 4.147461 0.0
vt 0.371094 4.147461 0.0
vt 0.498047 4.162598 0.0
f 32/100 16/101 33/102
#fvcolorindex 3 3 3 
vt 0.449219 4.146484 0.0
vt 0.498047 4.145996 0.0
vt 0.498047 4.162598 0.0
f 15/103 19/104 33/105
#fvcolorindex 3 3 3 
vt 0.498047 4.145996 0.0
vt 0.546875 4.145508 0.0
vt 0.498047 4.162598 0.0
f 19/106 21/107 33/108
#fvcolorindex 3 3 3 
vt 0.617188 4.145020 0.0
vt 0.626953 4.144531 0.0
vt 0.498047 4.162598 0.0
f 21/109 25/110 33/111
#fvcolorindex 3 3 3 
vt 0.617188 4.145020 0.0
vt 0.587891 4.145020 0.0
vt 0.498047 4.162598 0.0
f 26/112 28/113 33/114
#fvcolorindex 3 3 3 
vt 0.275391 4.038574 0.0
vt 0.292969 4.038574 0.0
vt 0.292969 4.103516 0.0
v 235.337463 1.141769 -57.737717
#joint 33
#vjoint 34
v 235.337463 2.141769 -57.737717
#joint 33
#vjoint 35
f 34/115 35/116 14/117
#fvcolorindex 3 3 3 
vt 0.275391 4.038574 0.0
vt 0.292969 4.103516 0.0
vt 0.277344 4.103516 0.0
f 34/118 14/119 13/120
#fvcolorindex 3 3 3 
vt 0.292969 4.038574 0.0
vt 0.339844 4.038086 0.0
vt 0.341797 4.103027 0.0
v 234.337463 3.141769 -57.737717
#joint 33
#vjoint 36
f 35/121 36/122 17/123
#fvcolorindex 3 3 3 
vt 0.292969 4.038574 0.0
vt 0.341797 4.103027 0.0
vt 0.292969 4.103516 0.0
f 35/124 17/125 14/126
#fvcolorindex 3 3 3 
vt 0.339844 4.038086 0.0
vt 0.414062 4.037109 0.0
vt 0.414062 4.102051 0.0
v 234.337463 4.141769 -57.737717
#joint 33
#vjoint 37
f 36/127 37/128 17/129
#fvcolorindex 3 3 3 
vt 0.414062 4.037109 0.0
vt 0.498047 4.036133 0.0
vt 0.498047 4.101074 0.0
v 233.337463 4.141769 -57.737717
#joint 33
#vjoint 38
f 37/130 38/131 18/132
#fvcolorindex 3 3 3 
vt 0.414062 4.037109 0.0
vt 0.498047 4.101074 0.0
vt 0.414062 4.102051 0.0
f 37/133 18/134 17/135
#fvcolorindex 3 3 3 
vt 0.498047 4.036133 0.0
vt 0.583984 4.100586 0.0
vt 0.498047 4.101074 0.0
f 38/136 20/137 18/138
#fvcolorindex 3 3 3 
vt 0.583984 4.035156 0.0
vt 0.656250 4.034668 0.0
vt 0.654297 4.099609 0.0
v 232.337463 3.141769 -57.737717
#joint 33
#vjoint 39
f 38/139 39/140 22/141
#fvcolorindex 3 3 3 
vt 0.583984 4.035156 0.0
vt 0.654297 4.099609 0.0
vt 0.583984 4.100586 0.0
f 38/142 22/143 20/144
#fvcolorindex 3 3 3 
vt 0.656250 4.034668 0.0
vt 0.705078 4.034180 0.0
vt 0.703125 4.099121 0.0
v 232.337463 2.141769 -57.737717
#joint 33
#vjoint 40
f 39/145 40/146 23/147
#fvcolorindex 3 3 3 
vt 0.656250 4.034668 0.0
vt 0.703125 4.099121 0.0
vt 0.654297 4.099609 0.0
f 39/148 23/149 22/150
#fvcolorindex 3 3 3 
vt 0.705078 4.034180 0.0
vt 0.722656 4.033691 0.0
vt 0.720703 4.099121 0.0
v 232.337463 1.141769 -57.737717
#joint 33
#vjoint 41
f 40/151 41/152 24/153
#fvcolorindex 3 3 3 
vt 0.705078 4.034180 0.0
vt 0.720703 4.099121 0.0
vt 0.703125 4.099121 0.0
f 40/154 24/155 23/156
#fvcolorindex 3 3 3 
vt 0.722656 4.033691 0.0
vt 0.705078 4.034180 0.0
vt 0.703125 4.099121 0.0
v 232.337463 0.141769 -57.737717
#joint 33
#vjoint 42
f 41/157 42/158 24/159
#fvcolorindex 3 3 3 
vt 0.705078 4.034180 0.0
vt 0.654297 4.099609 0.0
vt 0.703125 4.099121 0.0
f 42/160 27/161 24/162
#fvcolorindex 3 3 3 
vt 0.656250 4.034668 0.0
vt 0.583984 4.035156 0.0
vt 0.583984 4.100586 0.0
v 233.337463 -0.858231 -57.737717
#joint 33
#vjoint 43
f 42/163 43/164 29/165
#fvcolorindex 3 3 3 
vt 0.656250 4.034668 0.0
vt 0.583984 4.100586 0.0
vt 0.654297 4.099609 0.0
f 42/166 29/167 27/168
#fvcolorindex 3 3 3 
vt 0.498047 4.036133 0.0
vt 0.414062 4.037109 0.0
vt 0.414062 4.102051 0.0
v 234.337463 -0.858231 -57.737717
#joint 33
#vjoint 44
f 43/169 44/170 30/171
#fvcolorindex 3 3 3 
vt 0.498047 4.036133 0.0
vt 0.414062 4.102051 0.0
vt 0.498047 4.101074 0.0
f 43/172 30/173 29/174
#fvcolorindex 3 3 3 
vt 0.414062 4.037109 0.0
vt 0.339844 4.038086 0.0
vt 0.341797 4.103027 0.0
v 234.337463 0.141769 -57.737717
#joint 33
#vjoint 45
f 44/175 45/176 31/177
#fvcolorindex 3 3 3 
vt 0.414062 4.037109 0.0
vt 0.341797 4.103027 0.0
vt 0.414062 4.102051 0.0
f 44/178 31/179 30/180
#fvcolorindex 3 3 3 
vt 0.339844 4.038086 0.0
vt 0.292969 4.038574 0.0
vt 0.292969 4.103516 0.0
v 235.337463 0.141769 -57.737717
#joint 33
#vjoint 46
f 45/181 46/182 13/183
#fvcolorindex 3 3 3 
vt 0.339844 4.038086 0.0
vt 0.292969 4.103516 0.0
vt 0.341797 4.103027 0.0
f 45/184 13/185 31/186
#fvcolorindex 3 3 3 
vt 0.292969 4.038574 0.0
vt 0.275391 4.038574 0.0
vt 0.277344 4.103516 0.0
f 46/187 34/188 13/189
#fvcolorindex 3 3 3 
usemtl m5CullBothClampSClampT
vt 0.066406 0.981445 0.0
vt 0.479492 0.478516 0.0
vt 0.927734 0.975586 0.0
v 233.337463 8.141769 -161.737717
#joint 33
#vjoint 47
#vcolor 255.000000 103.000000 0.000000 255.000000
f 9/190 47/191 10/192
#fvcolorindex 3 6 3 
usemtl m6CullBothClampSClampT
vt 0.479492 0.478516 0.0
vt 0.620117 0.411133 0.0
vt 0.927734 0.975586 0.0
v 232.337463 7.141769 -161.737717
#joint 33
#vjoint 48
f 47/193 48/194 10/195
#fvcolorindex 6 6 3 
vt 0.620117 0.411133 0.0
vt 1.261719 0.066406 0.0
vt 0.927734 0.975586 0.0
v 227.337463 4.141769 -156.737717
#joint 33
#vjoint 49
f 48/196 49/197 10/198
#fvcolorindex 6 3 3 
vt 0.331055 0.413086 0.0
vt 0.479492 0.478516 0.0
vt 0.066406 0.981445 0.0
v 234.337463 7.141769 -161.737717
#joint 33
#vjoint 50
f 50/199 47/200 9/201
#fvcolorindex 6 6 3 
vt 0.620117 0.411133 0.0
vt 0.731445 0.219727 0.0
vt 1.261719 0.066406 0.0
v 231.337463 5.141769 -156.737717
#joint 33
#vjoint 51
f 48/202 51/203 49/204
#fvcolorindex 6 6 3 
vt 0.731445 0.219727 0.0
vt 0.795898 -0.064453 0.0
vt 1.261719 0.066406 0.0
v 231.337463 2.141769 -154.737717
#joint 33
#vjoint 52
f 51/205 52/206 49/207
#fvcolorindex 6 6 3 
usemtl m5CullBothClampSClampT
vt 0.066406 0.981445 0.0
vt -0.375977 0.076172 0.0
vt 0.331055 0.413086 0.0
v 239.337463 4.141769 -156.737717
#joint 33
#vjoint 53
f 9/208 53/209 50/210
#fvcolorindex 3 3 6 
vt -0.375977 0.076172 0.0
vt 0.197266 0.222656 0.0
vt 0.331055 0.413086 0.0
v 235.337463 5.141769 -156.737717
#joint 33
#vjoint 54
f 53/211 54/212 50/213
#fvcolorindex 3 6 6 
vt -0.375977 0.076172 0.0
vt 0.098633 -0.060547 0.0
vt 0.197266 0.222656 0.0
v 236.337463 2.141769 -154.737717
#joint 33
#vjoint 55
f 53/214 55/215 54/216
#fvcolorindex 3 6 6 
vt 1.009766 1.019531 0.0
vt 0.633789 -0.221680 0.0
vt 0.291992 -0.222656 0.0
v 231.337463 6.141769 -54.737717
#joint 33
#vjoint 56
v 233.337463 2.141769 -60.737717
#joint 33
#vjoint 57
v 234.337463 2.141769 -60.737717
#joint 33
#vjoint 58
f 56/217 57/218 58/219
#fvcolorindex 3 3 3 
vt 1.009766 1.019531 0.0
vt 0.291992 -0.222656 0.0
vt -0.035156 1.016602 0.0
v 235.337463 6.141769 -54.737717
#joint 33
#vjoint 59
f 56/220 58/221 59/222
#fvcolorindex 3 3 3 
vt 1.115234 -0.292969 0.0
vt 0.633789 -0.221680 0.0
vt 1.009766 1.019531 0.0
v 231.337463 1.141769 -54.737717
#joint 33
#vjoint 60
f 60/223 57/224 56/225
#fvcolorindex 3 3 3 
vt 0.291992 -0.222656 0.0
vt -0.222656 -0.255859 0.0
vt -0.035156 1.016602 0.0
v 236.337463 1.141769 -54.737717
#joint 33
#vjoint 61
f 58/226 61/227 59/228
#fvcolorindex 3 3 3 
vt 1.031250 1.002930 0.0
vt 0.587891 0.030273 0.0
vt 0.231445 0.034180 0.0
v 235.337463 -3.858231 -54.737717
#joint 33
#vjoint 62
v 234.337463 1.141769 -61.737717
#joint 33
#vjoint 63
v 233.337463 1.141769 -61.737717
#joint 33
#vjoint 64
f 62/229 63/230 64/231
#fvcolorindex 3 3 3 
vt 1.031250 1.002930 0.0
vt 0.231445 0.034180 0.0
vt -0.056641 1.015625 0.0
v 231.337463 -3.858231 -54.737717
#joint 33
#vjoint 65
f 62/232 64/233 65/234
#fvcolorindex 3 3 3 
vt -0.056641 1.015625 0.0
vt 0.231445 0.034180 0.0
vt -0.273438 -0.003906 0.0
f 65/235 64/236 60/237
#fvcolorindex 3 3 3 
vt 1.031250 1.002930 0.0
vt 1.126953 0.047852 0.0
vt 0.587891 0.030273 0.0
f 62/238 61/239 63/240
#fvcolorindex 3 3 3 
usemtl m7CullBoth
vt 1.000000 0.000000 0.0
vt 1.000000 1.000000 0.0
vt 0.290039 1.002930 0.0
v 232.337463 1.141769 -228.737717
#joint 33
#vjoint 66
v 255.337463 -1.858231 -228.737717
#joint 33
#vjoint 67
v 255.337463 0.141769 -252.737717
#joint 33
#vjoint 68
f 66/241 67/242 68/243
#fvcolorindex 3 1 3 
vt 1.000000 0.000000 0.0
vt 0.290039 1.002930 0.0
vt 0.000000 0.000000 0.0
v 232.337463 3.141769 -261.737732
#joint 33
#vjoint 69
f 66/244 68/245 69/246
#fvcolorindex 3 3 3 
vt 0.000000 0.000000 0.0
vt 0.337891 1.004395 0.0
vt 1.000000 1.000000 0.0
v 213.337463 -0.858231 -250.737717
#joint 33
#vjoint 70
v 213.337463 -1.858231 -228.737717
#joint 33
#vjoint 71
f 69/247 70/248 71/249
#fvcolorindex 3 3 1 
vt 0.000000 0.000000 0.0
vt 1.000000 1.000000 0.0
vt 1.000000 0.000000 0.0
f 69/250 71/251 66/252
#fvcolorindex 3 1 3 
usemtl m8CullBoth
vt 5.843750 2.404297 0.0
vt 4.692383 2.339844 0.0
vt 4.758789 2.869141 0.0
v 273.337463 -22.858231 -230.737717
#joint 33
#vjoint 72
v 275.337463 -35.858231 -228.737717
#joint 33
#vjoint 73
v 275.337463 -35.858231 -236.737717
#joint 33
#vjoint 74
f 72/253 73/254 74/255
#fvcolorindex 3 3 3 
vt 5.843750 2.404297 0.0
vt 4.758789 2.869141 0.0
vt 5.889648 2.771484 0.0
v 273.337463 -22.858231 -235.737717
#joint 33
#vjoint 75
f 72/256 74/257 75/258
#fvcolorindex 3 3 3 
vt 6.803711 2.322266 0.0
vt 5.843750 2.404297 0.0
vt 5.889648 2.771484 0.0
v 264.337463 -12.858231 -229.737717
#joint 33
#vjoint 76
f 76/259 72/260 75/261
#fvcolorindex 3 3 3 
vt 6.803711 2.322266 0.0
vt 5.889648 2.771484 0.0
vt 6.895508 3.054688 0.0
v 264.337463 -11.858231 -241.737717
#joint 33
#vjoint 77
f 76/262 75/263 77/264
#fvcolorindex 3 3 3 
vt -0.036133 1.593750 0.0
vt 1.226562 1.650391 0.0
vt 1.212891 0.933594 0.0
v 197.337463 -19.858231 -229.737717
#joint 33
#vjoint 78
v 203.337463 -8.858231 -229.737717
#joint 33
#vjoint 79
v 203.337463 -7.858231 -241.737717
#joint 33
#vjoint 80
f 78/265 79/266 80/267
#fvcolorindex 3 3 3 
vt -0.036133 1.593750 0.0
vt 1.212891 0.933594 0.0
vt -0.041992 1.234375 0.0
v 197.337463 -18.858231 -235.737717
#joint 33
#vjoint 81
f 78/268 80/269 81/270
#fvcolorindex 3 3 3 
usemtl m9CullBoth
vt 7.798828 2.236328 0.0
vt 6.803711 2.322266 0.0
vt 6.895508 3.054688 0.0
f 67/271 76/272 77/273
#fvcolorindex 1 3 3 
vt 7.798828 2.236328 0.0
vt 6.895508 3.054688 0.0
vt 7.982422 3.697266 0.0
f 67/274 77/275 68/276
#fvcolorindex 1 3 3 
usemtl m8CullBoth
vt 1.226562 1.650391 0.0
vt 2.069336 1.687500 0.0
vt 2.044922 0.353516 0.0
f 79/277 71/278 70/279
#fvcolorindex 3 1 3 
vt 1.226562 1.650391 0.0
vt 2.044922 0.353516 0.0
vt 1.212891 0.933594 0.0
f 79/280 70/281 80/282
#fvcolorindex 3 3 3 
vt -1.521484 1.685547 0.0
vt -0.036133 1.593750 0.0
vt -0.041992 1.234375 0.0
v 194.337463 -32.858231 -227.737717
#joint 33
#vjoint 82
f 82/283 78/284 81/285
#fvcolorindex 3 3 3 
vt -1.521484 1.685547 0.0
vt -0.041992 1.234375 0.0
vt -1.531250 1.167969 0.0
v 194.337463 -31.858231 -236.737717
#joint 33
#vjoint 83
f 82/286 81/287 83/288
#fvcolorindex 3 3 3 
vt -0.465820 -0.136719 0.0
vt -0.473633 0.609375 0.0
vt 1.612305 0.609375 0.0
v 200.337463 -31.858231 -236.737717
#joint 33
#vjoint 84
f 84/289 83/290 81/291
#fvcolorindex 3 3 3 
vt -0.465820 -0.136719 0.0
vt 1.612305 0.609375 0.0
vt 1.340820 -0.136719 0.0
v 203.337463 -21.858231 -236.737717
#joint 33
#vjoint 85
f 84/292 81/293 85/294
#fvcolorindex 3 3 3 
vt -0.422852 0.560547 0.0
vt 1.526367 0.542969 0.0
vt 1.296875 -0.150391 0.0
v 210.337463 -11.858231 -240.737717
#joint 33
#vjoint 86
f 81/295 80/296 86/297
#fvcolorindex 3 3 3 
vt -0.422852 0.560547 0.0
vt 1.296875 -0.150391 0.0
vt -0.469727 0.035156 0.0
f 81/298 86/299 85/300
#fvcolorindex 3 3 3 
vt -0.399414 0.021484 0.0
vt -0.481445 0.582031 0.0
vt 1.579102 0.574219 0.0
f 86/301 80/302 70/303
#fvcolorindex 3 3 3 
vt -0.399414 0.021484 0.0
vt 1.579102 0.574219 0.0
vt 1.385742 0.011719 0.0
v 218.337463 -4.858231 -249.737717
#joint 33
#vjoint 87
f 86/304 70/305 87/306
#fvcolorindex 3 3 3 
vt -0.544922 0.582031 0.0
vt -0.336914 0.015625 0.0
vt 1.430664 0.011719 0.0
v 270.337463 -35.858231 -237.737717
#joint 33
#vjoint 88
v 268.337463 -24.858231 -236.737717
#joint 33
#vjoint 89
f 74/307 88/308 89/309
#fvcolorindex 3 3 3 
vt -0.544922 0.582031 0.0
vt 1.430664 0.011719 0.0
vt 1.495117 0.576172 0.0
f 74/310 89/311 75/312
#fvcolorindex 3 3 3 
vt 1.459961 -0.003906 0.0
vt 1.529297 0.591797 0.0
vt -0.610352 0.585938 0.0
v 260.337463 -14.858231 -241.737717
#joint 33
#vjoint 90
f 90/313 77/314 75/315
#fvcolorindex 3 3 3 
vt 1.459961 -0.003906 0.0
vt -0.610352 0.585938 0.0
vt -0.393555 -0.007812 0.0
f 90/316 75/317 89/318
#fvcolorindex 3 3 3 
vt -0.390625 0.011719 0.0
vt 1.406250 -0.041016 0.0
vt 1.631836 0.564453 0.0
v 254.337463 -4.858231 -249.737717
#joint 33
#vjoint 91
f 90/319 91/320 68/321
#fvcolorindex 3 3 3 
vt -0.390625 0.011719 0.0
vt 1.631836 0.564453 0.0
vt -0.587891 0.650391 0.0
f 90/322 68/323 77/324
#fvcolorindex 3 3 3 
vt -0.341797 0.123047 0.0
vt 1.598633 0.564453 0.0
vt -0.445312 0.583984 0.0
f 91/325 69/326 68/327
#fvcolorindex 3 3 3 
vt -1.272461 0.158203 0.0
vt 0.591797 0.597656 0.0
vt 0.125000 -0.236328 0.0
v 233.337463 -2.858231 -249.737717
#joint 33
#vjoint 92
f 87/328 69/329 92/330
#fvcolorindex 3 3 3 
vt -0.341797 0.123047 0.0
vt 1.329102 -0.314453 0.0
vt 1.598633 0.564453 0.0
f 91/331 92/332 69/333
#fvcolorindex 3 3 3 
vt -1.272461 0.158203 0.0
vt -1.813477 0.708984 0.0
vt 0.591797 0.597656 0.0
f 87/334 70/335 69/336
#fvcolorindex 3 3 3 
vt 2.682617 0.570312 0.0
vt 1.596680 0.007812 0.0
vt -1.399414 -0.013672 0.0
v 226.337463 2.141769 -128.737717
#joint 33
#vjoint 93
f 10/337 49/338 93/339
#fvcolorindex 3 3 3 
vt 2.682617 0.570312 0.0
vt -1.399414 -0.013672 0.0
vt -1.426758 0.542969 0.0
f 10/340 93/341 11/342
#fvcolorindex 3 3 3 
vt -0.415039 0.617188 0.0
vt -0.408203 0.056641 0.0
vt 0.926758 0.003906 0.0
v 221.337463 9.141769 -118.737717
#joint 33
#vjoint 94
v 221.337463 6.141769 -119.737717
#joint 33
#vjoint 95
#vcolor 255.000000 58.000000 0.000000 255.000000
v 222.337463 5.141769 -96.737717
#joint 33
#vjoint 96
f 94/343 95/344 96/345
#fvcolorindex 3 7 7 
vt -0.415039 0.617188 0.0
vt 0.926758 0.003906 0.0
vt 0.887695 0.578125 0.0
v 223.337463 8.141769 -96.737717
#joint 33
#vjoint 97
f 94/346 96/347 97/348
#fvcolorindex 3 7 3 
vt 0.426758 -0.062500 0.0
vt 0.588867 0.527344 0.0
vt 1.857422 0.570312 0.0
f 11/349 94/350 97/351
#fvcolorindex 3 3 3 
vt 1.777344 0.039062 0.0
vt 0.426758 -0.062500 0.0
vt 1.857422 0.570312 0.0
v 229.337463 16.141769 -102.737717
#joint 33
#vjoint 98
f 98/352 11/353 97/354
#fvcolorindex 3 3 3 
vt 1.840820 0.595703 0.0
vt 0.399414 0.136719 0.0
vt 1.765625 0.189453 0.0
v 244.337463 8.141769 -96.737717
#joint 33
#vjoint 99
v 237.337463 16.141769 -102.737717
#joint 33
#vjoint 100
f 99/355 12/356 100/357
#fvcolorindex 3 3 3 
vt -0.166016 0.578125 0.0
vt -0.174805 0.027344 0.0
vt 2.515625 0.023438 0.0
f 97/358 96/359 60/360
#fvcolorindex 3 7 3 
vt -0.166016 0.578125 0.0
vt 2.515625 0.023438 0.0
vt 2.505859 0.677734 0.0
f 97/361 60/362 56/363
#fvcolorindex 3 3 3 
vt 2.507812 -0.044922 0.0
vt -0.103516 0.025391 0.0
vt -0.133789 0.626953 0.0
v 244.337463 5.141769 -96.737717
#joint 33
#vjoint 101
f 61/364 101/365 99/366
#fvcolorindex 3 7 3 
vt 2.507812 -0.044922 0.0
vt -0.133789 0.626953 0.0
vt 2.489258 0.652344 0.0
f 61/367 99/368 59/369
#fvcolorindex 3 3 3 
usemtl m10CullBoth
vt 0.862305 0.015625 0.0
vt -0.505859 0.023438 0.0
vt -0.400391 0.615234 0.0
v 245.337463 6.141769 -119.737717
#joint 33
#vjoint 102
v 245.337463 9.141769 -118.737717
#joint 33
#vjoint 103
f 101/370 102/371 103/372
#fvcolorindex 7 7 3 
usemtl m8CullBoth
vt 0.889648 0.626953 0.0
vt 0.862305 0.015625 0.0
vt -0.400391 0.615234 0.0
f 99/373 101/374 103/375
#fvcolorindex 3 7 3 
vt 1.840820 0.595703 0.0
vt 1.765625 0.189453 0.0
vt 3.252930 0.271484 0.0
v 237.337463 12.141769 -76.737717
#joint 33
#vjoint 104
f 99/376 100/377 104/378
#fvcolorindex 3 3 3 
vt 3.257812 0.148438 0.0
vt 1.777344 0.039062 0.0
vt 1.857422 0.570312 0.0
v 231.337463 12.141769 -76.737717
#joint 33
#vjoint 105
f 105/379 98/380 97/381
#fvcolorindex 3 3 3 
vt 1.840820 0.595703 0.0
vt 0.592773 0.582031 0.0
vt 0.399414 0.136719 0.0
f 99/382 103/383 12/384
#fvcolorindex 3 3 3 
vt 3.257812 0.148438 0.0
vt 1.857422 0.570312 0.0
vt 4.490234 0.267578 0.0
f 105/385 97/386 56/387
#fvcolorindex 3 3 3 
vt 1.840820 0.595703 0.0
vt 3.252930 0.271484 0.0
vt 4.523438 0.316406 0.0
f 99/388 104/389 59/390
#fvcolorindex 3 3 3 
vt -0.356445 0.011719 0.0
vt 2.630859 -0.015625 0.0
vt 3.720703 0.552734 0.0
v 241.337463 2.141769 -128.737717
#joint 33
#vjoint 106
f 106/391 53/392 9/393
#fvcolorindex 3 3 3 
vt -0.356445 0.011719 0.0
vt 3.720703 0.552734 0.0
vt -0.387695 0.591797 0.0
f 106/394 9/395 12/396
#fvcolorindex 3 3 3 
vt 0.590820 0.689453 0.0
vt 0.542969 -0.041016 0.0
vt -1.024414 0.066406 0.0
v 221.337463 1.141769 -119.737717
#joint 33
#vjoint 107
v 221.337463 5.141769 -120.737717
#joint 33
#vjoint 108
f 107/397 108/398 93/399
#fvcolorindex 3 7 3 
vt 0.590820 0.689453 0.0
vt -1.024414 0.066406 0.0
vt -1.797852 1.000000 0.0
v 228.337463 -4.858231 -132.737717
#joint 33
#vjoint 109
#vcolor 167.000000 167.000000 167.000000 255.000000
f 107/400 93/401 109/402
#fvcolorindex 3 3 8 
usemtl m11CullBoth
vt 1.491211 0.552734 0.0
vt 1.609375 0.046875 0.0
vt 0.080078 0.044922 0.0
f 109/403 93/404 49/405
#fvcolorindex 8 3 3 
vt 1.491211 0.552734 0.0
vt 0.080078 0.044922 0.0
vt -0.601562 0.576172 0.0
v 231.337463 -2.858231 -171.737717
#joint 33
#vjoint 110
f 109/406 49/407 110/408
#fvcolorindex 8 3 3 
vt -0.714844 0.910156 0.0
vt 0.065430 0.042969 0.0
vt 1.458008 0.021484 0.0
v 239.337463 -4.858231 -132.737717
#joint 33
#vjoint 111
v 245.337463 5.141769 -120.737717
#joint 33
#vjoint 112
f 111/409 106/410 112/411
#fvcolorindex 8 3 7 
vt -0.714844 0.910156 0.0
vt 1.458008 0.021484 0.0
vt 1.546875 0.775391 0.0
v 245.337463 1.141769 -119.737717
#joint 33
#vjoint 113
f 111/412 112/413 113/414
#fvcolorindex 8 7 3 
usemtl m8CullBoth
vt -0.584961 0.638672 0.0
vt 0.254883 -0.039062 0.0
vt 1.787109 -0.082031 0.0
v 236.337463 -2.858231 -171.737717
#joint 33
#vjoint 114
f 114/415 53/416 106/417
#fvcolorindex 3 3 3 
vt -0.584961 0.638672 0.0
vt 1.787109 -0.082031 0.0
vt 1.516602 0.574219 0.0
f 114/418 106/419 111/420
#fvcolorindex 3 3 8 
usemtl m11CullBoth
vt 2.503906 -0.312500 0.0
vt 0.405273 0.031250 0.0
vt 0.414062 0.892578 0.0
f 109/421 110/422 114/423
#fvcolorindex 8 3 3 
vt 2.503906 -0.312500 0.0
vt 0.414062 0.892578 0.0
vt 2.519531 1.222656 0.0
f 109/424 114/425 111/426
#fvcolorindex 8 3 8 
usemtl m8CullBoth
vt 0.657227 0.617188 0.0
vt 0.617188 -0.064453 0.0
vt -0.487305 -0.058594 0.0
v 223.337463 0.141769 -97.737717
#joint 33
#vjoint 115
v 222.337463 4.141769 -97.737717
#joint 33
#vjoint 116
f 115/427 116/428 108/429
#fvcolorindex 3 7 7 
vt 0.657227 0.617188 0.0
vt -0.487305 -0.058594 0.0
vt -0.422852 0.613281 0.0
f 115/430 108/431 107/432
#fvcolorindex 3 7 3 
vt 0.653320 0.593750 0.0
vt -0.419922 0.603516 0.0
vt -0.444336 0.009766 0.0
f 115/433 107/434 109/435
#fvcolorindex 3 3 8 
vt 3.061523 0.189453 0.0
vt 0.653320 0.593750 0.0
vt 1.963867 0.134766 0.0
v 230.337463 -7.858231 -79.737717
#joint 33
#vjoint 117
f 65/436 115/437 117/438
#fvcolorindex 3 3 8 
vt 0.653320 0.593750 0.0
vt -0.444336 0.009766 0.0
vt 1.963867 0.134766 0.0
f 115/439 109/440 117/441
#fvcolorindex 3 8 8 
vt 3.116211 0.621094 0.0
vt 1.964844 0.750000 0.0
vt 0.654297 0.335938 0.0
v 237.337463 -7.858231 -79.737717
#joint 33
#vjoint 118
v 244.337463 0.141769 -97.737717
#joint 33
#vjoint 119
f 62/442 118/443 119/444
#fvcolorindex 3 8 3 
usemtl m11CullBoth
vt 1.964844 0.750000 0.0
vt -0.499023 1.154297 0.0
vt 0.654297 0.335938 0.0
f 118/445 111/446 119/447
#fvcolorindex 8 8 3 
usemtl m8CullBoth
vt 3.981445 0.136719 0.0
vt 3.990234 0.685547 0.0
vt 2.603516 0.861328 0.0
f 62/448 65/449 117/450
#fvcolorindex 3 3 8 
vt 3.981445 0.136719 0.0
vt 2.603516 0.861328 0.0
vt -0.446289 1.238281 0.0
f 62/451 117/452 109/453
#fvcolorindex 3 8 8 
vt 3.981445 0.136719 0.0
vt -0.446289 1.238281 0.0
vt -0.458008 -0.130859 0.0
f 62/454 109/455 111/456
#fvcolorindex 3 8 8 
vt 3.981445 0.136719 0.0
vt -0.458008 -0.130859 0.0
vt 2.602539 -0.001953 0.0
f 62/457 111/458 118/459
#fvcolorindex 3 8 8 
vt 2.051758 0.242188 0.0
vt 2.024414 1.289062 0.0
vt -0.372070 1.216797 0.0
f 65/460 60/461 116/462
#fvcolorindex 3 3 7 
vt 2.051758 0.242188 0.0
vt -0.372070 1.216797 0.0
vt -0.333008 0.304688 0.0
f 65/463 116/464 115/465
#fvcolorindex 3 7 3 
vt 2.131836 0.595703 0.0
vt -0.337891 0.564453 0.0
vt -0.295898 0.226562 0.0
v 244.337463 4.141769 -97.737717
#joint 33
#vjoint 120
f 62/466 119/467 120/468
#fvcolorindex 3 3 7 
vt 2.131836 0.595703 0.0
vt -0.295898 0.226562 0.0
vt 2.161133 0.232422 0.0
f 62/469 120/470 61/471
#fvcolorindex 3 7 3 
vt 0.577148 0.724609 0.0
vt 0.541992 0.126953 0.0
vt 1.693359 0.031250 0.0
f 113/472 112/473 120/474
#fvcolorindex 3 7 7 
usemtl m11CullBoth
vt -0.499023 1.154297 0.0
vt -0.412109 0.421875 0.0
vt 0.654297 0.335938 0.0
f 111/475 113/476 119/477
#fvcolorindex 8 3 3 
usemtl m8CullBoth
vt 0.577148 0.724609 0.0
vt 1.693359 0.031250 0.0
vt 1.662109 0.644531 0.0
f 113/478 120/479 119/480
#fvcolorindex 3 7 3 
vt 2.036133 0.447266 0.0
vt 0.469727 0.316406 0.0
vt 0.452148 1.046875 0.0
v 260.337463 -15.858231 -98.737717
#joint 33
#vjoint 121
v 262.337463 -27.858231 -96.737717
#joint 33
#vjoint 122
v 262.337463 -26.858231 -104.737717
#joint 33
#vjoint 123
f 121/481 122/482 123/483
#fvcolorindex 3 3 3 
vt 2.036133 0.447266 0.0
vt 0.452148 1.046875 0.0
vt 2.023438 0.953125 0.0
v 260.337463 -15.858231 -104.737717
#joint 33
#vjoint 124
f 121/484 123/485 124/486
#fvcolorindex 3 3 3 
vt 3.487305 0.359375 0.0
vt 2.036133 0.447266 0.0
vt 2.023438 0.953125 0.0
v 254.337463 -6.858231 -97.737717
#joint 33
#vjoint 125
f 125/487 121/488 124/489
#fvcolorindex 3 3 3 
vt 3.487305 0.359375 0.0
vt 2.023438 0.953125 0.0
vt 3.462891 1.371094 0.0
v 254.337463 -5.858231 -109.737717
#joint 33
#vjoint 126
f 125/490 124/491 126/492
#fvcolorindex 3 3 3 
vt -2.362305 1.654297 0.0
vt 0.191406 1.507812 0.0
vt 0.115234 0.980469 0.0
v 207.337463 -27.858231 -96.737717
#joint 33
#vjoint 127
v 209.337463 -15.858231 -98.737717
#joint 33
#vjoint 128
v 209.337463 -15.858231 -104.737717
#joint 33
#vjoint 129
f 127/493 128/494 129/495
#fvcolorindex 3 3 3 
vt -2.362305 1.654297 0.0
vt 0.115234 0.980469 0.0
vt -2.472656 0.890625 0.0
v 207.337463 -26.858231 -104.737717
#joint 33
#vjoint 130
f 127/496 129/497 130/498
#fvcolorindex 3 3 3 
vt 4.599609 0.292969 0.0
vt 3.487305 0.359375 0.0
vt 3.462891 1.371094 0.0
f 119/499 125/500 126/501
#fvcolorindex 3 3 3 
vt 4.599609 0.292969 0.0
vt 3.462891 1.371094 0.0
vt 4.508789 2.167969 0.0
f 119/502 126/503 113/504
#fvcolorindex 3 3 3 
vt 2.384766 1.582031 0.0
vt 3.850586 1.632812 0.0
vt 3.567383 -0.333984 0.0
v 214.337463 -6.858231 -97.737717
#joint 33
#vjoint 131
f 131/505 115/506 107/507
#fvcolorindex 3 3 3 
vt 2.384766 1.582031 0.0
vt 3.567383 -0.333984 0.0
vt 2.232422 0.525391 0.0
v 214.337463 -5.858231 -109.737717
#joint 33
#vjoint 132
f 131/508 107/509 132/510
#fvcolorindex 3 3 3 
vt 0.191406 1.507812 0.0
vt 2.384766 1.582031 0.0
vt 2.232422 0.525391 0.0
f 128/511 131/512 132/513
#fvcolorindex 3 3 3 
vt 0.191406 1.507812 0.0
vt 2.232422 0.525391 0.0
vt 0.115234 0.980469 0.0
f 128/514 132/515 129/516
#fvcolorindex 3 3 3 
vt 1.178711 0.669922 0.0
vt 0.762695 -0.146484 0.0
vt -1.563477 0.054688 0.0
v 212.337463 -17.858231 -103.737717
#joint 33
#vjoint 133
v 210.337463 -27.858231 -104.737717
#joint 33
#vjoint 134
f 129/517 133/518 134/519
#fvcolorindex 3 3 3 
vt 1.178711 0.669922 0.0
vt -1.563477 0.054688 0.0
vt -1.507812 0.902344 0.0
f 129/520 134/521 130/522
#fvcolorindex 3 3 3 
vt -0.954102 0.089844 0.0
vt -0.838867 0.578125 0.0
vt 1.181641 0.496094 0.0
f 133/523 129/524 132/525
#fvcolorindex 3 3 3 
vt -0.954102 0.089844 0.0
vt 1.181641 0.496094 0.0
vt 0.794922 0.017578 0.0
v 217.337463 -8.858231 -108.737717
#joint 33
#vjoint 135
f 133/526 132/527 135/528
#fvcolorindex 3 3 3 
vt 0.324219 -0.074219 0.0
vt 0.318359 0.476562 0.0
vt 1.384766 0.615234 0.0
f 135/529 132/530 107/531
#fvcolorindex 3 3 3 
vt 0.324219 -0.074219 0.0
vt 1.384766 0.615234 0.0
vt 1.248047 0.046875 0.0
v 223.337463 -2.858231 -116.737717
#joint 33
#vjoint 136
f 135/532 107/533 136/534
#fvcolorindex 3 3 3 
vt -0.546875 0.609375 0.0
vt -0.272461 -0.039062 0.0
vt 1.077148 -0.041016 0.0
v 258.337463 -27.858231 -104.737717
#joint 33
#vjoint 137
v 256.337463 -17.858231 -103.737717
#joint 33
#vjoint 138
f 123/535 137/536 138/537
#fvcolorindex 3 3 3 
vt -0.546875 0.609375 0.0
vt 1.077148 -0.041016 0.0
vt 1.013672 0.607422 0.0
f 123/538 138/539 124/540
#fvcolorindex 3 3 3 
vt 1.388672 -0.019531 0.0
vt 1.525391 0.560547 0.0
vt -0.017578 0.583984 0.0
v 251.337463 -8.858231 -108.737717
#joint 33
#vjoint 139
f 139/541 126/542 124/543
#fvcolorindex 3 3 3 
vt 1.388672 -0.019531 0.0
vt -0.017578 0.583984 0.0
vt 0.052734 0.000000 0.0
f 139/544 124/545 138/546
#fvcolorindex 3 3 3 
vt -0.583008 0.771484 0.0
vt -0.423828 -0.275391 0.0
vt 0.858398 -0.601562 0.0
v 243.337463 -2.858231 -116.737717
#joint 33
#vjoint 140
f 126/547 139/548 140/549
#fvcolorindex 3 3 3 
vt -0.583008 0.771484 0.0
vt 0.858398 -0.601562 0.0
vt 0.765625 0.648438 0.0
f 126/550 140/551 113/552
#fvcolorindex 3 3 3 
usemtl m12CullBoth
vt 1.150391 0.022461 0.0
vt 1.264648 1.653320 0.0
vt 0.171875 1.671875 0.0
#vcolor 240.000000 240.000000 240.000000 255.000000
f 100/553 12/554 11/555
#fvcolorindex 3 8 9 
vt 1.150391 0.022461 0.0
vt 0.171875 1.671875 0.0
vt 0.294922 0.030273 0.0
f 100/556 11/557 98/558
#fvcolorindex 3 9 3 
vt 1.302734 0.004883 0.0
vt 1.440430 1.993164 0.0
vt -0.005859 1.976562 0.0
f 104/559 100/560 98/561
#fvcolorindex 3 3 3 
vt 1.302734 0.004883 0.0
vt -0.005859 1.976562 0.0
vt 0.229492 -0.006836 0.0
f 104/562 98/563 105/564
#fvcolorindex 3 3 3 
vt 1.314453 1.579102 0.0
vt 0.120117 1.581055 0.0
vt 0.323242 0.025391 0.0
f 104/565 105/566 56/567
#fvcolorindex 3 3 3 
vt 1.314453 1.579102 0.0
vt 0.323242 0.025391 0.0
vt 1.146484 0.024414 0.0
f 104/568 56/569 59/570
#fvcolorindex 3 3 3 
usemtl m13CullBoth
vt -0.046875 1.021484 0.0
vt 0.023438 -0.154297 0.0
vt 1.007812 0.080078 0.0
f 11/571 93/572 95/573
#fvcolorindex 3 3 7 
vt -0.046875 1.021484 0.0
vt 1.007812 0.080078 0.0
vt 1.101562 0.544922 0.0
f 11/574 95/575 94/576
#fvcolorindex 3 7 3 
vt -0.257812 0.457031 0.0
vt -0.085938 -0.001953 0.0
vt 0.937500 -0.207031 0.0
f 103/577 102/578 106/579
#fvcolorindex 3 7 3 
vt -0.257812 0.457031 0.0
vt 0.937500 -0.207031 0.0
vt 1.000000 1.023438 0.0
f 103/580 106/581 12/582
#fvcolorindex 3 3 3 
usemtl m4CullBoth
vt 0.025391 3.083008 0.0
vt 0.525391 3.083008 0.0
vt 0.884766 0.001953 0.0
v 233.337463 10.141769 -131.737717
#joint 33
#vjoint 141
f 43/583 37/584 141/585
#fvcolorindex 3 3 3 
vt 0.025391 3.083008 0.0
vt 0.884766 0.001953 0.0
vt 0.000000 0.000000 0.0
v 232.337463 1.141769 -132.737717
#joint 33
#vjoint 142
f 43/586 141/587 142/588
#fvcolorindex 3 3 3 
usemtl m14CullBoth
vt 0.000000 0.000000 0.0
vt -0.060547 -0.001953 0.0
vt -0.939453 -0.001953 0.0
v 240.337463 -6.858231 -75.737717
#joint 33
#vjoint 143
f 143/589 1/590 2/591
#fvcolorindex 8 3 3 
vt 0.000000 0.000000 0.0
vt -0.939453 -0.001953 0.0
vt -1.000000 0.000000 0.0
v 226.337463 -6.858231 -75.737717
#joint 33
#vjoint 144
f 143/592 2/593 144/594
#fvcolorindex 8 3 8 
g Room25
g Room25_primary
usemtl m1CullBoth
vt 1.000000 0.000000 0.0
vt 0.766602 1.000000 0.0
vt 0.277344 1.000000 0.0
v 239.337463 1.141769 -228.737717
#joint 33
#vjoint 145
#vcolor 136.000000 136.000000 136.000000 255.000000
v 236.337463 12.141769 -221.737717
#joint 33
#vjoint 146
#vcolor 255.000000 255.000000 255.000000 255.000000
v 230.337463 12.141769 -221.737717
#joint 33
#vjoint 147
#vcolor 254.000000 254.000000 254.000000 255.000000
f 145/595 146/596 147/597
#fvcolorindex 10 11 12 
vt 1.000000 0.000000 0.0
vt 0.277344 1.000000 0.0
vt 0.000000 0.000000 0.0
v 227.337463 1.141769 -228.737717
#joint 33
#vjoint 148
f 145/598 147/599 148/600
#fvcolorindex 10 12 12 
usemtl m15CullBoth
vt -0.102539 0.257812 0.0
vt 1.252930 0.250000 0.0
vt 1.229492 1.746094 0.0
v 252.348785 -4.545591 -229.879608
#joint 0
#vjoint 149
v 232.348785 -3.545591 -228.879608
#joint 0
#vjoint 150
v 233.337463 -2.858231 -249.737717
#joint 33
#vjoint 151
f 149/601 150/602 151/603
#fvcolorindex 12 12 12 
vt -0.102539 0.257812 0.0
vt 1.229492 1.746094 0.0
vt -0.182617 1.707031 0.0
v 254.337463 -4.858231 -249.737717
#joint 33
#vjoint 152
f 149/604 151/605 152/606
#fvcolorindex 12 12 12 
vt 1.000000 1.699219 0.0
vt 0.060547 1.712891 0.0
vt 0.000000 0.345703 0.0
v 218.348785 -5.545591 -230.879608
#joint 0
#vjoint 153
v 218.337463 -4.858231 -249.737717
#joint 33
#vjoint 154
f 150/607 153/608 154/609
#fvcolorindex 12 12 12 
vt 1.000000 1.699219 0.0
vt 0.000000 0.345703 0.0
vt 1.000000 0.234375 0.0
f 150/610 154/611 151/612
#fvcolorindex 12 12 12 
vt 1.430664 0.011719 0.0
vt -0.336914 0.015625 0.0
vt -0.544922 0.582031 0.0
v 268.348785 -24.545591 -230.879608
#joint 0
#vjoint 155
v 270.348785 -35.545593 -228.879608
#joint 0
#vjoint 156
v 275.337463 -35.858231 -228.737717
#joint 33
#vjoint 157
f 155/613 156/614 157/615
#fvcolorindex 12 12 12 
vt 1.430664 0.011719 0.0
vt -0.544922 0.582031 0.0
vt 1.495117 0.576172 0.0
v 273.337463 -22.858231 -230.737717
#joint 33
#vjoint 158
f 155/616 157/617 158/618
#fvcolorindex 12 12 12 
vt 1.459961 -0.003906 0.0
vt -0.393555 -0.007812 0.0
vt -0.610352 0.585938 0.0
v 260.348785 -14.545591 -230.879608
#joint 0
#vjoint 159
f 159/619 155/620 158/621
#fvcolorindex 12 12 12 
vt 1.459961 -0.003906 0.0
vt -0.610352 0.585938 0.0
vt 1.529297 0.591797 0.0
v 264.337463 -12.858231 -229.737717
#joint 33
#vjoint 160
f 159/622 158/623 160/624
#fvcolorindex 12 12 12 
vt 1.406250 -0.041016 0.0
vt -0.390625 0.011719 0.0
vt -0.587891 0.650391 0.0
f 149/625 159/626 160/627
#fvcolorindex 12 12 12 
vt 1.406250 -0.041016 0.0
vt -0.587891 0.650391 0.0
vt 1.631836 0.564453 0.0
v 255.337463 -1.858231 -228.737717
#joint 33
#vjoint 161
f 149/628 160/629 161/630
#fvcolorindex 12 12 12 
vt -0.465820 -0.136719 0.0
vt 1.340820 -0.136719 0.0
vt 1.612305 0.609375 0.0
v 200.348785 -31.545591 -228.879608
#joint 0
#vjoint 162
v 203.348785 -21.545591 -229.879608
#joint 0
#vjoint 163
v 197.337463 -19.858231 -229.737717
#joint 33
#vjoint 164
f 162/631 163/632 164/633
#fvcolorindex 12 12 12 
vt -0.465820 -0.136719 0.0
vt 1.612305 0.609375 0.0
vt -0.473633 0.609375 0.0
v 194.337463 -32.858231 -227.737717
#joint 33
#vjoint 165
f 162/634 164/635 165/636
#fvcolorindex 12 12 12 
vt -0.469727 0.035156 0.0
vt 1.296875 -0.150391 0.0
vt 1.526367 0.542969 0.0
v 210.348785 -11.545591 -230.879608
#joint 0
#vjoint 166
v 203.337463 -8.858231 -229.737717
#joint 33
#vjoint 167
f 163/637 166/638 167/639
#fvcolorindex 12 12 12 
vt -0.469727 0.035156 0.0
vt 1.526367 0.542969 0.0
vt -0.422852 0.560547 0.0
f 163/640 167/641 164/642
#fvcolorindex 12 12 12 
vt -0.399414 0.021484 0.0
vt 1.385742 0.011719 0.0
vt 1.573242 0.574219 0.0
v 213.337463 -1.858231 -228.737717
#joint 33
#vjoint 168
f 166/643 153/644 168/645
#fvcolorindex 12 12 12 
vt -0.399414 0.021484 0.0
vt 1.573242 0.574219 0.0
vt -0.481445 0.582031 0.0
f 166/646 168/647 167/648
#fvcolorindex 12 12 12 
vt -1.531250 1.167969 0.0
vt -1.531250 1.167969 0.0
vt -1.521484 1.685547 0.0
v 194.337463 -31.858231 -236.737717
#joint 33
#vjoint 169
v 200.337463 -31.858231 -236.737717
#joint 33
#vjoint 170
f 169/649 170/650 162/651
#fvcolorindex 12 12 12 
vt -1.531250 1.167969 0.0
vt -1.521484 1.685547 0.0
vt -1.521484 1.685547 0.0
f 169/652 162/653 165/654
#fvcolorindex 12 12 12 
vt -1.521484 1.685547 0.0
vt -1.531250 1.167969 0.0
vt -0.041992 1.234375 0.0
v 203.337463 -21.858231 -236.737717
#joint 33
#vjoint 171
f 162/655 170/656 171/657
#fvcolorindex 12 12 12 
vt -1.521484 1.685547 0.0
vt -0.041992 1.234375 0.0
vt -0.036133 1.593750 0.0
f 162/658 171/659 163/660
#fvcolorindex 12 12 12 
vt -0.036133 1.593750 0.0
vt -0.041992 1.234375 0.0
vt 1.212891 0.933594 0.0
v 210.337463 -11.858231 -240.737717
#joint 33
#vjoint 172
f 163/661 171/662 172/663
#fvcolorindex 12 12 12 
vt -0.036133 1.593750 0.0
vt 1.212891 0.933594 0.0
vt 1.226562 1.650391 0.0
f 163/664 172/665 166/666
#fvcolorindex 12 12 12 
vt 1.226562 1.650391 0.0
vt 1.212891 0.933594 0.0
vt 2.044922 0.353516 0.0
f 166/667 172/668 154/669
#fvcolorindex 12 12 12 
vt 1.226562 1.650391 0.0
vt 2.044922 0.353516 0.0
vt 2.069336 1.687500 0.0
f 166/670 154/671 153/672
#fvcolorindex 12 12 12 
vt 4.758789 2.869141 0.0
vt 4.692383 2.339844 0.0
vt 4.692383 2.339844 0.0
v 275.337463 -35.858231 -236.737717
#joint 33
#vjoint 173
f 173/673 157/674 156/675
#fvcolorindex 12 12 12 
vt 4.758789 2.869141 0.0
vt 4.692383 2.339844 0.0
vt 4.758789 2.869141 0.0
v 270.337463 -35.858231 -237.737717
#joint 33
#vjoint 174
f 173/676 156/677 174/678
#fvcolorindex 12 12 12 
vt 4.758789 2.869141 0.0
vt 4.692383 2.339844 0.0
vt 5.843750 2.404297 0.0
f 174/679 156/680 155/681
#fvcolorindex 12 12 12 
vt 4.758789 2.869141 0.0
vt 5.843750 2.404297 0.0
vt 5.889648 2.771484 0.0
v 268.337463 -24.858231 -236.737717
#joint 33
#vjoint 175
f 174/682 155/683 175/684
#fvcolorindex 12 12 12 
vt 5.889648 2.771484 0.0
vt 5.843750 2.404297 0.0
vt 6.803711 2.322266 0.0
f 175/685 155/686 159/687
#fvcolorindex 12 12 12 
vt 5.889648 2.771484 0.0
vt 6.803711 2.322266 0.0
vt 6.895508 3.054688 0.0
v 260.337463 -14.858231 -241.737717
#joint 33
#vjoint 176
f 175/688 159/689 176/690
#fvcolorindex 12 12 12 
vt 6.895508 3.054688 0.0
vt 6.803711 2.322266 0.0
vt 7.798828 2.236328 0.0
f 176/691 159/692 149/693
#fvcolorindex 12 12 12 
vt 6.895508 3.054688 0.0
vt 7.798828 2.236328 0.0
vt 7.982422 3.697266 0.0
f 176/694 149/695 152/696
#fvcolorindex 12 12 12 
vt -0.817383 0.123047 0.0
vt -0.924805 0.642578 0.0
vt 1.196289 0.669922 0.0
v 232.337463 1.141769 -228.737717
#joint 33
#vjoint 177
f 150/697 177/698 168/699
#fvcolorindex 12 12 12 
vt -0.817383 0.123047 0.0
vt 1.196289 0.669922 0.0
vt 0.694336 0.033203 0.0
f 150/700 168/701 153/702
#fvcolorindex 12 12 12 
vt 0.552734 -0.009766 0.0
vt 1.000000 0.689453 0.0
vt -1.935547 0.759766 0.0
f 149/703 161/704 177/705
#fvcolorindex 12 12 12 
vt 0.552734 -0.009766 0.0
vt -1.935547 0.759766 0.0
vt -2.010742 -0.062500 0.0
f 149/706 177/707 150/708
#fvcolorindex 12 12 12 
vt -0.583008 0.771484 0.0
vt 0.765625 0.648438 0.0
vt 0.858398 -0.601562 0.0
v 254.337463 -6.858231 -97.737717
#joint 33
#vjoint 178
v 244.337463 0.141769 -97.737717
#joint 33
#vjoint 179
v 243.348785 -2.545591 -98.879608
#joint 0
#vjoint 180
f 178/709 179/710 180/711
#fvcolorindex 12 12 12 
vt -0.583008 0.771484 0.0
vt 0.858398 -0.601562 0.0
vt -0.423828 -0.275391 0.0
v 251.348785 -8.545591 -98.879608
#joint 0
#vjoint 181
f 178/712 180/713 181/714
#fvcolorindex 12 12 12 
vt -0.017578 0.583984 0.0
vt 1.525391 0.560547 0.0
vt 1.388672 -0.019531 0.0
v 260.337463 -15.858231 -98.737717
#joint 33
#vjoint 182
f 182/715 178/716 181/717
#fvcolorindex 12 12 12 
vt -0.017578 0.583984 0.0
vt 1.388672 -0.019531 0.0
vt 0.052734 0.000000 0.0
v 256.348785 -17.545591 -98.879608
#joint 0
#vjoint 183
f 182/718 181/719 183/720
#fvcolorindex 12 12 12 
vt -0.546875 0.609375 0.0
vt 1.013672 0.607422 0.0
vt 1.077148 -0.041016 0.0
v 262.337463 -27.858231 -96.737717
#joint 33
#vjoint 184
f 184/721 182/722 183/723
#fvcolorindex 12 12 12 
vt -0.546875 0.609375 0.0
vt 1.077148 -0.041016 0.0
vt -0.272461 -0.039062 0.0
v 258.348785 -27.545591 -96.879608
#joint 0
#vjoint 185
f 184/724 183/725 185/726
#fvcolorindex 12 12 12 
vt 0.324219 -0.074219 0.0
vt 1.248047 0.046875 0.0
vt 1.384766 0.615234 0.0
v 217.348785 -8.545591 -98.879608
#joint 0
#vjoint 186
v 223.348785 -2.545591 -98.879608
#joint 0
#vjoint 187
v 223.337463 0.141769 -97.737717
#joint 33
#vjoint 188
f 186/727 187/728 188/729
#fvcolorindex 12 12 12 
vt 0.324219 -0.074219 0.0
vt 1.384766 0.615234 0.0
vt 0.318359 0.476562 0.0
v 214.337463 -6.858231 -97.737717
#joint 33
#vjoint 189
f 186/730 188/731 189/732
#fvcolorindex 12 12 12 
vt -0.954102 0.089844 0.0
vt 0.794922 0.017578 0.0
vt 1.181641 0.496094 0.0
v 212.348785 -17.545591 -98.879608
#joint 0
#vjoint 190
f 190/733 186/734 189/735
#fvcolorindex 12 12 12 
vt -0.954102 0.089844 0.0
vt 1.181641 0.496094 0.0
vt -0.838867 0.578125 0.0
v 209.337463 -15.858231 -98.737717
#joint 33
#vjoint 191
f 190/736 189/737 191/738
#fvcolorindex 12 12 12 
vt -1.563477 0.054688 0.0
vt 0.762695 -0.146484 0.0
vt 1.178711 0.669922 0.0
v 210.348785 -27.545591 -96.879608
#joint 0
#vjoint 192
f 192/739 190/740 191/741
#fvcolorindex 12 12 12 
vt -1.563477 0.054688 0.0
vt 1.178711 0.669922 0.0
vt -1.507812 0.902344 0.0
v 207.337463 -27.858231 -96.737717
#joint 33
#vjoint 193
f 192/742 191/743 193/744
#fvcolorindex 12 12 12 
vt 3.462891 1.371094 0.0
vt 3.487305 0.359375 0.0
vt 4.599609 0.000000 0.0
v 251.337463 -8.858231 -108.737717
#joint 33
#vjoint 194
f 194/745 181/746 180/747
#fvcolorindex 12 12 12 
vt 3.462891 1.371094 0.0
vt 4.599609 0.000000 0.0
vt 4.508789 2.167969 0.0
v 243.337463 -2.858231 -116.737717
#joint 33
#vjoint 195
f 194/748 180/749 195/750
#fvcolorindex 12 12 12 
vt 2.023438 0.953125 0.0
vt 2.036133 0.447266 0.0
vt 3.487305 0.359375 0.0
v 256.337463 -17.858231 -103.737717
#joint 33
#vjoint 196
f 196/751 183/752 181/753
#fvcolorindex 12 12 12 
vt 2.023438 0.953125 0.0
vt 3.487305 0.359375 0.0
vt 3.462891 1.371094 0.0
f 196/754 181/755 194/756
#fvcolorindex 12 12 12 
vt 0.452148 1.046875 0.0
vt 0.469727 0.316406 0.0
vt 2.036133 0.447266 0.0
v 258.337463 -27.858231 -104.737717
#joint 33
#vjoint 197
f 197/757 185/758 183/759
#fvcolorindex 12 12 12 
vt 0.452148 1.046875 0.0
vt 2.036133 0.447266 0.0
vt 2.023438 0.953125 0.0
f 197/760 183/761 196/762
#fvcolorindex 12 12 12 
vt 0.469727 0.316406 0.0
vt 0.469727 0.316406 0.0
vt 0.452148 1.046875 0.0
f 184/763 185/764 197/765
#fvcolorindex 12 12 12 
vt 0.469727 0.316406 0.0
vt 0.452148 1.046875 0.0
vt 0.452148 1.046875 0.0
v 262.337463 -26.858231 -104.737717
#joint 33
#vjoint 198
f 184/766 197/767 198/768
#fvcolorindex 12 12 12 
vt 3.567383 -0.333984 0.0
vt 3.850586 1.632812 0.0
vt 2.384766 1.582031 0.0
v 223.337463 -2.858231 -116.737717
#joint 33
#vjoint 199
f 199/769 187/770 186/771
#fvcolorindex 12 12 12 
vt 3.567383 -0.333984 0.0
vt 2.384766 1.582031 0.0
vt 2.232422 0.525391 0.0
v 217.337463 -8.858231 -108.737717
#joint 33
#vjoint 200
f 199/772 186/773 200/774
#fvcolorindex 12 12 12 
vt 2.232422 0.525391 0.0
vt 2.384766 1.582031 0.0
vt 0.191406 1.507812 0.0
f 200/775 186/776 190/777
#fvcolorindex 12 12 12 
vt 2.232422 0.525391 0.0
vt 0.191406 1.507812 0.0
vt 0.115234 0.980469 0.0
v 212.337463 -17.858231 -103.737717
#joint 33
#vjoint 201
f 200/778 190/779 201/780
#fvcolorindex 12 12 12 
vt 0.115234 0.980469 0.0
vt 0.191406 1.507812 0.0
vt -2.362305 1.654297 0.0
f 201/781 190/782 192/783
#fvcolorindex 12 12 12 
vt 0.115234 0.980469 0.0
vt -2.362305 1.654297 0.0
vt -2.472656 0.890625 0.0
v 210.337463 -27.858231 -104.737717
#joint 33
#vjoint 202
f 201/784 192/785 202/786
#fvcolorindex 12 12 12 
vt -2.472656 0.890625 0.0
vt -2.362305 1.654297 0.0
vt -2.362305 1.654297 0.0
f 202/787 192/788 193/789
#fvcolorindex 12 12 12 
vt -2.472656 0.890625 0.0
vt -2.362305 1.654297 0.0
vt -2.472656 0.890625 0.0
v 207.337463 -26.858231 -104.737717
#joint 33
#vjoint 203
f 202/790 193/791 203/792
#fvcolorindex 12 12 12 
g Room27
g Room27_primary
usemtl m16CullBoth
vt -0.982422 5.417480 0.0
vt -0.775391 0.093262 0.0
vt -0.886719 0.169434 0.0
v 236.337463 -4.858231 -131.737717
#joint 33
#vjoint 204
#vcolor 167.000000 167.000000 167.000000 255.000000
v 236.337463 0.141769 -228.737717
#joint 33
#vjoint 205
#vcolor 255.000000 58.000000 0.000000 255.000000
v 236.337463 3.141769 -226.737717
#joint 33
#vjoint 206
#vcolor 255.000000 103.000000 0.000000 255.000000
f 204/793 205/794 206/795
#fvcolorindex 13 14 15 
vt -0.982422 5.417480 0.0
vt -0.886719 0.169434 0.0
vt -1.109375 5.416504 0.0
v 236.337463 -1.858231 -131.737717
#joint 33
#vjoint 207
f 204/796 206/797 207/798
#fvcolorindex 13 15 13 
usemtl m4CullBoth
vt -0.968750 4.114746 0.0
vt -0.763672 0.247070 0.0
vt -0.423828 0.314453 0.0
v 236.337463 2.141769 -154.737717
#joint 33
#vjoint 208
#vcolor 255.000000 255.000000 255.000000 255.000000
v 236.337463 6.141769 -225.737717
#joint 33
#vjoint 209
#vcolor 255.000000 143.000000 0.000000 255.000000
v 235.337463 8.141769 -223.737717
#joint 33
#vjoint 210
#vcolor 255.000000 182.000000 0.000000 255.000000
f 208/799 209/800 210/801
#fvcolorindex 16 17 18 
vt -0.968750 4.114746 0.0
vt -0.423828 0.314453 0.0
vt -0.580078 4.025391 0.0
v 235.337463 5.141769 -156.737717
#joint 33
#vjoint 211
f 208/802 210/803 211/804
#fvcolorindex 16 18 16 
vt -0.003906 3.766602 0.0
vt 0.080078 0.361816 0.0
vt 0.669922 0.380859 0.0
v 234.337463 7.141769 -161.737717
#joint 33
#vjoint 212
v 234.337463 9.141769 -223.737717
#joint 33
#vjoint 213
#vcolor 255.000000 219.000000 0.000000 255.000000
v 233.337463 10.141769 -222.737717
#joint 33
#vjoint 214
f 212/805 213/806 214/807
#fvcolorindex 16 19 19 
vt -0.003906 3.766602 0.0
vt 0.669922 0.380859 0.0
vt 0.671875 3.770996 0.0
v 233.337463 8.141769 -161.737717
#joint 33
#vjoint 215
f 212/808 214/809 215/810
#fvcolorindex 16 19 16 
usemtl m17CullBoth
vt 0.669922 0.380859 0.0
vt 1.257812 0.369141 0.0
vt 1.345703 3.775391 0.0
v 232.337463 9.141769 -223.737717
#joint 33
#vjoint 216
v 232.337463 7.141769 -161.737717
#joint 33
#vjoint 217
f 214/811 216/812 217/813
#fvcolorindex 19 19 16 
vt 0.669922 0.380859 0.0
vt 1.345703 3.775391 0.0
vt 0.671875 3.770996 0.0
f 214/814 217/815 215/816
#fvcolorindex 19 16 16 
usemtl m18CullBoth
vt 1.753906 0.329102 0.0
vt 2.082031 0.265625 0.0
vt 2.291016 4.136230 0.0
v 232.337463 8.141769 -223.737717
#joint 33
#vjoint 218
v 231.337463 6.141769 -225.737717
#joint 33
#vjoint 219
v 231.337463 2.141769 -154.737717
#joint 33
#vjoint 220
f 218/817 219/818 220/819
#fvcolorindex 18 17 16 
vt 1.753906 0.329102 0.0
vt 2.291016 4.136230 0.0
vt 1.914062 4.041992 0.0
v 231.337463 5.141769 -156.737717
#joint 33
#vjoint 221
f 218/820 220/821 221/822
#fvcolorindex 18 16 16 
usemtl m19CullBoth
vt 2.193359 0.189453 0.0
vt 2.070312 0.111816 0.0
vt 2.277344 5.438477 0.0
v 231.337463 3.141769 -226.737717
#joint 33
#vjoint 222
v 231.337463 0.141769 -228.737717
#joint 33
#vjoint 223
v 231.337463 -4.858231 -131.737717
#joint 33
#vjoint 224
f 222/823 223/824 224/825
#fvcolorindex 15 14 13 
vt 2.193359 0.189453 0.0
vt 2.277344 5.438477 0.0
vt 2.417969 5.439453 0.0
v 231.337463 -1.858231 -131.737717
#joint 33
#vjoint 225
f 222/826 224/827 225/828
#fvcolorindex 15 13 16 
usemtl m4CullBoth
vt 2.417969 5.439453 0.0
vt 2.291016 4.136230 0.0
vt 2.082031 0.265625 0.0
f 225/829 220/830 219/831
#fvcolorindex 16 16 17 
vt 2.417969 5.439453 0.0
vt 2.082031 0.265625 0.0
vt 2.193359 0.189453 0.0
f 225/832 219/833 222/834
#fvcolorindex 16 17 15 
vt 1.914062 4.041992 0.0
vt 1.345703 3.775391 0.0
vt 1.257812 0.369141 0.0
f 221/835 217/836 216/837
#fvcolorindex 16 16 19 
vt 1.914062 4.041992 0.0
vt 1.257812 0.369141 0.0
vt 1.753906 0.329102 0.0
f 221/838 216/839 218/840
#fvcolorindex 16 19 18 
usemtl m18CullBoth
vt -0.423828 0.314453 0.0
vt 0.080078 0.361816 0.0
vt -0.003906 3.766602 0.0
f 210/841 213/842 212/843
#fvcolorindex 18 19 16 
vt -0.423828 0.314453 0.0
vt -0.003906 3.766602 0.0
vt -0.580078 4.025391 0.0
f 210/844 212/845 211/846
#fvcolorindex 18 16 16 
usemtl m4CullBoth
vt -0.968750 4.114746 0.0
vt -1.109375 5.416504 0.0
vt -0.886719 0.169434 0.0
f 208/847 207/848 206/849
#fvcolorindex 16 13 15 
vt -0.968750 4.114746 0.0
vt -0.886719 0.169434 0.0
vt -0.763672 0.247070 0.0
f 208/850 206/851 209/852
#fvcolorindex 16 15 17 
