# Created by SubDrag and the GoldenEye Setup Editor V4.4
mtllib grey_table.mtl
v 729.000000 467.000000 -408.000000
vt 0.000000 1.000000 0.0
v 729.000000 467.000000 407.999939
vt 0.000000 0.000000 0.0
v -729.000000 467.000000 407.999939
vt 1.000000 0.000000 0.0
v -729.000000 467.000000 -408.000000
vt 1.000000 1.000000 0.0
v -729.000000 -466.999969 -408.000000
vt 0.000000 0.000000 0.0
v -729.000000 467.000000 -408.000000
vt 0.000000 1.000000 0.0
v -729.000000 467.000000 407.999939
vt 1.000000 1.000000 0.0
v -729.000000 -466.999969 407.999939
vt 1.000000 0.000000 0.0
v 729.000000 -466.999969 407.999939
vt 1.000000 0.000000 0.0
v 729.000000 467.000000 407.999939
vt 1.000000 1.000000 0.0
v 729.000000 467.000000 -408.000000
vt 0.000000 1.000000 0.0
v 729.000000 -466.999969 -408.000000
vt 0.000000 0.000000 0.0
v 729.000000 -170.999969 -193.000061
vt 2.000000 0.000000 0.0
v 729.000000 426.000000 -193.000061
vt 2.000000 0.999023 0.0
v -729.000000 426.000000 -193.000061
vt 0.000000 0.999023 0.0
v -729.000000 -170.999969 -193.000061
vt 0.000000 0.000000 0.0
g primary
usemtl m0CullBothClampSClampT
f 1/1 2/2 3/3
usemtl m0CullBothClampSClampT
f 1/1 3/3 4/4
g secondary
usemtl m1CullBothClampSClampT
f 5/5 6/6 7/7
usemtl m1CullBothClampSClampT
f 5/5 7/7 8/8
usemtl m2CullBothClampSClampT
f 9/9 10/10 11/11
usemtl m2CullBothClampSClampT
f 9/9 11/11 12/12
usemtl m3CullBoth
f 13/13 14/14 15/15
usemtl m3CullBoth
f 13/13 15/15 16/16
