# Created by SubDrag and the GoldenEye Setup Editor V4.4
mtllib Gun0014.mtl
#joint 0
#jointposition 120.000008 -20.375574 -74.143860
#joint 1
#jointposition -0.126129 -34.500000 -403.726105
#joint 2
#jointposition 0.000001 -20.375574 -74.143860
#joint 3
#jointposition 28.404760 -54.346611 -32.664295
#joint 4
#jointposition 50.075203 -78.841194 -10.664248
#joint 5
#jointposition 28.643808 -16.714527 20.778549
#joint 6
#jointposition 26.518341 -24.155291 60.154758
#joint 7
#jointposition 24.862719 -25.637974 87.085503
#joint 8
#jointposition 8.820323 -11.296313 21.695198
#joint 9
#jointposition 8.668718 -23.348385 71.418152
#joint 10
#jointposition 7.570724 -26.182207 98.349426
#joint 11
#jointposition -7.449820 -15.536673 21.601517
#joint 12
#jointposition -6.777196 -21.532187 62.353848
#joint 13
#jointposition -6.290759 -23.494061 85.077034
#joint 14
#jointposition -23.590879 -23.057791 21.828247
#joint 15
#jointposition -21.894306 -25.130569 56.929543
#joint 16
#jointposition -20.740978 -24.727604 74.077179
#joint 17
#jointposition 234.474915 -34.500000 -403.725983
#joint 18
#jointposition 234.348785 -20.375599 -74.143890
#joint 19
#jointposition 205.943985 -54.346600 -32.664291
#joint 20
#jointposition 184.273590 -78.841202 -10.664192
#joint 21
#jointposition 205.704987 -16.714600 20.778511
#joint 22
#jointposition 207.830490 -24.155300 60.154812
#joint 23
#jointposition 209.561584 -25.811800 87.094810
#joint 24
#jointposition 225.528473 -11.296299 21.695213
#joint 25
#jointposition 225.680069 -23.348400 71.418114
#joint 26
#jointposition 226.778076 -26.182199 98.349411
#joint 27
#jointposition 241.798599 -15.536699 21.601509
#joint 28
#jointposition 241.125977 -21.532200 62.353809
#joint 29
#jointposition 240.639542 -23.494101 85.077011
#joint 30
#jointposition 257.939697 -23.057798 21.828209
#joint 31
#jointposition 256.243103 -25.130598 56.929508
#joint 32
#jointposition 255.089798 -24.727598 74.077209
#joint 33
#jointposition -134.210251 42.667427 -34.048679
#joint 34
#jointposition -133.295654 29.817482 -27.411797
#joint 35
#jointposition 0.000000 0.000000 240.000000
#joint 36
#jointposition 124.329750 -71.677780 283.559387
#joint 37
#jointposition 124.329750 -71.803703 412.184326
#joint 38
#jointposition 124.329750 -71.794472 438.418884
#joint 39
#jointposition 0.000000 143.612427 283.556763
#joint 40
#jointposition 0.000000 143.618820 412.184357
#joint 41
#jointposition 0.000000 143.611664 438.418854
#joint 42
#jointposition -124.601540 -71.677780 283.559387
#joint 43
#jointposition -124.601540 -71.803703 412.184326
#joint 44
#jointposition -124.601540 -71.794472 438.418884
#joint 45
#jointposition 133.223648 29.806900 -27.411795
#joint 46
#jointposition 0.000000 59.999996 -87.909996
#joint 47
#jointposition 352.512146 59.999996 -87.720367
#joint 48
#jointposition 32.333176 51.555794 131.105988
#joint 49
#jointposition -32.217255 51.555794 131.105988
#connection 0 1
#connection 1 2
#connection 2 3
#connection 3 4
#connection 2 5
#connection 5 6
#connection 6 7
#connection 2 8
#connection 8 9
#connection 9 10
#connection 2 11
#connection 11 12
#connection 12 13
#connection 2 14
#connection 14 15
#connection 15 16
#connection 2 33
#connection 33 35
#connection 35 36
#connection 36 37
#connection 37 38
#connection 35 39
#connection 39 40
#connection 40 41
#connection 35 42
#connection 42 43
#connection 43 44
#connection 33 46
#connection 33 45
#connection 33 34
#connection 33 48
#connection 33 49
#connection 0 17
#connection 17 18
#connection 18 19
#connection 19 20
#connection 18 21
#connection 21 22
#connection 22 23
#connection 18 24
#connection 24 25
#connection 25 26
#connection 18 27
#connection 27 28
#connection 28 29
#connection 18 30
#connection 30 31
#connection 31 32
#connection 18 47
g Room01
g Room01_primary
usemtl m0
vt 0.000000 0.000000 0.0
vt 1.000000 0.000000 0.0
vt 0.500000 5.402344 0.0
v -135.601532 -79.677780 411.559387
#joint 42
#vjoint 1
#vcolor 67.000000 67.000000 67.000000 255.000000
v -136.601532 -65.677780 411.559387
#joint 42
#vjoint 2
#vcolor 166.000000 166.000000 166.000000 255.000000
v -180.601532 -77.677780 297.559387
#joint 42
#vjoint 3
f 1/1 2/2 3/3
#fvcolorindex 1 2 1 
usemtl m1
vt 0.000000 0.000000 0.0
vt 1.000000 0.000000 0.0
vt 0.500000 5.402344 0.0
v -111.601540 -76.677780 411.559387
#joint 42
#vjoint 4
#vcolor 135.000000 135.000000 135.000000 255.000000
v -122.601540 -84.677780 411.559387
#joint 42
#vjoint 5
v -89.601540 -116.677780 297.559387
#joint 42
#vjoint 6
f 4/4 5/5 6/6
#fvcolorindex 3 1 1 
usemtl m2
vt 0.000000 0.000000 0.0
vt 1.000000 0.000000 0.0
vt 0.500000 5.402344 0.0
v -125.601540 -57.677780 411.559387
#joint 42
#vjoint 7
#vcolor 240.000000 240.000000 240.000000 255.000000
v -113.601540 -62.677780 411.559387
#joint 42
#vjoint 8
#vcolor 221.000000 221.000000 221.000000 255.000000
v -101.601540 -18.677780 297.559387
#joint 42
#vjoint 9
#vcolor 255.000000 255.000000 255.000000 255.000000
f 7/7 8/8 9/9
#fvcolorindex 4 5 6 
usemtl m1
vt 0.000000 0.000000 0.0
vt 1.000000 0.000000 0.0
vt 0.500000 5.402344 0.0
v 137.329742 -76.677780 411.559387
#joint 36
#vjoint 10
v 126.329750 -85.677780 411.559387
#joint 36
#vjoint 11
v 159.329742 -117.677780 297.559387
#joint 36
#vjoint 12
f 10/10 11/11 12/12
#fvcolorindex 3 1 1 
usemtl m2
vt 0.000000 0.000000 0.0
vt 1.000000 0.000000 0.0
vt 0.500000 5.402344 0.0
v 123.329750 -58.677780 411.559387
#joint 36
#vjoint 13
v 135.329742 -63.677780 411.559387
#joint 36
#vjoint 14
v 147.329742 -19.677780 297.559387
#joint 36
#vjoint 15
f 13/13 14/14 15/15
#fvcolorindex 4 5 6 
usemtl m0
vt 0.000000 0.000000 0.0
vt 1.000000 0.000000 0.0
vt 0.500000 5.402344 0.0
v 113.329750 -79.677780 411.559387
#joint 36
#vjoint 16
v 112.329750 -66.677780 411.559387
#joint 36
#vjoint 17
v 68.329750 -78.677780 297.559387
#joint 36
#vjoint 18
f 16/16 17/17 18/18
#fvcolorindex 1 2 1 
usemtl m2
vt 0.000000 0.000000 0.0
vt 1.000000 0.000000 0.0
vt 0.500000 5.402344 0.0
v -1.000000 156.612427 411.556763
#joint 39
#vjoint 19
v 11.000000 151.612427 411.556763
#joint 39
#vjoint 20
v 23.000000 195.612427 297.556763
#joint 39
#vjoint 21
f 19/19 20/20 21/21
#fvcolorindex 4 5 6 
usemtl m0
vt 0.000000 0.000000 0.0
vt 1.000000 0.000000 0.0
vt 0.500000 5.402344 0.0
v -11.000000 135.612427 411.556763
#joint 39
#vjoint 22
v -12.000000 148.612427 411.556763
#joint 39
#vjoint 23
v -56.000000 136.612427 297.556763
#joint 39
#vjoint 24
f 22/22 23/23 24/24
#fvcolorindex 1 2 1 
usemtl m1
vt 0.000000 0.000000 0.0
vt 1.000000 0.000000 0.0
vt 0.500000 5.402344 0.0
v 13.000000 137.612427 411.556763
#joint 39
#vjoint 25
v 2.000000 129.612427 411.556763
#joint 39
#vjoint 26
v 34.000000 97.612427 297.556763
#joint 39
#vjoint 27
f 25/25 26/26 27/27
#fvcolorindex 3 1 1 
usemtl m3
vt -0.192383 0.158203 0.0
vt 0.464844 0.158203 0.0
vt -0.192383 -0.065430 0.0
v -163.210251 -90.332573 -17.048679
#joint 33
#vjoint 28
v -163.210251 -90.332573 -71.048676
#joint 33
#vjoint 29
v -163.210251 -108.332573 -17.048679
#joint 33
#vjoint 30
#vcolor 0.000000 0.000000 0.000000 255.000000
f 28/28 29/29 30/30
#fvcolorindex 6 6 7 
vt 0.464844 0.158203 0.0
vt 0.464844 -0.065430 0.0
vt -0.192383 -0.065430 0.0
v -163.210251 -108.332573 -71.048676
#joint 33
#vjoint 31
f 29/31 31/32 30/33
#fvcolorindex 6 7 7 
usemtl m4
vt 0.993164 -0.466797 0.0
vt 0.000000 -0.223633 0.0
vt 0.993164 0.000000 0.0
v -42.210251 -107.332573 44.951321
#joint 33
#vjoint 32
v -41.210251 -90.332573 44.951321
#joint 33
#vjoint 33
f 32/34 31/35 33/36
#fvcolorindex 7 7 6 
vt 0.000000 -0.223633 0.0
vt 0.000000 0.000000 0.0
vt 0.993164 0.000000 0.0
f 31/37 29/38 33/39
#fvcolorindex 7 6 6 
vt -1.246094 -0.901367 0.0
vt -0.657227 -0.065430 0.0
vt -0.588867 -0.901367 0.0
v -42.210251 -107.332573 99.951324
#joint 33
#vjoint 34
f 34/40 30/41 32/42
#fvcolorindex 7 7 7 
vt -0.657227 -0.065430 0.0
vt 0.000000 -0.065430 0.0
vt -0.588867 -0.901367 0.0
f 30/43 31/44 32/45
#fvcolorindex 7 7 7 
usemtl m3
vt 0.800781 -0.289062 0.0
vt -0.192383 -0.289062 0.0
vt 0.800781 0.178711 0.0
v -42.210251 -90.332573 99.951324
#joint 33
#vjoint 35
f 35/46 28/47 34/48
#fvcolorindex 6 6 7 
vt -0.192383 -0.289062 0.0
vt -0.192383 -0.065430 0.0
vt 0.800781 0.178711 0.0
f 28/49 30/50 34/51
#fvcolorindex 6 7 7 
usemtl m5
vt -0.500000 0.013672 0.0
vt -0.199219 -0.053711 0.0
vt 0.453125 0.216797 0.0
v -42.210251 43.667427 44.951321
#joint 33
#vjoint 36
v -118.295654 39.817482 -36.411797
#joint 34
#vjoint 37
v -163.210251 43.667427 -58.048679
#joint 33
#vjoint 38
f 36/52 37/53 38/54
#fvcolorindex 1 1 1 
usemtl m6
vt 0.702148 2.582031 0.0
vt 0.313477 5.651367 0.0
vt -0.042969 5.651367 0.0
v -42.210251 54.667427 74.951324
#joint 33
#vjoint 39
#vcolor 118.000000 118.000000 118.000000 255.000000
v -163.210251 54.667427 -28.048679
#joint 33
#vjoint 40
v -163.210251 43.667427 -28.048679
#joint 33
#vjoint 41
f 39/55 40/56 41/57
#fvcolorindex 8 6 6 
vt 0.702148 2.582031 0.0
vt -0.042969 5.651367 0.0
vt -0.043945 2.582031 0.0
v -42.210251 43.667427 74.951324
#joint 33
#vjoint 42
f 39/58 41/59 42/60
#fvcolorindex 8 6 6 
usemtl m7
vt 3.974609 0.000000 0.0
vt 0.000000 0.000000 0.0
vt 0.000000 -0.405273 0.0
#vcolor 50.000000 50.000000 71.000000 255.000000
v -163.210251 54.667427 -58.048679
#joint 33
#vjoint 43
f 36/61 38/62 43/63
#fvcolorindex 9 6 6 
vt 3.974609 0.000000 0.0
vt 0.000000 -0.405273 0.0
vt 3.974609 -0.404297 0.0
v -42.210251 54.667427 44.951321
#joint 33
#vjoint 44
f 36/64 43/65 44/66
#fvcolorindex 9 6 8 
usemtl m3
vt -0.192383 -0.065430 0.0
vt 0.464844 -0.065430 0.0
vt 0.464844 0.158203 0.0
f 40/67 43/68 38/69
#fvcolorindex 6 6 6 
vt -0.192383 -0.065430 0.0
vt 0.464844 0.158203 0.0
vt -0.192383 0.158203 0.0
f 40/70 38/71 41/72
#fvcolorindex 6 6 6 
usemtl m6
vt -0.278320 -0.349609 0.0
vt 2.071289 -1.515625 0.0
vt 1.852539 -0.349609 0.0
v -42.210251 36.667427 -88.048676
#joint 33
#vjoint 45
v -21.210251 -33.332573 58.951321
#joint 33
#vjoint 46
#vcolor 31.000000 31.000000 31.000000 255.000000
f 45/73 46/74 36/75
#fvcolorindex 8 10 8 
usemtl m3
vt 0.497070 -0.458008 0.0
vt -3.030273 -0.432617 0.0
vt -0.672852 -1.380859 0.0
v -52.210251 96.667427 -88.048676
#joint 33
#vjoint 47
v -82.210251 164.667419 23.951321
#joint 33
#vjoint 48
v -17.210251 105.667427 -39.048679
#joint 33
#vjoint 49
#vcolor 60.000000 60.000000 60.000000 255.000000
f 47/76 48/77 49/78
#fvcolorindex 6 6 11 
vt 0.497070 -0.458008 0.0
vt -0.672852 -1.380859 0.0
vt 0.557617 -0.648438 0.0
v -42.210251 93.667427 -88.048676
#joint 33
#vjoint 50
f 47/79 49/80 50/81
#fvcolorindex 6 11 11 
usemtl m8
vt 0.472656 0.209961 0.0
vt 0.000000 0.000000 0.0
vt -3.007812 0.000000 0.0
v -66.210251 94.667427 -88.048676
#joint 33
#vjoint 51
#vcolor 103.000000 103.000000 103.000000 255.000000
v -77.210251 102.667427 -72.048676
#joint 33
#vjoint 52
f 51/82 52/83 48/84
#fvcolorindex 12 11 11 
vt 0.472656 0.209961 0.0
vt -3.007812 0.000000 0.0
vt 0.458008 0.533203 0.0
f 51/85 48/86 47/87
#fvcolorindex 12 11 6 
usemtl m7
vt 3.004883 0.000000 0.0
vt 2.521484 0.657227 0.0
vt 0.611328 0.657227 0.0
v -94.210251 118.667427 -62.048679
#joint 33
#vjoint 53
v -97.210251 157.667419 -0.048679
#joint 33
#vjoint 54
f 52/88 53/89 54/90
#fvcolorindex 9 6 6 
vt 3.004883 0.000000 0.0
vt 0.611328 0.657227 0.0
vt 0.000000 0.000000 0.0
f 52/91 54/92 48/93
#fvcolorindex 9 6 9 
vt 1.999023 0.000000 0.0
vt 1.479492 0.656250 0.0
vt 0.508789 0.656250 0.0
v -131.210251 159.667419 -6.048679
#joint 33
#vjoint 55
f 48/94 54/95 55/96
#fvcolorindex 9 6 6 
vt 1.999023 0.000000 0.0
vt 0.508789 0.656250 0.0
vt 0.000000 0.000000 0.0
v -151.210251 168.667419 12.951321
#joint 33
#vjoint 56
f 48/97 55/98 56/99
#fvcolorindex 9 6 6 
usemtl m3
vt 3.008789 0.000000 0.0
vt 2.430664 0.645508 0.0
vt 0.519531 0.673828 0.0
v -125.210251 120.667427 -66.048676
#joint 33
#vjoint 57
f 56/100 55/101 57/102
#fvcolorindex 6 6 6 
vt 3.008789 0.000000 0.0
vt 0.519531 0.673828 0.0
vt 0.000000 0.000000 0.0
v -143.210251 106.667427 -83.048676
#joint 33
#vjoint 58
f 56/103 57/104 58/105
#fvcolorindex 6 6 6 
vt 2.046875 0.000000 0.0
vt 1.445312 0.666016 0.0
vt 0.489258 0.666016 0.0
f 58/106 57/107 53/108
#fvcolorindex 6 6 6 
vt 2.046875 0.000000 0.0
vt 0.489258 0.666016 0.0
vt 0.000000 0.000000 0.0
f 58/109 53/110 52/111
#fvcolorindex 6 6 9 
vt 1.848633 1.647461 0.0
vt -0.405273 1.605469 0.0
vt 0.004883 -0.018555 0.0
v -131.210251 105.667427 -19.048679
#joint 33
#vjoint 59
f 48/112 56/113 59/114
#fvcolorindex 6 6 11 
vt 1.848633 1.647461 0.0
vt 0.004883 -0.018555 0.0
vt 1.751953 0.014648 0.0
v -86.210251 102.667427 -12.048679
#joint 33
#vjoint 60
f 48/115 59/116 60/117
#fvcolorindex 6 11 11 
vt 2.425781 0.039062 0.0
vt -0.623047 0.714844 0.0
vt 0.535156 -0.613281 0.0
f 56/118 58/119 59/120
#fvcolorindex 6 6 11 
vt -0.011719 -0.356445 0.0
vt 0.323242 -0.356445 0.0
vt 0.323242 0.680664 0.0
v -0.210251 -90.332573 25.951321
#joint 33
#vjoint 61
v -21.210251 -90.332573 25.951321
#joint 33
#vjoint 62
#vcolor 106.000000 106.000000 106.000000 255.000000
f 61/121 62/122 46/123
#fvcolorindex 6 13 10 
vt -0.011719 -0.356445 0.0
vt 0.323242 0.680664 0.0
vt -0.011719 0.680664 0.0
v -0.210251 -33.332573 58.951321
#joint 33
#vjoint 63
f 61/124 46/125 63/126
#fvcolorindex 6 10 7 
vt -0.899414 -0.669922 0.0
vt 0.245117 -0.091797 0.0
vt 0.000000 0.000000 0.0
v 47.789749 89.667427 -10.048679
#joint 33
#vjoint 64
v 51.789749 96.667427 -88.048676
#joint 33
#vjoint 65
#vcolor 242.000000 242.000000 242.000000 255.000000
v 41.789749 93.667427 -88.048676
#joint 33
#vjoint 66
f 64/127 65/128 66/129
#fvcolorindex 6 14 14 
usemtl m5
vt 0.000000 0.000000 0.0
vt -2.269531 0.000000 0.0
vt -0.110352 -0.906250 0.0
v -40.210251 34.667427 154.951324
#joint 33
#vjoint 67
v -24.210251 31.667427 236.951324
#joint 33
#vjoint 68
#vcolor 132.000000 132.000000 132.000000 255.000000
v -13.210251 74.667427 154.951324
#joint 33
#vjoint 69
f 67/130 68/131 69/132
#fvcolorindex 1 15 1 
vt 5.197266 0.568359 0.0
vt 0.283203 1.300781 0.0
vt 0.029297 1.083008 0.0
f 69/133 52/134 51/135
#fvcolorindex 1 1 1 
vt 5.197266 0.568359 0.0
vt 0.029297 1.083008 0.0
vt 0.029297 0.568359 0.0
v -42.210251 74.667427 -88.048676
#joint 33
#vjoint 70
f 69/136 51/137 70/138
#fvcolorindex 1 1 1 
vt 5.197266 0.568359 0.0
vt 1.263672 1.419922 0.0
vt 0.283203 1.300781 0.0
f 69/139 60/140 52/141
#fvcolorindex 1 1 1 
vt -0.090820 -0.329102 0.0
vt -0.090820 -0.708008 0.0
vt 0.376953 -0.708008 0.0
v -21.210251 -76.332573 154.951324
#joint 33
#vjoint 71
v -21.210251 -91.332573 125.951324
#joint 33
#vjoint 72
v -0.210251 -91.332573 125.951324
#joint 33
#vjoint 73
f 71/142 72/143 73/144
#fvcolorindex 1 1 1 
vt -0.090820 -0.329102 0.0
vt 0.376953 -0.708008 0.0
vt 0.376953 -0.329102 0.0
v -0.210251 -76.332573 154.951324
#joint 33
#vjoint 74
f 71/145 73/146 74/147
#fvcolorindex 1 1 1 
vt 0.376953 0.737305 0.0
vt -0.090820 0.737305 0.0
vt -0.090820 -0.329102 0.0
v -0.210251 -33.332573 236.951324
#joint 33
#vjoint 75
v -13.210251 -33.332573 236.951324
#joint 33
#vjoint 76
f 75/148 76/149 71/150
#fvcolorindex 1 1 1 
vt 0.376953 0.737305 0.0
vt -0.090820 -0.329102 0.0
vt 0.376953 -0.329102 0.0
f 75/151 71/152 74/153
#fvcolorindex 1 1 1 
usemtl m9
vt 1.414062 -1.308594 0.0
vt -0.330078 -1.312500 0.0
vt 0.232422 -0.321289 0.0
v 20.789749 -91.332573 125.951324
#joint 33
#vjoint 77
#vcolor 164.000000 164.000000 164.000000 255.000000
v 20.789749 -90.332573 25.951321
#joint 33
#vjoint 78
v 20.789749 -33.332573 58.951321
#joint 33
#vjoint 79
f 77/154 78/155 79/156
#fvcolorindex 16 6 1 
vt 1.414062 -1.308594 0.0
vt 0.232422 -0.321289 0.0
vt 1.909180 -0.303711 0.0
v 20.789749 -33.332573 154.951324
#joint 33
#vjoint 80
f 77/157 79/158 80/159
#fvcolorindex 16 1 1 
vt 1.414062 -1.308594 0.0
vt 1.909180 -0.303711 0.0
vt 1.916992 -1.041992 0.0
v 20.789749 -76.332573 154.951324
#joint 33
#vjoint 81
f 77/160 80/161 81/162
#fvcolorindex 16 1 1 
usemtl m5
vt 1.909180 -0.303711 0.0
vt 3.335938 -0.288086 0.0
vt 1.916992 -1.041992 0.0
v 13.789749 -33.332573 236.951324
#joint 33
#vjoint 82
f 80/163 82/164 81/165
#fvcolorindex 1 1 1 
usemtl m10
vt 2.529297 0.622070 0.0
vt 0.016602 1.310547 0.0
vt 0.000000 0.000000 0.0
v 41.789749 54.667427 74.951324
#joint 33
#vjoint 83
v 39.789749 57.667427 154.951324
#joint 33
#vjoint 84
v 39.789749 34.667427 154.951324
#joint 33
#vjoint 85
#vcolor 150.000000 150.000000 150.000000 255.000000
f 83/166 84/167 85/168
#fvcolorindex 14 12 17 
vt 2.529297 0.622070 0.0
vt 0.000000 0.000000 0.0
vt 2.521484 0.000000 0.0
v 41.789749 43.667427 74.951324
#joint 33
#vjoint 86
f 83/169 85/170 86/171
#fvcolorindex 14 17 1 
vt 2.537109 0.000000 0.0
vt -0.035156 -1.037109 0.0
vt 0.000000 0.000000 0.0
v 12.789749 74.667427 154.951324
#joint 33
#vjoint 87
#vcolor 235.000000 235.000000 235.000000 255.000000
f 83/172 87/173 84/174
#fvcolorindex 14 6 18 
usemtl m8
vt 0.016602 1.310547 0.0
vt -2.587891 0.407227 0.0
vt 0.000000 0.000000 0.0
v 24.789749 31.667427 236.951324
#joint 33
#vjoint 88
f 84/175 88/176 85/177
#fvcolorindex 12 12 17 
vt -0.035156 -1.037109 0.0
vt -2.579102 0.117188 0.0
vt 0.000000 0.000000 0.0
f 87/178 88/179 84/180
#fvcolorindex 12 12 12 
usemtl m5
vt 0.376953 -0.708008 0.0
vt -0.090820 -0.708008 0.0
vt -0.090820 -0.329102 0.0
f 73/181 77/182 81/183
#fvcolorindex 1 16 1 
vt 0.376953 -0.708008 0.0
vt -0.090820 -0.329102 0.0
vt 0.376953 -0.329102 0.0
f 73/184 81/185 74/186
#fvcolorindex 1 1 1 
vt -0.090820 -0.329102 0.0
vt -0.090820 0.737305 0.0
vt 0.376953 0.737305 0.0
f 81/187 82/188 75/189
#fvcolorindex 1 1 1 
vt -0.090820 -0.329102 0.0
vt 0.376953 0.737305 0.0
vt 0.376953 -0.329102 0.0
f 81/190 75/191 74/192
#fvcolorindex 1 1 1 
usemtl m8
vt 1.955078 -0.112305 0.0
vt 1.739258 2.750977 0.0
vt 1.288086 5.483398 0.0
v 41.789749 74.667427 -88.048676
#joint 33
#vjoint 89
f 89/193 64/194 87/195
#fvcolorindex 12 6 12 
vt 1.955078 -0.112305 0.0
vt 2.189453 0.019531 0.0
vt 1.739258 2.750977 0.0
#vcolor 173.000000 173.000000 173.000000 255.000000
f 89/196 65/197 64/198
#fvcolorindex 12 19 6 
usemtl m5
vt 2.143555 -0.151367 0.0
vt 0.000000 0.000000 0.0
vt -0.104492 -0.902344 0.0
f 42/199 67/200 69/201
#fvcolorindex 1 1 1 
vt 2.143555 -0.151367 0.0
vt -0.104492 -0.906250 0.0
vt 2.154297 -0.392578 0.0
f 42/202 69/203 39/204
#fvcolorindex 1 1 1 
vt 3.335938 -0.288086 0.0
vt 1.909180 -0.303711 0.0
vt 1.916992 -1.041992 0.0
v -21.210251 -33.332573 154.951324
#joint 33
#vjoint 90
f 76/205 90/206 71/207
#fvcolorindex 1 1 1 
vt 1.909180 -0.303711 0.0
vt 0.232422 -0.321289 0.0
vt -0.330078 -1.312500 0.0
f 90/208 46/209 62/210
#fvcolorindex 1 1 1 
vt 1.909180 -0.303711 0.0
vt -0.330078 -1.312500 0.0
vt 1.414062 -1.308594 0.0
f 90/211 62/212 72/213
#fvcolorindex 1 1 1 
vt 1.909180 -0.303711 0.0
vt 1.414062 -1.308594 0.0
vt 1.916992 -1.041992 0.0
f 90/214 72/215 71/216
#fvcolorindex 1 1 1 
vt -0.192383 -0.065430 0.0
vt 0.464844 0.158203 0.0
vt -0.192383 0.158203 0.0
v 162.789749 -108.332573 -17.048679
#joint 33
#vjoint 91
v 162.789749 -90.332573 -71.048676
#joint 33
#vjoint 92
v 162.789749 -90.332573 -17.048679
#joint 33
#vjoint 93
#vcolor 226.000000 226.000000 226.000000 255.000000
f 91/217 92/218 93/219
#fvcolorindex 1 6 20 
vt -0.192383 -0.065430 0.0
vt 0.464844 -0.065430 0.0
vt 0.464844 0.158203 0.0
v 162.789749 -108.332573 -71.048676
#joint 33
#vjoint 94
f 91/220 94/221 92/222
#fvcolorindex 1 1 6 
vt 0.993164 0.000000 0.0
vt 0.000000 -0.223633 0.0
vt 0.993164 -0.466797 0.0
v 40.789749 -90.332573 44.951321
#joint 33
#vjoint 95
v 41.789749 -107.332573 44.951321
#joint 33
#vjoint 96
f 95/223 94/224 96/225
#fvcolorindex 1 1 1 
vt 0.993164 0.000000 0.0
vt 0.000000 0.000000 0.0
vt 0.000000 -0.223633 0.0
f 95/226 92/227 94/228
#fvcolorindex 1 6 1 
vt -0.588867 -0.901367 0.0
vt -0.657227 -0.065430 0.0
vt -1.246094 -0.901367 0.0
v 41.789749 -107.332573 99.951324
#joint 33
#vjoint 97
f 96/229 91/230 97/231
#fvcolorindex 1 1 1 
vt -0.588867 -0.901367 0.0
vt 0.000000 -0.065430 0.0
vt -0.657227 -0.065430 0.0
f 96/232 94/233 91/234
#fvcolorindex 1 1 1 
vt 0.800781 0.178711 0.0
vt -0.192383 -0.289062 0.0
vt 0.800781 -0.289062 0.0
v 41.789749 -90.332573 99.951324
#joint 33
#vjoint 98
f 97/235 93/236 98/237
#fvcolorindex 1 20 6 
vt 0.800781 0.178711 0.0
vt -0.192383 -0.065430 0.0
vt -0.192383 -0.289062 0.0
f 97/238 91/239 93/240
#fvcolorindex 1 1 20 
usemtl m11
vt 0.000000 0.000000 0.0
vt 0.000000 -0.379883 0.0
vt 3.094727 -0.378906 0.0
v 162.789749 43.667427 -28.048679
#joint 33
#vjoint 99
#vcolor 86.000000 86.000000 86.000000 255.000000
v 162.789749 54.667427 -28.048679
#joint 33
#vjoint 100
f 99/241 100/242 83/243
#fvcolorindex 21 6 14 
usemtl m5
vt 3.094727 0.000000 0.0
vt 0.000000 0.000000 0.0
vt 3.094727 -0.378906 0.0
f 86/244 99/245 83/246
#fvcolorindex 1 21 14 
usemtl m12
vt 0.000000 -0.428711 0.0
vt 0.000000 0.000000 0.0
vt 3.196289 0.000000 0.0
v 162.789749 54.667427 -58.048679
#joint 33
#vjoint 101
#vcolor 182.000000 182.000000 182.000000 255.000000
v 162.789749 43.667427 -58.048679
#joint 33
#vjoint 102
v 41.789749 43.667427 44.951321
#joint 33
#vjoint 103
#vcolor 71.000000 71.000000 71.000000 255.000000
f 101/247 102/248 103/249
#fvcolorindex 22 1 23 
usemtl m8
vt 3.196289 -0.428711 0.0
vt 0.000000 -0.428711 0.0
vt 3.196289 0.000000 0.0
v 41.789749 54.667427 44.951321
#joint 33
#vjoint 104
f 104/250 101/251 103/252
#fvcolorindex 12 22 23 
usemtl m5
vt 0.464844 0.158203 0.0
vt 0.464844 -0.065430 0.0
vt -0.192383 -0.065430 0.0
f 102/253 101/254 100/255
#fvcolorindex 1 22 6 
usemtl m11
vt -0.192383 0.158203 0.0
vt 0.464844 0.158203 0.0
vt -0.192383 -0.065430 0.0
f 99/256 102/257 100/258
#fvcolorindex 21 1 6 
usemtl m13
vt 1.852539 -0.349609 0.0
vt 2.071289 -1.515625 0.0
vt -0.278320 -0.349609 0.0
v 41.789749 36.667427 -88.048676
#joint 33
#vjoint 105
f 103/259 79/260 105/261
#fvcolorindex 23 12 1 
usemtl m5
vt -0.011719 0.680664 0.0
vt 0.323242 0.680664 0.0
vt 0.323242 -0.356445 0.0
f 63/262 79/263 78/264
#fvcolorindex 1 1 6 
vt -0.011719 0.680664 0.0
vt 0.323242 -0.356445 0.0
vt -0.011719 -0.356445 0.0
#vcolor 116.000000 116.000000 116.000000 255.000000
f 63/265 78/266 61/267
#fvcolorindex 1 6 24 
usemtl m8
vt -0.899414 -0.669922 0.0
vt 0.245117 -0.091797 0.0
vt 0.000000 0.000000 0.0
f 64/268 65/269 66/270
#fvcolorindex 12 19 12 
usemtl m5
vt 0.585938 -0.137695 0.0
vt 2.973633 -0.123047 0.0
vt 2.829102 2.805664 0.0
v -180.000000 -104.000000 284.000000
#joint 35
#vjoint 106
v -109.000000 -16.000000 284.000000
#joint 35
#vjoint 107
#vcolor 212.000000 212.000000 212.000000 255.000000
v -105.000000 -26.000000 145.000000
#joint 35
#vjoint 108
#vcolor 195.000000 195.000000 195.000000 255.000000
f 106/271 107/272 108/273
#fvcolorindex 1 25 26 
vt 1.385742 -3.725586 0.0
vt 1.322266 -2.952148 0.0
vt 1.276367 -2.400391 0.0
v -89.000000 -51.000000 284.000000
#joint 35
#vjoint 109
f 109/274 107/275 106/276
#fvcolorindex 1 25 1 
usemtl m14
vt 0.006836 -0.287109 0.0
vt 0.460938 -1.666016 0.0
vt 0.728516 -0.287109 0.0
v 0.000000 0.000000 372.000000
#joint 35
#vjoint 110
#vcolor 75.000000 75.000000 75.000000 255.000000
v -56.000000 -10.000000 243.000000
#joint 35
#vjoint 111
f 107/277 110/278 111/279
#fvcolorindex 25 27 25 
usemtl m15
vt 0.492188 -1.645508 0.0
vt 1.022461 -0.315430 0.0
vt 0.454102 -0.315430 0.0
f 110/280 107/281 109/282
#fvcolorindex 27 25 1 
usemtl m5
vt 0.728516 -0.287109 0.0
vt 0.460938 -1.666016 0.0
vt 0.006836 -0.287109 0.0
v -37.000000 -44.000000 243.000000
#joint 35
#vjoint 112
v -68.000000 -87.000000 284.000000
#joint 35
#vjoint 113
f 112/283 110/284 113/285
#fvcolorindex 1 27 1 
vt 1.276367 -2.400391 0.0
vt 1.322266 -2.952148 0.0
vt 1.385742 -3.725586 0.0
f 106/286 113/287 109/288
#fvcolorindex 1 1 1 
vt 0.454102 -0.315430 0.0
vt 1.022461 -0.315430 0.0
vt 0.492188 -1.645508 0.0
f 109/289 113/290 110/291
#fvcolorindex 1 1 27 
vt 2.829102 2.805664 0.0
vt 2.973633 -0.123047 0.0
vt 0.585938 -0.137695 0.0
v -76.000000 -78.000000 145.000000
#joint 35
#vjoint 114
f 114/292 113/293 106/294
#fvcolorindex 1 1 1 
usemtl m16
vt 0.585938 -0.137695 0.0
vt 2.973633 -0.123047 0.0
vt 2.829102 2.805664 0.0
v 180.000000 -104.000000 284.000000
#joint 35
#vjoint 115
#vcolor 90.000000 90.000000 90.000000 255.000000
v 68.000000 -87.000000 284.000000
#joint 35
#vjoint 116
v 76.000000 -78.000000 145.000000
#joint 35
#vjoint 117
f 115/295 116/296 117/297
#fvcolorindex 28 1 1 
usemtl m8
vt 1.385742 -3.725586 0.0
vt 1.322266 -2.952148 0.0
vt 1.276367 -2.400391 0.0
v 89.000000 -51.000000 284.000000
#joint 35
#vjoint 118
f 118/298 116/299 115/300
#fvcolorindex 12 1 28 
usemtl m5
vt 0.006836 -0.287109 0.0
vt 0.460938 -1.666016 0.0
vt 0.728516 -0.287109 0.0
v 37.000000 -44.000000 243.000000
#joint 35
#vjoint 119
f 116/301 110/302 119/303
#fvcolorindex 1 27 1 
usemtl m15
vt 0.492188 -1.645508 0.0
vt 1.022461 -0.315430 0.0
vt 0.454102 -0.315430 0.0
f 110/304 116/305 118/306
#fvcolorindex 27 1 12 
usemtl m3
vt 0.728516 -0.287109 0.0
vt 0.460938 -1.666016 0.0
vt 0.006836 -0.287109 0.0
v 56.000000 -10.000000 243.000000
#joint 35
#vjoint 120
v 109.000000 -16.000000 284.000000
#joint 35
#vjoint 121
f 120/307 110/308 121/309
#fvcolorindex 6 27 6 
usemtl m16
vt 1.276367 -2.400391 0.0
vt 1.322266 -2.952148 0.0
vt 1.385742 -3.725586 0.0
f 115/310 121/311 118/312
#fvcolorindex 28 6 12 
usemtl m8
vt 0.454102 -0.315430 0.0
vt 1.022461 -0.315430 0.0
vt 0.492188 -1.645508 0.0
f 118/313 121/314 110/315
#fvcolorindex 12 6 27 
usemtl m17
vt 2.829102 2.805664 0.0
vt 2.973633 -0.123047 0.0
vt 0.585938 -0.137695 0.0
v 105.000000 -26.000000 145.000000
#joint 35
#vjoint 122
#vcolor 249.000000 249.000000 249.000000 255.000000
f 122/316 121/317 115/318
#fvcolorindex 29 6 28 
usemtl m3
vt 0.585938 -0.137695 0.0
vt 2.973633 -0.123047 0.0
vt 2.829102 2.805664 0.0
v 0.000000 208.000000 284.000000
#joint 35
#vjoint 123
v 41.000000 103.000000 284.000000
#joint 35
#vjoint 124
#vcolor 178.000000 178.000000 178.000000 255.000000
v 30.000000 105.000000 145.000000
#joint 35
#vjoint 125
f 123/319 124/320 125/321
#fvcolorindex 6 30 15 
usemtl m18
vt 1.385742 -3.725586 0.0
vt 1.322266 -2.952148 0.0
vt 1.276367 -2.400391 0.0
v 0.000000 103.000000 284.000000
#joint 35
#vjoint 126
#vcolor 193.000000 193.000000 193.000000 255.000000
f 126/322 124/323 123/324
#fvcolorindex 31 30 6 
usemtl m19
vt 0.006836 -0.287109 0.0
vt 0.460938 -1.666016 0.0
vt 0.728516 -0.287109 0.0
v 20.000000 53.000000 243.000000
#joint 35
#vjoint 127
f 124/325 110/326 127/327
#fvcolorindex 30 27 1 
usemtl m15
vt 0.492188 -1.645508 0.0
vt 1.022461 -0.315430 0.0
vt 0.454102 -0.315430 0.0
f 110/328 124/329 126/330
#fvcolorindex 27 30 31 
usemtl m5
vt 0.728516 -0.287109 0.0
vt 0.460938 -1.666016 0.0
vt 0.006836 -0.287109 0.0
v -20.000000 53.000000 243.000000
#joint 35
#vjoint 128
v -41.000000 103.000000 284.000000
#joint 35
#vjoint 129
f 128/331 110/332 129/333
#fvcolorindex 1 27 1 
usemtl m3
vt 1.276367 -2.400391 0.0
vt 1.322266 -2.952148 0.0
vt 1.385742 -3.725586 0.0
f 123/334 129/335 126/336
#fvcolorindex 6 1 31 
usemtl m18
vt 0.454102 -0.315430 0.0
vt 1.022461 -0.315430 0.0
vt 0.492188 -1.645508 0.0
f 126/337 129/338 110/339
#fvcolorindex 31 1 27 
usemtl m5
vt 2.829102 2.805664 0.0
vt 2.973633 -0.123047 0.0
vt 0.585938 -0.137695 0.0
v -30.000000 105.000000 145.000000
#joint 35
#vjoint 130
f 130/340 129/341 123/342
#fvcolorindex 1 1 6 
usemtl m20
vt 7.181641 0.614258 0.0
vt 2.632812 0.137695 0.0
vt 2.126953 0.000000 0.0
v -118.295654 39.817482 -9.411797
#joint 34
#vjoint 131
f 42/343 131/344 37/345
#fvcolorindex 6 7 7 
vt 7.181641 0.614258 0.0
vt 2.126953 0.000000 0.0
vt 6.617188 0.459961 0.0
f 42/346 37/347 36/348
#fvcolorindex 6 7 6 
usemtl m21
vt 1.345703 -0.110352 0.0
vt 2.632812 0.137695 0.0
vt 7.181641 0.614258 0.0
v -148.295654 29.817482 -19.411797
#joint 34
#vjoint 132
f 132/349 131/350 42/351
#fvcolorindex 7 7 6 
usemtl m20
vt 0.566406 0.154297 0.0
vt 1.345703 -0.110352 0.0
vt 7.181641 0.614258 0.0
f 41/352 132/353 42/354
#fvcolorindex 6 7 6 
vt 0.000000 0.000000 0.0
vt 0.841797 -0.248047 0.0
vt 1.345703 -0.110352 0.0
v -148.295654 29.817482 -46.411797
#joint 34
#vjoint 133
f 38/355 133/356 132/357
#fvcolorindex 6 7 7 
vt 0.000000 0.000000 0.0
vt 1.345703 -0.110352 0.0
vt 0.566406 0.154297 0.0
f 38/358 132/359 41/360
#fvcolorindex 6 7 6 
usemtl m21
vt 2.126953 0.000000 0.0
vt 0.841797 -0.248047 0.0
vt 0.000000 0.000000 0.0
f 37/361 133/362 38/363
#fvcolorindex 7 7 6 
usemtl m22
vt 0.437500 0.981445 0.0
vt 0.447266 0.000977 0.0
vt 0.990234 0.000000 0.0
f 44/364 43/365 40/366
#fvcolorindex 8 6 6 
vt 0.437500 0.981445 0.0
vt 0.990234 0.000000 0.0
vt 0.980469 0.979492 0.0
f 44/367 40/368 39/369
#fvcolorindex 8 6 8 
usemtl m20
vt 0.000000 0.000000 0.0
vt 0.460938 -2.139648 0.0
vt 1.128906 -2.139648 0.0
f 45/370 36/371 44/372
#fvcolorindex 6 9 8 
vt 0.000000 0.000000 0.0
vt 1.128906 -2.139648 0.0
vt 2.357422 0.000000 0.0
f 45/373 44/374 70/375
#fvcolorindex 6 8 13 
vt -5.193359 0.000000 0.0
vt -4.695312 0.978516 0.0
vt -5.556641 0.978516 0.0
v -42.210251 -33.332573 58.951321
#joint 33
#vjoint 134
f 134/376 42/377 36/378
#fvcolorindex 6 7 7 
usemtl m23
vt 0.054688 0.000977 0.0
vt 1.042969 0.000977 0.0
vt 1.033203 1.014648 0.0
f 46/379 134/380 36/381
#fvcolorindex 10 6 7 
usemtl m21
vt 4.365234 5.412109 0.0
vt 8.158203 5.674805 0.0
vt 4.347656 5.578125 0.0
v -118.295654 -83.182518 -36.411797
#joint 34
#vjoint 135
f 131/382 135/383 37/384
#fvcolorindex 7 6 7 
vt 4.302734 6.030273 0.0
vt 8.113281 6.126953 0.0
vt 8.175781 5.508789 0.0
v -148.295654 -83.182518 -19.411797
#joint 34
#vjoint 136
v -118.295654 -83.182518 -9.411797
#joint 34
#vjoint 137
f 132/385 136/386 137/387
#fvcolorindex 7 6 6 
vt 4.302734 6.030273 0.0
vt 8.175781 5.508789 0.0
vt 4.365234 5.412109 0.0
f 132/388 137/389 131/390
#fvcolorindex 7 6 7 
vt 4.285156 6.195312 0.0
vt 8.095703 6.291992 0.0
vt 8.113281 6.126953 0.0
v -148.295654 -83.182518 -46.411797
#joint 34
#vjoint 138
f 133/391 138/392 136/393
#fvcolorindex 7 6 6 
vt 4.285156 6.195312 0.0
vt 8.113281 6.126953 0.0
vt 4.302734 6.030273 0.0
f 133/394 136/395 132/396
#fvcolorindex 7 6 7 
vt 4.347656 5.578125 0.0
vt 8.158203 5.674805 0.0
vt 8.095703 6.291992 0.0
f 37/397 135/398 138/399
#fvcolorindex 7 6 6 
vt 4.347656 5.578125 0.0
vt 8.095703 6.291992 0.0
vt 4.285156 6.195312 0.0
f 37/400 138/401 133/402
#fvcolorindex 7 6 7 
vt 4.365234 5.412109 0.0
vt 8.175781 5.508789 0.0
vt 8.158203 5.674805 0.0
f 131/403 137/404 135/405
#fvcolorindex 7 6 6 
usemtl m24
vt 2.550781 1.333008 0.0
vt 2.566406 0.000000 0.0
vt 0.000000 0.000000 0.0
v -0.210251 74.667427 154.951324
#joint 33
#vjoint 139
f 139/406 69/407 68/408
#fvcolorindex 12 1 15 
vt 2.550781 1.333008 0.0
vt 0.000000 0.000000 0.0
vt -0.009766 0.783203 0.0
v -0.210251 31.667427 236.951324
#joint 33
#vjoint 140
#vcolor 184.000000 184.000000 184.000000 255.000000
f 139/409 68/410 140/411
#fvcolorindex 12 15 32 
usemtl m25
vt -2.406250 0.857422 0.0
vt -4.695312 0.978516 0.0
vt -2.416016 0.526367 0.0
v -40.210251 7.667427 154.951324
#joint 33
#vjoint 141
f 67/412 42/413 141/414
#fvcolorindex 1 1 1 
vt 0.000000 0.000000 0.0
vt 0.023438 0.819336 0.0
vt -2.406250 0.857422 0.0
v -24.210251 -33.332573 236.951324
#joint 33
#vjoint 142
f 142/415 68/416 67/417
#fvcolorindex 1 15 1 
vt 0.000000 0.000000 0.0
vt -2.406250 0.857422 0.0
vt -2.416016 0.526367 0.0
f 142/418 67/419 141/420
#fvcolorindex 1 1 1 
usemtl m20
vt 0.000000 0.000000 0.0
vt 0.000000 0.998047 0.0
vt 5.828125 0.017578 0.0
f 49/421 60/422 69/423
#fvcolorindex 6 6 1 
usemtl m25
vt 0.000000 1.000000 0.0
vt 1.000000 1.000000 0.0
vt 1.000000 0.000000 0.0
f 75/424 140/425 68/426
#fvcolorindex 1 32 15 
vt 0.000000 1.000000 0.0
vt 1.000000 0.000000 0.0
vt 0.000000 0.000000 0.0
f 75/427 68/428 142/429
#fvcolorindex 1 15 1 
vt -2.416016 0.526367 0.0
vt -4.695312 0.978516 0.0
vt -5.193359 0.000000 0.0
f 141/430 42/431 134/432
#fvcolorindex 1 1 1 
vt -2.416016 0.526367 0.0
vt -5.193359 0.000000 0.0
vt -2.429688 0.000000 0.0
v -40.210251 -33.332573 154.951324
#joint 33
#vjoint 143
f 141/433 134/434 143/435
#fvcolorindex 1 1 1 
vt 0.000000 0.000000 0.0
vt -2.416016 0.526367 0.0
vt -2.429688 0.000000 0.0
f 142/436 141/437 143/438
#fvcolorindex 1 1 1 
usemtl m26
vt -0.009766 0.783203 0.0
vt -0.017578 1.566406 0.0
vt 2.533203 2.666016 0.0
f 140/439 88/440 87/441
#fvcolorindex 32 5 12 
vt -0.009766 0.783203 0.0
vt 2.533203 2.666016 0.0
vt 2.550781 1.333008 0.0
f 140/442 87/443 139/444
#fvcolorindex 32 12 12 
usemtl m25
vt 0.000000 2.000000 0.0
vt 1.000000 2.000000 0.0
vt 1.000000 1.000000 0.0
v 24.789749 -33.332573 236.951324
#joint 33
#vjoint 144
f 144/445 88/446 140/447
#fvcolorindex 1 5 32 
vt 0.000000 2.000000 0.0
vt 1.000000 1.000000 0.0
vt 0.000000 1.000000 0.0
f 144/448 140/449 75/450
#fvcolorindex 1 32 1 
vt 4.583984 0.977539 0.0
vt 2.378906 0.857422 0.0
vt 2.357422 0.526367 0.0
v 39.789749 7.667427 154.951324
#joint 33
#vjoint 145
#vcolor 148.000000 148.000000 148.000000 255.000000
f 86/451 85/452 145/453
#fvcolorindex 1 17 33 
usemtl m27
vt 2.378906 0.857422 0.0
vt 0.050781 0.819336 0.0
vt 0.000000 0.000000 0.0
f 85/454 88/455 144/456
#fvcolorindex 17 5 1 
vt 2.378906 0.857422 0.0
vt 0.000000 0.000000 0.0
vt 2.357422 0.526367 0.0
f 85/457 144/458 145/459
#fvcolorindex 17 1 33 
usemtl m25
vt 4.974609 -0.000977 0.0
vt 4.583984 0.977539 0.0
vt 2.357422 0.526367 0.0
v 41.789749 -33.332573 58.951321
#joint 33
#vjoint 146
f 146/460 86/461 145/462
#fvcolorindex 1 1 33 
vt 4.974609 -0.000977 0.0
vt 2.357422 0.526367 0.0
vt 2.324219 0.000000 0.0
v 39.789749 -33.332573 154.951324
#joint 33
#vjoint 147
f 146/463 145/464 147/465
#fvcolorindex 1 33 1 
usemtl m28
vt 2.357422 0.526367 0.0
vt 0.000000 0.000000 0.0
vt 2.324219 0.000000 0.0
f 145/466 144/467 147/468
#fvcolorindex 33 1 1 
usemtl m25
vt 4.025391 0.000000 0.0
vt 3.324219 0.055664 0.0
vt -0.785156 0.062500 0.0
v 118.223648 39.806900 -36.411797
#joint 45
#vjoint 148
v 118.223648 39.806900 -9.411795
#joint 45
#vjoint 149
f 148/469 149/470 86/471
#fvcolorindex 1 1 1 
usemtl m29
vt 0.000000 0.000000 0.0
vt 4.025391 0.000000 0.0
vt -0.785156 0.062500 0.0
f 103/472 148/473 86/474
#fvcolorindex 23 1 1 
usemtl m25
vt -0.785156 0.062500 0.0
vt 3.324219 0.055664 0.0
vt 4.318359 -0.052734 0.0
v 148.223648 29.806900 -19.411795
#joint 45
#vjoint 150
f 86/475 149/476 150/477
#fvcolorindex 1 1 1 
vt -0.785156 0.062500 0.0
vt 4.318359 -0.052734 0.0
vt 4.884766 0.226562 0.0
f 86/478 150/479 99/480
#fvcolorindex 1 1 21 
vt 4.318359 -0.052734 0.0
vt 5.017578 -0.108398 0.0
vt 5.669922 0.165039 0.0
v 148.223648 29.806900 -46.411797
#joint 45
#vjoint 151
f 150/481 151/482 102/483
#fvcolorindex 1 1 1 
usemtl m30
vt 4.884766 0.226562 0.0
vt 4.318359 -0.052734 0.0
vt 5.669922 0.165039 0.0
f 99/484 150/485 102/486
#fvcolorindex 21 1 1 
usemtl m25
vt 5.669922 0.165039 0.0
vt 5.017578 -0.108398 0.0
vt 4.025391 0.000000 0.0
f 102/487 151/488 148/489
#fvcolorindex 1 1 1 
vt 0.000000 0.000000 0.0
vt 2.230469 -0.373047 0.0
vt 8.431641 0.000000 0.0
f 102/490 148/491 103/492
#fvcolorindex 1 6 23 
usemtl m20
vt 0.867188 0.000000 0.0
vt 0.449219 0.000000 0.0
vt 0.437500 0.973633 0.0
f 100/493 101/494 104/495
#fvcolorindex 6 22 6 
usemtl m31
vt 0.855469 0.973633 0.0
vt 0.867188 0.000000 0.0
vt 0.437500 0.973633 0.0
f 83/496 100/497 104/498
#fvcolorindex 14 6 6 
usemtl m32
vt 2.392578 0.000000 0.0
vt 1.144531 -3.027344 0.0
vt 0.468750 -3.027344 0.0
#vcolor 152.000000 152.000000 152.000000 255.000000
f 89/499 104/500 103/501
#fvcolorindex 34 6 23 
vt 2.392578 0.000000 0.0
vt 0.468750 -3.027344 0.0
vt 0.000000 0.000000 0.0
f 89/502 103/503 105/504
#fvcolorindex 34 23 1 
usemtl m29
vt -1.474609 -0.023438 0.0
vt 0.042969 0.004883 0.0
vt -1.019531 -0.992188 0.0
f 103/505 86/506 146/507
#fvcolorindex 23 1 1 
vt 1.033203 1.014648 0.0
vt 1.042969 0.000977 0.0
vt 0.054688 0.000977 0.0
f 103/508 146/509 79/510
#fvcolorindex 23 12 1 
usemtl m24
vt 2.392578 -5.355469 0.0
vt 1.144531 -3.710938 0.0
vt 1.144531 -3.027344 0.0
f 87/511 83/512 104/513
#fvcolorindex 12 14 6 
vt 2.392578 -5.355469 0.0
vt 1.144531 -3.027344 0.0
vt 2.392578 0.000000 0.0
f 87/514 104/515 89/516
#fvcolorindex 12 6 34 
usemtl m25
vt 1.128906 -2.139648 0.0
vt 1.128906 -2.623047 0.0
vt 2.357422 -3.902344 0.0
f 44/517 39/518 69/519
#fvcolorindex 1 1 1 
vt 1.128906 -2.139648 0.0
vt 2.357422 -3.902344 0.0
vt 2.357422 0.000000 0.0
f 44/520 69/521 70/522
#fvcolorindex 1 1 1 
usemtl m20
vt 4.433594 0.000000 0.0
vt 4.390625 -1.043945 0.0
vt 0.000000 -0.896484 0.0
v -0.210251 108.667427 -14.048679
#joint 33
#vjoint 152
f 152/523 64/524 66/525
#fvcolorindex 6 6 6 
vt 4.433594 0.000000 0.0
vt 0.000000 -0.896484 0.0
vt 0.000000 0.000000 0.0
v -0.210251 93.667427 -88.048676
#joint 33
#vjoint 153
f 152/526 66/527 153/528
#fvcolorindex 6 6 6 
usemtl m25
vt -1.181641 0.237305 0.0
vt -0.068359 0.293945 0.0
vt -0.511719 2.468750 0.0
v -0.210251 36.667427 -88.048676
#joint 33
#vjoint 154
f 45/529 154/530 63/531
#fvcolorindex 1 1 1 
vt -1.181641 0.237305 0.0
vt -0.511719 2.468750 0.0
vt -1.074219 2.440430 0.0
f 45/532 63/533 46/534
#fvcolorindex 1 1 1 
vt -1.074219 2.440430 0.0
vt -0.511719 2.468750 0.0
vt -0.068359 0.293945 0.0
f 79/535 63/536 154/537
#fvcolorindex 1 1 1 
vt -1.074219 2.440430 0.0
vt -0.068359 0.293945 0.0
vt -1.181641 0.237305 0.0
f 79/538 154/539 105/540
#fvcolorindex 1 1 1 
usemtl m20
vt 0.000000 0.000000 0.0
vt 0.000000 0.896484 0.0
vt 2.951172 0.368164 0.0
f 153/541 50/542 49/543
#fvcolorindex 6 12 6 
vt 0.000000 0.000000 0.0
vt 2.951172 0.368164 0.0
vt 4.433594 0.000000 0.0
f 153/544 49/545 152/546
#fvcolorindex 6 6 6 
usemtl m33
vt 8.158203 5.674805 0.0
vt 8.175781 5.508789 0.0
vt 4.365234 5.412109 0.0
v 118.223648 -83.193100 -36.411797
#joint 45
#vjoint 155
#vcolor 137.000000 137.000000 137.000000 255.000000
v 118.223648 -83.193100 -9.411795
#joint 45
#vjoint 156
f 155/547 156/548 149/549
#fvcolorindex 35 25 1 
usemtl m25
vt 4.347656 5.578125 0.0
vt 8.158203 5.674805 0.0
vt 4.365234 5.412109 0.0
f 148/550 155/551 149/552
#fvcolorindex 1 35 1 
usemtl m34
vt 8.175781 5.508789 0.0
vt 8.113281 6.126953 0.0
vt 4.302734 6.030273 0.0
v 148.223648 -83.193100 -19.411795
#joint 45
#vjoint 157
f 156/553 157/554 150/555
#fvcolorindex 25 6 1 
usemtl m25
vt 4.365234 5.412109 0.0
vt 8.175781 5.508789 0.0
vt 4.302734 6.030273 0.0
f 149/556 156/557 150/558
#fvcolorindex 1 25 1 
usemtl m20
vt 8.113281 6.126953 0.0
vt 8.095703 6.291992 0.0
vt 4.285156 6.195312 0.0
v 148.223648 -83.193100 -46.411797
#joint 45
#vjoint 158
f 157/559 158/560 151/561
#fvcolorindex 6 20 1 
usemtl m25
vt 4.302734 6.030273 0.0
vt 8.113281 6.126953 0.0
vt 4.285156 6.195312 0.0
f 150/562 157/563 151/564
#fvcolorindex 1 6 1 
usemtl m35
vt 8.095703 6.291992 0.0
vt 8.158203 5.674805 0.0
vt 4.347656 5.578125 0.0
f 158/565 155/566 148/567
#fvcolorindex 20 35 1 
usemtl m25
vt 4.285156 6.195312 0.0
vt 8.095703 6.291992 0.0
vt 4.347656 5.578125 0.0
f 151/568 158/569 148/570
#fvcolorindex 1 20 1 
vt -0.720703 -0.707031 0.0
vt 2.548828 -0.545898 0.0
vt 2.548828 -0.545898 0.0
v -147.000000 -66.000000 173.000000
#joint 35
#vjoint 159
v -139.000000 -80.000000 173.000000
#joint 35
#vjoint 160
f 106/571 159/572 160/573
#fvcolorindex 1 1 1 
usemtl m36
vt 4.470703 0.000000 0.0
vt -0.751953 0.000000 0.0
vt 0.882812 -1.081055 0.0
f 108/574 107/575 111/576
#fvcolorindex 26 25 25 
usemtl m37
vt 3.652344 -1.583984 0.0
vt 3.585938 -0.868164 0.0
vt -0.169922 -1.268555 0.0
v -91.000000 -52.000000 145.000000
#joint 35
#vjoint 161
#vcolor 73.000000 73.000000 73.000000 255.000000
f 161/577 108/578 111/579
#fvcolorindex 36 26 25 
vt 3.652344 -1.583984 0.0
vt -0.169922 -1.268555 0.0
vt -0.126953 -1.738281 0.0
v -46.000000 -27.000000 243.000000
#joint 35
#vjoint 162
#vcolor 202.000000 202.000000 202.000000 255.000000
f 161/580 111/581 162/582
#fvcolorindex 36 25 37 
usemtl m36
vt 3.966797 -1.017578 0.0
vt 2.548828 -0.545898 0.0
vt -0.720703 -0.707031 0.0
f 108/583 159/584 106/585
#fvcolorindex 26 1 1 
usemtl m25
vt 2.548828 -0.545898 0.0
vt 2.548828 -0.545898 0.0
vt 3.966797 -1.017578 0.0
f 160/586 159/587 108/588
#fvcolorindex 1 1 26 
vt 2.548828 -0.545898 0.0
vt 3.966797 -1.017578 0.0
vt 3.966797 -1.017578 0.0
f 160/589 108/590 161/591
#fvcolorindex 1 26 36 
vt 0.882812 -1.081055 0.0
vt -0.751953 0.000000 0.0
vt 4.470703 0.000000 0.0
f 112/592 113/593 114/594
#fvcolorindex 1 1 1 
vt 2.548828 -0.545898 0.0
vt 2.548828 -0.545898 0.0
vt -0.720703 -0.707031 0.0
v -130.000000 -94.000000 173.000000
#joint 35
#vjoint 163
f 160/595 163/596 106/597
#fvcolorindex 1 1 1 
usemtl m37
vt 3.966797 -1.017578 0.0
vt 3.966797 -1.017578 0.0
vt 2.548828 -0.545898 0.0
f 161/598 114/599 163/600
#fvcolorindex 36 1 1 
vt 3.966797 -1.017578 0.0
vt 2.548828 -0.545898 0.0
vt 2.548828 -0.545898 0.0
f 161/601 163/602 160/603
#fvcolorindex 36 1 1 
usemtl m38
vt -0.126953 -1.738281 0.0
vt -0.169922 -1.268555 0.0
vt 3.585938 -0.868164 0.0
f 162/604 112/605 114/606
#fvcolorindex 37 1 1 
vt -0.126953 -1.738281 0.0
vt 3.585938 -0.868164 0.0
vt 3.652344 -1.583984 0.0
f 162/607 114/608 161/609
#fvcolorindex 37 1 36 
usemtl m25
vt -0.720703 -0.707031 0.0
vt 2.548828 -0.545898 0.0
vt 3.966797 -1.017578 0.0
f 106/610 163/611 114/612
#fvcolorindex 1 1 1 
usemtl m39
vt 3.746094 2.140625 0.0
vt -0.230469 1.904297 0.0
vt -0.240234 1.358398 0.0
v -146.601532 -61.677780 306.559387
#joint 42
#vjoint 164
#vcolor 156.000000 156.000000 156.000000 255.000000
f 164/613 2/614 7/615
#fvcolorindex 38 2 4 
vt 3.746094 2.140625 0.0
vt -0.240234 1.358398 0.0
vt 3.728516 1.175781 0.0
v -126.601540 -47.677780 306.559387
#joint 42
#vjoint 165
#vcolor 203.000000 203.000000 203.000000 255.000000
f 164/616 7/617 165/618
#fvcolorindex 38 4 39 
usemtl m25
vt 3.742188 1.938477 0.0
vt -0.232422 1.790039 0.0
vt -0.226562 2.120117 0.0
v -121.601540 -95.677780 306.559387
#joint 42
#vjoint 166
f 166/619 5/620 1/621
#fvcolorindex 1 1 1 
vt 3.742188 1.938477 0.0
vt -0.226562 2.120117 0.0
vt 3.751953 2.521484 0.0
v -143.601532 -85.677780 306.559387
#joint 42
#vjoint 167
f 166/622 1/623 167/624
#fvcolorindex 1 1 1 
usemtl m40
vt 3.718750 0.593750 0.0
vt -0.246094 1.028320 0.0
vt -0.242188 1.244141 0.0
v -104.601540 -56.677780 306.559387
#joint 42
#vjoint 168
#vcolor 174.000000 174.000000 174.000000 255.000000
f 168/625 8/626 4/627
#fvcolorindex 40 5 3 
vt 3.718750 0.593750 0.0
vt -0.242188 1.244141 0.0
vt 3.726562 0.974609 0.0
v -101.601540 -80.677780 306.559387
#joint 42
#vjoint 169
#vcolor 122.000000 122.000000 122.000000 255.000000
f 168/628 4/629 169/630
#fvcolorindex 40 3 41 
usemtl m41
vt -0.720703 -0.707031 0.0
vt 2.548828 -0.545898 0.0
vt 2.548828 -0.545898 0.0
v 130.000000 -94.000000 173.000000
#joint 35
#vjoint 170
v 139.000000 -80.000000 173.000000
#joint 35
#vjoint 171
f 115/631 170/632 171/633
#fvcolorindex 28 1 1 
usemtl m25
vt 4.470703 0.000000 0.0
vt -0.751953 0.000000 0.0
vt 0.882812 -1.081055 0.0
f 117/634 116/635 119/636
#fvcolorindex 1 1 1 
vt 3.652344 -1.583984 0.0
vt 3.585938 -0.868164 0.0
vt -0.169922 -1.268555 0.0
v 91.000000 -52.000000 145.000000
#joint 35
#vjoint 172
f 172/637 117/638 119/639
#fvcolorindex 1 1 1 
vt 3.652344 -1.583984 0.0
vt -0.169922 -1.268555 0.0
vt -0.126953 -1.738281 0.0
v 46.000000 -27.000000 243.000000
#joint 35
#vjoint 173
#vcolor 88.000000 88.000000 88.000000 255.000000
f 172/640 119/641 173/642
#fvcolorindex 1 1 42 
vt 3.966797 -1.017578 0.0
vt 2.548828 -0.545898 0.0
vt -0.720703 -0.707031 0.0
f 117/643 170/644 115/645
#fvcolorindex 1 1 28 
vt 2.548828 -0.545898 0.0
vt 2.548828 -0.545898 0.0
vt 3.966797 -1.017578 0.0
f 171/646 170/647 117/648
#fvcolorindex 1 1 1 
vt 2.548828 -0.545898 0.0
vt 3.966797 -1.017578 0.0
vt 3.966797 -1.017578 0.0
f 171/649 117/650 172/651
#fvcolorindex 1 1 1 
usemtl m20
vt 0.882812 -1.081055 0.0
vt -0.751953 0.000000 0.0
vt 4.470703 0.000000 0.0
f 120/652 121/653 122/654
#fvcolorindex 6 6 29 
usemtl m25
vt 2.548828 -0.545898 0.0
vt 2.548828 -0.545898 0.0
vt -0.720703 -0.707031 0.0
v 147.000000 -66.000000 173.000000
#joint 35
#vjoint 174
#vcolor 111.000000 111.000000 111.000000 255.000000
f 171/655 174/656 115/657
#fvcolorindex 1 43 28 
vt 3.966797 -1.017578 0.0
vt 3.966797 -1.017578 0.0
vt 2.548828 -0.545898 0.0
f 172/658 122/659 174/660
#fvcolorindex 1 29 43 
vt 3.966797 -1.017578 0.0
vt 2.548828 -0.545898 0.0
vt 2.548828 -0.545898 0.0
f 172/661 174/662 171/663
#fvcolorindex 1 43 1 
usemtl m42
vt -0.126953 -1.738281 0.0
vt -0.169922 -1.268555 0.0
vt 3.585938 -0.868164 0.0
f 173/664 120/665 122/666
#fvcolorindex 42 6 29 
vt -0.126953 -1.738281 0.0
vt 3.585938 -0.868164 0.0
vt 3.652344 -1.583984 0.0
f 173/667 122/668 172/669
#fvcolorindex 42 29 1 
usemtl m41
vt -0.720703 -0.707031 0.0
vt 2.548828 -0.545898 0.0
vt 3.966797 -1.017578 0.0
f 115/670 174/671 122/672
#fvcolorindex 28 43 29 
usemtl m25
vt 3.746094 2.140625 0.0
vt -0.230469 1.904297 0.0
vt -0.240234 1.358398 0.0
v 127.329750 -95.677780 306.559387
#joint 36
#vjoint 175
f 175/673 11/674 16/675
#fvcolorindex 1 1 1 
vt 3.746094 2.140625 0.0
vt -0.240234 1.358398 0.0
vt 3.728516 1.175781 0.0
v 105.329750 -86.677780 306.559387
#joint 36
#vjoint 176
f 175/676 16/677 176/678
#fvcolorindex 1 1 1 
usemtl m40
vt 3.742188 1.938477 0.0
vt -0.232422 1.790039 0.0
vt -0.226562 2.120117 0.0
v 144.329742 -57.677780 306.559387
#joint 36
#vjoint 177
f 177/679 14/680 10/681
#fvcolorindex 40 5 3 
vt 3.742188 1.938477 0.0
vt -0.226562 2.120117 0.0
vt 3.751953 2.521484 0.0
v 147.329742 -81.677780 306.559387
#joint 36
#vjoint 178
f 177/682 10/683 178/684
#fvcolorindex 40 3 41 
usemtl m39
vt 3.718750 0.593750 0.0
vt -0.246094 1.028320 0.0
vt -0.242188 1.244141 0.0
v 102.329750 -62.677780 306.559387
#joint 36
#vjoint 179
f 179/685 17/686 13/687
#fvcolorindex 38 2 4 
vt 3.718750 0.593750 0.0
vt -0.242188 1.244141 0.0
vt 3.726562 0.974609 0.0
v 121.329750 -47.677780 306.559387
#joint 36
#vjoint 180
f 179/688 13/689 180/690
#fvcolorindex 38 4 39 
usemtl m43
vt 4.470703 0.000000 0.0
vt -0.751953 0.000000 0.0
vt 0.882812 -1.081055 0.0
f 125/691 124/692 127/693
#fvcolorindex 15 30 1 
usemtl m25
vt 3.652344 -1.583984 0.0
vt 3.585938 -0.868164 0.0
vt -0.169922 -1.268555 0.0
v 0.000000 105.000000 145.000000
#joint 35
#vjoint 181
f 181/694 125/695 127/696
#fvcolorindex 1 15 1 
vt 3.652344 -1.583984 0.0
vt -0.169922 -1.268555 0.0
vt -0.126953 -1.738281 0.0
v 0.000000 53.000000 243.000000
#joint 35
#vjoint 182
f 181/697 127/698 182/699
#fvcolorindex 1 1 1 
vt 0.882812 -1.081055 0.0
vt -0.751953 0.000000 0.0
vt 4.470703 0.000000 0.0
f 128/700 129/701 130/702
#fvcolorindex 1 1 1 
vt -0.126953 -1.738281 0.0
vt -0.169922 -1.268555 0.0
vt 3.585938 -0.868164 0.0
f 182/703 128/704 130/705
#fvcolorindex 1 1 1 
vt -0.126953 -1.738281 0.0
vt 3.585938 -0.868164 0.0
vt 3.652344 -1.583984 0.0
f 182/706 130/707 181/708
#fvcolorindex 1 1 1 
usemtl m40
vt 3.746094 2.140625 0.0
vt -0.230469 1.904297 0.0
vt -0.240234 1.358398 0.0
v 19.000000 157.612427 306.556763
#joint 39
#vjoint 183
f 183/709 20/710 25/711
#fvcolorindex 40 5 3 
vt 3.746094 2.140625 0.0
vt -0.240234 1.358398 0.0
vt 3.728516 1.175781 0.0
v 22.000000 133.612427 306.556763
#joint 39
#vjoint 184
f 183/712 25/713 184/714
#fvcolorindex 40 3 41 
usemtl m39
vt 3.742188 1.938477 0.0
vt -0.232422 1.790039 0.0
vt -0.226562 2.120117 0.0
v -22.000000 152.612427 306.556763
#joint 39
#vjoint 185
f 185/715 23/716 19/717
#fvcolorindex 38 2 4 
vt 3.742188 1.938477 0.0
vt -0.226562 2.120117 0.0
vt 3.751953 2.521484 0.0
v -3.000000 167.612427 306.556763
#joint 39
#vjoint 186
f 185/718 19/719 186/720
#fvcolorindex 38 4 39 
usemtl m25
vt 3.718750 0.593750 0.0
vt -0.246094 1.028320 0.0
vt -0.242188 1.244141 0.0
v 3.000000 119.612427 306.556763
#joint 39
#vjoint 187
f 187/721 26/722 22/723
#fvcolorindex 1 1 1 
vt 3.718750 0.593750 0.0
vt -0.242188 1.244141 0.0
vt 3.726562 0.974609 0.0
v -19.000000 128.612427 306.556763
#joint 39
#vjoint 188
f 187/724 22/725 188/726
#fvcolorindex 1 1 1 
usemtl m44MirrorS
vt 0.000000 0.000000 0.0
vt 1.000000 0.000000 0.0
vt 1.000000 1.000000 0.0
v -42.210251 -150.332581 108.951324
#joint 33
#vjoint 189
#vcolor 64.000000 64.000000 64.000000 255.000000
v -0.210251 -150.332581 108.951324
#joint 33
#vjoint 190
f 189/727 190/728 73/729
#fvcolorindex 44 44 6 
vt 0.000000 0.000000 0.0
vt 1.000000 1.000000 0.0
vt 0.000000 1.000000 0.0
v -42.210251 -91.332573 125.951324
#joint 33
#vjoint 191
f 189/730 73/731 191/732
#fvcolorindex 44 6 6 
usemtl m45MirrorS
vt 1.045898 1.000000 0.0
vt 0.045898 1.000000 0.0
vt 0.000000 0.000000 0.0
v -42.210251 -90.332573 25.951321
#joint 33
#vjoint 192
v -0.210251 -149.332581 34.951321
#joint 33
#vjoint 193
f 192/733 61/734 193/735
#fvcolorindex 6 6 44 
vt 1.045898 1.000000 0.0
vt 0.000000 0.000000 0.0
vt 1.000000 0.000000 0.0
v -42.210251 -149.332581 34.951321
#joint 33
#vjoint 194
f 192/736 193/737 194/738
#fvcolorindex 6 44 44 
usemtl m44MirrorS
vt 0.000000 -0.994141 0.0
vt -1.011719 -0.994141 0.0
vt -1.011719 0.000000 0.0
f 194/739 193/740 190/741
#fvcolorindex 44 44 44 
vt 0.000000 -0.994141 0.0
vt -1.011719 0.000000 0.0
vt 0.000000 0.000000 0.0
f 194/742 190/743 189/744
#fvcolorindex 44 44 44 
usemtl m45MirrorS
vt -0.934570 0.000000 0.0
vt -0.790039 -0.949219 0.0
vt 0.412109 -0.966797 0.0
f 192/745 194/746 189/747
#fvcolorindex 6 44 44 
vt -0.934570 0.000000 0.0
vt 0.412109 -0.966797 0.0
vt 0.671875 0.000000 0.0
f 192/748 189/749 191/750
#fvcolorindex 6 44 6 
usemtl m46MirrorS
vt 0.459961 -0.026367 0.0
vt 0.118164 1.208008 0.0
vt -0.587891 -0.026367 0.0
f 49/751 48/752 60/753
#fvcolorindex 12 6 12 
vt 0.997070 0.977539 0.0
vt 1.406250 0.977539 0.0
vt 1.314453 3.102539 0.0
f 152/754 49/755 69/756
#fvcolorindex 12 12 12 
vt 0.997070 0.977539 0.0
vt 1.314453 3.102539 0.0
vt 0.997070 3.105469 0.0
f 152/757 69/758 139/759
#fvcolorindex 12 12 12 
usemtl m47MirrorS
vt 0.000000 -1.226562 0.0
vt 1.546875 -1.226562 0.0
vt 1.995117 0.000000 0.0
f 60/760 59/761 58/762
#fvcolorindex 11 11 8 
vt 0.000000 -1.226562 0.0
vt 1.995117 0.000000 0.0
vt 0.000000 0.000000 0.0
f 60/763 58/764 52/765
#fvcolorindex 11 8 7 
usemtl m45MirrorS
vt 1.917969 -0.396484 0.0
vt 1.917969 0.000000 0.0
vt 0.000000 0.000000 0.0
f 191/766 72/767 62/768
#fvcolorindex 6 13 13 
vt 1.917969 -0.396484 0.0
vt 0.000000 0.000000 0.0
vt 0.000000 -0.396484 0.0
f 191/769 62/770 192/771
#fvcolorindex 6 13 6 
usemtl m48MirrorS
vt 0.000000 1.000000 0.0
vt 1.000000 1.000000 0.0
vt 1.000000 0.000000 0.0
v 41.789749 -91.332573 125.951324
#joint 33
#vjoint 195
f 195/772 73/773 190/774
#fvcolorindex 5 1 1 
vt 0.000000 1.000000 0.0
vt 1.000000 0.000000 0.0
vt 0.000000 0.000000 0.0
v 41.789749 -150.332581 108.951324
#joint 33
#vjoint 196
f 195/775 190/776 196/777
#fvcolorindex 5 1 1 
vt 0.671875 0.000000 0.0
vt 0.412109 -0.966797 0.0
vt -0.790039 -0.949219 0.0
v 41.789749 -149.332581 34.951321
#joint 33
#vjoint 197
f 195/778 196/779 197/780
#fvcolorindex 5 1 1 
vt 0.671875 0.000000 0.0
vt -0.790039 -0.949219 0.0
vt -0.934570 0.000000 0.0
v 41.789749 -90.332573 25.951321
#joint 33
#vjoint 198
#vcolor 229.000000 229.000000 229.000000 255.000000
f 195/781 197/782 198/783
#fvcolorindex 5 1 45 
usemtl m49MirrorS
vt 0.000000 -0.396484 0.0
vt 0.000000 0.000000 0.0
vt 1.917969 0.000000 0.0
f 198/784 78/785 77/786
#fvcolorindex 45 6 16 
vt 0.000000 -0.396484 0.0
vt 1.917969 0.000000 0.0
vt 1.917969 -0.396484 0.0
f 198/787 77/788 195/789
#fvcolorindex 45 16 5 
usemtl m50MirrorS
vt 1.000000 0.000000 0.0
vt 0.000000 0.000000 0.0
vt 0.045898 1.000000 0.0
f 197/790 193/791 61/792
#fvcolorindex 1 1 24 
vt 1.000000 0.000000 0.0
vt 0.045898 1.000000 0.0
vt 1.045898 1.000000 0.0
f 197/793 61/794 198/795
#fvcolorindex 1 24 45 
vt 0.000000 0.000000 0.0
vt -0.992188 0.000000 0.0
vt -0.992188 -0.980469 0.0
f 196/796 190/797 193/798
#fvcolorindex 1 1 1 
vt 0.000000 0.000000 0.0
vt -0.992188 -0.980469 0.0
vt 0.000000 -0.980469 0.0
f 196/799 193/800 197/801
#fvcolorindex 1 1 1 
usemtl m45MirrorS
vt 0.997070 3.105469 0.0
vt 0.679688 3.104492 0.0
vt -0.163086 0.996094 0.0
f 139/802 87/803 64/804
#fvcolorindex 6 6 6 
vt 0.997070 3.105469 0.0
vt -0.163086 0.996094 0.0
vt 0.997070 0.977539 0.0
f 139/805 64/806 152/807
#fvcolorindex 6 6 6 
usemtl m51MirrorS
vt 0.274414 0.000000 0.0
vt 0.000000 0.000000 0.0
vt -0.219727 1.186523 0.0
v -18.210251 -25.332573 58.951321
#joint 33
#vjoint 199
v 17.789749 -25.332573 58.951321
#joint 33
#vjoint 200
f 199/808 200/809 105/810
#fvcolorindex 7 7 34 
vt 0.274414 0.000000 0.0
vt -0.219727 1.186523 0.0
vt 0.416016 1.186523 0.0
f 199/811 105/812 45/813
#fvcolorindex 7 34 34 
vt 0.124023 0.826172 0.0
vt 0.645508 1.000000 0.0
vt 1.000000 0.000000 0.0
v 23.789749 54.667427 44.951321
#joint 33
#vjoint 201
v -21.210251 54.667427 74.951324
#joint 33
#vjoint 202
f 201/814 202/815 50/816
#fvcolorindex 7 7 34 
vt 0.124023 0.826172 0.0
vt 1.000000 0.000000 0.0
vt 0.000000 0.000000 0.0
f 201/817 50/818 66/819
#fvcolorindex 7 34 34 
vt 0.000000 0.000000 0.0
vt 0.226562 1.096680 0.0
vt 0.480469 1.125000 0.0
f 201/820 66/821 89/822
#fvcolorindex 7 34 34 
usemtl m52MirrorS
vt 0.505859 1.118164 0.0
vt 0.264648 1.084961 0.0
vt -0.114258 -0.280273 0.0
f 70/823 50/824 202/825
#fvcolorindex 34 34 7 
vt 1.000000 1.184570 0.0
vt 1.000000 0.000000 0.0
vt 0.000000 0.000000 0.0
f 105/826 200/827 201/828
#fvcolorindex 34 7 7 
vt 1.000000 1.184570 0.0
vt 0.000000 0.000000 0.0
vt 0.480469 1.125000 0.0
f 105/829 201/830 89/831
#fvcolorindex 34 7 34 
vt 1.000000 1.187500 0.0
vt 0.505859 1.118164 0.0
vt -0.114258 -0.280273 0.0
f 45/832 70/833 202/834
#fvcolorindex 34 34 7 
vt 1.000000 1.187500 0.0
vt -0.114258 -0.280273 0.0
vt 1.000000 0.000000 0.0
f 45/835 202/836 199/837
#fvcolorindex 34 7 7 
usemtl m51MirrorS
vt 0.882812 0.000000 0.0
vt 0.479492 0.000977 0.0
vt 0.429688 0.798828 0.0
f 200/838 199/839 202/840
#fvcolorindex 7 7 7 
vt 0.882812 0.000000 0.0
vt 0.429688 0.798828 0.0
vt 0.935547 0.850586 0.0
f 200/841 202/842 201/843
#fvcolorindex 7 7 7 
usemtl m52MirrorS
vt 1.000000 0.000000 0.0
vt 0.000000 0.000000 0.0
vt 1.000000 1.000000 0.0
f 66/844 65/845 89/846
#fvcolorindex 34 34 34 
vt 1.155273 0.408203 0.0
vt 1.000000 0.000000 0.0
vt 0.000000 0.000000 0.0
f 47/847 50/848 70/849
#fvcolorindex 34 34 34 
vt 1.000000 1.000000 0.0
vt 1.155273 0.408203 0.0
vt 0.000000 0.000000 0.0
f 51/850 47/851 70/852
#fvcolorindex 34 34 34 
usemtl m53MirrorS
vt 0.484375 0.875000 0.0
vt -0.626465 0.955078 0.0
vt -0.626465 0.000000 0.0
f 143/853 134/854 46/855
#fvcolorindex 1 1 1 
vt 0.484375 0.875000 0.0
vt -0.626465 0.000000 0.0
vt 0.484375 0.000000 0.0
f 143/856 46/857 90/858
#fvcolorindex 1 1 1 
vt 1.429199 0.000000 0.0
vt 1.429199 0.808594 0.0
vt 0.484375 0.875000 0.0
f 76/859 142/860 143/861
#fvcolorindex 1 1 1 
vt 1.429199 0.000000 0.0
vt 0.484375 0.875000 0.0
vt 0.484375 0.000000 0.0
f 76/862 143/863 90/864
#fvcolorindex 1 1 1 
vt -0.626465 0.000000 0.0
vt -0.626465 0.955078 0.0
vt 0.484375 0.875000 0.0
f 79/865 146/866 147/867
#fvcolorindex 1 1 1 
vt -0.626465 0.000000 0.0
vt 0.484375 0.875000 0.0
vt 0.484375 0.000000 0.0
f 79/868 147/869 80/870
#fvcolorindex 1 1 1 
vt 0.484375 0.875000 0.0
vt 1.429199 0.808594 0.0
vt 1.429199 0.000000 0.0
f 147/871 144/872 82/873
#fvcolorindex 1 1 1 
vt 0.484375 0.875000 0.0
vt 1.429199 0.000000 0.0
vt 0.484375 0.000000 0.0
f 147/874 82/875 80/876
#fvcolorindex 1 1 1 
usemtl m54MirrorS
vt 1.723633 0.000000 0.0
vt 1.353027 1.000000 0.0
vt -0.617188 2.042969 0.0
f 135/877 137/878 35/879
#fvcolorindex 6 6 6 
vt 2.468262 0.410156 0.0
vt 1.723633 0.000000 0.0
vt 0.132324 0.000000 0.0
f 29/880 135/881 33/882
#fvcolorindex 6 6 6 
vt 2.468262 0.410156 0.0
vt 2.033691 0.798828 0.0
vt 1.723633 0.000000 0.0
f 29/883 138/884 135/885
#fvcolorindex 6 6 6 
vt 1.717285 2.439453 0.0
vt 1.663086 1.798828 0.0
vt 2.468262 0.410156 0.0
f 28/886 136/887 29/888
#fvcolorindex 6 6 6 
vt 1.663086 1.798828 0.0
vt 2.033691 0.798828 0.0
vt 2.468262 0.410156 0.0
f 136/889 138/890 29/891
#fvcolorindex 6 6 6 
vt -0.617188 2.042969 0.0
vt 1.663086 1.798828 0.0
vt 1.717285 2.439453 0.0
f 35/892 136/893 28/894
#fvcolorindex 6 6 6 
vt -0.617188 2.042969 0.0
vt 1.353027 1.000000 0.0
vt 1.663086 1.798828 0.0
f 35/895 137/896 136/897
#fvcolorindex 6 6 6 
vt 0.132324 0.000000 0.0
vt 1.723633 0.000000 0.0
vt -0.617188 2.042969 0.0
f 33/898 135/899 35/900
#fvcolorindex 6 6 6 
vt -0.770508 1.980469 0.0
vt 1.147461 0.970703 0.0
vt 1.528320 0.000000 0.0
f 98/901 156/902 155/903
#fvcolorindex 6 25 35 
usemtl m55MirrorS
vt 0.000000 0.000000 0.0
vt 1.528320 0.000000 0.0
vt 2.234863 0.384766 0.0
f 95/904 155/905 92/906
#fvcolorindex 1 35 6 
usemtl m56MirrorS
vt 1.528320 0.000000 0.0
vt 1.806641 0.771484 0.0
vt 2.234863 0.384766 0.0
f 155/907 158/908 92/909
#fvcolorindex 35 20 6 
usemtl m54MirrorS
vt 2.234863 0.384766 0.0
vt 1.425781 1.740234 0.0
vt 1.462891 2.351562 0.0
f 92/910 157/911 93/912
#fvcolorindex 6 6 20 
vt 2.234863 0.384766 0.0
vt 1.806641 0.771484 0.0
vt 1.425781 1.740234 0.0
f 92/913 158/914 157/915
#fvcolorindex 6 20 6 
usemtl m57MirrorS
vt 1.462891 2.351562 0.0
vt 1.425781 1.740234 0.0
vt -0.770508 1.980469 0.0
f 93/916 157/917 98/918
#fvcolorindex 20 6 6 
usemtl m54MirrorS
vt 1.425781 1.740234 0.0
vt 1.147461 0.970703 0.0
vt -0.770508 1.980469 0.0
f 157/919 156/920 98/921
#fvcolorindex 6 25 6 
vt -0.770508 1.980469 0.0
vt 1.528320 0.000000 0.0
vt 0.000000 0.000000 0.0
f 98/922 155/923 95/924
#fvcolorindex 6 35 1 
usemtl m58EnvMappingTexScaleS0.031250TexScaleT0.031250
vt 0.000000 0.000000 0.0
vt 0.000000 0.000000 0.0
vt 0.000000 0.000000 0.0
#vcolor 52.000000 30.000000 145.000000 255.000000
#vcolor 239.000000 34.000000 135.000000 255.000000
#vcolor 226.000000 122.000000 14.000000 255.000000
vn 0.409449 0.236220 1.141732
vn 1.881890 0.267717 1.062992
vn 1.779528 0.960630 0.110236
f 53/925/1 57/926/2 55/927/3
#fvcolorindex 46 47 48 
vt 0.000000 0.000000 0.0
vt 0.000000 0.000000 0.0
vt 0.000000 0.000000 0.0
#vcolor 43.000000 116.000000 25.000000 255.000000
vn 0.409449 0.236220 1.141732
vn 1.779528 0.960630 0.110236
vn 0.338583 0.913386 0.196850
f 53/928/4 55/929/5 54/930/6
#fvcolorindex 46 48 49 
usemtl m59
vt 0.442383 0.000000 0.0
vt 0.442383 -0.829102 0.0
vt 0.942383 -0.829102 0.0
v -142.601532 -63.677780 283.559387
#joint 42
#vjoint 203
#vcolor 79.000000 79.000000 79.000000 255.000000
f 203/931 164/932 165/933
#fvcolorindex 50 38 39 
vt 0.442383 0.000000 0.0
vt 0.942383 -0.829102 0.0
vt 0.942383 0.000000 0.0
v -126.601540 -51.677780 283.559387
#joint 42
#vjoint 204
f 203/934 165/935 204/936
#fvcolorindex 50 39 6 
usemtl m60
vt 2.942383 0.000000 0.0
vt 2.942383 -0.829102 0.0
vt 3.442383 -0.829102 0.0
v -139.601532 -83.677780 283.559387
#joint 42
#vjoint 205
f 205/937 167/938 164/939
#fvcolorindex 1 1 38 
vt 2.942383 0.000000 0.0
vt 3.442383 -0.829102 0.0
vt 3.442383 0.000000 0.0
f 205/940 164/941 203/942
#fvcolorindex 1 38 50 
vt 2.442383 0.000000 0.0
vt 2.442383 -0.829102 0.0
vt 2.942383 -0.829102 0.0
v -121.601540 -90.677780 283.559387
#joint 42
#vjoint 206
f 206/943 166/944 167/945
#fvcolorindex 1 1 1 
vt 2.442383 0.000000 0.0
vt 2.942383 -0.829102 0.0
vt 2.942383 0.000000 0.0
f 206/946 167/947 205/948
#fvcolorindex 1 1 1 
vt 1.942383 0.000000 0.0
vt 1.942383 -0.829102 0.0
vt 2.442383 -0.829102 0.0
v -105.601540 -78.677780 283.559387
#joint 42
#vjoint 207
f 207/949 169/950 166/951
#fvcolorindex 1 41 1 
vt 1.942383 0.000000 0.0
vt 2.442383 -0.829102 0.0
vt 2.442383 0.000000 0.0
f 207/952 166/953 206/954
#fvcolorindex 1 1 1 
usemtl m61
vt 1.442383 0.000000 0.0
vt 1.442383 -0.829102 0.0
vt 1.942383 -0.829102 0.0
v -108.601540 -59.677780 283.559387
#joint 42
#vjoint 208
f 208/955 168/956 169/957
#fvcolorindex 14 40 41 
vt 1.442383 0.000000 0.0
vt 1.942383 -0.829102 0.0
vt 1.942383 0.000000 0.0
f 208/958 169/959 207/960
#fvcolorindex 14 41 1 
usemtl m62
vt 0.942383 0.000000 0.0
vt 0.942383 -0.829102 0.0
vt 1.442383 -0.829102 0.0
f 204/961 165/962 168/963
#fvcolorindex 6 39 40 
vt 0.942383 0.000000 0.0
vt 1.442383 -0.829102 0.0
vt 1.442383 0.000000 0.0
f 204/964 168/965 208/966
#fvcolorindex 6 40 14 
usemtl m60
vt 0.000000 0.000000 0.0
vt 1.000000 0.000000 0.0
vt -0.279297 0.723633 0.0
f 167/967 1/968 3/969
#fvcolorindex 1 1 1 
usemtl m63
vt 0.980469 -0.420898 0.0
vt -0.019531 -0.420898 0.0
vt -0.297852 -1.144531 0.0
f 2/970 164/971 3/972
#fvcolorindex 2 38 1 
usemtl m64
vt 0.000000 0.000000 0.0
vt 1.000000 0.000000 0.0
vt 0.500000 1.541992 0.0
f 164/973 167/974 3/975
#fvcolorindex 38 1 1 
usemtl m65
vt 0.000000 0.000000 0.0
vt 1.000000 0.000000 0.0
vt -0.279297 0.723633 0.0
f 169/976 4/977 6/978
#fvcolorindex 41 3 1 
usemtl m60
vt 1.000000 0.000000 0.0
vt 0.000000 0.000000 0.0
vt -0.279297 -0.723633 0.0
f 5/979 166/980 6/981
#fvcolorindex 1 1 1 
vt 0.000000 0.000000 0.0
vt 1.000000 0.000000 0.0
vt 0.500000 1.541992 0.0
f 166/982 169/983 6/984
#fvcolorindex 1 41 1 
usemtl m66
vt 0.000000 0.000000 0.0
vt 1.000000 0.000000 0.0
vt -0.279297 0.723633 0.0
f 165/985 7/986 9/987
#fvcolorindex 39 4 6 
usemtl m67
vt 1.000000 0.000000 0.0
vt 0.000000 0.000000 0.0
vt -0.279297 -0.723633 0.0
f 8/988 168/989 9/990
#fvcolorindex 5 40 6 
usemtl m68
vt 0.000000 0.000000 0.0
vt 1.000000 0.000000 0.0
vt 0.500000 1.541992 0.0
f 168/991 165/992 9/993
#fvcolorindex 40 39 6 
usemtl m60
vt 0.442383 0.000000 0.0
vt 0.442383 -0.829102 0.0
vt 0.942383 -0.829102 0.0
v 127.329750 -91.677780 283.559387
#joint 36
#vjoint 209
f 209/994 175/995 176/996
#fvcolorindex 1 1 1 
vt 0.442383 0.000000 0.0
vt 0.942383 -0.829102 0.0
vt 0.942383 0.000000 0.0
v 108.329750 -83.677780 283.559387
#joint 36
#vjoint 210
f 209/997 176/998 210/999
#fvcolorindex 1 1 1 
vt 2.942383 0.000000 0.0
vt 2.942383 -0.829102 0.0
vt 3.442383 -0.829102 0.0
v 143.329742 -79.677780 283.559387
#joint 36
#vjoint 211
f 211/1000 178/1001 175/1002
#fvcolorindex 1 41 1 
vt 2.942383 0.000000 0.0
vt 3.442383 -0.829102 0.0
vt 3.442383 0.000000 0.0
f 211/1003 175/1004 209/1005
#fvcolorindex 1 1 1 
usemtl m61
vt 2.442383 0.000000 0.0
vt 2.442383 -0.829102 0.0
vt 2.942383 -0.829102 0.0
v 140.329742 -59.677780 283.559387
#joint 36
#vjoint 212
f 212/1006 177/1007 178/1008
#fvcolorindex 14 40 41 
vt 2.442383 0.000000 0.0
vt 2.942383 -0.829102 0.0
vt 2.942383 0.000000 0.0
f 212/1009 178/1010 211/1011
#fvcolorindex 14 41 1 
usemtl m62
vt 1.942383 0.000000 0.0
vt 1.942383 -0.829102 0.0
vt 2.442383 -0.829102 0.0
v 122.329750 -51.677780 283.559387
#joint 36
#vjoint 213
f 213/1012 180/1013 177/1014
#fvcolorindex 6 39 40 
vt 1.942383 0.000000 0.0
vt 2.442383 -0.829102 0.0
vt 2.442383 0.000000 0.0
f 213/1015 177/1016 212/1017
#fvcolorindex 6 40 14 
usemtl m59
vt 1.442383 0.000000 0.0
vt 1.442383 -0.829102 0.0
vt 1.942383 -0.829102 0.0
v 106.329750 -63.677780 283.559387
#joint 36
#vjoint 214
f 214/1018 179/1019 180/1020
#fvcolorindex 50 38 39 
vt 1.442383 0.000000 0.0
vt 1.942383 -0.829102 0.0
vt 1.942383 0.000000 0.0
f 214/1021 180/1022 213/1023
#fvcolorindex 50 39 6 
usemtl m60
vt 0.942383 0.000000 0.0
vt 0.942383 -0.829102 0.0
vt 1.442383 -0.829102 0.0
f 210/1024 176/1025 179/1026
#fvcolorindex 1 1 38 
vt 0.942383 0.000000 0.0
vt 1.442383 -0.829102 0.0
vt 1.442383 0.000000 0.0
f 210/1027 179/1028 214/1029
#fvcolorindex 1 38 50 
usemtl m65
vt 0.000000 0.000000 0.0
vt 1.000000 0.000000 0.0
vt -0.279297 0.723633 0.0
f 178/1030 10/1031 12/1032
#fvcolorindex 41 3 1 
usemtl m60
vt 0.980469 -0.420898 0.0
vt -0.019531 -0.420898 0.0
vt -0.297852 -1.144531 0.0
f 11/1033 175/1034 12/1035
#fvcolorindex 1 1 1 
vt 0.000000 0.000000 0.0
vt 1.000000 0.000000 0.0
vt 0.500000 1.541992 0.0
f 175/1036 178/1037 12/1038
#fvcolorindex 1 41 1 
usemtl m66
vt 0.000000 0.000000 0.0
vt 1.000000 0.000000 0.0
vt -0.279297 0.723633 0.0
f 180/1039 13/1040 15/1041
#fvcolorindex 39 4 6 
usemtl m67
vt 1.000000 0.000000 0.0
vt 0.000000 0.000000 0.0
vt -0.279297 -0.723633 0.0
f 14/1042 177/1043 15/1044
#fvcolorindex 5 40 6 
usemtl m68
vt 0.000000 0.000000 0.0
vt 1.000000 0.000000 0.0
vt 0.500000 1.541992 0.0
f 177/1045 180/1046 15/1047
#fvcolorindex 40 39 6 
usemtl m60
vt 0.000000 0.000000 0.0
vt 1.000000 0.000000 0.0
vt -0.279297 0.723633 0.0
f 176/1048 16/1049 18/1050
#fvcolorindex 1 1 1 
usemtl m63
vt 1.000000 0.000000 0.0
vt 0.000000 0.000000 0.0
vt -0.279297 -0.723633 0.0
f 17/1051 179/1052 18/1053
#fvcolorindex 2 38 1 
usemtl m64
vt 0.000000 0.000000 0.0
vt 1.000000 0.000000 0.0
vt 0.500000 1.541992 0.0
f 179/1054 176/1055 18/1056
#fvcolorindex 38 1 1 
usemtl m61
vt 0.442383 0.000000 0.0
vt 0.442383 -0.829102 0.0
vt 0.942383 -0.829102 0.0
v 16.000000 155.612427 283.556763
#joint 39
#vjoint 215
f 215/1057 183/1058 184/1059
#fvcolorindex 14 40 41 
vt 0.442383 0.000000 0.0
vt 0.942383 -0.829102 0.0
vt 0.942383 0.000000 0.0
v 19.000000 135.612427 283.556763
#joint 39
#vjoint 216
f 215/1060 184/1061 216/1062
#fvcolorindex 14 41 1 
usemtl m62
vt 2.942383 0.000000 0.0
vt 2.942383 -0.829102 0.0
vt 3.442383 -0.829102 0.0
v -2.000000 162.612427 283.556763
#joint 39
#vjoint 217
f 217/1063 186/1064 183/1065
#fvcolorindex 6 39 40 
vt 2.942383 0.000000 0.0
vt 3.442383 -0.829102 0.0
vt 3.442383 0.000000 0.0
f 217/1066 183/1067 215/1068
#fvcolorindex 6 40 14 
usemtl m59
vt 2.442383 0.000000 0.0
vt 2.442383 -0.829102 0.0
vt 2.942383 -0.829102 0.0
v -18.000000 151.612427 283.556763
#joint 39
#vjoint 218
f 218/1069 185/1070 186/1071
#fvcolorindex 50 38 39 
vt 2.442383 0.000000 0.0
vt 2.942383 -0.829102 0.0
vt 2.942383 0.000000 0.0
f 218/1072 186/1073 217/1074
#fvcolorindex 50 39 6 
usemtl m60
vt 1.942383 0.000000 0.0
vt 1.942383 -0.829102 0.0
vt 2.442383 -0.829102 0.0
v -16.000000 131.612427 283.556763
#joint 39
#vjoint 219
f 219/1075 188/1076 185/1077
#fvcolorindex 1 1 38 
vt 1.942383 0.000000 0.0
vt 2.442383 -0.829102 0.0
vt 2.442383 0.000000 0.0
f 219/1078 185/1079 218/1080
#fvcolorindex 1 38 50 
vt 1.442383 0.000000 0.0
vt 1.442383 -0.829102 0.0
vt 1.942383 -0.829102 0.0
v 3.000000 123.612427 283.556763
#joint 39
#vjoint 220
f 220/1081 187/1082 188/1083
#fvcolorindex 1 1 1 
vt 1.442383 0.000000 0.0
vt 1.942383 -0.829102 0.0
vt 1.942383 0.000000 0.0
f 220/1084 188/1085 219/1086
#fvcolorindex 1 1 1 
vt 0.942383 0.000000 0.0
vt 0.942383 -0.829102 0.0
vt 1.442383 -0.829102 0.0
f 216/1087 184/1088 187/1089
#fvcolorindex 1 41 1 
vt 0.942383 0.000000 0.0
vt 1.442383 -0.829102 0.0
vt 1.442383 0.000000 0.0
f 216/1090 187/1091 220/1092
#fvcolorindex 1 1 1 
usemtl m66
vt 0.000000 0.000000 0.0
vt 1.000000 0.000000 0.0
vt -0.279297 0.723633 0.0
f 186/1093 19/1094 21/1095
#fvcolorindex 39 4 6 
usemtl m67
vt 0.980469 -0.420898 0.0
vt -0.019531 -0.420898 0.0
vt -0.297852 -1.144531 0.0
f 20/1096 183/1097 21/1098
#fvcolorindex 5 40 6 
usemtl m68
vt 0.000000 0.000000 0.0
vt 1.000000 0.000000 0.0
vt 0.500000 1.541992 0.0
f 183/1099 186/1100 21/1101
#fvcolorindex 40 39 6 
usemtl m60
vt 0.000000 0.000000 0.0
vt 1.000000 0.000000 0.0
vt -0.279297 0.723633 0.0
f 188/1102 22/1103 24/1104
#fvcolorindex 1 1 1 
usemtl m63
vt 1.000000 0.000000 0.0
vt 0.000000 0.000000 0.0
vt -0.279297 -0.723633 0.0
f 23/1105 185/1106 24/1107
#fvcolorindex 2 38 1 
usemtl m64
vt 0.000000 0.000000 0.0
vt 1.000000 0.000000 0.0
vt 0.500000 1.541992 0.0
f 185/1108 188/1109 24/1110
#fvcolorindex 38 1 1 
usemtl m65
vt 0.000000 0.000000 0.0
vt 1.000000 0.000000 0.0
vt -0.279297 0.723633 0.0
f 184/1111 25/1112 27/1113
#fvcolorindex 41 3 1 
usemtl m60
vt 1.000000 0.000000 0.0
vt 0.000000 0.000000 0.0
vt -0.279297 -0.723633 0.0
f 26/1114 187/1115 27/1116
#fvcolorindex 1 1 1 
vt 0.000000 0.000000 0.0
vt 1.000000 0.000000 0.0
vt 0.500000 1.541992 0.0
f 187/1117 184/1118 27/1119
#fvcolorindex 1 41 1 
vt 0.485352 -0.626953 0.0
vt 1.000000 0.000000 0.0
vt -0.029297 0.000000 0.0
v 0.000000 0.000000 252.000000
#joint 35
#vjoint 221
f 221/1120 127/1121 120/1122
#fvcolorindex 1 1 1 
vt 0.500000 -0.608398 0.0
vt 0.000000 0.000000 0.0
vt 1.000000 0.000000 0.0
f 221/1123 128/1124 127/1125
#fvcolorindex 1 1 1 
vt 0.000000 0.000000 0.0
vt 1.000000 0.000000 0.0
vt 0.500000 -0.608398 0.0
f 120/1126 119/1127 221/1128
#fvcolorindex 1 1 1 
vt -0.702148 -0.172852 0.0
vt -0.676758 0.691406 0.0
vt -2.298828 0.306641 0.0
f 112/1129 119/1130 110/1131
#fvcolorindex 1 1 27 
usemtl m62
vt -0.702148 -0.172852 0.0
vt -0.676758 0.691406 0.0
vt -2.298828 0.306641 0.0
f 120/1132 127/1133 110/1134
#fvcolorindex 6 1 27 
usemtl m69
vt -2.298828 0.306641 0.0
vt -0.676758 0.691406 0.0
vt -0.702148 -0.172852 0.0
f 110/1135 128/1136 111/1137
#fvcolorindex 27 1 25 
usemtl m70
vt 1.000000 0.000000 0.0
vt 0.000000 0.000000 0.0
vt 0.500000 -0.608398 0.0
f 111/1138 128/1139 221/1140
#fvcolorindex 25 1 1 
usemtl m60
vt 0.000000 0.000000 0.0
vt 1.000000 0.000000 0.0
vt 0.500000 -0.608398 0.0
f 112/1141 111/1142 221/1143
#fvcolorindex 1 25 1 
vt 0.500000 -0.608398 0.0
vt 1.000000 0.000000 0.0
vt 0.000000 0.000000 0.0
f 221/1144 119/1145 112/1146
#fvcolorindex 1 1 1 
usemtl m71
vt 1.158203 -0.478516 0.0
vt 0.847656 -0.138672 0.0
vt 0.218750 -0.140625 0.0
f 7/1147 2/1148 1/1149
#fvcolorindex 4 2 1 
vt 1.158203 -0.478516 0.0
vt 0.218750 -0.140625 0.0
vt -0.097656 -0.484375 0.0
f 7/1150 1/1151 5/1152
#fvcolorindex 4 1 1 
vt 1.158203 -0.478516 0.0
vt -0.097656 -0.484375 0.0
vt 0.214844 -0.824219 0.0
f 7/1153 5/1154 4/1155
#fvcolorindex 4 1 3 
vt 1.158203 -0.478516 0.0
vt 0.214844 -0.824219 0.0
vt 0.843750 -0.822266 0.0
f 7/1156 4/1157 8/1158
#fvcolorindex 4 3 5 
usemtl m72
vt 1.158203 -0.478516 0.0
vt 0.847656 -0.138672 0.0
vt 0.218750 -0.140625 0.0
f 16/1159 11/1160 10/1161
#fvcolorindex 1 1 3 
vt 1.158203 -0.478516 0.0
vt 0.218750 -0.140625 0.0
vt -0.097656 -0.484375 0.0
f 16/1162 10/1163 14/1164
#fvcolorindex 1 3 5 
vt 1.158203 -0.478516 0.0
vt -0.097656 -0.484375 0.0
vt 0.214844 -0.824219 0.0
f 16/1165 14/1166 13/1167
#fvcolorindex 1 5 4 
vt 1.158203 -0.478516 0.0
vt 0.214844 -0.824219 0.0
vt 0.843750 -0.822266 0.0
f 16/1168 13/1169 17/1170
#fvcolorindex 1 4 2 
usemtl m73
vt 1.158203 -0.478516 0.0
vt 0.847656 -0.138672 0.0
vt 0.218750 -0.140625 0.0
f 25/1171 20/1172 19/1173
#fvcolorindex 3 5 4 
vt 1.158203 -0.478516 0.0
vt 0.218750 -0.140625 0.0
vt -0.097656 -0.484375 0.0
f 25/1174 19/1175 23/1176
#fvcolorindex 3 4 2 
vt 1.158203 -0.478516 0.0
vt -0.097656 -0.484375 0.0
vt 0.214844 -0.824219 0.0
f 25/1177 23/1178 22/1179
#fvcolorindex 3 2 1 
vt 1.158203 -0.478516 0.0
vt 0.214844 -0.824219 0.0
vt 0.843750 -0.822266 0.0
f 25/1180 22/1181 26/1182
#fvcolorindex 3 1 1 
usemtl m74
vt 1.000000 0.000000 0.0
vt 0.770508 1.011719 0.0
vt 0.229492 1.011719 0.0
v -16.000000 160.000000 173.000000
#joint 35
#vjoint 222
#vcolor 168.000000 168.000000 168.000000 255.000000
v 16.000000 160.000000 173.000000
#joint 35
#vjoint 223
f 130/1183 222/1184 223/1185
#fvcolorindex 1 51 20 
vt 1.000000 0.000000 0.0
vt 0.229492 1.011719 0.0
vt 0.000000 0.000000 0.0
f 130/1186 223/1187 125/1188
#fvcolorindex 1 20 15 
usemtl m75
vt 2.142578 0.343750 0.0
vt 0.000000 0.000000 0.0
vt 0.083008 -0.276367 0.0
v 0.000000 160.000000 173.000000
#joint 35
#vjoint 224
f 123/1189 223/1190 224/1191
#fvcolorindex 6 20 29 
usemtl m76
vt 3.970703 0.109375 0.0
vt 2.675781 0.733398 0.0
vt 0.013672 0.109375 0.0
f 125/1192 223/1193 123/1194
#fvcolorindex 15 20 6 
usemtl m77
vt 0.083008 -0.276367 0.0
vt 0.000000 0.000000 0.0
vt 2.142578 0.343750 0.0
f 224/1195 222/1196 123/1197
#fvcolorindex 29 51 6 
usemtl m75
vt 0.013672 0.109375 0.0
vt 2.675781 0.733398 0.0
vt 3.970703 0.109375 0.0
f 123/1198 222/1199 130/1200
#fvcolorindex 6 51 1 
usemtl m78
vt 0.000000 0.000000 0.0
vt 0.000000 0.000000 0.0
vt 0.000000 0.000000 0.0
v 10.789749 20.667427 236.951324
#joint 33
#vjoint 225
v -0.210251 -11.332573 236.951324
#joint 33
#vjoint 226
v -12.210251 20.667427 236.951324
#joint 33
#vjoint 227
f 225/1201 226/1202 227/1203
#fvcolorindex 23 23 23 
usemtl m79TransparentEnvMappingClampSClampTTexScaleS0.052735TexScaleT0.052735
vt 0.000000 0.000000 0.0
vt 0.000000 0.000000 0.0
vt 0.000000 0.000000 0.0
#vcolor 0.000000 96.000000 82.000000 255.000000
#vcolor 201.000000 90.000000 186.000000 255.000000
#vcolor 148.000000 13.000000 191.000000 255.000000
vn 0.000000 0.755906 0.645669
vn 1.582677 0.708661 1.464567
vn 1.165354 0.102362 1.503937
f 123/1204/7 222/1205/8 130/1206/9
#fvcolorindex 52 53 54 
usemtl m80TransparentEnvMappingClampSClampTTexScaleS0.052735TexScaleT0.052735
vt 0.000000 0.000000 0.0
vt 0.000000 0.000000 0.0
vt 0.000000 0.000000 0.0
#vcolor 0.000000 116.000000 206.000000 255.000000
vn 0.000000 0.913386 1.622047
vn 1.582677 0.708661 1.464567
vn 0.000000 0.755906 0.645669
f 224/1207/10 222/1208/11 123/1209/12
#fvcolorindex 55 53 52 
usemtl m81TransparentEnvMappingClampSClampTTexScaleS0.052735TexScaleT0.052735
vt 0.000000 0.000000 0.0
vt 0.000000 0.000000 0.0
vt 0.000000 0.000000 0.0
#vcolor 108.000000 13.000000 191.000000 255.000000
#vcolor 55.000000 90.000000 186.000000 255.000000
vn 0.850394 0.102362 1.503937
vn 0.433071 0.708661 1.464567
vn 0.000000 0.755906 0.645669
f 125/1210/13 223/1211/14 123/1212/15
#fvcolorindex 56 57 52 
usemtl m79TransparentEnvMappingClampSClampTTexScaleS0.052735TexScaleT0.052735
vt 0.000000 0.000000 0.0
vt 0.000000 0.000000 0.0
vt 0.000000 0.000000 0.0
vn 0.000000 0.755906 0.645669
vn 0.433071 0.708661 1.464567
vn 0.000000 0.913386 1.622047
f 123/1213/16 223/1214/17 224/1215/18
#fvcolorindex 52 57 55 
usemtl m82TransparentEnvMappingClampSClampTTexScaleS0.052735TexScaleT0.052735
vt 0.000000 0.000000 0.0
vt 0.000000 0.000000 0.0
vt 0.000000 0.000000 0.0
vn 1.165354 0.102362 1.503937
vn 1.582677 0.708661 1.464567
vn 0.433071 0.708661 1.464567
f 130/1216/19 222/1217/20 223/1218/21
#fvcolorindex 54 53 57 
vt 0.000000 0.000000 0.0
vt 0.000000 0.000000 0.0
vt 0.000000 0.000000 0.0
vn 1.165354 0.102362 1.503937
vn 0.433071 0.708661 1.464567
vn 0.850394 0.102362 1.503937
f 130/1219/22 223/1220/23 125/1221/24
#fvcolorindex 54 57 56 
g Room03
g Room03_primary
usemtl m83TransparentClampSClampT
vt 0.968750 0.968750 0.0
vt 0.000000 0.968750 0.0
vt 0.000000 0.000000 0.0
v 0.000000 213.611664 438.418854
#joint 41
#vjoint 228
#vcolor 254.000000 254.000000 254.000000 255.000000
v 62.000000 213.611664 438.418854
#joint 41
#vjoint 229
v 62.000000 143.611664 438.418854
#joint 41
#vjoint 230
f 228/1222 229/1223 230/1224
#fvcolorindex 58 58 58 
vt 0.968750 0.968750 0.0
vt 0.000000 0.000000 0.0
vt 0.968750 0.000000 0.0
v 0.000000 143.611664 438.418854
#joint 41
#vjoint 231
f 228/1225 230/1226 231/1227
#fvcolorindex 58 58 58 
usemtl m84TransparentClampSClampT
vt 0.968750 0.968750 0.0
vt 0.000000 0.968750 0.0
vt 0.000000 0.000000 0.0
v -62.000000 213.611664 438.418854
#joint 41
#vjoint 232
f 232/1228 228/1229 231/1230
#fvcolorindex 58 58 58 
vt 0.968750 0.968750 0.0
vt 0.000000 0.000000 0.0
vt 0.968750 0.000000 0.0
v -62.000000 143.611664 438.418854
#joint 41
#vjoint 233
f 232/1231 231/1232 233/1233
#fvcolorindex 58 58 58 
usemtl m85TransparentClampSClampT
vt 0.968750 0.968750 0.0
vt 0.000000 0.968750 0.0
vt 0.000000 0.000000 0.0
v 62.000000 74.611664 438.418854
#joint 41
#vjoint 234
f 231/1234 230/1235 234/1236
#fvcolorindex 58 58 58 
vt 0.968750 0.968750 0.0
vt 0.000000 0.000000 0.0
vt 0.968750 0.000000 0.0
v 0.000000 74.611664 438.418854
#joint 41
#vjoint 235
f 231/1237 234/1238 235/1239
#fvcolorindex 58 58 58 
usemtl m86TransparentClampSClampT
vt 0.968750 0.968750 0.0
vt 0.000000 0.968750 0.0
vt 0.000000 0.000000 0.0
f 233/1240 231/1241 235/1242
#fvcolorindex 58 58 58 
vt 0.968750 0.968750 0.0
vt 0.000000 0.000000 0.0
vt 0.968750 0.000000 0.0
v -62.000000 74.611664 438.418854
#joint 41
#vjoint 236
f 233/1243 235/1244 236/1245
#fvcolorindex 58 58 58 
g Room05
g Room05_primary
usemtl m83TransparentClampSClampT
vt 0.968750 0.968750 0.0
vt 0.000000 0.968750 0.0
vt 0.000000 0.000000 0.0
v 124.329750 -1.794472 438.418884
#joint 38
#vjoint 237
#vcolor 254.000000 254.000000 254.000000 255.000000
v 186.329742 -1.794472 438.418884
#joint 38
#vjoint 238
v 186.329742 -71.794472 438.418884
#joint 38
#vjoint 239
f 237/1246 238/1247 239/1248
#fvcolorindex 59 59 59 
vt 0.968750 0.968750 0.0
vt 0.000000 0.000000 0.0
vt 0.968750 0.000000 0.0
v 124.329750 -71.794472 438.418884
#joint 38
#vjoint 240
f 237/1249 239/1250 240/1251
#fvcolorindex 59 59 59 
usemtl m84TransparentClampSClampT
vt 0.968750 0.968750 0.0
vt 0.000000 0.968750 0.0
vt 0.000000 0.000000 0.0
v 62.329750 -1.794472 438.418884
#joint 38
#vjoint 241
f 241/1252 237/1253 240/1254
#fvcolorindex 59 59 59 
vt 0.968750 0.968750 0.0
vt 0.000000 0.000000 0.0
vt 0.968750 0.000000 0.0
v 62.329750 -71.794472 438.418884
#joint 38
#vjoint 242
f 241/1255 240/1256 242/1257
#fvcolorindex 59 59 59 
usemtl m85TransparentClampSClampT
vt 0.968750 0.968750 0.0
vt 0.000000 0.968750 0.0
vt 0.000000 0.000000 0.0
v 186.329742 -141.794464 438.418884
#joint 38
#vjoint 243
f 240/1258 239/1259 243/1260
#fvcolorindex 59 59 59 
vt 0.968750 0.968750 0.0
vt 0.000000 0.000000 0.0
vt 0.968750 0.000000 0.0
v 124.329750 -141.794464 438.418884
#joint 38
#vjoint 244
f 240/1261 243/1262 244/1263
#fvcolorindex 59 59 59 
usemtl m86TransparentClampSClampT
vt 0.968750 0.968750 0.0
vt 0.000000 0.968750 0.0
vt 0.000000 0.000000 0.0
f 242/1264 240/1265 244/1266
#fvcolorindex 59 59 59 
vt 0.968750 0.968750 0.0
vt 0.000000 0.000000 0.0
vt 0.968750 0.000000 0.0
v 62.329750 -141.794464 438.418884
#joint 38
#vjoint 245
f 242/1267 244/1268 245/1269
#fvcolorindex 59 59 59 
g Room07
g Room07_primary
usemtl m83TransparentClampSClampT
vt 0.968750 0.968750 0.0
vt 0.000000 0.968750 0.0
vt 0.000000 0.000000 0.0
v -124.601540 -1.794472 438.418884
#joint 44
#vjoint 246
#vcolor 254.000000 254.000000 254.000000 255.000000
v -62.601540 -1.794472 438.418884
#joint 44
#vjoint 247
v -62.601540 -71.794472 438.418884
#joint 44
#vjoint 248
f 246/1270 247/1271 248/1272
#fvcolorindex 60 60 60 
vt 0.968750 0.968750 0.0
vt 0.000000 0.000000 0.0
vt 0.968750 0.000000 0.0
v -124.601540 -71.794472 438.418884
#joint 44
#vjoint 249
f 246/1273 248/1274 249/1275
#fvcolorindex 60 60 60 
usemtl m84TransparentClampSClampT
vt 0.968750 0.968750 0.0
vt 0.000000 0.968750 0.0
vt 0.000000 0.000000 0.0
v -185.601532 -1.794472 438.418884
#joint 44
#vjoint 250
f 250/1276 246/1277 249/1278
#fvcolorindex 60 60 60 
vt 0.968750 0.968750 0.0
vt 0.000000 0.000000 0.0
vt 0.968750 0.000000 0.0
v -185.601532 -71.794472 438.418884
#joint 44
#vjoint 251
f 250/1279 249/1280 251/1281
#fvcolorindex 60 60 60 
usemtl m85TransparentClampSClampT
vt 0.968750 0.968750 0.0
vt 0.000000 0.968750 0.0
vt 0.000000 0.000000 0.0
v -62.601540 -141.794464 438.418884
#joint 44
#vjoint 252
f 249/1282 248/1283 252/1284
#fvcolorindex 60 60 60 
vt 0.968750 0.968750 0.0
vt 0.000000 0.000000 0.0
vt 0.968750 0.000000 0.0
v -124.601540 -141.794464 438.418884
#joint 44
#vjoint 253
f 249/1285 252/1286 253/1287
#fvcolorindex 60 60 60 
usemtl m86TransparentClampSClampT
vt 0.968750 0.968750 0.0
vt 0.000000 0.968750 0.0
vt 0.000000 0.000000 0.0
f 251/1288 249/1289 253/1290
#fvcolorindex 60 60 60 
vt 0.968750 0.968750 0.0
vt 0.000000 0.000000 0.0
vt 0.968750 0.000000 0.0
v -185.601532 -141.794464 438.418884
#joint 44
#vjoint 254
f 251/1291 253/1292 254/1293
#fvcolorindex 60 60 60 
g Room09
g Room09_primary
usemtl m87
vt -0.234375 0.019531 0.0
vt -0.575195 0.004883 0.0
vt 1.170898 0.531250 0.0
v -52.000000 97.000000 -87.909996
#joint 46
#vjoint 255
#vcolor 254.000000 254.000000 254.000000 255.000000
v -66.000000 95.000000 -87.909996
#joint 46
#vjoint 256
v -42.000000 75.000000 -87.909996
#joint 46
#vjoint 257
f 255/1294 256/1295 257/1296
#fvcolorindex 61 61 61 
vt 0.000000 0.000000 0.0
vt -0.234375 0.019531 0.0
vt 1.170898 0.531250 0.0
v -42.000000 94.000000 -87.909996
#joint 46
#vjoint 258
f 258/1297 255/1298 257/1299
#fvcolorindex 61 61 61 
vt 2.189453 0.019531 0.0
vt 1.955078 0.000000 0.0
vt 1.955078 -0.112305 0.0
v 52.000000 97.000000 -87.909996
#joint 46
#vjoint 259
v 42.000000 94.000000 -87.909996
#joint 46
#vjoint 260
v 42.000000 75.000000 -87.909996
#joint 46
#vjoint 261
f 259/1300 260/1301 261/1302
#fvcolorindex 61 61 61 
usemtl m88
vt 0.560547 0.193359 0.0
vt 0.552734 0.825195 0.0
vt 0.087891 1.000977 0.0
v -26.000000 24.999996 -87.909996
#joint 46
#vjoint 262
v 26.000000 24.999996 -87.909996
#joint 46
#vjoint 263
v 42.000000 36.999996 -87.909996
#joint 46
#vjoint 264
f 262/1303 263/1304 264/1305
#fvcolorindex 61 61 61 
vt 0.560547 0.193359 0.0
vt 0.087891 1.000977 0.0
vt 0.099609 0.000000 0.0
v -42.000000 36.999996 -87.909996
#joint 46
#vjoint 265
f 262/1306 264/1307 265/1308
#fvcolorindex 61 61 61 
g Room3C
g Room3C_primary
usemtl m89
vt 1.007812 0.000000 0.0
vt 0.898438 -0.536133 0.0
vt -0.714844 0.000000 0.0
v 42.000000 36.999996 -87.909996
#joint 46
#vjoint 266
#vcolor 254.000000 254.000000 254.000000 255.000000
v 26.000000 24.999996 -87.909996
#joint 46
#vjoint 267
v 26.000000 36.999996 -146.910004
#joint 46
#vjoint 268
f 266/1309 267/1310 268/1311
#fvcolorindex 62 62 62 
vt 0.710938 -1.107422 0.0
vt -0.903320 -0.574219 0.0
vt -0.714844 0.000000 0.0
v 0.000000 24.999996 -87.909996
#joint 46
#vjoint 269
v 0.000000 36.999996 -146.910004
#joint 46
#vjoint 270
f 269/1312 270/1313 268/1314
#fvcolorindex 62 62 62 
vt 0.710938 -1.107422 0.0
vt -0.714844 0.000000 0.0
vt 0.898438 -0.536133 0.0
f 269/1315 268/1316 267/1317
#fvcolorindex 62 62 62 
vt 0.710938 -1.107422 0.0
vt -0.903320 -0.574219 0.0
vt -0.714844 0.000000 0.0
f 269/1318 270/1319 268/1320
#fvcolorindex 62 62 62 
vt 0.710938 -1.107422 0.0
vt -0.714844 0.000000 0.0
vt 0.898438 -0.536133 0.0
f 269/1321 268/1322 267/1323
#fvcolorindex 62 62 62 
vt -0.714844 0.000000 0.0
vt 0.898438 -0.536133 0.0
vt 1.007812 0.000000 0.0
v -26.000000 36.999996 -146.910004
#joint 46
#vjoint 271
v -26.000000 24.999996 -87.909996
#joint 46
#vjoint 272
v -42.000000 36.999996 -87.909996
#joint 46
#vjoint 273
f 271/1324 272/1325 273/1326
#fvcolorindex 62 62 62 
vt 0.898438 -0.536133 0.0
vt -0.714844 0.000000 0.0
vt -0.903320 -0.574219 0.0
f 272/1327 271/1328 270/1329
#fvcolorindex 62 62 62 
vt 0.898438 -0.536133 0.0
vt -0.903320 -0.574219 0.0
vt 0.710938 -1.107422 0.0
f 272/1330 270/1331 269/1332
#fvcolorindex 62 62 62 
vt 0.898438 -0.536133 0.0
vt -0.714844 0.000000 0.0
vt -0.903320 -0.574219 0.0
f 272/1333 271/1334 270/1335
#fvcolorindex 62 62 62 
vt 0.898438 -0.536133 0.0
vt -0.903320 -0.574219 0.0
vt 0.710938 -1.107422 0.0
f 272/1336 270/1337 269/1338
#fvcolorindex 62 62 62 
usemtl m87
vt 1.598633 -0.955078 0.0
vt 0.977539 -0.955078 0.0
vt 0.977539 0.000000 0.0
v 26.000000 75.000000 -124.909996
#joint 46
#vjoint 274
v 0.000000 75.000000 -124.909996
#joint 46
#vjoint 275
v 0.000000 94.000000 -87.909996
#joint 46
#vjoint 276
f 274/1339 275/1340 276/1341
#fvcolorindex 62 62 62 
vt 1.598633 -0.955078 0.0
vt 0.977539 0.000000 0.0
vt 1.955078 0.000000 0.0
v 42.000000 94.000000 -87.909996
#joint 46
#vjoint 277
f 274/1342 276/1343 277/1344
#fvcolorindex 62 62 62 
vt 0.000000 0.000000 0.0
vt 0.977539 0.000000 0.0
vt 0.977539 -0.955078 0.0
v -42.000000 94.000000 -87.909996
#joint 46
#vjoint 278
f 278/1345 276/1346 275/1347
#fvcolorindex 62 62 62 
vt 0.000000 0.000000 0.0
vt 0.977539 -0.955078 0.0
vt 0.356445 -0.955078 0.0
v -26.000000 75.000000 -124.909996
#joint 46
#vjoint 279
f 278/1348 275/1349 279/1350
#fvcolorindex 62 62 62 
vt 1.955078 -0.112305 0.0
vt 1.598633 -0.955078 0.0
vt 2.189453 0.019531 0.0
v 42.000000 75.000000 -87.909996
#joint 46
#vjoint 280
v 52.000000 97.000000 -87.909996
#joint 46
#vjoint 281
f 280/1351 274/1352 281/1353
#fvcolorindex 62 62 62 
vt 1.955078 0.000000 0.0
vt 2.189453 0.019531 0.0
vt 1.598633 -0.955078 0.0
f 277/1354 281/1355 274/1356
#fvcolorindex 62 62 62 
vt 1.389648 1.229492 0.0
vt 0.247070 0.531250 0.0
vt 1.170898 0.531250 0.0
v -66.000000 95.000000 -87.909996
#joint 46
#vjoint 282
v -42.000000 75.000000 -87.909996
#joint 46
#vjoint 283
f 282/1357 279/1358 283/1359
#fvcolorindex 62 62 62 
vt 0.356445 -0.955078 0.0
vt -0.234375 0.019531 0.0
vt 0.000000 0.000000 0.0
v -52.000000 97.000000 -87.909996
#joint 46
#vjoint 284
f 279/1360 284/1361 278/1362
#fvcolorindex 62 62 62 
vt 0.356445 -0.955078 0.0
vt -0.575195 0.004883 0.0
vt -0.234375 0.019531 0.0
f 279/1363 282/1364 284/1365
#fvcolorindex 62 62 62 
vt 0.557617 1.800781 0.0
vt 1.000000 1.740234 0.0
vt 1.000000 0.000000 0.0
v 7.000000 62.999996 150.089996
#joint 46
#vjoint 285
v 28.000000 37.999996 143.089996
#joint 46
#vjoint 286
v 36.000000 36.999996 -87.909996
#joint 46
#vjoint 287
f 285/1366 286/1367 287/1368
#fvcolorindex 62 62 62 
vt 0.557617 1.800781 0.0
vt 1.000000 0.000000 0.0
vt 0.328125 0.000000 0.0
v 36.000000 75.000000 -87.909996
#joint 46
#vjoint 288
f 285/1369 287/1370 288/1371
#fvcolorindex 62 62 62 
vt 0.328125 0.000000 0.0
vt 1.000000 0.000000 0.0
vt 1.000000 1.746094 0.0
v -36.000000 75.000000 -87.909996
#joint 46
#vjoint 289
v -36.000000 36.999996 -87.909996
#joint 46
#vjoint 290
v -28.000000 37.999996 143.089996
#joint 46
#vjoint 291
f 289/1372 290/1373 291/1374
#fvcolorindex 62 62 62 
vt 0.557617 1.807617 0.0
vt 0.328125 0.000000 0.0
vt 1.000000 1.746094 0.0
v -6.000000 62.999996 150.089996
#joint 46
#vjoint 292
f 292/1375 289/1376 291/1377
#fvcolorindex 62 62 62 
vt 2.498047 1.736328 0.0
vt 1.000000 0.000000 0.0
vt 0.000000 0.000000 0.0
f 291/1378 290/1379 287/1380
#fvcolorindex 62 62 62 
vt 1.737305 1.736328 0.0
vt 2.498047 1.736328 0.0
vt 0.000000 0.000000 0.0
f 286/1381 291/1382 287/1383
#fvcolorindex 62 62 62 
vt 0.000000 0.733398 0.0
vt 1.000000 0.666992 0.0
vt 0.682617 0.931641 0.0
f 291/1384 286/1385 285/1386
#fvcolorindex 62 62 62 
vt 0.682617 0.931641 0.0
vt 0.357422 0.954102 0.0
vt 0.000000 0.733398 0.0
f 285/1387 292/1388 291/1389
#fvcolorindex 62 62 62 
vt 0.557617 1.800781 0.0
vt 0.328125 0.000000 0.0
vt 0.000000 0.000000 0.0
v 36.000000 94.000000 -87.909996
#joint 46
#vjoint 293
f 285/1390 288/1391 293/1392
#fvcolorindex 62 62 62 
vt 0.557617 1.807617 0.0
vt 0.000000 0.000000 0.0
vt 0.328125 0.000000 0.0
v -36.000000 94.000000 -87.909996
#joint 46
#vjoint 294
f 292/1393 294/1394 289/1395
#fvcolorindex 62 62 62 
vt 1.000000 0.000000 0.0
vt 1.807617 1.807617 0.0
vt 2.055664 1.807617 0.0
f 293/1396 292/1397 285/1398
#fvcolorindex 62 62 62 
vt 0.000000 0.000000 0.0
vt 1.807617 1.807617 0.0
vt 1.000000 0.000000 0.0
f 294/1399 292/1400 293/1401
#fvcolorindex 62 62 62 
usemtl m88
vt 2.369141 1.978516 0.0
vt 2.384766 0.989258 0.0
vt -0.015625 0.989258 0.0
f 279/1402 275/1403 270/1404
#fvcolorindex 62 62 62 
vt 2.369141 1.978516 0.0
vt -0.015625 0.989258 0.0
vt -0.031250 1.978516 0.0
f 279/1405 270/1406 271/1407
#fvcolorindex 62 62 62 
vt 0.000000 0.000000 0.0
vt -0.015625 0.989258 0.0
vt 2.384766 0.989258 0.0
f 268/1408 270/1409 275/1410
#fvcolorindex 62 62 62 
vt 0.000000 0.000000 0.0
vt 2.384766 0.989258 0.0
vt 2.400391 0.000000 0.0
f 268/1411 275/1412 274/1413
#fvcolorindex 62 62 62 
vt 2.392578 0.921875 0.0
vt 2.392578 0.000000 0.0
vt 0.000000 0.000000 0.0
f 274/1414 280/1415 266/1416
#fvcolorindex 62 62 62 
vt 2.392578 0.921875 0.0
vt 0.000000 0.000000 0.0
vt 0.000000 1.421875 0.0
f 274/1417 266/1418 268/1419
#fvcolorindex 62 62 62 
vt 0.000000 0.941406 0.0
vt 0.000000 0.000000 0.0
vt 2.357422 0.000000 0.0
f 271/1420 273/1421 283/1422
#fvcolorindex 62 62 62 
vt 0.000000 0.941406 0.0
vt 2.357422 0.000000 0.0
vt 2.357422 0.587891 0.0
f 271/1423 283/1424 279/1425
#fvcolorindex 62 62 62 
g Room3E
g Room3E_primary
usemtl m89
vt 1.007812 0.000000 0.0
vt 0.898438 -0.536133 0.0
vt -0.714844 0.000000 0.0
v 393.512146 36.999996 -87.720367
#joint 47
#vjoint 295
#vcolor 254.000000 254.000000 254.000000 255.000000
v 378.512146 24.999996 -87.720367
#joint 47
#vjoint 296
v 378.512146 36.999996 -145.720367
#joint 47
#vjoint 297
f 295/1426 296/1427 297/1428
#fvcolorindex 63 63 63 
vt 0.710938 -1.107422 0.0
vt -0.903320 -0.574219 0.0
vt -0.714844 0.000000 0.0
v 352.512146 24.999996 -87.720367
#joint 47
#vjoint 298
v 352.512146 36.999996 -145.720367
#joint 47
#vjoint 299
f 298/1429 299/1430 297/1431
#fvcolorindex 63 63 63 
vt 0.710938 -1.107422 0.0
vt -0.714844 0.000000 0.0
vt 0.898438 -0.536133 0.0
f 298/1432 297/1433 296/1434
#fvcolorindex 63 63 63 
vt 0.710938 -1.107422 0.0
vt -0.903320 -0.574219 0.0
vt -0.714844 0.000000 0.0
f 298/1435 299/1436 297/1437
#fvcolorindex 63 63 63 
vt 0.710938 -1.107422 0.0
vt -0.714844 0.000000 0.0
vt 0.898438 -0.536133 0.0
f 298/1438 297/1439 296/1440
#fvcolorindex 63 63 63 
vt -0.714844 0.000000 0.0
vt 0.898438 -0.536133 0.0
vt 1.007812 0.000000 0.0
v 325.512146 36.999996 -145.720367
#joint 47
#vjoint 300
v 325.512146 24.999996 -87.720367
#joint 47
#vjoint 301
v 310.512146 36.999996 -87.720367
#joint 47
#vjoint 302
f 300/1441 301/1442 302/1443
#fvcolorindex 63 63 63 
vt 0.898438 -0.536133 0.0
vt -0.714844 0.000000 0.0
vt -0.903320 -0.574219 0.0
f 301/1444 300/1445 299/1446
#fvcolorindex 63 63 63 
vt 0.898438 -0.536133 0.0
vt -0.903320 -0.574219 0.0
vt 0.710938 -1.107422 0.0
f 301/1447 299/1448 298/1449
#fvcolorindex 63 63 63 
vt 0.898438 -0.536133 0.0
vt -0.714844 0.000000 0.0
vt -0.903320 -0.574219 0.0
f 301/1450 300/1451 299/1452
#fvcolorindex 63 63 63 
vt 0.898438 -0.536133 0.0
vt -0.903320 -0.574219 0.0
vt 0.710938 -1.107422 0.0
f 301/1453 299/1454 298/1455
#fvcolorindex 63 63 63 
usemtl m87
vt 1.598633 -0.955078 0.0
vt 0.977539 -0.955078 0.0
vt 0.977539 0.000000 0.0
v 378.512146 75.000000 -123.720367
#joint 47
#vjoint 303
v 352.512146 75.000000 -123.720367
#joint 47
#vjoint 304
v 352.512146 94.000000 -87.720367
#joint 47
#vjoint 305
f 303/1456 304/1457 305/1458
#fvcolorindex 63 63 63 
vt 1.598633 -0.955078 0.0
vt 0.977539 0.000000 0.0
vt 1.955078 0.000000 0.0
v 393.512146 94.000000 -87.720367
#joint 47
#vjoint 306
f 303/1459 305/1460 306/1461
#fvcolorindex 63 63 63 
vt 0.000000 0.000000 0.0
vt 0.977539 0.000000 0.0
vt 0.977539 -0.955078 0.0
v 310.512146 94.000000 -87.720367
#joint 47
#vjoint 307
f 307/1462 305/1463 304/1464
#fvcolorindex 63 63 63 
vt 0.000000 0.000000 0.0
vt 0.977539 -0.955078 0.0
vt 0.356445 -0.955078 0.0
v 325.512146 75.000000 -123.720367
#joint 47
#vjoint 308
f 307/1465 304/1466 308/1467
#fvcolorindex 63 63 63 
vt 1.955078 -0.112305 0.0
vt 1.598633 -0.955078 0.0
vt 2.189453 0.019531 0.0
v 393.512146 75.000000 -87.720367
#joint 47
#vjoint 309
v 403.512146 97.000000 -87.720367
#joint 47
#vjoint 310
f 309/1468 303/1469 310/1470
#fvcolorindex 63 63 63 
vt 1.955078 0.000000 0.0
vt 2.189453 0.019531 0.0
vt 1.598633 -0.955078 0.0
f 306/1471 310/1472 303/1473
#fvcolorindex 63 63 63 
vt 1.389648 1.229492 0.0
vt 0.247070 0.531250 0.0
vt 1.170898 0.531250 0.0
v 285.512146 95.000000 -87.720367
#joint 47
#vjoint 311
v 310.512146 75.000000 -87.720367
#joint 47
#vjoint 312
f 311/1474 308/1475 312/1476
#fvcolorindex 63 63 63 
vt 0.356445 -0.955078 0.0
vt -0.234375 0.019531 0.0
vt 0.000000 0.000000 0.0
v 300.512146 97.000000 -87.720367
#joint 47
#vjoint 313
f 308/1477 313/1478 307/1479
#fvcolorindex 63 63 63 
vt 0.356445 -0.955078 0.0
vt -0.575195 0.004883 0.0
vt -0.234375 0.019531 0.0
f 308/1480 311/1481 313/1482
#fvcolorindex 63 63 63 
vt 1.779297 1.798828 0.0
vt 2.170898 1.724609 0.0
vt 1.000000 0.000000 0.0
v 358.512146 62.999996 151.279633
#joint 47
#vjoint 314
v 379.512146 37.999996 143.279633
#joint 47
#vjoint 315
v 388.512146 36.999996 -87.720367
#joint 47
#vjoint 316
f 314/1483 315/1484 316/1485
#fvcolorindex 63 63 63 
vt 1.779297 1.798828 0.0
vt 1.000000 0.000000 0.0
vt 0.328125 0.000000 0.0
v 388.512146 75.000000 -87.720367
#joint 47
#vjoint 317
f 314/1486 316/1487 317/1488
#fvcolorindex 63 63 63 
vt 0.671875 0.000000 0.0
vt 0.000000 0.000000 0.0
vt 0.534180 1.728516 0.0
v 315.512146 75.000000 -87.720367
#joint 47
#vjoint 318
v 315.512146 36.999996 -87.720367
#joint 47
#vjoint 319
v 323.512146 37.999996 143.279633
#joint 47
#vjoint 320
f 318/1489 319/1490 320/1491
#fvcolorindex 63 63 63 
vt 1.000000 1.803711 0.0
vt 0.671875 0.000000 0.0
vt 0.534180 1.728516 0.0
v 345.512146 62.999996 151.279633
#joint 47
#vjoint 321
f 321/1492 318/1493 320/1494
#fvcolorindex 63 63 63 
vt 2.433594 1.750000 0.0
vt 1.000000 0.000000 0.0
vt 0.000000 0.000000 0.0
f 320/1495 319/1496 316/1497
#fvcolorindex 63 63 63 
vt 1.672852 1.750000 0.0
vt 2.433594 1.750000 0.0
vt 0.000000 0.000000 0.0
f 315/1498 320/1499 316/1500
#fvcolorindex 63 63 63 
vt 1.779297 1.798828 0.0
vt 0.328125 0.000000 0.0
vt 0.000000 0.000000 0.0
v 388.512146 94.000000 -87.720367
#joint 47
#vjoint 322
f 314/1501 317/1502 322/1503
#fvcolorindex 63 63 63 
vt 1.000000 1.803711 0.0
vt 1.000000 0.000000 0.0
vt 0.671875 0.000000 0.0
v 315.512146 94.000000 -87.720367
#joint 47
#vjoint 323
f 321/1504 323/1505 318/1506
#fvcolorindex 63 63 63 
vt 1.000000 0.000000 0.0
vt 0.751953 1.803711 0.0
vt 1.000000 1.803711 0.0
f 322/1507 321/1508 314/1509
#fvcolorindex 63 63 63 
vt 0.000000 0.000000 0.0
vt 0.751953 1.803711 0.0
vt 1.000000 0.000000 0.0
f 323/1510 321/1511 322/1512
#fvcolorindex 63 63 63 
usemtl m88
vt 2.369141 1.978516 0.0
vt 2.384766 0.989258 0.0
vt -0.015625 0.989258 0.0
f 308/1513 304/1514 299/1515
#fvcolorindex 63 63 63 
vt 2.369141 1.978516 0.0
vt -0.015625 0.989258 0.0
vt -0.031250 1.978516 0.0
f 308/1516 299/1517 300/1518
#fvcolorindex 63 63 63 
vt 0.000000 0.000000 0.0
vt -0.015625 0.989258 0.0
vt 2.384766 0.989258 0.0
f 297/1519 299/1520 304/1521
#fvcolorindex 63 63 63 
vt 0.000000 0.000000 0.0
vt 2.384766 0.989258 0.0
vt 2.400391 0.000000 0.0
f 297/1522 304/1523 303/1524
#fvcolorindex 63 63 63 
vt 2.392578 0.921875 0.0
vt 2.392578 0.000000 0.0
vt 0.000000 0.000000 0.0
f 303/1525 309/1526 295/1527
#fvcolorindex 63 63 63 
vt 2.392578 0.921875 0.0
vt 0.000000 0.000000 0.0
vt 0.000000 1.421875 0.0
f 303/1528 295/1529 297/1530
#fvcolorindex 63 63 63 
vt 0.000000 0.941406 0.0
vt 0.000000 0.000000 0.0
vt 2.357422 0.000000 0.0
f 300/1531 302/1532 312/1533
#fvcolorindex 63 63 63 
vt 0.000000 0.941406 0.0
vt 2.357422 0.000000 0.0
vt 2.357422 0.587891 0.0
f 300/1534 312/1535 308/1536
#fvcolorindex 63 63 63 
usemtl m90
vt 0.000000 0.000000 0.0
vt 0.000000 0.000000 0.0
vt 0.000000 0.000000 0.0
f 320/1537 315/1538 314/1539
#fvcolorindex 63 63 63 
vt 0.000000 0.000000 0.0
vt 0.000000 0.000000 0.0
vt 0.000000 0.000000 0.0
f 314/1540 321/1541 320/1542
#fvcolorindex 63 63 63 
