# Created by SubDrag and the GoldenEye Setup Editor V4.4
mtllib Gun001F.mtl
#joint 0
#jointposition -0.126130 -34.500000 -233.704468
#joint 1
#jointposition -0.126130 -34.500000 -403.726105
#joint 2
#jointposition 0.000000 -20.375574 -74.143860
#joint 3
#jointposition 28.404760 -54.346611 -32.664295
#joint 4
#jointposition 50.075203 -78.841194 -10.664248
#joint 5
#jointposition 28.643808 -16.714527 20.778549
#joint 6
#jointposition 26.518341 -24.155291 60.154758
#joint 7
#jointposition 24.862719 -25.637974 87.085503
#joint 8
#jointposition 8.820322 -11.296313 21.695198
#joint 9
#jointposition 8.668717 -23.348385 71.418152
#joint 10
#jointposition 7.570724 -26.182207 98.349426
#joint 11
#jointposition -7.449821 -15.536673 21.601517
#joint 12
#jointposition -6.777197 -21.532187 62.353848
#joint 13
#jointposition -6.290760 -23.494061 85.077034
#joint 14
#jointposition -23.590879 -23.057791 21.828247
#joint 15
#jointposition -21.894306 -25.130569 56.929543
#joint 16
#jointposition -20.740978 -24.727604 74.077179
#joint 17
#jointposition 234.474915 -34.500000 -403.726013
#joint 18
#jointposition 234.348785 -20.375599 -74.143921
#joint 19
#jointposition 205.943985 -54.346600 -32.664322
#joint 20
#jointposition 184.273590 -78.841202 -10.664223
#joint 21
#jointposition 205.704987 -16.714600 20.778481
#joint 22
#jointposition 207.830490 -24.155300 60.154781
#joint 23
#jointposition 209.561584 -25.811800 87.094780
#joint 24
#jointposition 225.528473 -11.296299 21.695183
#joint 25
#jointposition 225.680069 -23.348400 71.418083
#joint 26
#jointposition 226.778076 -26.182199 98.349380
#joint 27
#jointposition 241.798599 -15.536699 21.601479
#joint 28
#jointposition 241.125977 -21.532200 62.353779
#joint 29
#jointposition 240.639542 -23.494101 85.076981
#joint 30
#jointposition 257.939697 -23.057798 21.828178
#joint 31
#jointposition 256.243103 -25.130598 56.929478
#joint 32
#jointposition 255.089798 -24.727598 74.077179
#joint 33
#jointposition 20.111650 31.250002 0.000000
#joint 34
#jointposition 20.111700 71.826912 0.000000
#connection 0 1
#connection 1 2
#connection 2 3
#connection 3 4
#connection 2 5
#connection 5 6
#connection 6 7
#connection 2 8
#connection 8 9
#connection 9 10
#connection 2 11
#connection 11 12
#connection 12 13
#connection 2 14
#connection 14 15
#connection 15 16
#connection 2 33
#connection 33 34
#connection 0 17
#connection 17 18
#connection 18 19
#connection 19 20
#connection 18 21
#connection 21 22
#connection 22 23
#connection 18 24
#connection 24 25
#connection 25 26
#connection 18 27
#connection 27 28
#connection 28 29
#connection 18 30
#connection 30 31
#connection 31 32
g Room02
g Room02_primary
usemtl m0MirrorT
vt 0.000000 0.870117 0.0
vt 0.000000 0.000000 0.0
vt 0.500000 0.000000 0.0
v 39.111649 75.250000 0.000000
#joint 33
#vjoint 1
#vcolor 210.000000 210.000000 210.000000 255.000000
v 39.111649 66.250000 0.000000
#joint 33
#vjoint 2
v 37.111649 66.250000 -7.000000
#joint 33
#vjoint 3
#vcolor 182.000000 182.000000 182.000000 255.000000
f 1/1 2/2 3/3
#fvcolorindex 1 1 2 
vt 0.000000 0.870117 0.0
vt 0.500000 0.000000 0.0
vt 0.500000 0.870117 0.0
v 37.111649 75.250000 -7.000000
#joint 33
#vjoint 4
f 1/4 3/5 4/6
#fvcolorindex 1 2 2 
usemtl m1MirrorT
vt 0.500000 0.865234 0.0
vt 0.500000 0.000000 0.0
vt 0.000000 0.000000 0.0
v 37.111649 75.250000 7.000000
#joint 33
#vjoint 5
#vcolor 216.000000 216.000000 216.000000 255.000000
v 37.111649 66.250000 7.000000
#joint 33
#vjoint 6
f 5/7 6/8 2/9
#fvcolorindex 3 3 1 
vt 0.500000 0.865234 0.0
vt 0.000000 0.000000 0.0
vt 0.000000 0.865234 0.0
f 5/10 2/11 1/12
#fvcolorindex 3 1 1 
usemtl m2MirrorT
vt 1.000000 0.865234 0.0
vt 1.000000 0.000000 0.0
vt 0.500000 0.000000 0.0
v 33.111649 75.250000 13.000000
#joint 33
#vjoint 7
#vcolor 197.000000 197.000000 197.000000 255.000000
v 33.111649 66.250000 13.000000
#joint 33
#vjoint 8
#vcolor 203.000000 203.000000 203.000000 255.000000
f 7/13 8/14 6/15
#fvcolorindex 4 5 3 
vt 1.000000 0.865234 0.0
vt 0.500000 0.000000 0.0
vt 0.500000 0.865234 0.0
f 7/16 6/17 5/18
#fvcolorindex 4 3 3 
usemtl m3MirrorT
vt 0.500000 0.886719 0.0
vt 0.500000 0.295898 0.0
vt 1.000000 0.886719 0.0
v 27.111650 75.250000 17.000000
#joint 33
#vjoint 9
#vcolor 235.000000 235.000000 235.000000 255.000000
v 27.111650 69.250000 17.000000
#joint 33
#vjoint 10
#vcolor 208.000000 208.000000 208.000000 255.000000
f 9/19 10/20 7/21
#fvcolorindex 6 7 4 
usemtl m4MirrorT
vt 0.500000 0.295898 0.0
vt 0.500000 0.000000 0.0
vt 1.000000 0.000000 0.0
v 27.111650 66.250000 17.000000
#joint 33
#vjoint 11
#vcolor 169.000000 169.000000 169.000000 255.000000
f 10/22 11/23 8/24
#fvcolorindex 7 8 5 
vt 0.500000 0.295898 0.0
vt 1.000000 0.000000 0.0
vt 1.000000 0.886719 0.0
f 10/25 8/26 7/27
#fvcolorindex 7 5 4 
usemtl m5MirrorT
vt 0.000000 0.295898 0.0
vt 0.000000 0.000000 0.0
vt 0.500000 0.000000 0.0
v 20.111650 69.250000 19.000000
#joint 33
#vjoint 12
#vcolor 120.000000 120.000000 120.000000 255.000000
v 20.111650 66.250000 19.000000
#joint 33
#vjoint 13
f 12/28 13/29 11/30
#fvcolorindex 9 9 8 
vt 0.000000 0.295898 0.0
vt 0.500000 0.000000 0.0
vt 0.500000 0.295898 0.0
f 12/31 11/32 10/33
#fvcolorindex 9 8 7 
usemtl m6MirrorT
vt 0.500000 0.292969 0.0
vt 0.500000 0.000000 0.0
vt 0.000000 0.000000 0.0
v 13.111650 69.250000 17.000000
#joint 33
#vjoint 14
#vcolor 67.000000 67.000000 67.000000 255.000000
v 13.111650 66.250000 17.000000
#joint 33
#vjoint 15
f 14/34 15/35 13/36
#fvcolorindex 10 10 9 
vt 0.500000 0.292969 0.0
vt 0.000000 0.000000 0.0
vt 0.000000 0.292969 0.0
f 14/37 13/38 12/39
#fvcolorindex 10 9 9 
vt 1.000000 0.878906 0.0
vt 0.500000 0.292969 0.0
vt 0.500000 0.878906 0.0
v 7.111650 75.250000 13.000000
#joint 33
#vjoint 16
v 13.111650 75.250000 17.000000
#joint 33
#vjoint 17
#vcolor 111.000000 111.000000 111.000000 255.000000
f 16/40 14/41 17/42
#fvcolorindex 10 10 11 
vt 1.000000 0.878906 0.0
vt 1.000000 0.000000 0.0
vt 0.500000 0.000000 0.0
v 7.111650 66.250000 13.000000
#joint 33
#vjoint 18
f 16/43 18/44 15/45
#fvcolorindex 10 10 10 
vt 1.000000 0.878906 0.0
vt 0.500000 0.000000 0.0
vt 0.500000 0.292969 0.0
f 16/46 15/47 14/48
#fvcolorindex 10 10 10 
vt 0.500000 0.877930 0.0
vt 0.500000 0.000000 0.0
vt 1.000000 0.000000 0.0
v 3.111650 75.250000 7.000000
#joint 33
#vjoint 19
v 3.111650 66.250000 7.000000
#joint 33
#vjoint 20
f 19/49 20/50 18/51
#fvcolorindex 10 10 10 
vt 0.500000 0.877930 0.0
vt 1.000000 0.000000 0.0
vt 1.000000 0.877930 0.0
f 19/52 18/53 16/54
#fvcolorindex 10 10 10 
vt 0.000000 0.877930 0.0
vt 0.000000 0.000000 0.0
vt 0.500000 0.000000 0.0
v 1.111650 75.250000 0.000000
#joint 33
#vjoint 21
v 1.111650 66.250000 0.000000
#joint 33
#vjoint 22
f 21/55 22/56 20/57
#fvcolorindex 10 10 10 
vt 0.000000 0.877930 0.0
vt 0.500000 0.000000 0.0
vt 0.500000 0.877930 0.0
f 21/58 20/59 19/60
#fvcolorindex 10 10 10 
vt 0.500000 0.879883 0.0
vt 0.500000 0.000000 0.0
vt 0.000000 0.000000 0.0
v 3.111650 75.250000 -7.000000
#joint 33
#vjoint 23
v 3.111650 66.250000 -7.000000
#joint 33
#vjoint 24
f 23/61 24/62 22/63
#fvcolorindex 10 10 10 
vt 0.500000 0.879883 0.0
vt 0.000000 0.000000 0.0
vt 0.000000 0.879883 0.0
f 23/64 22/65 21/66
#fvcolorindex 10 10 10 
vt 1.000000 0.879883 0.0
vt 1.000000 0.000000 0.0
vt 0.500000 0.000000 0.0
v 7.111650 75.250000 -13.000000
#joint 33
#vjoint 25
v 7.111650 66.250000 -13.000000
#joint 33
#vjoint 26
f 25/67 26/68 24/69
#fvcolorindex 10 10 10 
vt 1.000000 0.879883 0.0
vt 0.500000 0.000000 0.0
vt 0.500000 0.879883 0.0
f 25/70 24/71 23/72
#fvcolorindex 10 10 10 
vt 0.500000 0.865234 0.0
vt 0.500000 0.288086 0.0
vt 1.000000 0.865234 0.0
v 13.111650 75.250000 -17.000000
#joint 33
#vjoint 27
v 13.111650 69.250000 -17.000000
#joint 33
#vjoint 28
f 27/73 28/74 25/75
#fvcolorindex 10 10 10 
vt 0.500000 0.288086 0.0
vt 0.500000 0.000000 0.0
vt 1.000000 0.000000 0.0
v 13.111650 66.250000 -17.000000
#joint 33
#vjoint 29
f 28/76 29/77 26/78
#fvcolorindex 10 10 10 
vt 0.500000 0.288086 0.0
vt 1.000000 0.000000 0.0
vt 1.000000 0.865234 0.0
f 28/79 26/80 25/81
#fvcolorindex 10 10 10 
vt 0.000000 0.288086 0.0
vt 0.000000 0.000000 0.0
vt 0.500000 0.000000 0.0
v 20.111650 69.250000 -19.000000
#joint 33
#vjoint 30
v 20.111650 66.250000 -19.000000
#joint 33
#vjoint 31
f 30/82 31/83 29/84
#fvcolorindex 10 10 10 
vt 0.000000 0.288086 0.0
vt 0.500000 0.000000 0.0
vt 0.500000 0.288086 0.0
f 30/85 29/86 28/87
#fvcolorindex 10 10 10 
usemtl m7MirrorT
vt 0.500000 0.291992 0.0
vt 0.500000 0.000000 0.0
vt 0.000000 0.000000 0.0
v 27.111650 69.250000 -17.000000
#joint 33
#vjoint 32
#vcolor 71.000000 71.000000 71.000000 255.000000
v 27.111650 66.250000 -17.000000
#joint 33
#vjoint 33
#vcolor 79.000000 79.000000 79.000000 255.000000
f 32/88 33/89 31/90
#fvcolorindex 12 13 10 
vt 0.500000 0.291992 0.0
vt 0.000000 0.000000 0.0
vt 0.000000 0.291992 0.0
f 32/91 31/92 30/93
#fvcolorindex 12 10 10 
usemtl m8MirrorT
vt 1.000000 0.875977 0.0
vt 0.500000 0.291992 0.0
vt 0.500000 0.875977 0.0
v 33.111649 75.250000 -13.000000
#joint 33
#vjoint 34
#vcolor 129.000000 129.000000 129.000000 255.000000
v 27.111650 75.250000 -17.000000
#joint 33
#vjoint 35
#vcolor 127.000000 127.000000 127.000000 255.000000
f 34/94 32/95 35/96
#fvcolorindex 14 12 15 
vt 1.000000 0.875977 0.0
vt 1.000000 0.000000 0.0
vt 0.500000 0.000000 0.0
v 33.111649 66.250000 -13.000000
#joint 33
#vjoint 36
#vcolor 139.000000 139.000000 139.000000 255.000000
f 34/97 36/98 33/99
#fvcolorindex 14 16 13 
vt 1.000000 0.875977 0.0
vt 0.500000 0.000000 0.0
vt 0.500000 0.291992 0.0
f 34/100 33/101 32/102
#fvcolorindex 14 13 12 
usemtl m9MirrorT
vt 0.500000 0.870117 0.0
vt 0.500000 0.000000 0.0
vt 1.000000 0.000000 0.0
f 4/103 3/104 36/105
#fvcolorindex 2 2 16 
vt 0.500000 0.870117 0.0
vt 1.000000 0.000000 0.0
vt 1.000000 0.870117 0.0
f 4/106 36/107 34/108
#fvcolorindex 2 16 14 
usemtl m0MirrorT
vt 1.000000 0.760742 0.0
vt 1.000000 0.000000 0.0
vt 0.500000 0.000000 0.0
v 39.111649 41.250000 0.000000
#joint 33
#vjoint 37
v 39.111649 31.250002 0.000000
#joint 33
#vjoint 38
#vcolor 254.000000 254.000000 254.000000 255.000000
v 37.111649 31.250002 -7.000000
#joint 33
#vjoint 39
#vcolor 240.000000 240.000000 240.000000 255.000000
f 37/109 38/110 39/111
#fvcolorindex 1 17 18 
vt 1.000000 0.760742 0.0
vt 0.500000 0.000000 0.0
vt 0.500000 0.760742 0.0
v 37.111649 41.250000 -7.000000
#joint 33
#vjoint 40
f 37/112 39/113 40/114
#fvcolorindex 1 18 2 
usemtl m1MirrorT
vt 0.500000 0.766602 0.0
vt 0.500000 0.000000 0.0
vt 1.000000 0.000000 0.0
v 37.111649 41.250000 7.000000
#joint 33
#vjoint 41
v 37.111649 31.250002 7.000000
#joint 33
#vjoint 42
f 41/115 42/116 38/117
#fvcolorindex 3 17 17 
vt 0.500000 0.766602 0.0
vt 1.000000 0.000000 0.0
vt 1.000000 0.766602 0.0
f 41/118 38/119 37/120
#fvcolorindex 3 17 1 
usemtl m10MirrorT
vt 0.000000 0.766602 0.0
vt 0.000000 0.000000 0.0
vt 0.500000 0.000000 0.0
v 33.111649 41.250000 13.000000
#joint 33
#vjoint 43
v 33.111649 31.250002 13.000000
#joint 33
#vjoint 44
f 43/121 44/122 42/123
#fvcolorindex 5 17 17 
vt 0.000000 0.766602 0.0
vt 0.500000 0.000000 0.0
vt 0.500000 0.766602 0.0
f 43/124 42/125 41/126
#fvcolorindex 5 17 3 
usemtl m11MirrorT
vt 0.500000 0.780273 0.0
vt 0.500000 0.000000 0.0
vt 0.000000 0.000000 0.0
v 27.111650 41.250000 17.000000
#joint 33
#vjoint 45
v 27.111650 31.250002 17.000000
#joint 33
#vjoint 46
#vcolor 229.000000 229.000000 229.000000 255.000000
f 45/127 46/128 44/129
#fvcolorindex 8 19 17 
vt 0.500000 0.780273 0.0
vt 0.000000 0.000000 0.0
vt 0.000000 0.780273 0.0
f 45/130 44/131 43/132
#fvcolorindex 8 17 5 
usemtl m5MirrorT
vt 1.000000 0.780273 0.0
vt 1.000000 0.000000 0.0
vt 0.500000 0.000000 0.0
v 20.111650 41.250000 19.000000
#joint 33
#vjoint 47
v 20.111650 31.250002 19.000000
#joint 33
#vjoint 48
#vcolor 186.000000 186.000000 186.000000 255.000000
f 47/133 48/134 46/135
#fvcolorindex 9 20 19 
vt 1.000000 0.780273 0.0
vt 0.500000 0.000000 0.0
vt 0.500000 0.780273 0.0
f 47/136 46/137 45/138
#fvcolorindex 9 19 8 
usemtl m6MirrorT
vt 0.500000 0.778320 0.0
vt 0.500000 0.000000 0.0
vt 1.000000 0.000000 0.0
v 13.111650 41.250000 17.000000
#joint 33
#vjoint 49
v 13.111650 31.250002 17.000000
#joint 33
#vjoint 50
#vcolor 133.000000 133.000000 133.000000 255.000000
f 49/139 50/140 48/141
#fvcolorindex 10 21 20 
vt 0.500000 0.778320 0.0
vt 1.000000 0.000000 0.0
vt 1.000000 0.778320 0.0
f 49/142 48/143 47/144
#fvcolorindex 10 20 9 
vt 0.000000 0.778320 0.0
vt 0.000000 0.000000 0.0
vt 0.500000 0.000000 0.0
v 7.111650 41.250000 13.000000
#joint 33
#vjoint 51
v 7.111650 31.250002 13.000000
#joint 33
#vjoint 52
f 51/145 52/146 50/147
#fvcolorindex 10 13 21 
vt 0.000000 0.778320 0.0
vt 0.500000 0.000000 0.0
vt 0.500000 0.778320 0.0
f 51/148 50/149 49/150
#fvcolorindex 10 21 10 
vt 0.500000 0.780273 0.0
vt 0.500000 0.000000 0.0
vt 0.000000 0.000000 0.0
v 3.111650 41.250000 7.000000
#joint 33
#vjoint 53
v 3.111650 31.250002 7.000000
#joint 33
#vjoint 54
f 53/151 54/152 52/153
#fvcolorindex 10 10 13 
vt 0.500000 0.780273 0.0
vt 0.000000 0.000000 0.0
vt 0.000000 0.780273 0.0
f 53/154 52/155 51/156
#fvcolorindex 10 13 10 
vt 1.000000 0.780273 0.0
vt 1.000000 0.000000 0.0
vt 0.500000 0.000000 0.0
v 1.111650 41.250000 0.000000
#joint 33
#vjoint 55
v 1.111650 31.250002 0.000000
#joint 33
#vjoint 56
f 55/157 56/158 54/159
#fvcolorindex 10 10 10 
vt 1.000000 0.780273 0.0
vt 0.500000 0.000000 0.0
vt 0.500000 0.780273 0.0
f 55/160 54/161 53/162
#fvcolorindex 10 10 10 
vt 0.500000 0.775391 0.0
vt 0.500000 0.000000 0.0
vt 1.000000 0.000000 0.0
v 3.111650 41.250000 -7.000000
#joint 33
#vjoint 57
v 3.111650 31.250002 -7.000000
#joint 33
#vjoint 58
f 57/163 58/164 56/165
#fvcolorindex 10 10 10 
vt 0.500000 0.775391 0.0
vt 1.000000 0.000000 0.0
vt 1.000000 0.775391 0.0
f 57/166 56/167 55/168
#fvcolorindex 10 10 10 
vt 0.000000 0.775391 0.0
vt 0.000000 0.000000 0.0
vt 0.500000 0.000000 0.0
v 7.111650 41.250000 -13.000000
#joint 33
#vjoint 59
v 7.111650 31.250002 -13.000000
#joint 33
#vjoint 60
f 59/169 60/170 58/171
#fvcolorindex 10 10 10 
vt 0.000000 0.775391 0.0
vt 0.500000 0.000000 0.0
vt 0.500000 0.775391 0.0
f 59/172 58/173 57/174
#fvcolorindex 10 10 10 
vt 0.500000 0.784180 0.0
vt 0.500000 0.000000 0.0
vt 0.000000 0.000000 0.0
v 13.111650 41.250000 -17.000000
#joint 33
#vjoint 61
v 13.111650 31.250002 -17.000000
#joint 33
#vjoint 62
f 61/175 62/176 60/177
#fvcolorindex 10 10 10 
vt 0.500000 0.784180 0.0
vt 0.000000 0.000000 0.0
vt 0.000000 0.784180 0.0
f 61/178 60/179 59/180
#fvcolorindex 10 10 10 
vt 1.000000 0.784180 0.0
vt 1.000000 0.000000 0.0
vt 0.500000 0.000000 0.0
v 20.111650 41.250000 -19.000000
#joint 33
#vjoint 63
v 20.111650 31.250002 -19.000000
#joint 33
#vjoint 64
#vcolor 98.000000 98.000000 98.000000 255.000000
f 63/181 64/182 62/183
#fvcolorindex 10 22 10 
vt 1.000000 0.784180 0.0
vt 0.500000 0.000000 0.0
vt 0.500000 0.784180 0.0
f 63/184 62/185 61/186
#fvcolorindex 10 10 10 
usemtl m12MirrorT
vt 0.500000 0.767578 0.0
vt 0.500000 0.000000 0.0
vt 1.000000 0.000000 0.0
v 27.111650 41.250000 -17.000000
#joint 33
#vjoint 65
v 27.111650 31.250002 -17.000000
#joint 33
#vjoint 66
#vcolor 152.000000 152.000000 152.000000 255.000000
f 65/187 66/188 64/189
#fvcolorindex 13 23 22 
vt 0.500000 0.767578 0.0
vt 1.000000 0.000000 0.0
vt 1.000000 0.767578 0.0
f 65/190 64/191 63/192
#fvcolorindex 13 22 10 
usemtl m13MirrorT
vt 0.000000 0.767578 0.0
vt 0.000000 0.000000 0.0
vt 0.500000 0.000000 0.0
v 33.111649 41.250000 -13.000000
#joint 33
#vjoint 67
v 33.111649 31.250002 -13.000000
#joint 33
#vjoint 68
#vcolor 202.000000 202.000000 202.000000 255.000000
f 67/193 68/194 66/195
#fvcolorindex 16 24 23 
vt 0.000000 0.767578 0.0
vt 0.500000 0.000000 0.0
vt 0.500000 0.767578 0.0
f 67/196 66/197 65/198
#fvcolorindex 16 23 13 
usemtl m9MirrorT
vt 0.500000 0.760742 0.0
vt 0.500000 0.000000 0.0
vt 0.000000 0.000000 0.0
f 40/199 39/200 68/201
#fvcolorindex 2 18 24 
vt 0.500000 0.760742 0.0
vt 0.000000 0.000000 0.0
vt 0.000000 0.760742 0.0
f 40/202 68/203 67/204
#fvcolorindex 2 24 16 
usemtl m14
vt 1.000000 1.000000 0.0
vt 1.000000 0.000000 0.0
vt 0.000000 0.000000 0.0
v 45.111649 25.250002 0.000000
#joint 33
#vjoint 69
v 43.111649 25.250002 -10.000000
#joint 33
#vjoint 70
f 38/205 69/206 70/207
#fvcolorindex 17 17 18 
vt 1.000000 1.000000 0.0
vt 0.000000 0.000000 0.0
vt 0.250000 1.000000 0.0
f 38/208 70/209 39/210
#fvcolorindex 17 18 18 
vt 0.250000 1.000000 0.0
vt 0.000000 0.000000 0.0
vt 1.000000 0.000000 0.0
v 43.111649 25.250002 10.000000
#joint 33
#vjoint 71
f 42/211 71/212 69/213
#fvcolorindex 17 17 17 
vt 0.250000 1.000000 0.0
vt 1.000000 0.000000 0.0
vt 1.000000 1.000000 0.0
f 42/214 69/215 38/216
#fvcolorindex 17 17 17 
vt 1.000000 1.000000 0.0
vt 1.000000 0.000000 0.0
vt 0.000000 0.000000 0.0
v 38.111649 25.250002 18.000000
#joint 33
#vjoint 72
f 44/217 72/218 71/219
#fvcolorindex 17 17 17 
vt 1.000000 1.000000 0.0
vt 0.000000 0.000000 0.0
vt 0.250000 1.000000 0.0
f 44/220 71/221 42/222
#fvcolorindex 17 17 17 
usemtl m15
vt 0.250000 1.000000 0.0
vt 0.000000 0.000000 0.0
vt 1.000000 0.000000 0.0
v 30.111650 25.250002 23.000000
#joint 33
#vjoint 73
f 46/223 73/224 72/225
#fvcolorindex 19 19 17 
vt 0.250000 1.000000 0.0
vt 1.000000 0.000000 0.0
vt 1.000000 1.000000 0.0
f 46/226 72/227 44/228
#fvcolorindex 19 17 17 
usemtl m16
vt 1.032227 1.000000 0.0
vt 1.000000 0.000000 0.0
vt 0.000000 0.000000 0.0
v 20.111650 25.250002 25.000000
#joint 33
#vjoint 74
f 48/229 74/230 73/231
#fvcolorindex 20 20 19 
vt 1.032227 1.000000 0.0
vt 0.000000 0.000000 0.0
vt 0.282227 1.000000 0.0
f 48/232 73/233 46/234
#fvcolorindex 20 19 19 
usemtl m17
vt 0.250000 1.000000 0.0
vt 0.000000 0.000000 0.0
vt 1.000000 0.000000 0.0
v 11.111650 25.250002 23.000000
#joint 33
#vjoint 75
f 50/235 75/236 74/237
#fvcolorindex 21 21 20 
vt 0.250000 1.000000 0.0
vt 1.000000 0.000000 0.0
vt 1.000000 1.000000 0.0
f 50/238 74/239 48/240
#fvcolorindex 21 20 20 
usemtl m18
vt 1.000000 1.000000 0.0
vt 1.000000 0.000000 0.0
vt 0.000000 0.000000 0.0
v 2.111650 25.250002 18.000000
#joint 33
#vjoint 76
f 52/241 76/242 75/243
#fvcolorindex 13 13 21 
vt 1.000000 1.000000 0.0
vt 0.000000 0.000000 0.0
vt 0.250000 1.000000 0.0
f 52/244 75/245 50/246
#fvcolorindex 13 21 21 
usemtl m19
vt 0.250000 1.008789 0.0
vt 0.000000 0.000000 0.0
vt 1.000000 -0.011719 0.0
v -2.888350 25.250002 10.000000
#joint 33
#vjoint 77
f 54/247 77/248 76/249
#fvcolorindex 10 10 13 
vt 0.250000 1.008789 0.0
vt 1.000000 -0.011719 0.0
vt 1.000000 1.000000 0.0
f 54/250 76/251 52/252
#fvcolorindex 10 13 13 
vt 1.000000 1.000000 0.0
vt 1.000000 0.000000 0.0
vt 0.000000 0.000000 0.0
v -4.888350 25.250002 0.000000
#joint 33
#vjoint 78
f 56/253 78/254 77/255
#fvcolorindex 10 10 10 
vt 1.000000 1.000000 0.0
vt 0.000000 0.000000 0.0
vt 0.250000 1.000000 0.0
f 56/256 77/257 54/258
#fvcolorindex 10 10 10 
vt 1.000000 1.000000 0.0
vt 1.000000 0.000000 0.0
vt 0.000000 0.000000 0.0
v -2.888350 25.250002 -10.000000
#joint 33
#vjoint 79
f 58/259 79/260 78/261
#fvcolorindex 10 10 10 
vt 1.000000 1.000000 0.0
vt 0.000000 0.000000 0.0
vt 0.250000 1.000000 0.0
f 58/262 78/263 56/264
#fvcolorindex 10 10 10 
vt 0.250000 1.000000 0.0
vt 0.000000 0.000000 0.0
vt 1.000000 0.000000 0.0
v 2.111650 25.250002 -18.000000
#joint 33
#vjoint 80
f 60/265 80/266 79/267
#fvcolorindex 10 10 10 
vt 0.250000 1.000000 0.0
vt 1.000000 0.000000 0.0
vt 1.000000 1.000000 0.0
f 60/268 79/269 58/270
#fvcolorindex 10 10 10 
vt 0.250000 1.000000 0.0
vt 0.000000 0.000000 0.0
vt 1.000000 0.000000 0.0
v 11.111650 25.250002 -23.000000
#joint 33
#vjoint 81
f 62/271 81/272 80/273
#fvcolorindex 10 10 10 
vt 0.250000 1.000000 0.0
vt 1.000000 0.000000 0.0
vt 1.000000 1.000000 0.0
f 62/274 80/275 60/276
#fvcolorindex 10 10 10 
usemtl m20
vt 1.000000 1.000000 0.0
vt 1.000000 0.000000 0.0
vt 0.000000 0.000000 0.0
v 20.111650 25.250002 -25.000000
#joint 33
#vjoint 82
f 64/277 82/278 81/279
#fvcolorindex 22 22 10 
vt 1.000000 1.000000 0.0
vt 0.000000 0.000000 0.0
vt 0.250000 1.000000 0.0
f 64/280 81/281 62/282
#fvcolorindex 22 10 10 
usemtl m21
vt 0.903320 0.955078 0.0
vt 1.000000 0.000000 0.0
vt 0.000000 0.000000 0.0
v 30.111650 25.250002 -23.000000
#joint 33
#vjoint 83
f 66/283 83/284 82/285
#fvcolorindex 23 23 22 
vt 0.903320 0.955078 0.0
vt 0.000000 0.000000 0.0
vt 0.153320 0.955078 0.0
f 66/286 82/287 64/288
#fvcolorindex 23 22 22 
usemtl m22
vt 1.000000 1.025391 0.0
vt 1.000000 -0.009766 0.0
vt 0.000000 0.000000 0.0
v 38.111649 25.250002 -18.000000
#joint 33
#vjoint 84
f 68/289 84/290 83/291
#fvcolorindex 24 24 23 
vt 1.000000 1.025391 0.0
vt 0.000000 0.000000 0.0
vt 0.250000 1.032227 0.0
f 68/292 83/293 66/294
#fvcolorindex 24 23 23 
usemtl m23
vt 0.250000 1.000000 0.0
vt 0.000000 0.000000 0.0
vt 1.000000 0.000000 0.0
f 39/295 70/296 84/297
#fvcolorindex 18 18 24 
vt 0.250000 1.000000 0.0
vt 1.000000 0.000000 0.0
vt 1.000000 1.000000 0.0
f 39/298 84/299 68/300
#fvcolorindex 18 24 24 
usemtl m19
vt 1.000000 1.000000 0.0
vt 0.250000 1.000000 0.0
vt 0.000000 0.000000 0.0
v 39.111649 -68.750000 0.000000
#joint 33
#vjoint 85
v 37.111649 -68.750000 -7.000000
#joint 33
#vjoint 86
v 43.111649 -61.750000 -10.000000
#joint 33
#vjoint 87
#vcolor 104.000000 104.000000 104.000000 255.000000
f 85/301 86/302 87/303
#fvcolorindex 10 10 25 
vt 1.000000 1.000000 0.0
vt 0.000000 0.000000 0.0
vt 1.000000 0.000000 0.0
v 45.111649 -61.750000 0.000000
#joint 33
#vjoint 88
#vcolor 132.000000 132.000000 132.000000 255.000000
f 85/304 87/305 88/306
#fvcolorindex 10 25 26 
usemtl m24
vt 0.000000 0.000000 0.0
vt 0.250000 1.000000 0.0
vt 1.000000 1.000000 0.0
v 43.111649 -61.750000 10.000000
#joint 33
#vjoint 89
v 37.111649 -68.750000 7.000000
#joint 33
#vjoint 90
f 89/307 90/308 85/309
#fvcolorindex 16 10 10 
vt 0.000000 0.000000 0.0
vt 1.000000 1.000000 0.0
vt 1.000000 0.000000 0.0
f 89/310 85/311 88/312
#fvcolorindex 16 10 26 
usemtl m25
vt 0.000000 0.000000 0.0
vt 0.250000 1.000000 0.0
vt 1.000000 1.000000 0.0
v 38.111649 -61.750000 18.000000
#joint 33
#vjoint 91
#vcolor 124.000000 124.000000 124.000000 255.000000
v 33.111649 -68.750000 13.000000
#joint 33
#vjoint 92
f 91/313 92/314 90/315
#fvcolorindex 27 10 10 
vt 0.000000 0.000000 0.0
vt 1.000000 1.000000 0.0
vt 1.000000 0.000000 0.0
f 91/316 90/317 89/318
#fvcolorindex 27 10 16 
usemtl m26
vt 1.000000 0.000000 0.0
vt 1.000000 1.000000 0.0
vt 0.250000 1.000000 0.0
v 30.111650 -61.750000 23.000000
#joint 33
#vjoint 93
#vcolor 90.000000 90.000000 90.000000 255.000000
v 27.111650 -68.750000 17.000000
#joint 33
#vjoint 94
f 93/319 94/320 92/321
#fvcolorindex 28 10 10 
vt 1.000000 0.000000 0.0
vt 0.250000 1.000000 0.0
vt 0.000000 0.000000 0.0
f 93/322 92/323 91/324
#fvcolorindex 28 10 27 
usemtl m19
vt 0.000000 0.000000 0.0
vt 0.250000 1.000000 0.0
vt 1.000000 1.000000 0.0
v 20.111650 -61.750000 25.000000
#joint 33
#vjoint 95
v 20.111650 -68.750000 19.000000
#joint 33
#vjoint 96
f 95/325 96/326 94/327
#fvcolorindex 10 10 10 
vt 0.000000 0.000000 0.0
vt 1.000000 1.000000 0.0
vt 1.000000 0.000000 0.0
f 95/328 94/329 93/330
#fvcolorindex 10 10 28 
vt 0.000000 0.000000 0.0
vt 0.250000 1.000000 0.0
vt 1.000000 1.000000 0.0
v 11.111650 -61.750000 23.000000
#joint 33
#vjoint 97
v 13.111650 -68.750000 17.000000
#joint 33
#vjoint 98
f 97/331 98/332 96/333
#fvcolorindex 10 10 10 
vt 0.000000 0.000000 0.0
vt 1.000000 1.000000 0.0
vt 1.000000 0.000000 0.0
f 97/334 96/335 95/336
#fvcolorindex 10 10 10 
vt 1.000000 0.000000 0.0
vt 1.000000 1.000000 0.0
vt 0.249023 1.000000 0.0
v 2.111650 -61.750000 18.000000
#joint 33
#vjoint 99
v 7.111650 -68.750000 13.000000
#joint 33
#vjoint 100
f 99/337 100/338 98/339
#fvcolorindex 10 10 10 
vt 1.000000 0.000000 0.0
vt 0.249023 1.000000 0.0
vt -0.001953 0.000000 0.0
f 99/340 98/341 97/342
#fvcolorindex 10 10 10 
vt 0.000000 0.000000 0.0
vt 0.250000 1.000000 0.0
vt 1.000000 1.000000 0.0
v -2.888350 -61.750000 10.000000
#joint 33
#vjoint 101
v 3.111650 -68.750000 7.000000
#joint 33
#vjoint 102
f 101/343 102/344 100/345
#fvcolorindex 10 10 10 
vt 0.000000 0.000000 0.0
vt 1.000000 1.000000 0.0
vt 1.000000 0.000000 0.0
f 101/346 100/347 99/348
#fvcolorindex 10 10 10 
vt 0.000000 0.000000 0.0
vt 0.250000 1.000000 0.0
vt 1.000000 1.000000 0.0
v -4.888350 -61.750000 0.000000
#joint 33
#vjoint 103
v 1.111650 -68.750000 0.000000
#joint 33
#vjoint 104
f 103/349 104/350 102/351
#fvcolorindex 10 10 10 
vt 0.000000 0.000000 0.0
vt 1.000000 1.000000 0.0
vt 1.000000 0.000000 0.0
f 103/352 102/353 101/354
#fvcolorindex 10 10 10 
vt 1.000000 0.000000 0.0
vt 1.000000 1.000000 0.0
vt 0.250000 1.000000 0.0
v -2.888350 -61.750000 -10.000000
#joint 33
#vjoint 105
v 3.111650 -68.750000 -7.000000
#joint 33
#vjoint 106
f 105/355 106/356 104/357
#fvcolorindex 10 10 10 
vt 1.000000 0.000000 0.0
vt 0.250000 1.000000 0.0
vt 0.000000 0.000000 0.0
f 105/358 104/359 103/360
#fvcolorindex 10 10 10 
vt 1.000000 0.000000 0.0
vt 1.000000 1.000000 0.0
vt 0.250000 1.000000 0.0
v 2.111650 -61.750000 -18.000000
#joint 33
#vjoint 107
v 7.111650 -68.750000 -13.000000
#joint 33
#vjoint 108
f 107/361 108/362 106/363
#fvcolorindex 10 10 10 
vt 1.000000 0.000000 0.0
vt 0.250000 1.000000 0.0
vt 0.000000 0.000000 0.0
f 107/364 106/365 105/366
#fvcolorindex 10 10 10 
vt 0.000000 0.000000 0.0
vt 0.250000 1.000000 0.0
vt 1.000000 1.000000 0.0
v 11.111650 -61.750000 -23.000000
#joint 33
#vjoint 109
v 13.111650 -68.750000 -17.000000
#joint 33
#vjoint 110
f 109/367 110/368 108/369
#fvcolorindex 10 10 10 
vt 0.000000 0.000000 0.0
vt 1.000000 1.000000 0.0
vt 1.000000 0.000000 0.0
f 109/370 108/371 107/372
#fvcolorindex 10 10 10 
vt 0.000000 0.000000 0.0
vt 0.250000 1.000000 0.0
vt 1.000000 1.000000 0.0
v 20.111650 -61.750000 -25.000000
#joint 33
#vjoint 111
v 20.111650 -68.750000 -19.000000
#joint 33
#vjoint 112
f 111/373 112/374 110/375
#fvcolorindex 10 10 10 
vt 0.000000 0.000000 0.0
vt 1.000000 1.000000 0.0
vt 1.000000 0.000000 0.0
f 111/376 110/377 109/378
#fvcolorindex 10 10 10 
vt 1.000000 0.000000 0.0
vt 1.000000 1.000000 0.0
vt 0.250000 1.000000 0.0
v 30.111650 -61.750000 -23.000000
#joint 33
#vjoint 113
v 27.111650 -68.750000 -17.000000
#joint 33
#vjoint 114
f 113/379 114/380 112/381
#fvcolorindex 10 10 10 
vt 1.000000 0.000000 0.0
vt 0.250000 1.000000 0.0
vt 0.000000 0.000000 0.0
f 113/382 112/383 111/384
#fvcolorindex 10 10 10 
vt 0.000000 0.000000 0.0
vt 0.250000 1.000000 0.0
vt 1.000000 1.000000 0.0
v 38.111649 -61.750000 -18.000000
#joint 33
#vjoint 115
v 33.111649 -68.750000 -13.000000
#joint 33
#vjoint 116
f 115/385 116/386 114/387
#fvcolorindex 10 10 10 
vt 0.000000 0.000000 0.0
vt 1.000000 1.000000 0.0
vt 1.000000 0.000000 0.0
f 115/388 114/389 113/390
#fvcolorindex 10 10 10 
usemtl m27
vt 0.000000 0.000000 0.0
vt 0.250000 1.000000 0.0
vt 1.000000 1.000000 0.0
f 87/391 86/392 116/393
#fvcolorindex 25 10 10 
vt 0.000000 0.000000 0.0
vt 1.000000 1.000000 0.0
vt 1.000000 0.000000 0.0
f 87/394 116/395 115/396
#fvcolorindex 25 10 10 
usemtl m28
vt 0.500000 1.000000 0.0
vt 0.500000 0.000000 0.0
vt 1.000000 0.000000 0.0
v 39.111649 59.250000 0.000000
#joint 33
#vjoint 117
v 39.111649 47.250000 0.000000
#joint 33
#vjoint 118
v 37.111649 47.250000 -7.000000
#joint 33
#vjoint 119
f 117/397 118/398 119/399
#fvcolorindex 1 1 2 
vt 0.500000 1.000000 0.0
vt 1.000000 0.000000 0.0
vt 1.000000 1.000000 0.0
v 37.111649 59.250000 -7.000000
#joint 33
#vjoint 120
f 117/400 119/401 120/402
#fvcolorindex 1 2 2 
usemtl m29
vt 0.000000 1.000000 0.0
vt 0.000000 0.000000 0.0
vt 0.500000 0.000000 0.0
v 37.111649 59.250000 7.000000
#joint 33
#vjoint 121
v 37.111649 47.250000 7.000000
#joint 33
#vjoint 122
f 121/403 122/404 118/405
#fvcolorindex 3 3 1 
vt 0.000000 1.000000 0.0
vt 0.500000 0.000000 0.0
vt 0.500000 1.000000 0.0
f 121/406 118/407 117/408
#fvcolorindex 3 1 1 
usemtl m30
vt 0.500000 1.000000 0.0
vt 0.500000 0.000000 0.0
vt 1.000000 0.000000 0.0
v 33.111649 59.250000 13.000000
#joint 33
#vjoint 123
v 33.111649 47.250000 13.000000
#joint 33
#vjoint 124
f 123/409 124/410 122/411
#fvcolorindex 5 5 3 
vt 0.500000 1.000000 0.0
vt 1.000000 0.000000 0.0
vt 1.000000 1.000000 0.0
f 123/412 122/413 121/414
#fvcolorindex 5 3 3 
usemtl m31
vt 0.000000 1.000000 0.0
vt 0.000000 0.000000 0.0
vt 0.500000 0.000000 0.0
v 27.111650 59.250000 17.000000
#joint 33
#vjoint 125
v 27.111650 47.250000 17.000000
#joint 33
#vjoint 126
f 125/415 126/416 124/417
#fvcolorindex 8 8 5 
vt 0.000000 1.000000 0.0
vt 0.500000 0.000000 0.0
vt 0.500000 1.000000 0.0
f 125/418 124/419 123/420
#fvcolorindex 8 5 5 
usemtl m32
vt 0.500000 1.000000 0.0
vt 0.500000 0.000000 0.0
vt 1.000000 0.000000 0.0
v 20.111650 59.250000 19.000000
#joint 33
#vjoint 127
v 20.111650 47.250000 19.000000
#joint 33
#vjoint 128
f 127/421 128/422 126/423
#fvcolorindex 9 9 8 
vt 0.500000 1.000000 0.0
vt 1.000000 0.000000 0.0
vt 1.000000 1.000000 0.0
f 127/424 126/425 125/426
#fvcolorindex 9 8 8 
usemtl m19
vt 0.000000 1.000000 0.0
vt 0.000000 0.000000 0.0
vt 0.500000 0.000000 0.0
v 13.111650 59.250000 17.000000
#joint 33
#vjoint 129
v 13.111650 47.250000 17.000000
#joint 33
#vjoint 130
f 129/427 130/428 128/429
#fvcolorindex 10 10 9 
vt 0.000000 1.000000 0.0
vt 0.500000 0.000000 0.0
vt 0.500000 1.000000 0.0
f 129/430 128/431 127/432
#fvcolorindex 10 9 9 
vt 0.500000 1.000000 0.0
vt 0.500000 0.000000 0.0
vt 1.000000 0.000000 0.0
v 7.111650 59.250000 13.000000
#joint 33
#vjoint 131
v 7.111650 47.250000 13.000000
#joint 33
#vjoint 132
f 131/433 132/434 130/435
#fvcolorindex 10 10 10 
vt 0.500000 1.000000 0.0
vt 1.000000 0.000000 0.0
vt 1.000000 1.000000 0.0
f 131/436 130/437 129/438
#fvcolorindex 10 10 10 
vt 0.000000 1.000000 0.0
vt 0.000000 0.000000 0.0
vt 0.500000 0.000000 0.0
v 3.111650 59.250000 7.000000
#joint 33
#vjoint 133
v 3.111650 47.250000 7.000000
#joint 33
#vjoint 134
f 133/439 134/440 132/441
#fvcolorindex 10 10 10 
vt 0.000000 1.000000 0.0
vt 0.500000 0.000000 0.0
vt 0.500000 1.000000 0.0
f 133/442 132/443 131/444
#fvcolorindex 10 10 10 
vt 0.500000 1.000000 0.0
vt 0.500000 0.000000 0.0
vt 1.000000 0.000000 0.0
v 1.111650 59.250000 0.000000
#joint 33
#vjoint 135
v 1.111650 47.250000 0.000000
#joint 33
#vjoint 136
f 135/445 136/446 134/447
#fvcolorindex 10 10 10 
vt 0.500000 1.000000 0.0
vt 1.000000 0.000000 0.0
vt 1.000000 1.000000 0.0
f 135/448 134/449 133/450
#fvcolorindex 10 10 10 
vt 0.000000 1.000000 0.0
vt 0.000000 0.000000 0.0
vt 0.500000 0.000000 0.0
v 3.111650 59.250000 -7.000000
#joint 33
#vjoint 137
v 3.111650 47.250000 -7.000000
#joint 33
#vjoint 138
f 137/451 138/452 136/453
#fvcolorindex 10 10 10 
vt 0.000000 1.000000 0.0
vt 0.500000 0.000000 0.0
vt 0.500000 1.000000 0.0
f 137/454 136/455 135/456
#fvcolorindex 10 10 10 
vt 0.500000 1.000000 0.0
vt 0.500000 0.000000 0.0
vt 1.000000 0.000000 0.0
v 7.111650 59.250000 -13.000000
#joint 33
#vjoint 139
v 7.111650 47.250000 -13.000000
#joint 33
#vjoint 140
f 139/457 140/458 138/459
#fvcolorindex 10 10 10 
vt 0.500000 1.000000 0.0
vt 1.000000 0.000000 0.0
vt 1.000000 1.000000 0.0
f 139/460 138/461 137/462
#fvcolorindex 10 10 10 
vt 0.000000 1.000000 0.0
vt 0.000000 0.000000 0.0
vt 0.500000 0.000000 0.0
v 13.111650 59.250000 -17.000000
#joint 33
#vjoint 141
v 13.111650 47.250000 -17.000000
#joint 33
#vjoint 142
f 141/463 142/464 140/465
#fvcolorindex 10 10 10 
vt 0.000000 1.000000 0.0
vt 0.500000 0.000000 0.0
vt 0.500000 1.000000 0.0
f 141/466 140/467 139/468
#fvcolorindex 10 10 10 
vt 0.500000 1.000000 0.0
vt 0.500000 0.000000 0.0
vt 1.000000 0.000000 0.0
v 20.111650 59.250000 -19.000000
#joint 33
#vjoint 143
v 20.111650 47.250000 -19.000000
#joint 33
#vjoint 144
f 143/469 144/470 142/471
#fvcolorindex 10 10 10 
vt 0.500000 1.000000 0.0
vt 1.000000 0.000000 0.0
vt 1.000000 1.000000 0.0
f 143/472 142/473 141/474
#fvcolorindex 10 10 10 
usemtl m18
vt 0.000000 1.000000 0.0
vt 0.000000 0.000000 0.0
vt 0.500000 0.000000 0.0
v 27.111650 59.250000 -17.000000
#joint 33
#vjoint 145
v 27.111650 47.250000 -17.000000
#joint 33
#vjoint 146
f 145/475 146/476 144/477
#fvcolorindex 13 13 10 
vt 0.000000 1.000000 0.0
vt 0.500000 0.000000 0.0
vt 0.500000 1.000000 0.0
f 145/478 144/479 143/480
#fvcolorindex 13 10 10 
usemtl m24
vt 0.500000 1.000000 0.0
vt 0.500000 0.000000 0.0
vt 1.000000 0.000000 0.0
v 33.111649 59.250000 -13.000000
#joint 33
#vjoint 147
v 33.111649 47.250000 -13.000000
#joint 33
#vjoint 148
f 147/481 148/482 146/483
#fvcolorindex 16 16 13 
vt 0.500000 1.000000 0.0
vt 1.000000 0.000000 0.0
vt 1.000000 1.000000 0.0
f 147/484 146/485 145/486
#fvcolorindex 16 13 13 
usemtl m33
vt 0.000000 1.000000 0.0
vt 0.000000 0.000000 0.0
vt 0.500000 0.000000 0.0
f 120/487 119/488 148/489
#fvcolorindex 2 2 16 
vt 0.000000 1.000000 0.0
vt 0.500000 0.000000 0.0
vt 0.500000 1.000000 0.0
f 120/490 148/491 147/492
#fvcolorindex 2 16 16 
usemtl m34
vt 0.688965 2.872070 0.0
vt 0.688965 0.180664 0.0
vt 0.963867 0.184082 0.0
f 69/493 88/494 87/495
#fvcolorindex 17 26 25 
vt 0.688965 2.872070 0.0
vt 0.963867 0.184082 0.0
vt 0.963867 2.875488 0.0
f 69/496 87/497 70/498
#fvcolorindex 17 25 18 
vt 0.414551 2.869141 0.0
vt 0.414062 0.177246 0.0
vt 0.688965 0.180664 0.0
f 71/499 89/500 88/501
#fvcolorindex 17 16 26 
vt 0.414551 2.869141 0.0
vt 0.688965 0.180664 0.0
vt 0.688965 2.872070 0.0
f 71/502 88/503 69/504
#fvcolorindex 17 26 17 
vt 0.181641 2.866211 0.0
vt 0.181152 0.174805 0.0
vt 0.414062 0.177246 0.0
f 72/505 91/506 89/507
#fvcolorindex 17 27 16 
vt 0.181641 2.866211 0.0
vt 0.414062 0.177246 0.0
vt 0.414551 2.869141 0.0
f 72/508 89/509 71/510
#fvcolorindex 17 16 17 
usemtl m35
vt 0.025879 2.864258 0.0
vt 0.025391 0.172852 0.0
vt 0.181152 0.174805 0.0
f 73/511 93/512 91/513
#fvcolorindex 19 28 27 
vt 0.025879 2.864258 0.0
vt 0.181152 0.174805 0.0
vt 0.181641 2.866211 0.0
f 73/514 91/515 72/516
#fvcolorindex 19 27 17 
usemtl m36
vt 0.744141 2.826172 0.0
vt 0.735352 0.191895 0.0
vt 1.014160 0.193848 0.0
f 74/517 95/518 93/519
#fvcolorindex 20 10 28 
vt 0.744141 2.826172 0.0
vt 1.014160 0.193848 0.0
vt 1.022949 2.828125 0.0
f 74/520 93/521 73/522
#fvcolorindex 20 28 19 
usemtl m37
vt 0.465820 2.823730 0.0
vt 0.457031 0.189453 0.0
vt 0.735352 0.191895 0.0
f 75/523 97/524 95/525
#fvcolorindex 21 10 10 
vt 0.465820 2.823730 0.0
vt 0.735352 0.191895 0.0
vt 0.744141 2.826172 0.0
f 75/526 95/527 74/528
#fvcolorindex 21 10 20 
usemtl m38
vt 0.229492 2.822266 0.0
vt 0.220703 0.187500 0.0
vt 0.457031 0.189453 0.0
f 76/529 99/530 97/531
#fvcolorindex 13 10 10 
vt 0.229492 2.822266 0.0
vt 0.457031 0.189453 0.0
vt 0.465820 2.823730 0.0
f 76/532 97/533 75/534
#fvcolorindex 13 10 21 
usemtl m39
vt 0.071777 2.820801 0.0
vt 0.062988 0.186523 0.0
vt 0.220703 0.187500 0.0
f 77/535 101/536 99/537
#fvcolorindex 10 10 10 
vt 0.071777 2.820801 0.0
vt 0.220703 0.187500 0.0
vt 0.229492 2.822266 0.0
f 77/538 99/539 76/540
#fvcolorindex 10 10 13 
vt 0.706543 2.911621 0.0
vt 0.706543 0.280273 0.0
vt 0.975586 0.283203 0.0
f 78/541 103/542 101/543
#fvcolorindex 10 10 10 
vt 0.706543 2.911621 0.0
vt 0.975586 0.283203 0.0
vt 0.975586 2.915039 0.0
f 78/544 101/545 77/546
#fvcolorindex 10 10 10 
vt 0.437500 2.908691 0.0
vt 0.437500 0.277344 0.0
vt 0.706543 0.280273 0.0
f 79/547 105/548 103/549
#fvcolorindex 10 10 10 
vt 0.437500 2.908691 0.0
vt 0.706543 0.280273 0.0
vt 0.706543 2.911621 0.0
f 79/550 103/551 78/552
#fvcolorindex 10 10 10 
vt 0.209473 2.905762 0.0
vt 0.209473 0.274414 0.0
vt 0.437500 0.277344 0.0
f 80/553 107/554 105/555
#fvcolorindex 10 10 10 
vt 0.209473 2.905762 0.0
vt 0.437500 0.277344 0.0
vt 0.437500 2.908691 0.0
f 80/556 105/557 79/558
#fvcolorindex 10 10 10 
vt 0.057129 2.904297 0.0
vt 0.057129 0.272461 0.0
vt 0.209473 0.274414 0.0
f 81/559 109/560 107/561
#fvcolorindex 10 10 10 
vt 0.057129 2.904297 0.0
vt 0.209473 0.274414 0.0
vt 0.209473 2.905762 0.0
f 81/562 107/563 80/564
#fvcolorindex 10 10 10 
usemtl m40
vt 0.693848 2.878906 0.0
vt 0.689453 0.216309 0.0
vt 0.961426 0.215820 0.0
f 82/565 111/566 109/567
#fvcolorindex 22 10 10 
vt 0.693848 2.878906 0.0
vt 0.961426 0.215820 0.0
vt 0.965332 2.878418 0.0
f 82/568 109/569 81/570
#fvcolorindex 22 10 10 
usemtl m41
vt 0.421875 2.879395 0.0
vt 0.417480 0.216797 0.0
vt 0.689453 0.216309 0.0
f 83/571 113/572 111/573
#fvcolorindex 23 10 10 
vt 0.421875 2.879395 0.0
vt 0.689453 0.216309 0.0
vt 0.693848 2.878906 0.0
f 83/574 111/575 82/576
#fvcolorindex 23 10 22 
usemtl m42
vt 0.191406 2.879883 0.0
vt 0.187012 0.217285 0.0
vt 0.417480 0.216797 0.0
f 84/577 115/578 113/579
#fvcolorindex 24 10 10 
vt 0.191406 2.879883 0.0
vt 0.417480 0.216797 0.0
vt 0.421875 2.879395 0.0
f 84/580 113/581 83/582
#fvcolorindex 24 10 23 
usemtl m43
vt 0.037109 2.879883 0.0
vt 0.032715 0.217773 0.0
vt 0.187012 0.217285 0.0
f 70/583 87/584 115/585
#fvcolorindex 18 25 10 
vt 0.037109 2.879883 0.0
vt 0.187012 0.217285 0.0
vt 0.191406 2.879883 0.0
f 70/586 115/587 84/588
#fvcolorindex 18 10 24 
usemtl m44
vt 0.971680 0.937500 0.0
vt 0.997070 0.218750 0.0
vt 0.973633 0.904297 0.0
v 27.111700 74.826912 17.000000
#joint 34
#vjoint 149
v 27.111700 65.826912 34.000000
#joint 34
#vjoint 150
v 27.111700 68.826912 17.000000
#joint 34
#vjoint 151
f 149/589 150/590 151/591
#fvcolorindex 17 17 17 
vt 0.971680 0.937500 0.0
vt 0.717773 0.012695 0.0
vt 0.997070 0.218750 0.0
v 23.111700 71.826912 41.000000
#joint 34
#vjoint 152
f 149/592 152/593 150/594
#fvcolorindex 17 17 17 
vt 1.000000 1.417969 0.0
vt 0.717773 1.563477 0.0
vt 0.717773 -0.019531 0.0
v 23.111700 12.826912 47.000000
#joint 34
#vjoint 153
f 150/595 152/596 153/597
#fvcolorindex 17 17 17 
vt 1.000000 1.417969 0.0
vt 0.717773 -0.019531 0.0
vt 1.000000 0.000000 0.0
v 27.111700 12.826912 41.000000
#joint 34
#vjoint 154
f 150/598 153/599 154/600
#fvcolorindex 17 17 17 
vt 1.000000 1.023438 0.0
vt 0.718750 1.074219 0.0
vt 0.777344 0.009766 0.0
v 23.111700 -22.173088 31.000000
#joint 34
#vjoint 155
f 154/601 153/602 155/603
#fvcolorindex 17 17 17 
vt 0.777344 0.009766 0.0
vt 0.718750 1.074219 0.0
vt 0.288086 1.079102 0.0
v 17.111700 12.826912 47.000000
#joint 34
#vjoint 156
f 155/604 153/605 156/606
#fvcolorindex 17 17 17 
vt 0.777344 0.009766 0.0
vt 0.288086 1.079102 0.0
vt 0.345703 0.014648 0.0
v 17.111700 -22.173088 31.000000
#joint 34
#vjoint 157
f 155/607 156/608 157/609
#fvcolorindex 17 17 17 
vt 0.282227 -0.019531 0.0
vt 0.717773 -0.019531 0.0
vt 0.717773 1.563477 0.0
f 156/610 153/611 152/612
#fvcolorindex 17 17 17 
vt 0.282227 -0.019531 0.0
vt 0.717773 1.563477 0.0
vt 0.282227 1.563477 0.0
v 17.111700 71.826912 41.000000
#joint 34
#vjoint 158
f 156/613 152/614 158/615
#fvcolorindex 17 17 17 
vt 0.000000 1.417969 0.0
vt 0.000000 0.000000 0.0
vt 0.282227 -0.019531 0.0
v 13.111700 65.826912 34.000000
#joint 34
#vjoint 159
v 13.111700 12.826912 41.000000
#joint 34
#vjoint 160
f 159/616 160/617 156/618
#fvcolorindex 17 17 17 
vt 0.000000 1.417969 0.0
vt 0.282227 -0.019531 0.0
vt 0.282227 1.563477 0.0
f 159/619 156/620 158/621
#fvcolorindex 17 17 17 
vt 0.997070 0.218750 0.0
vt 0.971680 0.937500 0.0
vt 0.973633 0.904297 0.0
v 13.111700 74.826912 17.000000
#joint 34
#vjoint 161
v 13.111700 68.826912 17.000000
#joint 34
#vjoint 162
f 159/622 161/623 162/624
#fvcolorindex 17 17 17 
vt -0.018555 0.242188 0.0
vt 0.275391 0.023438 0.0
vt -0.043945 0.960938 0.0
f 159/625 158/626 161/627
#fvcolorindex 17 17 17 
vt 0.345703 0.014648 0.0
vt 0.288086 1.079102 0.0
vt 0.011719 1.035156 0.0
f 157/628 156/629 160/630
#fvcolorindex 17 17 17 
vt 1.000000 1.023438 0.0
vt 0.777344 0.009766 0.0
vt 0.345703 0.014648 0.0
f 154/631 155/632 157/633
#fvcolorindex 17 17 17 
vt 1.000000 1.023438 0.0
vt 0.345703 0.014648 0.0
vt 0.011719 1.035156 0.0
f 154/634 157/635 160/636
#fvcolorindex 17 17 17 
vt 1.000000 0.000000 0.0
vt 0.000000 0.000000 0.0
vt 0.000000 1.417969 0.0
f 154/637 160/638 159/639
#fvcolorindex 17 17 17 
vt 1.000000 0.000000 0.0
vt 0.000000 1.417969 0.0
vt 1.000000 1.417969 0.0
f 154/640 159/641 150/642
#fvcolorindex 17 17 17 
vt 0.997070 0.218750 0.0
vt -0.018555 0.242188 0.0
vt -0.042969 0.927734 0.0
f 150/643 159/644 162/645
#fvcolorindex 17 17 17 
vt 0.997070 0.218750 0.0
vt -0.042969 0.927734 0.0
vt 0.973633 0.904297 0.0
f 150/646 162/647 151/648
#fvcolorindex 17 17 17 
vt -0.019531 0.039062 0.0
vt 0.953125 0.030273 0.0
vt 0.958984 0.937500 0.0
v 27.111700 74.826912 -17.000000
#joint 34
#vjoint 163
f 161/649 149/650 163/651
#fvcolorindex 17 17 17 
vt -0.019531 0.039062 0.0
vt 0.958984 0.937500 0.0
vt -0.013672 0.946289 0.0
v 13.111700 74.826912 -17.000000
#joint 34
#vjoint 164
f 161/652 163/653 164/654
#fvcolorindex 17 17 17 
vt -0.013672 0.946289 0.0
vt -0.019531 0.039062 0.0
vt -0.013672 0.946289 0.0
v 13.111700 68.826912 -17.000000
#joint 34
#vjoint 165
f 165/655 162/656 164/657
#fvcolorindex 17 17 17 
vt -0.019531 0.039062 0.0
vt -0.019531 0.039062 0.0
vt -0.013672 0.946289 0.0
f 162/658 161/659 164/660
#fvcolorindex 17 17 17 
vt 0.958984 0.937500 0.0
vt 0.958984 0.937500 0.0
vt 0.953125 0.030273 0.0
v 27.111700 68.826912 -17.000000
#joint 34
#vjoint 166
f 166/661 163/662 149/663
#fvcolorindex 17 17 17 
vt 0.958984 0.937500 0.0
vt 0.953125 0.030273 0.0
vt 0.953125 0.030273 0.0
f 166/664 149/665 151/666
#fvcolorindex 17 17 17 
vt -0.013672 0.946289 0.0
vt -0.013672 0.946289 0.0
vt 0.958984 0.937500 0.0
f 165/667 164/668 163/669
#fvcolorindex 17 17 17 
vt -0.013672 0.946289 0.0
vt 0.958984 0.937500 0.0
vt 0.958984 0.937500 0.0
f 165/670 163/671 166/672
#fvcolorindex 17 17 17 
vt -0.013672 0.946289 0.0
vt 0.958984 0.937500 0.0
vt 0.953125 0.030273 0.0
f 165/673 166/674 151/675
#fvcolorindex 17 17 17 
vt -0.013672 0.946289 0.0
vt 0.953125 0.030273 0.0
vt -0.019531 0.039062 0.0
f 165/676 151/677 162/678
#fvcolorindex 17 17 17 
vt 0.275391 0.023438 0.0
vt 0.717773 0.012695 0.0
vt 0.971680 0.937500 0.0
f 158/679 152/680 149/681
#fvcolorindex 17 17 17 
vt 0.275391 0.023438 0.0
vt 0.971680 0.937500 0.0
vt -0.043945 0.960938 0.0
f 158/682 149/683 161/684
#fvcolorindex 17 17 17 
usemtl m45
vt 0.000000 0.000000 0.0
vt 0.499023 -0.083008 0.0
vt 0.518555 2.094727 0.0
#vcolor 249.000000 249.000000 249.000000 255.000000
f 14/685 12/686 30/687
#fvcolorindex 29 29 29 
vt 0.000000 0.000000 0.0
vt 0.518555 2.094727 0.0
vt 0.017578 2.011719 0.0
f 14/688 30/689 28/690
#fvcolorindex 29 29 29 
vt 0.499023 -0.083008 0.0
vt 1.000000 0.000000 0.0
vt 1.017578 2.011719 0.0
f 12/691 10/692 32/693
#fvcolorindex 29 29 29 
vt 0.499023 -0.083008 0.0
vt 1.017578 2.011719 0.0
vt 0.518555 2.094727 0.0
f 12/694 32/695 30/696
#fvcolorindex 29 29 29 
usemtl m46
vt 0.311523 0.952637 0.0
vt 0.312012 0.068848 0.0
vt 0.312012 0.068848 0.0
f 27/697 17/698 14/699
#fvcolorindex 1 1 1 
vt 0.311523 0.952637 0.0
vt 0.312012 0.068848 0.0
vt 0.311523 0.952637 0.0
f 27/700 14/701 28/702
#fvcolorindex 1 1 1 
usemtl m47
vt 0.684082 0.062500 0.0
vt 0.684082 0.062500 0.0
vt 0.683105 0.946777 0.0
f 10/703 9/704 35/705
#fvcolorindex 10 10 10 
vt 0.684082 0.062500 0.0
vt 0.683105 0.946777 0.0
vt 0.683105 0.946777 0.0
f 10/706 35/707 32/708
#fvcolorindex 10 10 10 
usemtl m48
vt 0.311523 0.952637 0.0
vt 0.154297 0.851562 0.0
vt 0.154785 0.174805 0.0
f 27/709 25/710 16/711
#fvcolorindex 29 29 29 
vt 0.311523 0.952637 0.0
vt 0.154785 0.174805 0.0
vt 0.312012 0.068848 0.0
f 27/712 16/713 17/714
#fvcolorindex 29 29 11 
vt 0.048828 0.698242 0.0
vt 0.049316 0.332031 0.0
vt 0.154785 0.174805 0.0
f 23/715 19/716 16/717
#fvcolorindex 29 29 29 
vt 0.048828 0.698242 0.0
vt 0.154785 0.174805 0.0
vt 0.154297 0.851562 0.0
f 23/718 16/719 25/720
#fvcolorindex 29 29 29 
vt 0.049316 0.332031 0.0
vt 0.048828 0.698242 0.0
vt 0.012207 0.515625 0.0
f 19/721 23/722 21/723
#fvcolorindex 29 29 29 
vt 0.683105 0.946777 0.0
vt 0.684082 0.062500 0.0
vt 0.841309 0.163574 0.0
f 35/724 9/725 7/726
#fvcolorindex 29 29 29 
vt 0.683105 0.946777 0.0
vt 0.841309 0.163574 0.0
vt 0.840820 0.840332 0.0
f 35/727 7/728 34/729
#fvcolorindex 29 29 29 
vt 0.840820 0.840332 0.0
vt 0.841309 0.163574 0.0
vt 0.946777 0.316895 0.0
f 34/730 7/731 5/732
#fvcolorindex 29 29 29 
vt 0.840820 0.840332 0.0
vt 0.946777 0.316895 0.0
vt 0.946289 0.683105 0.0
f 34/733 5/734 4/735
#fvcolorindex 29 29 29 
vt 0.946289 0.683105 0.0
vt 0.946777 0.316895 0.0
vt 0.983398 0.499512 0.0
f 4/736 5/737 1/738
#fvcolorindex 29 29 29 
usemtl m47
vt 0.678223 0.345215 0.0
vt 0.733887 0.416504 0.0
vt 0.495117 0.280762 0.0
f 116/739 86/740 112/741
#fvcolorindex 10 10 10 
vt 0.678223 0.345215 0.0
vt 0.495117 0.280762 0.0
vt 0.594238 0.297363 0.0
f 116/742 112/743 114/744
#fvcolorindex 10 10 10 
vt 0.395996 0.298340 0.0
vt 0.495117 0.280762 0.0
vt 0.733887 0.416504 0.0
f 110/745 112/746 86/747
#fvcolorindex 10 10 10 
vt 0.395996 0.298340 0.0
vt 0.733887 0.416504 0.0
vt 0.753418 0.501465 0.0
f 110/748 86/749 85/750
#fvcolorindex 10 10 10 
vt 0.311523 0.346191 0.0
vt 0.395996 0.298340 0.0
vt 0.753418 0.501465 0.0
f 108/751 110/752 85/753
#fvcolorindex 10 10 10 
vt 0.311523 0.346191 0.0
vt 0.753418 0.501465 0.0
vt 0.733398 0.585938 0.0
f 108/754 85/755 90/756
#fvcolorindex 10 10 10 
vt 0.255371 0.418457 0.0
vt 0.311523 0.346191 0.0
vt 0.733398 0.585938 0.0
f 106/757 108/758 90/759
#fvcolorindex 10 10 10 
vt 0.255371 0.418457 0.0
vt 0.733398 0.585938 0.0
vt 0.676758 0.657715 0.0
f 106/760 90/761 92/762
#fvcolorindex 10 10 10 
vt 0.255371 0.418457 0.0
vt 0.676758 0.657715 0.0
vt 0.592773 0.706055 0.0
f 106/763 92/764 94/765
#fvcolorindex 10 10 10 
vt 0.255371 0.418457 0.0
vt 0.592773 0.706055 0.0
vt 0.235352 0.502930 0.0
f 106/766 94/767 104/768
#fvcolorindex 10 10 10 
vt 0.235352 0.502930 0.0
vt 0.592773 0.706055 0.0
vt 0.493652 0.723145 0.0
f 104/769 94/770 96/771
#fvcolorindex 10 10 10 
vt 0.235352 0.502930 0.0
vt 0.493652 0.723145 0.0
vt 0.254395 0.587402 0.0
f 104/772 96/773 102/774
#fvcolorindex 10 10 10 
vt 0.254395 0.587402 0.0
vt 0.493652 0.723145 0.0
vt 0.394531 0.707031 0.0
f 102/775 96/776 98/777
#fvcolorindex 10 10 10 
vt 0.254395 0.587402 0.0
vt 0.394531 0.707031 0.0
vt 0.310547 0.659180 0.0
f 102/778 98/779 100/780
#fvcolorindex 10 10 10 
usemtl m49ClampT
vt 1.380859 0.000000 0.0
vt 1.380859 1.023438 0.0
vt 0.919922 1.023438 0.0
f 40/781 119/782 118/783
#fvcolorindex 2 2 1 
vt 1.380859 0.000000 0.0
vt 0.919922 1.023438 0.0
vt 0.919922 0.000000 0.0
f 40/784 118/785 37/786
#fvcolorindex 2 1 1 
usemtl m50ClampT
vt 0.919922 0.000000 0.0
vt 0.919922 1.023438 0.0
vt 0.421875 1.023438 0.0
f 37/787 118/788 122/789
#fvcolorindex 1 1 3 
vt 0.919922 0.000000 0.0
vt 0.421875 1.023438 0.0
vt 0.421875 0.000000 0.0
f 37/790 122/791 41/792
#fvcolorindex 1 3 3 
usemtl m51ClampT
vt 0.421875 0.000000 0.0
vt 0.421875 1.023438 0.0
vt -0.039062 1.023438 0.0
f 41/793 122/794 124/795
#fvcolorindex 3 3 5 
vt 0.421875 0.000000 0.0
vt -0.039062 1.023438 0.0
vt -0.039062 0.000000 0.0
f 41/796 124/797 43/798
#fvcolorindex 3 5 5 
usemtl m52ClampT
vt 0.283203 0.000000 0.0
vt 0.283203 1.026042 0.0
vt 0.714844 1.026042 0.0
f 43/799 124/800 126/801
#fvcolorindex 5 5 8 
vt 0.283203 0.000000 0.0
vt 0.714844 1.026042 0.0
vt 0.714844 0.000000 0.0
f 43/802 126/803 45/804
#fvcolorindex 5 8 8 
usemtl m53ClampT
vt 0.902344 0.000000 0.0
vt 0.902344 1.007812 0.0
vt 0.626953 1.007812 0.0
f 45/805 126/806 128/807
#fvcolorindex 8 8 9 
vt 0.902344 0.000000 0.0
vt 0.626953 1.007812 0.0
vt 0.626953 0.000000 0.0
f 45/808 128/809 47/810
#fvcolorindex 8 9 9 
usemtl m54ClampT
vt 0.626953 0.000000 0.0
vt 0.626953 1.007812 0.0
vt 0.330078 1.007812 0.0
f 47/811 128/812 130/813
#fvcolorindex 9 9 10 
vt 0.626953 0.000000 0.0
vt 0.330078 1.007812 0.0
vt 0.330078 0.000000 0.0
f 47/814 130/815 49/816
#fvcolorindex 9 10 10 
usemtl m55ClampT
vt 0.330078 0.000000 0.0
vt 0.330078 1.007812 0.0
vt 0.056641 1.007812 0.0
f 49/817 130/818 132/819
#fvcolorindex 10 10 10 
vt 0.330078 0.000000 0.0
vt 0.056641 1.007812 0.0
vt 0.056641 0.000000 0.0
f 49/820 132/821 51/822
#fvcolorindex 10 10 10 
vt 0.962891 0.000000 0.0
vt 0.962891 0.994792 0.0
vt 0.669922 0.994792 0.0
f 51/823 132/824 134/825
#fvcolorindex 10 10 10 
vt 0.962891 0.000000 0.0
vt 0.669922 0.994792 0.0
vt 0.669922 0.000000 0.0
f 51/826 134/827 53/828
#fvcolorindex 10 10 10 
vt 0.669922 0.000000 0.0
vt 0.669922 0.994792 0.0
vt 0.353516 0.994792 0.0
f 53/829 134/830 136/831
#fvcolorindex 10 10 10 
vt 0.669922 0.000000 0.0
vt 0.353516 0.994792 0.0
vt 0.353516 0.000000 0.0
f 53/832 136/833 55/834
#fvcolorindex 10 10 10 
vt 0.353516 0.000000 0.0
vt 0.353516 0.994792 0.0
vt 0.060547 0.994792 0.0
f 55/835 136/836 138/837
#fvcolorindex 10 10 10 
vt 0.353516 0.000000 0.0
vt 0.060547 0.994792 0.0
vt 0.060547 0.000000 0.0
f 55/838 138/839 57/840
#fvcolorindex 10 10 10 
vt 1.115234 0.000000 0.0
vt 1.115234 1.026042 0.0
vt 0.714844 1.026042 0.0
f 57/841 138/842 140/843
#fvcolorindex 10 10 10 
vt 1.115234 0.000000 0.0
vt 0.714844 1.026042 0.0
vt 0.714844 0.000000 0.0
f 57/844 140/845 59/846
#fvcolorindex 10 10 10 
vt 0.714844 0.000000 0.0
vt 0.714844 1.026042 0.0
vt 0.283203 1.026042 0.0
f 59/847 140/848 142/849
#fvcolorindex 10 10 10 
vt 0.714844 0.000000 0.0
vt 0.283203 1.026042 0.0
vt 0.283203 0.000000 0.0
f 59/850 142/851 61/852
#fvcolorindex 10 10 10 
vt 0.056641 0.000000 0.0
vt 0.056641 1.007812 0.0
vt 0.330078 1.007812 0.0
f 61/853 142/854 144/855
#fvcolorindex 10 10 10 
vt 0.056641 0.000000 0.0
vt 0.330078 1.007812 0.0
vt 0.330078 0.000000 0.0
f 61/856 144/857 63/858
#fvcolorindex 10 10 10 
vt 0.330078 0.000000 0.0
vt 0.330078 1.007812 0.0
vt 0.626953 1.007812 0.0
f 63/859 144/860 146/861
#fvcolorindex 10 10 13 
vt 0.330078 0.000000 0.0
vt 0.626953 1.007812 0.0
vt 0.626953 0.000000 0.0
f 63/862 146/863 65/864
#fvcolorindex 10 13 13 
usemtl m56ClampT
vt 0.626953 0.000000 0.0
vt 0.626953 1.007812 0.0
vt 0.902344 1.007812 0.0
f 65/865 146/866 148/867
#fvcolorindex 13 13 16 
vt 0.626953 0.000000 0.0
vt 0.902344 1.007812 0.0
vt 0.902344 0.000000 0.0
f 65/868 148/869 67/870
#fvcolorindex 13 16 16 
usemtl m57ClampT
vt 1.732422 0.000000 0.0
vt 1.732422 1.023438 0.0
vt 1.380859 1.023438 0.0
f 67/871 148/872 119/873
#fvcolorindex 16 16 2 
vt 1.732422 0.000000 0.0
vt 1.380859 1.023438 0.0
vt 1.380859 0.000000 0.0
f 67/874 119/875 40/876
#fvcolorindex 16 2 2 
usemtl m49ClampT
vt 0.914062 0.000000 0.0
vt 0.914062 1.010417 0.0
vt 0.775391 1.010417 0.0
f 120/877 3/878 2/879
#fvcolorindex 2 2 1 
vt 0.914062 0.000000 0.0
vt 0.775391 1.010417 0.0
vt 0.775391 0.000000 0.0
f 120/880 2/881 117/882
#fvcolorindex 2 1 1 
usemtl m50ClampT
vt 0.775391 0.000000 0.0
vt 0.775391 1.010417 0.0
vt 0.593750 1.010417 0.0
f 117/883 2/884 6/885
#fvcolorindex 1 1 3 
vt 0.775391 0.000000 0.0
vt 0.593750 1.010417 0.0
vt 0.593750 0.000000 0.0
f 117/886 6/887 121/888
#fvcolorindex 1 3 3 
usemtl m51ClampT
vt 0.593750 0.000000 0.0
vt 0.593750 1.010417 0.0
vt 0.396484 1.010417 0.0
f 121/889 6/890 8/891
#fvcolorindex 3 3 5 
vt 0.593750 0.000000 0.0
vt 0.396484 1.010417 0.0
vt 0.396484 0.000000 0.0
f 121/892 8/893 123/894
#fvcolorindex 3 5 5 
usemtl m52ClampT
vt 0.396484 0.000000 0.0
vt 0.396484 1.010417 0.0
vt 0.212891 1.010417 0.0
f 123/895 8/896 11/897
#fvcolorindex 5 5 8 
vt 0.396484 0.000000 0.0
vt 0.212891 1.010417 0.0
vt 0.212891 0.000000 0.0
f 123/898 11/899 125/900
#fvcolorindex 5 8 8 
usemtl m53ClampT
vt -0.105469 0.000000 0.0
vt -0.105469 1.020833 0.0
vt 0.062500 1.020833 0.0
f 125/901 11/902 13/903
#fvcolorindex 8 8 9 
vt -0.105469 0.000000 0.0
vt 0.062500 1.020833 0.0
vt 0.062500 0.000000 0.0
f 125/904 13/905 127/906
#fvcolorindex 8 9 9 
usemtl m54ClampT
vt 0.062500 0.000000 0.0
vt 0.062500 1.020833 0.0
vt 0.285156 1.020833 0.0
f 127/907 13/908 15/909
#fvcolorindex 9 9 10 
vt 0.062500 0.000000 0.0
vt 0.285156 1.020833 0.0
vt 0.285156 0.000000 0.0
f 127/910 15/911 129/912
#fvcolorindex 9 10 10 
usemtl m55ClampT
vt 0.285156 0.000000 0.0
vt 0.285156 1.020833 0.0
vt 0.523438 1.020833 0.0
f 129/913 15/914 18/915
#fvcolorindex 10 10 10 
vt 0.285156 0.000000 0.0
vt 0.523438 1.020833 0.0
vt 0.523438 0.000000 0.0
f 129/916 18/917 131/918
#fvcolorindex 10 10 10 
vt 0.523438 0.000000 0.0
vt 0.523438 1.020833 0.0
vt 0.746094 1.020833 0.0
f 131/919 18/920 20/921
#fvcolorindex 10 10 10 
vt 0.523438 0.000000 0.0
vt 0.746094 1.020833 0.0
vt 0.746094 0.000000 0.0
f 131/922 20/923 133/924
#fvcolorindex 10 10 10 
vt 0.074219 0.000000 0.0
vt 0.074219 1.010417 0.0
vt 0.212891 1.010417 0.0
f 133/925 20/926 22/927
#fvcolorindex 10 10 10 
vt 0.074219 0.000000 0.0
vt 0.212891 1.010417 0.0
vt 0.212891 0.000000 0.0
f 133/928 22/929 135/930
#fvcolorindex 10 10 10 
vt 0.212891 0.000000 0.0
vt 0.212891 1.010417 0.0
vt 0.396484 1.010417 0.0
f 135/931 22/932 24/933
#fvcolorindex 10 10 10 
vt 0.212891 0.000000 0.0
vt 0.396484 1.010417 0.0
vt 0.396484 0.000000 0.0
f 135/934 24/935 137/936
#fvcolorindex 10 10 10 
vt 0.396484 0.000000 0.0
vt 0.396484 1.010417 0.0
vt 0.593750 1.010417 0.0
f 137/937 24/938 26/939
#fvcolorindex 10 10 10 
vt 0.396484 0.000000 0.0
vt 0.593750 1.010417 0.0
vt 0.593750 0.000000 0.0
f 137/940 26/941 139/942
#fvcolorindex 10 10 10 
vt 0.593750 0.000000 0.0
vt 0.593750 1.010417 0.0
vt 0.775391 1.010417 0.0
f 139/943 26/944 29/945
#fvcolorindex 10 10 10 
vt 0.593750 0.000000 0.0
vt 0.775391 1.010417 0.0
vt 0.775391 0.000000 0.0
f 139/946 29/947 141/948
#fvcolorindex 10 10 10 
vt 0.916016 0.000000 0.0
vt 0.916016 1.020833 0.0
vt 0.746094 1.020833 0.0
f 141/949 29/950 31/951
#fvcolorindex 10 10 10 
vt 0.916016 0.000000 0.0
vt 0.746094 1.020833 0.0
vt 0.746094 0.000000 0.0
f 141/952 31/953 143/954
#fvcolorindex 10 10 10 
vt 0.746094 0.000000 0.0
vt 0.746094 1.020833 0.0
vt 0.523438 1.020833 0.0
f 143/955 31/956 33/957
#fvcolorindex 10 10 13 
vt 0.746094 0.000000 0.0
vt 0.523438 1.020833 0.0
vt 0.523438 0.000000 0.0
f 143/958 33/959 145/960
#fvcolorindex 10 13 13 
usemtl m56ClampT
vt 0.523438 0.000000 0.0
vt 0.523438 1.020833 0.0
vt 0.285156 1.020833 0.0
f 145/961 33/962 36/963
#fvcolorindex 13 13 16 
vt 0.523438 0.000000 0.0
vt 0.285156 1.020833 0.0
vt 0.285156 0.000000 0.0
f 145/964 36/965 147/966
#fvcolorindex 13 16 16 
usemtl m57ClampT
vt 0.285156 0.000000 0.0
vt 0.285156 1.020833 0.0
vt 0.062500 1.020833 0.0
f 147/967 36/968 3/969
#fvcolorindex 16 16 2 
vt 0.285156 0.000000 0.0
vt 0.062500 1.020833 0.0
vt 0.062500 0.000000 0.0
f 147/970 3/971 120/972
#fvcolorindex 16 2 2 
