# Created by SubDrag and the GoldenEye Setup Editor V4.4
mtllib Gun0005.mtl
#joint 0
#jointposition 0.000000 -20.375574 -74.143860
#joint 1
#jointposition -0.126130 -34.500000 -403.726105
#joint 2
#jointposition 0.000000 -20.375574 -74.143860
#joint 3
#jointposition 28.404760 -54.346611 -32.664295
#joint 4
#jointposition 50.075203 -78.841194 -10.664248
#joint 5
#jointposition 28.643808 -16.714527 20.778549
#joint 6
#jointposition 26.518341 -24.155291 60.154758
#joint 7
#jointposition 24.862719 -25.637974 87.085503
#joint 8
#jointposition 8.820322 -11.296313 21.695198
#joint 9
#jointposition 8.668717 -23.348385 71.418152
#joint 10
#jointposition 7.570724 -26.182207 98.349426
#joint 11
#jointposition -7.449821 -15.536673 21.601517
#joint 12
#jointposition -6.777197 -21.532187 62.353848
#joint 13
#jointposition -6.290760 -23.494061 85.077034
#joint 14
#jointposition -23.590879 -23.057791 21.828247
#joint 15
#jointposition -21.894306 -25.130569 56.929543
#joint 16
#jointposition -20.740978 -24.727604 74.077179
#joint 17
#jointposition 234.474915 -34.500000 -403.725983
#joint 18
#jointposition 234.348785 -20.375599 -74.143890
#joint 19
#jointposition 205.943985 -54.346600 -32.664291
#joint 20
#jointposition 184.273590 -78.841202 -10.664192
#joint 21
#jointposition 205.704987 -16.714600 20.778511
#joint 22
#jointposition 207.830490 -24.155300 60.154812
#joint 23
#jointposition 209.561584 -25.811800 87.094810
#joint 24
#jointposition 225.528473 -11.296299 21.695213
#joint 25
#jointposition 225.680069 -23.348400 71.418114
#joint 26
#jointposition 226.778076 -26.182199 98.349411
#joint 27
#jointposition 241.798599 -15.536699 21.601509
#joint 28
#jointposition 241.125977 -21.532200 62.353809
#joint 29
#jointposition 240.639542 -23.494101 85.077011
#joint 30
#jointposition 257.939697 -23.057798 21.828209
#joint 31
#jointposition 256.243103 -25.130598 56.929508
#joint 32
#jointposition 255.089798 -24.727598 74.077209
#joint 33
#jointposition 0.000000 -20.362244 -186.836166
#joint 34
#jointposition 0.000000 11.817261 -249.388702
#joint 35
#jointposition 0.000000 11.501366 -172.501572
#joint 36
#jointposition 0.000000 4.990349 106.996475
#joint 37
#jointposition 0.000000 4.989898 118.620621
#joint 38
#jointposition 0.000000 2.683998 -197.116959
#joint 39
#jointposition 311.774841 2.684000 -197.116943
#connection 0 1
#connection 1 2
#connection 2 3
#connection 3 4
#connection 2 5
#connection 5 6
#connection 6 7
#connection 2 8
#connection 8 9
#connection 9 10
#connection 2 11
#connection 11 12
#connection 12 13
#connection 2 14
#connection 14 15
#connection 15 16
#connection 2 33
#connection 33 36
#connection 36 37
#connection 33 34
#connection 33 35
#connection 33 38
#connection 0 17
#connection 17 18
#connection 18 19
#connection 19 20
#connection 18 21
#connection 21 22
#connection 22 23
#connection 18 24
#connection 24 25
#connection 25 26
#connection 18 27
#connection 27 28
#connection 28 29
#connection 18 30
#connection 30 31
#connection 31 32
#connection 18 39
g Room02
g Room02_primary
usemtl m0CullBoth
vt 0.511719 4.710938 0.0
vt 0.511719 4.710938 0.0
vt 1.339844 4.506836 0.0
v -7.000000 -157.316010 -248.116959
#joint 38
#vjoint 1
#vcolor 254.000000 254.000000 254.000000 255.000000
v 7.000000 -157.316010 -248.116959
#joint 38
#vjoint 2
v 7.000000 -157.316010 -214.116959
#joint 38
#vjoint 3
f 1/1 2/2 3/3
#fvcolorindex 1 1 1 
vt 0.511719 4.710938 0.0
vt 1.339844 4.506836 0.0
vt 1.339844 4.506836 0.0
v -7.000000 -157.316010 -214.116959
#joint 38
#vjoint 4
f 1/4 3/5 4/6
#fvcolorindex 1 1 1 
vt 1.339844 4.506836 0.0
vt 1.339844 4.506836 0.0
vt 1.376953 0.583008 0.0
v -8.000000 -157.316010 -214.116959
#joint 38
#vjoint 5
v 8.000000 -157.316010 -214.116959
#joint 38
#vjoint 6
v 8.000000 -0.316002 -180.116959
#joint 38
#vjoint 7
f 5/7 6/8 7/9
#fvcolorindex 1 1 1 
vt 1.339844 4.506836 0.0
vt 1.376953 0.583008 0.0
vt 1.376953 0.583008 0.0
v -8.000000 -0.316002 -180.116959
#joint 38
#vjoint 8
f 5/10 7/11 8/12
#fvcolorindex 1 1 1 
vt 0.518555 0.665039 0.0
vt 0.518555 0.665039 0.0
vt 0.511719 4.710938 0.0
v -8.000000 4.683998 -214.116959
#joint 38
#vjoint 9
v 8.000000 4.683998 -214.116959
#joint 38
#vjoint 10
v 8.000000 -157.316010 -248.116959
#joint 38
#vjoint 11
f 9/13 10/14 11/15
#fvcolorindex 1 1 1 
vt 0.518555 0.665039 0.0
vt 0.511719 4.710938 0.0
vt 0.511719 4.710938 0.0
v -8.000000 -157.316010 -248.116959
#joint 38
#vjoint 12
f 9/16 11/17 12/18
#fvcolorindex 1 1 1 
vt 0.511719 4.710938 0.0
vt 1.339844 4.506836 0.0
vt 1.376953 0.583008 0.0
f 12/19 5/20 8/21
#fvcolorindex 1 1 1 
vt 0.511719 4.710938 0.0
vt 1.376953 0.583008 0.0
vt 0.518555 0.665039 0.0
f 12/22 8/23 9/24
#fvcolorindex 1 1 1 
vt 0.518555 0.665039 0.0
vt 1.376953 0.583008 0.0
vt 1.339844 4.506836 0.0
f 10/25 7/26 6/27
#fvcolorindex 1 1 1 
vt 0.518555 0.665039 0.0
vt 1.339844 4.506836 0.0
vt 0.511719 4.710938 0.0
f 10/28 6/29 11/30
#fvcolorindex 1 1 1 
g Room04
g Room04_primary
usemtl m1TransparentCullBothClampSClampT
vt 0.968750 0.000000 0.0
vt 0.000000 0.000000 0.0
vt 0.000000 0.968750 0.0
v -38.000000 -30.010101 139.620621
#joint 37
#vjoint 13
#vcolor 255.000000 255.000000 255.000000 255.000000
v 0.000000 -30.010101 139.620621
#joint 37
#vjoint 14
v 0.000000 7.989898 139.620621
#joint 37
#vjoint 15
f 13/31 14/32 15/33
#fvcolorindex 2 2 2 
vt 0.968750 0.000000 0.0
vt 0.000000 0.968750 0.0
vt 0.968750 0.968750 0.0
v -38.000000 7.989898 139.620621
#joint 37
#vjoint 16
f 13/34 15/35 16/36
#fvcolorindex 2 2 2 
vt 0.968750 0.000000 0.0
vt 0.000000 0.000000 0.0
vt 0.000000 0.968750 0.0
v 38.000000 -30.010101 118.620621
#joint 37
#vjoint 17
v 0.000000 -30.010101 118.620621
#joint 37
#vjoint 18
v 0.000000 7.989898 118.620621
#joint 37
#vjoint 19
f 17/37 18/38 19/39
#fvcolorindex 2 2 2 
vt 0.968750 0.000000 0.0
vt 0.000000 0.968750 0.0
vt 0.968750 0.968750 0.0
v 38.000000 7.989898 118.620621
#joint 37
#vjoint 20
f 17/40 19/41 20/42
#fvcolorindex 2 2 2 
usemtl m2TransparentCullBothClampSClampT
vt 0.968750 0.000000 0.0
vt 0.000000 0.000000 0.0
vt 0.000000 0.968750 0.0
v 38.000000 -30.010101 139.620621
#joint 37
#vjoint 21
v 38.000000 7.989898 139.620621
#joint 37
#vjoint 22
f 14/43 21/44 22/45
#fvcolorindex 2 2 2 
vt 0.968750 0.000000 0.0
vt 0.000000 0.968750 0.0
vt 0.968750 0.968750 0.0
f 14/46 22/47 15/48
#fvcolorindex 2 2 2 
vt 0.968750 0.000000 0.0
vt 0.000000 0.000000 0.0
vt 0.000000 0.968750 0.0
v -38.000000 -30.010101 118.620621
#joint 37
#vjoint 23
v -38.000000 7.989898 118.620621
#joint 37
#vjoint 24
f 18/49 23/50 24/51
#fvcolorindex 2 2 2 
vt 0.968750 0.000000 0.0
vt 0.000000 0.968750 0.0
vt 0.968750 0.968750 0.0
f 18/52 24/53 19/54
#fvcolorindex 2 2 2 
usemtl m3TransparentCullBothClampSClampT
vt 0.968750 0.000000 0.0
vt 0.000000 0.000000 0.0
vt 0.000000 0.968750 0.0
v 38.000000 45.989899 139.620621
#joint 37
#vjoint 25
f 15/55 22/56 25/57
#fvcolorindex 2 2 2 
vt 0.968750 0.000000 0.0
vt 0.000000 0.968750 0.0
vt 0.968750 0.968750 0.0
v 0.000000 45.989899 139.620621
#joint 37
#vjoint 26
f 15/58 25/59 26/60
#fvcolorindex 2 2 2 
vt 0.968750 0.000000 0.0
vt 0.000000 0.000000 0.0
vt 0.000000 0.968750 0.0
v -38.000000 45.989899 118.620621
#joint 37
#vjoint 27
f 19/61 24/62 27/63
#fvcolorindex 2 2 2 
vt 0.968750 0.000000 0.0
vt 0.000000 0.968750 0.0
vt 0.968750 0.968750 0.0
v 0.000000 45.989899 118.620621
#joint 37
#vjoint 28
f 19/64 27/65 28/66
#fvcolorindex 2 2 2 
usemtl m4TransparentCullBothClampSClampT
vt 0.968750 0.000000 0.0
vt 0.000000 0.000000 0.0
vt 0.000000 0.968750 0.0
f 16/67 15/68 26/69
#fvcolorindex 2 2 2 
vt 0.968750 0.000000 0.0
vt 0.000000 0.968750 0.0
vt 0.968750 0.968750 0.0
v -38.000000 45.989899 139.620621
#joint 37
#vjoint 29
f 16/70 26/71 29/72
#fvcolorindex 2 2 2 
vt 0.968750 0.000000 0.0
vt 0.000000 0.000000 0.0
vt 0.000000 0.968750 0.0
f 20/73 19/74 28/75
#fvcolorindex 2 2 2 
vt 0.968750 0.000000 0.0
vt 0.000000 0.968750 0.0
vt 0.968750 0.968750 0.0
v 38.000000 45.989899 118.620621
#joint 37
#vjoint 30
f 20/76 28/77 30/78
#fvcolorindex 2 2 2 
g Room05
g Room05_primary
usemtl m5CullBoth
vt 0.071289 3.193359 0.0
vt 0.671875 3.737305 0.0
vt 1.097168 1.333984 0.0
v -14.000000 18.817261 -214.388702
#joint 34
#vjoint 31
#vcolor 36.000000 36.000000 36.000000 255.000000
v -14.000000 0.817261 -206.388702
#joint 34
#vjoint 32
v -14.000000 -11.182739 -240.388702
#joint 34
#vjoint 33
f 31/79 32/80 33/81
#fvcolorindex 3 3 3 
vt 0.071289 3.193359 0.0
vt 1.097168 1.333984 0.0
vt 0.068359 0.357422 0.0
v -14.000000 17.817261 -255.388702
#joint 34
#vjoint 34
f 31/82 33/83 34/84
#fvcolorindex 3 3 3 
usemtl m6CullBoth
vt -0.191895 0.746094 0.0
vt 0.068359 0.357422 0.0
vt 1.097168 1.333984 0.0
v -14.000000 25.817261 -249.388702
#joint 34
#vjoint 35
#vcolor 255.000000 255.000000 255.000000 255.000000
#vcolor 0.000000 0.000000 0.000000 255.000000
#vcolor 235.000000 235.000000 235.000000 255.000000
f 35/85 34/86 33/87
#fvcolorindex 4 5 6 
usemtl m7CullBoth
vt 0.000000 0.000000 0.0
vt -0.003906 -0.579102 0.0
vt 0.939941 -0.579102 0.0
v -14.000000 20.817261 88.611298
#joint 34
#vjoint 36
#vcolor 222.000000 222.000000 222.000000 255.000000
v -2.000000 24.817261 88.611298
#joint 34
#vjoint 37
v -2.000000 23.817261 47.611298
#joint 34
#vjoint 38
f 36/88 37/89 38/90
#fvcolorindex 7 7 7 
vt 0.000000 0.000000 0.0
vt 0.939941 -0.579102 0.0
vt 2.842285 0.000000 0.0
v -14.000000 21.817261 -33.388702
#joint 34
#vjoint 39
f 36/91 38/92 39/93
#fvcolorindex 7 7 7 
usemtl m8CullBoth
vt 2.842285 -1.319336 0.0
vt 0.939941 -0.740234 0.0
vt -0.003906 -0.740234 0.0
v 14.000000 21.817261 -33.388702
#joint 34
#vjoint 40
#vcolor 152.000000 152.000000 152.000000 255.000000
v 2.000000 23.817261 47.611298
#joint 34
#vjoint 41
v 2.000000 24.817261 88.611298
#joint 34
#vjoint 42
f 40/94 41/95 42/96
#fvcolorindex 8 5 5 
vt 2.842285 -1.319336 0.0
vt -0.003906 -0.740234 0.0
vt 0.000000 -1.319336 0.0
v 14.000000 20.817261 88.611298
#joint 34
#vjoint 43
f 40/97 42/98 43/99
#fvcolorindex 8 5 5 
usemtl m9CullBoth
vt 2.842285 0.000000 0.0
vt 0.939941 -0.579102 0.0
vt 0.939941 -0.740234 0.0
#vcolor 188.000000 188.000000 188.000000 255.000000
f 39/100 38/101 41/102
#fvcolorindex 9 9 9 
vt 2.842285 0.000000 0.0
vt 0.939941 -0.740234 0.0
vt 2.842285 -1.319336 0.0
f 39/103 41/104 40/105
#fvcolorindex 9 9 9 
usemtl m10CullBoth
vt 0.027832 -1.997070 0.0
vt 1.895020 -0.678711 0.0
vt -0.166504 -0.378906 0.0
v -29.000000 -11.182739 -241.388702
#joint 34
#vjoint 44
#vcolor 242.000000 242.000000 242.000000 255.000000
v -32.000000 1.817261 -207.388702
#joint 34
#vjoint 45
v -28.000000 3.817261 -245.388702
#joint 34
#vjoint 46
f 44/106 45/107 46/108
#fvcolorindex 10 10 10 
usemtl m11CullBoth
vt 1.895020 -0.678711 0.0
vt 1.895020 -0.678711 0.0
vt 0.027832 -1.997070 0.0
v -22.000000 0.817261 -206.388702
#joint 34
#vjoint 47
f 47/109 45/110 44/111
#fvcolorindex 5 5 5 
vt 1.895020 -0.678711 0.0
vt 0.027832 -1.997070 0.0
vt 0.027832 -1.997070 0.0
v -19.000000 -11.182739 -240.388702
#joint 34
#vjoint 48
f 47/112 44/113 48/114
#fvcolorindex 5 5 5 
usemtl m12CullBoth
vt -0.166504 -0.378906 0.0
vt -0.166504 -0.378906 0.0
vt 1.895020 -0.678711 0.0
v -18.000000 3.817261 -244.388702
#joint 34
#vjoint 49
#vcolor 181.000000 181.000000 181.000000 255.000000
f 49/115 46/116 45/117
#fvcolorindex 11 11 11 
vt -0.166504 -0.378906 0.0
vt 1.895020 -0.678711 0.0
vt 1.895020 -0.678711 0.0
f 49/118 45/119 47/120
#fvcolorindex 11 11 11 
usemtl m5CullBoth
vt 0.027832 -1.997070 0.0
vt 0.027832 -1.997070 0.0
vt -0.166504 -0.378906 0.0
f 48/121 44/122 46/123
#fvcolorindex 3 3 3 
vt 0.027832 -1.997070 0.0
vt -0.166504 -0.378906 0.0
vt -0.166504 -0.378906 0.0
f 48/124 46/125 49/126
#fvcolorindex 3 3 3 
vt -0.166504 -0.378906 0.0
vt -0.166504 -0.378906 0.0
vt 0.027832 -1.997070 0.0
v 18.000000 3.817261 -244.388702
#joint 34
#vjoint 50
v 28.000000 3.817261 -245.388702
#joint 34
#vjoint 51
v 29.000000 -11.182739 -241.388702
#joint 34
#vjoint 52
f 50/127 51/128 52/129
#fvcolorindex 3 3 3 
vt -0.166504 -0.378906 0.0
vt 0.027832 -1.997070 0.0
vt 0.027832 -1.997070 0.0
v 19.000000 -11.182739 -240.388702
#joint 34
#vjoint 53
f 50/130 52/131 53/132
#fvcolorindex 3 3 3 
usemtl m12CullBoth
vt 1.895020 -0.678711 0.0
vt 1.895020 -0.678711 0.0
vt -0.166504 -0.378906 0.0
v 22.000000 0.817261 -206.388702
#joint 34
#vjoint 54
v 32.000000 1.817261 -207.388702
#joint 34
#vjoint 55
f 54/133 55/134 51/135
#fvcolorindex 11 11 11 
vt 1.895020 -0.678711 0.0
vt -0.166504 -0.378906 0.0
vt -0.166504 -0.378906 0.0
f 54/136 51/137 50/138
#fvcolorindex 11 11 11 
usemtl m11CullBoth
vt 0.027832 -1.997070 0.0
vt 0.027832 -1.997070 0.0
vt 1.895020 -0.678711 0.0
f 53/139 52/140 55/141
#fvcolorindex 5 5 5 
vt 0.027832 -1.997070 0.0
vt 1.895020 -0.678711 0.0
vt 1.895020 -0.678711 0.0
f 53/142 55/143 54/144
#fvcolorindex 5 5 5 
usemtl m10CullBoth
vt -0.166504 -0.378906 0.0
vt 1.895020 -0.678711 0.0
vt 0.027832 -1.997070 0.0
f 51/145 55/146 52/147
#fvcolorindex 10 10 10 
usemtl m5CullBoth
vt 0.068359 0.357422 0.0
vt 1.097168 1.333984 0.0
vt 0.671875 3.737305 0.0
v 14.000000 17.817261 -255.388702
#joint 34
#vjoint 56
v 14.000000 -11.182739 -240.388702
#joint 34
#vjoint 57
v 14.000000 0.817261 -206.388702
#joint 34
#vjoint 58
f 56/148 57/149 58/150
#fvcolorindex 3 3 3 
vt 0.068359 0.357422 0.0
vt 0.671875 3.737305 0.0
vt 0.071289 3.193359 0.0
v 14.000000 18.817261 -214.388702
#joint 34
#vjoint 59
f 56/151 58/152 59/153
#fvcolorindex 3 3 3 
usemtl m13CullBoth
vt 0.587891 -0.464355 0.0
vt 0.587891 -0.464355 0.0
vt 0.525391 -0.443359 0.0
v -9.000000 17.817261 -157.388702
#joint 34
#vjoint 60
#vcolor 129.000000 129.000000 129.000000 255.000000
v 9.000000 17.817261 -157.388702
#joint 34
#vjoint 61
v 0.000000 21.817261 -161.388702
#joint 34
#vjoint 62
f 60/154 61/155 62/156
#fvcolorindex 12 12 12 
usemtl m14CullBoth
vt 1.017578 0.052734 0.0
vt 0.478516 0.109863 0.0
vt 0.478516 0.109863 0.0
v 14.000000 25.817261 -249.388702
#joint 34
#vjoint 63
v 16.000000 25.817261 -249.388702
#joint 34
#vjoint 64
f 57/157 63/158 64/159
#fvcolorindex 3 3 3 
vt 1.017578 0.052734 0.0
vt 1.017578 0.052734 0.0
vt 0.478516 0.109863 0.0
f 53/160 57/161 64/162
#fvcolorindex 3 3 3 
usemtl m15CullBoth
vt 0.478516 0.109863 0.0
vt 0.478516 0.109863 0.0
vt 0.478516 -0.090332 0.0
v 16.000000 25.817261 -217.388702
#joint 34
#vjoint 65
f 64/163 63/164 65/165
#fvcolorindex 9 4 4 
vt 0.478516 0.109863 0.0
vt 0.478516 -0.090332 0.0
vt 0.478516 -0.090332 0.0
v 14.000000 25.817261 -217.388702
#joint 34
#vjoint 66
f 63/166 66/167 65/168
#fvcolorindex 9 9 9 
usemtl m16CullBoth
vt 0.684570 0.300781 0.0
vt 0.758789 0.277832 0.0
vt 0.758789 0.291016 0.0
f 63/169 56/170 34/171
#fvcolorindex 4 5 5 
vt 0.684570 0.300781 0.0
vt 0.758789 0.291016 0.0
vt 0.684570 0.313477 0.0
f 63/172 34/173 35/174
#fvcolorindex 4 5 4 
usemtl m14CullBoth
vt 1.017578 0.052734 0.0
vt 0.588867 0.144043 0.0
vt 0.478516 0.109863 0.0
f 57/175 56/176 63/177
#fvcolorindex 3 5 4 
usemtl m17CullBoth
vt 0.752930 0.447266 0.0
vt 0.757812 0.683594 0.0
vt 0.757812 0.691895 0.0
f 59/178 61/179 60/180
#fvcolorindex 5 5 5 
vt 0.752930 0.447266 0.0
vt 0.757812 0.691895 0.0
vt 0.752930 0.460449 0.0
f 59/181 60/182 31/183
#fvcolorindex 5 5 5 
usemtl m18CullBoth
vt 0.478516 -0.090332 0.0
vt 0.525391 -0.443359 0.0
vt 0.587891 -0.464355 0.0
#vcolor 98.000000 98.000000 98.000000 255.000000
f 66/184 62/185 61/186
#fvcolorindex 13 13 13 
usemtl m19CullBoth
vt 0.587891 -0.464355 0.0
vt 0.525391 -0.443359 0.0
vt 0.478516 -0.090332 0.0
v -14.000000 25.817261 -217.388702
#joint 34
#vjoint 67
f 60/187 62/188 67/189
#fvcolorindex 10 10 10 
usemtl m17CullBoth
vt 0.088867 -0.308105 0.0
vt 0.472656 -0.473633 0.0
vt 0.088867 -0.308105 0.0
v 11.000000 -29.362244 -240.836166
#joint 33
#vjoint 68
v -4.000000 -45.362244 -227.836166
#joint 33
#vjoint 69
v -12.000000 -29.362244 -240.836166
#joint 33
#vjoint 70
f 68/190 69/191 70/192
#fvcolorindex 5 5 5 
vt 0.472656 -0.473633 0.0
vt 0.472656 -0.473633 0.0
vt 0.088867 -0.308105 0.0
v 3.000000 -45.362244 -227.836166
#joint 33
#vjoint 71
f 71/193 69/194 68/195
#fvcolorindex 5 5 5 
vt 0.082031 -0.966309 0.0
vt 0.472656 -0.473633 0.0
vt 0.088867 -0.308105 0.0
v 10.000000 -29.362244 -182.836166
#joint 33
#vjoint 72
f 72/196 71/197 68/198
#fvcolorindex 5 5 5 
vt 0.088867 -0.308105 0.0
vt 0.472656 -0.473633 0.0
vt 0.082031 -0.966309 0.0
v -10.000000 -29.362244 -182.836166
#joint 33
#vjoint 73
f 70/199 69/200 73/201
#fvcolorindex 5 5 5 
vt 0.155273 0.853027 0.0
vt 0.470703 1.000000 0.0
vt 0.499023 -0.007812 0.0
v -12.000000 -93.362244 -237.836166
#joint 33
#vjoint 74
v -10.000000 -85.362244 -193.836166
#joint 33
#vjoint 75
v -13.000000 -143.362244 -199.836166
#joint 33
#vjoint 76
#vcolor 212.000000 212.000000 212.000000 255.000000
f 74/202 75/203 76/204
#fvcolorindex 5 5 14 
vt 0.155273 0.853027 0.0
vt 0.499023 -0.007812 0.0
vt 0.096680 -0.001465 0.0
v -13.000000 -143.362244 -253.836166
#joint 33
#vjoint 77
f 74/205 76/206 77/207
#fvcolorindex 5 14 14 
vt 0.058594 1.088379 0.0
vt 0.542969 1.000000 0.0
vt 0.608398 0.000000 0.0
v 8.000000 -101.362244 -199.836166
#joint 33
#vjoint 78
v 9.000000 -104.362244 -237.836166
#joint 33
#vjoint 79
v 13.000000 -143.362244 -253.836166
#joint 33
#vjoint 80
f 78/208 79/209 80/210
#fvcolorindex 5 5 14 
vt 0.058594 1.088379 0.0
vt 0.608398 0.000000 0.0
vt 0.000000 0.000000 0.0
v 13.000000 -143.362244 -199.836166
#joint 33
#vjoint 81
f 78/211 80/212 81/213
#fvcolorindex 5 14 14 
usemtl m20CullBoth
vt 0.694336 0.000000 0.0
vt 0.724609 1.003906 0.0
vt 1.000000 1.280273 0.0
f 80/214 79/215 74/216
#fvcolorindex 14 5 5 
vt 0.694336 0.000000 0.0
vt 1.000000 1.280273 0.0
vt 1.000000 0.000000 0.0
f 80/217 74/218 77/219
#fvcolorindex 14 5 14 
usemtl m17CullBoth
vt 0.508789 1.035156 0.0
vt 0.572266 0.000000 0.0
vt 0.257812 0.000000 0.0
f 78/220 81/221 76/222
#fvcolorindex 5 14 14 
vt 0.508789 1.035156 0.0
vt 0.257812 0.000000 0.0
vt 0.256836 1.443848 0.0
f 78/223 76/224 75/225
#fvcolorindex 5 14 5 
usemtl m21CullBoth
vt 0.392578 0.008301 0.0
vt 1.185547 0.008301 0.0
vt 1.185547 0.511719 0.0
v -13.000000 -29.362244 101.163834
#joint 33
#vjoint 82
#vcolor 223.000000 223.000000 223.000000 255.000000
v 13.000000 -29.362244 101.163834
#joint 33
#vjoint 83
v 13.000000 4.637756 100.163834
#joint 33
#vjoint 84
#vcolor 108.000000 108.000000 108.000000 255.000000
f 82/226 83/227 84/228
#fvcolorindex 15 15 16 
vt 0.392578 0.008301 0.0
vt 1.185547 0.511719 0.0
vt 0.392578 0.511719 0.0
v -13.000000 4.637756 100.163834
#joint 33
#vjoint 85
f 82/229 84/230 85/231
#fvcolorindex 15 16 16 
usemtl m22CullBoth
vt 2.655273 2.529297 0.0
vt 0.321289 2.511719 0.0
vt 1.686523 -1.787109 0.0
f 81/232 80/233 71/234
#fvcolorindex 4 4 5 
vt 2.655273 2.529297 0.0
vt 1.686523 -1.787109 0.0
vt 3.441406 -2.358398 0.0
f 81/235 71/236 72/237
#fvcolorindex 4 5 5 
usemtl m23CullBoth
vt 1.686523 -1.787109 0.0
vt 0.321289 2.511719 0.0
vt 2.655273 2.529297 0.0
f 69/238 77/239 76/240
#fvcolorindex 5 4 4 
vt 3.441406 -2.358398 0.0
vt 1.686523 -1.787109 0.0
vt 2.655273 2.529297 0.0
f 73/241 69/242 76/243
#fvcolorindex 5 5 4 
usemtl m22CullBoth
vt 0.321289 2.511719 0.0
vt 0.321289 2.511719 0.0
vt 2.655273 2.529297 0.0
f 77/244 80/245 81/246
#fvcolorindex 4 4 4 
vt 0.321289 2.511719 0.0
vt 2.655273 2.529297 0.0
vt 2.655273 2.529297 0.0
f 77/247 81/248 76/249
#fvcolorindex 4 4 4 
usemtl m24CullBoth
vt 0.430664 0.350586 0.0
vt 0.591797 0.351562 0.0
vt 0.523438 0.502930 0.0
v -6.000000 -7.362244 107.163834
#joint 33
#vjoint 86
#vcolor 254.000000 254.000000 254.000000 255.000000
v 6.000000 -7.362244 107.163834
#joint 33
#vjoint 87
v 0.000000 4.637756 104.163834
#joint 33
#vjoint 88
f 86/250 87/251 88/252
#fvcolorindex 17 17 17 
vt 0.591797 0.351562 0.0
vt 0.689453 0.501953 0.0
vt 0.523438 0.502930 0.0
v 13.000000 4.637756 107.163834
#joint 33
#vjoint 89
f 87/253 89/254 88/255
#fvcolorindex 17 17 17 
vt 0.689453 0.501953 0.0
vt 0.625000 0.654297 0.0
vt 0.523438 0.502930 0.0
v 7.000000 16.637756 107.163834
#joint 33
#vjoint 90
f 89/256 90/257 88/258
#fvcolorindex 17 17 17 
vt 0.625000 0.654297 0.0
vt 0.445312 0.654297 0.0
vt 0.523438 0.502930 0.0
v -7.000000 16.637756 107.163834
#joint 33
#vjoint 91
f 90/259 91/260 88/261
#fvcolorindex 17 17 17 
vt 0.445312 0.654297 0.0
vt 0.354492 0.500977 0.0
vt 0.523438 0.502930 0.0
v -13.000000 4.637756 107.163834
#joint 33
#vjoint 92
f 91/262 92/263 88/264
#fvcolorindex 17 17 17 
vt 0.354492 0.500977 0.0
vt 0.430664 0.350586 0.0
vt 0.523438 0.502930 0.0
f 92/265 86/266 88/267
#fvcolorindex 17 17 17 
usemtl m25CullBoth
vt 0.083984 -6.917969 0.0
vt 3.888672 5.675781 0.0
vt 0.649414 -7.468750 0.0
f 66/268 61/269 59/270
#fvcolorindex 3 3 3 
usemtl m26CullBoth
vt 1.422852 -10.250000 0.0
vt 4.380859 3.906250 0.0
vt 0.857422 -9.703125 0.0
f 31/271 60/272 67/273
#fvcolorindex 10 10 10 
usemtl m27CullBoth
vt 3.833984 4.714844 0.0
vt 2.282227 -2.257812 0.0
vt 2.761719 -3.972656 0.0
v -7.000000 16.637756 -159.836166
#joint 33
#vjoint 93
v -7.000000 16.637756 -187.836166
#joint 33
#vjoint 94
v -13.000000 4.637756 -187.836166
#joint 33
#vjoint 95
f 93/274 94/275 95/276
#fvcolorindex 4 4 5 
vt 3.833984 4.714844 0.0
vt 2.761719 -3.972656 0.0
vt 4.322266 2.968750 0.0
v -13.000000 4.637756 -159.836166
#joint 33
#vjoint 96
f 93/277 95/278 96/279
#fvcolorindex 4 5 5 
usemtl m28CullBoth
vt 4.322266 2.968750 0.0
vt 2.761719 -3.972656 0.0
vt 2.282227 -2.257812 0.0
v 13.000000 4.637756 -159.836166
#joint 33
#vjoint 97
v 13.000000 4.637756 -187.836166
#joint 33
#vjoint 98
v 7.000000 16.637756 -187.836166
#joint 33
#vjoint 99
f 97/280 98/281 99/282
#fvcolorindex 5 5 4 
vt 4.322266 2.968750 0.0
vt 2.282227 -2.257812 0.0
vt 3.833984 4.714844 0.0
v 7.000000 16.637756 -159.836166
#joint 33
#vjoint 100
f 97/283 99/284 100/285
#fvcolorindex 5 4 4 
usemtl m29CullBoth
vt 1.135742 -1.036621 0.0
vt 1.208008 -2.890625 0.0
vt 0.712891 -2.831055 0.0
v -25.000000 0.817261 -144.388702
#joint 34
#vjoint 101
v -19.000000 -6.182739 95.611298
#joint 34
#vjoint 102
v -19.000000 20.817261 88.611298
#joint 34
#vjoint 103
f 101/286 102/287 103/288
#fvcolorindex 15 10 10 
usemtl m30CullBoth
vt 1.208008 -2.890625 0.0
vt 1.208008 -2.890625 0.0
vt 0.712891 -2.831055 0.0
#vcolor 73.000000 73.000000 73.000000 255.000000
v -14.000000 -6.182739 95.611298
#joint 34
#vjoint 104
f 102/289 104/290 36/291
#fvcolorindex 18 18 18 
usemtl m31CullBoth
vt 0.712891 -2.831055 0.0
vt 0.712891 -2.831055 0.0
vt 0.759766 -1.155762 0.0
v -14.000000 20.817261 -128.388702
#joint 34
#vjoint 105
f 103/292 36/293 105/294
#fvcolorindex 9 9 9 
usemtl m32CullBoth
vt 0.759766 -1.155762 0.0
vt 0.759766 -1.155762 0.0
vt 1.135742 -1.036621 0.0
v -19.000000 20.817261 -128.388702
#joint 34
#vjoint 106
#vcolor 137.000000 137.000000 137.000000 255.000000
v -14.000000 0.817261 -144.388702
#joint 34
#vjoint 107
f 106/295 105/296 107/297
#fvcolorindex 19 19 15 
vt 0.759766 -1.155762 0.0
vt 1.135742 -1.036621 0.0
vt 1.135742 -1.036621 0.0
f 106/298 107/299 101/300
#fvcolorindex 19 15 15 
usemtl m31CullBoth
vt 0.712891 -2.831055 0.0
vt 0.759766 -1.155762 0.0
vt 0.759766 -1.155762 0.0
f 103/301 105/302 106/303
#fvcolorindex 9 9 9 
usemtl m30CullBoth
vt 1.208008 -2.890625 0.0
vt 0.712891 -2.831055 0.0
vt 0.712891 -2.831055 0.0
f 102/304 36/305 103/306
#fvcolorindex 18 18 18 
usemtl m29CullBoth
vt 1.135742 -1.036621 0.0
vt 0.712891 -2.831055 0.0
vt 0.759766 -1.155762 0.0
f 101/307 103/308 106/309
#fvcolorindex 15 4 4 
vt 1.135742 -1.036621 0.0
vt 0.759766 -1.155762 0.0
vt 0.738281 -1.890625 0.0
f 107/310 105/311 39/312
#fvcolorindex 15 3 3 
usemtl m33CullBoth
vt -0.463867 0.164551 0.0
vt -0.458008 -0.043457 0.0
vt -0.121094 -0.041504 0.0
f 31/313 34/314 56/315
#fvcolorindex 5 5 5 
vt -0.463867 0.164551 0.0
vt -0.121094 -0.041504 0.0
vt -0.126953 0.166504 0.0
f 31/316 56/317 59/318
#fvcolorindex 5 5 5 
usemtl m30CullBoth
vt 0.788086 -2.839844 0.0
vt 0.788086 -2.839844 0.0
vt 0.712891 -2.831055 0.0
v -14.000000 16.817261 89.611298
#joint 34
#vjoint 108
v 14.000000 16.817261 89.611298
#joint 34
#vjoint 109
f 108/319 109/320 43/321
#fvcolorindex 18 18 18 
vt 0.788086 -2.839844 0.0
vt 0.712891 -2.831055 0.0
vt 0.712891 -2.831055 0.0
f 108/322 43/323 36/324
#fvcolorindex 18 18 18 
vt 0.788086 -2.839844 0.0
vt 0.788086 -2.839844 0.0
vt 0.979492 -2.863281 0.0
v -8.000000 16.817261 89.611298
#joint 34
#vjoint 110
v -14.000000 6.817261 92.611298
#joint 34
#vjoint 111
f 110/325 108/326 111/327
#fvcolorindex 18 18 18 
usemtl m34CullBoth
vt 0.712891 -2.831055 0.0
vt 0.654297 -2.832031 0.0
vt 0.654297 -2.832031 0.0
f 43/328 42/329 37/330
#fvcolorindex 3 3 3 
vt 0.712891 -2.831055 0.0
vt 0.654297 -2.832031 0.0
vt 0.712891 -2.831055 0.0
f 43/331 37/332 36/333
#fvcolorindex 3 3 3 
usemtl m35CullBoth
vt 0.669922 -2.519531 0.0
vt 0.393555 -2.818848 0.0
vt 0.393555 -2.818848 0.0
v -2.000000 38.817261 86.611298
#joint 34
#vjoint 112
v 2.000000 38.817261 86.611298
#joint 34
#vjoint 113
f 38/334 112/335 113/336
#fvcolorindex 11 11 11 
vt 0.669922 -2.519531 0.0
vt 0.393555 -2.818848 0.0
vt 0.669922 -2.519531 0.0
f 38/337 113/338 41/339
#fvcolorindex 11 11 11 
usemtl m36CullBoth
vt 0.654297 -2.832031 0.0
vt 0.393555 -2.818848 0.0
vt 0.669922 -2.519531 0.0
f 37/340 112/341 38/342
#fvcolorindex 6 6 6 
usemtl m37CullBoth
vt 0.654297 -2.832031 0.0
vt 0.393555 -2.818848 0.0
vt 0.393555 -2.818848 0.0
#vcolor 46.000000 46.000000 46.000000 255.000000
f 42/343 113/344 112/345
#fvcolorindex 20 20 20 
vt 0.654297 -2.832031 0.0
vt 0.393555 -2.818848 0.0
vt 0.654297 -2.832031 0.0
f 42/346 112/347 37/348
#fvcolorindex 20 20 20 
usemtl m34CullBoth
vt 0.669922 -2.519531 0.0
vt 0.393555 -2.818848 0.0
vt 0.654297 -2.832031 0.0
f 41/349 113/350 42/351
#fvcolorindex 3 3 3 
vt 1.368164 0.227539 0.0
vt 1.291992 0.229492 0.0
vt 1.255859 0.229004 0.0
v 5.000000 25.817261 -228.388702
#joint 34
#vjoint 114
v 2.000000 29.817261 -228.388702
#joint 34
#vjoint 115
v 0.000000 25.817261 -228.388702
#joint 34
#vjoint 116
f 114/352 115/353 116/354
#fvcolorindex 3 3 3 
usemtl m38CullBoth
vt 1.255859 0.229004 0.0
vt 1.291992 0.229492 0.0
vt 1.301758 0.448242 0.0
v 2.000000 29.817261 -249.388702
#joint 34
#vjoint 117
f 116/355 115/356 117/357
#fvcolorindex 4 4 4 
vt 1.255859 0.229004 0.0
vt 1.301758 0.448242 0.0
vt 1.266602 0.448242 0.0
v 0.000000 25.817261 -249.388702
#joint 34
#vjoint 118
f 116/358 117/359 118/360
#fvcolorindex 4 4 4 
usemtl m37CullBoth
vt 1.266602 0.448242 0.0
vt 1.301758 0.448242 0.0
vt 1.378906 0.447266 0.0
v 5.000000 25.817261 -249.388702
#joint 34
#vjoint 119
f 118/361 117/362 119/363
#fvcolorindex 20 20 20 
usemtl m38CullBoth
vt 1.559570 0.444824 0.0
vt 1.378906 0.447266 0.0
vt 1.363281 0.113770 0.0
v 5.000000 25.817261 -217.388702
#joint 34
#vjoint 120
f 63/364 119/365 120/366
#fvcolorindex 4 5 4 
vt 1.559570 0.444824 0.0
vt 1.363281 0.113770 0.0
vt 1.544922 0.111816 0.0
f 63/367 120/368 66/369
#fvcolorindex 4 4 4 
vt 0.958008 0.118652 0.0
vt 1.138672 0.116211 0.0
vt 1.154297 0.449707 0.0
v -5.000000 25.817261 -217.388702
#joint 34
#vjoint 121
v -5.000000 25.817261 -249.388702
#joint 34
#vjoint 122
f 67/370 121/371 122/372
#fvcolorindex 4 4 5 
vt 0.958008 0.118652 0.0
vt 1.154297 0.449707 0.0
vt 0.972656 0.451660 0.0
f 67/373 122/374 35/375
#fvcolorindex 4 5 4 
vt 1.363281 0.113770 0.0
vt 1.368164 0.227539 0.0
vt 1.143555 0.229980 0.0
v -5.000000 25.817261 -228.388702
#joint 34
#vjoint 123
f 120/376 114/377 123/378
#fvcolorindex 4 5 5 
vt 1.363281 0.113770 0.0
vt 1.143555 0.229980 0.0
vt 1.138672 0.116211 0.0
f 120/379 123/380 121/381
#fvcolorindex 4 5 4 
usemtl m37CullBoth
vt 1.154297 0.449707 0.0
vt 1.230469 0.449219 0.0
vt 1.266602 0.448242 0.0
v -2.000000 29.817261 -249.388702
#joint 34
#vjoint 124
f 122/382 124/383 118/384
#fvcolorindex 20 20 20 
usemtl m34CullBoth
vt 1.266602 0.448242 0.0
vt 1.230469 0.449219 0.0
vt 1.220703 0.229980 0.0
v -2.000000 29.817261 -228.388702
#joint 34
#vjoint 125
f 118/385 124/386 125/387
#fvcolorindex 3 3 3 
vt 1.266602 0.448242 0.0
vt 1.220703 0.229980 0.0
vt 1.255859 0.229004 0.0
f 118/388 125/389 116/390
#fvcolorindex 3 3 3 
vt 1.255859 0.229004 0.0
vt 1.220703 0.229980 0.0
vt 1.143555 0.229980 0.0
f 116/391 125/392 123/393
#fvcolorindex 3 3 3 
usemtl m31CullBoth
vt 0.958008 0.118652 0.0
vt 1.224609 -0.472656 0.0
vt 1.544922 0.111816 0.0
f 67/394 62/395 66/396
#fvcolorindex 9 9 9 
usemtl m33CullBoth
vt 1.801758 0.013184 0.0
vt 0.463867 0.013184 0.0
vt 0.463867 -0.026855 0.0
v -14.000000 16.817261 -43.388702
#joint 34
#vjoint 126
v -7.000000 16.817261 -43.388702
#joint 34
#vjoint 127
f 107/397 126/398 127/399
#fvcolorindex 5 4 5 
usemtl m38CullBoth
vt 0.317383 0.013184 0.0
vt 0.463867 0.013184 0.0
vt 1.801758 0.013184 0.0
f 39/400 126/401 107/402
#fvcolorindex 4 4 4 
usemtl m33CullBoth
vt 0.463867 -0.149902 0.0
vt 0.463867 0.013184 0.0
vt 0.317383 0.013184 0.0
v 14.000000 16.817261 -43.388702
#joint 34
#vjoint 128
f 128/403 126/404 39/405
#fvcolorindex 5 5 4 
vt 0.463867 -0.149902 0.0
vt 0.317383 0.013184 0.0
vt 0.317383 -0.149902 0.0
f 128/406 39/407 40/408
#fvcolorindex 5 4 4 
usemtl m38CullBoth
vt 1.378906 0.447266 0.0
vt 1.301758 0.448242 0.0
vt 1.291992 0.229492 0.0
f 119/409 117/410 115/411
#fvcolorindex 4 4 4 
vt 1.378906 0.447266 0.0
vt 1.291992 0.229492 0.0
vt 1.368164 0.227539 0.0
f 119/412 115/413 114/414
#fvcolorindex 4 4 4 
vt 1.143555 0.229980 0.0
vt 1.220703 0.229980 0.0
vt 1.230469 0.449219 0.0
f 123/415 125/416 124/417
#fvcolorindex 4 4 4 
vt 1.143555 0.229980 0.0
vt 1.230469 0.449219 0.0
vt 1.154297 0.449707 0.0
f 123/418 124/419 122/420
#fvcolorindex 4 4 4 
vt 1.801758 0.013184 0.0
vt 0.463867 0.013184 0.0
vt 0.317383 0.013184 0.0
v 14.000000 0.817261 -144.388702
#joint 34
#vjoint 129
f 129/421 128/422 40/423
#fvcolorindex 4 4 4 
usemtl m33CullBoth
vt 0.463867 -0.026855 0.0
vt 0.463867 0.013184 0.0
vt 1.801758 0.013184 0.0
v 7.000000 16.817261 -43.388702
#joint 34
#vjoint 130
f 130/424 128/425 129/426
#fvcolorindex 5 4 5 
usemtl m30CullBoth
vt 0.979492 -2.863281 0.0
vt 0.788086 -2.839844 0.0
vt 0.788086 -2.839844 0.0
v 14.000000 6.817261 92.611298
#joint 34
#vjoint 131
v 8.000000 16.817261 89.611298
#joint 34
#vjoint 132
f 131/427 109/428 132/429
#fvcolorindex 18 18 18 
usemtl m34CullBoth
vt 0.738281 -1.890625 0.0
vt 0.759766 -1.155762 0.0
vt 1.135742 -1.036621 0.0
v 14.000000 20.817261 -128.388702
#joint 34
#vjoint 133
f 40/430 133/431 129/432
#fvcolorindex 3 3 15 
usemtl m38CullBoth
vt 0.759766 -1.155762 0.0
vt 0.712891 -2.831055 0.0
vt 1.135742 -1.036621 0.0
v 19.000000 20.817261 -128.388702
#joint 34
#vjoint 134
v 19.000000 20.817261 88.611298
#joint 34
#vjoint 135
v 25.000000 0.817261 -144.388702
#joint 34
#vjoint 136
f 134/433 135/434 136/435
#fvcolorindex 4 4 15 
usemtl m30CullBoth
vt 0.712891 -2.831055 0.0
vt 0.712891 -2.831055 0.0
vt 1.208008 -2.890625 0.0
v 19.000000 -6.182739 95.611298
#joint 34
#vjoint 137
f 135/436 43/437 137/438
#fvcolorindex 18 18 18 
usemtl m31CullBoth
vt 0.759766 -1.155762 0.0
vt 0.759766 -1.155762 0.0
vt 0.712891 -2.831055 0.0
f 134/439 133/440 135/441
#fvcolorindex 9 9 9 
usemtl m29CullBoth
vt 1.135742 -1.036621 0.0
vt 1.135742 -1.036621 0.0
vt 0.759766 -1.155762 0.0
f 136/442 129/443 134/444
#fvcolorindex 15 15 19 
vt 1.135742 -1.036621 0.0
vt 0.759766 -1.155762 0.0
vt 0.759766 -1.155762 0.0
f 129/445 133/446 134/447
#fvcolorindex 15 19 19 
usemtl m31CullBoth
vt 0.759766 -1.155762 0.0
vt 0.712891 -2.831055 0.0
vt 0.712891 -2.831055 0.0
f 133/448 43/449 135/450
#fvcolorindex 9 9 9 
usemtl m30CullBoth
vt 0.712891 -2.831055 0.0
vt 1.208008 -2.890625 0.0
vt 1.208008 -2.890625 0.0
v 14.000000 -6.182739 95.611298
#joint 34
#vjoint 138
f 43/451 138/452 137/453
#fvcolorindex 18 18 18 
usemtl m39CullBoth
vt 0.712891 -2.831055 0.0
vt 1.208008 -2.890625 0.0
vt 1.135742 -1.036621 0.0
f 135/454 137/455 136/456
#fvcolorindex 10 10 15 
usemtl m33CullBoth
vt 0.550781 -1.125977 0.0
vt 0.503906 0.031250 0.0
vt 0.770508 -1.125977 0.0
v -13.000000 4.637756 -255.836166
#joint 33
#vjoint 139
f 85/457 139/458 82/459
#fvcolorindex 5 5 15 
vt 0.550781 -1.125977 0.0
vt 0.503906 0.031250 0.0
vt 0.770508 -1.125977 0.0
f 85/460 139/461 82/462
#fvcolorindex 5 5 15 
vt 0.503906 0.031250 0.0
vt 0.660156 0.032227 0.0
vt 0.770508 -1.125977 0.0
v -13.000000 -19.362244 -255.836166
#joint 33
#vjoint 140
f 139/463 140/464 82/465
#fvcolorindex 5 4 15 
usemtl m29CullBoth
vt 0.770508 -1.125977 0.0
vt 0.660156 0.032227 0.0
vt 0.755859 -0.412598 0.0
v -13.000000 -29.362244 -118.836166
#joint 33
#vjoint 141
#vcolor 142.000000 142.000000 142.000000 255.000000
f 82/466 140/467 141/468
#fvcolorindex 15 4 21 
usemtl m38CullBoth
vt 0.660156 0.032227 0.0
vt 0.745117 -0.014160 0.0
vt 0.755859 -0.412598 0.0
f 140/469 70/470 141/471
#fvcolorindex 4 21 21 
usemtl m33CullBoth
vt -0.447266 -0.048340 0.0
vt -0.130859 -0.046875 0.0
vt -0.132812 0.026855 0.0
v 13.000000 -19.362244 -255.836166
#joint 33
#vjoint 142
f 140/472 142/473 68/474
#fvcolorindex 5 5 4 
vt -0.447266 -0.048340 0.0
vt -0.132812 0.026855 0.0
vt -0.449219 0.025391 0.0
f 140/475 68/476 70/477
#fvcolorindex 5 4 4 
usemtl m38CullBoth
vt -0.449219 0.025391 0.0
vt -0.132812 0.026855 0.0
vt -0.150391 0.648926 0.0
v 13.000000 -29.362244 -118.836166
#joint 33
#vjoint 143
f 70/478 68/479 143/480
#fvcolorindex 4 4 5 
vt -0.449219 0.025391 0.0
vt -0.150391 0.648926 0.0
vt -0.466797 0.647461 0.0
f 70/481 143/482 141/483
#fvcolorindex 4 5 5 
usemtl m40CullBoth
vt 0.745117 -0.014160 0.0
vt 0.503906 0.031250 0.0
vt 0.660156 0.032227 0.0
f 70/484 139/485 140/486
#fvcolorindex 21 5 4 
usemtl m29CullBoth
vt 0.770508 -1.125977 0.0
vt 0.503906 0.031250 0.0
vt 0.550781 -1.125977 0.0
v 13.000000 4.637756 -255.836166
#joint 33
#vjoint 144
f 83/487 144/488 84/489
#fvcolorindex 15 5 5 
vt 0.770508 -1.125977 0.0
vt 0.660156 0.032227 0.0
vt 0.503906 0.031250 0.0
f 83/490 142/491 144/492
#fvcolorindex 15 4 5 
usemtl m40CullBoth
vt 0.755859 -0.412598 0.0
vt 0.660156 0.032227 0.0
vt 0.770508 -1.125977 0.0
f 143/493 142/494 83/495
#fvcolorindex 21 4 15 
vt 0.755859 -0.412598 0.0
vt 0.745117 -0.014160 0.0
vt 0.660156 0.032227 0.0
f 143/496 68/497 142/498
#fvcolorindex 21 21 4 
usemtl m41CullBoth
vt 1.079102 -1.104492 0.0
vt -0.122070 -1.104492 0.0
vt -0.122070 -1.104492 0.0
v -57.000000 -32.182739 -51.388702
#joint 34
#vjoint 145
v -57.000000 -32.182739 -89.388702
#joint 34
#vjoint 146
v -57.000000 -39.182739 -89.388702
#joint 34
#vjoint 147
f 145/499 146/500 147/501
#fvcolorindex 15 15 5 
vt 1.079102 -1.104492 0.0
vt -0.122070 -1.104492 0.0
vt 1.079102 -1.104492 0.0
v -57.000000 -39.182739 -51.388702
#joint 34
#vjoint 148
f 145/502 147/503 148/504
#fvcolorindex 15 5 5 
vt -0.122070 0.057617 0.0
vt -0.122070 -1.104492 0.0
vt 1.079102 -1.104492 0.0
v -20.000000 -32.182739 -89.388702
#joint 34
#vjoint 149
f 149/505 146/506 145/507
#fvcolorindex 15 15 15 
vt -0.122070 0.057617 0.0
vt 1.079102 -1.104492 0.0
vt 1.079102 0.057617 0.0
v -20.000000 -32.182739 -51.388702
#joint 34
#vjoint 150
f 149/508 145/509 150/510
#fvcolorindex 15 15 15 
usemtl m42CullBoth
vt -0.122070 0.057617 0.0
vt -0.122070 -1.104492 0.0
vt -0.122070 -1.104492 0.0
v -20.000000 -39.182739 -89.388702
#joint 34
#vjoint 151
f 151/511 147/512 146/513
#fvcolorindex 5 5 15 
vt -0.122070 0.057617 0.0
vt -0.122070 -1.104492 0.0
vt -0.122070 0.057617 0.0
f 151/514 146/515 149/516
#fvcolorindex 5 15 15 
vt 1.079102 0.057617 0.0
vt 1.079102 -1.104492 0.0
vt -0.122070 -1.104492 0.0
v -20.000000 -39.182739 -51.388702
#joint 34
#vjoint 152
f 152/517 148/518 147/519
#fvcolorindex 5 5 5 
vt 1.079102 0.057617 0.0
vt -0.122070 -1.104492 0.0
vt -0.122070 0.057617 0.0
f 152/520 147/521 151/522
#fvcolorindex 5 5 5 
usemtl m41CullBoth
vt 1.079102 0.057617 0.0
vt 1.079102 -1.104492 0.0
vt 1.079102 -1.104492 0.0
f 150/523 145/524 148/525
#fvcolorindex 15 15 5 
vt 1.079102 0.057617 0.0
vt 1.079102 -1.104492 0.0
vt 1.079102 0.057617 0.0
f 150/526 148/527 152/528
#fvcolorindex 15 5 5 
usemtl m43CullBoth
vt 0.592773 0.193359 0.0
vt 0.589844 0.271484 0.0
vt 0.582031 0.271484 0.0
v -6.000000 4.637756 -159.836166
#joint 33
#vjoint 153
f 94/529 93/530 153/531
#fvcolorindex 4 4 5 
vt 0.592773 0.193359 0.0
vt 0.582031 0.271484 0.0
vt 0.584961 0.193359 0.0
v -6.000000 4.637756 -188.836166
#joint 33
#vjoint 154
f 94/532 153/533 154/534
#fvcolorindex 4 5 5 
usemtl m42CullBoth
vt 0.510742 0.192383 0.0
vt 0.507812 0.270508 0.0
vt 0.499023 0.270508 0.0
v 6.000000 4.637756 -188.836166
#joint 33
#vjoint 155
v 6.000000 4.637756 -159.836166
#joint 33
#vjoint 156
f 155/535 156/536 100/537
#fvcolorindex 5 5 4 
vt 0.510742 0.192383 0.0
vt 0.499023 0.270508 0.0
vt 0.502930 0.192383 0.0
f 155/538 100/539 99/540
#fvcolorindex 5 4 4 
vt 0.582031 0.271484 0.0
vt 0.507812 0.270508 0.0
vt 0.510742 0.192383 0.0
f 153/541 156/542 155/543
#fvcolorindex 5 5 5 
vt 0.582031 0.271484 0.0
vt 0.510742 0.192383 0.0
vt 0.584961 0.193359 0.0
f 153/544 155/545 154/546
#fvcolorindex 5 5 5 
usemtl m43CullBoth
vt 0.589844 0.271484 0.0
vt 0.499023 0.270508 0.0
vt 0.507812 0.270508 0.0
f 93/547 100/548 156/549
#fvcolorindex 4 4 5 
vt 0.589844 0.271484 0.0
vt 0.507812 0.270508 0.0
vt 0.582031 0.271484 0.0
f 93/550 156/551 153/552
#fvcolorindex 4 5 5 
usemtl m42CullBoth
vt 0.584961 0.193359 0.0
vt 0.510742 0.192383 0.0
vt 0.502930 0.192383 0.0
f 154/553 155/554 99/555
#fvcolorindex 5 5 4 
vt 0.584961 0.193359 0.0
vt 0.502930 0.192383 0.0
vt 0.592773 0.193359 0.0
f 154/556 99/557 94/558
#fvcolorindex 5 4 4 
vt 0.537109 -0.205078 0.0
vt 0.750000 -0.212891 0.0
vt 0.750000 -0.212891 0.0
v -5.000000 -29.362244 -128.836166
#joint 33
#vjoint 157
v -3.000000 -61.362244 -126.836166
#joint 33
#vjoint 158
v 3.000000 -61.362244 -126.836166
#joint 33
#vjoint 159
f 157/559 158/560 159/561
#fvcolorindex 5 4 4 
usemtl m43CullBoth
vt 0.750000 -0.212891 0.0
vt 0.537109 -0.205078 0.0
vt 0.537109 -0.205078 0.0
v 5.000000 -29.362244 -128.836166
#joint 33
#vjoint 160
f 159/562 160/563 157/564
#fvcolorindex 4 5 5 
vt 0.750000 -0.022461 0.0
vt 0.750000 -0.212891 0.0
vt 0.750000 -0.022461 0.0
v 3.000000 -62.362244 -187.836166
#joint 33
#vjoint 161
v -3.000000 -62.362244 -187.836166
#joint 33
#vjoint 162
f 161/565 158/566 162/567
#fvcolorindex 4 4 4 
vt 0.750000 -0.022461 0.0
vt 0.750000 -0.212891 0.0
vt 0.750000 -0.212891 0.0
f 161/568 159/569 158/570
#fvcolorindex 4 4 4 
usemtl m42CullBoth
vt 0.536133 -0.140625 0.0
vt 0.750000 -0.212891 0.0
vt 0.537109 -0.205078 0.0
v 0.000000 -29.362244 -149.836166
#joint 33
#vjoint 163
f 163/571 158/572 157/573
#fvcolorindex 5 4 5 
vt 0.536133 -0.140625 0.0
vt 0.706055 -0.144531 0.0
vt 0.750000 -0.212891 0.0
v 0.000000 -55.362244 -148.836166
#joint 33
#vjoint 164
f 163/574 164/575 158/576
#fvcolorindex 5 4 4 
usemtl m43CullBoth
vt 0.750000 -0.022461 0.0
vt 0.706055 -0.144531 0.0
vt 0.703125 -0.026367 0.0
v 0.000000 -55.362244 -185.836166
#joint 33
#vjoint 165
f 162/577 164/578 165/579
#fvcolorindex 4 4 4 
vt 0.750000 -0.212891 0.0
vt 0.706055 -0.144531 0.0
vt 0.750000 -0.022461 0.0
f 158/580 164/581 162/582
#fvcolorindex 4 4 4 
usemtl m42CullBoth
vt 0.537109 -0.205078 0.0
vt 0.750000 -0.212891 0.0
vt 0.536133 -0.140625 0.0
f 160/583 159/584 163/585
#fvcolorindex 5 4 5 
usemtl m43CullBoth
vt 0.750000 -0.212891 0.0
vt 0.706055 -0.144531 0.0
vt 0.536133 -0.140625 0.0
f 159/586 164/587 163/588
#fvcolorindex 4 4 5 
vt 0.703125 -0.026367 0.0
vt 0.706055 -0.144531 0.0
vt 0.750000 -0.022461 0.0
f 165/589 164/590 161/591
#fvcolorindex 4 4 4 
vt 0.750000 -0.022461 0.0
vt 0.706055 -0.144531 0.0
vt 0.750000 -0.212891 0.0
f 161/592 164/593 159/594
#fvcolorindex 4 4 4 
usemtl m42CullBoth
vt 0.624023 1.840820 0.0
vt 0.439453 -0.103516 0.0
vt 1.382812 -0.109375 0.0
f 71/595 80/596 77/597
#fvcolorindex 5 4 4 
usemtl m43CullBoth
vt 1.382812 -0.109375 0.0
vt 1.332031 1.835938 0.0
vt 0.624023 1.840820 0.0
f 77/598 69/599 71/600
#fvcolorindex 4 5 5 
usemtl m42CullBoth
vt 0.731445 0.001953 0.0
vt 0.742188 1.126953 0.0
vt 0.245117 1.127930 0.0
f 73/601 76/602 81/603
#fvcolorindex 5 4 4 
usemtl m43CullBoth
vt 0.245117 1.127930 0.0
vt 0.234375 0.002930 0.0
vt 0.731445 0.001953 0.0
f 81/604 72/605 73/606
#fvcolorindex 4 5 5 
vt 0.783203 -0.354492 0.0
vt 0.216797 -0.354492 0.0
vt 0.000000 -1.337891 0.0
v -3.000000 5.637756 -262.836182
#joint 33
#vjoint 166
v 3.000000 5.637756 -262.836182
#joint 33
#vjoint 167
v 5.000000 -19.362244 -265.836182
#joint 33
#vjoint 168
f 166/607 167/608 168/609
#fvcolorindex 4 4 4 
vt 0.783203 -0.354492 0.0
vt 0.000000 -1.337891 0.0
vt 1.000000 -1.337891 0.0
v -6.000000 -19.362244 -265.836182
#joint 33
#vjoint 169
f 166/610 168/611 169/612
#fvcolorindex 4 4 4 
vt 0.216797 -0.354492 0.0
vt 0.216797 -0.344727 0.0
vt 0.000000 -1.337891 0.0
v 3.000000 4.637756 -255.836166
#joint 33
#vjoint 170
f 167/613 170/614 168/615
#fvcolorindex 4 5 4 
vt 1.000000 -1.337891 0.0
vt 0.783203 -0.344727 0.0
vt 0.783203 -0.354492 0.0
v -3.000000 4.637756 -255.836166
#joint 33
#vjoint 171
f 169/616 171/617 166/618
#fvcolorindex 4 5 4 
usemtl m44CullBoth
vt 1.681641 1.612305 0.0
vt 1.154297 2.052734 0.0
vt 1.405273 2.032227 0.0
v -19.000000 -28.182739 -97.388702
#joint 34
#vjoint 172
v -24.000000 -13.182739 -142.388702
#joint 34
#vjoint 173
f 172/619 101/620 173/621
#fvcolorindex 15 15 7 
usemtl m45CullBoth
vt 1.154297 2.052734 0.0
vt 1.154297 2.052734 0.0
vt 1.163086 2.629883 0.0
f 101/622 107/623 32/624
#fvcolorindex 4 4 9 
vt 1.154297 2.052734 0.0
vt 1.163086 2.629883 0.0
vt 1.163086 2.629883 0.0
f 101/625 32/626 47/627
#fvcolorindex 4 9 9 
usemtl m46CullBoth
vt 0.465820 -0.071777 0.0
vt 0.465820 -0.071777 0.0
vt 0.480469 0.186523 0.0
v -16.000000 25.817261 -217.388702
#joint 34
#vjoint 174
f 174/628 67/629 35/630
#fvcolorindex 9 9 9 
usemtl m45CullBoth
vt 0.465820 -0.071777 0.0
vt 0.480469 0.186523 0.0
vt 0.480469 0.186523 0.0
v -16.000000 25.817261 -249.388702
#joint 34
#vjoint 175
f 174/631 35/632 175/633
#fvcolorindex 4 4 9 
usemtl m47CullBoth
vt 1.408203 2.949707 0.0
vt 1.408203 2.949707 0.0
vt 1.405273 2.032227 0.0
v -14.000000 -13.182739 -142.388702
#joint 34
#vjoint 176
f 48/634 33/635 176/636
#fvcolorindex 5 5 5 
vt 1.408203 2.949707 0.0
vt 1.405273 2.032227 0.0
vt 1.405273 2.032227 0.0
f 48/637 176/638 173/639
#fvcolorindex 5 5 4 
vt 1.405273 2.032227 0.0
vt 1.681641 1.612305 0.0
vt 1.681641 1.612305 0.0
v -14.000000 -28.182739 -97.388702
#joint 34
#vjoint 177
f 173/640 177/641 172/642
#fvcolorindex 5 5 15 
usemtl m44CullBoth
vt 1.997070 -0.028809 0.0
vt 1.997070 -0.028809 0.0
vt 1.582031 -0.191895 0.0
v -19.000000 -48.182739 78.611298
#joint 34
#vjoint 178
v -14.000000 -48.182739 78.611298
#joint 34
#vjoint 179
v -14.000000 -26.182739 95.611298
#joint 34
#vjoint 180
f 178/643 179/644 180/645
#fvcolorindex 15 5 5 
vt 1.997070 -0.028809 0.0
vt 1.582031 -0.191895 0.0
vt 1.582031 -0.191895 0.0
v -19.000000 -26.182739 95.611298
#joint 34
#vjoint 181
f 178/646 180/647 181/648
#fvcolorindex 15 5 15 
vt 2.051758 1.602539 0.0
vt 1.997070 -0.028809 0.0
vt 1.997070 -0.028809 0.0
v -19.000000 -48.182739 -96.388702
#joint 34
#vjoint 182
f 182/649 179/650 178/651
#fvcolorindex 15 5 15 
usemtl m47CullBoth
vt 1.405273 2.032227 0.0
vt 1.405273 2.032227 0.0
vt 1.681641 1.612305 0.0
f 173/652 176/653 177/654
#fvcolorindex 5 5 5 
usemtl m48CullBoth
vt 0.480469 0.186523 0.0
vt 1.070312 0.104492 0.0
vt 1.070312 0.104492 0.0
f 175/655 33/656 48/657
#fvcolorindex 3 3 3 
vt 0.480469 0.186523 0.0
vt 0.480469 0.186523 0.0
vt 1.070312 0.104492 0.0
f 175/658 35/659 33/660
#fvcolorindex 3 3 3 
usemtl m49CullBoth
vt 1.106445 0.382324 0.0
vt 0.408203 0.554199 0.0
vt 0.408203 0.554199 0.0
f 47/661 67/662 174/663
#fvcolorindex 13 13 13 
vt 1.106445 0.382324 0.0
vt 1.106445 0.382324 0.0
vt 0.408203 0.554199 0.0
f 47/664 32/665 67/666
#fvcolorindex 13 13 13 
usemtl m44CullBoth
vt 1.582031 -0.191895 0.0
vt 1.208008 -0.186035 0.0
vt 1.208008 -0.186035 0.0
f 181/667 104/668 102/669
#fvcolorindex 15 5 3 
vt 1.582031 -0.191895 0.0
vt 1.582031 -0.191895 0.0
vt 1.208008 -0.186035 0.0
f 181/670 180/671 104/672
#fvcolorindex 15 5 5 
vt 1.681641 1.612305 0.0
vt 1.997070 -0.028809 0.0
vt 1.154297 2.052734 0.0
f 172/673 178/674 101/675
#fvcolorindex 15 15 15 
usemtl m45CullBoth
vt 1.106445 0.382324 0.0
vt 0.408203 0.554199 0.0
vt 0.419922 1.020996 0.0
f 47/676 174/677 175/678
#fvcolorindex 4 4 4 
usemtl m44CullBoth
vt 1.997070 -0.028809 0.0
vt 1.582031 -0.191895 0.0
vt 1.208008 -0.186035 0.0
#vcolor 229.000000 229.000000 229.000000 255.000000
f 178/679 181/680 102/681
#fvcolorindex 15 15 22 
vt 1.681641 1.612305 0.0
vt 2.051758 1.602539 0.0
vt 1.997070 -0.028809 0.0
f 172/682 182/683 178/684
#fvcolorindex 15 15 15 
usemtl m45CullBoth
vt 1.154297 2.052734 0.0
vt 1.163086 2.629883 0.0
vt 1.408203 2.949707 0.0
#vcolor 215.000000 215.000000 215.000000 255.000000
#vcolor 159.000000 159.000000 159.000000 255.000000
f 101/685 47/686 48/687
#fvcolorindex 4 23 24 
vt 1.154297 2.052734 0.0
vt 1.408203 2.949707 0.0
vt 1.405273 2.032227 0.0
f 101/688 48/689 173/690
#fvcolorindex 4 24 4 
usemtl m44CullBoth
vt 1.997070 -0.028809 0.0
vt 1.208008 -0.186035 0.0
vt 1.154297 2.052734 0.0
f 178/691 102/692 101/693
#fvcolorindex 15 22 15 
usemtl m50CullBoth
vt 0.419922 1.020996 0.0
vt 1.053711 0.937988 0.0
vt 1.106445 0.382324 0.0
f 175/694 49/695 47/696
#fvcolorindex 10 10 10 
vt 1.106445 0.382324 0.0
vt 1.053711 0.937988 0.0
vt 0.419922 1.020996 0.0
f 54/697 50/698 64/699
#fvcolorindex 10 10 10 
usemtl m44CullBoth
vt 1.154297 2.052734 0.0
vt 1.208008 -0.186035 0.0
vt 1.997070 -0.028809 0.0
v 19.000000 -48.182739 78.611298
#joint 34
#vjoint 183
f 136/700 137/701 183/702
#fvcolorindex 15 22 15 
usemtl m45CullBoth
vt 1.405273 2.032227 0.0
vt 1.408203 2.949707 0.0
vt 1.154297 2.052734 0.0
v 24.000000 -13.182739 -142.388702
#joint 34
#vjoint 184
f 184/703 53/704 136/705
#fvcolorindex 4 24 4 
usemtl m51CullBoth
vt 1.408203 2.949707 0.0
vt 1.163086 2.629883 0.0
vt 1.154297 2.052734 0.0
f 53/706 54/707 136/708
#fvcolorindex 24 23 4 
usemtl m44CullBoth
vt 1.997070 -0.028809 0.0
vt 2.051758 1.602539 0.0
vt 1.681641 1.612305 0.0
v 19.000000 -48.182739 -96.388702
#joint 34
#vjoint 185
v 19.000000 -28.182739 -97.388702
#joint 34
#vjoint 186
f 183/709 185/710 186/711
#fvcolorindex 15 15 15 
usemtl m52CullBoth
vt 1.208008 -0.186035 0.0
vt 1.582031 -0.191895 0.0
vt 1.997070 -0.028809 0.0
v 19.000000 -26.182739 95.611298
#joint 34
#vjoint 187
f 137/712 187/713 183/714
#fvcolorindex 22 15 15 
usemtl m45CullBoth
vt 0.419922 1.020996 0.0
vt 0.408203 0.554199 0.0
vt 1.106445 0.382324 0.0
f 64/715 65/716 54/717
#fvcolorindex 4 4 4 
usemtl m44CullBoth
vt 1.154297 2.052734 0.0
vt 1.997070 -0.028809 0.0
vt 1.681641 1.612305 0.0
f 136/718 183/719 186/720
#fvcolorindex 15 15 15 
usemtl m47CullBoth
vt 1.208008 -0.186035 0.0
vt 1.582031 -0.191895 0.0
vt 1.582031 -0.191895 0.0
v 14.000000 -26.182739 95.611298
#joint 34
#vjoint 188
f 138/721 188/722 187/723
#fvcolorindex 5 5 15 
usemtl m48CullBoth
vt 1.208008 -0.186035 0.0
vt 1.208008 -0.186035 0.0
vt 1.582031 -0.191895 0.0
f 137/724 138/725 187/726
#fvcolorindex 3 5 15 
usemtl m49CullBoth
vt 0.408203 0.554199 0.0
vt 1.106445 0.382324 0.0
vt 1.106445 0.382324 0.0
f 66/727 58/728 54/729
#fvcolorindex 13 13 13 
vt 0.408203 0.554199 0.0
vt 0.408203 0.554199 0.0
vt 1.106445 0.382324 0.0
f 65/730 66/731 54/732
#fvcolorindex 13 13 13 
usemtl m48CullBoth
vt 1.070312 0.104492 0.0
vt 0.480469 0.186523 0.0
vt 0.480469 0.186523 0.0
f 57/733 63/734 64/735
#fvcolorindex 3 3 3 
vt 1.070312 0.104492 0.0
vt 1.070312 0.104492 0.0
vt 0.480469 0.186523 0.0
f 53/736 57/737 64/738
#fvcolorindex 3 3 3 
usemtl m47CullBoth
vt 1.681641 1.612305 0.0
vt 1.405273 2.032227 0.0
vt 1.405273 2.032227 0.0
v 14.000000 -28.182739 -97.388702
#joint 34
#vjoint 189
v 14.000000 -13.182739 -142.388702
#joint 34
#vjoint 190
f 189/739 190/740 184/741
#fvcolorindex 5 5 5 
usemtl m44CullBoth
vt 1.997070 -0.028809 0.0
vt 1.997070 -0.028809 0.0
vt 2.051758 1.602539 0.0
v 14.000000 -48.182739 78.611298
#joint 34
#vjoint 191
f 183/742 191/743 185/744
#fvcolorindex 15 5 15 
vt 1.582031 -0.191895 0.0
vt 1.582031 -0.191895 0.0
vt 1.997070 -0.028809 0.0
f 187/745 188/746 183/747
#fvcolorindex 15 5 15 
usemtl m47CullBoth
vt 1.582031 -0.191895 0.0
vt 1.997070 -0.028809 0.0
vt 1.997070 -0.028809 0.0
f 188/748 191/749 183/750
#fvcolorindex 5 5 15 
usemtl m44CullBoth
vt 1.681641 1.612305 0.0
vt 1.681641 1.612305 0.0
vt 1.405273 2.032227 0.0
f 186/751 189/752 184/753
#fvcolorindex 15 5 5 
usemtl m45CullBoth
vt 1.405273 2.032227 0.0
vt 1.405273 2.032227 0.0
vt 1.408203 2.949707 0.0
f 184/754 190/755 53/756
#fvcolorindex 4 5 5 
usemtl m47CullBoth
vt 1.405273 2.032227 0.0
vt 1.408203 2.949707 0.0
vt 1.408203 2.949707 0.0
f 190/757 57/758 53/759
#fvcolorindex 5 5 5 
usemtl m46CullBoth
vt 0.480469 0.186523 0.0
vt 0.480469 0.186523 0.0
vt 0.465820 -0.071777 0.0
f 64/760 63/761 65/762
#fvcolorindex 9 4 4 
vt 0.480469 0.186523 0.0
vt 0.465820 -0.071777 0.0
vt 0.465820 -0.071777 0.0
f 63/763 66/764 65/765
#fvcolorindex 9 9 9 
vt 1.163086 2.629883 0.0
vt 1.163086 2.629883 0.0
vt 1.154297 2.052734 0.0
f 54/766 58/767 136/768
#fvcolorindex 9 9 4 
vt 1.163086 2.629883 0.0
vt 1.154297 2.052734 0.0
vt 1.154297 2.052734 0.0
f 58/769 129/770 136/771
#fvcolorindex 9 4 4 
usemtl m53CullBoth
vt 1.405273 2.032227 0.0
vt 1.154297 2.052734 0.0
vt 1.681641 1.612305 0.0
f 184/772 136/773 186/774
#fvcolorindex 7 15 15 
usemtl m45CullBoth
vt -0.136719 0.737793 0.0
vt 0.243164 0.244141 0.0
vt 0.243164 0.244141 0.0
f 168/775 170/776 144/777
#fvcolorindex 4 5 5 
vt 0.276367 0.722168 0.0
vt -0.136719 0.737793 0.0
vt 0.243164 0.244141 0.0
f 142/778 168/779 144/780
#fvcolorindex 4 4 5 
vt -0.136719 0.737793 0.0
vt 0.276367 0.722168 0.0
vt 0.275391 0.724121 0.0
f 168/781 142/782 140/783
#fvcolorindex 4 5 5 
vt -0.136719 0.737793 0.0
vt 0.275391 0.724121 0.0
vt -0.136719 0.737793 0.0
f 168/784 140/785 169/786
#fvcolorindex 4 5 4 
usemtl m47CullBoth
vt 0.243164 0.244141 0.0
vt 0.243164 0.244141 0.0
vt -0.136719 0.737793 0.0
f 139/787 171/788 169/789
#fvcolorindex 5 5 4 
vt 0.243164 0.244141 0.0
vt -0.136719 0.737793 0.0
vt 0.276367 0.722168 0.0
f 139/790 169/791 140/792
#fvcolorindex 5 4 4 
usemtl m54CullBoth
vt 0.815430 -1.441406 0.0
vt 0.602539 -1.550781 0.0
vt 0.627930 0.055664 0.0
v -13.000000 -58.362244 86.163834
#joint 33
#vjoint 192
f 192/793 82/794 141/795
#fvcolorindex 21 15 21 
vt 0.825195 -0.124023 0.0
vt 0.815430 -1.441406 0.0
vt 0.627930 0.055664 0.0
v -13.000000 -58.362244 -93.836166
#joint 33
#vjoint 193
f 193/796 192/797 141/798
#fvcolorindex 21 21 21 
usemtl m55CullBoth
vt 0.627930 0.055664 0.0
vt 0.627930 0.055664 0.0
vt 0.825195 -0.124023 0.0
v 13.000000 -58.362244 -93.836166
#joint 33
#vjoint 194
f 141/799 143/800 194/801
#fvcolorindex 5 5 15 
vt 0.627930 0.055664 0.0
vt 0.825195 -0.124023 0.0
vt 0.825195 -0.124023 0.0
f 141/802 194/803 193/804
#fvcolorindex 5 15 15 
usemtl m56CullBoth
vt 0.825195 -0.124023 0.0
vt 0.825195 -0.124023 0.0
vt 0.815430 -1.441406 0.0
v 13.000000 -58.362244 86.163834
#joint 33
#vjoint 195
f 193/805 194/806 195/807
#fvcolorindex 15 15 5 
vt 0.825195 -0.124023 0.0
vt 0.815430 -1.441406 0.0
vt 0.815430 -1.441406 0.0
f 193/808 195/809 192/810
#fvcolorindex 15 5 5 
usemtl m55CullBoth
vt 0.815430 -1.441406 0.0
vt 0.815430 -1.441406 0.0
vt 0.602539 -1.550781 0.0
f 192/811 195/812 83/813
#fvcolorindex 5 5 15 
vt 0.815430 -1.441406 0.0
vt 0.602539 -1.550781 0.0
vt 0.602539 -1.550781 0.0
f 192/814 83/815 82/816
#fvcolorindex 5 15 15 
usemtl m54CullBoth
vt 0.627930 0.055664 0.0
vt 0.815430 -1.441406 0.0
vt 0.825195 -0.124023 0.0
f 143/817 195/818 194/819
#fvcolorindex 21 21 21 
vt 0.627930 0.055664 0.0
vt 0.602539 -1.550781 0.0
vt 0.815430 -1.441406 0.0
f 143/820 83/821 195/822
#fvcolorindex 21 15 21 
usemtl m57CullBoth
vt 1.805664 11.173828 0.0
vt 1.805664 9.715820 0.0
vt 1.670898 9.714844 0.0
f 139/823 95/824 94/825
#fvcolorindex 5 5 5 
vt 1.805664 11.173828 0.0
vt 1.670898 9.714844 0.0
vt 1.669922 11.171875 0.0
v -7.000000 16.637756 -255.836166
#joint 33
#vjoint 196
#vcolor 79.000000 79.000000 79.000000 255.000000
f 139/826 94/827 196/828
#fvcolorindex 5 5 25 
usemtl m58CullBoth
vt 1.682617 3.313477 0.0
vt 1.673828 9.093750 0.0
vt 1.806641 9.094727 0.0
#vcolor 182.000000 182.000000 182.000000 255.000000
f 91/829 93/830 96/831
#fvcolorindex 26 26 5 
vt 1.682617 3.313477 0.0
vt 1.806641 9.094727 0.0
vt 1.816406 3.314453 0.0
f 91/832 96/833 92/834
#fvcolorindex 26 5 5 
usemtl m57CullBoth
vt 1.816406 3.314453 0.0
vt 1.806641 9.094727 0.0
vt 1.673828 9.093750 0.0
f 89/835 97/836 100/837
#fvcolorindex 5 5 26 
vt 1.816406 3.314453 0.0
vt 1.673828 9.093750 0.0
vt 1.682617 3.313477 0.0
f 89/838 100/839 90/840
#fvcolorindex 5 26 26 
usemtl m59CullBoth
vt 1.669922 11.171875 0.0
vt 1.670898 9.714844 0.0
vt 1.805664 9.715820 0.0
v 7.000000 16.637756 -255.836166
#joint 33
#vjoint 197
f 197/841 99/842 98/843
#fvcolorindex 25 5 5 
vt 1.669922 11.171875 0.0
vt 1.805664 9.715820 0.0
vt 1.805664 11.173828 0.0
f 197/844 98/845 144/846
#fvcolorindex 25 5 5 
usemtl m58CullBoth
vt 1.673828 9.093750 0.0
vt 1.367188 9.092773 0.0
vt 1.374023 3.312500 0.0
f 100/847 93/848 91/849
#fvcolorindex 26 26 26 
vt 1.673828 9.093750 0.0
vt 1.374023 3.312500 0.0
vt 1.682617 3.313477 0.0
f 100/850 91/851 90/852
#fvcolorindex 26 26 26 
usemtl m59CullBoth
vt 1.669922 11.171875 0.0
vt 1.364258 11.171875 0.0
vt 1.368164 9.713867 0.0
f 197/853 196/854 94/855
#fvcolorindex 25 25 5 
vt 1.669922 11.171875 0.0
vt 1.368164 9.713867 0.0
vt 1.670898 9.714844 0.0
f 197/856 94/857 99/858
#fvcolorindex 25 5 5 
usemtl m57CullBoth
vt 1.805664 11.173828 0.0
vt 1.229492 11.172852 0.0
vt 1.364258 11.171875 0.0
f 144/859 139/860 196/861
#fvcolorindex 5 5 25 
vt 1.805664 11.173828 0.0
vt 1.364258 11.171875 0.0
vt 1.669922 11.171875 0.0
f 144/862 196/863 197/864
#fvcolorindex 5 25 25 
usemtl m60CullBoth
vt 1.393555 3.308594 0.0
vt 1.394531 3.457031 0.0
vt 1.669922 3.458008 0.0
v -6.000000 -7.362244 100.163834
#joint 33
#vjoint 198
v 6.000000 -7.362244 100.163834
#joint 33
#vjoint 199
f 86/865 198/866 199/867
#fvcolorindex 4 4 4 
vt 1.393555 3.308594 0.0
vt 1.669922 3.458008 0.0
vt 1.667969 3.308594 0.0
f 86/868 199/869 87/870
#fvcolorindex 4 4 4 
vt 1.667969 3.308594 0.0
vt 1.669922 3.458008 0.0
vt 1.816406 3.463867 0.0
f 87/871 199/872 84/873
#fvcolorindex 4 4 5 
vt 1.667969 3.308594 0.0
vt 1.816406 3.463867 0.0
vt 1.814453 3.314453 0.0
f 87/874 84/875 89/876
#fvcolorindex 4 5 5 
usemtl m57CullBoth
vt 1.240234 3.313477 0.0
vt 1.241211 3.462891 0.0
vt 1.394531 3.457031 0.0
f 92/877 85/878 198/879
#fvcolorindex 5 5 4 
vt 1.240234 3.313477 0.0
vt 1.394531 3.457031 0.0
vt 1.393555 3.308594 0.0
f 92/880 198/881 86/882
#fvcolorindex 5 4 4 
usemtl m60CullBoth
vt 1.450195 11.333008 0.0
vt 1.450195 11.172852 0.0
vt 1.583984 11.173828 0.0
f 166/883 171/884 170/885
#fvcolorindex 4 5 5 
vt 1.450195 11.333008 0.0
vt 1.583984 11.173828 0.0
vt 1.583984 11.333984 0.0
f 166/886 170/887 167/888
#fvcolorindex 4 5 4 
g Room07
g Room07_primary
usemtl m0CullBoth
vt 0.511719 4.710938 0.0
vt 0.511719 4.710938 0.0
vt 1.339844 4.506836 0.0
v 304.774841 -157.315994 -248.116943
#joint 39
#vjoint 200
#vcolor 254.000000 254.000000 254.000000 255.000000
v 318.774841 -157.315994 -248.116943
#joint 39
#vjoint 201
v 318.774841 -157.315994 -214.116943
#joint 39
#vjoint 202
f 200/889 201/890 202/891
#fvcolorindex 27 27 27 
vt 0.511719 4.710938 0.0
vt 1.339844 4.506836 0.0
vt 1.339844 4.506836 0.0
v 304.774841 -157.315994 -214.116943
#joint 39
#vjoint 203
f 200/892 202/893 203/894
#fvcolorindex 27 27 27 
vt 1.339844 4.506836 0.0
vt 1.339844 4.506836 0.0
vt 1.376953 0.583008 0.0
v 302.774841 -157.315994 -214.116943
#joint 39
#vjoint 204
v 319.774841 -157.315994 -214.116943
#joint 39
#vjoint 205
v 319.774841 -0.316000 -180.116943
#joint 39
#vjoint 206
f 204/895 205/896 206/897
#fvcolorindex 27 27 27 
vt 1.339844 4.506836 0.0
vt 1.376953 0.583008 0.0
vt 1.376953 0.583008 0.0
v 302.774841 -0.316000 -180.116943
#joint 39
#vjoint 207
f 204/898 206/899 207/900
#fvcolorindex 27 27 27 
vt 0.518555 0.665039 0.0
vt 0.518555 0.665039 0.0
vt 0.511719 4.710938 0.0
v 302.774841 4.684000 -214.116943
#joint 39
#vjoint 208
v 319.774841 4.684000 -214.116943
#joint 39
#vjoint 209
v 319.774841 -157.315994 -248.116943
#joint 39
#vjoint 210
f 208/901 209/902 210/903
#fvcolorindex 27 27 27 
vt 0.518555 0.665039 0.0
vt 0.511719 4.710938 0.0
vt 0.511719 4.710938 0.0
v 302.774841 -157.315994 -248.116943
#joint 39
#vjoint 211
f 208/904 210/905 211/906
#fvcolorindex 27 27 27 
vt 0.511719 4.710938 0.0
vt 1.339844 4.506836 0.0
vt 1.376953 0.583008 0.0
f 211/907 204/908 207/909
#fvcolorindex 27 27 27 
vt 0.511719 4.710938 0.0
vt 1.376953 0.583008 0.0
vt 0.518555 0.665039 0.0
f 211/910 207/911 208/912
#fvcolorindex 27 27 27 
vt 0.518555 0.665039 0.0
vt 1.376953 0.583008 0.0
vt 1.339844 4.506836 0.0
f 209/913 206/914 205/915
#fvcolorindex 27 27 27 
vt 0.518555 0.665039 0.0
vt 1.339844 4.506836 0.0
vt 0.511719 4.710938 0.0
f 209/916 205/917 210/918
#fvcolorindex 27 27 27 
