# Created by SubDrag and the GoldenEye Setup Editor V4.4
mtllib Gun001C.mtl
#joint 0
#jointposition 0.000000 -20.375574 -74.143860
#joint 1
#jointposition -0.126130 -34.500000 -403.726105
#joint 2
#jointposition 0.000000 -20.375574 -74.143860
#joint 3
#jointposition 28.404760 -54.346611 -32.664295
#joint 4
#jointposition 50.075203 -78.841194 -10.664248
#joint 5
#jointposition 28.643808 -16.714527 20.778549
#joint 6
#jointposition 26.518341 -24.155291 60.154758
#joint 7
#jointposition 24.862719 -25.637974 87.085503
#joint 8
#jointposition 8.820322 -11.296313 21.695198
#joint 9
#jointposition 8.668717 -23.348385 71.418152
#joint 10
#jointposition 7.570724 -26.182207 98.349426
#joint 11
#jointposition -7.449821 -15.536673 21.601517
#joint 12
#jointposition -6.777197 -21.532187 62.353848
#joint 13
#jointposition -6.290760 -23.494061 85.077034
#joint 14
#jointposition -23.590879 -23.057791 21.828247
#joint 15
#jointposition -21.894306 -25.130569 56.929543
#joint 16
#jointposition -20.740978 -24.727604 74.077179
#joint 17
#jointposition 234.474915 -34.500000 -403.725983
#joint 18
#jointposition 234.348785 -20.375599 -74.143890
#joint 19
#jointposition 205.943985 -54.346600 -32.664291
#joint 20
#jointposition 184.273590 -78.841202 -10.664192
#joint 21
#jointposition 205.704987 -16.714600 20.778511
#joint 22
#jointposition 207.830490 -24.155300 60.154812
#joint 23
#jointposition 209.561584 -25.811800 87.094810
#joint 24
#jointposition 225.528473 -11.296299 21.695213
#joint 25
#jointposition 225.680069 -23.348400 71.418114
#joint 26
#jointposition 226.778076 -26.182199 98.349411
#joint 27
#jointposition 241.798599 -15.536699 21.601509
#joint 28
#jointposition 241.125977 -21.532200 62.353809
#joint 29
#jointposition 240.639542 -23.494101 85.077011
#joint 30
#jointposition 257.939697 -23.057798 21.828209
#joint 31
#jointposition 256.243103 -25.130598 56.929508
#joint 32
#jointposition 255.089798 -24.727598 74.077209
#joint 33
#jointposition 0.000000 -24.997311 -0.002487
#joint 34
#jointposition 0.000000 0.000000 0.000006
#joint 35
#jointposition 0.000000 59.957329 40.979904
#joint 36
#jointposition 0.000000 59.957329 72.517166
#joint 37
#jointposition 0.000000 59.957333 103.256027
#joint 38
#jointposition 0.000000 0.000000 100.000015
#connection 0 1
#connection 1 2
#connection 2 3
#connection 3 4
#connection 2 5
#connection 5 6
#connection 6 7
#connection 2 8
#connection 8 9
#connection 9 10
#connection 2 11
#connection 11 12
#connection 12 13
#connection 2 14
#connection 14 15
#connection 15 16
#connection 2 33
#connection 33 34
#connection 34 35
#connection 34 36
#connection 33 38
#connection 0 17
#connection 17 18
#connection 18 19
#connection 19 20
#connection 18 21
#connection 21 22
#connection 22 23
#connection 18 24
#connection 24 25
#connection 25 26
#connection 18 27
#connection 27 28
#connection 28 29
#connection 18 30
#connection 30 31
#connection 31 32
#connection 18 37
g Room02
g Room02_primary
usemtl m0EnvMappingTexScaleS0.031250TexScaleT0.031250
vt 0.000000 0.000000 0.0
vt 0.000000 0.000000 0.0
vt 0.000000 0.000000 0.0
v 11.000000 59.957329 34.979904
#joint 35
#vjoint 1
#vcolor 101.000000 207.000000 198.000000 255.000000
v 11.000000 96.957329 34.979904
#joint 35
#vjoint 2
#vcolor 93.000000 67.000000 203.000000 255.000000
v 13.000000 96.957329 40.979904
#joint 35
#vjoint 3
#vcolor 107.000000 67.000000 0.000000 255.000000
vn 0.795276 1.629921 1.559055
vn 0.732283 0.527559 1.598425
vn 0.842520 0.527559 0.000000
f 1/1/1 2/2/2 3/3/3
#fvcolorindex 1 2 3 
vt 0.000000 0.000000 0.0
vt 0.000000 0.000000 0.0
vt 0.000000 0.000000 0.0
v 13.000000 59.957329 40.979904
#joint 35
#vjoint 4
#vcolor 117.000000 207.000000 0.000000 255.000000
vn 0.795276 1.629921 1.559055
vn 0.842520 0.527559 0.000000
vn 0.921260 1.629921 0.000000
f 1/4/4 3/5/5 4/6/6
#fvcolorindex 1 3 4 
usemtl m1EnvMappingTexScaleS0.031250TexScaleT0.031250
vt 0.000000 0.000000 0.0
vt 0.000000 0.000000 0.0
vt 0.000000 0.000000 0.0
v 6.000000 59.957329 29.979904
#joint 35
#vjoint 5
#vcolor 58.000000 207.000000 155.000000 255.000000
v 6.000000 96.957329 29.979904
#joint 35
#vjoint 6
#vcolor 53.000000 67.000000 163.000000 255.000000
vn 0.456693 1.629921 1.220472
vn 0.417323 0.527559 1.283465
vn 0.732283 0.527559 1.598425
f 5/7/7 6/8/8 2/9/9
#fvcolorindex 5 6 2 
vt 0.000000 0.000000 0.0
vt 0.000000 0.000000 0.0
vt 0.000000 0.000000 0.0
vn 0.456693 1.629921 1.220472
vn 0.732283 0.527559 1.598425
vn 0.795276 1.629921 1.559055
f 5/10/10 2/11/11 1/12/12
#fvcolorindex 5 2 1 
usemtl m2EnvMappingTexScaleS0.031250TexScaleT0.031250
vt 0.000000 0.000000 0.0
vt 0.000000 0.000000 0.0
vt 0.000000 0.000000 0.0
v 0.000000 59.957329 27.979904
#joint 35
#vjoint 7
#vcolor 0.000000 207.000000 139.000000 255.000000
v 0.000000 96.957329 27.979904
#joint 35
#vjoint 8
#vcolor 0.000000 67.000000 149.000000 255.000000
vn 0.000000 1.629921 1.094488
vn 0.000000 0.527559 1.173228
vn 0.417323 0.527559 1.283465
f 7/13/13 8/14/14 6/15/15
#fvcolorindex 7 8 6 
vt 0.000000 0.000000 0.0
vt 0.000000 0.000000 0.0
vt 0.000000 0.000000 0.0
vn 0.000000 1.629921 1.094488
vn 0.417323 0.527559 1.283465
vn 0.456693 1.629921 1.220472
f 7/16/16 6/17/17 5/18/18
#fvcolorindex 7 6 5 
usemtl m3EnvMappingTexScaleS0.031250TexScaleT0.031250
vt 0.000000 0.000000 0.0
vt 0.000000 0.000000 0.0
vt 0.000000 0.000000 0.0
v -6.000000 59.957329 29.979904
#joint 35
#vjoint 9
#vcolor 198.000000 207.000000 155.000000 255.000000
v -6.000000 96.957329 29.979904
#joint 35
#vjoint 10
#vcolor 203.000000 67.000000 163.000000 255.000000
vn 1.559055 1.629921 1.220472
vn 1.598425 0.527559 1.283465
vn 0.000000 0.527559 1.173228
f 9/19/19 10/20/20 8/21/21
#fvcolorindex 9 10 8 
vt 0.000000 0.000000 0.0
vt 0.000000 0.000000 0.0
vt 0.000000 0.000000 0.0
vn 1.559055 1.629921 1.220472
vn 0.000000 0.527559 1.173228
vn 0.000000 1.629921 1.094488
f 9/22/22 8/23/23 7/24/24
#fvcolorindex 9 8 7 
usemtl m4EnvMappingTexScaleS0.031250TexScaleT0.031250
vt 0.000000 0.000000 0.0
vt 0.000000 0.000000 0.0
vt 0.000000 0.000000 0.0
v -11.000000 59.957329 34.979904
#joint 35
#vjoint 11
#vcolor 155.000000 207.000000 198.000000 255.000000
v -11.000000 96.957329 34.979904
#joint 35
#vjoint 12
#vcolor 163.000000 67.000000 203.000000 255.000000
vn 1.220472 1.629921 1.559055
vn 1.283465 0.527559 1.598425
vn 1.598425 0.527559 1.283465
f 11/25/25 12/26/26 10/27/27
#fvcolorindex 11 12 10 
vt 0.000000 0.000000 0.0
vt 0.000000 0.000000 0.0
vt 0.000000 0.000000 0.0
vn 1.220472 1.629921 1.559055
vn 1.598425 0.527559 1.283465
vn 1.559055 1.629921 1.220472
f 11/28/28 10/29/29 9/30/30
#fvcolorindex 11 10 9 
usemtl m5EnvMappingTexScaleS0.031250TexScaleT0.031250
vt 0.000000 0.000000 0.0
vt 0.000000 0.000000 0.0
vt 0.000000 0.000000 0.0
v -12.000000 59.957329 40.979904
#joint 35
#vjoint 13
#vcolor 139.000000 207.000000 0.000000 255.000000
v -12.000000 96.957329 40.979904
#joint 35
#vjoint 14
#vcolor 149.000000 67.000000 0.000000 255.000000
vn 1.094488 1.629921 0.000000
vn 1.173228 0.527559 0.000000
vn 1.283465 0.527559 1.598425
f 13/31/31 14/32/32 12/33/33
#fvcolorindex 13 14 12 
vt 0.000000 0.000000 0.0
vt 0.000000 0.000000 0.0
vt 0.000000 0.000000 0.0
vn 1.094488 1.629921 0.000000
vn 1.283465 0.527559 1.598425
vn 1.220472 1.629921 1.559055
f 13/34/34 12/35/35 11/36/36
#fvcolorindex 13 12 11 
usemtl m6EnvMappingTexScaleS0.031250TexScaleT0.031250
vt 0.000000 0.000000 0.0
vt 0.000000 0.000000 0.0
vt 0.000000 0.000000 0.0
v -11.000000 59.957329 46.979904
#joint 35
#vjoint 15
#vcolor 155.000000 207.000000 58.000000 255.000000
v -11.000000 96.957329 46.979904
#joint 35
#vjoint 16
#vcolor 163.000000 67.000000 53.000000 255.000000
vn 1.220472 1.629921 0.456693
vn 1.283465 0.527559 0.417323
vn 1.173228 0.527559 0.000000
f 15/37/37 16/38/38 14/39/39
#fvcolorindex 15 16 14 
vt 0.000000 0.000000 0.0
vt 0.000000 0.000000 0.0
vt 0.000000 0.000000 0.0
vn 1.220472 1.629921 0.456693
vn 1.173228 0.527559 0.000000
vn 1.094488 1.629921 0.000000
f 15/40/40 14/41/41 13/42/42
#fvcolorindex 15 14 13 
usemtl m7EnvMappingTexScaleS0.031250TexScaleT0.031250
vt 0.000000 0.000000 0.0
vt 0.000000 0.000000 0.0
vt 0.000000 0.000000 0.0
v -6.000000 59.957329 51.979904
#joint 35
#vjoint 17
#vcolor 198.000000 207.000000 101.000000 255.000000
v -6.000000 96.957329 51.979904
#joint 35
#vjoint 18
#vcolor 203.000000 67.000000 93.000000 255.000000
vn 1.559055 1.629921 0.795276
vn 1.598425 0.527559 0.732283
vn 1.283465 0.527559 0.417323
f 17/43/43 18/44/44 16/45/45
#fvcolorindex 17 18 16 
vt 0.000000 0.000000 0.0
vt 0.000000 0.000000 0.0
vt 0.000000 0.000000 0.0
vn 1.559055 1.629921 0.795276
vn 1.283465 0.527559 0.417323
vn 1.220472 1.629921 0.456693
f 17/46/46 16/47/47 15/48/48
#fvcolorindex 17 16 15 
usemtl m8EnvMappingTexScaleS0.031250TexScaleT0.031250
vt 0.000000 0.000000 0.0
vt 0.000000 0.000000 0.0
vt 0.000000 0.000000 0.0
v 0.000000 59.957329 52.979904
#joint 35
#vjoint 19
#vcolor 0.000000 207.000000 117.000000 255.000000
v 0.000000 96.957329 52.979904
#joint 35
#vjoint 20
#vcolor 0.000000 67.000000 107.000000 255.000000
vn 0.000000 1.629921 0.921260
vn 0.000000 0.527559 0.842520
vn 1.598425 0.527559 0.732283
f 19/49/49 20/50/50 18/51/51
#fvcolorindex 19 20 18 
vt 0.000000 0.000000 0.0
vt 0.000000 0.000000 0.0
vt 0.000000 0.000000 0.0
vn 0.000000 1.629921 0.921260
vn 1.598425 0.527559 0.732283
vn 1.559055 1.629921 0.795276
f 19/52/52 18/53/53 17/54/54
#fvcolorindex 19 18 17 
usemtl m9EnvMappingTexScaleS0.031250TexScaleT0.031250
vt 0.000000 0.000000 0.0
vt 0.000000 0.000000 0.0
vt 0.000000 0.000000 0.0
v 6.000000 59.957329 51.979904
#joint 35
#vjoint 21
#vcolor 58.000000 207.000000 101.000000 255.000000
v 6.000000 96.957329 51.979904
#joint 35
#vjoint 22
#vcolor 53.000000 67.000000 93.000000 255.000000
vn 0.456693 1.629921 0.795276
vn 0.417323 0.527559 0.732283
vn 0.000000 0.527559 0.842520
f 21/55/55 22/56/56 20/57/57
#fvcolorindex 21 22 20 
vt 0.000000 0.000000 0.0
vt 0.000000 0.000000 0.0
vt 0.000000 0.000000 0.0
vn 0.456693 1.629921 0.795276
vn 0.000000 0.527559 0.842520
vn 0.000000 1.629921 0.921260
f 21/58/58 20/59/59 19/60/60
#fvcolorindex 21 20 19 
usemtl m10EnvMappingTexScaleS0.031250TexScaleT0.031250
vt 0.000000 0.000000 0.0
vt 0.000000 0.000000 0.0
vt 0.000000 0.000000 0.0
v 11.000000 59.957329 46.979904
#joint 35
#vjoint 23
#vcolor 101.000000 207.000000 58.000000 255.000000
v 11.000000 96.957329 46.979904
#joint 35
#vjoint 24
#vcolor 93.000000 67.000000 53.000000 255.000000
vn 0.795276 1.629921 0.456693
vn 0.732283 0.527559 0.417323
vn 0.417323 0.527559 0.732283
f 23/61/61 24/62/62 22/63/63
#fvcolorindex 23 24 22 
vt 0.000000 0.000000 0.0
vt 0.000000 0.000000 0.0
vt 0.000000 0.000000 0.0
vn 0.795276 1.629921 0.456693
vn 0.417323 0.527559 0.732283
vn 0.456693 1.629921 0.795276
f 23/64/64 22/65/65 21/66/66
#fvcolorindex 23 22 21 
usemtl m11EnvMappingTexScaleS0.031250TexScaleT0.031250
vt 0.000000 0.000000 0.0
vt 0.000000 0.000000 0.0
vt 0.000000 0.000000 0.0
vn 0.921260 1.629921 0.000000
vn 0.842520 0.527559 0.000000
vn 0.732283 0.527559 0.417323
f 4/67/67 3/68/68 24/69/69
#fvcolorindex 4 3 24 
vt 0.000000 0.000000 0.0
vt 0.000000 0.000000 0.0
vt 0.000000 0.000000 0.0
vn 0.921260 1.629921 0.000000
vn 0.732283 0.527559 0.417323
vn 0.795276 1.629921 0.456693
f 4/70/70 24/71/71 23/72/72
#fvcolorindex 4 24 23 
usemtl m12EnvMappingTexScaleS0.031250TexScaleT0.031250
vt 0.000000 0.000000 0.0
vt 0.000000 0.000000 0.0
vt 0.000000 0.000000 0.0
v 0.000000 103.957329 40.979904
#joint 35
#vjoint 25
#vcolor 0.000000 127.000000 0.000000 255.000000
vn 0.000000 1.000000 0.000000
vn 0.417323 0.527559 0.732283
vn 0.732283 0.527559 0.417323
f 25/73/73 22/74/74 24/75/75
#fvcolorindex 25 22 24 
usemtl m13EnvMappingTexScaleS0.031250TexScaleT0.031250
vt 0.000000 0.000000 0.0
vt 0.000000 0.000000 0.0
vt 0.000000 0.000000 0.0
vn 0.000000 0.527559 0.842520
vn 0.417323 0.527559 0.732283
vn 0.000000 1.000000 0.000000
f 20/76/76 22/77/77 25/78/78
#fvcolorindex 20 22 25 
usemtl m14EnvMappingTexScaleS0.031250TexScaleT0.031250
vt 0.000000 0.000000 0.0
vt 0.000000 0.000000 0.0
vt 0.000000 0.000000 0.0
vn 1.598425 0.527559 0.732283
vn 0.000000 0.527559 0.842520
vn 0.000000 1.000000 0.000000
f 18/79/79 20/80/80 25/81/81
#fvcolorindex 18 20 25 
usemtl m15EnvMappingTexScaleS0.031250TexScaleT0.031250
vt 0.000000 0.000000 0.0
vt 0.000000 0.000000 0.0
vt 0.000000 0.000000 0.0
vn 1.283465 0.527559 0.417323
vn 1.598425 0.527559 0.732283
vn 0.000000 1.000000 0.000000
f 16/82/82 18/83/83 25/84/84
#fvcolorindex 16 18 25 
usemtl m16EnvMappingTexScaleS0.031250TexScaleT0.031250
vt 0.000000 0.000000 0.0
vt 0.000000 0.000000 0.0
vt 0.000000 0.000000 0.0
vn 1.173228 0.527559 0.000000
vn 1.283465 0.527559 0.417323
vn 0.000000 1.000000 0.000000
f 14/85/85 16/86/86 25/87/87
#fvcolorindex 14 16 25 
usemtl m17EnvMappingTexScaleS0.031250TexScaleT0.031250
vt 0.000000 0.000000 0.0
vt 0.000000 0.000000 0.0
vt 0.000000 0.000000 0.0
vn 1.283465 0.527559 1.598425
vn 1.173228 0.527559 0.000000
vn 0.000000 1.000000 0.000000
f 12/88/88 14/89/89 25/90/90
#fvcolorindex 12 14 25 
usemtl m18EnvMappingTexScaleS0.031250TexScaleT0.031250
vt 0.000000 0.000000 0.0
vt 0.000000 0.000000 0.0
vt 0.000000 0.000000 0.0
vn 1.598425 0.527559 1.283465
vn 1.283465 0.527559 1.598425
vn 0.000000 1.000000 0.000000
f 10/91/91 12/92/92 25/93/93
#fvcolorindex 10 12 25 
usemtl m19EnvMappingTexScaleS0.031250TexScaleT0.031250
vt 0.000000 0.000000 0.0
vt 0.000000 0.000000 0.0
vt 0.000000 0.000000 0.0
vn 0.000000 0.527559 1.173228
vn 1.598425 0.527559 1.283465
vn 0.000000 1.000000 0.000000
f 8/94/94 10/95/95 25/96/96
#fvcolorindex 8 10 25 
usemtl m20EnvMappingTexScaleS0.031250TexScaleT0.031250
vt 0.000000 0.000000 0.0
vt 0.000000 0.000000 0.0
vt 0.000000 0.000000 0.0
vn 0.417323 0.527559 1.283465
vn 0.000000 0.527559 1.173228
vn 0.000000 1.000000 0.000000
f 6/97/97 8/98/98 25/99/99
#fvcolorindex 6 8 25 
usemtl m21EnvMappingTexScaleS0.031250TexScaleT0.031250
vt 0.000000 0.000000 0.0
vt 0.000000 0.000000 0.0
vt 0.000000 0.000000 0.0
vn 0.732283 0.527559 1.598425
vn 0.417323 0.527559 1.283465
vn 0.000000 1.000000 0.000000
f 2/100/100 6/101/101 25/102/102
#fvcolorindex 2 6 25 
usemtl m22EnvMappingTexScaleS0.031250TexScaleT0.031250
vt 0.000000 0.000000 0.0
vt 0.000000 0.000000 0.0
vt 0.000000 0.000000 0.0
vn 0.842520 0.527559 0.000000
vn 0.732283 0.527559 1.598425
vn 0.000000 1.000000 0.000000
f 3/103/103 2/104/104 25/105/105
#fvcolorindex 3 2 25 
usemtl m23EnvMappingTexScaleS0.031250TexScaleT0.031250
vt 0.000000 0.000000 0.0
vt 0.000000 0.000000 0.0
vt 0.000000 0.000000 0.0
vn 0.732283 0.527559 0.417323
vn 0.842520 0.527559 0.000000
vn 0.000000 1.000000 0.000000
f 24/106/106 3/107/107 25/108/108
#fvcolorindex 24 3 25 
usemtl m9EnvMappingTexScaleS0.031250TexScaleT0.031250
vt 0.000000 0.000000 0.0
vt 0.000000 0.000000 0.0
vt 0.000000 0.000000 0.0
v 0.000000 46.957329 40.979904
#joint 35
#vjoint 26
#vcolor 253.000000 130.000000 11.000000 255.000000
vn 0.456693 1.629921 0.795276
vn 0.000000 1.629921 0.921260
vn 1.992126 1.023622 0.086614
f 21/109/109 19/110/110 26/111/111
#fvcolorindex 21 19 26 
usemtl m10EnvMappingTexScaleS0.031250TexScaleT0.031250
vt 0.000000 0.000000 0.0
vt 0.000000 0.000000 0.0
vt 0.000000 0.000000 0.0
vn 0.795276 1.629921 0.456693
vn 0.456693 1.629921 0.795276
vn 1.992126 1.023622 0.086614
f 23/112/112 21/113/113 26/114/114
#fvcolorindex 23 21 26 
usemtl m11EnvMappingTexScaleS0.031250TexScaleT0.031250
vt 0.000000 0.000000 0.0
vt 0.000000 0.000000 0.0
vt 0.000000 0.000000 0.0
vn 0.921260 1.629921 0.000000
vn 0.795276 1.629921 0.456693
vn 1.992126 1.023622 0.086614
f 4/115/115 23/116/116 26/117/117
#fvcolorindex 4 23 26 
usemtl m0EnvMappingTexScaleS0.031250TexScaleT0.031250
vt 0.000000 0.000000 0.0
vt 0.000000 0.000000 0.0
vt 0.000000 0.000000 0.0
vn 0.795276 1.629921 1.559055
vn 0.921260 1.629921 0.000000
vn 1.992126 1.023622 0.086614
f 1/118/118 4/119/119 26/120/120
#fvcolorindex 1 4 26 
usemtl m1EnvMappingTexScaleS0.031250TexScaleT0.031250
vt 0.000000 0.000000 0.0
vt 0.000000 0.000000 0.0
vt 0.000000 0.000000 0.0
vn 0.456693 1.629921 1.220472
vn 0.795276 1.629921 1.559055
vn 1.992126 1.023622 0.086614
f 5/121/121 1/122/122 26/123/123
#fvcolorindex 5 1 26 
usemtl m2EnvMappingTexScaleS0.031250TexScaleT0.031250
vt 0.000000 0.000000 0.0
vt 0.000000 0.000000 0.0
vt 0.000000 0.000000 0.0
#vcolor 23.000000 168.000000 168.000000 255.000000
vn 0.000000 1.629921 1.094488
vn 0.456693 1.629921 1.220472
vn 0.181102 1.322835 1.322835
f 7/124/124 5/125/125 26/126/126
#fvcolorindex 7 5 27 
usemtl m3EnvMappingTexScaleS0.031250TexScaleT0.031250
vt 0.000000 0.000000 0.0
vt 0.000000 0.000000 0.0
vt 0.000000 0.000000 0.0
vn 1.559055 1.629921 1.220472
vn 0.000000 1.629921 1.094488
vn 1.992126 1.023622 0.086614
f 9/127/127 7/128/128 26/129/129
#fvcolorindex 9 7 26 
usemtl m4EnvMappingTexScaleS0.031250TexScaleT0.031250
vt 0.000000 0.000000 0.0
vt 0.000000 0.000000 0.0
vt 0.000000 0.000000 0.0
vn 1.220472 1.629921 1.559055
vn 1.559055 1.629921 1.220472
vn 1.992126 1.023622 0.086614
f 11/130/130 9/131/131 26/132/132
#fvcolorindex 11 9 26 
usemtl m5EnvMappingTexScaleS0.031250TexScaleT0.031250
vt 0.000000 0.000000 0.0
vt 0.000000 0.000000 0.0
vt 0.000000 0.000000 0.0
vn 1.094488 1.629921 0.000000
vn 1.220472 1.629921 1.559055
vn 1.992126 1.023622 0.086614
f 13/133/133 11/134/134 26/135/135
#fvcolorindex 13 11 26 
usemtl m6EnvMappingTexScaleS0.031250TexScaleT0.031250
vt 0.000000 0.000000 0.0
vt 0.000000 0.000000 0.0
vt 0.000000 0.000000 0.0
vn 1.220472 1.629921 0.456693
vn 1.094488 1.629921 0.000000
vn 1.992126 1.023622 0.086614
f 15/136/136 13/137/137 26/138/138
#fvcolorindex 15 13 26 
usemtl m7EnvMappingTexScaleS0.031250TexScaleT0.031250
vt 0.000000 0.000000 0.0
vt 0.000000 0.000000 0.0
vt 0.000000 0.000000 0.0
vn 1.559055 1.629921 0.795276
vn 1.220472 1.629921 0.456693
vn 1.992126 1.023622 0.086614
f 17/139/139 15/140/140 26/141/141
#fvcolorindex 17 15 26 
usemtl m8EnvMappingTexScaleS0.031250TexScaleT0.031250
vt 0.000000 0.000000 0.0
vt 0.000000 0.000000 0.0
vt 0.000000 0.000000 0.0
vn 0.000000 1.629921 0.921260
vn 1.559055 1.629921 0.795276
vn 1.992126 1.023622 0.086614
f 19/142/142 17/143/143 26/144/144
#fvcolorindex 19 17 26 
g Room04
g Room04_primary
usemtl m0EnvMappingTexScaleS0.031250TexScaleT0.031250
vt 0.000000 0.000000 0.0
vt 0.000000 0.000000 0.0
vt 0.000000 0.000000 0.0
v 11.000000 59.957329 65.517166
#joint 36
#vjoint 27
#vcolor 101.000000 207.000000 198.000000 255.000000
v 11.000000 96.957329 65.517166
#joint 36
#vjoint 28
#vcolor 93.000000 67.000000 203.000000 255.000000
v 13.000000 96.957329 72.517166
#joint 36
#vjoint 29
#vcolor 107.000000 67.000000 0.000000 255.000000
vn 0.795276 1.629921 1.559055
vn 0.732283 0.527559 1.598425
vn 0.842520 0.527559 0.000000
f 27/145/145 28/146/146 29/147/147
#fvcolorindex 28 29 30 
vt 0.000000 0.000000 0.0
vt 0.000000 0.000000 0.0
vt 0.000000 0.000000 0.0
v 13.000000 59.957329 72.517166
#joint 36
#vjoint 30
#vcolor 117.000000 207.000000 0.000000 255.000000
vn 0.795276 1.629921 1.559055
vn 0.842520 0.527559 0.000000
vn 0.921260 1.629921 0.000000
f 27/148/148 29/149/149 30/150/150
#fvcolorindex 28 30 31 
usemtl m1EnvMappingTexScaleS0.031250TexScaleT0.031250
vt 0.000000 0.000000 0.0
vt 0.000000 0.000000 0.0
vt 0.000000 0.000000 0.0
v 6.000000 59.957329 61.517166
#joint 36
#vjoint 31
#vcolor 58.000000 207.000000 155.000000 255.000000
v 6.000000 96.957329 61.517166
#joint 36
#vjoint 32
#vcolor 53.000000 67.000000 163.000000 255.000000
vn 0.456693 1.629921 1.220472
vn 0.417323 0.527559 1.283465
vn 0.732283 0.527559 1.598425
f 31/151/151 32/152/152 28/153/153
#fvcolorindex 32 33 29 
vt 0.000000 0.000000 0.0
vt 0.000000 0.000000 0.0
vt 0.000000 0.000000 0.0
vn 0.456693 1.629921 1.220472
vn 0.732283 0.527559 1.598425
vn 0.795276 1.629921 1.559055
f 31/154/154 28/155/155 27/156/156
#fvcolorindex 32 29 28 
usemtl m2EnvMappingTexScaleS0.031250TexScaleT0.031250
vt 0.000000 0.000000 0.0
vt 0.000000 0.000000 0.0
vt 0.000000 0.000000 0.0
v 0.000000 59.957329 59.517166
#joint 36
#vjoint 33
#vcolor 0.000000 207.000000 139.000000 255.000000
v 0.000000 96.957329 59.517166
#joint 36
#vjoint 34
#vcolor 0.000000 67.000000 149.000000 255.000000
vn 0.000000 1.629921 1.094488
vn 0.000000 0.527559 1.173228
vn 0.417323 0.527559 1.283465
f 33/157/157 34/158/158 32/159/159
#fvcolorindex 34 35 33 
vt 0.000000 0.000000 0.0
vt 0.000000 0.000000 0.0
vt 0.000000 0.000000 0.0
vn 0.000000 1.629921 1.094488
vn 0.417323 0.527559 1.283465
vn 0.456693 1.629921 1.220472
f 33/160/160 32/161/161 31/162/162
#fvcolorindex 34 33 32 
usemtl m3EnvMappingTexScaleS0.031250TexScaleT0.031250
vt 0.000000 0.000000 0.0
vt 0.000000 0.000000 0.0
vt 0.000000 0.000000 0.0
v -6.000000 59.957329 61.517166
#joint 36
#vjoint 35
#vcolor 198.000000 207.000000 155.000000 255.000000
v -6.000000 96.957329 61.517166
#joint 36
#vjoint 36
#vcolor 203.000000 67.000000 163.000000 255.000000
vn 1.559055 1.629921 1.220472
vn 1.598425 0.527559 1.283465
vn 0.000000 0.527559 1.173228
f 35/163/163 36/164/164 34/165/165
#fvcolorindex 36 37 35 
vt 0.000000 0.000000 0.0
vt 0.000000 0.000000 0.0
vt 0.000000 0.000000 0.0
vn 1.559055 1.629921 1.220472
vn 0.000000 0.527559 1.173228
vn 0.000000 1.629921 1.094488
f 35/166/166 34/167/167 33/168/168
#fvcolorindex 36 35 34 
usemtl m4EnvMappingTexScaleS0.031250TexScaleT0.031250
vt 0.000000 0.000000 0.0
vt 0.000000 0.000000 0.0
vt 0.000000 0.000000 0.0
v -11.000000 59.957329 65.517166
#joint 36
#vjoint 37
#vcolor 155.000000 207.000000 198.000000 255.000000
v -11.000000 96.957329 65.517166
#joint 36
#vjoint 38
#vcolor 163.000000 67.000000 203.000000 255.000000
vn 1.220472 1.629921 1.559055
vn 1.283465 0.527559 1.598425
vn 1.598425 0.527559 1.283465
f 37/169/169 38/170/170 36/171/171
#fvcolorindex 38 39 37 
vt 0.000000 0.000000 0.0
vt 0.000000 0.000000 0.0
vt 0.000000 0.000000 0.0
vn 1.220472 1.629921 1.559055
vn 1.598425 0.527559 1.283465
vn 1.559055 1.629921 1.220472
f 37/172/172 36/173/173 35/174/174
#fvcolorindex 38 37 36 
usemtl m5EnvMappingTexScaleS0.031250TexScaleT0.031250
vt 0.000000 0.000000 0.0
vt 0.000000 0.000000 0.0
vt 0.000000 0.000000 0.0
v -12.000000 59.957329 72.517166
#joint 36
#vjoint 39
#vcolor 139.000000 207.000000 0.000000 255.000000
v -12.000000 96.957329 72.517166
#joint 36
#vjoint 40
#vcolor 149.000000 67.000000 0.000000 255.000000
vn 1.094488 1.629921 0.000000
vn 1.173228 0.527559 0.000000
vn 1.283465 0.527559 1.598425
f 39/175/175 40/176/176 38/177/177
#fvcolorindex 40 41 39 
vt 0.000000 0.000000 0.0
vt 0.000000 0.000000 0.0
vt 0.000000 0.000000 0.0
vn 1.094488 1.629921 0.000000
vn 1.283465 0.527559 1.598425
vn 1.220472 1.629921 1.559055
f 39/178/178 38/179/179 37/180/180
#fvcolorindex 40 39 38 
usemtl m6EnvMappingTexScaleS0.031250TexScaleT0.031250
vt 0.000000 0.000000 0.0
vt 0.000000 0.000000 0.0
vt 0.000000 0.000000 0.0
v -11.000000 59.957329 78.517166
#joint 36
#vjoint 41
#vcolor 155.000000 207.000000 58.000000 255.000000
v -11.000000 96.957329 78.517166
#joint 36
#vjoint 42
#vcolor 163.000000 67.000000 53.000000 255.000000
vn 1.220472 1.629921 0.456693
vn 1.283465 0.527559 0.417323
vn 1.173228 0.527559 0.000000
f 41/181/181 42/182/182 40/183/183
#fvcolorindex 42 43 41 
vt 0.000000 0.000000 0.0
vt 0.000000 0.000000 0.0
vt 0.000000 0.000000 0.0
vn 1.220472 1.629921 0.456693
vn 1.173228 0.527559 0.000000
vn 1.094488 1.629921 0.000000
f 41/184/184 40/185/185 39/186/186
#fvcolorindex 42 41 40 
usemtl m7EnvMappingTexScaleS0.031250TexScaleT0.031250
vt 0.000000 0.000000 0.0
vt 0.000000 0.000000 0.0
vt 0.000000 0.000000 0.0
v -6.000000 59.957329 82.517166
#joint 36
#vjoint 43
#vcolor 198.000000 207.000000 101.000000 255.000000
v -6.000000 96.957329 82.517166
#joint 36
#vjoint 44
#vcolor 203.000000 67.000000 93.000000 255.000000
vn 1.559055 1.629921 0.795276
vn 1.598425 0.527559 0.732283
vn 1.283465 0.527559 0.417323
f 43/187/187 44/188/188 42/189/189
#fvcolorindex 44 45 43 
vt 0.000000 0.000000 0.0
vt 0.000000 0.000000 0.0
vt 0.000000 0.000000 0.0
vn 1.559055 1.629921 0.795276
vn 1.283465 0.527559 0.417323
vn 1.220472 1.629921 0.456693
f 43/190/190 42/191/191 41/192/192
#fvcolorindex 44 43 42 
usemtl m8EnvMappingTexScaleS0.031250TexScaleT0.031250
vt 0.000000 0.000000 0.0
vt 0.000000 0.000000 0.0
vt 0.000000 0.000000 0.0
v 0.000000 59.957329 84.517166
#joint 36
#vjoint 45
#vcolor 0.000000 207.000000 117.000000 255.000000
v 0.000000 96.957329 84.517166
#joint 36
#vjoint 46
#vcolor 0.000000 67.000000 107.000000 255.000000
vn 0.000000 1.629921 0.921260
vn 0.000000 0.527559 0.842520
vn 1.598425 0.527559 0.732283
f 45/193/193 46/194/194 44/195/195
#fvcolorindex 46 47 45 
vt 0.000000 0.000000 0.0
vt 0.000000 0.000000 0.0
vt 0.000000 0.000000 0.0
vn 0.000000 1.629921 0.921260
vn 1.598425 0.527559 0.732283
vn 1.559055 1.629921 0.795276
f 45/196/196 44/197/197 43/198/198
#fvcolorindex 46 45 44 
usemtl m9EnvMappingTexScaleS0.031250TexScaleT0.031250
vt 0.000000 0.000000 0.0
vt 0.000000 0.000000 0.0
vt 0.000000 0.000000 0.0
v 6.000000 59.957329 82.517166
#joint 36
#vjoint 47
#vcolor 58.000000 207.000000 101.000000 255.000000
v 6.000000 96.957329 82.517166
#joint 36
#vjoint 48
#vcolor 53.000000 67.000000 93.000000 255.000000
vn 0.456693 1.629921 0.795276
vn 0.417323 0.527559 0.732283
vn 0.000000 0.527559 0.842520
f 47/199/199 48/200/200 46/201/201
#fvcolorindex 48 49 47 
vt 0.000000 0.000000 0.0
vt 0.000000 0.000000 0.0
vt 0.000000 0.000000 0.0
vn 0.456693 1.629921 0.795276
vn 0.000000 0.527559 0.842520
vn 0.000000 1.629921 0.921260
f 47/202/202 46/203/203 45/204/204
#fvcolorindex 48 47 46 
usemtl m10EnvMappingTexScaleS0.031250TexScaleT0.031250
vt 0.000000 0.000000 0.0
vt 0.000000 0.000000 0.0
vt 0.000000 0.000000 0.0
v 11.000000 59.957329 78.517166
#joint 36
#vjoint 49
#vcolor 101.000000 207.000000 58.000000 255.000000
v 11.000000 96.957329 78.517166
#joint 36
#vjoint 50
#vcolor 93.000000 67.000000 53.000000 255.000000
vn 0.795276 1.629921 0.456693
vn 0.732283 0.527559 0.417323
vn 0.417323 0.527559 0.732283
f 49/205/205 50/206/206 48/207/207
#fvcolorindex 50 51 49 
vt 0.000000 0.000000 0.0
vt 0.000000 0.000000 0.0
vt 0.000000 0.000000 0.0
vn 0.795276 1.629921 0.456693
vn 0.417323 0.527559 0.732283
vn 0.456693 1.629921 0.795276
f 49/208/208 48/209/209 47/210/210
#fvcolorindex 50 49 48 
usemtl m11EnvMappingTexScaleS0.031250TexScaleT0.031250
vt 0.000000 0.000000 0.0
vt 0.000000 0.000000 0.0
vt 0.000000 0.000000 0.0
vn 0.921260 1.629921 0.000000
vn 0.842520 0.527559 0.000000
vn 0.732283 0.527559 0.417323
f 30/211/211 29/212/212 50/213/213
#fvcolorindex 31 30 51 
vt 0.000000 0.000000 0.0
vt 0.000000 0.000000 0.0
vt 0.000000 0.000000 0.0
vn 0.921260 1.629921 0.000000
vn 0.732283 0.527559 0.417323
vn 0.795276 1.629921 0.456693
f 30/214/214 50/215/215 49/216/216
#fvcolorindex 31 51 50 
usemtl m12EnvMappingTexScaleS0.031250TexScaleT0.031250
vt 0.000000 0.000000 0.0
vt 0.000000 0.000000 0.0
vt 0.000000 0.000000 0.0
v 0.000000 103.957329 72.517166
#joint 36
#vjoint 51
#vcolor 0.000000 127.000000 0.000000 255.000000
vn 0.000000 1.000000 0.000000
vn 0.417323 0.527559 0.732283
vn 0.732283 0.527559 0.417323
f 51/217/217 48/218/218 50/219/219
#fvcolorindex 52 49 51 
usemtl m13EnvMappingTexScaleS0.031250TexScaleT0.031250
vt 0.000000 0.000000 0.0
vt 0.000000 0.000000 0.0
vt 0.000000 0.000000 0.0
vn 0.000000 0.527559 0.842520
vn 0.417323 0.527559 0.732283
vn 0.000000 1.000000 0.000000
f 46/220/220 48/221/221 51/222/222
#fvcolorindex 47 49 52 
usemtl m14EnvMappingTexScaleS0.031250TexScaleT0.031250
vt 0.000000 0.000000 0.0
vt 0.000000 0.000000 0.0
vt 0.000000 0.000000 0.0
vn 1.598425 0.527559 0.732283
vn 0.000000 0.527559 0.842520
vn 0.000000 1.000000 0.000000
f 44/223/223 46/224/224 51/225/225
#fvcolorindex 45 47 52 
usemtl m15EnvMappingTexScaleS0.031250TexScaleT0.031250
vt 0.000000 0.000000 0.0
vt 0.000000 0.000000 0.0
vt 0.000000 0.000000 0.0
vn 1.283465 0.527559 0.417323
vn 1.598425 0.527559 0.732283
vn 0.000000 1.000000 0.000000
f 42/226/226 44/227/227 51/228/228
#fvcolorindex 43 45 52 
usemtl m16EnvMappingTexScaleS0.031250TexScaleT0.031250
vt 0.000000 0.000000 0.0
vt 0.000000 0.000000 0.0
vt 0.000000 0.000000 0.0
vn 1.173228 0.527559 0.000000
vn 1.283465 0.527559 0.417323
vn 0.000000 1.000000 0.000000
f 40/229/229 42/230/230 51/231/231
#fvcolorindex 41 43 52 
usemtl m17EnvMappingTexScaleS0.031250TexScaleT0.031250
vt 0.000000 0.000000 0.0
vt 0.000000 0.000000 0.0
vt 0.000000 0.000000 0.0
vn 1.283465 0.527559 1.598425
vn 1.173228 0.527559 0.000000
vn 0.000000 1.000000 0.000000
f 38/232/232 40/233/233 51/234/234
#fvcolorindex 39 41 52 
usemtl m18EnvMappingTexScaleS0.031250TexScaleT0.031250
vt 0.000000 0.000000 0.0
vt 0.000000 0.000000 0.0
vt 0.000000 0.000000 0.0
vn 1.598425 0.527559 1.283465
vn 1.283465 0.527559 1.598425
vn 0.000000 1.000000 0.000000
f 36/235/235 38/236/236 51/237/237
#fvcolorindex 37 39 52 
usemtl m19EnvMappingTexScaleS0.031250TexScaleT0.031250
vt 0.000000 0.000000 0.0
vt 0.000000 0.000000 0.0
vt 0.000000 0.000000 0.0
vn 0.000000 0.527559 1.173228
vn 1.598425 0.527559 1.283465
vn 0.000000 1.000000 0.000000
f 34/238/238 36/239/239 51/240/240
#fvcolorindex 35 37 52 
usemtl m20EnvMappingTexScaleS0.031250TexScaleT0.031250
vt 0.000000 0.000000 0.0
vt 0.000000 0.000000 0.0
vt 0.000000 0.000000 0.0
vn 0.417323 0.527559 1.283465
vn 0.000000 0.527559 1.173228
vn 0.000000 1.000000 0.000000
f 32/241/241 34/242/242 51/243/243
#fvcolorindex 33 35 52 
usemtl m21EnvMappingTexScaleS0.031250TexScaleT0.031250
vt 0.000000 0.000000 0.0
vt 0.000000 0.000000 0.0
vt 0.000000 0.000000 0.0
vn 0.732283 0.527559 1.598425
vn 0.417323 0.527559 1.283465
vn 0.000000 1.000000 0.000000
f 28/244/244 32/245/245 51/246/246
#fvcolorindex 29 33 52 
usemtl m22EnvMappingTexScaleS0.031250TexScaleT0.031250
vt 0.000000 0.000000 0.0
vt 0.000000 0.000000 0.0
vt 0.000000 0.000000 0.0
vn 0.842520 0.527559 0.000000
vn 0.732283 0.527559 1.598425
vn 0.000000 1.000000 0.000000
f 29/247/247 28/248/248 51/249/249
#fvcolorindex 30 29 52 
usemtl m23EnvMappingTexScaleS0.031250TexScaleT0.031250
vt 0.000000 0.000000 0.0
vt 0.000000 0.000000 0.0
vt 0.000000 0.000000 0.0
vn 0.732283 0.527559 0.417323
vn 0.842520 0.527559 0.000000
vn 0.000000 1.000000 0.000000
f 50/250/250 29/251/251 51/252/252
#fvcolorindex 51 30 52 
usemtl m9EnvMappingTexScaleS0.031250TexScaleT0.031250
vt 0.000000 0.000000 0.0
vt 0.000000 0.000000 0.0
vt 0.000000 0.000000 0.0
v 0.000000 46.957329 72.517166
#joint 36
#vjoint 52
#vcolor 253.000000 130.000000 11.000000 255.000000
vn 0.456693 1.629921 0.795276
vn 0.000000 1.629921 0.921260
vn 1.992126 1.023622 0.086614
f 47/253/253 45/254/254 52/255/255
#fvcolorindex 48 46 53 
usemtl m10EnvMappingTexScaleS0.031250TexScaleT0.031250
vt 0.000000 0.000000 0.0
vt 0.000000 0.000000 0.0
vt 0.000000 0.000000 0.0
vn 0.795276 1.629921 0.456693
vn 0.456693 1.629921 0.795276
vn 1.992126 1.023622 0.086614
f 49/256/256 47/257/257 52/258/258
#fvcolorindex 50 48 53 
usemtl m11EnvMappingTexScaleS0.031250TexScaleT0.031250
vt 0.000000 0.000000 0.0
vt 0.000000 0.000000 0.0
vt 0.000000 0.000000 0.0
vn 0.921260 1.629921 0.000000
vn 0.795276 1.629921 0.456693
vn 1.992126 1.023622 0.086614
f 30/259/259 49/260/260 52/261/261
#fvcolorindex 31 50 53 
usemtl m0EnvMappingTexScaleS0.031250TexScaleT0.031250
vt 0.000000 0.000000 0.0
vt 0.000000 0.000000 0.0
vt 0.000000 0.000000 0.0
vn 0.795276 1.629921 1.559055
vn 0.921260 1.629921 0.000000
vn 1.992126 1.023622 0.086614
f 27/262/262 30/263/263 52/264/264
#fvcolorindex 28 31 53 
usemtl m1EnvMappingTexScaleS0.031250TexScaleT0.031250
vt 0.000000 0.000000 0.0
vt 0.000000 0.000000 0.0
vt 0.000000 0.000000 0.0
vn 0.456693 1.629921 1.220472
vn 0.795276 1.629921 1.559055
vn 1.992126 1.023622 0.086614
f 31/265/265 27/266/266 52/267/267
#fvcolorindex 32 28 53 
usemtl m2EnvMappingTexScaleS0.031250TexScaleT0.031250
vt 0.000000 0.000000 0.0
vt 0.000000 0.000000 0.0
vt 0.000000 0.000000 0.0
#vcolor 23.000000 168.000000 168.000000 255.000000
vn 0.000000 1.629921 1.094488
vn 0.456693 1.629921 1.220472
vn 0.181102 1.322835 1.322835
f 33/268/268 31/269/269 52/270/270
#fvcolorindex 34 32 54 
usemtl m3EnvMappingTexScaleS0.031250TexScaleT0.031250
vt 0.000000 0.000000 0.0
vt 0.000000 0.000000 0.0
vt 0.000000 0.000000 0.0
vn 1.559055 1.629921 1.220472
vn 0.000000 1.629921 1.094488
vn 1.992126 1.023622 0.086614
f 35/271/271 33/272/272 52/273/273
#fvcolorindex 36 34 53 
usemtl m4EnvMappingTexScaleS0.031250TexScaleT0.031250
vt 0.000000 0.000000 0.0
vt 0.000000 0.000000 0.0
vt 0.000000 0.000000 0.0
vn 1.220472 1.629921 1.559055
vn 1.559055 1.629921 1.220472
vn 1.992126 1.023622 0.086614
f 37/274/274 35/275/275 52/276/276
#fvcolorindex 38 36 53 
usemtl m5EnvMappingTexScaleS0.031250TexScaleT0.031250
vt 0.000000 0.000000 0.0
vt 0.000000 0.000000 0.0
vt 0.000000 0.000000 0.0
vn 1.094488 1.629921 0.000000
vn 1.220472 1.629921 1.559055
vn 1.992126 1.023622 0.086614
f 39/277/277 37/278/278 52/279/279
#fvcolorindex 40 38 53 
usemtl m6EnvMappingTexScaleS0.031250TexScaleT0.031250
vt 0.000000 0.000000 0.0
vt 0.000000 0.000000 0.0
vt 0.000000 0.000000 0.0
vn 1.220472 1.629921 0.456693
vn 1.094488 1.629921 0.000000
vn 1.992126 1.023622 0.086614
f 41/280/280 39/281/281 52/282/282
#fvcolorindex 42 40 53 
usemtl m7EnvMappingTexScaleS0.031250TexScaleT0.031250
vt 0.000000 0.000000 0.0
vt 0.000000 0.000000 0.0
vt 0.000000 0.000000 0.0
vn 1.559055 1.629921 0.795276
vn 1.220472 1.629921 0.456693
vn 1.992126 1.023622 0.086614
f 43/283/283 41/284/284 52/285/285
#fvcolorindex 44 42 53 
usemtl m8EnvMappingTexScaleS0.031250TexScaleT0.031250
vt 0.000000 0.000000 0.0
vt 0.000000 0.000000 0.0
vt 0.000000 0.000000 0.0
vn 0.000000 1.629921 0.921260
vn 1.559055 1.629921 0.795276
vn 1.992126 1.023622 0.086614
f 45/286/286 43/287/287 52/288/288
#fvcolorindex 46 44 53 
g Room06
g Room06_primary
usemtl m0EnvMappingTexScaleS0.031250TexScaleT0.031250
vt 0.000000 0.000000 0.0
vt 0.000000 0.000000 0.0
vt 0.000000 0.000000 0.0
v 11.000000 59.957333 97.256027
#joint 37
#vjoint 53
#vcolor 101.000000 207.000000 198.000000 255.000000
v 11.000000 96.957336 97.256027
#joint 37
#vjoint 54
#vcolor 93.000000 67.000000 203.000000 255.000000
v 13.000000 96.957336 103.256027
#joint 37
#vjoint 55
#vcolor 107.000000 67.000000 0.000000 255.000000
vn 0.795276 1.629921 1.559055
vn 0.732283 0.527559 1.598425
vn 0.842520 0.527559 0.000000
f 53/289/289 54/290/290 55/291/291
#fvcolorindex 55 56 57 
vt 0.000000 0.000000 0.0
vt 0.000000 0.000000 0.0
vt 0.000000 0.000000 0.0
v 13.000000 59.957333 103.256027
#joint 37
#vjoint 56
#vcolor 117.000000 207.000000 0.000000 255.000000
vn 0.795276 1.629921 1.559055
vn 0.842520 0.527559 0.000000
vn 0.921260 1.629921 0.000000
f 53/292/292 55/293/293 56/294/294
#fvcolorindex 55 57 58 
usemtl m1EnvMappingTexScaleS0.031250TexScaleT0.031250
vt 0.000000 0.000000 0.0
vt 0.000000 0.000000 0.0
vt 0.000000 0.000000 0.0
v 6.000000 59.957333 92.256027
#joint 37
#vjoint 57
#vcolor 58.000000 207.000000 155.000000 255.000000
v 6.000000 96.957336 92.256027
#joint 37
#vjoint 58
#vcolor 53.000000 67.000000 163.000000 255.000000
vn 0.456693 1.629921 1.220472
vn 0.417323 0.527559 1.283465
vn 0.732283 0.527559 1.598425
f 57/295/295 58/296/296 54/297/297
#fvcolorindex 59 60 56 
vt 0.000000 0.000000 0.0
vt 0.000000 0.000000 0.0
vt 0.000000 0.000000 0.0
vn 0.456693 1.629921 1.220472
vn 0.732283 0.527559 1.598425
vn 0.795276 1.629921 1.559055
f 57/298/298 54/299/299 53/300/300
#fvcolorindex 59 56 55 
usemtl m2EnvMappingTexScaleS0.031250TexScaleT0.031250
vt 0.000000 0.000000 0.0
vt 0.000000 0.000000 0.0
vt 0.000000 0.000000 0.0
v 0.000000 59.957333 91.256027
#joint 37
#vjoint 59
#vcolor 0.000000 207.000000 139.000000 255.000000
v 0.000000 96.957336 91.256027
#joint 37
#vjoint 60
#vcolor 0.000000 67.000000 149.000000 255.000000
vn 0.000000 1.629921 1.094488
vn 0.000000 0.527559 1.173228
vn 0.417323 0.527559 1.283465
f 59/301/301 60/302/302 58/303/303
#fvcolorindex 61 62 60 
vt 0.000000 0.000000 0.0
vt 0.000000 0.000000 0.0
vt 0.000000 0.000000 0.0
vn 0.000000 1.629921 1.094488
vn 0.417323 0.527559 1.283465
vn 0.456693 1.629921 1.220472
f 59/304/304 58/305/305 57/306/306
#fvcolorindex 61 60 59 
usemtl m3EnvMappingTexScaleS0.031250TexScaleT0.031250
vt 0.000000 0.000000 0.0
vt 0.000000 0.000000 0.0
vt 0.000000 0.000000 0.0
v -6.000000 59.957333 92.256027
#joint 37
#vjoint 61
#vcolor 198.000000 207.000000 155.000000 255.000000
v -6.000000 96.957336 92.256027
#joint 37
#vjoint 62
#vcolor 203.000000 67.000000 163.000000 255.000000
vn 1.559055 1.629921 1.220472
vn 1.598425 0.527559 1.283465
vn 0.000000 0.527559 1.173228
f 61/307/307 62/308/308 60/309/309
#fvcolorindex 63 64 62 
vt 0.000000 0.000000 0.0
vt 0.000000 0.000000 0.0
vt 0.000000 0.000000 0.0
vn 1.559055 1.629921 1.220472
vn 0.000000 0.527559 1.173228
vn 0.000000 1.629921 1.094488
f 61/310/310 60/311/311 59/312/312
#fvcolorindex 63 62 61 
usemtl m4EnvMappingTexScaleS0.031250TexScaleT0.031250
vt 0.000000 0.000000 0.0
vt 0.000000 0.000000 0.0
vt 0.000000 0.000000 0.0
v -11.000000 59.957333 97.256027
#joint 37
#vjoint 63
#vcolor 155.000000 207.000000 198.000000 255.000000
v -11.000000 96.957336 97.256027
#joint 37
#vjoint 64
#vcolor 163.000000 67.000000 203.000000 255.000000
vn 1.220472 1.629921 1.559055
vn 1.283465 0.527559 1.598425
vn 1.598425 0.527559 1.283465
f 63/313/313 64/314/314 62/315/315
#fvcolorindex 65 66 64 
vt 0.000000 0.000000 0.0
vt 0.000000 0.000000 0.0
vt 0.000000 0.000000 0.0
vn 1.220472 1.629921 1.559055
vn 1.598425 0.527559 1.283465
vn 1.559055 1.629921 1.220472
f 63/316/316 62/317/317 61/318/318
#fvcolorindex 65 64 63 
usemtl m5EnvMappingTexScaleS0.031250TexScaleT0.031250
vt 0.000000 0.000000 0.0
vt 0.000000 0.000000 0.0
vt 0.000000 0.000000 0.0
v -12.000000 59.957333 103.256027
#joint 37
#vjoint 65
#vcolor 139.000000 207.000000 0.000000 255.000000
v -12.000000 96.957336 103.256027
#joint 37
#vjoint 66
#vcolor 149.000000 67.000000 0.000000 255.000000
vn 1.094488 1.629921 0.000000
vn 1.173228 0.527559 0.000000
vn 1.283465 0.527559 1.598425
f 65/319/319 66/320/320 64/321/321
#fvcolorindex 67 68 66 
vt 0.000000 0.000000 0.0
vt 0.000000 0.000000 0.0
vt 0.000000 0.000000 0.0
vn 1.094488 1.629921 0.000000
vn 1.283465 0.527559 1.598425
vn 1.220472 1.629921 1.559055
f 65/322/322 64/323/323 63/324/324
#fvcolorindex 67 66 65 
usemtl m6EnvMappingTexScaleS0.031250TexScaleT0.031250
vt 0.000000 0.000000 0.0
vt 0.000000 0.000000 0.0
vt 0.000000 0.000000 0.0
v -11.000000 59.957333 110.256027
#joint 37
#vjoint 67
#vcolor 155.000000 207.000000 58.000000 255.000000
v -11.000000 96.957336 110.256027
#joint 37
#vjoint 68
#vcolor 163.000000 67.000000 53.000000 255.000000
vn 1.220472 1.629921 0.456693
vn 1.283465 0.527559 0.417323
vn 1.173228 0.527559 0.000000
f 67/325/325 68/326/326 66/327/327
#fvcolorindex 69 70 68 
vt 0.000000 0.000000 0.0
vt 0.000000 0.000000 0.0
vt 0.000000 0.000000 0.0
vn 1.220472 1.629921 0.456693
vn 1.173228 0.527559 0.000000
vn 1.094488 1.629921 0.000000
f 67/328/328 66/329/329 65/330/330
#fvcolorindex 69 68 67 
usemtl m7EnvMappingTexScaleS0.031250TexScaleT0.031250
vt 0.000000 0.000000 0.0
vt 0.000000 0.000000 0.0
vt 0.000000 0.000000 0.0
v -6.000000 59.957333 114.256027
#joint 37
#vjoint 69
#vcolor 198.000000 207.000000 101.000000 255.000000
v -6.000000 96.957336 114.256027
#joint 37
#vjoint 70
#vcolor 203.000000 67.000000 93.000000 255.000000
vn 1.559055 1.629921 0.795276
vn 1.598425 0.527559 0.732283
vn 1.283465 0.527559 0.417323
f 69/331/331 70/332/332 68/333/333
#fvcolorindex 71 72 70 
vt 0.000000 0.000000 0.0
vt 0.000000 0.000000 0.0
vt 0.000000 0.000000 0.0
vn 1.559055 1.629921 0.795276
vn 1.283465 0.527559 0.417323
vn 1.220472 1.629921 0.456693
f 69/334/334 68/335/335 67/336/336
#fvcolorindex 71 70 69 
usemtl m8EnvMappingTexScaleS0.031250TexScaleT0.031250
vt 0.000000 0.000000 0.0
vt 0.000000 0.000000 0.0
vt 0.000000 0.000000 0.0
v 0.000000 59.957333 116.256027
#joint 37
#vjoint 71
#vcolor 0.000000 207.000000 117.000000 255.000000
v 0.000000 96.957336 116.256027
#joint 37
#vjoint 72
#vcolor 0.000000 67.000000 107.000000 255.000000
vn 0.000000 1.629921 0.921260
vn 0.000000 0.527559 0.842520
vn 1.598425 0.527559 0.732283
f 71/337/337 72/338/338 70/339/339
#fvcolorindex 73 74 72 
vt 0.000000 0.000000 0.0
vt 0.000000 0.000000 0.0
vt 0.000000 0.000000 0.0
vn 0.000000 1.629921 0.921260
vn 1.598425 0.527559 0.732283
vn 1.559055 1.629921 0.795276
f 71/340/340 70/341/341 69/342/342
#fvcolorindex 73 72 71 
usemtl m9EnvMappingTexScaleS0.031250TexScaleT0.031250
vt 0.000000 0.000000 0.0
vt 0.000000 0.000000 0.0
vt 0.000000 0.000000 0.0
v 6.000000 59.957333 114.256027
#joint 37
#vjoint 73
#vcolor 58.000000 207.000000 101.000000 255.000000
v 6.000000 96.957336 114.256027
#joint 37
#vjoint 74
#vcolor 53.000000 67.000000 93.000000 255.000000
vn 0.456693 1.629921 0.795276
vn 0.417323 0.527559 0.732283
vn 0.000000 0.527559 0.842520
f 73/343/343 74/344/344 72/345/345
#fvcolorindex 75 76 74 
vt 0.000000 0.000000 0.0
vt 0.000000 0.000000 0.0
vt 0.000000 0.000000 0.0
vn 0.456693 1.629921 0.795276
vn 0.000000 0.527559 0.842520
vn 0.000000 1.629921 0.921260
f 73/346/346 72/347/347 71/348/348
#fvcolorindex 75 74 73 
usemtl m10EnvMappingTexScaleS0.031250TexScaleT0.031250
vt 0.000000 0.000000 0.0
vt 0.000000 0.000000 0.0
vt 0.000000 0.000000 0.0
v 11.000000 59.957333 110.256027
#joint 37
#vjoint 75
#vcolor 101.000000 207.000000 58.000000 255.000000
v 11.000000 96.957336 110.256027
#joint 37
#vjoint 76
#vcolor 93.000000 67.000000 53.000000 255.000000
vn 0.795276 1.629921 0.456693
vn 0.732283 0.527559 0.417323
vn 0.417323 0.527559 0.732283
f 75/349/349 76/350/350 74/351/351
#fvcolorindex 77 78 76 
vt 0.000000 0.000000 0.0
vt 0.000000 0.000000 0.0
vt 0.000000 0.000000 0.0
vn 0.795276 1.629921 0.456693
vn 0.417323 0.527559 0.732283
vn 0.456693 1.629921 0.795276
f 75/352/352 74/353/353 73/354/354
#fvcolorindex 77 76 75 
usemtl m11EnvMappingTexScaleS0.031250TexScaleT0.031250
vt 0.000000 0.000000 0.0
vt 0.000000 0.000000 0.0
vt 0.000000 0.000000 0.0
vn 0.921260 1.629921 0.000000
vn 0.842520 0.527559 0.000000
vn 0.732283 0.527559 0.417323
f 56/355/355 55/356/356 76/357/357
#fvcolorindex 58 57 78 
vt 0.000000 0.000000 0.0
vt 0.000000 0.000000 0.0
vt 0.000000 0.000000 0.0
vn 0.921260 1.629921 0.000000
vn 0.732283 0.527559 0.417323
vn 0.795276 1.629921 0.456693
f 56/358/358 76/359/359 75/360/360
#fvcolorindex 58 78 77 
usemtl m12EnvMappingTexScaleS0.031250TexScaleT0.031250
vt 0.000000 0.000000 0.0
vt 0.000000 0.000000 0.0
vt 0.000000 0.000000 0.0
v 0.000000 103.957336 103.256027
#joint 37
#vjoint 77
#vcolor 0.000000 127.000000 0.000000 255.000000
vn 0.000000 1.000000 0.000000
vn 0.417323 0.527559 0.732283
vn 0.732283 0.527559 0.417323
f 77/361/361 74/362/362 76/363/363
#fvcolorindex 79 76 78 
usemtl m13EnvMappingTexScaleS0.031250TexScaleT0.031250
vt 0.000000 0.000000 0.0
vt 0.000000 0.000000 0.0
vt 0.000000 0.000000 0.0
vn 0.000000 0.527559 0.842520
vn 0.417323 0.527559 0.732283
vn 0.000000 1.000000 0.000000
f 72/364/364 74/365/365 77/366/366
#fvcolorindex 74 76 79 
usemtl m14EnvMappingTexScaleS0.031250TexScaleT0.031250
vt 0.000000 0.000000 0.0
vt 0.000000 0.000000 0.0
vt 0.000000 0.000000 0.0
vn 1.598425 0.527559 0.732283
vn 0.000000 0.527559 0.842520
vn 0.000000 1.000000 0.000000
f 70/367/367 72/368/368 77/369/369
#fvcolorindex 72 74 79 
usemtl m15EnvMappingTexScaleS0.031250TexScaleT0.031250
vt 0.000000 0.000000 0.0
vt 0.000000 0.000000 0.0
vt 0.000000 0.000000 0.0
vn 1.283465 0.527559 0.417323
vn 1.598425 0.527559 0.732283
vn 0.000000 1.000000 0.000000
f 68/370/370 70/371/371 77/372/372
#fvcolorindex 70 72 79 
usemtl m16EnvMappingTexScaleS0.031250TexScaleT0.031250
vt 0.000000 0.000000 0.0
vt 0.000000 0.000000 0.0
vt 0.000000 0.000000 0.0
vn 1.173228 0.527559 0.000000
vn 1.283465 0.527559 0.417323
vn 0.000000 1.000000 0.000000
f 66/373/373 68/374/374 77/375/375
#fvcolorindex 68 70 79 
usemtl m17EnvMappingTexScaleS0.031250TexScaleT0.031250
vt 0.000000 0.000000 0.0
vt 0.000000 0.000000 0.0
vt 0.000000 0.000000 0.0
vn 1.283465 0.527559 1.598425
vn 1.173228 0.527559 0.000000
vn 0.000000 1.000000 0.000000
f 64/376/376 66/377/377 77/378/378
#fvcolorindex 66 68 79 
usemtl m18EnvMappingTexScaleS0.031250TexScaleT0.031250
vt 0.000000 0.000000 0.0
vt 0.000000 0.000000 0.0
vt 0.000000 0.000000 0.0
vn 1.598425 0.527559 1.283465
vn 1.283465 0.527559 1.598425
vn 0.000000 1.000000 0.000000
f 62/379/379 64/380/380 77/381/381
#fvcolorindex 64 66 79 
usemtl m19EnvMappingTexScaleS0.031250TexScaleT0.031250
vt 0.000000 0.000000 0.0
vt 0.000000 0.000000 0.0
vt 0.000000 0.000000 0.0
vn 0.000000 0.527559 1.173228
vn 1.598425 0.527559 1.283465
vn 0.000000 1.000000 0.000000
f 60/382/382 62/383/383 77/384/384
#fvcolorindex 62 64 79 
usemtl m20EnvMappingTexScaleS0.031250TexScaleT0.031250
vt 0.000000 0.000000 0.0
vt 0.000000 0.000000 0.0
vt 0.000000 0.000000 0.0
vn 0.417323 0.527559 1.283465
vn 0.000000 0.527559 1.173228
vn 0.000000 1.000000 0.000000
f 58/385/385 60/386/386 77/387/387
#fvcolorindex 60 62 79 
usemtl m21EnvMappingTexScaleS0.031250TexScaleT0.031250
vt 0.000000 0.000000 0.0
vt 0.000000 0.000000 0.0
vt 0.000000 0.000000 0.0
vn 0.732283 0.527559 1.598425
vn 0.417323 0.527559 1.283465
vn 0.000000 1.000000 0.000000
f 54/388/388 58/389/389 77/390/390
#fvcolorindex 56 60 79 
usemtl m22EnvMappingTexScaleS0.031250TexScaleT0.031250
vt 0.000000 0.000000 0.0
vt 0.000000 0.000000 0.0
vt 0.000000 0.000000 0.0
vn 0.842520 0.527559 0.000000
vn 0.732283 0.527559 1.598425
vn 0.000000 1.000000 0.000000
f 55/391/391 54/392/392 77/393/393
#fvcolorindex 57 56 79 
usemtl m23EnvMappingTexScaleS0.031250TexScaleT0.031250
vt 0.000000 0.000000 0.0
vt 0.000000 0.000000 0.0
vt 0.000000 0.000000 0.0
vn 0.732283 0.527559 0.417323
vn 0.842520 0.527559 0.000000
vn 0.000000 1.000000 0.000000
f 76/394/394 55/395/395 77/396/396
#fvcolorindex 78 57 79 
usemtl m9EnvMappingTexScaleS0.031250TexScaleT0.031250
vt 0.000000 0.000000 0.0
vt 0.000000 0.000000 0.0
vt 0.000000 0.000000 0.0
v 0.000000 46.957333 103.256027
#joint 37
#vjoint 78
#vcolor 253.000000 130.000000 11.000000 255.000000
vn 0.456693 1.629921 0.795276
vn 0.000000 1.629921 0.921260
vn 1.992126 1.023622 0.086614
f 73/397/397 71/398/398 78/399/399
#fvcolorindex 75 73 80 
usemtl m10EnvMappingTexScaleS0.031250TexScaleT0.031250
vt 0.000000 0.000000 0.0
vt 0.000000 0.000000 0.0
vt 0.000000 0.000000 0.0
vn 0.795276 1.629921 0.456693
vn 0.456693 1.629921 0.795276
vn 1.992126 1.023622 0.086614
f 75/400/400 73/401/401 78/402/402
#fvcolorindex 77 75 80 
usemtl m11EnvMappingTexScaleS0.031250TexScaleT0.031250
vt 0.000000 0.000000 0.0
vt 0.000000 0.000000 0.0
vt 0.000000 0.000000 0.0
vn 0.921260 1.629921 0.000000
vn 0.795276 1.629921 0.456693
vn 1.992126 1.023622 0.086614
f 56/403/403 75/404/404 78/405/405
#fvcolorindex 58 77 80 
usemtl m0EnvMappingTexScaleS0.031250TexScaleT0.031250
vt 0.000000 0.000000 0.0
vt 0.000000 0.000000 0.0
vt 0.000000 0.000000 0.0
vn 0.795276 1.629921 1.559055
vn 0.921260 1.629921 0.000000
vn 1.992126 1.023622 0.086614
f 53/406/406 56/407/407 78/408/408
#fvcolorindex 55 58 80 
usemtl m1EnvMappingTexScaleS0.031250TexScaleT0.031250
vt 0.000000 0.000000 0.0
vt 0.000000 0.000000 0.0
vt 0.000000 0.000000 0.0
vn 0.456693 1.629921 1.220472
vn 0.795276 1.629921 1.559055
vn 1.992126 1.023622 0.086614
f 57/409/409 53/410/410 78/411/411
#fvcolorindex 59 55 80 
usemtl m2EnvMappingTexScaleS0.031250TexScaleT0.031250
vt 0.000000 0.000000 0.0
vt 0.000000 0.000000 0.0
vt 0.000000 0.000000 0.0
#vcolor 23.000000 168.000000 168.000000 255.000000
vn 0.000000 1.629921 1.094488
vn 0.456693 1.629921 1.220472
vn 0.181102 1.322835 1.322835
f 59/412/412 57/413/413 78/414/414
#fvcolorindex 61 59 81 
usemtl m3EnvMappingTexScaleS0.031250TexScaleT0.031250
vt 0.000000 0.000000 0.0
vt 0.000000 0.000000 0.0
vt 0.000000 0.000000 0.0
vn 1.559055 1.629921 1.220472
vn 0.000000 1.629921 1.094488
vn 1.992126 1.023622 0.086614
f 61/415/415 59/416/416 78/417/417
#fvcolorindex 63 61 80 
usemtl m4EnvMappingTexScaleS0.031250TexScaleT0.031250
vt 0.000000 0.000000 0.0
vt 0.000000 0.000000 0.0
vt 0.000000 0.000000 0.0
vn 1.220472 1.629921 1.559055
vn 1.559055 1.629921 1.220472
vn 1.992126 1.023622 0.086614
f 63/418/418 61/419/419 78/420/420
#fvcolorindex 65 63 80 
usemtl m5EnvMappingTexScaleS0.031250TexScaleT0.031250
vt 0.000000 0.000000 0.0
vt 0.000000 0.000000 0.0
vt 0.000000 0.000000 0.0
vn 1.094488 1.629921 0.000000
vn 1.220472 1.629921 1.559055
vn 1.992126 1.023622 0.086614
f 65/421/421 63/422/422 78/423/423
#fvcolorindex 67 65 80 
usemtl m6EnvMappingTexScaleS0.031250TexScaleT0.031250
vt 0.000000 0.000000 0.0
vt 0.000000 0.000000 0.0
vt 0.000000 0.000000 0.0
vn 1.220472 1.629921 0.456693
vn 1.094488 1.629921 0.000000
vn 1.992126 1.023622 0.086614
f 67/424/424 65/425/425 78/426/426
#fvcolorindex 69 67 80 
usemtl m7EnvMappingTexScaleS0.031250TexScaleT0.031250
vt 0.000000 0.000000 0.0
vt 0.000000 0.000000 0.0
vt 0.000000 0.000000 0.0
vn 1.559055 1.629921 0.795276
vn 1.220472 1.629921 0.456693
vn 1.992126 1.023622 0.086614
f 69/427/427 67/428/428 78/429/429
#fvcolorindex 71 69 80 
usemtl m8EnvMappingTexScaleS0.031250TexScaleT0.031250
vt 0.000000 0.000000 0.0
vt 0.000000 0.000000 0.0
vt 0.000000 0.000000 0.0
vn 0.000000 1.629921 0.921260
vn 1.559055 1.629921 0.795276
vn 1.992126 1.023622 0.086614
f 71/430/430 69/431/431 78/432/432
#fvcolorindex 73 71 80 
g Room07
g Room07_primary
usemtl m24EnvMappingTexScaleS0.031250TexScaleT0.031250
vt 0.000000 0.000000 0.0
vt 0.000000 0.000000 0.0
vt 0.000000 0.000000 0.0
v 6.000000 -17.997311 -18.002487
#joint 33
#vjoint 79
#vcolor 62.000000 165.000000 195.000000 255.000000
v -6.000000 -17.997311 -18.002487
#joint 33
#vjoint 80
#vcolor 194.000000 165.000000 195.000000 255.000000
v -6.000000 0.002689 -44.002487
#joint 33
#vjoint 81
#vcolor 178.000000 165.000000 216.000000 255.000000
vn 0.488189 1.299213 1.535433
vn 1.527559 1.299213 1.535433
vn 1.401575 1.299213 1.700787
f 79/433/433 80/434/434 81/435/435
#fvcolorindex 82 83 84 
vt 0.000000 0.000000 0.0
vt 0.000000 0.000000 0.0
vt 0.000000 0.000000 0.0
v 6.000000 0.002689 -44.002487
#joint 33
#vjoint 82
#vcolor 78.000000 165.000000 216.000000 255.000000
vn 0.488189 1.299213 1.535433
vn 1.401575 1.299213 1.700787
vn 0.614173 1.299213 1.700787
f 79/436/436 81/437/437 82/438/438
#fvcolorindex 82 84 85 
usemtl m25EnvMappingTexScaleS0.031250TexScaleT0.031250
vt 0.000000 0.000000 0.0
vt 0.000000 0.000000 0.0
vt 0.000000 0.000000 0.0
v -6.000000 6.002689 -66.002487
#joint 33
#vjoint 83
#vcolor 199.000000 155.000000 206.000000 255.000000
v 6.000000 6.002689 -66.002487
#joint 33
#vjoint 84
#vcolor 57.000000 155.000000 206.000000 255.000000
vn 1.566929 1.220472 1.622047
vn 0.448819 1.220472 1.622047
vn 0.614173 1.299213 1.700787
f 83/439/439 84/440/440 82/441/441
#fvcolorindex 86 87 85 
vt 0.000000 0.000000 0.0
vt 0.000000 0.000000 0.0
vt 0.000000 0.000000 0.0
vn 1.566929 1.220472 1.622047
vn 0.614173 1.299213 1.700787
vn 1.401575 1.299213 1.700787
f 83/442/442 82/443/443 81/444/444
#fvcolorindex 86 85 84 
usemtl m26EnvMappingTexScaleS0.031250TexScaleT0.031250
vt 0.000000 0.000000 0.0
vt 0.000000 0.000000 0.0
vt 0.000000 0.000000 0.0
v -12.000000 13.002689 -69.002487
#joint 33
#vjoint 85
#vcolor 201.000000 166.000000 186.000000 255.000000
vn 0.448819 1.220472 1.622047
vn 1.566929 1.220472 1.622047
vn 1.582677 1.307087 1.464567
f 84/445/445 83/446/446 85/447/447
#fvcolorindex 87 86 88 
vt 0.000000 0.000000 0.0
vt 0.000000 0.000000 0.0
vt 0.000000 0.000000 0.0
v 13.000000 13.002689 -69.002487
#joint 33
#vjoint 86
#vcolor 55.000000 166.000000 186.000000 255.000000
vn 0.448819 1.220472 1.622047
vn 1.582677 1.307087 1.464567
vn 0.433071 1.307087 1.464567
f 84/448/448 85/449/449 86/450/450
#fvcolorindex 87 88 89 
usemtl m27EnvMappingTexScaleS0.031250TexScaleT0.031250
vt 0.000000 0.000000 0.0
vt 0.000000 0.000000 0.0
vt 0.000000 0.000000 0.0
#vcolor 0.000000 127.000000 0.000000 255.000000
v -12.000000 13.002689 -56.002487
#joint 33
#vjoint 87
#vcolor 0.000000 126.000000 15.000000 255.000000
vn 0.000000 1.000000 0.000000
vn 0.000000 1.000000 0.000000
vn 0.000000 0.992126 0.118110
f 86/451/451 85/452/452 87/453/453
#fvcolorindex 90 90 91 
vt 0.000000 0.000000 0.0
vt 0.000000 0.000000 0.0
vt 0.000000 0.000000 0.0
v 13.000000 13.002689 -56.002487
#joint 33
#vjoint 88
vn 0.000000 1.000000 0.000000
vn 0.000000 0.992126 0.118110
vn 0.000000 0.992126 0.118110
f 86/454/454 87/455/455 88/456/456
#fvcolorindex 90 91 91 
usemtl m28EnvMappingTexScaleS0.031250TexScaleT0.031250
vt 0.000000 0.000000 0.0
vt 0.000000 0.000000 0.0
vt 0.000000 0.000000 0.0
v -12.000000 9.002689 -44.002487
#joint 33
#vjoint 89
#vcolor 0.000000 119.000000 44.000000 255.000000
vn 0.000000 0.992126 0.118110
vn 0.000000 0.992126 0.118110
vn 0.000000 0.937008 0.346457
f 88/457/457 87/458/458 89/459/459
#fvcolorindex 91 91 92 
vt 0.000000 0.000000 0.0
vt 0.000000 0.000000 0.0
vt 0.000000 0.000000 0.0
v 13.000000 9.002689 -44.002487
#joint 33
#vjoint 90
vn 0.000000 0.992126 0.118110
vn 0.000000 0.937008 0.346457
vn 0.000000 0.937008 0.346457
f 88/460/460 89/461/461 90/462/462
#fvcolorindex 91 92 92 
usemtl m29EnvMappingTexScaleS0.031250TexScaleT0.031250
vt 0.000000 0.000000 0.0
vt 0.000000 0.000000 0.0
vt 0.000000 0.000000 0.0
v -12.000000 0.000000 -24.999994
#joint 34
#vjoint 91
#vcolor 0.000000 113.000000 56.000000 255.000000
vn 0.000000 0.937008 0.346457
vn 0.000000 0.937008 0.346457
vn 0.000000 0.889764 0.440945
f 90/463/463 89/464/464 91/465/465
#fvcolorindex 92 92 93 
vt 0.000000 0.000000 0.0
vt 0.000000 0.000000 0.0
vt 0.000000 0.000000 0.0
v 13.000000 0.000000 -24.999994
#joint 34
#vjoint 92
vn 0.000000 0.937008 0.346457
vn 0.000000 0.889764 0.440945
vn 0.000000 0.889764 0.440945
f 90/466/466 91/467/467 92/468/468
#fvcolorindex 92 93 93 
usemtl m26EnvMappingTexScaleS0.031250TexScaleT0.031250
vt 0.000000 0.000000 0.0
vt 0.000000 0.000000 0.0
vt 0.000000 0.000000 0.0
#vcolor 99.000000 179.000000 244.000000 255.000000
vn 0.448819 1.220472 1.622047
vn 0.433071 1.307087 1.464567
vn 0.779528 1.409449 1.921260
f 84/469/469 86/470/470 88/471/471
#fvcolorindex 87 89 94 
vt 0.000000 0.000000 0.0
vt 0.000000 0.000000 0.0
vt 0.000000 0.000000 0.0
vn 0.448819 1.220472 1.622047
vn 0.779528 1.409449 1.921260
vn 0.614173 1.299213 1.700787
f 84/472/472 88/473/473 82/474/474
#fvcolorindex 87 94 85 
usemtl m30EnvMappingTexScaleS0.031250TexScaleT0.031250
vt 0.000000 0.000000 0.0
vt 0.000000 0.000000 0.0
vt 0.000000 0.000000 0.0
#vcolor 103.000000 188.000000 231.000000 255.000000
vn 0.614173 1.299213 1.700787
vn 0.779528 1.409449 1.921260
vn 0.811024 1.480315 1.818898
f 82/475/475 88/476/476 90/477/477
#fvcolorindex 85 94 95 
usemtl m31EnvMappingTexScaleS0.031250TexScaleT0.031250
vt 0.000000 0.000000 0.0
vt 0.000000 0.000000 0.0
vt 0.000000 0.000000 0.0
#vcolor 105.000000 196.000000 221.000000 255.000000
vn 0.826772 1.543307 1.740157
vn 0.614173 1.299213 1.700787
vn 0.811024 1.480315 1.818898
f 92/478/478 82/479/479 90/480/480
#fvcolorindex 96 85 95 
usemtl m24EnvMappingTexScaleS0.031250TexScaleT0.031250
vt 0.000000 0.000000 0.0
vt 0.000000 0.000000 0.0
vt 0.000000 0.000000 0.0
vn 0.488189 1.299213 1.535433
vn 0.614173 1.299213 1.700787
vn 0.826772 1.543307 1.740157
f 79/481/481 82/482/482 92/483/483
#fvcolorindex 82 85 96 
usemtl m32EnvMappingTexScaleS0.031250TexScaleT0.031250
vt 0.000000 0.000000 0.0
vt 0.000000 0.000000 0.0
vt 0.000000 0.000000 0.0
#vcolor 157.000000 179.000000 244.000000 255.000000
vn 1.236220 1.409449 1.921260
vn 1.582677 1.307087 1.464567
vn 1.566929 1.220472 1.622047
f 87/484/484 85/485/485 83/486/486
#fvcolorindex 97 88 86 
vt 0.000000 0.000000 0.0
vt 0.000000 0.000000 0.0
vt 0.000000 0.000000 0.0
vn 1.236220 1.409449 1.921260
vn 1.566929 1.220472 1.622047
vn 1.401575 1.299213 1.700787
f 87/487/487 83/488/488 81/489/489
#fvcolorindex 97 86 84 
usemtl m33EnvMappingTexScaleS0.031250TexScaleT0.031250
vt 0.000000 0.000000 0.0
vt 0.000000 0.000000 0.0
vt 0.000000 0.000000 0.0
#vcolor 153.000000 188.000000 231.000000 255.000000
vn 1.204724 1.480315 1.818898
vn 1.236220 1.409449 1.921260
vn 1.401575 1.299213 1.700787
f 89/490/490 87/491/491 81/492/492
#fvcolorindex 98 97 84 
vt 0.000000 0.000000 0.0
vt 0.000000 0.000000 0.0
vt 0.000000 0.000000 0.0
#vcolor 151.000000 196.000000 221.000000 255.000000
vn 1.204724 1.480315 1.818898
vn 1.401575 1.299213 1.700787
vn 1.188976 1.543307 1.740157
f 89/493/493 81/494/494 91/495/495
#fvcolorindex 98 84 99 
usemtl m34EnvMappingTexScaleS0.031250TexScaleT0.031250
vt 0.000000 0.000000 0.0
vt 0.000000 0.000000 0.0
vt 0.000000 0.000000 0.0
vn 1.188976 1.543307 1.740157
vn 1.401575 1.299213 1.700787
vn 1.527559 1.299213 1.535433
f 91/496/496 81/497/497 80/498/498
#fvcolorindex 99 84 83 
usemtl m35EnvMappingTexScaleS0.031250TexScaleT0.031250
vt 0.000000 0.000000 0.0
vt 0.000000 0.000000 0.0
vt 0.000000 0.000000 0.0
v -12.000000 25.000000 0.000006
#joint 34
#vjoint 93
#vcolor 169.000000 91.000000 0.000000 255.000000
v 13.000000 25.000000 0.000006
#joint 34
#vjoint 94
#vcolor 87.000000 91.000000 0.000000 255.000000
v 13.000000 18.000000 -17.999994
#joint 34
#vjoint 95
#vcolor 60.000000 81.000000 181.000000 255.000000
vn 1.330709 0.716535 0.000000
vn 0.685039 0.716535 0.000000
vn 0.472441 0.637795 1.425197
f 93/499/499 94/500/500 95/501/501
#fvcolorindex 100 101 102 
vt 0.000000 0.000000 0.0
vt 0.000000 0.000000 0.0
vt 0.000000 0.000000 0.0
v -12.000000 18.000000 -17.999994
#joint 34
#vjoint 96
#vcolor 196.000000 81.000000 181.000000 255.000000
vn 1.330709 0.716535 0.000000
vn 0.472441 0.637795 1.425197
vn 1.543307 0.637795 1.425197
f 93/502/502 95/503/503 96/504/504
#fvcolorindex 100 102 103 
usemtl m36EnvMappingTexScaleS0.031250TexScaleT0.031250
vt 0.000000 0.000000 0.0
vt 0.000000 0.000000 0.0
vt 0.000000 0.000000 0.0
v -12.000000 18.000000 18.000006
#joint 34
#vjoint 97
#vcolor 147.000000 51.000000 37.000000 255.000000
v 13.000000 18.000000 18.000006
#joint 34
#vjoint 98
#vcolor 109.000000 51.000000 37.000000 255.000000
vn 1.157480 0.401575 0.291339
vn 0.858268 0.401575 0.291339
vn 0.685039 0.716535 0.000000
f 97/505/505 98/506/506 94/507/507
#fvcolorindex 104 105 101 
vt 0.000000 0.000000 0.0
vt 0.000000 0.000000 0.0
vt 0.000000 0.000000 0.0
vn 1.157480 0.401575 0.291339
vn 0.685039 0.716535 0.000000
vn 1.330709 0.716535 0.000000
f 97/508/508 94/509/509 93/510/510
#fvcolorindex 104 101 100 
usemtl m37EnvMappingTexScaleS0.031250TexScaleT0.031250
vt 0.000000 0.000000 0.0
vt 0.000000 0.000000 0.0
vt 0.000000 0.000000 0.0
v -12.000000 -18.000000 -17.999994
#joint 34
#vjoint 99
#vcolor 0.000000 167.000000 167.000000 255.000000
v 13.000000 -18.000000 -17.999994
#joint 34
#vjoint 100
#vcolor 42.000000 172.000000 172.000000 255.000000
v 13.000000 -25.000000 0.000006
#joint 34
#vjoint 101
#vcolor 0.000000 139.000000 208.000000 255.000000
vn 0.000000 1.314961 1.314961
vn 0.330709 1.354331 1.354331
vn 0.000000 1.094488 1.637795
f 99/511/511 100/512/512 101/513/513
#fvcolorindex 106 107 108 
vt 0.000000 0.000000 0.0
vt 0.000000 0.000000 0.0
vt 0.000000 0.000000 0.0
v -12.000000 -25.000000 0.000006
#joint 34
#vjoint 102
#vcolor 147.000000 193.000000 246.000000 255.000000
vn 0.000000 1.314961 1.314961
vn 0.000000 1.094488 1.637795
vn 1.157480 1.519685 1.937008
f 99/514/514 101/515/515 102/516/516
#fvcolorindex 106 108 109 
usemtl m38EnvMappingTexScaleS0.031250TexScaleT0.031250
vt 0.000000 0.000000 0.0
vt 0.000000 0.000000 0.0
vt 0.000000 0.000000 0.0
#vcolor 0.000000 0.000000 129.000000 255.000000
#vcolor 42.000000 0.000000 137.000000 255.000000
vn 0.000000 0.000000 1.015748
vn 0.330709 0.000000 1.078740
vn 0.330709 1.354331 1.354331
f 91/517/517 92/518/518 100/519/519
#fvcolorindex 110 111 107 
vt 0.000000 0.000000 0.0
vt 0.000000 0.000000 0.0
vt 0.000000 0.000000 0.0
vn 0.000000 0.000000 1.015748
vn 0.330709 1.354331 1.354331
vn 0.000000 1.314961 1.314961
f 91/520/520 100/521/521 99/522/522
#fvcolorindex 110 107 106 
usemtl m39EnvMappingTexScaleS0.031250TexScaleT0.031250
vt 0.000000 0.000000 0.0
vt 0.000000 0.000000 0.0
vt 0.000000 0.000000 0.0
vn 1.543307 0.637795 1.425197
vn 0.472441 0.637795 1.425197
vn 0.330709 0.000000 1.078740
f 96/523/523 95/524/524 92/525/525
#fvcolorindex 103 102 111 
vt 0.000000 0.000000 0.0
vt 0.000000 0.000000 0.0
vt 0.000000 0.000000 0.0
vn 1.543307 0.637795 1.425197
vn 0.330709 0.000000 1.078740
vn 0.000000 0.000000 1.015748
f 96/526/526 92/527/527 91/528/528
#fvcolorindex 103 111 110 
usemtl m40
vt 1.000000 0.000000 0.0
vt 1.000000 1.000000 0.0
vt 0.034180 0.819824 0.0
v 6.000000 -43.997311 -16.002487
#joint 33
#vjoint 103
#vcolor 254.000000 254.000000 254.000000 255.000000
v 9.000000 -22.997311 -16.002487
#joint 33
#vjoint 104
#vcolor 165.000000 181.000000 213.000000 255.000000
#vcolor 68.000000 68.000000 68.000000 255.000000
f 103/529 104/530 101/531
#fvcolorindex 112 113 114 
vt 1.000000 0.000000 0.0
vt 0.034180 0.819824 0.0
vt 0.115234 0.000000 0.0
v 12.000000 -43.997311 2.997513
#joint 33
#vjoint 105
f 103/532 101/533 105/534
#fvcolorindex 112 114 112 
vt 0.993164 1.227051 0.0
vt 0.002930 0.986328 0.0
vt 0.168945 -0.065918 0.0
v 12.000000 -68.997314 -0.002487
#joint 33
#vjoint 106
f 103/535 105/536 106/537
#fvcolorindex 112 112 112 
vt 1.000000 0.000000 0.0
vt 0.993164 1.227051 0.0
vt 0.168945 -0.065918 0.0
v 9.000000 -71.997314 -16.002487
#joint 33
#vjoint 107
f 107/538 103/539 106/540
#fvcolorindex 112 112 112 
vt 1.000000 1.677246 0.0
vt 0.109375 1.993164 0.0
vt 0.000000 0.000000 0.0
v 16.000000 -105.997314 -9.002487
#joint 33
#vjoint 108
f 107/541 106/542 108/543
#fvcolorindex 112 112 112 
vt 1.000000 0.000000 0.0
vt 1.000000 1.677246 0.0
vt 0.000000 0.000000 0.0
v 13.000000 -102.997314 -25.002487
#joint 33
#vjoint 109
f 109/544 107/545 108/546
#fvcolorindex 112 112 112 
vt 1.498047 0.240723 0.0
vt 1.000000 1.000000 0.0
vt 1.000000 0.000000 0.0
v -8.000000 -22.997311 -16.002487
#joint 33
#vjoint 110
f 110/547 104/548 103/549
#fvcolorindex 112 113 112 
vt 1.498047 0.240723 0.0
vt 1.000000 0.000000 0.0
vt 1.284180 -0.433594 0.0
v -5.000000 -43.997311 -16.002487
#joint 33
#vjoint 111
f 110/550 103/551 111/552
#fvcolorindex 112 112 112 
vt 1.249023 1.289551 0.0
vt 0.993164 1.227051 0.0
vt 1.000000 0.000000 0.0
f 111/553 103/554 107/555
#fvcolorindex 112 112 112 
vt 1.249023 1.289551 0.0
vt 1.000000 0.000000 0.0
vt 1.255859 0.062012 0.0
v -9.000000 -71.997314 -16.002487
#joint 33
#vjoint 112
f 111/556 107/557 112/558
#fvcolorindex 112 112 112 
vt 1.298828 1.700195 0.0
vt 1.000000 1.677246 0.0
vt 1.000000 0.000000 0.0
f 112/559 107/560 109/561
#fvcolorindex 112 112 112 
vt 1.298828 1.700195 0.0
vt 1.000000 0.000000 0.0
vt 1.298828 0.022949 0.0
v -12.000000 -102.997314 -25.002487
#joint 33
#vjoint 113
f 112/562 109/563 113/564
#fvcolorindex 112 112 112 
vt 0.999023 1.700195 0.0
vt 0.999023 0.022949 0.0
vt 0.374023 0.028809 0.0
v -16.000000 -105.997314 -9.002487
#joint 33
#vjoint 114
f 112/565 113/566 114/567
#fvcolorindex 112 112 112 
vt 0.482422 2.021973 0.0
vt 0.999023 1.700195 0.0
vt 0.374023 0.028809 0.0
v -12.000000 -68.997314 -0.002487
#joint 33
#vjoint 115
f 115/568 112/569 114/570
#fvcolorindex 112 112 112 
vt 0.999023 1.289551 0.0
vt 0.999023 0.062012 0.0
vt 0.488281 0.012207 0.0
f 111/571 112/572 115/573
#fvcolorindex 112 112 112 
vt 0.999023 1.289551 0.0
vt 0.488281 0.012207 0.0
vt 0.322266 1.063965 0.0
v -12.000000 -43.997311 2.997513
#joint 33
#vjoint 116
#vcolor 48.000000 48.000000 48.000000 255.000000
f 111/574 115/575 116/576
#fvcolorindex 112 112 115 
usemtl m41
vt 0.470703 -0.542480 0.0
vt 0.532227 0.060547 0.0
vt 0.999023 -0.433594 0.0
f 116/577 102/578 111/579
#fvcolorindex 115 115 112 
usemtl m40
vt 0.999023 -0.433594 0.0
vt 0.532227 0.060547 0.0
vt 0.999023 0.240723 0.0
f 111/580 102/581 110/582
#fvcolorindex 112 115 115 
usemtl m42
vt 2.035156 0.791016 0.0
vt 2.013672 0.986328 0.0
vt -0.001953 0.941406 0.0
v 13.000000 9.002689 74.997513
#joint 33
#vjoint 117
v 9.000000 12.002689 74.997513
#joint 33
#vjoint 118
v 6.000000 6.002689 99.997513
#joint 33
#vjoint 119
f 117/583 118/584 119/585
#fvcolorindex 112 112 112 
vt 2.035156 0.791016 0.0
vt -0.001953 0.941406 0.0
vt 0.019531 0.746094 0.0
v 9.000000 3.002689 99.997513
#joint 33
#vjoint 120
f 117/586 119/587 120/588
#fvcolorindex 112 112 112 
usemtl m43
vt 0.000000 0.267578 0.0
vt 2.001953 -0.005859 0.0
vt 2.035156 0.791016 0.0
v 9.000000 -5.997311 99.997513
#joint 33
#vjoint 121
#vcolor 86.000000 86.000000 86.000000 255.000000
v 13.000000 -5.997311 74.997513
#joint 33
#vjoint 122
#vcolor 10.000000 51.000000 68.000000 255.000000
f 121/589 122/590 117/591
#fvcolorindex 116 117 112 
vt 0.000000 0.267578 0.0
vt 2.035156 0.791016 0.0
vt 0.019531 0.746094 0.0
f 121/592 117/593 120/594
#fvcolorindex 116 112 112 
usemtl m44
vt 1.765625 0.279297 0.0
vt 2.001953 -0.005859 0.0
vt 0.000000 0.267578 0.0
v -12.000000 -5.997311 74.997513
#joint 33
#vjoint 123
#vcolor 0.000000 0.000000 0.000000 255.000000
f 123/595 122/596 121/597
#fvcolorindex 118 117 116 
vt 1.765625 0.279297 0.0
vt 0.000000 0.267578 0.0
vt -0.175781 0.480469 0.0
v -9.000000 -5.997311 99.997513
#joint 33
#vjoint 124
f 123/598 121/599 124/600
#fvcolorindex 118 116 116 
usemtl m42
vt 0.042969 0.798828 0.0
vt 2.050781 0.753906 0.0
vt 1.978516 0.021484 0.0
v -9.000000 3.002689 99.997513
#joint 33
#vjoint 125
v -12.000000 9.002689 74.997513
#joint 33
#vjoint 126
f 125/601 126/602 123/603
#fvcolorindex 112 112 117 
vt 0.042969 0.798828 0.0
vt 1.978516 0.021484 0.0
vt 0.000000 0.359375 0.0
f 125/604 123/605 124/606
#fvcolorindex 112 117 116 
vt 0.029297 0.978516 0.0
vt 2.039062 0.935547 0.0
vt 2.050781 0.753906 0.0
v -6.000000 6.002689 99.997513
#joint 33
#vjoint 127
v -9.000000 12.002689 74.997513
#joint 33
#vjoint 128
f 127/607 128/608 126/609
#fvcolorindex 112 112 112 
vt 0.029297 0.978516 0.0
vt 2.050781 0.753906 0.0
vt 0.042969 0.798828 0.0
f 127/610 126/611 125/612
#fvcolorindex 112 112 112 
vt 0.000000 -0.447266 0.0
vt 0.000000 -0.140625 0.0
vt 2.000000 -0.062500 0.0
f 127/613 119/614 118/615
#fvcolorindex 112 112 112 
vt 0.000000 -0.447266 0.0
vt 2.000000 -0.062500 0.0
vt 2.000000 -0.523438 0.0
f 127/616 118/617 128/618
#fvcolorindex 112 112 112 
usemtl m45
vt 0.066406 4.358398 0.0
vt 0.868164 4.612305 0.0
vt -1.407227 4.291016 0.0
v 22.000000 18.002689 17.997513
#joint 33
#vjoint 129
#vcolor 120.000000 120.000000 120.000000 255.000000
v 22.000000 25.002689 -0.002487
#joint 33
#vjoint 130
v 22.000000 16.002689 49.997513
#joint 33
#vjoint 131
f 129/619 130/620 131/621
#fvcolorindex 119 119 112 
vt 0.066406 4.358398 0.0
vt -1.407227 4.291016 0.0
vt -0.256836 3.739258 0.0
v 22.000000 0.002689 24.997513
#joint 33
#vjoint 132
f 129/622 131/623 132/624
#fvcolorindex 119 112 119 
vt -0.256836 3.739258 0.0
vt -1.407227 4.291016 0.0
vt -1.534180 3.414062 0.0
v 22.000000 -8.997311 52.997513
#joint 33
#vjoint 133
f 132/625 131/626 133/627
#fvcolorindex 119 112 117 
usemtl m46
vt 0.088867 3.118164 0.0
vt -0.256836 3.739258 0.0
vt -1.534180 3.414062 0.0
v 22.000000 -17.997311 17.997513
#joint 33
#vjoint 134
f 134/628 132/629 133/630
#fvcolorindex 116 119 117 
vt 0.088867 3.118164 0.0
vt -1.534180 3.414062 0.0
vt -0.239258 2.751953 0.0
v 22.000000 -27.997311 24.997513
#joint 33
#vjoint 135
#vcolor 136.000000 136.000000 136.000000 255.000000
f 134/631 133/632 135/633
#fvcolorindex 116 117 120 
usemtl m47
vt 0.899414 2.858398 0.0
vt 0.088867 3.118164 0.0
vt -0.239258 2.751953 0.0
v 22.000000 -24.997311 -0.002487
#joint 33
#vjoint 136
f 136/634 134/635 135/636
#fvcolorindex 117 116 120 
vt 0.899414 2.858398 0.0
vt -0.239258 2.751953 0.0
vt -0.445312 2.300781 0.0
v 6.000000 -40.997311 27.997513
#joint 33
#vjoint 137
f 136/637 135/638 137/639
#fvcolorindex 117 120 117 
vt -2.587891 3.516602 0.0
vt -1.534180 3.414062 0.0
vt -1.407227 4.291016 0.0
f 122/640 133/641 131/642
#fvcolorindex 117 117 112 
vt -2.587891 3.516602 0.0
vt -1.407227 4.291016 0.0
vt -2.597656 4.064453 0.0
#vcolor 165.000000 213.000000 213.000000 255.000000
f 122/643 131/644 117/645
#fvcolorindex 117 112 121 
vt -1.000000 -3.556641 0.0
vt 0.000000 -3.556641 0.0
vt 0.666992 -2.416016 0.0
v -6.000000 -40.997311 27.997513
#joint 33
#vjoint 138
#vcolor 27.000000 27.000000 27.000000 255.000000
f 138/646 137/647 135/648
#fvcolorindex 117 117 122 
vt -1.000000 -3.556641 0.0
vt 0.666992 -2.416016 0.0
vt -1.666992 -2.416016 0.0
v -22.000000 -27.997311 24.997513
#joint 33
#vjoint 139
f 138/649 135/650 139/651
#fvcolorindex 117 122 122 
usemtl m48
vt -1.666992 -2.416016 0.0
vt 0.666992 -2.416016 0.0
vt 0.666992 -1.409180 0.0
f 139/652 135/653 133/654
#fvcolorindex 122 122 117 
vt -1.666992 -2.416016 0.0
vt 0.666992 -1.409180 0.0
vt -1.666992 -1.409180 0.0
v -22.000000 -8.997311 52.997513
#joint 33
#vjoint 140
f 139/655 133/656 140/657
#fvcolorindex 122 117 117 
usemtl m47
vt -1.666992 -1.409180 0.0
vt 0.666992 -1.409180 0.0
vt 0.166992 -1.610352 0.0
f 140/658 133/659 122/660
#fvcolorindex 117 117 117 
vt -1.666992 -1.409180 0.0
vt 0.166992 -1.610352 0.0
vt -1.166992 -1.610352 0.0
f 140/661 122/662 123/663
#fvcolorindex 117 117 117 
usemtl m49
vt -2.739258 4.037109 0.0
vt -1.656250 4.243164 0.0
vt -1.783203 3.366211 0.0
v -22.000000 16.002689 49.997513
#joint 33
#vjoint 141
f 126/664 141/665 140/666
#fvcolorindex 121 112 117 
vt -2.739258 4.037109 0.0
vt -1.783203 3.366211 0.0
vt -2.729492 3.489258 0.0
f 126/667 140/668 123/669
#fvcolorindex 121 117 117 
usemtl m50
vt 2.094727 1.548828 0.0
vt 0.000000 1.548828 0.0
vt 1.050781 1.316406 0.0
v -19.000000 28.002689 -0.002487
#joint 33
#vjoint 142
#vcolor 103.000000 103.000000 103.000000 255.000000
v -19.000000 19.002689 49.997513
#joint 33
#vjoint 143
v -12.000000 23.002689 24.997513
#joint 33
#vjoint 144
#vcolor 197.000000 197.000000 197.000000 255.000000
f 142/670 143/671 144/672
#fvcolorindex 123 112 124 
usemtl m51
vt 0.000000 1.548828 0.0
vt 0.002930 1.316406 0.0
vt 1.050781 1.316406 0.0
v -12.000000 19.002689 49.997513
#joint 33
#vjoint 145
f 143/673 145/674 144/675
#fvcolorindex 112 124 124 
usemtl m52
vt 0.017578 0.385742 0.0
vt 0.021484 0.153320 0.0
vt 1.065430 0.385742 0.0
v 13.000000 19.002689 49.997513
#joint 33
#vjoint 146
#vcolor 226.000000 226.000000 226.000000 255.000000
v 19.000000 19.002689 49.997513
#joint 33
#vjoint 147
v 13.000000 23.002689 24.997513
#joint 33
#vjoint 148
f 146/676 147/677 148/678
#fvcolorindex 125 112 125 
usemtl m51
vt 0.021484 0.153320 0.0
vt 2.116211 0.153320 0.0
vt 1.065430 0.385742 0.0
v 19.000000 28.002689 -0.002487
#joint 33
#vjoint 149
f 147/679 149/680 148/681
#fvcolorindex 112 125 125 
vt -1.042969 0.483398 0.0
vt 0.021484 0.153320 0.0
vt 0.017578 0.385742 0.0
f 118/682 147/683 146/684
#fvcolorindex 112 112 125 
usemtl m53
vt 0.002930 1.316406 0.0
vt 0.000000 1.548828 0.0
vt -1.053711 1.181641 0.0
f 145/685 143/686 128/687
#fvcolorindex 124 112 112 
usemtl m51
vt -1.053711 1.181641 0.0
vt -1.042969 0.483398 0.0
vt 0.017578 0.385742 0.0
f 128/688 118/689 146/690
#fvcolorindex 112 112 125 
vt -1.053711 1.181641 0.0
vt 0.017578 0.385742 0.0
vt 0.002930 1.316406 0.0
f 128/691 146/692 145/693
#fvcolorindex 112 125 124 
usemtl m46
vt 0.620117 4.565430 0.0
vt -0.182617 4.310547 0.0
vt -1.656250 4.243164 0.0
v -22.000000 25.002689 -0.002487
#joint 33
#vjoint 150
v -22.000000 18.002689 17.997513
#joint 33
#vjoint 151
f 150/694 151/695 141/696
#fvcolorindex 116 116 112 
usemtl m50
vt -0.505859 3.691406 0.0
vt -1.656250 4.243164 0.0
vt -0.182617 4.310547 0.0
v -22.000000 0.002689 24.997513
#joint 33
#vjoint 152
f 152/697 141/698 151/699
#fvcolorindex 123 112 116 
usemtl m47
vt -1.783203 3.366211 0.0
vt -1.656250 4.243164 0.0
vt -0.505859 3.691406 0.0
f 140/700 141/701 152/702
#fvcolorindex 117 112 123 
vt -1.783203 3.366211 0.0
vt -0.505859 3.691406 0.0
vt -0.160156 3.070312 0.0
v -22.000000 -17.997311 17.997513
#joint 33
#vjoint 153
f 140/703 152/704 153/705
#fvcolorindex 117 123 114 
usemtl m54
vt -0.488281 2.705078 0.0
vt -1.783203 3.366211 0.0
vt -0.160156 3.070312 0.0
f 139/706 140/707 153/708
#fvcolorindex 120 117 114 
vt -0.488281 2.705078 0.0
vt -0.160156 3.070312 0.0
vt 0.651367 2.811523 0.0
v -22.000000 -24.997311 -0.002487
#joint 33
#vjoint 154
f 139/709 153/710 154/711
#fvcolorindex 120 114 117 
usemtl m47
vt -0.551758 2.280273 0.0
vt -0.488281 2.705078 0.0
vt 0.651367 2.811523 0.0
f 138/712 139/713 154/714
#fvcolorindex 117 120 117 
vt 0.000000 0.000000 0.0
vt 0.000000 -0.302734 0.0
vt 2.512695 -0.302734 0.0
v 13.000000 16.002689 49.997513
#joint 33
#vjoint 155
v -12.000000 16.002689 49.997513
#joint 33
#vjoint 156
f 146/715 155/716 156/717
#fvcolorindex 117 117 114 
vt 0.000000 0.000000 0.0
vt 2.512695 -0.302734 0.0
vt 2.512695 0.000000 0.0
f 146/718 156/719 145/720
#fvcolorindex 117 114 114 
usemtl m55
vt 0.000000 0.000000 0.0
vt -0.041016 -0.324219 0.0
vt 1.909180 0.000000 0.0
f 145/721 156/722 144/723
#fvcolorindex 114 114 114 
usemtl m47
vt 1.871094 0.000000 0.0
vt -0.079102 -0.324219 0.0
vt -0.037109 0.000000 0.0
f 148/724 155/725 146/726
#fvcolorindex 117 122 117 
vt 1.000000 1.000000 0.0
vt 0.767578 0.000000 0.0
vt 1.000000 0.000000 0.0
f 137/727 101/728 136/729
#fvcolorindex 117 117 117 
vt 1.000000 1.000000 0.0
vt 0.703125 0.000000 0.0
vt 1.000000 0.000000 0.0
f 138/730 154/731 102/732
#fvcolorindex 117 117 117 
usemtl m56
vt 1.847656 3.086914 0.0
vt 3.782227 3.638672 0.0
vt 0.515625 3.844727 0.0
v 22.000000 18.002689 -18.002487
#joint 33
#vjoint 157
v 22.000000 28.002689 -41.002487
#joint 33
#vjoint 158
f 157/733 158/734 130/735
#fvcolorindex 115 112 119 
vt 2.248047 1.647461 0.0
vt 3.782227 3.638672 0.0
vt 1.847656 3.086914 0.0
v 22.000000 0.002689 -25.002487
#joint 33
#vjoint 159
f 159/736 158/737 157/738
#fvcolorindex 115 112 115 
vt 3.773438 1.681641 0.0
vt 3.782227 3.638672 0.0
vt 2.248047 1.647461 0.0
v 22.000000 3.002689 -44.002487
#joint 33
#vjoint 160
f 160/739 158/740 159/741
#fvcolorindex 115 112 115 
usemtl m57
vt 6.518555 3.260742 0.0
vt 3.782227 3.638672 0.0
vt 3.773438 1.681641 0.0
v 22.000000 28.002689 -75.002487
#joint 33
#vjoint 161
f 161/742 158/743 160/744
#fvcolorindex 117 112 115 
vt 6.518555 3.260742 0.0
vt 3.773438 1.681641 0.0
vt 6.421875 2.540039 0.0
v 22.000000 19.002689 -75.002487
#joint 33
#vjoint 162
f 161/745 160/746 162/747
#fvcolorindex 117 115 117 
usemtl m56
vt 3.773438 1.681641 0.0
vt 2.248047 1.647461 0.0
vt 1.482422 0.369141 0.0
v 22.000000 -17.997311 -18.002487
#joint 33
#vjoint 163
f 160/748 159/749 163/750
#fvcolorindex 115 115 122 
usemtl m58
vt 1.773438 0.000000 0.0
vt 3.773438 1.681641 0.0
vt 1.482422 0.369141 0.0
v 22.000000 -21.997311 -22.002487
#joint 33
#vjoint 164
f 164/751 160/752 163/753
#fvcolorindex 122 115 122 
vt 1.773438 0.000000 0.0
vt 1.482422 0.369141 0.0
vt 0.000000 0.000000 0.0
f 164/754 163/755 136/756
#fvcolorindex 122 122 122 
usemtl m57
vt -0.005859 3.454102 0.0
vt -0.447266 4.461914 0.0
vt 1.453125 3.643555 0.0
f 105/757 101/758 137/759
#fvcolorindex 117 117 117 
usemtl m59
vt 0.105469 2.071289 0.0
vt -0.005859 3.454102 0.0
vt 1.453125 3.643555 0.0
f 106/760 105/761 137/762
#fvcolorindex 112 117 117 
vt 0.105469 2.071289 0.0
vt 1.453125 3.643555 0.0
vt 1.347656 1.572266 0.0
v 7.000000 -77.997314 18.997513
#joint 33
#vjoint 165
f 106/763 137/764 165/765
#fvcolorindex 112 117 117 
vt 0.000000 0.000000 0.0
vt 0.105469 2.071289 0.0
vt 1.347656 1.572266 0.0
f 108/766 106/767 165/768
#fvcolorindex 112 112 117 
usemtl m57
vt 1.476562 0.000000 0.0
vt 0.000000 0.000000 0.0
vt 1.347656 1.572266 0.0
v 13.000000 -105.997314 15.997513
#joint 33
#vjoint 166
f 166/769 108/770 165/771
#fvcolorindex 117 112 117 
vt 0.000000 0.000000 0.0
vt 0.244141 1.558594 0.0
vt 1.218750 1.558594 0.0
v -7.000000 -77.997314 18.997513
#joint 33
#vjoint 167
f 166/772 165/773 167/774
#fvcolorindex 117 117 117 
vt 0.000000 0.000000 0.0
vt 1.218750 1.558594 0.0
vt 1.300781 0.000000 0.0
v -12.000000 -105.997314 15.997513
#joint 33
#vjoint 168
f 166/775 167/776 168/777
#fvcolorindex 117 117 117 
vt 1.218750 1.558594 0.0
vt 0.244141 1.558594 0.0
vt 0.353516 3.668945 0.0
f 167/778 165/779 137/780
#fvcolorindex 117 117 117 
vt 1.218750 1.558594 0.0
vt 0.353516 3.668945 0.0
vt 1.329102 3.668945 0.0
f 167/781 137/782 138/783
#fvcolorindex 117 117 117 
vt 0.000000 0.000000 0.0
vt 0.000000 3.682617 0.0
vt 0.327148 0.000000 0.0
v 19.000000 19.002689 -75.002487
#joint 33
#vjoint 169
f 162/784 160/785 169/786
#fvcolorindex 117 122 114 
usemtl m58
vt 0.000000 3.682617 0.0
vt 0.981445 3.682617 0.0
vt 0.981445 0.000000 0.0
v 13.000000 3.002689 -44.002487
#joint 33
#vjoint 170
v 13.000000 19.002689 -75.002487
#joint 33
#vjoint 171
f 160/787 170/788 171/789
#fvcolorindex 122 122 114 
vt 0.000000 3.682617 0.0
vt 0.981445 0.000000 0.0
vt 0.327148 0.000000 0.0
f 160/790 171/791 169/792
#fvcolorindex 122 114 114 
usemtl m60
vt 2.472656 9.839844 0.0
vt 2.472656 7.183594 0.0
vt 1.977539 7.183594 0.0
v -19.000000 31.002689 -75.002487
#joint 33
#vjoint 172
v -19.000000 31.002689 -41.002487
#joint 33
#vjoint 173
#vcolor 213.000000 174.000000 165.000000 255.000000
v -12.000000 31.002689 -41.002487
#joint 33
#vjoint 174
f 172/793 173/794 174/795
#fvcolorindex 114 126 126 
vt 2.472656 9.839844 0.0
vt 1.977539 7.183594 0.0
vt 1.977539 9.839844 0.0
v -12.000000 31.002689 -75.002487
#joint 33
#vjoint 175
f 172/796 174/797 175/798
#fvcolorindex 114 126 114 
usemtl m61
vt 1.977539 7.183594 0.0
vt 2.472656 7.183594 0.0
vt 2.472656 3.999023 0.0
f 174/799 173/800 142/801
#fvcolorindex 126 126 123 
vt 1.977539 7.183594 0.0
vt 2.472656 3.999023 0.0
vt 1.977539 3.999023 0.0
v -12.000000 28.002689 -0.002487
#joint 33
#vjoint 176
f 174/802 142/803 176/804
#fvcolorindex 126 123 119 
usemtl m62
vt 1.977539 3.999023 0.0
vt 2.472656 3.999023 0.0
vt 1.977539 2.000000 0.0
f 176/805 142/806 144/807
#fvcolorindex 119 123 123 
usemtl m61
vt 0.000000 0.000000 0.0
vt 0.000000 2.000000 0.0
vt 1.977539 2.000000 0.0
f 155/808 148/809 144/810
#fvcolorindex 126 126 123 
vt 0.000000 0.000000 0.0
vt 1.977539 2.000000 0.0
vt 1.977539 0.000000 0.0
f 155/811 144/812 156/813
#fvcolorindex 126 123 123 
vt 0.000000 2.000000 0.0
vt 0.989258 3.000000 0.0
vt 1.977539 2.000000 0.0
v 0.000000 26.002689 12.997513
#joint 33
#vjoint 177
#vcolor 152.000000 152.000000 152.000000 255.000000
f 148/814 177/815 144/816
#fvcolorindex 126 127 123 
vt 0.000000 2.000000 0.0
vt 0.494141 3.133789 0.0
vt 0.989258 3.000000 0.0
v 6.000000 26.002689 10.997513
#joint 33
#vjoint 178
f 148/817 178/818 177/819
#fvcolorindex 126 126 127 
vt 0.000000 2.000000 0.0
vt 0.132812 3.499023 0.0
vt 0.494141 3.133789 0.0
v 11.000000 27.002689 5.997513
#joint 33
#vjoint 179
f 148/820 179/821 178/822
#fvcolorindex 126 126 126 
vt 0.000000 2.000000 0.0
vt 0.000000 3.999023 0.0
vt 0.132812 3.499023 0.0
v 13.000000 28.002689 -0.002487
#joint 33
#vjoint 180
f 148/823 180/824 179/825
#fvcolorindex 126 126 126 
usemtl m63
vt 0.989258 3.000000 0.0
vt 1.483398 3.133789 0.0
vt 1.977539 2.000000 0.0
v -6.000000 26.002689 10.997513
#joint 33
#vjoint 181
f 177/826 181/827 144/828
#fvcolorindex 127 119 123 
usemtl m62
vt 1.483398 3.133789 0.0
vt 1.845703 3.499023 0.0
vt 1.977539 2.000000 0.0
v -11.000000 27.002689 5.997513
#joint 33
#vjoint 182
f 181/829 182/830 144/831
#fvcolorindex 119 119 123 
vt 1.845703 3.499023 0.0
vt 1.977539 3.999023 0.0
vt 1.977539 2.000000 0.0
f 182/832 176/833 144/834
#fvcolorindex 119 119 123 
usemtl m61
vt -0.494141 3.999023 0.0
vt 0.000000 3.999023 0.0
vt 0.000000 2.000000 0.0
f 149/835 180/836 148/837
#fvcolorindex 126 126 126 
vt 0.000000 3.999023 0.0
vt -0.494141 3.999023 0.0
vt -0.494141 7.183594 0.0
v 19.000000 31.002689 -41.002487
#joint 33
#vjoint 183
f 180/838 149/839 183/840
#fvcolorindex 126 126 126 
vt 0.000000 3.999023 0.0
vt -0.494141 7.183594 0.0
vt 0.000000 7.183594 0.0
v 13.000000 31.002689 -41.002487
#joint 33
#vjoint 184
f 180/841 183/842 184/843
#fvcolorindex 126 126 126 
vt 0.000000 7.183594 0.0
vt -0.494141 7.183594 0.0
vt -0.494141 9.839844 0.0
v 19.000000 31.002689 -75.002487
#joint 33
#vjoint 185
f 184/844 183/845 185/846
#fvcolorindex 126 126 126 
vt 0.000000 7.183594 0.0
vt -0.494141 9.839844 0.0
vt 0.000000 9.839844 0.0
v 13.000000 31.002689 -75.002487
#joint 33
#vjoint 186
f 184/847 185/848 186/849
#fvcolorindex 126 126 126 
usemtl m64
vt 2.275391 2.165039 0.0
vt 0.038086 0.961914 0.0
vt 0.000000 0.000000 0.0
v -12.000000 3.002689 -44.002487
#joint 33
#vjoint 187
v -12.000000 19.002689 -75.002487
#joint 33
#vjoint 188
f 187/850 188/851 175/852
#fvcolorindex 116 114 114 
vt 2.275391 2.165039 0.0
vt 0.000000 0.000000 0.0
vt 2.409180 0.000000 0.0
f 187/853 175/854 174/855
#fvcolorindex 116 114 116 
usemtl m60
vt 3.884766 4.089844 0.0
vt 2.275391 2.165039 0.0
vt 2.409180 0.000000 0.0
v -8.000000 -21.997311 -22.002487
#joint 33
#vjoint 189
f 189/856 187/857 174/858
#fvcolorindex 114 116 116 
vt 3.884766 4.089844 0.0
vt 2.409180 0.000000 0.0
vt 5.266602 0.240234 0.0
f 189/859 174/860 176/861
#fvcolorindex 114 116 116 
vt 6.166016 -0.190430 0.0
vt 2.826172 0.000000 0.0
vt 2.569336 -1.713867 0.0
f 180/862 184/863 170/864
#fvcolorindex 114 114 114 
vt 6.166016 -0.190430 0.0
vt 2.569336 -1.713867 0.0
vt 4.368164 -3.237305 0.0
v 9.000000 -21.997311 -22.002487
#joint 33
#vjoint 190
f 180/865 170/866 190/867
#fvcolorindex 114 114 114 
vt 2.569336 -1.713867 0.0
vt 2.826172 0.000000 0.0
vt 0.000000 0.000000 0.0
f 170/868 184/869 186/870
#fvcolorindex 114 114 114 
vt 2.569336 -1.713867 0.0
vt 0.000000 0.000000 0.0
vt 0.000000 -0.761719 0.0
f 170/871 186/872 171/873
#fvcolorindex 114 114 114 
vt 1.000000 0.000000 0.0
vt 0.248047 0.000000 0.0
vt 0.248047 -1.310547 0.0
f 172/874 175/875 188/876
#fvcolorindex 114 114 114 
vt 1.000000 0.000000 0.0
vt 0.248047 -1.310547 0.0
vt 1.000000 -1.310547 0.0
v -19.000000 19.002689 -75.002487
#joint 33
#vjoint 191
f 172/877 188/878 191/879
#fvcolorindex 114 114 114 
vt 0.000000 0.000000 0.0
vt 0.000000 1.773438 0.0
vt 0.687500 1.773438 0.0
f 171/880 186/881 185/882
#fvcolorindex 114 114 114 
vt 0.000000 0.000000 0.0
vt 0.687500 1.773438 0.0
vt 0.687500 0.000000 0.0
f 171/883 185/884 169/885
#fvcolorindex 114 114 114 
usemtl m58
vt 0.000000 3.499023 0.0
vt 0.000000 0.000000 0.0
vt 1.000000 0.000000 0.0
f 190/886 170/887 160/888
#fvcolorindex 122 122 122 
vt 0.000000 3.499023 0.0
vt 1.000000 0.000000 0.0
vt 1.000000 3.499023 0.0
f 190/889 160/890 164/891
#fvcolorindex 122 122 122 
usemtl m60
vt 0.609375 0.000000 0.0
vt 0.000000 0.000000 0.0
vt 0.000000 2.513672 0.0
f 191/892 188/893 187/894
#fvcolorindex 114 114 122 
vt 0.609375 0.000000 0.0
vt 0.000000 2.513672 0.0
vt 0.914062 2.513672 0.0
v -22.000000 3.002689 -44.002487
#joint 33
#vjoint 192
f 191/895 187/896 192/897
#fvcolorindex 114 122 122 
usemtl m58
vt 1.000000 0.000000 0.0
vt 0.000000 0.000000 0.0
vt 0.000000 2.965820 0.0
f 192/898 187/899 189/900
#fvcolorindex 122 122 122 
vt 1.000000 0.000000 0.0
vt 0.000000 2.965820 0.0
vt 1.000000 2.965820 0.0
v -22.000000 -21.997311 -22.002487
#joint 33
#vjoint 193
f 192/901 189/902 193/903
#fvcolorindex 122 122 122 
usemtl m59
vt 0.010742 2.172852 0.0
vt 0.000000 0.000000 0.0
vt 1.180664 1.653320 0.0
f 115/904 114/905 167/906
#fvcolorindex 112 112 117 
usemtl m57
vt 1.180664 1.653320 0.0
vt 0.000000 0.000000 0.0
vt 1.367188 0.000000 0.0
f 167/907 114/908 168/909
#fvcolorindex 117 112 117 
vt -0.151367 3.624023 0.0
vt 0.010742 2.172852 0.0
vt 1.190430 3.825195 0.0
f 116/910 115/911 138/912
#fvcolorindex 117 112 117 
vt 1.190430 3.825195 0.0
vt 0.010742 2.172852 0.0
vt 1.180664 1.653320 0.0
f 138/913 115/914 167/915
#fvcolorindex 117 112 117 
usemtl m58
vt 3.828125 -3.240234 0.0
vt 5.477539 -3.442383 0.0
vt 4.144531 -2.967773 0.0
v -22.000000 -17.997311 -18.002487
#joint 33
#vjoint 194
f 193/916 154/917 194/918
#fvcolorindex 122 122 122 
usemtl m56
vt 2.177734 -1.620117 0.0
vt 3.828125 -3.240234 0.0
vt 4.144531 -2.967773 0.0
f 192/919 193/920 194/921
#fvcolorindex 115 122 122 
vt 2.177734 -1.620117 0.0
vt 4.144531 -2.967773 0.0
vt 3.591797 -1.822266 0.0
v -22.000000 0.002689 -25.002487
#joint 33
#vjoint 195
f 192/922 194/923 195/924
#fvcolorindex 115 122 114 
vt 2.177734 -1.620117 0.0
vt 3.591797 -1.822266 0.0
vt 2.414062 0.000000 0.0
v -22.000000 28.002689 -41.002487
#joint 33
#vjoint 196
f 192/925 195/926 196/927
#fvcolorindex 115 114 112 
usemtl m59
vt 2.414062 0.000000 0.0
vt 3.591797 -1.822266 0.0
vt 4.144531 -0.676758 0.0
v -22.000000 18.002689 -18.002487
#joint 33
#vjoint 197
f 196/928 195/929 197/930
#fvcolorindex 112 114 116 
usemtl m64
vt 5.477539 -0.202148 0.0
vt 2.414062 0.000000 0.0
vt 4.144531 -0.676758 0.0
f 150/931 196/932 197/933
#fvcolorindex 116 112 116 
usemtl m57
vt 1.190430 3.825195 0.0
vt -0.601562 4.675781 0.0
vt -0.151367 3.624023 0.0
f 138/934 102/935 116/936
#fvcolorindex 117 117 117 
usemtl m56
vt 2.177734 -1.620117 0.0
vt 2.414062 0.000000 0.0
vt -0.178711 0.000000 0.0
v -22.000000 28.002689 -75.002487
#joint 33
#vjoint 198
f 192/937 196/938 198/939
#fvcolorindex 115 112 117 
vt 2.177734 -1.620117 0.0
vt -0.178711 0.000000 0.0
vt -0.178711 -0.607422 0.0
v -22.000000 19.002689 -75.002487
#joint 33
#vjoint 199
f 192/940 198/941 199/942
#fvcolorindex 115 117 117 
usemtl m57
vt 0.914062 0.000000 0.0
vt 0.609375 0.000000 0.0
vt 0.914062 2.513672 0.0
f 199/943 191/944 192/945
#fvcolorindex 117 114 122 
usemtl m62
vt 1.717773 0.027344 0.0
vt 1.660156 -0.440430 0.0
vt 0.833008 -0.680664 0.0
v 11.000000 22.002689 5.997513
#joint 33
#vjoint 200
f 180/946 94/947 200/948
#fvcolorindex 119 114 114 
vt 1.717773 0.027344 0.0
vt 0.833008 -0.680664 0.0
vt 0.916016 0.000000 0.0
f 180/949 200/950 179/951
#fvcolorindex 119 114 119 
vt 0.916016 0.000000 0.0
vt 0.833008 -0.680664 0.0
vt -0.102539 -0.835938 0.0
v 6.000000 21.002689 10.997513
#joint 33
#vjoint 201
f 179/952 200/953 201/954
#fvcolorindex 119 114 114 
vt 0.916016 0.000000 0.0
vt -0.102539 -0.835938 0.0
vt 0.000000 0.000000 0.0
f 179/955 201/956 178/957
#fvcolorindex 119 114 119 
vt -0.629883 0.000000 0.0
vt -0.629883 -0.803711 0.0
vt 0.184570 -0.903320 0.0
v 0.000000 20.002689 12.997513
#joint 33
#vjoint 202
f 178/958 201/959 202/960
#fvcolorindex 119 114 114 
vt -0.629883 0.000000 0.0
vt 0.184570 -0.903320 0.0
vt 0.184570 -0.044922 0.0
f 178/961 202/962 177/963
#fvcolorindex 119 114 119 
vt 0.184570 -0.044922 0.0
vt 0.184570 -0.903320 0.0
vt 1.000000 -0.803711 0.0
v -6.000000 21.002689 10.997513
#joint 33
#vjoint 203
f 177/964 202/965 203/966
#fvcolorindex 119 114 114 
vt 0.184570 -0.044922 0.0
vt 1.000000 -0.803711 0.0
vt 1.000000 0.000000 0.0
f 177/967 203/968 181/969
#fvcolorindex 119 114 119 
vt 0.000000 0.000000 0.0
vt -0.116211 -0.952148 0.0
vt 0.938477 -0.774414 0.0
v -11.000000 22.002689 5.997513
#joint 33
#vjoint 204
f 181/970 203/971 204/972
#fvcolorindex 119 114 114 
vt 0.000000 0.000000 0.0
vt 0.938477 -0.774414 0.0
vt 1.033203 0.000000 0.0
f 181/973 204/974 182/975
#fvcolorindex 119 114 119 
vt 1.937500 0.031250 0.0
vt 1.033203 0.000000 0.0
vt 0.938477 -0.774414 0.0
f 176/976 182/977 204/978
#fvcolorindex 119 119 114 
vt 1.937500 0.031250 0.0
vt 0.938477 -0.774414 0.0
vt 1.872070 -0.501953 0.0
f 176/979 204/980 93/981
#fvcolorindex 119 114 114 
usemtl m60
vt 0.000000 0.000000 0.0
vt 2.269531 0.000000 0.0
vt 2.269531 0.748047 0.0
v -12.000000 -14.997311 -19.002487
#joint 33
#vjoint 205
f 190/982 189/983 205/984
#fvcolorindex 114 114 122 
vt 0.000000 0.000000 0.0
vt 2.269531 0.748047 0.0
vt 0.000000 0.748047 0.0
v 13.000000 -14.997311 -19.002487
#joint 33
#vjoint 206
f 190/985 205/986 206/987
#fvcolorindex 114 122 122 
usemtl m65
vt 1.001953 1.069336 0.0
vt -0.005859 1.504883 0.0
vt 0.000000 0.000000 0.0
f 104/988 164/989 136/990
#fvcolorindex 113 122 117 
vt 1.001953 1.069336 0.0
vt 0.000000 0.000000 0.0
vt 0.726562 0.000000 0.0
f 104/991 136/992 101/993
#fvcolorindex 113 117 117 
usemtl m58
vt 0.002930 1.511719 0.0
vt 0.999023 1.074219 0.0
vt 0.659180 0.000000 0.0
f 193/994 110/995 102/996
#fvcolorindex 122 115 117 
vt 0.002930 1.511719 0.0
vt 0.659180 0.000000 0.0
vt 0.000000 0.000000 0.0
f 193/997 102/998 154/999
#fvcolorindex 122 117 117 
vt -0.005859 1.504883 0.0
vt 1.001953 1.069336 0.0
vt 1.000000 1.504883 0.0
f 164/1000 104/1001 190/1002
#fvcolorindex 122 113 122 
vt 0.002930 1.511719 0.0
vt 1.000000 1.511719 0.0
vt 0.999023 1.074219 0.0
f 193/1003 189/1004 110/1005
#fvcolorindex 122 122 115 
vt 1.000000 0.506836 0.0
vt -0.987305 0.506836 0.0
vt -0.987305 0.000000 0.0
f 189/1006 190/1007 104/1008
#fvcolorindex 122 122 113 
vt 1.000000 0.506836 0.0
vt -0.987305 0.000000 0.0
vt 1.000000 0.000000 0.0
f 189/1009 104/1010 110/1011
#fvcolorindex 122 113 112 
usemtl m66
vt 2.963867 0.000000 0.0
vt 2.997070 0.968750 0.0
vt 0.033203 0.968750 0.0
f 130/1012 149/1013 147/1014
#fvcolorindex 119 125 112 
vt 2.963867 0.000000 0.0
vt 0.033203 0.968750 0.0
vt 0.000000 0.000000 0.0
f 130/1015 147/1016 131/1017
#fvcolorindex 119 112 112 
usemtl m67
vt 1.630859 0.000000 0.0
vt 1.641602 0.953125 0.0
vt 0.010742 0.953125 0.0
f 158/1018 183/1019 149/1020
#fvcolorindex 112 112 125 
vt 1.630859 0.000000 0.0
vt 0.010742 0.953125 0.0
vt 0.000000 0.000000 0.0
f 158/1021 149/1022 130/1023
#fvcolorindex 112 125 119 
usemtl m68
vt 0.000000 0.000000 0.0
vt 0.001953 0.951172 0.0
vt 1.634766 0.951172 0.0
f 161/1024 185/1025 183/1026
#fvcolorindex 117 126 112 
vt 0.000000 0.000000 0.0
vt 1.634766 0.951172 0.0
vt 1.632812 0.000000 0.0
f 161/1027 183/1028 158/1029
#fvcolorindex 117 112 112 
usemtl m67
vt -0.026367 0.953125 0.0
vt 0.000000 0.000000 0.0
vt 2.016602 0.000000 0.0
f 118/1030 117/1031 131/1032
#fvcolorindex 112 121 112 
vt -0.026367 0.953125 0.0
vt 2.016602 0.000000 0.0
vt 1.991211 0.953125 0.0
f 118/1033 131/1034 147/1035
#fvcolorindex 112 112 112 
usemtl m69
vt 1.558594 0.972656 0.0
vt 1.168945 0.000000 0.0
vt 0.000000 0.972656 0.0
f 185/1036 161/1037 169/1038
#fvcolorindex 114 114 114 
vt 0.000000 0.972656 0.0
vt 1.168945 0.000000 0.0
vt 0.000000 0.000000 0.0
f 169/1039 161/1040 162/1041
#fvcolorindex 114 114 114 
usemtl m70
vt 0.000000 0.980469 0.0
vt 0.000000 0.000000 0.0
vt 4.364258 0.000000 0.0
f 172/1042 198/1043 196/1044
#fvcolorindex 123 117 112 
vt 0.000000 0.980469 0.0
vt 4.364258 0.000000 0.0
vt 4.364258 0.980469 0.0
f 172/1045 196/1046 173/1047
#fvcolorindex 123 112 112 
usemtl m67
vt 2.455078 0.982422 0.0
vt 2.440430 0.000000 0.0
vt 0.000000 0.000000 0.0
f 173/1048 196/1049 150/1050
#fvcolorindex 112 112 116 
vt 2.455078 0.982422 0.0
vt 0.000000 0.000000 0.0
vt 0.014648 0.982422 0.0
f 173/1051 150/1052 142/1053
#fvcolorindex 112 116 123 
usemtl m70
vt 1.939453 0.968750 0.0
vt 1.917969 0.000000 0.0
vt 0.000000 0.000000 0.0
f 142/1054 150/1055 141/1056
#fvcolorindex 123 116 112 
vt 1.939453 0.968750 0.0
vt 0.000000 0.000000 0.0
vt 0.021484 0.968750 0.0
f 142/1057 141/1058 143/1059
#fvcolorindex 123 112 112 
usemtl m69
vt 0.921875 0.000000 0.0
vt 0.000000 0.968750 0.0
vt 0.000000 0.000000 0.0
f 198/1060 191/1061 199/1062
#fvcolorindex 114 114 114 
vt 1.229492 0.968750 0.0
vt 0.000000 0.968750 0.0
vt 0.921875 0.000000 0.0
f 172/1063 191/1064 198/1065
#fvcolorindex 114 114 114 
usemtl m67
vt -0.021484 0.968750 0.0
vt 1.612305 0.968750 0.0
vt 1.633789 0.000000 0.0
f 128/1066 143/1067 141/1068
#fvcolorindex 112 112 112 
vt -0.021484 0.968750 0.0
vt 1.633789 0.000000 0.0
vt 0.000000 0.000000 0.0
f 128/1069 141/1070 126/1071
#fvcolorindex 112 112 121 
usemtl m71
vt 0.038086 0.309570 0.0
vt 0.083984 0.329102 0.0
vt 0.082031 0.669922 0.0
#vcolor 2.000000 17.000000 23.000000 255.000000
v -25.000000 -15.997311 -16.002487
#joint 33
#vjoint 207
v -25.000000 0.002689 -22.002487
#joint 33
#vjoint 208
f 194/1072 207/1073 208/1074
#fvcolorindex 128 128 128 
vt 0.038086 0.309570 0.0
vt 0.082031 0.669922 0.0
vt 0.036133 0.688477 0.0
f 194/1075 208/1076 195/1077
#fvcolorindex 128 128 128 
usemtl m72
vt 0.309570 0.042969 0.0
vt 0.328125 0.088867 0.0
vt 0.083984 0.329102 0.0
#vcolor 59.000000 59.000000 59.000000 255.000000
v -25.000000 -21.997311 -0.002487
#joint 33
#vjoint 209
f 154/1078 209/1079 207/1080
#fvcolorindex 129 129 128 
vt 0.309570 0.042969 0.0
vt 0.083984 0.329102 0.0
vt 0.038086 0.309570 0.0
f 154/1081 207/1082 194/1083
#fvcolorindex 129 128 128 
usemtl m71
vt 0.083984 0.329102 0.0
vt 0.914062 0.332031 0.0
vt 0.912109 0.672852 0.0
v -25.000000 0.002689 22.997513
#joint 33
#vjoint 210
v -25.000000 16.002689 15.997513
#joint 33
#vjoint 211
f 207/1084 210/1085 211/1086
#fvcolorindex 128 112 112 
vt 0.083984 0.329102 0.0
vt 0.912109 0.672852 0.0
vt 0.082031 0.669922 0.0
f 207/1087 211/1088 208/1089
#fvcolorindex 128 112 128 
usemtl m72
vt 0.328125 0.088867 0.0
vt 0.671875 0.090820 0.0
vt 0.914062 0.332031 0.0
v -25.000000 -15.997311 15.997513
#joint 33
#vjoint 212
f 209/1090 212/1091 210/1092
#fvcolorindex 129 129 112 
vt 0.328125 0.088867 0.0
vt 0.914062 0.332031 0.0
vt 0.083984 0.329102 0.0
f 209/1093 210/1094 207/1095
#fvcolorindex 129 112 128 
vt 0.691406 0.044922 0.0
vt 0.671875 0.090820 0.0
vt 0.328125 0.088867 0.0
f 153/1096 212/1097 209/1098
#fvcolorindex 129 129 129 
vt 0.691406 0.044922 0.0
vt 0.328125 0.088867 0.0
vt 0.309570 0.042969 0.0
f 153/1099 209/1100 154/1101
#fvcolorindex 129 129 129 
usemtl m73
vt 0.959961 0.313477 0.0
vt 0.914062 0.332031 0.0
vt 0.671875 0.090820 0.0
#vcolor 100.000000 129.000000 184.000000 255.000000
f 152/1102 210/1103 212/1104
#fvcolorindex 130 112 129 
vt 0.959961 0.313477 0.0
vt 0.671875 0.090820 0.0
vt 0.691406 0.044922 0.0
f 152/1105 212/1106 153/1107
#fvcolorindex 130 129 129 
vt 0.958008 0.692383 0.0
vt 0.912109 0.672852 0.0
vt 0.914062 0.332031 0.0
f 151/1108 211/1109 210/1110
#fvcolorindex 130 112 112 
vt 0.958008 0.692383 0.0
vt 0.914062 0.332031 0.0
vt 0.959961 0.313477 0.0
f 151/1111 210/1112 152/1113
#fvcolorindex 130 112 130 
vt 0.686523 0.958984 0.0
vt 0.667969 0.913086 0.0
vt 0.912109 0.672852 0.0
v -25.000000 23.002689 -0.002487
#joint 33
#vjoint 213
f 150/1114 213/1115 211/1116
#fvcolorindex 130 112 112 
vt 0.686523 0.958984 0.0
vt 0.912109 0.672852 0.0
vt 0.958008 0.692383 0.0
f 150/1117 211/1118 151/1119
#fvcolorindex 130 112 130 
usemtl m71
vt 0.304688 0.957031 0.0
vt 0.324219 0.912109 0.0
vt 0.667969 0.913086 0.0
v -25.000000 16.002689 -16.002487
#joint 33
#vjoint 214
f 197/1120 214/1121 213/1122
#fvcolorindex 128 128 112 
vt 0.304688 0.957031 0.0
vt 0.667969 0.913086 0.0
vt 0.686523 0.958984 0.0
f 197/1123 213/1124 150/1125
#fvcolorindex 128 112 130 
vt 0.036133 0.688477 0.0
vt 0.082031 0.669922 0.0
vt 0.324219 0.912109 0.0
f 195/1126 208/1127 214/1128
#fvcolorindex 128 128 128 
vt 0.036133 0.688477 0.0
vt 0.324219 0.912109 0.0
vt 0.304688 0.957031 0.0
f 195/1129 214/1130 197/1131
#fvcolorindex 128 128 128 
usemtl m74
vt 0.912109 0.672852 0.0
vt 0.667969 0.913086 0.0
vt 0.324219 0.912109 0.0
f 211/1132 213/1133 214/1134
#fvcolorindex 112 112 128 
vt 0.912109 0.672852 0.0
vt 0.324219 0.912109 0.0
vt 0.082031 0.669922 0.0
f 211/1135 214/1136 208/1137
#fvcolorindex 112 128 128 
usemtl m71
vt 0.942383 0.694336 0.0
vt 0.895508 0.674805 0.0
vt 0.907227 0.327148 0.0
v 25.000000 0.002689 -22.002487
#joint 33
#vjoint 215
v 25.000000 -15.997311 -16.002487
#joint 33
#vjoint 216
f 159/1138 215/1139 216/1140
#fvcolorindex 128 128 128 
vt 0.942383 0.694336 0.0
vt 0.907227 0.327148 0.0
vt 0.954102 0.308594 0.0
f 159/1141 216/1142 163/1143
#fvcolorindex 128 128 128 
vt 0.954102 0.308594 0.0
vt 0.907227 0.327148 0.0
vt 0.667969 0.078125 0.0
v 25.000000 -21.997311 -0.002487
#joint 33
#vjoint 217
f 163/1144 216/1145 217/1146
#fvcolorindex 128 128 128 
vt 0.954102 0.308594 0.0
vt 0.667969 0.078125 0.0
vt 0.688477 0.031250 0.0
f 163/1147 217/1148 136/1149
#fvcolorindex 128 128 128 
usemtl m75
vt 0.659180 0.963867 0.0
vt 0.641602 0.916992 0.0
vt 0.895508 0.674805 0.0
#vcolor 46.000000 41.000000 20.000000 255.000000
v 25.000000 16.002689 -16.002487
#joint 33
#vjoint 218
f 157/1150 218/1151 215/1152
#fvcolorindex 131 131 128 
vt 0.659180 0.963867 0.0
vt 0.895508 0.674805 0.0
vt 0.942383 0.694336 0.0
f 157/1153 215/1154 159/1155
#fvcolorindex 131 128 128 
usemtl m73
vt 0.272461 0.958984 0.0
vt 0.292969 0.913086 0.0
vt 0.641602 0.916992 0.0
v 25.000000 23.002689 -0.002487
#joint 33
#vjoint 219
f 130/1156 219/1157 218/1158
#fvcolorindex 130 125 131 
vt 0.272461 0.958984 0.0
vt 0.641602 0.916992 0.0
vt 0.659180 0.963867 0.0
f 130/1159 218/1160 157/1161
#fvcolorindex 130 131 131 
vt 0.006836 0.682617 0.0
vt 0.054688 0.664062 0.0
vt 0.292969 0.913086 0.0
v 25.000000 16.002689 15.997513
#joint 33
#vjoint 220
f 129/1162 220/1163 219/1164
#fvcolorindex 130 112 125 
vt 0.006836 0.682617 0.0
vt 0.292969 0.913086 0.0
vt 0.272461 0.958984 0.0
f 129/1165 219/1166 130/1167
#fvcolorindex 130 125 130 
vt 0.019531 0.295898 0.0
vt 0.065430 0.316406 0.0
vt 0.054688 0.664062 0.0
v 25.000000 0.002689 22.997513
#joint 33
#vjoint 221
f 132/1168 221/1169 220/1170
#fvcolorindex 130 112 112 
vt 0.019531 0.295898 0.0
vt 0.054688 0.664062 0.0
vt 0.006836 0.682617 0.0
f 132/1171 220/1172 129/1173
#fvcolorindex 130 112 130 
usemtl m71
vt 0.301758 0.026367 0.0
vt 0.319336 0.073242 0.0
vt 0.065430 0.316406 0.0
v 25.000000 -15.997311 15.997513
#joint 33
#vjoint 222
#vcolor 118.000000 118.000000 118.000000 255.000000
f 134/1174 222/1175 221/1176
#fvcolorindex 128 132 112 
vt 0.301758 0.026367 0.0
vt 0.065430 0.316406 0.0
vt 0.019531 0.295898 0.0
f 134/1177 221/1178 132/1179
#fvcolorindex 128 112 130 
vt 0.688477 0.031250 0.0
vt 0.667969 0.078125 0.0
vt 0.319336 0.073242 0.0
f 136/1180 217/1181 222/1182
#fvcolorindex 128 128 132 
vt 0.688477 0.031250 0.0
vt 0.319336 0.073242 0.0
vt 0.301758 0.026367 0.0
f 136/1183 222/1184 134/1185
#fvcolorindex 128 132 128 
usemtl m74
vt 0.065430 0.316406 0.0
vt 0.907227 0.327148 0.0
vt 0.895508 0.674805 0.0
f 221/1186 216/1187 215/1188
#fvcolorindex 112 128 128 
vt 0.065430 0.316406 0.0
vt 0.895508 0.674805 0.0
vt 0.054688 0.664062 0.0
f 221/1189 215/1190 220/1191
#fvcolorindex 112 128 112 
usemtl m76
vt 0.319336 0.073242 0.0
vt 0.667969 0.078125 0.0
vt 0.907227 0.327148 0.0
f 222/1192 217/1193 216/1194
#fvcolorindex 132 128 128 
vt 0.319336 0.073242 0.0
vt 0.907227 0.327148 0.0
vt 0.065430 0.316406 0.0
f 222/1195 216/1196 221/1197
#fvcolorindex 132 128 112 
usemtl m71
vt 0.895508 0.674805 0.0
vt 0.641602 0.916992 0.0
vt 0.292969 0.913086 0.0
f 215/1198 218/1199 219/1200
#fvcolorindex 128 131 125 
vt 0.895508 0.674805 0.0
vt 0.292969 0.913086 0.0
vt 0.054688 0.664062 0.0
f 215/1201 219/1202 220/1203
#fvcolorindex 128 125 112 
g Room09
g Room09_primary
usemtl m40
vt 1.000000 0.169434 0.0
vt 1.000000 0.720703 0.0
vt 0.000000 0.829590 0.0
v -12.000000 -102.997314 -25.002487
#joint 33
#vjoint 223
#vcolor 254.000000 254.000000 254.000000 255.000000
v 13.000000 -102.997314 -25.002487
#joint 33
#vjoint 224
v 16.000000 -105.997314 -9.002487
#joint 33
#vjoint 225
f 223/1204 224/1205 225/1206
#fvcolorindex 133 133 133 
vt 1.000000 0.169434 0.0
vt 0.000000 0.829590 0.0
vt 0.000000 0.141113 0.0
v -16.000000 -105.997314 -9.002487
#joint 33
#vjoint 226
f 223/1207 225/1208 226/1209
#fvcolorindex 133 133 133 
usemtl m59
vt -0.345703 0.000000 0.0
vt 1.000000 0.000000 0.0
vt 1.000000 1.418945 0.0
v 13.000000 -105.997314 15.997513
#joint 33
#vjoint 227
#vcolor 10.000000 51.000000 68.000000 255.000000
f 226/1210 225/1211 227/1212
#fvcolorindex 133 133 134 
vt -0.345703 0.000000 0.0
vt 1.000000 1.418945 0.0
vt -0.076172 1.418945 0.0
v -12.000000 -105.997314 15.997513
#joint 33
#vjoint 228
f 226/1213 227/1214 228/1215
#fvcolorindex 133 134 134 
usemtl m77
vt 0.767578 0.311523 0.0
vt 0.704102 0.694336 0.0
vt 0.373047 0.695312 0.0
v 9.000000 -5.997311 99.997513
#joint 33
#vjoint 229
#vcolor 48.000000 48.000000 48.000000 255.000000
v 6.000000 6.002689 99.997513
#joint 33
#vjoint 230
#vcolor 212.000000 212.000000 212.000000 255.000000
v -6.000000 6.002689 99.997513
#joint 33
#vjoint 231
f 229/1216 230/1217 231/1218
#fvcolorindex 135 136 133 
vt 0.767578 0.311523 0.0
vt 0.373047 0.695312 0.0
vt 0.270508 0.311523 0.0
v -9.000000 -5.997311 99.997513
#joint 33
#vjoint 232
#vcolor 103.000000 103.000000 103.000000 255.000000
f 229/1219 231/1220 232/1221
#fvcolorindex 135 133 137 
usemtl m74
vt 0.373047 0.695312 0.0
vt 0.285156 0.599609 0.0
vt 0.270508 0.311523 0.0
v -9.000000 3.002689 99.997513
#joint 33
#vjoint 233
f 231/1222 233/1223 232/1224
#fvcolorindex 133 133 137 
usemtl m78
vt 0.782227 0.598633 0.0
vt 0.704102 0.694336 0.0
vt 0.767578 0.311523 0.0
v 9.000000 3.002689 99.997513
#joint 33
#vjoint 234
#vcolor 152.000000 152.000000 152.000000 255.000000
f 234/1225 230/1226 229/1227
#fvcolorindex 138 136 135 
