# Created by SubDrag and the GoldenEye Setup Editor V4.4
mtllib Gun0020.mtl
#joint 0
#jointposition 0.000000 -20.375574 -110.791519
#joint 1
#jointposition -64.637192 -34.500000 -403.726074
#joint 2
#jointposition -64.511063 -20.375574 -74.143829
#joint 3
#jointposition -36.106300 -54.346611 -32.664265
#joint 4
#jointposition -14.435856 -78.841194 -10.664217
#joint 5
#jointposition -35.867256 -16.714527 20.778580
#joint 6
#jointposition -37.992725 -24.155291 60.154789
#joint 7
#jointposition -39.723911 -25.811726 87.094810
#joint 8
#jointposition -55.690742 -11.296313 21.695229
#joint 9
#jointposition -55.842346 -23.348385 71.418182
#joint 10
#jointposition -56.940342 -26.182207 98.349457
#joint 11
#jointposition -71.960884 -15.536673 21.601547
#joint 12
#jointposition -71.288261 -21.532187 62.353878
#joint 13
#jointposition -70.801826 -23.494061 85.077065
#joint 14
#jointposition -88.101944 -23.057791 21.828278
#joint 15
#jointposition -86.405373 -25.130569 56.929573
#joint 16
#jointposition -85.252045 -24.727604 74.077209
#joint 17
#jointposition 234.474915 -34.500000 -403.726013
#joint 18
#jointposition 234.348785 -20.375599 -74.143921
#joint 19
#jointposition 205.943985 -54.346600 -32.664322
#joint 20
#jointposition 184.273590 -78.841202 -10.664223
#joint 21
#jointposition 205.704987 -16.714600 20.778481
#joint 22
#jointposition 207.830490 -24.155300 60.154781
#joint 23
#jointposition 209.561584 -25.811800 87.094780
#joint 24
#jointposition 225.528473 -11.296299 21.695183
#joint 25
#jointposition 225.680069 -23.348400 71.418083
#joint 26
#jointposition 226.778076 -26.182199 98.349380
#joint 27
#jointposition 241.798599 -15.536699 21.601479
#joint 28
#jointposition 241.125977 -21.532200 62.353779
#joint 29
#jointposition 240.639542 -23.494101 85.076981
#joint 30
#jointposition 257.939697 -23.057798 21.828178
#joint 31
#jointposition 256.243103 -25.130598 56.929478
#joint 32
#jointposition 255.089798 -24.727598 74.077179
#joint 33
#jointposition -64.194740 -54.002037 48.120880
#connection 0 1
#connection 1 2
#connection 2 3
#connection 3 4
#connection 2 5
#connection 5 6
#connection 6 7
#connection 2 8
#connection 8 9
#connection 9 10
#connection 2 11
#connection 11 12
#connection 12 13
#connection 2 14
#connection 14 15
#connection 15 16
#connection 2 33
#connection 0 17
#connection 17 18
#connection 18 19
#connection 19 20
#connection 18 21
#connection 21 22
#connection 22 23
#connection 18 24
#connection 24 25
#connection 25 26
#connection 18 27
#connection 27 28
#connection 28 29
#connection 18 30
#connection 30 31
#connection 31 32
g Room22
g Room22_primary
usemtl m0ClampSClampT
vt 1.000000 1.000000 0.0
vt -0.006392 0.970881 0.0
vt 0.512074 0.028409 0.0
v -48.194740 -39.002037 37.120880
#joint 33
#vjoint 1
#vcolor 254.000000 254.000000 254.000000 255.000000
v -82.194740 -39.002037 37.120880
#joint 33
#vjoint 2
v -64.194740 -39.002037 67.120880
#joint 33
#vjoint 3
f 1/1 2/2 3/3
#fvcolorindex 1 1 1 
usemtl m1ClampT
vt 0.111328 0.623047 0.0
vt -0.762695 0.083008 0.0
vt 0.148438 0.899414 0.0
v -58.194740 -65.002037 108.120880
#joint 33
#vjoint 4
v -64.194740 -50.002037 104.120880
#joint 33
#vjoint 5
v -64.194740 -65.002037 113.120880
#joint 33
#vjoint 6
f 4/4 5/5 6/6
#fvcolorindex 1 1 1 
vt 0.020508 0.002930 0.0
vt -0.762695 0.083008 0.0
vt 0.111328 0.623047 0.0
v -52.194740 -65.002037 97.120880
#joint 33
#vjoint 7
f 7/7 5/8 4/9
#fvcolorindex 1 1 1 
usemtl m2ClampT
vt 1.070312 0.111328 0.0
vt 0.111328 0.623047 0.0
vt 0.148438 0.899414 0.0
v -64.194740 -85.002037 92.120880
#joint 33
#vjoint 8
#vcolor 136.000000 136.000000 136.000000 255.000000
f 8/10 4/11 6/12
#fvcolorindex 2 1 1 
usemtl m1ClampT
vt 0.111328 0.623047 0.0
vt -0.762695 0.083008 0.0
vt 0.020508 0.002930 0.0
v -71.194740 -65.002037 108.120880
#joint 33
#vjoint 9
v -76.194740 -65.002037 97.120880
#joint 33
#vjoint 10
f 9/13 5/14 10/15
#fvcolorindex 1 1 1 
usemtl m2ClampT
vt 1.070312 0.111328 0.0
vt 0.020508 0.002930 0.0
vt 0.111328 0.623047 0.0
f 8/16 7/17 4/18
#fvcolorindex 2 1 1 
usemtl m1ClampT
vt 0.148438 0.899414 0.0
vt -0.762695 0.083008 0.0
vt 0.111328 0.623047 0.0
f 6/19 5/20 9/21
#fvcolorindex 1 1 1 
usemtl m2ClampT
vt 1.070312 0.111328 0.0
vt 0.027344 0.005859 0.0
vt 0.020508 0.002930 0.0
v -64.194740 -65.002037 97.120880
#joint 33
#vjoint 11
f 8/22 11/23 7/24
#fvcolorindex 2 1 1 
vt 1.070312 0.111328 0.0
vt 0.111328 0.623047 0.0
vt 0.020508 0.002930 0.0
f 8/25 9/26 10/27
#fvcolorindex 2 1 1 
vt 1.070312 0.111328 0.0
vt 0.020508 0.002930 0.0
vt 0.027344 0.005859 0.0
f 8/28 10/29 11/30
#fvcolorindex 2 1 1 
vt 1.070312 0.111328 0.0
vt 0.148438 0.899414 0.0
vt 0.111328 0.623047 0.0
f 8/31 6/32 9/33
#fvcolorindex 2 1 1 
usemtl m1ClampT
vt 0.111328 0.623047 0.0
vt -0.762695 0.083008 0.0
vt 0.148438 0.899414 0.0
v -119.194740 -65.002037 24.120880
#joint 33
#vjoint 12
v -113.194740 -50.002037 20.120880
#joint 33
#vjoint 13
v -120.194740 -65.002037 16.120880
#joint 33
#vjoint 14
f 12/34 13/35 14/36
#fvcolorindex 1 1 1 
vt 0.020508 0.002930 0.0
vt -0.762695 0.083008 0.0
vt 0.111328 0.623047 0.0
v -113.194740 -65.002037 34.120880
#joint 33
#vjoint 15
f 15/37 13/38 12/39
#fvcolorindex 1 1 1 
usemtl m2ClampT
vt 1.070312 0.111328 0.0
vt 0.111328 0.623047 0.0
vt 0.148438 0.899414 0.0
v -103.194740 -85.002037 26.120880
#joint 33
#vjoint 16
f 16/40 12/41 14/42
#fvcolorindex 2 1 1 
usemtl m1ClampT
vt 0.111328 0.623047 0.0
vt -0.762695 0.083008 0.0
vt 0.020508 0.002930 0.0
v -113.194740 -65.002037 12.120880
#joint 33
#vjoint 17
v -101.194740 -65.002037 13.120880
#joint 33
#vjoint 18
f 17/43 13/44 18/45
#fvcolorindex 1 1 1 
usemtl m2ClampT
vt 1.070312 0.111328 0.0
vt 0.020508 0.002930 0.0
vt 0.111328 0.623047 0.0
f 16/46 15/47 12/48
#fvcolorindex 2 1 1 
usemtl m1ClampT
vt 0.148438 0.899414 0.0
vt -0.762695 0.083008 0.0
vt 0.111328 0.623047 0.0
f 14/49 13/50 17/51
#fvcolorindex 1 1 1 
usemtl m2ClampT
vt 1.070312 0.111328 0.0
vt 0.027344 0.005859 0.0
vt 0.020508 0.002930 0.0
v -107.194740 -65.002037 23.120880
#joint 33
#vjoint 19
f 16/52 19/53 15/54
#fvcolorindex 2 1 1 
vt 1.070312 0.111328 0.0
vt 0.111328 0.623047 0.0
vt 0.020508 0.002930 0.0
f 16/55 17/56 18/57
#fvcolorindex 2 1 1 
vt 1.070312 0.111328 0.0
vt 0.020508 0.002930 0.0
vt 0.027344 0.005859 0.0
f 16/58 18/59 19/60
#fvcolorindex 2 1 1 
vt 1.070312 0.111328 0.0
vt 0.148438 0.899414 0.0
vt 0.111328 0.623047 0.0
f 16/61 14/62 17/63
#fvcolorindex 2 1 1 
usemtl m1ClampT
vt 0.111328 0.623047 0.0
vt -0.762695 0.083008 0.0
vt 0.148438 0.899414 0.0
v -16.194740 -65.002037 12.120880
#joint 33
#vjoint 20
v -15.194740 -50.002037 20.120880
#joint 33
#vjoint 21
v -8.194740 -65.002037 16.120880
#joint 33
#vjoint 22
f 20/64 21/65 22/66
#fvcolorindex 1 1 1 
vt 0.020508 0.002930 0.0
vt -0.762695 0.083008 0.0
vt 0.111328 0.623047 0.0
v -27.194740 -65.002037 13.120880
#joint 33
#vjoint 23
f 23/67 21/68 20/69
#fvcolorindex 1 1 1 
usemtl m2ClampT
vt 1.070312 0.111328 0.0
vt 0.111328 0.623047 0.0
vt 0.148438 0.899414 0.0
v -26.194740 -85.002037 26.120880
#joint 33
#vjoint 24
f 24/70 20/71 22/72
#fvcolorindex 2 1 1 
usemtl m1ClampT
vt 0.111328 0.623047 0.0
vt -0.762695 0.083008 0.0
vt 0.020508 0.002930 0.0
v -9.194740 -65.002037 24.120880
#joint 33
#vjoint 25
v -15.194740 -65.002037 34.120880
#joint 33
#vjoint 26
f 25/73 21/74 26/75
#fvcolorindex 1 1 1 
usemtl m2ClampT
vt 1.070312 0.111328 0.0
vt 0.020508 0.002930 0.0
vt 0.111328 0.623047 0.0
f 24/76 23/77 20/78
#fvcolorindex 2 1 1 
usemtl m1ClampT
vt 0.148438 0.899414 0.0
vt -0.762695 0.083008 0.0
vt 0.111328 0.623047 0.0
f 22/79 21/80 25/81
#fvcolorindex 1 1 1 
usemtl m2ClampT
vt 1.070312 0.111328 0.0
vt 0.027344 0.005859 0.0
vt 0.020508 0.002930 0.0
v -21.194740 -65.002037 23.120880
#joint 33
#vjoint 27
f 24/82 27/83 23/84
#fvcolorindex 2 1 1 
vt 1.070312 0.111328 0.0
vt 0.111328 0.623047 0.0
vt 0.020508 0.002930 0.0
f 24/85 25/86 26/87
#fvcolorindex 2 1 1 
vt 1.070312 0.111328 0.0
vt 0.020508 0.002930 0.0
vt 0.027344 0.005859 0.0
f 24/88 26/89 27/90
#fvcolorindex 2 1 1 
vt 1.070312 0.111328 0.0
vt 0.148438 0.899414 0.0
vt 0.111328 0.623047 0.0
f 24/91 22/92 25/93
#fvcolorindex 2 1 1 
usemtl m3
vt 1.916016 0.957031 0.0
vt 0.050781 0.957031 0.0
vt 2.002930 0.000000 0.0
v -16.194740 -49.002037 20.120880
#joint 33
#vjoint 28
v -22.194740 -49.002037 72.120880
#joint 33
#vjoint 29
v -12.194740 -65.002037 18.120880
#joint 33
#vjoint 30
f 28/94 29/95 30/96
#fvcolorindex 1 1 1 
vt 2.002930 0.000000 0.0
vt 0.050781 0.957031 0.0
vt 0.000000 0.000000 0.0
v -19.194740 -65.002037 74.120880
#joint 33
#vjoint 31
f 30/97 29/98 31/99
#fvcolorindex 1 1 2 
vt 1.957031 0.970703 0.0
vt 0.086914 0.970703 0.0
vt 2.007812 0.000000 0.0
v -64.194740 -49.002037 104.120880
#joint 33
#vjoint 32
f 29/100 32/101 31/102
#fvcolorindex 1 1 2 
usemtl m4
vt 2.007812 0.000000 0.0
vt 0.086914 0.970703 0.0
vt 0.000000 0.000000 0.0
v -64.194740 -65.002037 108.120880
#joint 33
#vjoint 33
f 31/103 32/104 33/105
#fvcolorindex 2 1 1 
usemtl m3
vt 1.913086 0.978516 0.0
vt 0.050781 0.978516 0.0
vt 2.000000 0.000000 0.0
v -107.194740 -49.002037 72.120880
#joint 33
#vjoint 34
f 32/106 34/107 33/108
#fvcolorindex 1 1 1 
vt 2.000000 0.000000 0.0
vt 0.050781 0.978516 0.0
vt 0.000000 0.000000 0.0
v -110.194740 -65.002037 74.120880
#joint 33
#vjoint 35
f 33/109 34/110 35/111
#fvcolorindex 1 1 2 
vt 1.956055 0.982422 0.0
vt 0.086914 0.982422 0.0
vt 2.006836 0.000000 0.0
v -113.194740 -49.002037 20.120880
#joint 33
#vjoint 36
f 34/112 36/113 35/114
#fvcolorindex 1 1 2 
usemtl m4
vt 2.006836 0.000000 0.0
vt 0.086914 0.982422 0.0
vt 0.000000 0.000000 0.0
v -116.194740 -65.002037 18.120880
#joint 33
#vjoint 37
f 35/115 36/116 37/117
#fvcolorindex 2 1 1 
usemtl m3
vt 1.915039 0.994141 0.0
vt 0.050781 0.994141 0.0
vt 2.001953 0.000000 0.0
v -64.194740 -49.002037 -0.879120
#joint 33
#vjoint 38
f 36/118 38/119 37/120
#fvcolorindex 1 1 1 
vt 2.001953 0.000000 0.0
vt 0.050781 0.994141 0.0
vt 0.000000 0.000000 0.0
v -64.194740 -65.002037 -4.879120
#joint 33
#vjoint 39
f 37/121 38/122 39/123
#fvcolorindex 1 1 2 
vt 1.951172 0.998047 0.0
vt 0.086914 0.998047 0.0
vt 2.001953 0.000000 0.0
f 38/124 28/125 39/126
#fvcolorindex 1 1 2 
usemtl m4
vt 2.001953 0.000000 0.0
vt 0.086914 0.998047 0.0
vt 0.000000 0.000000 0.0
f 39/127 28/128 30/129
#fvcolorindex 2 1 1 
usemtl m5ClampSClampT
vt 4.789062 0.000000 0.0
vt -2.369141 0.000000 0.0
vt 5.931641 1.000000 0.0
v -26.194740 -39.002037 26.120880
#joint 33
#vjoint 40
v -31.194740 -39.002037 67.120880
#joint 33
#vjoint 41
#vcolor 238.000000 138.000000 138.000000 255.000000
f 40/130 41/131 28/132
#fvcolorindex 2 3 1 
usemtl m6ClampSClampT
vt 5.931641 1.000000 0.0
vt -2.369141 0.000000 0.0
vt -3.101562 1.000000 0.0
f 28/133 41/134 29/135
#fvcolorindex 1 3 1 
usemtl m7ClampSClampT
vt 4.734375 0.000000 0.0
vt -1.925781 0.000000 0.0
vt 5.326172 1.000000 0.0
v -64.194740 -39.002037 92.120880
#joint 33
#vjoint 42
f 41/136 42/137 29/138
#fvcolorindex 3 2 1 
usemtl m6ClampSClampT
vt 5.326172 1.000000 0.0
vt -1.925781 0.000000 0.0
vt -3.078125 1.000000 0.0
f 29/139 42/140 32/141
#fvcolorindex 1 2 1 
usemtl m5ClampSClampT
vt 4.041016 0.000000 0.0
vt -1.857422 0.000000 0.0
vt 5.027344 1.000000 0.0
v -98.194740 -39.002037 67.120880
#joint 33
#vjoint 43
f 42/142 43/143 32/144
#fvcolorindex 2 3 1 
usemtl m6ClampSClampT
vt 5.027344 1.000000 0.0
vt -1.857422 0.000000 0.0
vt -2.416016 1.000000 0.0
f 32/145 43/146 34/147
#fvcolorindex 1 3 1 
usemtl m7ClampSClampT
vt 4.330078 0.000000 0.0
vt -2.332031 0.000000 0.0
vt 4.949219 1.000000 0.0
v -103.194740 -39.002037 26.120880
#joint 33
#vjoint 44
f 43/148 44/149 34/150
#fvcolorindex 3 2 1 
usemtl m6ClampSClampT
vt 4.949219 1.000000 0.0
vt -2.332031 0.000000 0.0
vt -3.457031 1.000000 0.0
f 34/151 44/152 36/153
#fvcolorindex 1 2 1 
usemtl m5ClampSClampT
vt 3.962891 0.000000 0.0
vt -2.093750 0.000000 0.0
vt 5.187500 1.018555 0.0
v -64.194740 -39.002037 9.120880
#joint 33
#vjoint 45
f 44/154 45/155 36/156
#fvcolorindex 2 3 1 
usemtl m6ClampSClampT
vt 5.187500 1.018555 0.0
vt -2.093750 0.000000 0.0
vt -2.455078 1.018555 0.0
f 36/157 45/158 38/159
#fvcolorindex 1 3 1 
usemtl m7ClampSClampT
vt 5.792969 0.000000 0.0
vt -3.105469 0.000000 0.0
vt 6.683594 1.000000 0.0
f 45/160 40/161 38/162
#fvcolorindex 3 2 1 
usemtl m6ClampSClampT
vt 6.683594 1.000000 0.0
vt -3.105469 0.000000 0.0
vt -4.544922 1.000000 0.0
f 38/163 40/164 28/165
#fvcolorindex 1 2 1 
usemtl m8ClampSClampT
vt 0.000000 0.000000 0.0
vt 1.000000 1.000000 0.0
vt 1.000000 0.000000 0.0
v -64.194740 -56.002037 48.120880
#joint 33
#vjoint 46
#vcolor 255.000000 219.000000 0.000000 255.000000
f 30/166 31/167 46/168
#fvcolorindex 1 2 4 
usemtl m9ClampSClampT
vt 0.000000 0.000000 0.0
vt 1.000000 1.000000 0.0
vt 1.000000 0.000000 0.0
f 35/169 37/170 46/171
#fvcolorindex 2 1 4 
usemtl m10ClampSClampT
vt 1.000000 0.000000 0.0
vt 0.000000 0.000000 0.0
vt 1.000000 1.000000 0.0
f 46/172 31/173 33/174
#fvcolorindex 4 2 1 
usemtl m9ClampSClampT
vt 1.000000 1.000000 0.0
vt 1.000000 0.000000 0.0
vt 0.000000 0.000000 0.0
f 35/175 46/176 33/177
#fvcolorindex 2 4 1 
usemtl m10ClampSClampT
vt 1.000000 0.000000 0.0
vt 0.000000 0.000000 0.0
vt 1.000000 1.000000 0.0
f 46/178 37/179 39/180
#fvcolorindex 4 1 2 
usemtl m8ClampSClampT
vt 1.000000 1.000000 0.0
vt 1.000000 0.000000 0.0
vt 0.000000 0.000000 0.0
f 30/181 46/182 39/183
#fvcolorindex 1 4 2 
usemtl m11ClampSClampT
vt 1.000000 1.000000 0.0
vt 0.000000 0.000000 0.0
vt 1.000000 0.000000 0.0
#vcolor 228.000000 201.000000 45.000000 255.000000
#vcolor 127.000000 112.000000 24.000000 255.000000
f 43/184 42/185 3/186
#fvcolorindex 5 6 5 
usemtl m12ClampSClampT
vt 0.000000 0.000000 0.0
vt 1.000000 1.000000 0.0
vt 1.000000 0.000000 0.0
f 42/187 41/188 3/189
#fvcolorindex 6 5 5 
usemtl m11ClampSClampT
vt 1.000000 1.000000 0.0
vt 0.000000 0.000000 0.0
vt 1.000000 0.000000 0.0
f 2/190 43/191 3/192
#fvcolorindex 5 5 5 
vt 1.000000 0.000000 0.0
vt 0.000000 0.000000 0.0
vt 1.000000 1.000000 0.0
f 45/193 44/194 2/195
#fvcolorindex 5 6 5 
vt 1.000000 0.000000 0.0
vt 0.000000 0.000000 0.0
vt 1.000000 1.000000 0.0
f 45/196 1/197 40/198
#fvcolorindex 5 5 6 
vt 0.000000 0.000000 0.0
vt 1.000000 1.000000 0.0
vt 1.000000 0.000000 0.0
f 1/199 41/200 40/201
#fvcolorindex 5 5 6 
vt 0.000000 0.000000 0.0
vt 1.000000 1.000000 0.0
vt 1.000000 0.000000 0.0
f 43/202 2/203 44/204
#fvcolorindex 5 5 6 
vt 0.000000 0.000000 0.0
vt 1.000000 0.000000 0.0
vt 1.000000 1.000000 0.0
f 1/205 45/206 2/207
#fvcolorindex 5 5 5 
vt 1.000000 0.000000 0.0
vt 1.000000 1.000000 0.0
vt 0.000000 0.000000 0.0
f 3/208 41/209 1/210
#fvcolorindex 5 5 5 
