# Created by SubDrag and the GoldenEye Setup Editor V4.4
mtllib Gun000B.mtl
#joint 0
#jointposition 0.000000 -20.375574 -74.143860
#joint 1
#jointposition -0.126130 -34.500000 -403.726105
#joint 2
#jointposition 0.000000 -20.375574 -74.143860
#joint 3
#jointposition 28.404760 -54.346611 -32.664295
#joint 4
#jointposition 50.075203 -78.841194 -10.664248
#joint 5
#jointposition 28.643808 -16.714527 20.778549
#joint 6
#jointposition 26.518341 -24.155291 60.154758
#joint 7
#jointposition 24.862719 -25.637974 87.085503
#joint 8
#jointposition 8.820322 -11.296313 21.695198
#joint 9
#jointposition 8.668717 -23.348385 71.418152
#joint 10
#jointposition 7.570724 -26.182207 98.349426
#joint 11
#jointposition -7.449821 -15.536673 21.601517
#joint 12
#jointposition -6.777197 -21.532187 62.353848
#joint 13
#jointposition -6.290760 -23.494061 85.077034
#joint 14
#jointposition -23.590879 -23.057791 21.828247
#joint 15
#jointposition -21.894306 -25.130569 56.929543
#joint 16
#jointposition -20.740978 -24.727604 74.077179
#joint 17
#jointposition 234.474915 -34.500000 -403.725983
#joint 18
#jointposition 234.348785 -20.375599 -74.143890
#joint 19
#jointposition 205.943985 -54.346600 -32.664291
#joint 20
#jointposition 184.273590 -78.841202 -10.664192
#joint 21
#jointposition 205.704987 -16.714600 20.778511
#joint 22
#jointposition 207.830490 -24.155300 60.154812
#joint 23
#jointposition 209.561584 -25.811800 87.094810
#joint 24
#jointposition 225.528473 -11.296299 21.695213
#joint 25
#jointposition 225.680069 -23.348400 71.418114
#joint 26
#jointposition 226.778076 -26.182199 98.349411
#joint 27
#jointposition 241.798599 -15.536699 21.601509
#joint 28
#jointposition 241.125977 -21.532200 62.353809
#joint 29
#jointposition 240.639542 -23.494101 85.077011
#joint 30
#jointposition 257.939697 -23.057798 21.828209
#joint 31
#jointposition 256.243103 -25.130598 56.929508
#joint 32
#jointposition 255.089798 -24.727598 74.077209
#joint 33
#jointposition 0.000000 11.665781 429.881927
#joint 34
#jointposition 0.000000 49.661476 846.084106
#joint 35
#jointposition 0.000000 49.673878 878.720825
#joint 36
#jointposition 0.000000 49.677593 927.287659
#joint 37
#jointposition 166.399597 49.096455 419.985352
#connection 0 1
#connection 1 2
#connection 2 3
#connection 3 4
#connection 2 5
#connection 5 6
#connection 6 7
#connection 2 8
#connection 8 9
#connection 9 10
#connection 2 11
#connection 11 12
#connection 12 13
#connection 2 14
#connection 14 15
#connection 15 16
#connection 2 33
#connection 33 34
#connection 34 35
#connection 34 36
#connection 0 17
#connection 17 18
#connection 18 19
#connection 19 20
#connection 18 21
#connection 21 22
#connection 22 23
#connection 18 24
#connection 24 25
#connection 25 26
#connection 18 27
#connection 27 28
#connection 28 29
#connection 18 30
#connection 30 31
#connection 31 32
#connection 18 37
g Room01
g Room01_primary
usemtl m0CullBoth
vt -0.004883 0.157227 0.0
vt -0.000977 0.369141 0.0
vt 0.888672 0.785156 0.0
v -75.000000 69.665779 678.881958
#joint 33
#vjoint 1
#vcolor 0.000000 0.000000 0.000000 255.000000
v -87.000000 68.665779 678.881958
#joint 33
#vjoint 2
#vcolor 255.000000 233.000000 119.000000 255.000000
v -111.000000 36.665779 700.881958
#joint 33
#vjoint 3
#vcolor 70.000000 39.000000 0.000000 255.000000
f 1/1 2/2 3/3
#fvcolorindex 1 2 3 
vt -0.004883 0.157227 0.0
vt 0.888672 0.785156 0.0
vt 0.885742 0.161133 0.0
v -74.000000 36.665779 700.881958
#joint 33
#vjoint 4
f 1/4 3/5 4/6
#fvcolorindex 1 3 1 
vt 0.885742 0.161133 0.0
vt 0.888672 0.785156 0.0
vt -0.000977 0.369141 0.0
v 80.000000 38.665779 700.881958
#joint 33
#vjoint 5
v 116.000000 38.665779 700.881958
#joint 33
#vjoint 6
v 91.000000 71.665779 678.881958
#joint 33
#vjoint 7
f 5/7 6/8 7/9
#fvcolorindex 1 3 2 
vt 0.885742 0.161133 0.0
vt -0.000977 0.369141 0.0
vt -0.004883 0.157227 0.0
v 79.000000 71.665779 678.881958
#joint 33
#vjoint 8
f 5/10 7/11 8/12
#fvcolorindex 1 2 1 
usemtl m1CullBoth
vt 3.761719 0.848633 0.0
vt 3.785156 0.000000 0.0
vt 0.000000 0.000000 0.0
v 27.000000 33.665779 371.881927
#joint 33
#vjoint 9
#vcolor 110.000000 118.000000 128.000000 255.000000
v -22.000000 33.665779 369.881927
#joint 33
#vjoint 10
v -32.000000 33.665779 448.881927
#joint 33
#vjoint 11
f 9/13 10/14 11/15
#fvcolorindex 4 4 4 
vt 3.761719 0.848633 0.0
vt 0.000000 0.000000 0.0
vt -0.000977 0.848633 0.0
v 37.000000 33.665779 449.881927
#joint 33
#vjoint 12
f 9/16 11/17 12/18
#fvcolorindex 4 4 4 
usemtl m2CullBothMirrorS
vt 3.361328 1.919922 0.0
vt 3.361328 1.919922 0.0
vt 2.945312 1.917969 0.0
v -7.000000 -37.334221 403.881927
#joint 33
#vjoint 13
#vcolor 39.000000 39.000000 39.000000 255.000000
v 12.000000 -37.334221 403.881927
#joint 33
#vjoint 14
v 12.000000 -37.334221 473.881927
#joint 33
#vjoint 15
f 13/19 14/20 15/21
#fvcolorindex 5 5 5 
vt 3.361328 1.919922 0.0
vt 2.945312 1.917969 0.0
vt 2.945312 1.917969 0.0
v -7.000000 -37.334221 473.881927
#joint 33
#vjoint 16
f 13/22 15/23 16/24
#fvcolorindex 5 5 5 
usemtl m3CullBothMirrorS
vt 3.495117 2.477539 0.0
vt 3.361328 1.919922 0.0
vt 3.361328 1.919922 0.0
v 12.000000 -102.334221 387.881927
#joint 33
#vjoint 17
f 17/25 14/26 13/27
#fvcolorindex 3 3 3 
vt 3.495117 2.477539 0.0
vt 3.361328 1.919922 0.0
vt 3.495117 2.477539 0.0
v -7.000000 -102.334221 387.881927
#joint 33
#vjoint 18
f 17/28 13/29 18/30
#fvcolorindex 3 3 3 
vt 4.055664 2.388672 0.0
vt 3.495117 2.477539 0.0
vt 3.495117 2.477539 0.0
v 12.000000 -91.334221 321.881927
#joint 33
#vjoint 19
f 19/31 17/32 18/33
#fvcolorindex 3 3 3 
vt 4.055664 2.388672 0.0
vt 3.495117 2.477539 0.0
vt 4.055664 2.388672 0.0
v -7.000000 -91.334221 321.881927
#joint 33
#vjoint 20
f 19/34 18/35 20/36
#fvcolorindex 3 3 3 
usemtl m4CullBoth
vt 3.043945 0.503906 0.0
vt 3.043945 0.000000 0.0
vt 0.000000 0.000000 0.0
v -22.000000 61.665779 369.881927
#joint 33
#vjoint 21
#vcolor 27.000000 27.000000 27.000000 255.000000
v 27.000000 61.665779 371.881927
#joint 33
#vjoint 22
v 37.000000 61.665779 449.881927
#joint 33
#vjoint 23
f 21/37 22/38 23/39
#fvcolorindex 6 6 6 
vt 3.043945 0.503906 0.0
vt 0.000000 0.000000 0.0
vt 0.000000 0.503906 0.0
v -32.000000 61.665779 448.881927
#joint 33
#vjoint 24
f 21/40 23/41 24/42
#fvcolorindex 6 6 6 
usemtl m5CullBoth
vt 3.974609 -0.028320 0.0
vt 3.974609 -0.953125 0.0
vt 0.000000 -0.953125 0.0
v 35.000000 -27.334219 503.881927
#joint 33
#vjoint 25
#vcolor 26.000000 11.000000 11.000000 255.000000
v 80.000000 18.665781 503.881927
#joint 33
#vjoint 26
v 80.000000 18.665781 801.881958
#joint 33
#vjoint 27
f 25/43 26/44 27/45
#fvcolorindex 7 7 7 
vt 3.974609 -0.028320 0.0
vt 0.000000 -0.953125 0.0
vt 0.000000 -0.028320 0.0
v 35.000000 -27.334219 801.881958
#joint 33
#vjoint 28
f 25/46 27/47 28/48
#fvcolorindex 7 7 7 
vt -4.037109 0.954102 0.0
vt -4.037109 0.027344 0.0
vt 0.000000 0.027344 0.0
v -29.000000 -28.334219 801.881958
#joint 33
#vjoint 29
v -29.000000 -28.334219 503.881927
#joint 33
#vjoint 30
f 28/49 29/50 30/51
#fvcolorindex 7 7 7 
vt -4.037109 0.954102 0.0
vt 0.000000 0.027344 0.0
vt 0.000000 0.954102 0.0
f 28/52 30/53 25/54
#fvcolorindex 7 7 7 
vt 0.000000 0.053711 0.0
vt 0.000000 0.919922 0.0
vt 4.021484 0.919922 0.0
v 79.000000 81.665779 503.881927
#joint 33
#vjoint 31
v 79.000000 81.665779 801.881958
#joint 33
#vjoint 32
f 26/55 31/56 32/57
#fvcolorindex 7 3 3 
vt 0.000000 0.053711 0.0
vt 4.021484 0.919922 0.0
vt 4.021484 0.053711 0.0
f 26/58 32/59 27/60
#fvcolorindex 7 3 7 
usemtl m6CullBoth
vt 3.021484 0.987305 0.0
vt 2.910156 0.000000 0.0
vt 0.000000 0.000000 0.0
v -87.000000 68.665779 580.881958
#joint 33
#vjoint 33
v -111.000000 36.665779 601.881958
#joint 33
#vjoint 34
f 33/61 34/62 3/63
#fvcolorindex 2 3 3 
vt 3.021484 0.987305 0.0
vt 0.000000 0.000000 0.0
vt 0.111328 0.987305 0.0
f 33/64 3/65 2/66
#fvcolorindex 2 3 2 
usemtl m5CullBoth
vt 3.033203 -0.932617 0.0
vt 3.033203 0.013672 0.0
vt 0.000000 0.013672 0.0
f 4/67 3/68 34/69
#fvcolorindex 7 7 7 
vt 3.033203 -0.932617 0.0
vt 0.000000 0.013672 0.0
vt 0.000000 -0.932617 0.0
v -74.000000 36.665779 601.881958
#joint 33
#vjoint 35
f 4/70 34/71 35/72
#fvcolorindex 7 7 7 
vt 0.000000 1.056641 0.0
vt 0.000000 0.406250 0.0
vt -2.895508 0.406250 0.0
v -75.000000 69.665779 580.881958
#joint 33
#vjoint 36
f 36/73 33/74 2/75
#fvcolorindex 7 2 2 
vt 0.000000 1.056641 0.0
vt -2.895508 0.406250 0.0
vt -2.895508 1.056641 0.0
f 36/76 2/77 1/78
#fvcolorindex 7 2 7 
usemtl m6CullBoth
vt 0.000000 0.650391 0.0
vt 0.990234 0.000000 0.0
vt 0.014648 0.000000 0.0
v -95.000000 -74.334221 509.881927
#joint 33
#vjoint 37
f 33/79 37/80 34/81
#fvcolorindex 2 3 3 
vt 0.000000 0.650391 0.0
vt 0.990234 1.016602 0.0
vt 0.990234 0.000000 0.0
v -95.000000 -45.334221 452.881927
#joint 33
#vjoint 38
f 33/82 38/83 37/84
#fvcolorindex 2 2 3 
usemtl m5CullBoth
vt 1.000000 0.999023 0.0
vt 0.019531 1.000000 0.0
vt 0.373047 0.000000 0.0
f 35/85 34/86 37/87
#fvcolorindex 7 3 3 
vt 1.000000 0.999023 0.0
vt 0.373047 0.000000 0.0
vt 1.000000 0.000000 0.0
v -72.000000 -73.334221 509.881927
#joint 33
#vjoint 39
f 35/88 37/89 39/90
#fvcolorindex 7 3 3 
usemtl m7CullBoth
vt 0.052734 0.921875 0.0
vt 0.000000 0.000000 0.0
vt 0.299805 0.994141 0.0
f 35/91 39/92 36/93
#fvcolorindex 3 7 3 
vt 1.034180 0.911133 0.0
vt -0.007812 0.980469 0.0
vt 0.000000 0.051758 0.0
v -33.000000 22.665781 462.881927
#joint 33
#vjoint 40
v -74.000000 16.665781 503.881927
#joint 33
#vjoint 41
v -75.000000 80.665779 503.881927
#joint 33
#vjoint 42
f 40/94 41/95 42/96
#fvcolorindex 3 7 3 
vt 1.034180 0.911133 0.0
vt 0.000000 0.051758 0.0
vt 0.965820 0.159180 0.0
v -43.000000 74.665779 460.881927
#joint 33
#vjoint 43
#vcolor 150.000000 84.000000 0.000000 255.000000
f 40/97 42/98 43/99
#fvcolorindex 3 3 8 
vt 0.006836 0.421875 0.0
vt 1.000000 0.024414 0.0
vt 0.000000 0.016602 0.0
v -58.000000 107.665779 503.881927
#joint 33
#vjoint 44
f 44/100 43/101 42/102
#fvcolorindex 3 8 3 
vt 0.006836 0.421875 0.0
vt 0.017578 0.989258 0.0
vt 1.000000 0.024414 0.0
v -30.000000 125.665779 503.881927
#joint 33
#vjoint 45
#vcolor 255.000000 219.000000 0.000000 255.000000
f 44/103 45/104 43/105
#fvcolorindex 3 9 8 
vt -0.004883 0.239258 0.0
vt -0.012695 1.004883 0.0
vt 1.046875 0.727539 0.0
f 30/106 41/107 40/108
#fvcolorindex 3 7 3 
usemtl m5CullBoth
vt 0.768555 -0.010742 0.0
vt -0.004883 0.239258 0.0
vt 1.108398 0.088867 0.0
v -7.000000 -26.334219 460.881927
#joint 33
#vjoint 46
f 16/109 30/110 46/111
#fvcolorindex 7 3 3 
usemtl m7CullBoth
vt -0.004883 0.239258 0.0
vt 1.010742 0.418945 0.0
vt 1.108398 0.088867 0.0
v -19.000000 0.665781 463.881927
#joint 33
#vjoint 47
#vcolor 214.000000 131.000000 34.000000 255.000000
f 30/112 47/113 46/114
#fvcolorindex 3 10 3 
vt -0.004883 0.239258 0.0
vt 1.046875 0.727539 0.0
vt 1.010742 0.418945 0.0
f 30/115 40/116 47/117
#fvcolorindex 3 3 10 
vt 0.633789 -0.218750 0.0
vt 0.001953 -0.033203 0.0
vt 0.042969 -0.761719 0.0
v 39.000000 23.665781 462.881927
#joint 33
#vjoint 48
f 48/118 26/119 25/120
#fvcolorindex 3 7 7 
usemtl m8CullBoth
vt 0.640625 0.107422 0.0
vt 0.000000 0.036133 0.0
vt 0.007812 0.970703 0.0
v 46.000000 75.665779 460.881927
#joint 33
#vjoint 49
f 49/121 31/122 26/123
#fvcolorindex 8 7 7 
vt 0.640625 0.107422 0.0
vt 0.007812 0.970703 0.0
vt 0.626953 0.862305 0.0
f 49/124 26/125 48/126
#fvcolorindex 8 7 3 
usemtl m7CullBoth
vt 0.002930 -0.571289 0.0
vt 0.942383 -0.701172 0.0
vt -0.007812 -0.019531 0.0
v 61.000000 108.665779 503.881927
#joint 33
#vjoint 50
v 33.000000 126.665779 503.881927
#joint 33
#vjoint 51
f 50/127 49/128 51/129
#fvcolorindex 3 8 9 
vt 0.002930 -0.571289 0.0
vt 0.010742 -0.996094 0.0
vt 0.942383 -0.701172 0.0
f 50/130 31/131 49/132
#fvcolorindex 3 7 8 
vt 0.701172 -0.880859 0.0
vt 0.042969 -0.761719 0.0
vt 0.506836 -0.996094 0.0
v 12.000000 -26.334219 460.881927
#joint 33
#vjoint 52
f 52/133 25/134 15/135
#fvcolorindex 3 7 7 
usemtl m5CullBoth
vt 0.042969 -0.761719 0.0
vt 0.701172 -0.880859 0.0
vt 0.627930 -0.538086 0.0
v 24.000000 0.665781 463.881927
#joint 33
#vjoint 53
f 25/136 52/137 53/138
#fvcolorindex 7 3 10 
usemtl m7CullBoth
vt 0.633789 -0.218750 0.0
vt 0.042969 -0.761719 0.0
vt 0.627930 -0.538086 0.0
f 48/139 25/140 53/141
#fvcolorindex 3 7 10 
usemtl m5CullBoth
vt -0.475586 -0.461914 0.0
vt -0.339844 -1.016602 0.0
vt 0.000000 -0.889648 0.0
v -46.000000 -45.334221 452.881927
#joint 33
#vjoint 54
f 41/142 30/143 54/144
#fvcolorindex 7 7 3 
vt 0.000000 0.000000 0.0
vt 0.991211 0.866211 0.0
vt 1.000000 0.000000 0.0
f 30/145 39/146 54/147
#fvcolorindex 7 3 3 
vt 0.063477 1.006836 0.0
vt 0.002930 -0.000977 0.0
vt 1.000000 0.000000 0.0
f 41/148 39/149 30/150
#fvcolorindex 7 7 7 
vt 0.427734 0.418945 0.0
vt 0.299805 0.994141 0.0
vt 0.000000 0.000000 0.0
f 41/151 36/152 39/153
#fvcolorindex 7 3 7 
vt 0.000000 0.045898 0.0
vt 0.000000 0.979492 0.0
vt 1.011719 0.869141 0.0
v -75.000000 80.665779 801.881958
#joint 33
#vjoint 55
v -74.000000 16.665781 801.881958
#joint 33
#vjoint 56
v -56.000000 24.665781 845.881958
#joint 33
#vjoint 57
f 55/154 56/155 57/156
#fvcolorindex 7 7 7 
vt 0.000000 0.045898 0.0
vt 1.011719 0.869141 0.0
vt 1.011719 0.155273 0.0
v -57.000000 72.665779 845.881958
#joint 33
#vjoint 58
#vcolor 227.000000 172.000000 46.000000 255.000000
f 55/157 57/158 58/159
#fvcolorindex 7 7 11 
vt 1.000000 -0.867188 0.0
vt 1.000000 -0.157227 0.0
vt 0.000000 -0.038086 0.0
v -21.000000 -9.334219 845.881958
#joint 33
#vjoint 59
f 59/160 57/161 56/162
#fvcolorindex 7 7 7 
vt 1.000000 -0.867188 0.0
vt 0.000000 -0.038086 0.0
vt 0.000000 -0.967773 0.0
f 59/163 56/164 29/165
#fvcolorindex 7 7 7 
vt 1.000000 0.862305 0.0
vt 1.000000 0.154297 0.0
vt 0.000000 0.034180 0.0
v 28.000000 -9.334219 845.881958
#joint 33
#vjoint 60
f 60/166 59/167 29/168
#fvcolorindex 7 7 7 
vt 1.000000 0.862305 0.0
vt 0.000000 0.034180 0.0
vt 0.000000 0.960938 0.0
f 60/169 29/170 28/171
#fvcolorindex 7 7 7 
vt -0.000977 -1.001953 0.0
vt 0.999023 -0.889648 0.0
vt 1.000000 -0.154297 0.0
v 62.000000 25.665781 845.881958
#joint 33
#vjoint 61
f 27/172 61/173 60/174
#fvcolorindex 7 7 7 
vt -0.000977 -1.001953 0.0
vt 1.000000 -0.154297 0.0
vt 0.000000 -0.040039 0.0
f 27/175 60/176 28/177
#fvcolorindex 7 7 7 
vt 0.000977 0.988281 0.0
vt 1.000000 0.878906 0.0
vt 1.000000 0.169922 0.0
v 61.000000 74.665779 845.881958
#joint 33
#vjoint 62
f 32/178 62/179 61/180
#fvcolorindex 7 11 7 
vt 0.000977 0.988281 0.0
vt 1.000000 0.169922 0.0
vt 0.000000 0.060547 0.0
f 32/181 61/182 27/183
#fvcolorindex 7 7 7 
usemtl m6CullBoth
vt 1.001953 -0.533203 0.0
vt 1.000977 -0.037109 0.0
vt 2.017578 -0.037109 0.0
v -58.000000 107.665779 576.881958
#joint 33
#vjoint 63
v -30.000000 125.665779 576.881958
#joint 33
#vjoint 64
#vcolor 111.000000 62.000000 0.000000 255.000000
f 63/184 64/185 45/186
#fvcolorindex 2 12 7 
vt 1.001953 -0.533203 0.0
vt 2.017578 -0.037109 0.0
vt 2.017578 -0.533203 0.0
#vcolor 201.000000 182.000000 81.000000 255.000000
f 63/187 45/188 44/189
#fvcolorindex 2 7 13 
usemtl m9CullBoth
vt 1.001953 -0.533203 0.0
vt 0.875977 -0.533203 0.0
vt 0.875000 -0.037109 0.0
v -58.000000 107.665779 585.881958
#joint 33
#vjoint 65
#vcolor 255.000000 255.000000 255.000000 255.000000
v -30.000000 125.665779 585.881958
#joint 33
#vjoint 66
#vcolor 226.000000 226.000000 226.000000 255.000000
f 63/190 65/191 66/192
#fvcolorindex 6 14 15 
vt 1.001953 -0.533203 0.0
vt 0.875000 -0.037109 0.0
vt 1.000977 -0.037109 0.0
f 63/193 66/194 64/195
#fvcolorindex 6 15 6 
usemtl m6CullBoth
vt 0.875977 -0.533203 0.0
vt 0.000977 -0.533203 0.0
vt 0.000000 -0.037109 0.0
v -58.000000 107.665779 648.881958
#joint 33
#vjoint 67
v -30.000000 125.665779 648.881958
#joint 33
#vjoint 68
f 65/196 67/197 68/198
#fvcolorindex 2 2 12 
vt 0.875977 -0.533203 0.0
vt 0.000000 -0.037109 0.0
vt 0.875000 -0.037109 0.0
f 65/199 68/200 66/201
#fvcolorindex 2 12 12 
usemtl m10CullBoth
vt 1.001953 -0.579102 0.0
vt 0.877930 -0.579102 0.0
vt 0.876953 -0.024414 0.0
v -58.000000 107.665779 657.881958
#joint 33
#vjoint 69
v -30.000000 125.665779 657.881958
#joint 33
#vjoint 70
f 67/202 69/203 70/204
#fvcolorindex 1 14 15 
vt 1.001953 -0.579102 0.0
vt 0.876953 -0.024414 0.0
vt 1.001953 -0.024414 0.0
f 67/205 70/206 68/207
#fvcolorindex 1 15 1 
usemtl m6CullBoth
vt 0.877930 -0.579102 0.0
vt 0.000977 -0.579102 0.0
vt 0.000000 -0.024414 0.0
v -58.000000 107.665779 721.881958
#joint 33
#vjoint 71
v -30.000000 125.665779 721.881958
#joint 33
#vjoint 72
f 69/208 71/209 72/210
#fvcolorindex 2 2 12 
vt 0.877930 -0.579102 0.0
vt 0.000000 -0.024414 0.0
vt 0.876953 -0.024414 0.0
f 69/211 72/212 70/213
#fvcolorindex 2 12 12 
usemtl m10CullBoth
vt 0.996094 -0.505859 0.0
vt 0.882812 -0.505859 0.0
vt 0.883789 -0.017578 0.0
v -58.000000 107.665779 730.881958
#joint 33
#vjoint 73
v -30.000000 125.665779 730.881958
#joint 33
#vjoint 74
f 71/214 73/215 74/216
#fvcolorindex 1 14 15 
vt 0.996094 -0.505859 0.0
vt 0.883789 -0.017578 0.0
vt 0.997070 -0.017578 0.0
f 71/217 74/218 72/219
#fvcolorindex 1 15 1 
usemtl m6CullBoth
vt 0.882812 -0.505859 0.0
vt -0.000977 -0.505859 0.0
vt 0.000000 -0.017578 0.0
v -58.000000 107.665779 801.881958
#joint 33
#vjoint 75
v -30.000000 125.665779 801.881958
#joint 33
#vjoint 76
f 73/220 75/221 76/222
#fvcolorindex 2 2 12 
vt 0.882812 -0.505859 0.0
vt 0.000000 -0.017578 0.0
vt 0.883789 -0.017578 0.0
f 73/223 76/224 74/225
#fvcolorindex 2 12 12 
vt 1.001953 -0.533203 0.0
vt 2.017578 -0.533203 0.0
vt 2.018555 -0.984375 0.0
f 63/226 44/227 42/228
#fvcolorindex 2 13 3 
vt 1.001953 -0.533203 0.0
vt 2.018555 -0.984375 0.0
vt 1.002930 -0.984375 0.0
v -75.000000 80.665779 576.881958
#joint 33
#vjoint 77
f 63/229 42/230 77/231
#fvcolorindex 2 3 3 
usemtl m11CullBoth
vt 0.875977 -0.533203 0.0
vt 1.001953 -0.533203 0.0
vt 1.002930 -0.984375 0.0
f 65/232 63/233 77/234
#fvcolorindex 14 6 6 
vt 0.875977 -0.533203 0.0
vt 1.002930 -0.984375 0.0
vt 0.875977 -0.984375 0.0
v -75.000000 80.665779 585.881958
#joint 33
#vjoint 78
f 65/235 77/236 78/237
#fvcolorindex 14 6 14 
usemtl m6CullBoth
vt 0.000977 -0.533203 0.0
vt 0.875977 -0.533203 0.0
vt 0.875977 -0.984375 0.0
f 67/238 65/239 78/240
#fvcolorindex 2 2 3 
vt 0.000977 -0.533203 0.0
vt 0.875977 -0.984375 0.0
vt 0.000977 -0.984375 0.0
v -75.000000 80.665779 648.881958
#joint 33
#vjoint 79
f 67/241 78/242 79/243
#fvcolorindex 2 3 3 
vt 0.000977 -0.579102 0.0
vt 0.877930 -0.579102 0.0
vt 0.877930 -0.961914 0.0
v -75.000000 80.665779 657.881958
#joint 33
#vjoint 80
f 71/244 69/245 80/246
#fvcolorindex 2 2 3 
vt 0.000977 -0.579102 0.0
vt 0.877930 -0.961914 0.0
vt 0.000977 -0.961914 0.0
v -75.000000 80.665779 721.881958
#joint 33
#vjoint 81
f 71/247 80/248 81/249
#fvcolorindex 2 3 3 
usemtl m11CullBoth
vt 0.882812 -0.505859 0.0
vt 0.996094 -0.505859 0.0
vt 0.995117 -0.949219 0.0
f 73/250 71/251 81/252
#fvcolorindex 14 1 1 
vt 0.882812 -0.505859 0.0
vt 0.995117 -0.949219 0.0
vt 0.881836 -0.949219 0.0
v -75.000000 80.665779 730.881958
#joint 33
#vjoint 82
f 73/253 81/254 82/255
#fvcolorindex 14 1 14 
usemtl m6CullBoth
vt -0.000977 -0.505859 0.0
vt 0.882812 -0.505859 0.0
vt 0.881836 -0.949219 0.0
f 75/256 73/257 82/258
#fvcolorindex 2 2 3 
vt -0.000977 -0.505859 0.0
vt 0.881836 -0.949219 0.0
vt -0.001953 -0.949219 0.0
f 75/259 82/260 55/261
#fvcolorindex 2 3 3 
usemtl m11CullBoth
vt 0.886719 -0.542969 0.0
vt 1.000977 -0.541992 0.0
vt 1.000977 -0.037109 0.0
v 2.000000 132.665787 730.881958
#joint 33
#vjoint 83
v 2.000000 131.665787 721.881958
#joint 33
#vjoint 84
f 83/262 84/263 72/264
#fvcolorindex 14 7 1 
vt 0.886719 -0.542969 0.0
vt 1.000977 -0.037109 0.0
vt 0.886719 -0.037109 0.0
f 83/265 72/266 74/267
#fvcolorindex 14 1 15 
usemtl m6CullBoth
vt 0.886719 -0.542969 0.0
vt 0.886719 -0.037109 0.0
vt 0.000000 -0.037109 0.0
f 83/268 74/269 76/270
#fvcolorindex 2 12 12 
vt 0.886719 -0.542969 0.0
vt 0.000000 -0.037109 0.0
vt 0.000000 -0.549805 0.0
v 2.000000 134.665787 801.881958
#joint 33
#vjoint 85
#vcolor 228.000000 143.000000 45.000000 255.000000
f 83/271 76/272 85/273
#fvcolorindex 2 12 16 
usemtl m9CullBoth
vt 1.000977 -0.988281 0.0
vt 1.000977 -0.541992 0.0
vt 0.886719 -0.542969 0.0
v 33.000000 126.665779 721.881958
#joint 33
#vjoint 86
f 86/274 84/275 83/276
#fvcolorindex 6 7 14 
vt 1.000977 -0.988281 0.0
vt 0.886719 -0.542969 0.0
vt 0.886719 -0.988281 0.0
v 33.000000 126.665779 730.881958
#joint 33
#vjoint 87
f 86/277 83/278 87/279
#fvcolorindex 6 14 15 
usemtl m12CullBoth
vt 0.886719 -0.988281 0.0
vt 0.886719 -0.542969 0.0
vt 0.000000 -0.549805 0.0
#vcolor 162.000000 91.000000 0.000000 255.000000
f 87/280 83/281 85/282
#fvcolorindex 17 2 16 
vt 0.886719 -0.988281 0.0
vt 0.000000 -0.549805 0.0
vt 0.000000 -0.988281 0.0
v 33.000000 126.665779 801.881958
#joint 33
#vjoint 88
f 87/283 85/284 88/285
#fvcolorindex 17 16 17 
usemtl m11CullBoth
vt 0.877930 -0.579102 0.0
vt 1.001953 -0.579102 0.0
vt 1.002930 -0.961914 0.0
f 69/286 67/287 79/288
#fvcolorindex 14 1 1 
vt 0.877930 -0.579102 0.0
vt 1.002930 -0.961914 0.0
vt 0.877930 -0.961914 0.0
f 69/289 79/290 80/291
#fvcolorindex 14 1 14 
vt 0.874023 -0.571289 0.0
vt 0.998047 -0.569336 0.0
vt 1.000000 -0.044922 0.0
v 2.000000 129.665787 657.881958
#joint 33
#vjoint 89
v 2.000000 129.665787 648.881958
#joint 33
#vjoint 90
f 89/292 90/293 68/294
#fvcolorindex 14 1 1 
vt 0.874023 -0.571289 0.0
vt 1.000000 -0.044922 0.0
vt 0.875000 -0.043945 0.0
f 89/295 68/296 70/297
#fvcolorindex 14 1 15 
usemtl m13CullBoth
vt 0.000000 -0.036133 0.0
vt -0.000977 -0.584961 0.0
vt 0.874023 -0.571289 0.0
#vcolor 238.000000 222.000000 138.000000 255.000000
f 72/298 84/299 89/300
#fvcolorindex 12 2 18 
vt 0.000000 -0.036133 0.0
vt 0.874023 -0.571289 0.0
vt 0.875000 -0.043945 0.0
f 72/301 89/302 70/303
#fvcolorindex 12 18 12 
usemtl m14CullBoth
vt 0.872070 -0.997070 0.0
vt 0.997070 -0.998047 0.0
vt 0.998047 -0.569336 0.0
v 33.000000 126.665779 657.881958
#joint 33
#vjoint 91
v 33.000000 126.665779 648.881958
#joint 33
#vjoint 92
f 91/304 92/305 90/306
#fvcolorindex 15 6 1 
vt 0.872070 -0.997070 0.0
vt 0.998047 -0.569336 0.0
vt 0.874023 -0.571289 0.0
f 91/307 90/308 89/309
#fvcolorindex 15 1 14 
usemtl m12CullBoth
vt 0.872070 -0.997070 0.0
vt 0.874023 -0.571289 0.0
vt -0.000977 -0.584961 0.0
f 91/310 89/311 84/312
#fvcolorindex 17 18 2 
vt 0.872070 -0.997070 0.0
vt -0.000977 -0.584961 0.0
vt -0.002930 -0.989258 0.0
f 91/313 84/314 86/315
#fvcolorindex 17 2 17 
usemtl m11CullBoth
vt 0.871094 -0.520508 0.0
vt 0.997070 -0.520508 0.0
vt 0.997070 -0.039062 0.0
v 2.000000 127.665779 585.881958
#joint 33
#vjoint 93
v 2.000000 127.665779 576.881958
#joint 33
#vjoint 94
f 93/316 94/317 64/318
#fvcolorindex 14 6 6 
vt 0.871094 -0.520508 0.0
vt 0.997070 -0.039062 0.0
vt 0.871094 -0.039062 0.0
f 93/319 64/320 66/321
#fvcolorindex 14 6 15 
usemtl m15CullBoth
vt 0.871094 -0.520508 0.0
vt 0.871094 -0.039062 0.0
vt 0.000000 -0.039062 0.0
f 93/322 66/323 68/324
#fvcolorindex 10 12 12 
vt 0.871094 -0.520508 0.0
vt 0.000000 -0.039062 0.0
vt 0.000000 -0.520508 0.0
f 93/325 68/326 90/327
#fvcolorindex 10 12 2 
usemtl m14CullBoth
vt 0.871094 -0.979492 0.0
vt 0.997070 -0.979492 0.0
vt 0.997070 -0.520508 0.0
v 33.000000 126.665779 585.881958
#joint 33
#vjoint 95
v 33.000000 126.665779 576.881958
#joint 33
#vjoint 96
f 95/328 96/329 94/330
#fvcolorindex 15 6 6 
vt 0.871094 -0.979492 0.0
vt 0.997070 -0.520508 0.0
vt 0.871094 -0.520508 0.0
f 95/331 94/332 93/333
#fvcolorindex 15 6 14 
usemtl m12CullBoth
vt 0.000000 -0.979492 0.0
vt 0.871094 -0.979492 0.0
vt 0.871094 -0.520508 0.0
f 92/334 95/335 93/336
#fvcolorindex 17 17 10 
vt 0.000000 -0.979492 0.0
vt 0.871094 -0.520508 0.0
vt 0.000000 -0.520508 0.0
f 92/337 93/338 90/339
#fvcolorindex 17 10 2 
usemtl m5CullBoth
vt 2.008789 -0.039062 0.0
vt 0.997070 -0.039062 0.0
vt 1.258789 -0.347656 0.0
v -9.000000 126.665779 557.881958
#joint 33
#vjoint 97
f 45/340 64/341 97/342
#fvcolorindex 7 12 7 
usemtl m16CullBoth
vt 1.258789 -0.697266 0.0
vt 0.997070 -0.979492 0.0
vt 2.008789 -0.979492 0.0
v 14.000000 126.665779 557.881958
#joint 33
#vjoint 98
#vcolor 85.000000 47.000000 0.000000 255.000000
f 98/343 96/344 51/345
#fvcolorindex 19 17 19 
usemtl m5CullBoth
vt 1.258789 -0.347656 0.0
vt 0.997070 -0.039062 0.0
vt 0.997070 -0.520508 0.0
#vcolor 214.000000 160.000000 34.000000 255.000000
f 97/346 64/347 94/348
#fvcolorindex 7 12 20 
usemtl m16CullBoth
vt 1.258789 -0.697266 0.0
vt 0.997070 -0.520508 0.0
vt 0.997070 -0.979492 0.0
f 98/349 94/350 96/351
#fvcolorindex 19 20 17 
vt 1.258789 -0.697266 0.0
vt 1.258789 -0.347656 0.0
vt 0.997070 -0.520508 0.0
f 98/352 97/353 94/354
#fvcolorindex 19 7 20 
usemtl m6CullBoth
vt 3.000000 0.458984 0.0
vt 3.000000 0.012695 0.0
vt 1.994141 0.012695 0.0
f 50/355 51/356 96/357
#fvcolorindex 2 7 17 
vt 3.000000 0.458984 0.0
vt 1.994141 0.012695 0.0
vt 1.994141 0.458984 0.0
v 61.000000 108.665779 576.881958
#joint 33
#vjoint 99
f 50/358 96/359 99/360
#fvcolorindex 2 17 2 
usemtl m7CullBoth
vt 1.994141 0.936523 0.0
vt 3.000000 0.936523 0.0
vt 3.000000 0.458984 0.0
v 79.000000 81.665779 576.881958
#joint 33
#vjoint 100
f 100/361 31/362 50/363
#fvcolorindex 3 3 2 
vt 1.994141 0.936523 0.0
vt 3.000000 0.458984 0.0
vt 1.994141 0.458984 0.0
f 100/364 50/365 99/366
#fvcolorindex 3 2 2 
usemtl m11CullBoth
vt 1.869141 0.936523 0.0
vt 1.994141 0.936523 0.0
vt 1.994141 0.458984 0.0
v 79.000000 81.665779 585.881958
#joint 33
#vjoint 101
f 101/367 100/368 99/369
#fvcolorindex 14 6 6 
vt 1.869141 0.936523 0.0
vt 1.994141 0.458984 0.0
vt 1.869141 0.458984 0.0
v 61.000000 108.665779 585.881958
#joint 33
#vjoint 102
f 101/370 99/371 102/372
#fvcolorindex 14 6 14 
usemtl m9CullBoth
vt 1.994141 0.012695 0.0
vt 1.869141 0.012695 0.0
vt 1.869141 0.458984 0.0
f 96/373 95/374 102/375
#fvcolorindex 6 15 14 
vt 1.994141 0.012695 0.0
vt 1.869141 0.458984 0.0
vt 1.994141 0.458984 0.0
f 96/376 102/377 99/378
#fvcolorindex 6 14 6 
usemtl m12CullBoth
vt 1.869141 0.012695 0.0
vt 1.003906 0.012695 0.0
vt 1.003906 0.458984 0.0
v 61.000000 108.665779 648.881958
#joint 33
#vjoint 103
f 95/379 92/380 103/381
#fvcolorindex 17 17 2 
vt 1.869141 0.012695 0.0
vt 1.003906 0.458984 0.0
vt 1.869141 0.458984 0.0
f 95/382 103/383 102/384
#fvcolorindex 17 2 2 
usemtl m7CullBoth
vt 1.003906 0.936523 0.0
vt 1.869141 0.936523 0.0
vt 1.869141 0.458984 0.0
v 79.000000 81.665779 648.881958
#joint 33
#vjoint 104
f 104/385 101/386 102/387
#fvcolorindex 3 3 2 
vt 1.003906 0.936523 0.0
vt 1.869141 0.458984 0.0
vt 1.003906 0.458984 0.0
f 104/388 102/389 103/390
#fvcolorindex 3 2 2 
usemtl m11CullBoth
vt 0.878906 0.936523 0.0
vt 1.003906 0.936523 0.0
vt 1.003906 0.458984 0.0
v 79.000000 81.665779 657.881958
#joint 33
#vjoint 105
f 105/391 104/392 103/393
#fvcolorindex 14 6 6 
vt 0.878906 0.936523 0.0
vt 1.003906 0.458984 0.0
vt 0.878906 0.458984 0.0
v 61.000000 108.665779 657.881958
#joint 33
#vjoint 106
f 105/394 103/395 106/396
#fvcolorindex 14 6 14 
usemtl m9CullBoth
vt 1.003906 0.012695 0.0
vt 0.878906 0.012695 0.0
vt 0.878906 0.458984 0.0
f 92/397 91/398 106/399
#fvcolorindex 6 15 14 
vt 1.003906 0.012695 0.0
vt 0.878906 0.458984 0.0
vt 1.003906 0.458984 0.0
f 92/400 106/401 103/402
#fvcolorindex 6 14 6 
usemtl m12CullBoth
vt 0.878906 0.012695 0.0
vt 0.000000 0.012695 0.0
vt 0.000000 0.458984 0.0
v 61.000000 108.665779 721.881958
#joint 33
#vjoint 107
f 91/403 86/404 107/405
#fvcolorindex 17 17 2 
vt 0.878906 0.012695 0.0
vt 0.000000 0.458984 0.0
vt 0.878906 0.458984 0.0
f 91/406 107/407 106/408
#fvcolorindex 17 2 2 
usemtl m7CullBoth
vt 0.000000 0.936523 0.0
vt 0.878906 0.936523 0.0
vt 0.878906 0.458984 0.0
v 79.000000 81.665779 721.881958
#joint 33
#vjoint 108
f 108/409 105/410 106/411
#fvcolorindex 3 3 2 
vt 0.000000 0.936523 0.0
vt 0.878906 0.458984 0.0
vt 0.000000 0.458984 0.0
f 108/412 106/413 107/414
#fvcolorindex 3 2 2 
usemtl m11CullBoth
vt 0.892578 0.914062 0.0
vt 1.007812 0.914062 0.0
vt 1.007812 0.454102 0.0
v 79.000000 81.665779 730.881958
#joint 33
#vjoint 109
f 109/415 108/416 107/417
#fvcolorindex 14 6 6 
vt 0.892578 0.914062 0.0
vt 1.007812 0.454102 0.0
vt 0.892578 0.454102 0.0
v 61.000000 108.665779 730.881958
#joint 33
#vjoint 110
f 109/418 107/419 110/420
#fvcolorindex 14 6 14 
usemtl m9CullBoth
vt 1.007812 0.023438 0.0
vt 0.892578 0.023438 0.0
vt 0.892578 0.454102 0.0
f 86/421 87/422 110/423
#fvcolorindex 6 15 14 
vt 1.007812 0.023438 0.0
vt 0.892578 0.454102 0.0
vt 1.007812 0.454102 0.0
f 86/424 110/425 107/426
#fvcolorindex 6 14 6 
usemtl m12CullBoth
vt 0.892578 0.023438 0.0
vt 0.000000 0.023438 0.0
vt 0.000000 0.454102 0.0
v 61.000000 108.665779 801.881958
#joint 33
#vjoint 111
f 87/427 88/428 111/429
#fvcolorindex 17 17 2 
vt 0.892578 0.023438 0.0
vt 0.000000 0.454102 0.0
vt 0.892578 0.454102 0.0
f 87/430 111/431 110/432
#fvcolorindex 17 2 2 
usemtl m7CullBoth
vt 0.000000 0.914062 0.0
vt 0.892578 0.914062 0.0
vt 0.892578 0.454102 0.0
f 32/433 109/434 110/435
#fvcolorindex 3 3 2 
vt 0.000000 0.914062 0.0
vt 0.892578 0.454102 0.0
vt 0.000000 0.454102 0.0
f 32/436 110/437 111/438
#fvcolorindex 3 2 2 
vt 0.000000 0.046875 0.0
vt 0.000000 0.938477 0.0
vt -4.084961 0.938477 0.0
f 42/439 41/440 56/441
#fvcolorindex 3 7 7 
vt 0.000000 0.046875 0.0
vt -4.084961 0.938477 0.0
vt -4.084961 0.046875 0.0
f 42/442 56/443 55/444
#fvcolorindex 3 7 3 
usemtl m5CullBoth
vt 0.000000 0.969727 0.0
vt 0.000000 0.075195 0.0
vt 4.036133 0.075195 0.0
f 41/445 30/446 29/447
#fvcolorindex 7 7 7 
vt 0.000000 0.969727 0.0
vt 4.036133 0.075195 0.0
vt 4.036133 0.969727 0.0
f 41/448 29/449 56/450
#fvcolorindex 7 7 7 
vt 0.057617 0.000000 0.0
vt 0.602539 0.338867 0.0
vt 0.602539 0.633789 0.0
f 30/451 16/452 15/453
#fvcolorindex 7 3 3 
vt 0.057617 0.000000 0.0
vt 0.602539 0.633789 0.0
vt 0.057617 1.004883 0.0
f 30/454 15/455 25/456
#fvcolorindex 7 3 7 
usemtl m7CullBoth
vt 0.000000 -0.889648 0.0
vt 0.000000 -0.328125 0.0
vt -0.475586 -0.461914 0.0
f 54/457 38/458 41/459
#fvcolorindex 3 2 3 
usemtl m6CullBoth
vt 0.000000 -0.328125 0.0
vt -0.990234 -0.328125 0.0
vt -0.475586 -0.461914 0.0
f 38/460 36/461 41/462
#fvcolorindex 2 3 3 
vt -0.981445 -0.188477 0.0
vt -0.990234 -0.328125 0.0
vt 0.000000 -0.328125 0.0
f 33/463 36/464 38/465
#fvcolorindex 2 3 2 
usemtl m17CullBoth
vt 0.013672 0.884766 0.0
vt 0.990234 0.791992 0.0
vt -0.042969 0.421875 0.0
#vcolor 125.000000 70.000000 0.000000 255.000000
v -23.000000 107.665779 845.881958
#joint 33
#vjoint 112
f 76/466 112/467 85/468
#fvcolorindex 21 21 2 
usemtl m6CullBoth
vt -0.042969 0.421875 0.0
vt 0.998047 0.140625 0.0
vt 0.024414 0.033203 0.0
v 26.000000 108.665779 845.881958
#joint 33
#vjoint 113
f 85/469 113/470 88/471
#fvcolorindex 2 21 21 
usemtl m17CullBoth
vt 0.990234 0.791992 0.0
vt 0.998047 0.140625 0.0
vt -0.042969 0.421875 0.0
f 112/472 113/473 85/474
#fvcolorindex 21 21 2 
usemtl m6CullBoth
vt -0.056641 0.535156 0.0
vt 1.000977 0.876953 0.0
vt -0.000977 1.008789 0.0
f 75/475 112/476 76/477
#fvcolorindex 2 21 21 
usemtl m5CullBoth
vt -0.001953 0.019531 0.0
vt 1.000000 0.121094 0.0
vt -0.056641 0.535156 0.0
f 55/478 58/479 75/480
#fvcolorindex 7 11 2 
usemtl m6CullBoth
vt -0.056641 0.535156 0.0
vt 1.000000 0.121094 0.0
vt 1.000977 0.876953 0.0
f 75/481 58/482 112/483
#fvcolorindex 2 11 21 
usemtl m17CullBoth
vt -0.012695 -1.006836 0.0
vt 0.992188 -0.899414 0.0
vt -0.056641 -0.507812 0.0
f 88/484 113/485 111/486
#fvcolorindex 21 21 2 
usemtl m6CullBoth
vt -0.056641 -0.507812 0.0
vt 0.999023 -0.164062 0.0
vt -0.004883 -0.043945 0.0
f 111/487 62/488 32/489
#fvcolorindex 2 11 7 
vt -0.056641 -0.507812 0.0
vt 0.992188 -0.899414 0.0
vt 0.999023 -0.164062 0.0
f 111/490 113/491 62/492
#fvcolorindex 2 21 11 
usemtl m5CullBoth
vt -2.895508 1.056641 0.0
vt -2.895508 0.406250 0.0
vt 0.000000 0.406250 0.0
v 91.000000 71.665779 580.881958
#joint 33
#vjoint 114
f 8/493 7/494 114/495
#fvcolorindex 7 2 2 
vt -2.895508 1.056641 0.0
vt 0.000000 0.406250 0.0
vt 0.000000 1.056641 0.0
v 79.000000 71.665779 580.881958
#joint 33
#vjoint 115
f 8/496 114/497 115/498
#fvcolorindex 7 2 7 
vt 0.000000 -0.932617 0.0
vt 0.000000 0.013672 0.0
vt 3.033203 0.013672 0.0
v 80.000000 38.665779 601.881958
#joint 33
#vjoint 116
v 116.000000 38.665779 601.881958
#joint 33
#vjoint 117
f 116/499 117/500 6/501
#fvcolorindex 7 7 7 
vt 0.000000 -0.932617 0.0
vt 3.033203 0.013672 0.0
vt 3.033203 -0.932617 0.0
f 116/502 6/503 5/504
#fvcolorindex 7 7 7 
usemtl m6CullBoth
vt 0.111328 0.987305 0.0
vt 0.000000 0.000000 0.0
vt 2.910156 0.000000 0.0
f 7/505 6/506 117/507
#fvcolorindex 2 3 3 
vt 0.111328 0.987305 0.0
vt 2.910156 0.000000 0.0
vt 3.021484 0.987305 0.0
f 7/508 117/509 114/510
#fvcolorindex 2 3 2 
vt 0.000000 -0.328125 0.0
vt -0.990234 -0.328125 0.0
vt -0.981445 -0.188477 0.0
v 102.000000 -43.334221 452.881927
#joint 33
#vjoint 118
f 118/511 115/512 114/513
#fvcolorindex 2 3 2 
usemtl m7CullBoth
vt -0.475586 -0.461914 0.0
vt -0.990234 -0.328125 0.0
vt 0.000000 -0.328125 0.0
f 26/514 115/515 118/516
#fvcolorindex 3 3 2 
vt -0.475586 -0.461914 0.0
vt 0.000000 -0.328125 0.0
vt 0.000000 -0.889648 0.0
v 53.000000 -44.334221 452.881927
#joint 33
#vjoint 119
f 26/517 118/518 119/519
#fvcolorindex 3 2 3 
usemtl m5CullBoth
vt 0.000000 0.000000 0.0
vt 0.299805 0.994141 0.0
vt 0.427734 0.418945 0.0
v 79.000000 -72.334221 509.881927
#joint 33
#vjoint 120
f 120/520 115/521 26/522
#fvcolorindex 7 3 7 
vt 1.000000 0.000000 0.0
vt 0.002930 -0.000977 0.0
vt 0.063477 1.006836 0.0
f 25/523 120/524 26/525
#fvcolorindex 7 7 7 
usemtl m7CullBoth
vt 1.000000 0.000000 0.0
vt 0.991211 0.866211 0.0
vt 0.000000 0.000000 0.0
f 119/526 120/527 25/528
#fvcolorindex 3 3 7 
vt 0.000000 -0.889648 0.0
vt -0.339844 -1.016602 0.0
vt -0.475586 -0.461914 0.0
f 119/529 25/530 26/531
#fvcolorindex 3 7 7 
vt 0.299805 0.994141 0.0
vt 0.000000 0.000000 0.0
vt 0.052734 0.921875 0.0
f 115/532 120/533 116/534
#fvcolorindex 3 7 3 
vt 1.000000 0.000000 0.0
vt 0.373047 0.000000 0.0
vt 0.019531 1.000000 0.0
v 103.000000 -71.334221 509.881927
#joint 33
#vjoint 121
f 120/535 121/536 117/537
#fvcolorindex 3 3 3 
vt 1.000000 0.000000 0.0
vt 0.019531 1.000000 0.0
vt 1.000000 0.999023 0.0
f 120/538 117/539 116/540
#fvcolorindex 3 3 7 
vt 0.990234 0.000000 0.0
vt 0.990234 1.016602 0.0
vt 0.000000 0.650391 0.0
f 121/541 118/542 114/543
#fvcolorindex 3 2 2 
vt 0.014648 0.000000 0.0
vt 0.990234 0.000000 0.0
vt 0.000000 0.650391 0.0
f 117/544 121/545 114/546
#fvcolorindex 3 3 2 
usemtl m18CullBoth
vt -0.994141 -0.357422 0.0
vt 0.005859 -0.357422 0.0
vt -0.006836 0.389648 0.0
v -7.000000 -26.334219 354.881927
#joint 33
#vjoint 122
f 18/547 13/548 122/549
#fvcolorindex 3 3 3 
vt -0.994141 -0.357422 0.0
vt -0.006836 0.389648 0.0
vt -1.070312 0.627930 0.0
f 18/550 122/551 20/552
#fvcolorindex 3 3 3 
vt 0.000000 0.515625 0.0
vt -1.084961 0.515625 0.0
vt -1.084961 0.000000 0.0
v 12.000000 -26.334219 354.881927
#joint 33
#vjoint 123
f 123/553 19/554 20/555
#fvcolorindex 3 3 3 
vt 0.000000 0.515625 0.0
vt -1.084961 0.000000 0.0
vt 0.000000 0.000000 0.0
f 123/556 20/557 122/558
#fvcolorindex 3 3 3 
vt -1.070312 0.627930 0.0
vt -0.006836 0.389648 0.0
vt 0.005859 -0.357422 0.0
f 19/559 123/560 14/561
#fvcolorindex 3 3 3 
vt -1.070312 0.627930 0.0
vt 0.005859 -0.357422 0.0
vt -0.994141 -0.357422 0.0
f 19/562 14/563 17/564
#fvcolorindex 3 3 3 
usemtl m19CullBothMirrorT
vt 0.369141 4.132324 0.0
vt 0.888672 0.578613 0.0
vt 0.050781 0.032715 0.0
v -72.000000 -66.334221 80.881927
#joint 33
#vjoint 124
#vcolor 61.000000 47.000000 88.000000 255.000000
f 124/565 54/566 39/567
#fvcolorindex 22 3 3 
vt 0.119141 4.132324 0.0
vt 0.369141 4.132324 0.0
vt 0.050781 0.032715 0.0
v -71.000000 -73.334221 80.881927
#joint 33
#vjoint 125
f 125/568 124/569 39/570
#fvcolorindex 22 22 3 
vt 0.238281 4.579590 0.0
vt 0.119141 4.132324 0.0
vt 0.050781 0.032715 0.0
v -94.000000 -74.334221 33.881927
#joint 33
#vjoint 126
f 126/571 125/572 39/573
#fvcolorindex 22 22 3 
vt 0.238281 4.579590 0.0
vt 0.050781 0.032715 0.0
vt 0.189453 0.032227 0.0
f 126/574 39/575 37/576
#fvcolorindex 22 3 3 
usemtl m20CullBothMirrorT
vt 0.919922 -0.502441 0.0
vt 0.082031 3.111328 0.0
vt 0.273438 3.111328 0.0
v -95.000000 -66.334221 33.881927
#joint 33
#vjoint 127
f 37/577 127/578 126/579
#fvcolorindex 3 4 22 
usemtl m21CullBothMirrorT
vt 0.029297 0.000000 0.0
vt 0.935547 0.000488 0.0
vt 0.472656 3.003906 0.0
f 38/580 54/581 124/582
#fvcolorindex 2 3 22 
vt 0.029297 0.000000 0.0
vt 0.472656 3.003906 0.0
vt 0.046875 3.003906 0.0
f 38/583 124/584 127/585
#fvcolorindex 2 22 4 
usemtl m20CullBothMirrorT
vt 0.919922 -0.502441 0.0
vt 0.138672 -0.070312 0.0
vt 0.082031 3.111328 0.0
f 37/586 38/587 127/588
#fvcolorindex 3 2 4 
usemtl m21CullBothMirrorT
vt 0.126953 0.079590 0.0
vt 0.046875 2.246582 0.0
vt 0.980469 2.845703 0.0
v -22.000000 125.665779 325.881927
#joint 33
#vjoint 128
#vcolor 165.000000 174.000000 213.000000 255.000000
v -22.000000 64.665779 279.881927
#joint 33
#vjoint 129
f 45/589 128/590 129/591
#fvcolorindex 2 23 4 
vt 0.126953 0.079590 0.0
vt 0.980469 2.845703 0.0
vt 0.980469 0.610840 0.0
f 45/592 129/593 43/594
#fvcolorindex 2 4 8 
usemtl m22CullBothMirrorT
vt 0.980469 -0.703125 0.0
vt 0.960938 0.000000 0.0
vt 0.130859 0.000000 0.0
v -10.000000 126.665779 503.881927
#joint 33
#vjoint 130
f 97/595 130/596 45/597
#fvcolorindex 8 22 2 
usemtl m23CullBothMirrorT
vt 0.046875 -0.064453 0.0
vt 0.976562 0.366211 0.0
vt 0.976562 -1.342285 0.0
v -3.000000 154.665787 516.881958
#joint 33
#vjoint 131
f 131/598 130/599 97/600
#fvcolorindex 16 22 16 
vt 0.064453 0.095215 0.0
vt 0.781250 1.135742 0.0
vt 0.781250 -0.245605 0.0
v 8.000000 154.665787 516.881958
#joint 33
#vjoint 132
v 14.000000 126.665779 503.881927
#joint 33
#vjoint 133
f 132/601 98/602 133/603
#fvcolorindex 16 16 22 
vt 0.046875 -0.064453 0.0
vt 0.033203 1.284668 0.0
vt 0.976562 0.366211 0.0
v -3.000000 154.665787 474.881927
#joint 33
#vjoint 134
f 131/604 134/605 130/606
#fvcolorindex 16 2 22 
usemtl m21CullBothMirrorT
vt 0.033203 1.284668 0.0
vt 0.941406 2.046387 0.0
vt 0.976562 0.366211 0.0
v -10.000000 126.665779 450.881927
#joint 33
#vjoint 135
f 134/607 135/608 130/609
#fvcolorindex 2 22 22 
vt 0.064453 -0.996094 0.0
vt 0.064453 0.095215 0.0
vt 0.781250 -0.245605 0.0
v 8.000000 154.665787 474.881927
#joint 33
#vjoint 136
f 136/610 132/611 133/612
#fvcolorindex 2 16 22 
usemtl m19CullBothMirrorT
vt 0.781250 -0.245605 0.0
vt 0.781250 -1.604492 0.0
vt 0.064453 -0.996094 0.0
v 14.000000 126.665779 450.881927
#joint 33
#vjoint 137
f 133/613 137/614 136/615
#fvcolorindex 22 22 2 
usemtl m23CullBothMirrorT
vt 0.078125 0.779785 0.0
vt 0.078125 0.324707 0.0
vt 1.000000 0.000000 0.0
f 132/616 131/617 97/618
#fvcolorindex 16 16 16 
vt 0.078125 0.779785 0.0
vt 1.000000 0.000000 0.0
vt 1.000000 1.000000 0.0
f 132/619 97/620 98/621
#fvcolorindex 16 16 16 
vt 0.072266 0.000000 0.0
vt 0.453125 0.000000 0.0
vt 0.453125 1.896973 0.0
f 131/622 132/623 136/624
#fvcolorindex 16 16 2 
vt 0.072266 0.000000 0.0
vt 0.453125 1.896973 0.0
vt 0.072266 1.896973 0.0
f 131/625 136/626 134/627
#fvcolorindex 16 2 2 
usemtl m19CullBothMirrorT
vt 0.984375 0.198730 0.0
vt 0.134766 0.006348 0.0
vt 0.134766 0.383301 0.0
v 2.000000 114.665779 417.881927
#joint 33
#vjoint 138
f 138/628 134/629 136/630
#fvcolorindex 22 2 2 
usemtl m24CullBothMirrorT
vt 0.197266 0.000000 0.0
vt 0.761719 0.000000 0.0
vt 0.785156 -1.291016 0.0
v 27.000000 65.665779 279.881927
#joint 33
#vjoint 139
v 24.000000 22.665781 314.881927
#joint 33
#vjoint 140
v -19.000000 22.665781 314.881927
#joint 33
#vjoint 141
f 139/631 140/632 141/633
#fvcolorindex 4 21 21 
vt 0.197266 0.000000 0.0
vt 0.785156 -1.291016 0.0
vt 0.230469 -1.488770 0.0
f 139/634 141/635 129/636
#fvcolorindex 4 21 4 
usemtl m25CullBothMirrorT
vt 0.078125 -1.010742 0.0
vt 0.078125 0.001465 0.0
vt 0.855469 0.017090 0.0
#vcolor 155.000000 178.000000 222.000000 255.000000
v 25.000000 126.665779 325.881927
#joint 33
#vjoint 142
f 128/637 142/638 139/639
#fvcolorindex 24 24 4 
vt 0.078125 -1.010742 0.0
vt 0.855469 0.017090 0.0
vt 0.855469 -1.026855 0.0
f 128/640 139/641 129/642
#fvcolorindex 24 4 4 
usemtl m24CullBothMirrorT
vt -0.076172 0.000000 0.0
vt -0.050781 1.022461 0.0
vt -0.871094 1.022461 0.0
v -21.000000 141.665787 363.881927
#joint 33
#vjoint 143
v 26.000000 142.665787 363.881927
#joint 33
#vjoint 144
f 143/643 144/644 142/645
#fvcolorindex 4 4 24 
vt -0.076172 0.000000 0.0
vt -0.871094 1.022461 0.0
vt -0.896484 0.000000 0.0
f 143/646 142/647 128/648
#fvcolorindex 4 24 24 
usemtl m19CullBothMirrorT
vt 0.689453 0.472168 0.0
vt 0.144531 0.824707 0.0
vt 0.142578 0.006348 0.0
f 138/649 144/650 143/651
#fvcolorindex 22 4 4 
usemtl m21CullBothMirrorT
vt 0.130859 0.000000 0.0
vt 0.279297 1.811035 0.0
vt 0.173828 2.308105 0.0
f 45/652 143/653 128/654
#fvcolorindex 2 4 23 
usemtl m24CullBothMirrorT
vt 0.142578 0.006348 0.0
vt 0.986328 0.301270 0.0
vt 0.689453 0.472168 0.0
f 143/655 135/656 138/657
#fvcolorindex 4 22 22 
usemtl m19CullBothMirrorT
vt 0.988281 0.715332 0.0
vt 0.144531 0.824707 0.0
vt 0.689453 0.472168 0.0
f 137/658 144/659 138/660
#fvcolorindex 22 4 22 
usemtl m24CullBothMirrorT
vt 0.279297 1.811035 0.0
vt 0.130859 0.000000 0.0
vt 0.880859 0.691895 0.0
f 143/661 45/662 135/663
#fvcolorindex 4 2 22 
usemtl m21CullBothMirrorT
vt 0.130859 0.000000 0.0
vt 0.960938 0.000000 0.0
vt 0.880859 0.691895 0.0
f 45/664 130/665 135/666
#fvcolorindex 2 22 22 
usemtl m19CullBothMirrorT
vt 0.570312 0.026367 0.0
vt 0.550781 1.597656 0.0
vt 0.109375 2.098145 0.0
v 4.000000 -91.334221 42.881927
#joint 33
#vjoint 145
v 8.000000 -108.334221 -13.118073
#joint 33
#vjoint 146
f 124/667 145/668 146/669
#fvcolorindex 22 4 4 
vt 0.570312 0.026367 0.0
vt 0.109375 2.098145 0.0
vt 0.099609 0.004883 0.0
f 124/670 146/671 127/672
#fvcolorindex 22 4 4 
vt 0.929688 2.269043 0.0
vt 0.884766 0.000000 0.0
vt 0.167969 0.000000 0.0
v 4.000000 -100.334221 43.881927
#joint 33
#vjoint 147
f 125/673 147/674 145/675
#fvcolorindex 22 22 22 
vt 0.929688 2.269043 0.0
vt 0.167969 0.000000 0.0
vt 0.398438 2.304688 0.0
f 125/676 145/677 124/678
#fvcolorindex 22 22 22 
vt 0.103516 0.063965 0.0
vt 0.103516 2.121094 0.0
vt 0.554688 1.627441 0.0
f 126/679 146/680 147/681
#fvcolorindex 22 22 22 
vt 0.103516 0.063965 0.0
vt 0.554688 1.627441 0.0
vt 0.574219 0.081543 0.0
f 126/682 147/683 125/684
#fvcolorindex 22 22 22 
usemtl m24CullBothMirrorT
vt 0.097656 0.000000 0.0
vt 0.021484 2.450684 0.0
vt 0.853516 0.000000 0.0
f 127/685 146/686 126/687
#fvcolorindex 4 22 22 
usemtl m26CullBothMirrorT
vt 0.226562 1.952637 0.0
vt 0.960938 1.953613 0.0
vt 0.962891 0.000000 0.0
f 23/688 12/689 11/690
#fvcolorindex 6 4 4 
usemtl m24CullBothMirrorT
vt 0.962891 1.516113 0.0
vt 0.230469 1.515137 0.0
vt 0.964844 0.150879 0.0
f 9/691 22/692 10/693
#fvcolorindex 4 6 4 
usemtl m19CullBothMirrorT
vt 0.558594 1.964844 0.0
vt 0.650391 0.957031 0.0
vt 0.181641 0.310547 0.0
f 138/694 135/695 134/696
#fvcolorindex 22 22 2 
vt 0.781250 -1.604492 0.0
vt 1.003906 -2.437012 0.0
vt 0.064453 -0.996094 0.0
f 137/697 138/698 136/699
#fvcolorindex 22 22 2 
vt 0.880859 0.691895 0.0
vt 0.130859 0.000000 0.0
vt 0.279297 1.811035 0.0
f 137/700 51/701 144/702
#fvcolorindex 22 2 4 
usemtl m21CullBothMirrorT
vt 0.130859 0.000000 0.0
vt 0.960938 0.000000 0.0
vt 0.980469 -0.703125 0.0
f 51/703 133/704 98/705
#fvcolorindex 2 22 8 
usemtl m19CullBothMirrorT
vt 0.880859 0.691895 0.0
vt 0.960938 0.000000 0.0
vt 0.130859 0.000000 0.0
f 137/706 133/707 51/708
#fvcolorindex 22 22 2 
usemtl m27CullBothMirrorT
vt 0.173828 2.308105 0.0
vt 0.279297 1.811035 0.0
vt 0.130859 0.000000 0.0
f 142/709 144/710 51/711
#fvcolorindex 23 4 2 
usemtl m22CullBothMirrorT
vt 0.980469 0.610840 0.0
vt 0.980469 2.845703 0.0
vt 0.046875 2.246582 0.0
f 49/712 139/713 142/714
#fvcolorindex 8 4 23 
vt 0.980469 0.610840 0.0
vt 0.046875 2.246582 0.0
vt 0.126953 0.079590 0.0
f 49/715 142/716 51/717
#fvcolorindex 8 23 2 
vt 0.947266 0.000000 0.0
vt 0.734375 0.178223 0.0
vt 0.742188 1.431641 0.0
f 49/718 23/719 22/720
#fvcolorindex 8 3 2 
vt 0.947266 0.000000 0.0
vt 0.742188 1.431641 0.0
vt 0.816406 2.366699 0.0
f 49/721 22/722 139/723
#fvcolorindex 8 2 4 
usemtl m24CullBothMirrorT
vt 0.816406 2.366699 0.0
vt 0.742188 1.431641 0.0
vt 0.322266 1.444824 0.0
#vcolor 184.000000 171.000000 100.000000 255.000000
f 139/724 22/725 9/726
#fvcolorindex 4 2 25 
vt 0.816406 2.366699 0.0
vt 0.322266 1.444824 0.0
vt 0.166016 1.927246 0.0
#vcolor 137.000000 77.000000 0.000000 255.000000
f 139/727 9/728 140/729
#fvcolorindex 4 25 26 
usemtl m19CullBothMirrorT
vt 1.000000 0.711914 0.0
vt 0.962891 1.577148 0.0
vt 0.109375 1.910645 0.0
v 12.000000 -1.334219 413.881927
#joint 33
#vjoint 148
v 2.000000 3.665781 351.881927
#joint 33
#vjoint 149
f 148/730 149/731 140/732
#fvcolorindex 22 22 26 
vt 1.000000 0.711914 0.0
vt 0.109375 1.910645 0.0
vt 0.039062 0.000000 0.0
f 148/733 140/734 48/735
#fvcolorindex 22 26 26 
usemtl m28CullBothMirrorT
vt 0.166016 1.927246 0.0
vt 0.322266 1.444824 0.0
vt 0.314453 0.181152 0.0
f 140/736 9/737 12/738
#fvcolorindex 26 25 2 
vt 0.166016 1.927246 0.0
vt 0.314453 0.181152 0.0
vt 0.150391 0.000000 0.0
f 140/739 12/740 48/741
#fvcolorindex 26 2 26 
vt 0.150391 0.000000 0.0
vt 0.314453 0.181152 0.0
vt 0.734375 0.178223 0.0
f 48/742 12/743 23/744
#fvcolorindex 26 2 3 
vt 0.150391 0.000000 0.0
vt 0.734375 0.178223 0.0
vt 0.947266 0.000000 0.0
f 48/745 23/746 49/747
#fvcolorindex 26 3 8 
usemtl m19CullBothMirrorT
vt 1.000000 0.711914 0.0
vt 0.039062 0.000000 0.0
vt 0.802734 0.000000 0.0
f 148/748 48/749 53/750
#fvcolorindex 22 26 22 
vt 0.757812 -0.035645 0.0
vt 0.757812 -1.043457 0.0
vt 0.087891 -1.311035 0.0
v 79.000000 -71.334221 80.881927
#joint 33
#vjoint 150
f 150/751 147/752 146/753
#fvcolorindex 22 22 22 
vt 0.757812 -0.035645 0.0
vt 0.087891 -1.311035 0.0
vt 0.087891 -0.039551 0.0
v 102.000000 -71.334221 33.881927
#joint 33
#vjoint 151
f 150/754 146/755 151/756
#fvcolorindex 22 22 22 
usemtl m24CullBothMirrorT
vt 0.361328 1.469727 0.0
vt 0.123047 0.000000 0.0
vt 0.736328 0.000000 0.0
v 80.000000 -64.334221 80.881927
#joint 33
#vjoint 152
f 152/757 145/758 147/759
#fvcolorindex 4 22 22 
vt 0.361328 1.469727 0.0
vt 0.736328 0.000000 0.0
vt 0.816406 1.448242 0.0
f 152/760 147/761 150/762
#fvcolorindex 4 22 1 
usemtl m19CullBothMirrorT
vt 0.082031 0.000000 0.0
vt 0.082031 -1.271484 0.0
vt 0.751953 -1.022461 0.0
v 103.000000 -64.334221 33.881927
#joint 33
#vjoint 153
f 153/763 146/764 145/765
#fvcolorindex 22 4 4 
vt 0.082031 0.000000 0.0
vt 0.751953 -1.022461 0.0
vt 0.750000 0.000977 0.0
f 153/766 145/767 152/768
#fvcolorindex 22 4 4 
vt 0.082031 3.111328 0.0
vt 0.138672 -0.070312 0.0
vt 0.919922 -0.502441 0.0
f 153/769 118/770 121/771
#fvcolorindex 22 2 3 
vt 0.046875 3.003906 0.0
vt 0.472656 3.003906 0.0
vt 0.935547 0.000488 0.0
f 153/772 152/773 119/774
#fvcolorindex 22 4 3 
vt 0.046875 3.003906 0.0
vt 0.935547 0.000488 0.0
vt 0.029297 0.000000 0.0
f 153/775 119/776 118/777
#fvcolorindex 22 3 2 
vt 0.273438 3.111328 0.0
vt 0.082031 3.111328 0.0
vt 0.919922 -0.502441 0.0
f 151/778 153/779 121/780
#fvcolorindex 22 22 3 
usemtl m20CullBothMirrorT
vt 0.189453 0.032227 0.0
vt 0.050781 0.032715 0.0
vt 0.119141 4.132324 0.0
f 121/781 120/782 150/783
#fvcolorindex 3 3 22 
vt 0.189453 0.032227 0.0
vt 0.119141 4.132324 0.0
vt 0.238281 4.579590 0.0
f 121/784 150/785 151/786
#fvcolorindex 3 22 22 
vt 0.050781 0.032715 0.0
vt 0.369141 4.132324 0.0
vt 0.119141 4.132324 0.0
f 120/787 152/788 150/789
#fvcolorindex 3 4 22 
vt 0.050781 0.032715 0.0
vt 0.888672 0.578613 0.0
vt 0.369141 4.132324 0.0
f 120/790 119/791 152/792
#fvcolorindex 3 3 4 
usemtl m19CullBothMirrorT
vt 0.017578 0.000000 0.0
vt 0.832031 0.000000 0.0
vt 0.070312 2.585938 0.0
f 153/793 151/794 146/795
#fvcolorindex 22 22 22 
usemtl m24CullBothMirrorT
vt 0.085938 1.795410 0.0
vt 0.923828 2.000000 0.0
vt 0.931641 -0.538574 0.0
v -7.000000 -26.334219 409.881927
#joint 33
#vjoint 154
v -7.000000 -37.334221 472.881927
#joint 33
#vjoint 155
f 154/796 13/797 155/798
#fvcolorindex 4 4 5 
vt 0.085938 1.795410 0.0
vt 0.931641 -0.538574 0.0
vt 0.931641 -0.555664 0.0
f 154/799 155/800 16/801
#fvcolorindex 4 5 3 
vt 0.085938 1.795410 0.0
vt 0.931641 -0.555664 0.0
vt 0.111328 -0.066406 0.0
f 154/802 16/803 46/804
#fvcolorindex 4 3 3 
usemtl m19CullBothMirrorT
vt 0.802734 0.000000 0.0
vt 0.039062 0.000000 0.0
vt 1.000000 0.711914 0.0
v -7.000000 -1.334219 413.881927
#joint 33
#vjoint 156
f 47/805 40/806 156/807
#fvcolorindex 22 26 22 
usemtl m28CullBothMirrorT
vt 0.039062 0.000000 0.0
vt 0.109375 1.910645 0.0
vt 1.000000 0.711914 0.0
f 40/808 141/809 156/810
#fvcolorindex 26 26 22 
usemtl m24CullBothMirrorT
vt 0.375000 -0.098633 0.0
vt 0.089844 -0.023926 0.0
vt 0.089844 1.286133 0.0
v -9.000000 -13.334219 354.881927
#joint 33
#vjoint 157
f 157/811 122/812 13/813
#fvcolorindex 4 4 4 
usemtl m29CullBothMirrorT
vt 0.785156 0.000000 0.0
vt 0.785156 1.715332 0.0
vt 0.056641 1.715332 0.0
#vcolor 68.000000 68.000000 68.000000 255.000000
v 12.000000 -26.334219 409.881927
#joint 33
#vjoint 158
f 52/814 158/815 154/816
#fvcolorindex 27 27 27 
vt 0.785156 0.000000 0.0
vt 0.056641 1.715332 0.0
vt 0.056641 0.000000 0.0
f 52/817 154/818 46/819
#fvcolorindex 27 27 27 
usemtl m30CullBothMirrorT
vt 0.472656 0.000000 0.0
vt 0.101562 0.000000 0.0
vt 0.089844 -0.553711 0.0
v 14.000000 -13.334219 354.881927
#joint 33
#vjoint 159
f 159/820 123/821 122/822
#fvcolorindex 5 5 5 
vt 0.472656 0.000000 0.0
vt 0.089844 -0.553711 0.0
vt 0.457031 -0.676270 0.0
f 159/823 122/824 157/825
#fvcolorindex 5 5 5 
usemtl m19CullBothMirrorT
vt 0.683594 -0.276855 0.0
vt 0.375000 -0.098633 0.0
vt 0.914062 1.322266 0.0
f 149/826 157/827 156/828
#fvcolorindex 22 4 22 
usemtl m28CullBothMirrorT
vt 0.109375 1.910645 0.0
vt 0.962891 1.577148 0.0
vt 1.000000 0.711914 0.0
f 141/829 149/830 156/831
#fvcolorindex 26 22 22 
usemtl m20CullBothMirrorT
vt 0.111328 -0.066406 0.0
vt 0.931641 -0.555664 0.0
vt 0.931641 -0.538574 0.0
v 12.000000 -37.334221 472.881927
#joint 33
#vjoint 160
f 52/832 15/833 160/834
#fvcolorindex 3 5 5 
vt 0.111328 -0.066406 0.0
vt 0.931641 -0.538574 0.0
vt 0.923828 2.000000 0.0
f 52/835 160/836 14/837
#fvcolorindex 3 5 4 
vt 0.111328 -0.066406 0.0
vt 0.923828 2.000000 0.0
vt 0.085938 1.795410 0.0
f 52/838 14/839 158/840
#fvcolorindex 3 4 4 
usemtl m24CullBothMirrorT
vt -0.960938 0.069336 0.0
vt -0.886719 0.970703 0.0
vt -0.601562 0.999512 0.0
f 14/841 123/842 159/843
#fvcolorindex 4 5 4 
usemtl m19CullBothMirrorT
vt -0.132812 0.000000 0.0
vt -0.601562 0.999512 0.0
vt -0.238281 1.144531 0.0
f 148/844 159/845 149/846
#fvcolorindex 22 4 22 
usemtl m22CullBothMirrorT
vt 0.947266 0.000000 0.0
vt 0.734375 0.178223 0.0
vt 0.314453 0.181152 0.0
f 43/847 24/848 11/849
#fvcolorindex 8 3 2 
vt 0.947266 0.000000 0.0
vt 0.314453 0.181152 0.0
vt 0.150391 0.000000 0.0
f 43/850 11/851 40/852
#fvcolorindex 8 2 26 
usemtl m28CullBothMirrorT
vt 0.150391 0.000000 0.0
vt 0.314453 0.181152 0.0
vt 0.322266 1.444824 0.0
f 40/853 11/854 10/855
#fvcolorindex 26 2 25 
vt 0.150391 0.000000 0.0
vt 0.322266 1.444824 0.0
vt 0.166016 1.927246 0.0
f 40/856 10/857 141/858
#fvcolorindex 26 25 26 
vt 0.166016 1.927246 0.0
vt 0.322266 1.444824 0.0
vt 0.742188 1.431641 0.0
f 141/859 10/860 21/861
#fvcolorindex 26 25 2 
vt 0.166016 1.927246 0.0
vt 0.742188 1.431641 0.0
vt 0.816406 2.366699 0.0
f 141/862 21/863 129/864
#fvcolorindex 26 2 4 
usemtl m24CullBothMirrorT
vt 0.816406 2.366699 0.0
vt 0.742188 1.431641 0.0
vt 0.734375 0.178223 0.0
f 129/865 21/866 24/867
#fvcolorindex 4 2 3 
vt 0.816406 2.366699 0.0
vt 0.734375 0.178223 0.0
vt 0.947266 0.000000 0.0
f 129/868 24/869 43/870
#fvcolorindex 4 3 8 
usemtl m31CullBothMirrorT
vt 0.109375 1.910645 0.0
vt 0.804688 2.361328 0.0
vt 0.962891 1.577148 0.0
f 141/871 140/872 149/873
#fvcolorindex 21 21 5 
usemtl m30CullBothMirrorT
vt 0.457031 -0.676270 0.0
vt 0.949219 -0.418457 0.0
vt 0.472656 0.000000 0.0
f 157/874 149/875 159/876
#fvcolorindex 5 5 5 
vt 0.976562 0.720215 0.0
vt 0.976562 0.291504 0.0
vt 0.273438 0.022949 0.0
f 156/877 148/878 53/879
#fvcolorindex 5 5 5 
vt 0.976562 0.720215 0.0
vt 0.273438 0.022949 0.0
vt 0.273438 0.988770 0.0
f 156/880 53/881 47/882
#fvcolorindex 5 5 5 
vt 0.222656 0.000000 0.0
vt 0.945312 0.000000 0.0
vt 0.945312 0.793945 0.0
f 158/883 148/884 156/885
#fvcolorindex 5 5 5 
vt 0.222656 0.000000 0.0
vt 0.945312 0.793945 0.0
vt 0.222656 0.793945 0.0
f 158/886 156/887 154/888
#fvcolorindex 5 5 5 
usemtl m24CullBothMirrorT
vt 0.089844 1.286133 0.0
vt 0.361328 1.365234 0.0
vt 0.914062 1.322266 0.0
f 13/889 154/890 156/891
#fvcolorindex 4 4 22 
vt 0.089844 1.286133 0.0
vt 0.914062 1.322266 0.0
vt 0.375000 -0.098633 0.0
f 13/892 156/893 157/894
#fvcolorindex 4 22 4 
vt -0.601562 0.999512 0.0
vt -0.132812 0.000000 0.0
vt -0.693359 0.000000 0.0
f 159/895 148/896 158/897
#fvcolorindex 4 22 4 
vt -0.601562 0.999512 0.0
vt -0.693359 0.000000 0.0
vt -0.960938 0.069336 0.0
f 159/898 158/899 14/900
#fvcolorindex 4 4 4 
usemtl m30CullBothMirrorT
vt 0.933594 -0.395996 0.0
vt 0.933594 0.993652 0.0
vt 0.166016 0.606934 0.0
f 47/901 53/902 52/903
#fvcolorindex 5 5 5 
vt 0.933594 -0.395996 0.0
vt 0.166016 0.606934 0.0
vt 0.166016 -0.009277 0.0
f 47/904 52/905 46/906
#fvcolorindex 5 5 5 
usemtl m24CullBothMirrorT
vt 0.962891 0.000000 0.0
vt 0.228516 0.000000 0.0
vt 0.226562 1.952637 0.0
f 11/907 24/908 23/909
#fvcolorindex 4 6 6 
vt 0.964844 0.150879 0.0
vt 0.230469 1.515137 0.0
vt 0.230469 0.136230 0.0
f 10/910 22/911 21/912
#fvcolorindex 4 6 6 
usemtl m32CullBothMirrorSMirrorT
vt 0.649414 0.139648 0.0
vt 0.499023 0.505859 0.0
vt 0.354492 0.131836 0.0
#vcolor 103.000000 103.000000 103.000000 255.000000
v 2.000000 49.665779 845.881958
#joint 33
#vjoint 161
#vcolor 167.000000 167.000000 167.000000 255.000000
f 60/913 161/914 59/915
#fvcolorindex 28 1 29 
usemtl m33CullBothMirrorSMirrorT
vt 0.643555 0.880859 0.0
vt 0.348633 0.873047 0.0
vt 0.499023 0.505859 0.0
#vcolor 254.000000 254.000000 254.000000 255.000000
f 113/916 112/917 161/918
#fvcolorindex 30 30 1 
vt 0.348633 0.873047 0.0
vt 0.142578 0.650391 0.0
vt 0.499023 0.505859 0.0
f 112/919 58/920 161/921
#fvcolorindex 30 30 1 
vt 0.142578 0.650391 0.0
vt 0.144531 0.343750 0.0
vt 0.499023 0.505859 0.0
f 58/922 57/923 161/924
#fvcolorindex 30 30 1 
vt 0.144531 0.343750 0.0
vt 0.354492 0.131836 0.0
vt 0.499023 0.505859 0.0
f 57/925 59/926 161/927
#fvcolorindex 30 29 1 
usemtl m32CullBothMirrorSMirrorT
vt 0.855469 0.361328 0.0
vt 0.853516 0.668945 0.0
vt 0.499023 0.505859 0.0
f 61/928 62/929 161/930
#fvcolorindex 28 29 1 
vt 0.649414 0.139648 0.0
vt 0.855469 0.361328 0.0
vt 0.499023 0.505859 0.0
f 60/931 61/932 161/933
#fvcolorindex 28 28 1 
usemtl m34CullBothMirrorSMirrorT
vt 0.853516 0.668945 0.0
vt 0.643555 0.880859 0.0
vt 0.499023 0.505859 0.0
f 62/934 113/935 161/936
#fvcolorindex 29 30 1 
g Room03
g Room03_primary
usemtl m35TransparentCullBothClampSClampT
vt 0.968750 0.968750 0.0
vt 0.000000 0.968750 0.0
vt 0.000000 0.000000 0.0
v 100.000000 159.677597 927.287659
#joint 36
#vjoint 162
#vcolor 255.000000 255.000000 255.000000 127.000000
v 2.000000 159.677597 927.287659
#joint 36
#vjoint 163
v 2.000000 49.677593 927.287659
#joint 36
#vjoint 164
f 162/937 163/938 164/939
#fvcolorindex 31 31 31 
vt 0.968750 0.968750 0.0
vt 0.000000 0.000000 0.0
vt 0.968750 0.000000 0.0
v 100.000000 49.677593 927.287659
#joint 36
#vjoint 165
f 162/940 164/941 165/942
#fvcolorindex 31 31 31 
vt 0.968750 0.968750 0.0
vt 0.000000 0.968750 0.0
vt 0.000000 0.000000 0.0
v -96.000000 159.673874 878.720825
#joint 35
#vjoint 166
v 2.000000 159.673874 878.720825
#joint 35
#vjoint 167
v 2.000000 49.673878 878.720825
#joint 35
#vjoint 168
f 166/943 167/944 168/945
#fvcolorindex 31 31 31 
vt 0.968750 0.968750 0.0
vt 0.000000 0.000000 0.0
vt 0.968750 0.000000 0.0
v -96.000000 49.673878 878.720825
#joint 35
#vjoint 169
f 166/946 168/947 169/948
#fvcolorindex 31 31 31 
usemtl m36TransparentCullBothClampSClampT
vt 0.968750 0.968750 0.0
vt 0.000000 0.968750 0.0
vt 0.000000 0.000000 0.0
v -96.000000 159.677597 927.287659
#joint 36
#vjoint 170
v -96.000000 49.677593 927.287659
#joint 36
#vjoint 171
f 163/949 170/950 171/951
#fvcolorindex 31 31 31 
vt 0.968750 0.968750 0.0
vt 0.000000 0.000000 0.0
vt 0.968750 0.000000 0.0
f 163/952 171/953 164/954
#fvcolorindex 31 31 31 
vt 0.968750 0.968750 0.0
vt 0.000000 0.968750 0.0
vt 0.000000 0.000000 0.0
v 100.000000 159.673874 878.720825
#joint 35
#vjoint 172
v 100.000000 49.673878 878.720825
#joint 35
#vjoint 173
f 167/955 172/956 173/957
#fvcolorindex 31 31 31 
vt 0.968750 0.968750 0.0
vt 0.000000 0.000000 0.0
vt 0.968750 0.000000 0.0
f 167/958 173/959 168/960
#fvcolorindex 31 31 31 
usemtl m37TransparentCullBothClampSClampT
vt 0.968750 0.968750 0.0
vt 0.000000 0.968750 0.0
vt 0.000000 0.000000 0.0
v 2.000000 -61.322407 927.287659
#joint 36
#vjoint 174
f 165/961 164/962 174/963
#fvcolorindex 31 31 31 
vt 0.968750 0.968750 0.0
vt 0.000000 0.000000 0.0
vt 0.968750 0.000000 0.0
v 100.000000 -61.322407 927.287659
#joint 36
#vjoint 175
f 165/964 174/965 175/966
#fvcolorindex 31 31 31 
vt 0.968750 0.968750 0.0
vt 0.000000 0.968750 0.0
vt 0.000000 0.000000 0.0
v 2.000000 -61.326122 878.720825
#joint 35
#vjoint 176
f 169/967 168/968 176/969
#fvcolorindex 31 31 31 
vt 0.968750 0.968750 0.0
vt 0.000000 0.000000 0.0
vt 0.968750 0.000000 0.0
v -96.000000 -61.326122 878.720825
#joint 35
#vjoint 177
f 169/970 176/971 177/972
#fvcolorindex 31 31 31 
usemtl m38TransparentCullBothClampSClampT
vt 0.968750 0.968750 0.0
vt 0.000000 0.968750 0.0
vt 0.000000 0.000000 0.0
v -96.000000 -61.322407 927.287659
#joint 36
#vjoint 178
f 164/973 171/974 178/975
#fvcolorindex 31 31 31 
vt 0.968750 0.968750 0.0
vt 0.000000 0.000000 0.0
vt 0.968750 0.000000 0.0
f 164/976 178/977 174/978
#fvcolorindex 31 31 31 
vt 0.968750 0.968750 0.0
vt 0.000000 0.968750 0.0
vt 0.000000 0.000000 0.0
v 100.000000 -61.326122 878.720825
#joint 35
#vjoint 179
f 168/979 173/980 179/981
#fvcolorindex 31 31 31 
vt 0.968750 0.968750 0.0
vt 0.000000 0.000000 0.0
vt 0.968750 0.000000 0.0
f 168/982 179/983 176/984
#fvcolorindex 31 31 31 
g Room04
usemtl m39TransparentCullBothClampSClampT
vt 1.000000 0.000000 0.0
vt 1.000000 1.000000 0.0
vt 0.000000 1.000000 0.0
v -230.000000 161.661469 861.084106
#joint 34
#vjoint 180
#vcolor 255.000000 255.000000 255.000000 127.000000
v -211.000000 194.661469 861.084106
#joint 34
#vjoint 181
v 10.000000 94.661476 861.084106
#joint 34
#vjoint 182
f 180/985 181/986 182/987
#fvcolorindex 32 32 32 
vt 1.000000 0.000000 0.0
vt 0.000000 1.000000 0.0
vt 0.000000 0.000000 0.0
v -33.000000 20.661476 861.084106
#joint 34
#vjoint 183
f 180/988 182/989 183/990
#fvcolorindex 32 32 32 
vt 1.000000 0.000000 0.0
vt 1.000000 1.000000 0.0
vt 0.000000 1.000000 0.0
v 216.000000 194.661469 861.084106
#joint 34
#vjoint 184
v 236.000000 161.661469 861.084106
#joint 34
#vjoint 185
v 38.000000 20.661476 861.084106
#joint 34
#vjoint 186
f 184/991 185/992 186/993
#fvcolorindex 32 32 32 
vt 1.000000 0.000000 0.0
vt 0.000000 1.000000 0.0
vt 0.000000 0.000000 0.0
v -5.000000 94.661476 861.084106
#joint 34
#vjoint 187
f 184/994 186/995 187/996
#fvcolorindex 32 32 32 
vt 1.000000 0.000000 0.0
vt 1.000000 1.000000 0.0
vt 0.000000 1.000000 0.0
v 22.000000 -208.338531 861.084106
#joint 34
#vjoint 188
v -17.000000 -208.338531 861.084106
#joint 34
#vjoint 189
v -40.000000 32.661476 861.084106
#joint 34
#vjoint 190
f 188/997 189/998 190/999
#fvcolorindex 32 32 32 
vt 1.000000 0.000000 0.0
vt 0.000000 1.000000 0.0
vt 0.000000 0.000000 0.0
v 46.000000 33.661476 861.084106
#joint 34
#vjoint 191
f 188/1000 190/1001 191/1002
#fvcolorindex 32 32 32 
g Room06
g Room06_primary
usemtl m5CullBoth
vt 0.000000 1.000000 0.0
vt 0.000000 0.000000 0.0
vt 1.000000 0.000000 0.0
v 166.399597 35.096455 458.985352
#joint 37
#vjoint 192
#vcolor 26.000000 11.000000 11.000000 255.000000
v 525.399597 35.096455 458.985352
#joint 37
#vjoint 193
v 525.399597 62.096455 458.985352
#joint 37
#vjoint 194
#vcolor 255.000000 233.000000 119.000000 255.000000
f 192/1003 193/1004 194/1005
#fvcolorindex 33 33 34 
vt 0.000000 1.000000 0.0
vt 1.000000 0.000000 0.0
vt 1.000000 1.000000 0.0
v 166.399597 62.096455 458.985352
#joint 37
#vjoint 195
f 192/1006 194/1007 195/1008
#fvcolorindex 33 34 34 
usemtl m6CullBoth
vt -1.958008 1.000000 0.0
vt -1.958008 0.000000 0.0
vt 1.000000 0.000000 0.0
v 525.399597 62.096455 381.985352
#joint 37
#vjoint 196
f 195/1009 194/1010 196/1011
#fvcolorindex 34 34 34 
vt -1.958008 1.000000 0.0
vt 1.000000 0.000000 0.0
vt 1.000000 1.000000 0.0
v 166.399597 62.096455 381.985352
#joint 37
#vjoint 197
f 195/1012 196/1013 197/1014
#fvcolorindex 34 34 34 
vt 0.000000 1.000000 0.0
vt 0.000000 0.000000 0.0
vt 1.000000 0.000000 0.0
v 525.399597 35.096455 381.985352
#joint 37
#vjoint 198
f 197/1015 196/1016 198/1017
#fvcolorindex 34 34 33 
vt 0.000000 1.000000 0.0
vt 1.000000 0.000000 0.0
vt 1.000000 1.000000 0.0
v 166.399597 35.096455 381.985352
#joint 37
#vjoint 199
f 197/1018 198/1019 199/1020
#fvcolorindex 34 33 33 
usemtl m5CullBoth
vt 1.000000 1.000000 0.0
vt 1.000000 0.000000 0.0
vt -1.993164 0.000000 0.0
f 199/1021 198/1022 193/1023
#fvcolorindex 33 33 33 
vt 1.000000 1.000000 0.0
vt -1.993164 0.000000 0.0
vt -1.993164 1.000000 0.0
f 199/1024 193/1025 192/1026
#fvcolorindex 33 33 33 
vt 1.000000 0.214844 0.0
vt -2.047852 0.214844 0.0
vt -2.047852 0.000000 0.0
f 193/1027 198/1028 196/1029
#fvcolorindex 33 33 34 
vt 1.000000 0.214844 0.0
vt -2.047852 0.000000 0.0
vt 1.000000 0.000000 0.0
f 193/1030 196/1031 194/1032
#fvcolorindex 33 34 34 
vt 1.000000 1.000000 0.0
vt -1.965820 0.991211 0.0
vt -1.965820 0.615234 0.0
f 199/1033 192/1034 195/1035
#fvcolorindex 33 33 34 
vt 1.000000 1.000000 0.0
vt -1.965820 0.615234 0.0
vt 1.000000 0.623047 0.0
f 199/1036 195/1037 197/1038
#fvcolorindex 33 34 34 
