# Created by SubDrag and the GoldenEye Setup Editor V4.4
mtllib Gun001E.mtl
#joint 0
#jointposition -0.126130 -34.500000 -233.704468
#joint 1
#jointposition -0.126130 -34.500000 -403.726105
#joint 2
#jointposition 0.000000 -20.375574 -74.143860
#joint 3
#jointposition 28.404760 -54.346611 -32.664295
#joint 4
#jointposition 50.075203 -78.841194 -10.664248
#joint 5
#jointposition 28.643808 -16.714527 20.778549
#joint 6
#jointposition 26.518341 -24.155291 60.154758
#joint 7
#jointposition 24.862719 -25.637974 87.085503
#joint 8
#jointposition 8.820322 -11.296313 21.695198
#joint 9
#jointposition 8.668717 -23.348385 71.418152
#joint 10
#jointposition 7.570724 -26.182207 98.349426
#joint 11
#jointposition -7.449821 -15.536673 21.601517
#joint 12
#jointposition -6.777197 -21.532187 62.353848
#joint 13
#jointposition -6.290760 -23.494061 85.077034
#joint 14
#jointposition -23.590879 -23.057791 21.828247
#joint 15
#jointposition -21.894306 -25.130569 56.929543
#joint 16
#jointposition -20.740978 -24.727604 74.077179
#joint 17
#jointposition 234.474915 -34.500000 -403.726013
#joint 18
#jointposition 234.348785 -20.375599 -74.143921
#joint 19
#jointposition 205.943985 -54.346600 -32.664322
#joint 20
#jointposition 184.273590 -78.841202 -10.664223
#joint 21
#jointposition 205.704987 -16.714600 20.778481
#joint 22
#jointposition 207.830490 -24.155300 60.154781
#joint 23
#jointposition 209.561584 -25.811800 87.094780
#joint 24
#jointposition 225.528473 -11.296299 21.695183
#joint 25
#jointposition 225.680069 -23.348400 71.418083
#joint 26
#jointposition 226.778076 -26.182199 98.349380
#joint 27
#jointposition 241.798599 -15.536699 21.601479
#joint 28
#jointposition 241.125977 -21.532200 62.353779
#joint 29
#jointposition 240.639542 -23.494101 85.076981
#joint 30
#jointposition 257.939697 -23.057798 21.828178
#joint 31
#jointposition 256.243103 -25.130598 56.929478
#joint 32
#jointposition 255.089798 -24.727598 74.077179
#joint 33
#jointposition 20.111650 31.250002 0.000000
#joint 34
#jointposition 20.111700 71.826912 0.000000
#connection 0 1
#connection 1 2
#connection 2 3
#connection 3 4
#connection 2 5
#connection 5 6
#connection 6 7
#connection 2 8
#connection 8 9
#connection 9 10
#connection 2 11
#connection 11 12
#connection 12 13
#connection 2 14
#connection 14 15
#connection 15 16
#connection 2 33
#connection 33 34
#connection 0 17
#connection 17 18
#connection 18 19
#connection 19 20
#connection 18 21
#connection 21 22
#connection 22 23
#connection 18 24
#connection 24 25
#connection 25 26
#connection 18 27
#connection 27 28
#connection 28 29
#connection 18 30
#connection 30 31
#connection 31 32
g Room02
g Room02_primary
usemtl m0ClampT
vt 1.379883 0.000000 0.0
vt 1.379883 1.024740 0.0
vt 0.919922 1.024740 0.0
v 37.111649 41.250000 -7.000000
#joint 33
#vjoint 1
#vcolor 182.000000 182.000000 182.000000 255.000000
v 37.111649 47.250000 -7.000000
#joint 33
#vjoint 2
v 39.111649 47.250000 0.000000
#joint 33
#vjoint 3
#vcolor 210.000000 210.000000 210.000000 255.000000
f 1/1 2/2 3/3
#fvcolorindex 1 1 2 
vt 1.379883 0.000000 0.0
vt 0.919922 1.024740 0.0
vt 0.919922 0.000000 0.0
v 39.111649 41.250000 0.000000
#joint 33
#vjoint 4
f 1/4 3/5 4/6
#fvcolorindex 1 2 2 
usemtl m1ClampT
vt 0.919922 0.000000 0.0
vt 0.919922 1.024740 0.0
vt 0.421875 1.024740 0.0
v 37.111649 47.250000 7.000000
#joint 33
#vjoint 5
#vcolor 216.000000 216.000000 216.000000 255.000000
f 4/7 3/8 5/9
#fvcolorindex 2 2 3 
vt 0.919922 0.000000 0.0
vt 0.421875 1.024740 0.0
vt 0.421875 0.000000 0.0
v 37.111649 41.250000 7.000000
#joint 33
#vjoint 6
f 4/10 5/11 6/12
#fvcolorindex 2 3 3 
usemtl m2ClampT
vt 0.421875 0.000000 0.0
vt 0.421875 1.024740 0.0
vt -0.038086 1.024740 0.0
v 33.111649 47.250000 13.000000
#joint 33
#vjoint 7
#vcolor 203.000000 203.000000 203.000000 255.000000
f 6/13 5/14 7/15
#fvcolorindex 3 3 4 
vt 0.421875 0.000000 0.0
vt -0.038086 1.024740 0.0
vt -0.038086 0.000000 0.0
v 33.111649 41.250000 13.000000
#joint 33
#vjoint 8
f 6/16 7/17 8/18
#fvcolorindex 3 4 4 
usemtl m3ClampT
vt 0.282227 0.000000 0.0
vt 0.282227 1.027344 0.0
vt 0.714844 1.027344 0.0
v 27.111650 47.250000 17.000000
#joint 33
#vjoint 9
#vcolor 169.000000 169.000000 169.000000 255.000000
f 8/19 7/20 9/21
#fvcolorindex 4 4 5 
vt 0.282227 0.000000 0.0
vt 0.714844 1.027344 0.0
vt 0.714844 0.000000 0.0
v 27.111650 41.250000 17.000000
#joint 33
#vjoint 10
f 8/22 9/23 10/24
#fvcolorindex 4 5 5 
usemtl m4ClampT
vt 0.901367 0.000000 0.0
vt 0.901367 1.007812 0.0
vt 0.627930 1.007812 0.0
v 20.111650 47.250000 19.000000
#joint 33
#vjoint 11
#vcolor 120.000000 120.000000 120.000000 255.000000
f 10/25 9/26 11/27
#fvcolorindex 5 5 6 
vt 0.901367 0.000000 0.0
vt 0.627930 1.007812 0.0
vt 0.627930 0.000000 0.0
v 20.111650 41.250000 19.000000
#joint 33
#vjoint 12
f 10/28 11/29 12/30
#fvcolorindex 5 6 6 
usemtl m5ClampT
vt 0.627930 0.000000 0.0
vt 0.627930 1.007812 0.0
vt 0.331055 1.007812 0.0
v 13.111650 47.250000 17.000000
#joint 33
#vjoint 13
#vcolor 67.000000 67.000000 67.000000 255.000000
f 12/31 11/32 13/33
#fvcolorindex 6 6 7 
vt 0.627930 0.000000 0.0
vt 0.331055 1.007812 0.0
vt 0.331055 0.000000 0.0
v 13.111650 41.250000 17.000000
#joint 33
#vjoint 14
f 12/34 13/35 14/36
#fvcolorindex 6 7 7 
usemtl m6ClampT
vt 0.331055 0.000000 0.0
vt 0.331055 1.007812 0.0
vt 0.056641 1.007812 0.0
v 7.111650 47.250000 13.000000
#joint 33
#vjoint 15
f 14/37 13/38 15/39
#fvcolorindex 7 7 7 
vt 0.331055 0.000000 0.0
vt 0.056641 1.007812 0.0
vt 0.056641 0.000000 0.0
v 7.111650 41.250000 13.000000
#joint 33
#vjoint 16
f 14/40 15/41 16/42
#fvcolorindex 7 7 7 
vt 0.962891 0.000000 0.0
vt 0.962891 0.993490 0.0
vt 0.669922 0.993490 0.0
v 3.111650 47.250000 7.000000
#joint 33
#vjoint 17
f 16/43 15/44 17/45
#fvcolorindex 7 7 7 
vt 0.962891 0.000000 0.0
vt 0.669922 0.993490 0.0
vt 0.669922 0.000000 0.0
v 3.111650 41.250000 7.000000
#joint 33
#vjoint 18
f 16/46 17/47 18/48
#fvcolorindex 7 7 7 
vt 0.669922 0.000000 0.0
vt 0.669922 0.993490 0.0
vt 0.353516 0.993490 0.0
v 1.111650 47.250000 0.000000
#joint 33
#vjoint 19
f 18/49 17/50 19/51
#fvcolorindex 7 7 7 
vt 0.669922 0.000000 0.0
vt 0.353516 0.993490 0.0
vt 0.353516 0.000000 0.0
v 1.111650 41.250000 0.000000
#joint 33
#vjoint 20
f 18/52 19/53 20/54
#fvcolorindex 7 7 7 
vt 0.353516 0.000000 0.0
vt 0.353516 0.993490 0.0
vt 0.060547 0.993490 0.0
v 3.111650 47.250000 -7.000000
#joint 33
#vjoint 21
f 20/55 19/56 21/57
#fvcolorindex 7 7 7 
vt 0.353516 0.000000 0.0
vt 0.060547 0.993490 0.0
vt 0.060547 0.000000 0.0
v 3.111650 41.250000 -7.000000
#joint 33
#vjoint 22
f 20/58 21/59 22/60
#fvcolorindex 7 7 7 
vt 1.115234 0.000000 0.0
vt 1.115234 1.027344 0.0
vt 0.714844 1.027344 0.0
v 7.111650 47.250000 -13.000000
#joint 33
#vjoint 23
f 22/61 21/62 23/63
#fvcolorindex 7 7 7 
vt 1.115234 0.000000 0.0
vt 0.714844 1.027344 0.0
vt 0.714844 0.000000 0.0
v 7.111650 41.250000 -13.000000
#joint 33
#vjoint 24
f 22/64 23/65 24/66
#fvcolorindex 7 7 7 
vt 0.714844 0.000000 0.0
vt 0.714844 1.027344 0.0
vt 0.282227 1.027344 0.0
v 13.111650 47.250000 -17.000000
#joint 33
#vjoint 25
f 24/67 23/68 25/69
#fvcolorindex 7 7 7 
vt 0.714844 0.000000 0.0
vt 0.282227 1.027344 0.0
vt 0.282227 0.000000 0.0
v 13.111650 41.250000 -17.000000
#joint 33
#vjoint 26
f 24/70 25/71 26/72
#fvcolorindex 7 7 7 
vt 0.056641 0.000000 0.0
vt 0.056641 1.007812 0.0
vt 0.331055 1.007812 0.0
v 20.111650 47.250000 -19.000000
#joint 33
#vjoint 27
f 26/73 25/74 27/75
#fvcolorindex 7 7 7 
vt 0.056641 0.000000 0.0
vt 0.331055 1.007812 0.0
vt 0.331055 0.000000 0.0
v 20.111650 41.250000 -19.000000
#joint 33
#vjoint 28
f 26/76 27/77 28/78
#fvcolorindex 7 7 7 
vt 0.331055 0.000000 0.0
vt 0.331055 1.007812 0.0
vt 0.627930 1.007812 0.0
v 27.111650 47.250000 -17.000000
#joint 33
#vjoint 29
#vcolor 79.000000 79.000000 79.000000 255.000000
f 28/79 27/80 29/81
#fvcolorindex 7 7 8 
vt 0.331055 0.000000 0.0
vt 0.627930 1.007812 0.0
vt 0.627930 0.000000 0.0
v 27.111650 41.250000 -17.000000
#joint 33
#vjoint 30
f 28/82 29/83 30/84
#fvcolorindex 7 8 8 
usemtl m7ClampT
vt 0.627930 0.000000 0.0
vt 0.627930 1.007812 0.0
vt 0.901367 1.007812 0.0
v 33.111649 47.250000 -13.000000
#joint 33
#vjoint 31
#vcolor 139.000000 139.000000 139.000000 255.000000
f 30/85 29/86 31/87
#fvcolorindex 8 8 9 
vt 0.627930 0.000000 0.0
vt 0.901367 1.007812 0.0
vt 0.901367 0.000000 0.0
v 33.111649 41.250000 -13.000000
#joint 33
#vjoint 32
f 30/88 31/89 32/90
#fvcolorindex 8 9 9 
usemtl m8ClampT
vt 1.732422 0.000000 0.0
vt 1.732422 1.024740 0.0
vt 1.379883 1.024740 0.0
f 32/91 31/92 2/93
#fvcolorindex 9 9 1 
vt 1.732422 0.000000 0.0
vt 1.379883 1.024740 0.0
vt 1.379883 0.000000 0.0
f 32/94 2/95 1/96
#fvcolorindex 9 1 1 
usemtl m0ClampT
vt 0.915039 0.000000 0.0
vt 0.915039 1.009115 0.0
vt 0.775391 1.009115 0.0
v 37.111649 59.250000 -7.000000
#joint 33
#vjoint 33
v 37.111649 66.250000 -7.000000
#joint 33
#vjoint 34
v 39.111649 66.250000 0.000000
#joint 33
#vjoint 35
f 33/97 34/98 35/99
#fvcolorindex 1 1 2 
vt 0.915039 0.000000 0.0
vt 0.775391 1.009115 0.0
vt 0.775391 0.000000 0.0
v 39.111649 59.250000 0.000000
#joint 33
#vjoint 36
f 33/100 35/101 36/102
#fvcolorindex 1 2 2 
usemtl m1ClampT
vt 0.775391 0.000000 0.0
vt 0.775391 1.009115 0.0
vt 0.592773 1.009115 0.0
v 37.111649 66.250000 7.000000
#joint 33
#vjoint 37
f 36/103 35/104 37/105
#fvcolorindex 2 2 3 
vt 0.775391 0.000000 0.0
vt 0.592773 1.009115 0.0
vt 0.592773 0.000000 0.0
v 37.111649 59.250000 7.000000
#joint 33
#vjoint 38
f 36/106 37/107 38/108
#fvcolorindex 2 3 3 
usemtl m2ClampT
vt 0.592773 0.000000 0.0
vt 0.592773 1.009115 0.0
vt 0.395508 1.009115 0.0
v 33.111649 66.250000 13.000000
#joint 33
#vjoint 39
f 38/109 37/110 39/111
#fvcolorindex 3 3 4 
vt 0.592773 0.000000 0.0
vt 0.395508 1.009115 0.0
vt 0.395508 0.000000 0.0
v 33.111649 59.250000 13.000000
#joint 33
#vjoint 40
f 38/112 39/113 40/114
#fvcolorindex 3 4 4 
usemtl m3ClampT
vt 0.395508 0.000000 0.0
vt 0.395508 1.009115 0.0
vt 0.213867 1.009115 0.0
v 27.111650 66.250000 17.000000
#joint 33
#vjoint 41
f 40/115 39/116 41/117
#fvcolorindex 4 4 5 
vt 0.395508 0.000000 0.0
vt 0.213867 1.009115 0.0
vt 0.213867 0.000000 0.0
v 27.111650 59.250000 17.000000
#joint 33
#vjoint 42
f 40/118 41/119 42/120
#fvcolorindex 4 5 5 
usemtl m4ClampT
vt -0.106445 0.000000 0.0
vt -0.106445 1.019531 0.0
vt 0.063477 1.019531 0.0
v 20.111650 66.250000 19.000000
#joint 33
#vjoint 43
f 42/121 41/122 43/123
#fvcolorindex 5 5 6 
vt -0.106445 0.000000 0.0
vt 0.063477 1.019531 0.0
vt 0.063477 0.000000 0.0
v 20.111650 59.250000 19.000000
#joint 33
#vjoint 44
f 42/124 43/125 44/126
#fvcolorindex 5 6 6 
usemtl m5ClampT
vt 0.063477 0.000000 0.0
vt 0.063477 1.019531 0.0
vt 0.284180 1.019531 0.0
v 13.111650 66.250000 17.000000
#joint 33
#vjoint 45
f 44/127 43/128 45/129
#fvcolorindex 6 6 7 
vt 0.063477 0.000000 0.0
vt 0.284180 1.019531 0.0
vt 0.284180 0.000000 0.0
v 13.111650 59.250000 17.000000
#joint 33
#vjoint 46
f 44/130 45/131 46/132
#fvcolorindex 6 7 7 
usemtl m6ClampT
vt 0.284180 0.000000 0.0
vt 0.284180 1.019531 0.0
vt 0.524414 1.019531 0.0
v 7.111650 66.250000 13.000000
#joint 33
#vjoint 47
f 46/133 45/134 47/135
#fvcolorindex 7 7 7 
vt 0.284180 0.000000 0.0
vt 0.524414 1.019531 0.0
vt 0.524414 0.000000 0.0
v 7.111650 59.250000 13.000000
#joint 33
#vjoint 48
f 46/136 47/137 48/138
#fvcolorindex 7 7 7 
vt 0.524414 0.000000 0.0
vt 0.524414 1.019531 0.0
vt 0.746094 1.019531 0.0
v 3.111650 66.250000 7.000000
#joint 33
#vjoint 49
f 48/139 47/140 49/141
#fvcolorindex 7 7 7 
vt 0.524414 0.000000 0.0
vt 0.746094 1.019531 0.0
vt 0.746094 0.000000 0.0
v 3.111650 59.250000 7.000000
#joint 33
#vjoint 50
f 48/142 49/143 50/144
#fvcolorindex 7 7 7 
vt 0.074219 0.000000 0.0
vt 0.074219 1.009115 0.0
vt 0.213867 1.009115 0.0
v 1.111650 66.250000 0.000000
#joint 33
#vjoint 51
f 50/145 49/146 51/147
#fvcolorindex 7 7 7 
vt 0.074219 0.000000 0.0
vt 0.213867 1.009115 0.0
vt 0.213867 0.000000 0.0
v 1.111650 59.250000 0.000000
#joint 33
#vjoint 52
f 50/148 51/149 52/150
#fvcolorindex 7 7 7 
vt 0.213867 0.000000 0.0
vt 0.213867 1.009115 0.0
vt 0.395508 1.009115 0.0
v 3.111650 66.250000 -7.000000
#joint 33
#vjoint 53
f 52/151 51/152 53/153
#fvcolorindex 7 7 7 
vt 0.213867 0.000000 0.0
vt 0.395508 1.009115 0.0
vt 0.395508 0.000000 0.0
v 3.111650 59.250000 -7.000000
#joint 33
#vjoint 54
f 52/154 53/155 54/156
#fvcolorindex 7 7 7 
vt 0.395508 0.000000 0.0
vt 0.395508 1.009115 0.0
vt 0.592773 1.009115 0.0
v 7.111650 66.250000 -13.000000
#joint 33
#vjoint 55
f 54/157 53/158 55/159
#fvcolorindex 7 7 7 
vt 0.395508 0.000000 0.0
vt 0.592773 1.009115 0.0
vt 0.592773 0.000000 0.0
v 7.111650 59.250000 -13.000000
#joint 33
#vjoint 56
f 54/160 55/161 56/162
#fvcolorindex 7 7 7 
vt 0.592773 0.000000 0.0
vt 0.592773 1.009115 0.0
vt 0.775391 1.009115 0.0
v 13.111650 66.250000 -17.000000
#joint 33
#vjoint 57
f 56/163 55/164 57/165
#fvcolorindex 7 7 7 
vt 0.592773 0.000000 0.0
vt 0.775391 1.009115 0.0
vt 0.775391 0.000000 0.0
v 13.111650 59.250000 -17.000000
#joint 33
#vjoint 58
f 56/166 57/167 58/168
#fvcolorindex 7 7 7 
vt 0.915039 0.000000 0.0
vt 0.915039 1.019531 0.0
vt 0.746094 1.019531 0.0
v 20.111650 66.250000 -19.000000
#joint 33
#vjoint 59
f 58/169 57/170 59/171
#fvcolorindex 7 7 7 
vt 0.915039 0.000000 0.0
vt 0.746094 1.019531 0.0
vt 0.746094 0.000000 0.0
v 20.111650 59.250000 -19.000000
#joint 33
#vjoint 60
f 58/172 59/173 60/174
#fvcolorindex 7 7 7 
vt 0.746094 0.000000 0.0
vt 0.746094 1.019531 0.0
vt 0.524414 1.019531 0.0
v 27.111650 66.250000 -17.000000
#joint 33
#vjoint 61
f 60/175 59/176 61/177
#fvcolorindex 7 7 8 
vt 0.746094 0.000000 0.0
vt 0.524414 1.019531 0.0
vt 0.524414 0.000000 0.0
v 27.111650 59.250000 -17.000000
#joint 33
#vjoint 62
f 60/178 61/179 62/180
#fvcolorindex 7 8 8 
usemtl m7ClampT
vt 0.524414 0.000000 0.0
vt 0.524414 1.019531 0.0
vt 0.284180 1.019531 0.0
v 33.111649 66.250000 -13.000000
#joint 33
#vjoint 63
f 62/181 61/182 63/183
#fvcolorindex 8 8 9 
vt 0.524414 0.000000 0.0
vt 0.284180 1.019531 0.0
vt 0.284180 0.000000 0.0
v 33.111649 59.250000 -13.000000
#joint 33
#vjoint 64
f 62/184 63/185 64/186
#fvcolorindex 8 9 9 
usemtl m8ClampT
vt 0.284180 0.000000 0.0
vt 0.284180 1.019531 0.0
vt 0.063477 1.019531 0.0
f 64/187 63/188 34/189
#fvcolorindex 9 9 1 
vt 0.284180 0.000000 0.0
vt 0.063477 1.019531 0.0
vt 0.063477 0.000000 0.0
f 64/190 34/191 33/192
#fvcolorindex 9 1 1 
usemtl m9MirrorT
vt 0.000000 0.870117 0.0
vt 0.000000 0.000000 0.0
vt 0.500000 0.000000 0.0
v 39.111649 75.250000 0.000000
#joint 33
#vjoint 65
f 65/193 35/194 34/195
#fvcolorindex 2 2 1 
vt 0.000000 0.870117 0.0
vt 0.500000 0.000000 0.0
vt 0.500000 0.870117 0.0
v 37.111649 75.250000 -7.000000
#joint 33
#vjoint 66
f 65/196 34/197 66/198
#fvcolorindex 2 1 1 
usemtl m10MirrorT
vt 0.500000 0.865234 0.0
vt 0.500000 0.000000 0.0
vt 0.000000 0.000000 0.0
v 37.111649 75.250000 7.000000
#joint 33
#vjoint 67
f 67/199 37/200 35/201
#fvcolorindex 3 3 2 
vt 0.500000 0.865234 0.0
vt 0.000000 0.000000 0.0
vt 0.000000 0.865234 0.0
f 67/202 35/203 65/204
#fvcolorindex 3 2 2 
usemtl m11MirrorT
vt 1.000000 0.865234 0.0
vt 1.000000 0.000000 0.0
vt 0.500000 0.000000 0.0
v 33.111649 75.250000 13.000000
#joint 33
#vjoint 68
#vcolor 197.000000 197.000000 197.000000 255.000000
f 68/205 39/206 37/207
#fvcolorindex 10 4 3 
vt 1.000000 0.865234 0.0
vt 0.500000 0.000000 0.0
vt 0.500000 0.865234 0.0
f 68/208 37/209 67/210
#fvcolorindex 10 3 3 
usemtl m12MirrorT
vt 0.500000 0.886719 0.0
vt 0.500000 0.295898 0.0
vt 1.000000 0.886719 0.0
v 27.111650 75.250000 17.000000
#joint 33
#vjoint 69
#vcolor 235.000000 235.000000 235.000000 255.000000
v 27.111650 69.250000 17.000000
#joint 33
#vjoint 70
#vcolor 208.000000 208.000000 208.000000 255.000000
f 69/211 70/212 68/213
#fvcolorindex 11 12 10 
usemtl m13MirrorT
vt 0.500000 0.295898 0.0
vt 0.500000 0.000000 0.0
vt 1.000000 0.000000 0.0
f 70/214 41/215 39/216
#fvcolorindex 12 5 4 
vt 0.500000 0.295898 0.0
vt 1.000000 0.000000 0.0
vt 1.000000 0.886719 0.0
f 70/217 39/218 68/219
#fvcolorindex 12 4 10 
usemtl m14MirrorT
vt 0.000000 0.295898 0.0
vt 0.000000 0.000000 0.0
vt 0.500000 0.000000 0.0
v 20.111650 69.250000 19.000000
#joint 33
#vjoint 71
f 71/220 43/221 41/222
#fvcolorindex 6 6 5 
vt 0.000000 0.295898 0.0
vt 0.500000 0.000000 0.0
vt 0.500000 0.295898 0.0
f 71/223 41/224 70/225
#fvcolorindex 6 5 12 
usemtl m15MirrorT
vt 0.500000 0.292969 0.0
vt 0.500000 0.000000 0.0
vt 0.000000 0.000000 0.0
v 13.111650 69.250000 17.000000
#joint 33
#vjoint 72
f 72/226 45/227 43/228
#fvcolorindex 7 7 6 
vt 0.500000 0.292969 0.0
vt 0.000000 0.000000 0.0
vt 0.000000 0.292969 0.0
f 72/229 43/230 71/231
#fvcolorindex 7 6 6 
vt 1.000000 0.878906 0.0
vt 0.500000 0.292969 0.0
vt 0.500000 0.878906 0.0
v 7.111650 75.250000 13.000000
#joint 33
#vjoint 73
v 13.111650 75.250000 17.000000
#joint 33
#vjoint 74
#vcolor 111.000000 111.000000 111.000000 255.000000
f 73/232 72/233 74/234
#fvcolorindex 7 7 13 
vt 1.000000 0.878906 0.0
vt 1.000000 0.000000 0.0
vt 0.500000 0.000000 0.0
f 73/235 47/236 45/237
#fvcolorindex 7 7 7 
vt 1.000000 0.878906 0.0
vt 0.500000 0.000000 0.0
vt 0.500000 0.292969 0.0
f 73/238 45/239 72/240
#fvcolorindex 7 7 7 
vt 0.500000 0.877930 0.0
vt 0.500000 0.000000 0.0
vt 1.000000 0.000000 0.0
v 3.111650 75.250000 7.000000
#joint 33
#vjoint 75
f 75/241 49/242 47/243
#fvcolorindex 7 7 7 
vt 0.500000 0.877930 0.0
vt 1.000000 0.000000 0.0
vt 1.000000 0.877930 0.0
f 75/244 47/245 73/246
#fvcolorindex 7 7 7 
vt 0.000000 0.877930 0.0
vt 0.000000 0.000000 0.0
vt 0.500000 0.000000 0.0
v 1.111650 75.250000 0.000000
#joint 33
#vjoint 76
f 76/247 51/248 49/249
#fvcolorindex 7 7 7 
vt 0.000000 0.877930 0.0
vt 0.500000 0.000000 0.0
vt 0.500000 0.877930 0.0
f 76/250 49/251 75/252
#fvcolorindex 7 7 7 
vt 0.500000 0.879883 0.0
vt 0.500000 0.000000 0.0
vt 0.000000 0.000000 0.0
v 3.111650 75.250000 -7.000000
#joint 33
#vjoint 77
f 77/253 53/254 51/255
#fvcolorindex 7 7 7 
vt 0.500000 0.879883 0.0
vt 0.000000 0.000000 0.0
vt 0.000000 0.879883 0.0
f 77/256 51/257 76/258
#fvcolorindex 7 7 7 
vt 1.000000 0.879883 0.0
vt 1.000000 0.000000 0.0
vt 0.500000 0.000000 0.0
v 7.111650 75.250000 -13.000000
#joint 33
#vjoint 78
f 78/259 55/260 53/261
#fvcolorindex 7 7 7 
vt 1.000000 0.879883 0.0
vt 0.500000 0.000000 0.0
vt 0.500000 0.879883 0.0
f 78/262 53/263 77/264
#fvcolorindex 7 7 7 
vt 0.500000 0.865234 0.0
vt 0.500000 0.288086 0.0
vt 1.000000 0.865234 0.0
v 13.111650 75.250000 -17.000000
#joint 33
#vjoint 79
v 13.111650 69.250000 -17.000000
#joint 33
#vjoint 80
f 79/265 80/266 78/267
#fvcolorindex 7 7 7 
vt 0.500000 0.288086 0.0
vt 0.500000 0.000000 0.0
vt 1.000000 0.000000 0.0
f 80/268 57/269 55/270
#fvcolorindex 7 7 7 
vt 0.500000 0.288086 0.0
vt 1.000000 0.000000 0.0
vt 1.000000 0.865234 0.0
f 80/271 55/272 78/273
#fvcolorindex 7 7 7 
vt 0.000000 0.288086 0.0
vt 0.000000 0.000000 0.0
vt 0.500000 0.000000 0.0
v 20.111650 69.250000 -19.000000
#joint 33
#vjoint 81
f 81/274 59/275 57/276
#fvcolorindex 7 7 7 
vt 0.000000 0.288086 0.0
vt 0.500000 0.000000 0.0
vt 0.500000 0.288086 0.0
f 81/277 57/278 80/279
#fvcolorindex 7 7 7 
usemtl m16MirrorT
vt 0.500000 0.291992 0.0
vt 0.500000 0.000000 0.0
vt 0.000000 0.000000 0.0
v 27.111650 69.250000 -17.000000
#joint 33
#vjoint 82
#vcolor 71.000000 71.000000 71.000000 255.000000
f 82/280 61/281 59/282
#fvcolorindex 14 8 7 
vt 0.500000 0.291992 0.0
vt 0.000000 0.000000 0.0
vt 0.000000 0.291992 0.0
f 82/283 59/284 81/285
#fvcolorindex 14 7 7 
usemtl m17MirrorT
vt 1.000000 0.875977 0.0
vt 0.500000 0.291992 0.0
vt 0.500000 0.875977 0.0
v 33.111649 75.250000 -13.000000
#joint 33
#vjoint 83
#vcolor 129.000000 129.000000 129.000000 255.000000
v 27.111650 75.250000 -17.000000
#joint 33
#vjoint 84
#vcolor 127.000000 127.000000 127.000000 255.000000
f 83/286 82/287 84/288
#fvcolorindex 15 14 16 
vt 1.000000 0.875977 0.0
vt 1.000000 0.000000 0.0
vt 0.500000 0.000000 0.0
f 83/289 63/290 61/291
#fvcolorindex 15 9 8 
vt 1.000000 0.875977 0.0
vt 0.500000 0.000000 0.0
vt 0.500000 0.291992 0.0
f 83/292 61/293 82/294
#fvcolorindex 15 8 14 
usemtl m18MirrorT
vt 0.500000 0.870117 0.0
vt 0.500000 0.000000 0.0
vt 1.000000 0.000000 0.0
f 66/295 34/296 63/297
#fvcolorindex 1 1 9 
vt 0.500000 0.870117 0.0
vt 1.000000 0.000000 0.0
vt 1.000000 0.870117 0.0
f 66/298 63/299 83/300
#fvcolorindex 1 9 15 
usemtl m9MirrorT
vt 1.000000 0.760742 0.0
vt 1.000000 0.000000 0.0
vt 0.500000 0.000000 0.0
v 39.111649 31.250002 0.000000
#joint 33
#vjoint 85
#vcolor 254.000000 254.000000 254.000000 255.000000
v 37.111649 31.250002 -7.000000
#joint 33
#vjoint 86
#vcolor 240.000000 240.000000 240.000000 255.000000
f 4/301 85/302 86/303
#fvcolorindex 2 17 18 
vt 1.000000 0.760742 0.0
vt 0.500000 0.000000 0.0
vt 0.500000 0.760742 0.0
f 4/304 86/305 1/306
#fvcolorindex 2 18 1 
usemtl m10MirrorT
vt 0.500000 0.766602 0.0
vt 0.500000 0.000000 0.0
vt 1.000000 0.000000 0.0
v 37.111649 31.250002 7.000000
#joint 33
#vjoint 87
f 6/307 87/308 85/309
#fvcolorindex 3 17 17 
vt 0.500000 0.766602 0.0
vt 1.000000 0.000000 0.0
vt 1.000000 0.766602 0.0
f 6/310 85/311 4/312
#fvcolorindex 3 17 2 
usemtl m19MirrorT
vt 0.000000 0.766602 0.0
vt 0.000000 0.000000 0.0
vt 0.500000 0.000000 0.0
v 33.111649 31.250002 13.000000
#joint 33
#vjoint 88
f 8/313 88/314 87/315
#fvcolorindex 4 17 17 
vt 0.000000 0.766602 0.0
vt 0.500000 0.000000 0.0
vt 0.500000 0.766602 0.0
f 8/316 87/317 6/318
#fvcolorindex 4 17 3 
usemtl m20MirrorT
vt 0.500000 0.780273 0.0
vt 0.500000 0.000000 0.0
vt 0.000000 0.000000 0.0
v 27.111650 31.250002 17.000000
#joint 33
#vjoint 89
#vcolor 229.000000 229.000000 229.000000 255.000000
f 10/319 89/320 88/321
#fvcolorindex 5 19 17 
vt 0.500000 0.780273 0.0
vt 0.000000 0.000000 0.0
vt 0.000000 0.780273 0.0
f 10/322 88/323 8/324
#fvcolorindex 5 17 4 
usemtl m14MirrorT
vt 1.000000 0.780273 0.0
vt 1.000000 0.000000 0.0
vt 0.500000 0.000000 0.0
v 20.111650 31.250002 19.000000
#joint 33
#vjoint 90
#vcolor 186.000000 186.000000 186.000000 255.000000
f 12/325 90/326 89/327
#fvcolorindex 6 20 19 
vt 1.000000 0.780273 0.0
vt 0.500000 0.000000 0.0
vt 0.500000 0.780273 0.0
f 12/328 89/329 10/330
#fvcolorindex 6 19 5 
usemtl m15MirrorT
vt 0.500000 0.778320 0.0
vt 0.500000 0.000000 0.0
vt 1.000000 0.000000 0.0
v 13.111650 31.250002 17.000000
#joint 33
#vjoint 91
#vcolor 133.000000 133.000000 133.000000 255.000000
f 14/331 91/332 90/333
#fvcolorindex 7 21 20 
vt 0.500000 0.778320 0.0
vt 1.000000 0.000000 0.0
vt 1.000000 0.778320 0.0
f 14/334 90/335 12/336
#fvcolorindex 7 20 6 
vt 0.000000 0.778320 0.0
vt 0.000000 0.000000 0.0
vt 0.500000 0.000000 0.0
v 7.111650 31.250002 13.000000
#joint 33
#vjoint 92
f 16/337 92/338 91/339
#fvcolorindex 7 8 21 
vt 0.000000 0.778320 0.0
vt 0.500000 0.000000 0.0
vt 0.500000 0.778320 0.0
f 16/340 91/341 14/342
#fvcolorindex 7 21 7 
vt 0.500000 0.780273 0.0
vt 0.500000 0.000000 0.0
vt 0.000000 0.000000 0.0
v 3.111650 31.250002 7.000000
#joint 33
#vjoint 93
f 18/343 93/344 92/345
#fvcolorindex 7 7 8 
vt 0.500000 0.780273 0.0
vt 0.000000 0.000000 0.0
vt 0.000000 0.780273 0.0
f 18/346 92/347 16/348
#fvcolorindex 7 8 7 
vt 1.000000 0.780273 0.0
vt 1.000000 0.000000 0.0
vt 0.500000 0.000000 0.0
v 1.111650 31.250002 0.000000
#joint 33
#vjoint 94
f 20/349 94/350 93/351
#fvcolorindex 7 7 7 
vt 1.000000 0.780273 0.0
vt 0.500000 0.000000 0.0
vt 0.500000 0.780273 0.0
f 20/352 93/353 18/354
#fvcolorindex 7 7 7 
vt 0.500000 0.775391 0.0
vt 0.500000 0.000000 0.0
vt 1.000000 0.000000 0.0
v 3.111650 31.250002 -7.000000
#joint 33
#vjoint 95
f 22/355 95/356 94/357
#fvcolorindex 7 7 7 
vt 0.500000 0.775391 0.0
vt 1.000000 0.000000 0.0
vt 1.000000 0.775391 0.0
f 22/358 94/359 20/360
#fvcolorindex 7 7 7 
vt 0.000000 0.775391 0.0
vt 0.000000 0.000000 0.0
vt 0.500000 0.000000 0.0
v 7.111650 31.250002 -13.000000
#joint 33
#vjoint 96
f 24/361 96/362 95/363
#fvcolorindex 7 7 7 
vt 0.000000 0.775391 0.0
vt 0.500000 0.000000 0.0
vt 0.500000 0.775391 0.0
f 24/364 95/365 22/366
#fvcolorindex 7 7 7 
vt 0.500000 0.784180 0.0
vt 0.500000 0.000000 0.0
vt 0.000000 0.000000 0.0
v 13.111650 31.250002 -17.000000
#joint 33
#vjoint 97
f 26/367 97/368 96/369
#fvcolorindex 7 7 7 
vt 0.500000 0.784180 0.0
vt 0.000000 0.000000 0.0
vt 0.000000 0.784180 0.0
f 26/370 96/371 24/372
#fvcolorindex 7 7 7 
vt 1.000000 0.784180 0.0
vt 1.000000 0.000000 0.0
vt 0.500000 0.000000 0.0
v 20.111650 31.250002 -19.000000
#joint 33
#vjoint 98
#vcolor 98.000000 98.000000 98.000000 255.000000
f 28/373 98/374 97/375
#fvcolorindex 7 22 7 
vt 1.000000 0.784180 0.0
vt 0.500000 0.000000 0.0
vt 0.500000 0.784180 0.0
f 28/376 97/377 26/378
#fvcolorindex 7 7 7 
usemtl m21MirrorT
vt 0.500000 0.767578 0.0
vt 0.500000 0.000000 0.0
vt 1.000000 0.000000 0.0
v 27.111650 31.250002 -17.000000
#joint 33
#vjoint 99
#vcolor 152.000000 152.000000 152.000000 255.000000
f 30/379 99/380 98/381
#fvcolorindex 8 23 22 
vt 0.500000 0.767578 0.0
vt 1.000000 0.000000 0.0
vt 1.000000 0.767578 0.0
f 30/382 98/383 28/384
#fvcolorindex 8 22 7 
usemtl m22MirrorT
vt 0.000000 0.767578 0.0
vt 0.000000 0.000000 0.0
vt 0.500000 0.000000 0.0
v 33.111649 31.250002 -13.000000
#joint 33
#vjoint 100
#vcolor 202.000000 202.000000 202.000000 255.000000
f 32/385 100/386 99/387
#fvcolorindex 9 24 23 
vt 0.000000 0.767578 0.0
vt 0.500000 0.000000 0.0
vt 0.500000 0.767578 0.0
f 32/388 99/389 30/390
#fvcolorindex 9 23 8 
usemtl m18MirrorT
vt 0.500000 0.760742 0.0
vt 0.500000 0.000000 0.0
vt 0.000000 0.000000 0.0
f 1/391 86/392 100/393
#fvcolorindex 1 18 24 
vt 0.500000 0.760742 0.0
vt 0.000000 0.000000 0.0
vt 0.000000 0.760742 0.0
f 1/394 100/395 32/396
#fvcolorindex 1 24 9 
usemtl m23
vt 1.000000 1.000000 0.0
vt 1.000000 0.000000 0.0
vt 0.000000 0.000000 0.0
v 45.111649 25.250002 0.000000
#joint 33
#vjoint 101
v 43.111649 25.250002 -10.000000
#joint 33
#vjoint 102
f 85/397 101/398 102/399
#fvcolorindex 17 17 18 
vt 1.000000 1.000000 0.0
vt 0.000000 0.000000 0.0
vt 0.250000 1.000000 0.0
f 85/400 102/401 86/402
#fvcolorindex 17 18 18 
vt 0.250000 1.000000 0.0
vt 0.000000 0.000000 0.0
vt 1.000000 0.000000 0.0
v 43.111649 25.250002 10.000000
#joint 33
#vjoint 103
f 87/403 103/404 101/405
#fvcolorindex 17 17 17 
vt 0.250000 1.000000 0.0
vt 1.000000 0.000000 0.0
vt 1.000000 1.000000 0.0
f 87/406 101/407 85/408
#fvcolorindex 17 17 17 
vt 1.000000 1.000000 0.0
vt 1.000000 0.000000 0.0
vt 0.000000 0.000000 0.0
v 38.111649 25.250002 18.000000
#joint 33
#vjoint 104
f 88/409 104/410 103/411
#fvcolorindex 17 17 17 
vt 1.000000 1.000000 0.0
vt 0.000000 0.000000 0.0
vt 0.250000 1.000000 0.0
f 88/412 103/413 87/414
#fvcolorindex 17 17 17 
usemtl m24
vt 0.250000 1.000000 0.0
vt 0.000000 0.000000 0.0
vt 1.000000 0.000000 0.0
v 30.111650 25.250002 23.000000
#joint 33
#vjoint 105
f 89/415 105/416 104/417
#fvcolorindex 19 19 17 
vt 0.250000 1.000000 0.0
vt 1.000000 0.000000 0.0
vt 1.000000 1.000000 0.0
f 89/418 104/419 88/420
#fvcolorindex 19 17 17 
usemtl m25
vt 1.032227 1.000000 0.0
vt 1.000000 0.000000 0.0
vt 0.000000 0.000000 0.0
v 20.111650 25.250002 25.000000
#joint 33
#vjoint 106
f 90/421 106/422 105/423
#fvcolorindex 20 20 19 
vt 1.032227 1.000000 0.0
vt 0.000000 0.000000 0.0
vt 0.282227 1.000000 0.0
f 90/424 105/425 89/426
#fvcolorindex 20 19 19 
usemtl m26
vt 0.250000 1.000000 0.0
vt 0.000000 0.000000 0.0
vt 1.000000 0.000000 0.0
v 11.111650 25.250002 23.000000
#joint 33
#vjoint 107
f 91/427 107/428 106/429
#fvcolorindex 21 21 20 
vt 0.250000 1.000000 0.0
vt 1.000000 0.000000 0.0
vt 1.000000 1.000000 0.0
f 91/430 106/431 90/432
#fvcolorindex 21 20 20 
usemtl m27
vt 1.000000 1.000000 0.0
vt 1.000000 0.000000 0.0
vt 0.000000 0.000000 0.0
v 2.111650 25.250002 18.000000
#joint 33
#vjoint 108
f 92/433 108/434 107/435
#fvcolorindex 8 8 21 
vt 1.000000 1.000000 0.0
vt 0.000000 0.000000 0.0
vt 0.250000 1.000000 0.0
f 92/436 107/437 91/438
#fvcolorindex 8 21 21 
usemtl m28
vt 0.250000 1.008789 0.0
vt 0.000000 0.000000 0.0
vt 1.000000 -0.011719 0.0
v -2.888350 25.250002 10.000000
#joint 33
#vjoint 109
f 93/439 109/440 108/441
#fvcolorindex 7 7 8 
vt 0.250000 1.008789 0.0
vt 1.000000 -0.011719 0.0
vt 1.000000 1.000000 0.0
f 93/442 108/443 92/444
#fvcolorindex 7 8 8 
vt 1.000000 1.000000 0.0
vt 1.000000 0.000000 0.0
vt 0.000000 0.000000 0.0
v -4.888350 25.250002 0.000000
#joint 33
#vjoint 110
f 94/445 110/446 109/447
#fvcolorindex 7 7 7 
vt 1.000000 1.000000 0.0
vt 0.000000 0.000000 0.0
vt 0.250000 1.000000 0.0
f 94/448 109/449 93/450
#fvcolorindex 7 7 7 
vt 1.000000 1.000000 0.0
vt 1.000000 0.000000 0.0
vt 0.000000 0.000000 0.0
v -2.888350 25.250002 -10.000000
#joint 33
#vjoint 111
f 95/451 111/452 110/453
#fvcolorindex 7 7 7 
vt 1.000000 1.000000 0.0
vt 0.000000 0.000000 0.0
vt 0.250000 1.000000 0.0
f 95/454 110/455 94/456
#fvcolorindex 7 7 7 
vt 0.250000 1.000000 0.0
vt 0.000000 0.000000 0.0
vt 1.000000 0.000000 0.0
v 2.111650 25.250002 -18.000000
#joint 33
#vjoint 112
f 96/457 112/458 111/459
#fvcolorindex 7 7 7 
vt 0.250000 1.000000 0.0
vt 1.000000 0.000000 0.0
vt 1.000000 1.000000 0.0
f 96/460 111/461 95/462
#fvcolorindex 7 7 7 
vt 0.250000 1.000000 0.0
vt 0.000000 0.000000 0.0
vt 1.000000 0.000000 0.0
v 11.111650 25.250002 -23.000000
#joint 33
#vjoint 113
f 97/463 113/464 112/465
#fvcolorindex 7 7 7 
vt 0.250000 1.000000 0.0
vt 1.000000 0.000000 0.0
vt 1.000000 1.000000 0.0
f 97/466 112/467 96/468
#fvcolorindex 7 7 7 
usemtl m29
vt 1.000000 1.000000 0.0
vt 1.000000 0.000000 0.0
vt 0.000000 0.000000 0.0
v 20.111650 25.250002 -25.000000
#joint 33
#vjoint 114
f 98/469 114/470 113/471
#fvcolorindex 22 22 7 
vt 1.000000 1.000000 0.0
vt 0.000000 0.000000 0.0
vt 0.250000 1.000000 0.0
f 98/472 113/473 97/474
#fvcolorindex 22 7 7 
usemtl m30
vt 0.903320 0.955078 0.0
vt 1.000000 0.000000 0.0
vt 0.000000 0.000000 0.0
v 30.111650 25.250002 -23.000000
#joint 33
#vjoint 115
f 99/475 115/476 114/477
#fvcolorindex 23 23 22 
vt 0.903320 0.955078 0.0
vt 0.000000 0.000000 0.0
vt 0.153320 0.955078 0.0
f 99/478 114/479 98/480
#fvcolorindex 23 22 22 
usemtl m31
vt 1.000000 1.025391 0.0
vt 1.000000 -0.009766 0.0
vt 0.000000 0.000000 0.0
v 38.111649 25.250002 -18.000000
#joint 33
#vjoint 116
f 100/481 116/482 115/483
#fvcolorindex 24 24 23 
vt 1.000000 1.025391 0.0
vt 0.000000 0.000000 0.0
vt 0.250000 1.032227 0.0
f 100/484 115/485 99/486
#fvcolorindex 24 23 23 
usemtl m32
vt 0.250000 1.000000 0.0
vt 0.000000 0.000000 0.0
vt 1.000000 0.000000 0.0
f 86/487 102/488 116/489
#fvcolorindex 18 18 24 
vt 0.250000 1.000000 0.0
vt 1.000000 0.000000 0.0
vt 1.000000 1.000000 0.0
f 86/490 116/491 100/492
#fvcolorindex 18 24 24 
usemtl m28
vt 1.000000 1.000000 0.0
vt 0.250000 1.000000 0.0
vt 0.000000 0.000000 0.0
v 39.111649 -68.750000 0.000000
#joint 33
#vjoint 117
v 37.111649 -68.750000 -7.000000
#joint 33
#vjoint 118
v 43.111649 -61.750000 -10.000000
#joint 33
#vjoint 119
#vcolor 104.000000 104.000000 104.000000 255.000000
f 117/493 118/494 119/495
#fvcolorindex 7 7 25 
vt 1.000000 1.000000 0.0
vt 0.000000 0.000000 0.0
vt 1.000000 0.000000 0.0
v 45.111649 -61.750000 0.000000
#joint 33
#vjoint 120
#vcolor 132.000000 132.000000 132.000000 255.000000
f 117/496 119/497 120/498
#fvcolorindex 7 25 26 
usemtl m33
vt 0.000000 0.000000 0.0
vt 0.250000 1.000000 0.0
vt 1.000000 1.000000 0.0
v 43.111649 -61.750000 10.000000
#joint 33
#vjoint 121
v 37.111649 -68.750000 7.000000
#joint 33
#vjoint 122
f 121/499 122/500 117/501
#fvcolorindex 9 7 7 
vt 0.000000 0.000000 0.0
vt 1.000000 1.000000 0.0
vt 1.000000 0.000000 0.0
f 121/502 117/503 120/504
#fvcolorindex 9 7 26 
usemtl m34
vt 0.000000 0.000000 0.0
vt 0.250000 1.000000 0.0
vt 1.000000 1.000000 0.0
v 38.111649 -61.750000 18.000000
#joint 33
#vjoint 123
#vcolor 124.000000 124.000000 124.000000 255.000000
v 33.111649 -68.750000 13.000000
#joint 33
#vjoint 124
f 123/505 124/506 122/507
#fvcolorindex 27 7 7 
vt 0.000000 0.000000 0.0
vt 1.000000 1.000000 0.0
vt 1.000000 0.000000 0.0
f 123/508 122/509 121/510
#fvcolorindex 27 7 9 
usemtl m35
vt 1.000000 0.000000 0.0
vt 1.000000 1.000000 0.0
vt 0.250000 1.000000 0.0
v 30.111650 -61.750000 23.000000
#joint 33
#vjoint 125
#vcolor 90.000000 90.000000 90.000000 255.000000
v 27.111650 -68.750000 17.000000
#joint 33
#vjoint 126
f 125/511 126/512 124/513
#fvcolorindex 28 7 7 
vt 1.000000 0.000000 0.0
vt 0.250000 1.000000 0.0
vt 0.000000 0.000000 0.0
f 125/514 124/515 123/516
#fvcolorindex 28 7 27 
usemtl m28
vt 0.000000 0.000000 0.0
vt 0.250000 1.000000 0.0
vt 1.000000 1.000000 0.0
v 20.111650 -61.750000 25.000000
#joint 33
#vjoint 127
v 20.111650 -68.750000 19.000000
#joint 33
#vjoint 128
f 127/517 128/518 126/519
#fvcolorindex 7 7 7 
vt 0.000000 0.000000 0.0
vt 1.000000 1.000000 0.0
vt 1.000000 0.000000 0.0
f 127/520 126/521 125/522
#fvcolorindex 7 7 28 
vt 0.000000 0.000000 0.0
vt 0.250000 1.000000 0.0
vt 1.000000 1.000000 0.0
v 11.111650 -61.750000 23.000000
#joint 33
#vjoint 129
v 13.111650 -68.750000 17.000000
#joint 33
#vjoint 130
f 129/523 130/524 128/525
#fvcolorindex 7 7 7 
vt 0.000000 0.000000 0.0
vt 1.000000 1.000000 0.0
vt 1.000000 0.000000 0.0
f 129/526 128/527 127/528
#fvcolorindex 7 7 7 
vt 1.000000 0.000000 0.0
vt 1.000000 1.000000 0.0
vt 0.249023 1.000000 0.0
v 2.111650 -61.750000 18.000000
#joint 33
#vjoint 131
v 7.111650 -68.750000 13.000000
#joint 33
#vjoint 132
f 131/529 132/530 130/531
#fvcolorindex 7 7 7 
vt 1.000000 0.000000 0.0
vt 0.249023 1.000000 0.0
vt -0.001953 0.000000 0.0
f 131/532 130/533 129/534
#fvcolorindex 7 7 7 
vt 0.000000 0.000000 0.0
vt 0.250000 1.000000 0.0
vt 1.000000 1.000000 0.0
v -2.888350 -61.750000 10.000000
#joint 33
#vjoint 133
v 3.111650 -68.750000 7.000000
#joint 33
#vjoint 134
f 133/535 134/536 132/537
#fvcolorindex 7 7 7 
vt 0.000000 0.000000 0.0
vt 1.000000 1.000000 0.0
vt 1.000000 0.000000 0.0
f 133/538 132/539 131/540
#fvcolorindex 7 7 7 
vt 0.000000 0.000000 0.0
vt 0.250000 1.000000 0.0
vt 1.000000 1.000000 0.0
v -4.888350 -61.750000 0.000000
#joint 33
#vjoint 135
v 1.111650 -68.750000 0.000000
#joint 33
#vjoint 136
f 135/541 136/542 134/543
#fvcolorindex 7 7 7 
vt 0.000000 0.000000 0.0
vt 1.000000 1.000000 0.0
vt 1.000000 0.000000 0.0
f 135/544 134/545 133/546
#fvcolorindex 7 7 7 
vt 1.000000 0.000000 0.0
vt 1.000000 1.000000 0.0
vt 0.250000 1.000000 0.0
v -2.888350 -61.750000 -10.000000
#joint 33
#vjoint 137
v 3.111650 -68.750000 -7.000000
#joint 33
#vjoint 138
f 137/547 138/548 136/549
#fvcolorindex 7 7 7 
vt 1.000000 0.000000 0.0
vt 0.250000 1.000000 0.0
vt 0.000000 0.000000 0.0
f 137/550 136/551 135/552
#fvcolorindex 7 7 7 
vt 1.000000 0.000000 0.0
vt 1.000000 1.000000 0.0
vt 0.250000 1.000000 0.0
v 2.111650 -61.750000 -18.000000
#joint 33
#vjoint 139
v 7.111650 -68.750000 -13.000000
#joint 33
#vjoint 140
f 139/553 140/554 138/555
#fvcolorindex 7 7 7 
vt 1.000000 0.000000 0.0
vt 0.250000 1.000000 0.0
vt 0.000000 0.000000 0.0
f 139/556 138/557 137/558
#fvcolorindex 7 7 7 
vt 0.000000 0.000000 0.0
vt 0.250000 1.000000 0.0
vt 1.000000 1.000000 0.0
v 11.111650 -61.750000 -23.000000
#joint 33
#vjoint 141
v 13.111650 -68.750000 -17.000000
#joint 33
#vjoint 142
f 141/559 142/560 140/561
#fvcolorindex 7 7 7 
vt 0.000000 0.000000 0.0
vt 1.000000 1.000000 0.0
vt 1.000000 0.000000 0.0
f 141/562 140/563 139/564
#fvcolorindex 7 7 7 
vt 0.000000 0.000000 0.0
vt 0.250000 1.000000 0.0
vt 1.000000 1.000000 0.0
v 20.111650 -61.750000 -25.000000
#joint 33
#vjoint 143
v 20.111650 -68.750000 -19.000000
#joint 33
#vjoint 144
f 143/565 144/566 142/567
#fvcolorindex 7 7 7 
vt 0.000000 0.000000 0.0
vt 1.000000 1.000000 0.0
vt 1.000000 0.000000 0.0
f 143/568 142/569 141/570
#fvcolorindex 7 7 7 
vt 1.000000 0.000000 0.0
vt 1.000000 1.000000 0.0
vt 0.250000 1.000000 0.0
v 30.111650 -61.750000 -23.000000
#joint 33
#vjoint 145
v 27.111650 -68.750000 -17.000000
#joint 33
#vjoint 146
f 145/571 146/572 144/573
#fvcolorindex 7 7 7 
vt 1.000000 0.000000 0.0
vt 0.250000 1.000000 0.0
vt 0.000000 0.000000 0.0
f 145/574 144/575 143/576
#fvcolorindex 7 7 7 
vt 0.000000 0.000000 0.0
vt 0.250000 1.000000 0.0
vt 1.000000 1.000000 0.0
v 38.111649 -61.750000 -18.000000
#joint 33
#vjoint 147
v 33.111649 -68.750000 -13.000000
#joint 33
#vjoint 148
f 147/577 148/578 146/579
#fvcolorindex 7 7 7 
vt 0.000000 0.000000 0.0
vt 1.000000 1.000000 0.0
vt 1.000000 0.000000 0.0
f 147/580 146/581 145/582
#fvcolorindex 7 7 7 
usemtl m36
vt 0.000000 0.000000 0.0
vt 0.250000 1.000000 0.0
vt 1.000000 1.000000 0.0
f 119/583 118/584 148/585
#fvcolorindex 25 7 7 
vt 0.000000 0.000000 0.0
vt 1.000000 1.000000 0.0
vt 1.000000 0.000000 0.0
f 119/586 148/587 147/588
#fvcolorindex 25 7 7 
usemtl m37
vt 0.500000 1.000000 0.0
vt 0.500000 0.000000 0.0
vt 1.000000 0.000000 0.0
f 36/589 3/590 2/591
#fvcolorindex 2 2 1 
vt 0.500000 1.000000 0.0
vt 1.000000 0.000000 0.0
vt 1.000000 1.000000 0.0
f 36/592 2/593 33/594
#fvcolorindex 2 1 1 
usemtl m38
vt 0.000000 1.000000 0.0
vt 0.000000 0.000000 0.0
vt 0.500000 0.000000 0.0
f 38/595 5/596 3/597
#fvcolorindex 3 3 2 
vt 0.000000 1.000000 0.0
vt 0.500000 0.000000 0.0
vt 0.500000 1.000000 0.0
f 38/598 3/599 36/600
#fvcolorindex 3 2 2 
usemtl m39
vt 0.500000 1.000000 0.0
vt 0.500000 0.000000 0.0
vt 1.000000 0.000000 0.0
f 40/601 7/602 5/603
#fvcolorindex 4 4 3 
vt 0.500000 1.000000 0.0
vt 1.000000 0.000000 0.0
vt 1.000000 1.000000 0.0
f 40/604 5/605 38/606
#fvcolorindex 4 3 3 
usemtl m40
vt 0.000000 1.000000 0.0
vt 0.000000 0.000000 0.0
vt 0.500000 0.000000 0.0
f 42/607 9/608 7/609
#fvcolorindex 5 5 4 
vt 0.000000 1.000000 0.0
vt 0.500000 0.000000 0.0
vt 0.500000 1.000000 0.0
f 42/610 7/611 40/612
#fvcolorindex 5 4 4 
usemtl m41
vt 0.500000 1.000000 0.0
vt 0.500000 0.000000 0.0
vt 1.000000 0.000000 0.0
f 44/613 11/614 9/615
#fvcolorindex 6 6 5 
vt 0.500000 1.000000 0.0
vt 1.000000 0.000000 0.0
vt 1.000000 1.000000 0.0
f 44/616 9/617 42/618
#fvcolorindex 6 5 5 
usemtl m28
vt 0.000000 1.000000 0.0
vt 0.000000 0.000000 0.0
vt 0.500000 0.000000 0.0
f 46/619 13/620 11/621
#fvcolorindex 7 7 6 
vt 0.000000 1.000000 0.0
vt 0.500000 0.000000 0.0
vt 0.500000 1.000000 0.0
f 46/622 11/623 44/624
#fvcolorindex 7 6 6 
vt 0.500000 1.000000 0.0
vt 0.500000 0.000000 0.0
vt 1.000000 0.000000 0.0
f 48/625 15/626 13/627
#fvcolorindex 7 7 7 
vt 0.500000 1.000000 0.0
vt 1.000000 0.000000 0.0
vt 1.000000 1.000000 0.0
f 48/628 13/629 46/630
#fvcolorindex 7 7 7 
vt 0.000000 1.000000 0.0
vt 0.000000 0.000000 0.0
vt 0.500000 0.000000 0.0
f 50/631 17/632 15/633
#fvcolorindex 7 7 7 
vt 0.000000 1.000000 0.0
vt 0.500000 0.000000 0.0
vt 0.500000 1.000000 0.0
f 50/634 15/635 48/636
#fvcolorindex 7 7 7 
vt 0.500000 1.000000 0.0
vt 0.500000 0.000000 0.0
vt 1.000000 0.000000 0.0
f 52/637 19/638 17/639
#fvcolorindex 7 7 7 
vt 0.500000 1.000000 0.0
vt 1.000000 0.000000 0.0
vt 1.000000 1.000000 0.0
f 52/640 17/641 50/642
#fvcolorindex 7 7 7 
vt 0.000000 1.000000 0.0
vt 0.000000 0.000000 0.0
vt 0.500000 0.000000 0.0
f 54/643 21/644 19/645
#fvcolorindex 7 7 7 
vt 0.000000 1.000000 0.0
vt 0.500000 0.000000 0.0
vt 0.500000 1.000000 0.0
f 54/646 19/647 52/648
#fvcolorindex 7 7 7 
vt 0.500000 1.000000 0.0
vt 0.500000 0.000000 0.0
vt 1.000000 0.000000 0.0
f 56/649 23/650 21/651
#fvcolorindex 7 7 7 
vt 0.500000 1.000000 0.0
vt 1.000000 0.000000 0.0
vt 1.000000 1.000000 0.0
f 56/652 21/653 54/654
#fvcolorindex 7 7 7 
vt 0.000000 1.000000 0.0
vt 0.000000 0.000000 0.0
vt 0.500000 0.000000 0.0
f 58/655 25/656 23/657
#fvcolorindex 7 7 7 
vt 0.000000 1.000000 0.0
vt 0.500000 0.000000 0.0
vt 0.500000 1.000000 0.0
f 58/658 23/659 56/660
#fvcolorindex 7 7 7 
vt 0.500000 1.000000 0.0
vt 0.500000 0.000000 0.0
vt 1.000000 0.000000 0.0
f 60/661 27/662 25/663
#fvcolorindex 7 7 7 
vt 0.500000 1.000000 0.0
vt 1.000000 0.000000 0.0
vt 1.000000 1.000000 0.0
f 60/664 25/665 58/666
#fvcolorindex 7 7 7 
usemtl m27
vt 0.000000 1.000000 0.0
vt 0.000000 0.000000 0.0
vt 0.500000 0.000000 0.0
f 62/667 29/668 27/669
#fvcolorindex 8 8 7 
vt 0.000000 1.000000 0.0
vt 0.500000 0.000000 0.0
vt 0.500000 1.000000 0.0
f 62/670 27/671 60/672
#fvcolorindex 8 7 7 
usemtl m33
vt 0.500000 1.000000 0.0
vt 0.500000 0.000000 0.0
vt 1.000000 0.000000 0.0
f 64/673 31/674 29/675
#fvcolorindex 9 9 8 
vt 0.500000 1.000000 0.0
vt 1.000000 0.000000 0.0
vt 1.000000 1.000000 0.0
f 64/676 29/677 62/678
#fvcolorindex 9 8 8 
usemtl m42
vt 0.000000 1.000000 0.0
vt 0.000000 0.000000 0.0
vt 0.500000 0.000000 0.0
f 33/679 2/680 31/681
#fvcolorindex 1 1 9 
vt 0.000000 1.000000 0.0
vt 0.500000 0.000000 0.0
vt 0.500000 1.000000 0.0
f 33/682 31/683 64/684
#fvcolorindex 1 9 9 
usemtl m43
vt 0.688965 2.872070 0.0
vt 0.688965 0.180664 0.0
vt 0.963867 0.184082 0.0
f 101/685 120/686 119/687
#fvcolorindex 17 26 25 
vt 0.688965 2.872070 0.0
vt 0.963867 0.184082 0.0
vt 0.963867 2.875488 0.0
f 101/688 119/689 102/690
#fvcolorindex 17 25 18 
vt 0.414551 2.869141 0.0
vt 0.414062 0.177246 0.0
vt 0.688965 0.180664 0.0
f 103/691 121/692 120/693
#fvcolorindex 17 9 26 
vt 0.414551 2.869141 0.0
vt 0.688965 0.180664 0.0
vt 0.688965 2.872070 0.0
f 103/694 120/695 101/696
#fvcolorindex 17 26 17 
vt 0.181641 2.866211 0.0
vt 0.181152 0.174805 0.0
vt 0.414062 0.177246 0.0
f 104/697 123/698 121/699
#fvcolorindex 17 27 9 
vt 0.181641 2.866211 0.0
vt 0.414062 0.177246 0.0
vt 0.414551 2.869141 0.0
f 104/700 121/701 103/702
#fvcolorindex 17 9 17 
usemtl m44
vt 0.025879 2.864258 0.0
vt 0.025391 0.172852 0.0
vt 0.181152 0.174805 0.0
f 105/703 125/704 123/705
#fvcolorindex 19 28 27 
vt 0.025879 2.864258 0.0
vt 0.181152 0.174805 0.0
vt 0.181641 2.866211 0.0
f 105/706 123/707 104/708
#fvcolorindex 19 27 17 
usemtl m45
vt 0.744141 2.826172 0.0
vt 0.735352 0.191895 0.0
vt 1.014160 0.193848 0.0
f 106/709 127/710 125/711
#fvcolorindex 20 7 28 
vt 0.744141 2.826172 0.0
vt 1.014160 0.193848 0.0
vt 1.022949 2.828125 0.0
f 106/712 125/713 105/714
#fvcolorindex 20 28 19 
usemtl m46
vt 0.465820 2.823730 0.0
vt 0.457031 0.189453 0.0
vt 0.735352 0.191895 0.0
f 107/715 129/716 127/717
#fvcolorindex 21 7 7 
vt 0.465820 2.823730 0.0
vt 0.735352 0.191895 0.0
vt 0.744141 2.826172 0.0
f 107/718 127/719 106/720
#fvcolorindex 21 7 20 
usemtl m47
vt 0.229492 2.822266 0.0
vt 0.220703 0.187500 0.0
vt 0.457031 0.189453 0.0
f 108/721 131/722 129/723
#fvcolorindex 8 7 7 
vt 0.229492 2.822266 0.0
vt 0.457031 0.189453 0.0
vt 0.465820 2.823730 0.0
f 108/724 129/725 107/726
#fvcolorindex 8 7 21 
usemtl m48
vt 0.071777 2.820801 0.0
vt 0.062988 0.186523 0.0
vt 0.220703 0.187500 0.0
f 109/727 133/728 131/729
#fvcolorindex 7 7 7 
vt 0.071777 2.820801 0.0
vt 0.220703 0.187500 0.0
vt 0.229492 2.822266 0.0
f 109/730 131/731 108/732
#fvcolorindex 7 7 8 
vt 0.706543 2.911621 0.0
vt 0.706543 0.280273 0.0
vt 0.975586 0.283203 0.0
f 110/733 135/734 133/735
#fvcolorindex 7 7 7 
vt 0.706543 2.911621 0.0
vt 0.975586 0.283203 0.0
vt 0.975586 2.915039 0.0
f 110/736 133/737 109/738
#fvcolorindex 7 7 7 
vt 0.437500 2.908691 0.0
vt 0.437500 0.277344 0.0
vt 0.706543 0.280273 0.0
f 111/739 137/740 135/741
#fvcolorindex 7 7 7 
vt 0.437500 2.908691 0.0
vt 0.706543 0.280273 0.0
vt 0.706543 2.911621 0.0
f 111/742 135/743 110/744
#fvcolorindex 7 7 7 
vt 0.209473 2.905762 0.0
vt 0.209473 0.274414 0.0
vt 0.437500 0.277344 0.0
f 112/745 139/746 137/747
#fvcolorindex 7 7 7 
vt 0.209473 2.905762 0.0
vt 0.437500 0.277344 0.0
vt 0.437500 2.908691 0.0
f 112/748 137/749 111/750
#fvcolorindex 7 7 7 
vt 0.057129 2.904297 0.0
vt 0.057129 0.272461 0.0
vt 0.209473 0.274414 0.0
f 113/751 141/752 139/753
#fvcolorindex 7 7 7 
vt 0.057129 2.904297 0.0
vt 0.209473 0.274414 0.0
vt 0.209473 2.905762 0.0
f 113/754 139/755 112/756
#fvcolorindex 7 7 7 
usemtl m49
vt 0.693848 2.878906 0.0
vt 0.689453 0.216309 0.0
vt 0.961426 0.215820 0.0
f 114/757 143/758 141/759
#fvcolorindex 22 7 7 
vt 0.693848 2.878906 0.0
vt 0.961426 0.215820 0.0
vt 0.965332 2.878418 0.0
f 114/760 141/761 113/762
#fvcolorindex 22 7 7 
usemtl m50
vt 0.421875 2.879395 0.0
vt 0.417480 0.216797 0.0
vt 0.689453 0.216309 0.0
f 115/763 145/764 143/765
#fvcolorindex 23 7 7 
vt 0.421875 2.879395 0.0
vt 0.689453 0.216309 0.0
vt 0.693848 2.878906 0.0
f 115/766 143/767 114/768
#fvcolorindex 23 7 22 
usemtl m51
vt 0.191406 2.879883 0.0
vt 0.187012 0.217285 0.0
vt 0.417480 0.216797 0.0
f 116/769 147/770 145/771
#fvcolorindex 24 7 7 
vt 0.191406 2.879883 0.0
vt 0.417480 0.216797 0.0
vt 0.421875 2.879395 0.0
f 116/772 145/773 115/774
#fvcolorindex 24 7 23 
usemtl m52
vt 0.037109 2.879883 0.0
vt 0.032715 0.217773 0.0
vt 0.187012 0.217285 0.0
f 102/775 119/776 147/777
#fvcolorindex 18 25 7 
vt 0.037109 2.879883 0.0
vt 0.187012 0.217285 0.0
vt 0.191406 2.879883 0.0
f 102/778 147/779 116/780
#fvcolorindex 18 7 24 
usemtl m53
vt 0.971680 0.937500 0.0
vt 0.997070 0.218750 0.0
vt 0.973633 0.904297 0.0
v 27.111700 74.826912 17.000000
#joint 34
#vjoint 149
v 27.111700 65.826912 34.000000
#joint 34
#vjoint 150
v 27.111700 68.826912 17.000000
#joint 34
#vjoint 151
f 149/781 150/782 151/783
#fvcolorindex 17 17 17 
vt 0.971680 0.937500 0.0
vt 0.717773 0.012695 0.0
vt 0.997070 0.218750 0.0
v 23.111700 71.826912 41.000000
#joint 34
#vjoint 152
f 149/784 152/785 150/786
#fvcolorindex 17 17 17 
vt 1.000000 1.417969 0.0
vt 0.717773 1.563477 0.0
vt 0.717773 -0.019531 0.0
v 23.111700 12.826912 47.000000
#joint 34
#vjoint 153
f 150/787 152/788 153/789
#fvcolorindex 17 17 17 
vt 1.000000 1.417969 0.0
vt 0.717773 -0.019531 0.0
vt 1.000000 0.000000 0.0
v 27.111700 12.826912 41.000000
#joint 34
#vjoint 154
f 150/790 153/791 154/792
#fvcolorindex 17 17 17 
vt 1.000000 1.023438 0.0
vt 0.718750 1.074219 0.0
vt 0.777344 0.009766 0.0
v 23.111700 -22.173088 31.000000
#joint 34
#vjoint 155
f 154/793 153/794 155/795
#fvcolorindex 17 17 17 
vt 0.777344 0.009766 0.0
vt 0.718750 1.074219 0.0
vt 0.288086 1.079102 0.0
v 17.111700 12.826912 47.000000
#joint 34
#vjoint 156
f 155/796 153/797 156/798
#fvcolorindex 17 17 17 
vt 0.777344 0.009766 0.0
vt 0.288086 1.079102 0.0
vt 0.345703 0.014648 0.0
v 17.111700 -22.173088 31.000000
#joint 34
#vjoint 157
f 155/799 156/800 157/801
#fvcolorindex 17 17 17 
vt 0.282227 -0.019531 0.0
vt 0.717773 -0.019531 0.0
vt 0.717773 1.563477 0.0
f 156/802 153/803 152/804
#fvcolorindex 17 17 17 
vt 0.282227 -0.019531 0.0
vt 0.717773 1.563477 0.0
vt 0.282227 1.563477 0.0
v 17.111700 71.826912 41.000000
#joint 34
#vjoint 158
f 156/805 152/806 158/807
#fvcolorindex 17 17 17 
vt 0.000000 1.417969 0.0
vt 0.000000 0.000000 0.0
vt 0.282227 -0.019531 0.0
v 13.111700 65.826912 34.000000
#joint 34
#vjoint 159
v 13.111700 12.826912 41.000000
#joint 34
#vjoint 160
f 159/808 160/809 156/810
#fvcolorindex 17 17 17 
vt 0.000000 1.417969 0.0
vt 0.282227 -0.019531 0.0
vt 0.282227 1.563477 0.0
f 159/811 156/812 158/813
#fvcolorindex 17 17 17 
vt -0.018555 0.242188 0.0
vt 0.275391 0.023438 0.0
vt -0.043945 0.960938 0.0
v 13.111700 74.826912 17.000000
#joint 34
#vjoint 161
f 159/814 158/815 161/816
#fvcolorindex 17 17 17 
vt 0.345703 0.014648 0.0
vt 0.288086 1.079102 0.0
vt 0.011719 1.035156 0.0
f 157/817 156/818 160/819
#fvcolorindex 17 17 17 
vt 1.000000 1.023438 0.0
vt 0.777344 0.009766 0.0
vt 0.345703 0.014648 0.0
f 154/820 155/821 157/822
#fvcolorindex 17 17 17 
vt 1.000000 1.023438 0.0
vt 0.345703 0.014648 0.0
vt 0.011719 1.035156 0.0
f 154/823 157/824 160/825
#fvcolorindex 17 17 17 
vt 1.000000 0.000000 0.0
vt 0.000000 0.000000 0.0
vt 0.000000 1.417969 0.0
f 154/826 160/827 159/828
#fvcolorindex 17 17 17 
vt 1.000000 0.000000 0.0
vt 0.000000 1.417969 0.0
vt 1.000000 1.417969 0.0
f 154/829 159/830 150/831
#fvcolorindex 17 17 17 
vt 0.997070 0.218750 0.0
vt -0.018555 0.242188 0.0
vt -0.042969 0.927734 0.0
v 13.111700 68.826912 17.000000
#joint 34
#vjoint 162
f 150/832 159/833 162/834
#fvcolorindex 17 17 17 
vt 0.997070 0.218750 0.0
vt -0.042969 0.927734 0.0
vt 0.973633 0.904297 0.0
f 150/835 162/836 151/837
#fvcolorindex 17 17 17 
vt -0.019531 0.039062 0.0
vt 0.953125 0.030273 0.0
vt 0.958984 0.937500 0.0
v 27.111700 74.826912 -17.000000
#joint 34
#vjoint 163
f 161/838 149/839 163/840
#fvcolorindex 17 17 17 
vt -0.019531 0.039062 0.0
vt 0.958984 0.937500 0.0
vt -0.013672 0.946289 0.0
v 13.111700 74.826912 -17.000000
#joint 34
#vjoint 164
f 161/841 163/842 164/843
#fvcolorindex 17 17 17 
vt -0.013672 0.946289 0.0
vt -0.019531 0.039062 0.0
vt -0.013672 0.946289 0.0
v 13.111700 68.826912 -17.000000
#joint 34
#vjoint 165
f 165/844 162/845 164/846
#fvcolorindex 17 17 17 
vt -0.019531 0.039062 0.0
vt -0.019531 0.039062 0.0
vt -0.013672 0.946289 0.0
f 162/847 161/848 164/849
#fvcolorindex 17 17 17 
vt 0.958984 0.937500 0.0
vt 0.958984 0.937500 0.0
vt 0.953125 0.030273 0.0
v 27.111700 68.826912 -17.000000
#joint 34
#vjoint 166
f 166/850 163/851 149/852
#fvcolorindex 17 17 17 
vt 0.958984 0.937500 0.0
vt 0.953125 0.030273 0.0
vt 0.953125 0.030273 0.0
f 166/853 149/854 151/855
#fvcolorindex 17 17 17 
vt -0.013672 0.946289 0.0
vt -0.013672 0.946289 0.0
vt 0.958984 0.937500 0.0
f 165/856 164/857 163/858
#fvcolorindex 17 17 17 
vt -0.013672 0.946289 0.0
vt 0.958984 0.937500 0.0
vt 0.958984 0.937500 0.0
f 165/859 163/860 166/861
#fvcolorindex 17 17 17 
vt -0.013672 0.946289 0.0
vt 0.958984 0.937500 0.0
vt 0.953125 0.030273 0.0
f 165/862 166/863 151/864
#fvcolorindex 17 17 17 
vt -0.013672 0.946289 0.0
vt 0.953125 0.030273 0.0
vt -0.019531 0.039062 0.0
f 165/865 151/866 162/867
#fvcolorindex 17 17 17 
vt 0.275391 0.023438 0.0
vt 0.717773 0.012695 0.0
vt 0.971680 0.937500 0.0
f 158/868 152/869 149/870
#fvcolorindex 17 17 17 
vt 0.275391 0.023438 0.0
vt 0.971680 0.937500 0.0
vt -0.043945 0.960938 0.0
f 158/871 149/872 161/873
#fvcolorindex 17 17 17 
usemtl m54
vt 0.000000 0.000000 0.0
vt 0.499023 -0.083008 0.0
vt 0.518555 2.094727 0.0
#vcolor 249.000000 249.000000 249.000000 255.000000
f 72/874 71/875 81/876
#fvcolorindex 29 29 29 
vt 0.000000 0.000000 0.0
vt 0.518555 2.094727 0.0
vt 0.017578 2.011719 0.0
f 72/877 81/878 80/879
#fvcolorindex 29 29 29 
vt 0.499023 -0.083008 0.0
vt 1.000000 0.000000 0.0
vt 1.017578 2.011719 0.0
f 71/880 70/881 82/882
#fvcolorindex 29 29 29 
vt 0.499023 -0.083008 0.0
vt 1.017578 2.011719 0.0
vt 0.518555 2.094727 0.0
f 71/883 82/884 81/885
#fvcolorindex 29 29 29 
usemtl m55
vt 0.311523 0.952637 0.0
vt 0.312012 0.068848 0.0
vt 0.312012 0.068848 0.0
f 79/886 74/887 72/888
#fvcolorindex 2 2 2 
vt 0.311523 0.952637 0.0
vt 0.312012 0.068848 0.0
vt 0.311523 0.952637 0.0
f 79/889 72/890 80/891
#fvcolorindex 2 2 2 
usemtl m56
vt 0.684082 0.062500 0.0
vt 0.684082 0.062500 0.0
vt 0.683105 0.946777 0.0
f 70/892 69/893 84/894
#fvcolorindex 7 7 7 
vt 0.684082 0.062500 0.0
vt 0.683105 0.946777 0.0
vt 0.683105 0.946777 0.0
f 70/895 84/896 82/897
#fvcolorindex 7 7 7 
usemtl m57
vt 0.311523 0.952637 0.0
vt 0.154297 0.851562 0.0
vt 0.154785 0.174805 0.0
f 79/898 78/899 73/900
#fvcolorindex 29 29 29 
vt 0.311523 0.952637 0.0
vt 0.154785 0.174805 0.0
vt 0.312012 0.068848 0.0
f 79/901 73/902 74/903
#fvcolorindex 29 29 13 
vt 0.048828 0.698242 0.0
vt 0.049316 0.332031 0.0
vt 0.154785 0.174805 0.0
f 77/904 75/905 73/906
#fvcolorindex 29 29 29 
vt 0.048828 0.698242 0.0
vt 0.154785 0.174805 0.0
vt 0.154297 0.851562 0.0
f 77/907 73/908 78/909
#fvcolorindex 29 29 29 
vt 0.049316 0.332031 0.0
vt 0.048828 0.698242 0.0
vt 0.012207 0.515625 0.0
f 75/910 77/911 76/912
#fvcolorindex 29 29 29 
vt 0.683105 0.946777 0.0
vt 0.684082 0.062500 0.0
vt 0.841309 0.163574 0.0
f 84/913 69/914 68/915
#fvcolorindex 29 29 29 
vt 0.683105 0.946777 0.0
vt 0.841309 0.163574 0.0
vt 0.840820 0.840332 0.0
f 84/916 68/917 83/918
#fvcolorindex 29 29 29 
vt 0.840820 0.840332 0.0
vt 0.841309 0.163574 0.0
vt 0.946777 0.316895 0.0
f 83/919 68/920 67/921
#fvcolorindex 29 29 29 
vt 0.840820 0.840332 0.0
vt 0.946777 0.316895 0.0
vt 0.946289 0.683105 0.0
f 83/922 67/923 66/924
#fvcolorindex 29 29 29 
vt 0.946289 0.683105 0.0
vt 0.946777 0.316895 0.0
vt 0.983398 0.499512 0.0
f 66/925 67/926 65/927
#fvcolorindex 29 29 29 
usemtl m56
vt 0.678223 0.345215 0.0
vt 0.733887 0.416504 0.0
vt 0.495117 0.280762 0.0
f 148/928 118/929 144/930
#fvcolorindex 7 7 7 
vt 0.678223 0.345215 0.0
vt 0.495117 0.280762 0.0
vt 0.594238 0.297363 0.0
f 148/931 144/932 146/933
#fvcolorindex 7 7 7 
vt 0.395996 0.298340 0.0
vt 0.495117 0.280762 0.0
vt 0.733887 0.416504 0.0
f 142/934 144/935 118/936
#fvcolorindex 7 7 7 
vt 0.395996 0.298340 0.0
vt 0.733887 0.416504 0.0
vt 0.753418 0.501465 0.0
f 142/937 118/938 117/939
#fvcolorindex 7 7 7 
vt 0.311523 0.346191 0.0
vt 0.395996 0.298340 0.0
vt 0.753418 0.501465 0.0
f 140/940 142/941 117/942
#fvcolorindex 7 7 7 
vt 0.311523 0.346191 0.0
vt 0.753418 0.501465 0.0
vt 0.733398 0.585938 0.0
f 140/943 117/944 122/945
#fvcolorindex 7 7 7 
vt 0.255371 0.418457 0.0
vt 0.311523 0.346191 0.0
vt 0.733398 0.585938 0.0
f 138/946 140/947 122/948
#fvcolorindex 7 7 7 
vt 0.255371 0.418457 0.0
vt 0.733398 0.585938 0.0
vt 0.676758 0.657715 0.0
f 138/949 122/950 124/951
#fvcolorindex 7 7 7 
vt 0.255371 0.418457 0.0
vt 0.676758 0.657715 0.0
vt 0.592773 0.706055 0.0
f 138/952 124/953 126/954
#fvcolorindex 7 7 7 
vt 0.255371 0.418457 0.0
vt 0.592773 0.706055 0.0
vt 0.235352 0.502930 0.0
f 138/955 126/956 136/957
#fvcolorindex 7 7 7 
vt 0.235352 0.502930 0.0
vt 0.592773 0.706055 0.0
vt 0.493652 0.723145 0.0
f 136/958 126/959 128/960
#fvcolorindex 7 7 7 
vt 0.235352 0.502930 0.0
vt 0.493652 0.723145 0.0
vt 0.254395 0.587402 0.0
f 136/961 128/962 134/963
#fvcolorindex 7 7 7 
vt 0.254395 0.587402 0.0
vt 0.493652 0.723145 0.0
vt 0.394531 0.707031 0.0
f 134/964 128/965 130/966
#fvcolorindex 7 7 7 
vt 0.254395 0.587402 0.0
vt 0.394531 0.707031 0.0
vt 0.310547 0.659180 0.0
f 134/967 130/968 132/969
#fvcolorindex 7 7 7 
usemtl m58
vt 0.000000 0.000000 0.0
vt 0.000000 0.000000 0.0
vt 0.000000 0.000000 0.0
f 159/970 161/971 162/972
#fvcolorindex 17 17 17 
